<svg width="24" height="24" viewBox="0 0 24 24" fill="none" xmlns="http://www.w3.org/2000/svg">
<g clip-path="url(#clip0_2128_409)">
<path d="M23.5462 14.3715C23.4066 13.9488 23.0411 13.6545 22.5684 13.5838C22.3455 13.5505 22.0902 13.5647 21.7881 13.627C21.2615 13.7356 20.8709 13.777 20.5858 13.785C21.6619 11.9682 22.5369 9.89636 23.0406 7.94609C23.8552 4.79255 23.4199 3.35591 22.9113 2.70609C21.5652 0.986091 19.6013 0.0620908 17.232 0.033818C15.9681 0.0183635 14.8585 0.267909 14.2797 0.447363C13.7408 0.352273 13.1614 0.299182 12.5534 0.289364C11.4136 0.271182 10.4066 0.519636 9.54618 1.03027C9.06982 0.869182 8.30527 0.642091 7.42236 0.497182C5.34582 0.156273 3.67218 0.421909 2.448 1.28673C0.965637 2.33382 0.278455 4.15309 0.405546 6.694C0.445909 7.50073 0.897182 9.95527 1.60773 12.2831C2.01609 13.6211 2.45155 14.7322 2.902 15.5858C3.54082 16.7963 4.22436 17.5091 4.99173 17.7651C5.42182 17.9084 6.20327 18.0087 7.02518 17.3242C7.12936 17.4504 7.26836 17.5757 7.45282 17.6922C7.68709 17.8399 7.97355 17.9606 8.25964 18.0322C9.29064 18.2899 10.2564 18.2255 11.0803 17.8642C11.0854 18.0107 11.0893 18.1507 11.0925 18.2716C11.098 18.4677 11.1035 18.66 11.1106 18.8398C11.1595 20.0556 11.2422 21.001 11.4873 21.6625C11.5007 21.6988 11.5188 21.7543 11.5379 21.8131C11.6602 22.1875 11.8646 22.8142 12.3848 23.305C12.9235 23.8135 13.575 23.9694 14.1717 23.9694C14.471 23.9694 14.7565 23.9301 15.007 23.8765C15.8997 23.6851 16.9136 23.3936 17.6471 22.3493C18.3405 21.362 18.6776 19.875 18.7386 17.532C18.7465 17.4657 18.7538 17.4025 18.7608 17.3422L18.7754 17.2184L18.9387 17.2327L18.9808 17.2355C19.8901 17.277 21.0019 17.0842 21.6847 16.767C22.2243 16.5166 23.9533 15.6038 23.5462 14.3715Z" fill="black"/>
<path d="M21.9915 14.6111C19.2878 15.1688 19.1019 14.2535 19.1019 14.2535C21.9565 10.0177 23.1498 4.64109 22.1201 3.32518C19.3106 -0.264364 14.4475 1.43327 14.3663 1.47727L14.3402 1.482C13.806 1.37109 13.2083 1.30509 12.5364 1.29409C11.3131 1.27409 10.3851 1.61482 9.68091 2.14882C9.68091 2.14882 1.00545 -1.42518 1.409 6.64373C1.49482 8.36027 3.86936 19.6322 6.70155 16.2275C7.73673 14.9825 8.737 13.9299 8.737 13.9299C9.23373 14.2599 9.82845 14.4283 10.4519 14.3678L10.5004 14.3267C10.4853 14.4813 10.4922 14.6325 10.5197 14.8115C9.79009 15.6266 10.0045 15.7697 8.546 16.07C7.07009 16.3742 7.93709 16.9156 8.50318 17.0573C9.18945 17.2288 10.7771 17.4719 11.8498 15.9702L11.8071 16.1415C12.0929 16.3705 12.2936 17.6309 12.26 18.7735C12.2264 19.9161 12.2039 20.7005 12.4291 21.3133C12.6545 21.926 12.8789 23.3046 14.7964 22.8938C16.3985 22.5505 17.2287 21.6607 17.3443 20.1765C17.4262 19.1215 17.6117 19.2775 17.6234 18.3341L17.7722 17.8875C17.9437 16.4573 17.7995 15.9958 18.7865 16.2105L19.0265 16.2315C19.7528 16.2645 20.7037 16.1146 21.2618 15.8553C22.4635 15.2976 23.1762 14.3665 21.9913 14.6111H21.9915Z" fill="#336791"/>
<path d="M10.1887 7.41136C9.94509 7.37745 9.72445 7.40882 9.61282 7.49336C9.55009 7.54091 9.53064 7.596 9.52536 7.63391C9.51136 7.73436 9.58173 7.84545 9.625 7.90273C9.74736 8.06491 9.92609 8.17636 10.103 8.20091C10.1286 8.20454 10.1542 8.20618 10.1795 8.20618C10.4745 8.20618 10.7428 7.97645 10.7665 7.80691C10.796 7.59454 10.4877 7.45291 10.1887 7.41136ZM18.26 7.41809C18.2367 7.25164 17.9405 7.20418 17.6595 7.24327C17.3787 7.28236 17.1065 7.40909 17.1293 7.57591C17.1475 7.70564 17.3817 7.92709 17.659 7.92709C17.6825 7.92709 17.7061 7.92554 17.7299 7.92218C17.915 7.89654 18.0508 7.779 18.1154 7.71127C18.2135 7.608 18.2705 7.49291 18.26 7.41809Z" fill="white"/>
<path d="M22.8911 14.5477C22.788 14.236 22.4562 14.1357 21.9049 14.2495C20.2681 14.5874 19.6819 14.3534 19.4895 14.2116C20.7617 12.2735 21.8084 9.93055 22.373 7.74464C22.6405 6.70918 22.7882 5.74755 22.8003 4.96373C22.8136 4.10346 22.6671 3.47127 22.3649 3.08509C21.1465 1.52827 19.3584 0.693182 17.1938 0.670273C15.7057 0.653546 14.4485 1.03436 14.2047 1.14145C13.6915 1.01382 13.1319 0.935455 12.5227 0.925455C11.4056 0.907364 10.44 1.17482 9.64055 1.72C9.29327 1.59073 8.39582 1.28264 7.29827 1.10582C5.40082 0.800364 3.893 1.03182 2.817 1.79409C1.53309 2.70373 0.940364 4.32973 1.05518 6.62682C1.09382 7.39964 1.53418 9.77709 2.22909 12.0539C3.14382 15.0506 4.13818 16.7471 5.18436 17.0961C5.30682 17.1369 5.448 17.1655 5.60373 17.1655C5.98536 17.1655 6.45327 16.9935 6.94009 16.4082C7.53387 15.6959 8.1481 15.0009 8.782 14.324C9.19327 14.5447 9.64509 14.668 10.1072 14.6804C10.1081 14.6925 10.1093 14.7045 10.1104 14.7165C10.0308 14.8114 9.95293 14.9076 9.87673 15.0052C9.55655 15.4116 9.48991 15.4963 8.45927 15.7085C8.16609 15.769 7.38745 15.9295 7.376 16.4753C7.36364 17.0716 8.29645 17.3221 8.40273 17.3486C8.77309 17.4414 9.12991 17.4871 9.47018 17.4871C10.2977 17.4871 11.026 17.2151 11.608 16.6888C11.5901 18.8148 11.6787 20.9097 11.934 21.548C12.1431 22.0705 12.6538 23.3475 14.2671 23.3475C14.5038 23.3475 14.7644 23.3199 15.051 23.2585C16.7347 22.8975 17.4659 22.1534 17.7487 20.5127C17.9001 19.6359 18.1598 17.5422 18.282 16.4191C18.5398 16.4995 18.8717 16.5364 19.2305 16.5363C19.9789 16.5363 20.8425 16.3773 21.384 16.1259C21.9924 15.8434 23.0902 15.1501 22.8911 14.5477ZM18.8815 6.95864C18.8759 7.29018 18.8303 7.59118 18.7819 7.90536C18.7298 8.24327 18.676 8.59264 18.6625 9.01673C18.6491 9.42945 18.7006 9.85855 18.7505 10.2735C18.8512 11.1117 18.9545 11.9746 18.5545 12.8261C18.488 12.7083 18.4288 12.5866 18.3772 12.4616C18.3275 12.3411 18.2195 12.1475 18.0699 11.8795C17.4882 10.8362 16.1259 8.39309 16.8233 7.39618C17.031 7.09945 17.5582 6.79436 18.8815 6.95864ZM17.2775 1.34164C19.2169 1.38445 20.7511 2.11 21.8373 3.498C22.6704 4.56264 21.753 9.40691 19.0973 13.5861C19.0706 13.5521 19.0437 13.5183 19.0167 13.4845L18.9831 13.4425C19.6694 12.3092 19.5352 11.1878 19.4157 10.1936C19.3666 9.78564 19.3203 9.40027 19.3321 9.03827C19.3443 8.65464 19.395 8.32555 19.4441 8.00736C19.5044 7.61527 19.5657 7.20955 19.5488 6.73127C19.5615 6.68109 19.5665 6.62182 19.5599 6.55146C19.5167 6.09282 18.9931 4.72018 17.9258 3.47782C17.342 2.79827 16.4906 2.03782 15.3282 1.52491C15.8282 1.42127 16.5119 1.32464 17.2775 1.34164ZM6.42491 15.9798C5.88855 16.6247 5.51818 16.5011 5.39636 16.4605C4.60273 16.1958 3.68182 14.5184 2.86991 11.8584C2.16736 9.55673 1.75682 7.24227 1.72427 6.59327C1.62173 4.54073 2.11927 3.11027 3.20318 2.34155C4.96718 1.09064 7.86736 1.83936 9.03273 2.21909C9.016 2.23564 8.99855 2.25109 8.982 2.26791C7.06964 4.19918 7.115 7.49882 7.11973 7.70055C7.11955 7.77836 7.12609 7.88855 7.135 8.04009C7.16791 8.59509 7.22918 9.628 7.06555 10.7977C6.91355 11.8847 7.24864 12.9486 7.98473 13.7167C8.06027 13.7954 8.13967 13.8703 8.22264 13.9411C7.895 14.292 7.18291 15.068 6.42491 15.9798ZM8.46845 13.2532C7.87518 12.6341 7.60573 11.773 7.72909 10.8905C7.90182 9.65482 7.83809 8.57864 7.80382 8.00045C7.799 7.91955 7.79473 7.84864 7.79227 7.79273C8.07164 7.545 9.36627 6.85136 10.2895 7.06291C10.7108 7.15936 10.9675 7.44627 11.0743 7.93973C11.6266 10.4945 11.1474 11.5594 10.7623 12.4151C10.6829 12.5914 10.6079 12.758 10.5439 12.9304L10.4943 13.0636C10.3686 13.4005 10.2517 13.7138 10.1793 14.0113C9.54855 14.0095 8.935 13.74 8.46845 13.2531V13.2532ZM8.56527 16.6986C8.38109 16.6526 8.21546 16.5727 8.11827 16.5065C8.19945 16.4683 8.34391 16.4163 8.59445 16.3646C9.80691 16.1151 9.99418 15.9389 10.4031 15.4197C10.4968 15.3006 10.6031 15.1657 10.7503 15.0014L10.7505 15.0012C10.9696 14.7557 11.0699 14.7974 11.2517 14.8728C11.3991 14.9337 11.5426 15.1185 11.6008 15.3217C11.6284 15.4177 11.6593 15.5999 11.5581 15.7417C10.7039 16.9377 9.45918 16.9224 8.56527 16.6986ZM14.9106 22.6034C13.4274 22.9212 12.9022 22.1644 12.5561 21.2992C12.3327 20.7406 12.2229 18.2219 12.3008 15.4404C12.3018 15.4034 12.2965 15.3676 12.2864 15.334C12.2773 15.2676 12.2634 15.2019 12.2449 15.1375C12.1291 14.7327 11.8468 14.3942 11.5082 14.2538C11.3736 14.1981 11.1267 14.0958 10.83 14.1717C10.8933 13.911 11.003 13.6165 11.122 13.2977L11.1719 13.1636C11.2281 13.0125 11.2986 12.8558 11.3732 12.69C11.7762 11.7947 12.3281 10.5685 11.7291 7.79818C11.5047 6.76055 10.7555 6.25382 9.61964 6.37155C8.93873 6.442 8.31573 6.71673 8.005 6.87427C7.93818 6.90809 7.87709 6.94082 7.82 6.97264C7.90673 5.92718 8.23436 3.97336 9.46 2.73718C10.2317 1.959 11.2595 1.57464 12.5116 1.59536C14.9789 1.63573 16.5611 2.90191 17.454 3.95709C18.2235 4.86627 18.6401 5.78218 18.8064 6.27618C17.5559 6.149 16.7055 6.39582 16.2744 7.01218C15.3365 8.35291 16.7875 10.9551 17.4848 12.2057C17.6127 12.4349 17.7231 12.633 17.7578 12.7172C17.9849 13.2675 18.2789 13.635 18.4935 13.9032C18.5594 13.9854 18.6232 14.0651 18.6717 14.1347C18.293 14.2439 17.6127 14.4962 17.6747 15.7572C17.6247 16.3899 17.2692 19.3523 17.0885 20.3989C16.8501 21.7816 16.3413 22.2966 14.9106 22.6035V22.6034ZM21.1019 15.5183C20.7146 15.698 20.0665 15.8328 19.4509 15.8618C18.7709 15.8936 18.4247 15.7856 18.3433 15.7192C18.3051 14.9334 18.5975 14.8513 18.9071 14.7644C18.9557 14.7507 19.0032 14.7374 19.049 14.7214C19.0775 14.7445 19.1086 14.7675 19.1428 14.7901C19.6894 15.1508 20.6642 15.1897 22.0405 14.9056L22.0555 14.9026C21.8699 15.0762 21.5523 15.3091 21.1019 15.5183Z" fill="white"/>
</g>
<defs>
<clipPath id="clip0_2128_409">
<rect width="24" height="24" fill="white"/>
</clipPath>
</defs>
</svg>