<svg xmlns="http://www.w3.org/2000/svg" xmlns:xlink="http://www.w3.org/1999/xlink" viewBox="0 0 61 81" fill="#fff" fill-rule="evenodd" stroke="#000" stroke-linecap="round" stroke-linejoin="round"><use xlink:href="#A" x=".5" y=".5"/><symbol id="A" overflow="visible"><g stroke="none"><path d="M0 10.88v58.08c0 6.08 13.333 10.88 30 10.88V10.88H0z" fill="#3999c6"/><path d="M29.524 80H30c16.508 0 30-4.96 30-10.88V10.88H29.524V80z" fill="#59b4d9"/><path d="M60 10.88c0 6.08-13.333 10.88-30 10.88S0 16.96 0 10.88C0 4.96 13.492 0 30 0s30 4.96 30 10.88"/><path d="M53.81 10.24c0 4-10.635 7.2-23.81 7.2s-23.809-3.2-23.809-7.2 10.635-7.2 23.81-7.2 23.81 3.2 23.81 7.2" fill="#7fba00"/><path d="M48.889 14.72c3.175-1.28 4.921-2.72 4.921-4.48 0-4-10.635-7.2-23.81-7.2s-23.809 3.2-23.809 7.2c0 1.6 1.905 3.2 4.921 4.48 4.286-1.76 11.111-2.88 18.889-2.88 7.619 0 14.444 1.12 18.889 2.88" fill="#b8d432"/><path d="M21.429 66.88c-2.381 0-4.286-.32-5.555-.8-1.429-.48-2.381-1.28-3.016-2.24-.635-1.12-.952-2.72-.952-4.8v-3.52c0-2.24-.952-3.52-2.857-3.52v-4.32c1.905 0 2.857-1.12 2.857-3.52v-3.2c0-2.24.317-4 .952-4.96.635-1.12 1.587-1.76 2.857-2.4 1.429-.48 3.175-.8 5.556-.8v4.32c-1.111 0-1.746.16-2.381.64-.476.48-.794 1.28-.794 2.4v2.72c0 1.76-.159 3.2-.635 4.32s-1.27 1.92-2.381 2.4h0c1.111.48 1.905 1.28 2.381 2.56.476 1.12.794 2.72.794 4.48v2.4c0 1.12.159 1.92.635 2.4s1.27.8 2.381.8v4.64zM48.413 52c-1.905 0-2.857 1.12-2.857 3.52v3.2c0 2.24-.318 4-.952 4.96-.635 1.12-1.587 1.76-2.857 2.4-1.428.48-3.175.8-5.556.8v-4.32c1.111 0 1.905-.16 2.381-.64s.794-1.28.794-2.4V56.8c0-1.76.159-3.2.635-4.32a4.39 4.39 0 0 1 2.381-2.4h0c-1.111-.48-1.905-1.44-2.381-2.56s-.794-2.72-.794-4.48v-2.4c0-1.12-.159-1.92-.635-2.4s-1.27-.8-2.381-.8v-4.32c2.381 0 4.286.32 5.556.8 1.428.48 2.381 1.28 3.016 2.24.635 1.12.953 2.72.953 4.8v3.52c0 2.24.952 3.52 2.857 3.52v4z"/></g></symbol></svg>