<svg width="32" height="33" viewBox="0 0 32 33" fill="none" xmlns="http://www.w3.org/2000/svg">
<path d="M9.36806 25.9481C5.93935 25.9481 3.15283 21.7098 3.15283 16.5002C3.15283 11.2907 5.94157 7.05238 9.36806 7.05238C12.7945 7.05238 15.5833 11.2907 15.5833 16.5002C15.5833 21.7098 12.7945 25.9481 9.36806 25.9481Z" fill="#FAFAFA"/>
<path d="M9.36815 7.49694C10.8414 7.49694 12.2524 8.38594 13.3391 10.0017C14.499 11.7241 15.139 14.0333 15.139 16.5003C15.139 18.9673 14.499 21.2764 13.3391 22.9989C12.2524 24.6146 10.8414 25.5036 9.36815 25.5036C7.89489 25.5036 6.48385 24.6146 5.39724 22.9989C4.23508 21.2764 3.59734 18.9673 3.59734 16.5003C3.59734 14.0333 4.23731 11.7241 5.39724 10.0017C6.48385 8.38594 7.89267 7.49694 9.36815 7.49694ZM9.36815 6.60794C5.69056 6.60794 2.7085 11.0374 2.7085 16.5003C2.7085 21.9632 5.69056 26.3926 9.36815 26.3926C13.0457 26.3926 16.0278 21.9632 16.0278 16.5003C16.0278 11.0374 13.0457 6.60794 9.36815 6.60794Z" fill="#B0BEC5"/>
<path d="M7.47266 15.5762C6.87269 15.0118 7.00602 13.8919 7.77487 13.0741C7.81486 13.0319 7.85486 12.9919 7.89708 12.9541C7.55488 12.7608 7.17934 12.6519 6.78381 12.6519C5.18611 12.6519 3.89062 14.414 3.89062 16.585C3.89062 18.756 5.18611 20.5182 6.78381 20.5182C8.3815 20.5182 9.67699 18.756 9.67699 16.585C9.67699 16.1962 9.63477 15.8184 9.55699 15.4629C8.83703 15.9806 7.97708 16.0495 7.47266 15.5762Z" fill="url(#paint0_linear_2122_5062)"/>
<path d="M22.6294 26.3932C26.3074 26.3932 29.289 21.9642 29.289 16.5008C29.289 11.0374 26.3074 6.60847 22.6294 6.60847C18.9514 6.60847 15.9697 11.0374 15.9697 16.5008C15.9697 21.9642 18.9514 26.3932 22.6294 26.3932Z" fill="#EEEEEE"/>
<path d="M22.6283 25.9493C19.2018 25.9493 16.4131 21.711 16.4131 16.5014C16.4131 11.2919 19.2018 7.05357 22.6283 7.05357C26.0548 7.05357 28.8435 11.2919 28.8435 16.5014C28.8435 21.711 26.057 25.9493 22.6283 25.9493Z" fill="#FAFAFA"/>
<path d="M22.6284 7.49816C24.1017 7.49816 25.5127 8.38716 26.5993 10.0029C27.7592 11.7254 28.3992 14.0345 28.3992 16.5015C28.3992 18.9685 27.7592 21.2777 26.5993 23.0001C25.5127 24.6159 24.1017 25.5049 22.6284 25.5049C21.1551 25.5049 19.7441 24.6159 18.6575 23.0001C17.4976 21.2777 16.8576 18.9685 16.8576 16.5015C16.8576 14.0345 17.4976 11.7254 18.6575 10.0029C19.7441 8.38716 21.1551 7.49816 22.6284 7.49816ZM22.6284 6.60916C18.9508 6.60916 15.9688 11.0386 15.9688 16.5015C15.9688 21.9644 18.9508 26.3939 22.6284 26.3939C26.306 26.3939 29.2881 21.9644 29.2881 16.5015C29.2881 11.0386 26.306 6.60916 22.6284 6.60916Z" fill="#B0BEC5"/>
<path d="M20.7339 15.5767C20.1339 15.0123 20.2672 13.8924 21.0361 13.0746C21.0761 13.0324 21.1161 12.9924 21.1583 12.9546C20.8161 12.7613 20.4406 12.6524 20.045 12.6524C18.4473 12.6524 17.1519 14.4146 17.1519 16.5856C17.1519 18.7566 18.4473 20.5187 20.045 20.5187C21.6427 20.5187 22.9382 18.7566 22.9382 16.5856C22.9382 16.1967 22.896 15.8189 22.8182 15.4634C22.1005 15.9812 21.2383 16.05 20.7339 15.5767Z" fill="url(#paint1_linear_2122_5062)"/>
<defs>
<linearGradient id="paint0_linear_2122_5062" x1="6.78232" y1="12.651" x2="6.78232" y2="20.5188" gradientUnits="userSpaceOnUse">
<stop stop-color="#424242"/>
<stop offset="1" stop-color="#212121"/>
</linearGradient>
<linearGradient id="paint1_linear_2122_5062" x1="20.0449" y1="12.6515" x2="20.0449" y2="20.5193" gradientUnits="userSpaceOnUse">
<stop stop-color="#424242"/>
<stop offset="1" stop-color="#212121"/>
</linearGradient>
</defs>
</svg>
