<svg xmlns="http://www.w3.org/2000/svg" width="800" height="800" viewBox="19.933 68.509 228.155 228.155"><path fill="#a4c639" d="M101.885 207.092c7.865 0 14.241 6.376 14.241 14.241v61.09c0 7.865-6.376 14.24-14.241 14.24s-14.24-6.375-14.24-14.24v-61.09c0-7.864 6.376-14.24 14.24-14.24z"/><path fill="#a4c639" d="M69.374 133.645c-.047.54-.088 1.086-.088 1.638v92.557c0 9.954 7.879 17.973 17.66 17.973h94.124c9.782 0 17.661-8.02 17.661-17.973v-92.557q.001-.83-.066-1.638z"/><path fill="#a4c639" d="M166.133 207.092c7.865 0 14.241 6.376 14.241 14.241v61.09c0 7.865-6.376 14.24-14.241 14.24s-14.24-6.375-14.24-14.24v-61.09c0-7.864 6.376-14.24 14.24-14.24zm-119.728-65.21c7.864 0 14.24 6.376 14.24 14.241v61.09c0 7.865-6.376 14.241-14.24 14.241-7.865 0-14.241-6.376-14.241-14.24v-61.09c-.001-7.865 6.375-14.242 14.241-14.242m175.209 0c7.864 0 14.24 6.376 14.24 14.241v61.09c0 7.865-6.376 14.241-14.24 14.241-7.865 0-14.241-6.376-14.241-14.24v-61.09c0-7.865 6.376-14.242 14.241-14.242M69.79 127.565c.396-28.43 25.21-51.74 57.062-54.812h14.312c31.854 3.073 56.666 26.384 57.062 54.812z"/><path fill="none" stroke="#a4c639" stroke-linecap="round" stroke-linejoin="round" stroke-width="3" d="m74.743 70.009 15.022 26.02m103.511-26.02-15.023 26.02"/><path fill="#fff" d="M114.878 102.087c.012 3.974-3.277 7.205-7.347 7.216-4.068.01-7.376-3.202-7.388-7.176v-.04c-.011-3.975 3.278-7.205 7.347-7.216 4.068-.011 7.376 3.2 7.388 7.176zm54.996 0c.012 3.974-3.277 7.205-7.347 7.216-4.068.01-7.376-3.202-7.388-7.176v-.04c-.011-3.975 3.278-7.205 7.347-7.216 4.068-.011 7.376 3.2 7.388 7.176z"/></svg>