<svg xmlns="http://www.w3.org/2000/svg" width="800" height="800" fill="none" viewBox="0 0 16 16"><path fill="#252F3E" d="M4.51 7.687q0 .297.058.475.061.175.17.384a.23.23 0 0 1 .037.123q.001.08-.1.16l-.336.224a.26.26 0 0 1-.138.048q-.08-.001-.16-.074a1.7 1.7 0 0 1-.192-.251 4 4 0 0 1-.165-.315q-.622.737-1.564.737-.672 0-1.064-.385-.393-.384-.394-1.025-.001-.682.484-1.1c.325-.278.756-.416 1.304-.416q.27.002.564.042c.197.027.4.07.612.118v-.39q-.001-.608-.25-.854-.254-.248-.868-.246-.279-.001-.574.07a4 4 0 0 0-.575.181 2 2 0 0 1-.186.07.3.3 0 0 1-.085.016q-.112.001-.112-.166v-.262c0-.085.01-.15.037-.186a.4.4 0 0 1 .15-.113q.278-.144.67-.24.39-.103.83-.101.948 0 1.394.432.44.432.442 1.314v1.73h.01zm-2.161.811q.261 0 .548-.096c.191-.064.362-.182.505-.342a.85.85 0 0 0 .181-.341c.032-.129.054-.283.054-.465V7.03a4 4 0 0 0-.49-.09 4 4 0 0 0-.5-.033c-.357 0-.618.07-.793.214q-.262.215-.26.614-.002.374.196.566.192.198.559.197m4.273.577c-.096 0-.16-.016-.202-.054-.043-.032-.08-.106-.112-.208l-1.25-4.127a1 1 0 0 1-.049-.214c0-.085.043-.133.128-.133h.522q.15-.001.207.053c.043.032.075.107.107.208l.894 3.535.83-3.535q.038-.16.1-.208a.37.37 0 0 1 .214-.053h.425c.102 0 .17.016.213.053.043.032.08.107.101.208l.841 3.578.92-3.578a.46.46 0 0 1 .107-.208.35.35 0 0 1 .208-.053h.495c.085 0 .133.043.133.133q-.002.04-.01.086a1 1 0 0 1-.038.133l-1.283 4.127q-.048.16-.111.209a.34.34 0 0 1-.203.053h-.457q-.15.001-.213-.053c-.043-.038-.08-.107-.101-.214L8.213 5.37l-.82 3.439q-.038.159-.1.213c-.043.038-.118.054-.213.054h-.458zm6.838.144a3.5 3.5 0 0 1-.82-.096c-.266-.064-.473-.134-.612-.214-.085-.048-.143-.101-.165-.15a.4.4 0 0 1-.031-.149v-.272q.001-.167.122-.166a.3.3 0 0 1 .096.016c.032.011.08.032.133.054.18.08.378.144.585.187.213.042.42.064.633.064q.505 0 .777-.176a.57.57 0 0 0 .277-.508.52.52 0 0 0-.144-.373q-.144-.152-.537-.278l-.772-.24c-.388-.123-.676-.305-.851-.545a1.27 1.27 0 0 1-.266-.774q0-.336.143-.593c.096-.17.224-.32.384-.438a1.7 1.7 0 0 1 .553-.277c.213-.064.436-.091.67-.091.118 0 .24.005.357.021a3.4 3.4 0 0 1 .649.145q.143.048.224.096a.5.5 0 0 1 .16.133.3.3 0 0 1 .047.176v.251q-.001.17-.122.171a.6.6 0 0 1-.202-.064 2.4 2.4 0 0 0-1.022-.208c-.303 0-.543.048-.708.15q-.249.148-.25.475 0 .225.16.379c.106.101.303.202.585.293l.756.24q.576.184.825.513.246.33.244.748 0 .345-.138.619a1.4 1.4 0 0 1-.388.47q-.247.197-.591.299a2.5 2.5 0 0 1-.761.112"/><g fill="#F90" fill-rule="evenodd" clip-rule="evenodd"><path d="M14.465 11.813c-1.75 1.297-4.294 1.986-6.481 1.986-3.065 0-5.827-1.137-7.913-3.027-.165-.15-.016-.353.18-.235 2.257 1.313 5.04 2.109 7.92 2.109 1.941 0 4.075-.406 6.039-1.239.293-.133.543.192.255.406"/><path d="M15.194 10.98c-.223-.287-1.479-.138-2.048-.069-.17.022-.197-.128-.043-.24 1-.705 2.645-.502 2.836-.267.192.24-.053 1.89-.99 2.68-.143.123-.281.06-.218-.1.213-.53.687-1.72.463-2.003z"/></g></svg>