<svg xmlns="http://www.w3.org/2000/svg" width="24" height="16" fill="none"><g clip-path="url(#a)"><path fill="#fff" d="M6.82 6.052c0 .295.04.53.08.708.058.177.137.354.255.57q.06.09.06.178c0 .079-.04.157-.158.236l-.492.335c-.08.039-.138.078-.197.078q-.12 0-.237-.118a1.7 1.7 0 0 1-.275-.374c-.08-.137-.158-.275-.237-.472-.61.728-1.378 1.082-2.324 1.082-.67 0-1.181-.196-1.575-.57s-.59-.886-.59-1.516c0-.669.235-1.22.708-1.614.473-.393 1.123-.61 1.93-.61q.414 0 .827.06c.296.039.591.098.906.177V3.63c0-.59-.118-1.024-.374-1.26s-.67-.354-1.28-.354c-.276 0-.552.04-.847.098a6 6 0 0 0-.847.276c-.118.04-.216.079-.276.098-.059 0-.098.02-.118.02-.118 0-.157-.079-.157-.236v-.394a.5.5 0 0 1 .059-.275.5.5 0 0 1 .216-.158c.276-.137.611-.256.985-.354A5 5 0 0 1 4.083.935c.945 0 1.615.216 2.068.63.433.432.65 1.062.65 1.948zm-3.19 1.2c.256 0 .532-.04.808-.138a1.9 1.9 0 0 0 .748-.511c.118-.158.217-.315.276-.512a3.3 3.3 0 0 0 .078-.689v-.335a8 8 0 0 0-.728-.137c-.256-.04-.493-.04-.749-.04-.531 0-.905.099-1.181.315-.256.217-.394.512-.394.906q0 .56.295.826c.197.236.473.315.847.315m6.322.866c-.138 0-.236-.02-.296-.079-.059-.04-.118-.157-.157-.315l-1.851-6.1c-.04-.158-.08-.256-.08-.316 0-.118.06-.196.198-.196h.768c.157 0 .256.02.315.078.06.04.118.158.158.315l1.319 5.216 1.221-5.216c.04-.157.079-.256.158-.315a.6.6 0 0 1 .315-.078h.63c.157 0 .256.02.315.078.06.04.118.158.158.315l1.24 5.275 1.36-5.275a.66.66 0 0 1 .157-.315.56.56 0 0 1 .315-.078h.728c.119 0 .197.059.197.196 0 .04 0 .08-.02.119 0 .039-.019.118-.058.196l-1.91 6.101a.66.66 0 0 1-.158.315.53.53 0 0 1-.296.079h-.67c-.157 0-.255-.02-.314-.079a.66.66 0 0 1-.158-.315l-1.22-5.077-1.222 5.077c-.04.158-.079.256-.157.315-.06.06-.178.079-.316.079zm10.142.197c-.414 0-.827-.04-1.22-.138-.395-.098-.71-.197-.907-.315-.118-.079-.216-.157-.236-.216-.02-.06-.06-.158-.06-.217v-.393q0-.237.178-.237c.04 0 .099 0 .138.02s.118.04.197.079c.275.118.551.216.866.275s.63.099.946.099c.492 0 .886-.079 1.142-.256a.85.85 0 0 0 .413-.748.8.8 0 0 0-.216-.551c-.138-.157-.414-.276-.788-.413l-1.142-.355c-.571-.177-1.005-.452-1.26-.806-.257-.355-.395-.729-.395-1.142 0-.335.08-.63.217-.866.138-.236.335-.472.571-.65q.355-.265.827-.413c.316-.098.65-.137.985-.137.177 0 .355 0 .532.039.177.02.354.059.512.079.157.039.315.078.453.118s.256.098.335.137c.118.06.197.119.236.197.04.06.079.158.079.256v.374c0 .158-.06.256-.177.256-.06 0-.158-.04-.296-.098a3.7 3.7 0 0 0-1.516-.315c-.453 0-.808.078-1.044.216s-.374.374-.374.709c0 .216.079.413.236.55.158.158.453.296.867.434l1.122.354c.571.177.985.433 1.221.748s.355.689.355 1.102c0 .334-.08.65-.197.905a1.95 1.95 0 0 1-.572.689c-.236.197-.531.335-.866.433-.394.157-.768.197-1.162.197"/><g fill="#F90" fill-rule="evenodd" clip-rule="evenodd"><path d="M21.59 12.153c-2.599 1.909-6.38 2.932-9.61 2.932-4.549 0-8.645-1.673-11.737-4.468-.236-.216-.02-.511.276-.354 3.348 1.948 7.464 3.11 11.737 3.11 2.875 0 6.046-.59 8.96-1.83.414-.178.788.295.375.61"/><path d="M22.654 10.932c-.334-.433-2.186-.196-3.033-.098-.256.04-.295-.197-.059-.354 1.477-1.043 3.92-.748 4.195-.394s-.079 2.795-1.457 3.956c-.217.177-.414.079-.315-.158.315-.787 1.004-2.538.67-2.952"/></g><path fill="#fff" d="M6.82 6.052c0 .295.04.53.08.708.058.177.137.354.255.57q.06.09.06.178c0 .079-.04.157-.158.236l-.492.335c-.08.039-.138.078-.197.078q-.12 0-.237-.118a1.7 1.7 0 0 1-.275-.374c-.08-.137-.158-.275-.237-.472-.61.728-1.378 1.082-2.324 1.082-.67 0-1.181-.196-1.575-.57s-.59-.886-.59-1.516c0-.669.235-1.22.708-1.614.473-.393 1.123-.61 1.93-.61q.414 0 .827.06c.296.039.591.098.906.177V3.63c0-.59-.118-1.024-.374-1.26s-.67-.354-1.28-.354c-.276 0-.552.04-.847.098a6 6 0 0 0-.847.276c-.118.04-.216.079-.276.098-.059 0-.098.02-.118.02-.118 0-.157-.079-.157-.236v-.394a.5.5 0 0 1 .059-.275.5.5 0 0 1 .216-.158c.276-.137.611-.256.985-.354A5 5 0 0 1 4.083.935c.945 0 1.615.216 2.068.63.433.432.65 1.062.65 1.948zm-3.19 1.2c.256 0 .532-.04.808-.138a1.9 1.9 0 0 0 .748-.511c.118-.158.217-.315.276-.512a3.3 3.3 0 0 0 .078-.689v-.335a8 8 0 0 0-.728-.137c-.256-.04-.493-.04-.749-.04-.531 0-.905.099-1.181.315-.256.217-.394.512-.394.906q0 .56.295.826c.197.236.473.315.847.315m6.322.866c-.138 0-.236-.02-.296-.079-.059-.04-.118-.157-.157-.315l-1.851-6.1c-.04-.158-.08-.256-.08-.316 0-.118.06-.196.198-.196h.768c.157 0 .256.02.315.078.06.04.118.158.158.315l1.319 5.216 1.221-5.216c.04-.157.079-.256.158-.315a.6.6 0 0 1 .315-.078h.63c.157 0 .256.02.315.078.06.04.118.158.158.315l1.24 5.275 1.36-5.275a.66.66 0 0 1 .157-.315.56.56 0 0 1 .315-.078h.728c.119 0 .197.059.197.196 0 .04 0 .08-.02.119 0 .039-.019.118-.058.196l-1.91 6.101a.66.66 0 0 1-.158.315.53.53 0 0 1-.296.079h-.67c-.157 0-.255-.02-.314-.079a.66.66 0 0 1-.158-.315l-1.22-5.077-1.222 5.077c-.04.158-.079.256-.157.315-.06.06-.178.079-.316.079zm10.142.197c-.414 0-.827-.04-1.22-.138-.395-.098-.71-.197-.907-.315-.118-.079-.216-.157-.236-.216-.02-.06-.06-.158-.06-.217v-.393q0-.237.178-.237c.04 0 .099 0 .138.02s.118.04.197.079c.275.118.551.216.866.275s.63.099.946.099c.492 0 .886-.079 1.142-.256a.85.85 0 0 0 .413-.748.8.8 0 0 0-.216-.551c-.138-.157-.414-.276-.788-.413l-1.142-.355c-.571-.177-1.005-.452-1.26-.806-.257-.355-.395-.729-.395-1.142 0-.335.08-.63.217-.866.138-.236.335-.472.571-.65q.355-.265.827-.413c.316-.098.65-.137.985-.137.177 0 .355 0 .532.039.177.02.354.059.512.079.157.039.315.078.453.118s.256.098.335.137c.118.06.197.119.236.197.04.06.079.158.079.256v.374c0 .158-.06.256-.177.256-.06 0-.158-.04-.296-.098a3.7 3.7 0 0 0-1.516-.315c-.453 0-.808.078-1.044.216s-.374.374-.374.709c0 .216.079.413.236.55.158.158.453.296.867.434l1.122.354c.571.177.985.433 1.221.748s.355.689.355 1.102c0 .334-.08.65-.197.905a1.95 1.95 0 0 1-.572.689c-.236.197-.531.335-.866.433-.394.157-.768.197-1.162.197"/><g fill="#F90" fill-rule="evenodd" clip-rule="evenodd"><path d="M21.59 12.153c-2.599 1.909-6.38 2.932-9.61 2.932-4.549 0-8.645-1.673-11.737-4.468-.236-.216-.02-.511.276-.354 3.348 1.948 7.464 3.11 11.737 3.11 2.875 0 6.046-.59 8.96-1.83.414-.178.788.295.375.61"/><path d="M22.654 10.932c-.334-.433-2.186-.196-3.033-.098-.256.04-.295-.197-.059-.354 1.477-1.043 3.92-.748 4.195-.394s-.079 2.795-1.457 3.956c-.217.177-.414.079-.315-.158.315-.787 1.004-2.538.67-2.952"/></g></g><defs><clipPath id="a"><path fill="#fff" d="M.144.915h23.711v14.17H.145z"/></clipPath></defs></svg>