<svg xmlns="http://www.w3.org/2000/svg" xmlns:xlink="http://www.w3.org/1999/xlink" xml:space="preserve" id="图层_1" x="0" y="0" version="1.1" viewBox="0 0 519.27 214.14"><style>.st2{fill:#a9cc54}</style><path d="M493.54 171.25c-35.63 0-64.52-28.89-64.52-64.52s28.89-64.52 64.52-64.52c3.85 0 7.62.36 11.29 1L493.54 5.45H104.46v.02C49.24 6.51 4.78 51.59 4.78 107.07c0 55.47 44.45 100.56 99.68 101.59v.02h389.07l11.29-38.44c-3.66.65-7.43 1.01-11.28 1.01" style="fill:#b6de64"/><defs><path id="SVGID_1_" d="M493.54 171.25c-35.63 0-64.52-28.89-64.52-64.52s28.89-64.52 64.52-64.52c3.85 0 7.62.36 11.29 1V5.45H104.46v.02C49.24 6.51 4.78 51.59 4.78 107.07c0 55.47 44.45 100.56 99.68 101.59v.02h389.07l11.29-38.44c-3.66.65-7.43 1.01-11.28 1.01"/></defs><clipPath id="SVGID_2_"><use xlink:href="#SVGID_1_" style="overflow:visible"/></clipPath><g style="clip-path:url(#SVGID_2_)"><path d="M-23.16 55.58H428.5v51.1H-23.16zM-23.16 157.59h530.98v72.35H-23.16z" class="st2"/></g><path d="M493.54 184.23c-43.94 0-79.56-33.62-79.56-77.56s35.62-76.56 79.56-76.56" style="fill:none;stroke:#ddf4a4;stroke-width:49;stroke-linecap:round;stroke-linejoin:round;stroke-miterlimit:10"/></svg>