<svg width="142" height="142" viewBox="0 0 142 142" fill="none" xmlns="http://www.w3.org/2000/svg">
  <g clipPath="url(#clip0_0_812)" transform="matrix(1.002103,0,0,1.0377318,6.9399999e-7,-2.5317276e-4)">
    <path d="m 141.702,68.418 c 0,7.4632 -4.567,14.1123 -6.748,20.8385 -2.263,6.9789 -2.552,15.0285 -6.776,20.8385 -4.267,5.868 -11.856,8.611 -17.719,12.881 -5.805,4.228 -10.7345,10.628 -17.7061,12.895 -6.7286,2.186 -14.4463,-0.021 -21.9018,-0.021 -7.4555,0 -15.1731,2.207 -21.8998,0.021 C 41.9778,133.604 37.048,127.204 31.2428,122.976 25.3799,118.706 17.7913,115.963 13.5247,110.095 9.30055,104.287 9.01135,96.2374 6.74791,89.2565 4.56351,82.5225 0,75.8735 0,68.418 0,60.9624 4.56737,54.3057 6.74791,47.5795 9.01135,40.6005 9.30055,32.5507 13.5247,26.741 17.7913,20.8753 25.3799,18.1297 31.2428,13.8617 37.048,9.63414 41.9778,3.23209 48.9513,0.966872 55.678,-1.21924 63.3956,0.986167 70.8511,0.986167 c 7.4555,0 15.1732,-2.205407 21.8999,-0.019295 6.9735,2.265218 11.903,8.667268 17.708,12.894828 5.863,4.268 13.452,7.0136 17.719,12.8793 4.224,5.8097 4.513,13.8595 6.776,20.8385 2.181,6.7262 6.748,13.3771 6.748,20.8385 z" fill="#326ce5"/>
    <path d="m 70.8473,8.18683 c -33.2383,0 -60.1837,26.96657 -60.1837,60.23097 0,33.2642 26.9454,60.2312 60.1837,60.2312 33.2387,0 60.1837,-26.959 60.1837,-60.2312 0,-33.2721 -26.945,-60.23097 -60.1837,-60.23097 z M 70.8319,123.408 C 40.4778,123.408 15.9058,98.8053 15.9,68.4274 15.9,38.0167 40.5357,13.3791 70.9109,13.437 c 30.3751,0.0579 54.9111,24.6589 54.8841,55.0329 -0.027,30.374 -24.609,54.9481 -54.9631,54.9381 z" fill="#ffffff"/>
    <path d="m 13.5883,60.53 c 8.1804,0 8.1804,3.859 16.3589,3.859 8.1784,0 8.1804,-3.859 16.3607,-3.859 8.1804,0 8.1785,3.859 16.3589,3.859 8.1804,0 8.1785,-3.859 16.3589,-3.859 8.1804,0 8.1803,3.859 16.3588,3.859 8.1785,0 8.1805,-3.859 16.3605,-3.859 8.181,0 8.181,3.859 16.361,3.859" stroke="#ffffff" strokeMiterlimit="10"/>
    <path d="m 13.5883,68.248 c 8.1804,0 8.1804,3.859 16.3589,3.859 8.1784,0 8.1804,-3.859 16.3607,-3.859 8.1804,0 8.1785,3.859 16.3589,3.859 8.1804,0 8.1785,-3.859 16.3589,-3.859 8.1804,0 8.1803,3.859 16.3588,3.859 8.1785,0 8.1805,-3.859 16.3605,-3.859 8.181,0 8.181,3.859 16.361,3.859" stroke="#ffffff" strokeMiterlimit="10"/>
    <path d="m 13.5883,77.5095 c 8.1804,0 8.1804,3.859 16.3589,3.859 8.1784,0 8.1804,-3.859 16.3607,-3.859 8.1804,0 8.1785,3.859 16.3589,3.859 8.1804,0 8.1785,-3.859 16.3589,-3.859 8.1804,0 8.1803,3.859 16.3588,3.859 8.1785,0 8.1805,-3.859 16.3605,-3.859 8.181,0 8.181,3.859 16.361,3.859" stroke="#ffffff" strokeMiterlimit="10"/>
    <path d="m 70.8473,8.18683 c -33.2383,0 -60.1837,26.96657 -60.1837,60.23097 0,33.2642 26.9454,60.2312 60.1837,60.2312 33.2387,0 60.1837,-26.959 60.1837,-60.2312 0,-33.2721 -26.945,-60.23097 -60.1837,-60.23097 z M 70.8319,123.408 C 40.4778,123.408 15.9058,98.8053 15.9,68.4274 15.9,38.0167 40.5357,13.3791 70.9109,13.437 c 30.3751,0.0579 54.9111,24.6589 54.8841,55.0329 -0.027,30.374 -24.609,54.9481 -54.9631,54.9381 z" fill="#ffffff"/>
  </g>
  <defs>
    <clipPath id="clip0_0_812">
      <rect width="141.702" height="136.837" fill="#ffffff"/>
    </clipPath>
  </defs>
</svg>
