<svg xmlns="http://www.w3.org/2000/svg" viewBox="0 0 20 20"><path fill="#355146" fill-rule="evenodd" d="M6.82 11.908c.525 0 1.57-.03 3.013-.639 1.682-.71 5.029-2 7.443-3.323 1.689-.926 2.429-2.151 2.429-3.8 0-2.29-1.81-4.146-4.043-4.146H6.307C3.1 0 .5 2.666.5 5.954s2.434 5.954 6.32 5.954" clip-rule="evenodd"/><path fill="#d18ee2" fill-rule="evenodd" d="M8.402 16.01c0-1.611.947-3.064 2.399-3.682l2.946-1.254c2.98-1.268 6.26.977 6.26 4.286 0 2.563-2.027 4.64-4.527 4.64l-3.19-.002c-2.147 0-3.888-1.785-3.888-3.987" clip-rule="evenodd"/><path fill="#ff7759" d="M3.848 12.691C1.998 12.691.5 14.228.5 16.124v.444C.5 18.464 1.999 20 3.848 20s3.347-1.536 3.347-3.432v-.444c0-1.896-1.499-3.433-3.347-3.433"/></svg>