<svg xmlns="http://www.w3.org/2000/svg" width="184" height="188" fill="none" viewBox="0 0 184 188"><path fill="#f3b01c" d="M108.092 130.021c18.166-2.018 35.293-11.698 44.723-27.854-4.466 39.961-48.162 65.218-83.83 49.711-3.286-1.425-6.115-3.796-8.056-6.844-8.016-12.586-10.65-28.601-6.865-43.135 10.817 18.668 32.81 30.111 54.028 28.122"/><path fill="#8d2676" d="M53.401 90.174c-7.364 17.017-7.682 36.94 1.345 53.336-31.77-23.902-31.423-75.052-.388-98.715 2.87-2.187 6.282-3.485 9.86-3.683 14.713-.776 29.662 4.91 40.146 15.507-21.3.212-42.046 13.857-50.963 33.555"/><path fill="#ee342f" d="M114.637 61.855C103.89 46.87 87.069 36.668 68.639 36.358c35.625-16.17 79.446 10.047 84.217 48.807.444 3.598-.139 7.267-1.734 10.512-6.656 13.518-18.998 24.002-33.42 27.882 10.567-19.599 9.263-43.544-3.065-61.704"/></svg>