<svg xmlns="http://www.w3.org/2000/svg" width="1em" height="1em" style="flex:none;line-height:1" viewBox="0 0 24 24"><title>CrewAI</title><path fill="#461816" d="M19.41 10.783a2.75 2.75 0 0 1 2.471 1.355c.483.806.622 1.772.385 2.68l-.136.522a10 10 0 0 1-3.156 5.058c-.605.517-1.283 1.062-2.083 1.524l-.028.017c-.402.232-.884.511-1.398.756-1.19.602-2.475.997-3.798 1.167-.854.111-1.716.155-2.577.132h-.018a8.6 8.6 0 0 1-5.046-1.87l-.012-.01-.012-.01A8.02 8.02 0 0 1 1.22 17.42a10.9 10.9 0 0 1-.102-3.779A15.6 15.6 0 0 1 2.88 8.4a21.8 21.8 0 0 1 2.432-3.678 15.4 15.4 0 0 1 3.56-3.182A10 10 0 0 1 12.44.104h.004l.003-.002c2.057-.384 3.743.374 5.024 1.26a8.3 8.3 0 0 1 2.395 2.513l.024.04.023.042a5.47 5.47 0 0 1 .508 4.012c-.239.97-.577 1.914-1.01 2.814z"/><path fill="#fff" d="M18.861 13.165a.748.748 0 0 1 1.256.031c.199.332.256.73.159 1.103l-.137.522a7.94 7.94 0 0 1-2.504 4.014c-.572.49-1.138.939-1.774 1.306-.427.247-.857.496-1.303.707a9.6 9.6 0 0 1-3.155.973 14.3 14.3 0 0 1-2.257.116 6.53 6.53 0 0 1-3.837-1.422 5.97 5.97 0 0 1-2.071-3.494 8.9 8.9 0 0 1-.085-3.08 13.6 13.6 0 0 1 1.54-4.568 19.7 19.7 0 0 1 2.212-3.348 13.4 13.4 0 0 1 3.088-2.76 7.9 7.9 0 0 1 2.832-1.14c1.307-.245 2.434.207 3.481.933a6.2 6.2 0 0 1 1.806 1.892c.423.767.536 1.668.314 2.515a12.4 12.4 0 0 1-.99 2.67l-.223.497q-.48 1.07-.97 2.137a.76.76 0 0 1-.97.467 3.39 3.39 0 0 1-2.283-2.49c-.095-.83.04-1.669.39-2.426.288-.746.61-1.477.933-2.208l.248-.563a.53.53 0 0 0-.204-.742 2.35 2.35 0 0 0-1.2.702 25 25 0 0 0-1.614 1.767 21.6 21.6 0 0 0-2.619 4.184 7.6 7.6 0 0 0-.816 2.753 7 7 0 0 0 .07 2.219 2.055 2.055 0 0 0 1.934 1.715c1.801.1 3.59-.363 5.116-1.328a19 19 0 0 0 1.675-1.294c.752-.71 1.376-1.519 1.958-2.36"/></svg>