<svg width="109" height="24" viewBox="0 0 109 24" fill="none" xmlns="http://www.w3.org/2000/svg">
<g clip-path="url(#clip0_125_22125)">
<path d="M0 -2.08616e-07V24H17.9352C22.9911 24 26.0999 21.0858 26.0999 17.04V6.96C26.0999 2.91432 22.9911 -2.08616e-07 17.9352 -2.08616e-07H0ZM6.76413 5.82864H19.1992V18.1714H6.76413V5.82864Z" fill="currentColor"/>
<path d="M46.7659 18.6172H35.0824V14.16H46.7659V18.6172ZM46.595 5.38296V9.5658H35.0824V5.38296H46.595ZM50.2846 12.1373V11.5886C52.5734 10.5258 53.7008 8.8458 53.7008 6.13728C53.7008 2.64012 50.9337 0.000116183 45.5361 0.000116183H28.3184V24H45.7752C51.1728 24 53.9399 21.8401 53.9399 18.0685C53.9399 15.0172 52.6418 13.2001 50.2846 12.1373Z" fill="currentColor"/>
<path d="M62.397 18.1714H74.8319V5.82864H62.397V18.1714ZM63.6609 24C58.6049 24 55.4961 21.0858 55.4961 17.04V6.96012C55.4961 2.91432 58.6049 0.000116183 63.6609 0.000116183H73.568C78.6238 0.000116183 81.7326 2.91432 81.7326 6.96012V17.04C81.7326 21.0858 78.6238 24 73.568 24H63.6609Z" fill="currentColor"/>
<path d="M101.66 15.12L90.8995 14.3658C85.5361 13.9886 83.418 11.1772 83.418 7.47432V6.96012C83.418 2.91432 86.5266 0.000116183 91.5827 0.000116183H100.157C105.214 0.000116183 108.323 2.91432 108.323 6.96012V7.98864H101.968V5.14284H90.2504V8.43432L100.601 9.18864C105.999 9.56568 108.493 12.8572 108.493 16.5257V17.04C108.493 20.7428 105.384 24 100.328 24H91.5827C86.5266 24 83.418 20.7428 83.418 17.04V16.0115H89.7722V18.8572H101.66V15.12Z" fill="currentColor"/>
</g>
<defs>
<clipPath id="clip0_125_22125">
<rect width="108.494" height="24" fill="white"/>
</clipPath>
</defs>
</svg>
