<svg xmlns="http://www.w3.org/2000/svg" viewBox="0 0 128 128"><path fill="#b31aab" d="m33.172 61.48.176 7.325 7.797 4.785-.176-7.324Zm19.031 30.504-.176-7.18-6.84-4.206c-.085-.059-.203-.145-.289-.203l.176 7.207Zm-24.355 9.688L10.012 90.715l-.438-18.367 8.758-3.746-.172-7.352-13.969 5.969c-1.074.46-1.714 1.441-1.687 2.566l.523 22.055c.032 1.125.73 2.25 1.836 2.941l21.383 13.149c.992.605 2.215.78 3.203.46a.8.8 0 0 0 .29-.113l13.124-5.593-7.129-4.383Zm0 0"/><path fill="#d163ce" d="M85.488 61.047c-.031-1.328-.843-2.625-2.125-3.43L57.38 41.672l-.813.344.176 7.726 20.57 12.63.493 20.648 7.86 4.812.433-.172ZM54.383 97.289 30.262 82.47l-.582-24.883 11-4.7-.203-8.562-17.082 7.293c-1.25.547-2.008 1.672-1.977 3l.668 29.18c.031 1.324.844 2.625 2.125 3.402l28.281 17.387c1.164.723 2.563.894 3.754.547.117-.028.234-.086.348-.145l16.703-7.12-8.32-5.102Zm0 0"/><path fill="#e13eaf" d="M122.234 40.633 85.98 18.343c-1.335-.808-2.937-1.038-4.304-.605-.145.028-.262.086-.406.145l-35.383 15.11c-1.426.605-2.297 1.902-2.27 3.429l.903 37.371c.03 1.527.96 2.996 2.445 3.89l36.254 22.262c1.336.805 2.937 1.035 4.277.606.145-.031.262-.09.406-.145l35.383-15.11c1.426-.605 2.297-1.933 2.27-3.433l-.875-37.367c-.028-1.473-.961-2.969-2.446-3.863M85.398 91.64 53.891 72.293l-.79-32.496 30.727-13.121 31.512 19.347.785 32.497Zm0 0"/></svg>