<svg xmlns="http://www.w3.org/2000/svg" width="1945" height="2500" preserveAspectRatio="xMinYMin meet" viewBox="0 0 256 329"><path d="M76.501 203.351c-9.75-7.67-20.153-15.02-27.26-25.377-14.961-18.264-26.477-39.405-34.35-61.625-4.76-14.45-6.39-29.941-12.53-43.83-6.414-10.091 1.105-21.114 12.157-24.32 4.917-.948 13.568-5.59 3.125-2.268-9.364 6.866-10.266-6.24-.666-7.07 6.552-.869 8.964-6.23 6.721-11.056-7.036-4.59 17.055-9.626 4.932-16.473-12.62-13.62 17.66-16.242 10.188-.771-1.786 11.895 21.166-2.185 15.836 11.554 5.415 6.599 20.272 1.505 19.899 10.757 7.886.542 10.593 7.173 17.988 7.683 7.677 3.466 21.58 6.192 24.188 14.837-7.61 6.023-25.227-12.443-26.078 4.232 2.302 24.638 1.715 50.017 10.726 73.478 4.262 14.204 14.6 25.385 23.931 36.45 8.933 10.834 21.03 18.466 33.363 24.887 10.815 5.1 22.475 8.48 34.265 10.606 4.78-3.656 13.221-17.25 20.675-11.522.36 6.449-14.796 13.471-.711 12.758 8.278-2.498 14.013 6.394 20.826-1.629 6.278 7.436 26.09-4.747 21.625 10.45-6.042 3.898-14.85 1.543-20.898 6.906-9.972-4.983-17.912 4.453-28.956 3.263-12.26 2.196-24.738 3.08-37.167 3.098-20.396-1.609-41.222-2.288-60.624-9.39-10.933-3.176-21.598-9.402-31.205-15.628m17.224 7.468c10.672 4.61 21.109 9.475 32.807 10.946 18.558 2.577 37.723 6.552 56.346 2.93-8.428-3.805-17.145 1.478-25.541-2.72-10.07 2.164-20.878-.556-31.12-1.897-11.64-5.184-24.206-8.748-35.107-15.485-13.628-4.975 7.043 6.383 10.724 7.306 8.514 4.83-9.365-2.48-11.89-4.487-7.132-4.002-8.04-3.165-.704.896 1.477.864 2.936 1.773 4.485 2.511m-20.31-14.353c10.345 3.832-.046-7.272-4.78-6.63-2.1-3.643-8.023-5.945-3.845-7.9-7.513 2.61-7.873-9.92-11.403-8.127-7.952-2.511-3.094-11.405-12.569-16.87-.864-5.756-9.41-10.745-12.13-19.423-1.203-4.446-9.658-17.203-4.466-5.33 4.42 11.43 12.195 21.227 18.669 31.003 5.022 9.31 10.96 19.048 20.108 24.855 3.087 2.962 6.061 7.493 10.415 8.422zm-29.791-32.715c.358-1.563 1.89 3.38 0 0m42.183 37.305c2.288-1.026-3.296-1.294 0 0m5.61 2.048c-.581-2.826-2.563 1.582 0 0m7.03 2.93c3.341-3.187-5.16-2.01 0 0m12.045 6.713c2.033-3.001-6.507-1.13 0 0m-23.128-16.123c5.19-3.362-6.716-.047 0 0m5.27 2.628c-.151-1.773-1.877.797 0 0m26.345 16.445c4.237 2.675 24.738 5.859 11.902 1.098-2.153.452-23.803-6.127-11.902-1.098M77.156 183.12c-.412-1.777-6.58-1.968 0 0m12.26 7.155c3.197-2.23-6.624-1.72 0 0m10.318 6.323c4.584-1.726-7.427-1.733 0 0M72.16 177.686c4.97 3.811 20.05.49 7.611-2.275-5.656-3.015-18.407-5.08-9.715 1.818zm34.566 21.095c2.072-3.525-8.685-2.015 0 0m-10.503-8.345c12.15 3.434-10.22-7.69-3-1.268l1.603.726zm21.058 12.17c11.508.11-10.398-1.588 0 0m-49.547-31.578c-.452-2.144-2.838.178 0 0m69.013 42.498c.307-3.87-3.754 2.884 0 0m-49.37-30.472c-.7-2.04-3.596-.085 0 0m-18.552-13.372c6.606-.398-9.05-2.91 0 0m-21.978-14.204c-.823-3.17-7.186-5.694 0 0m57.695 36.614c-1.21-1.381-.57.3 0 0m35.905 22.037c-.11-2.113-1.955.796 0 0m-39.083-25.32c.648-2.72-5.636-.825 0 0m-26.752-16.956c4.918-.524-7.88-3.322 0 0m45.252 28.119c7.663-3.035-7.468-1.479 0 0m-23.535-15.975c8.827 1.136-10.508-6.01-1.942-.642zm30.68 18.864c8.247-4.923 5.527 11.542 13.989 1.393 8.343-6.094-7.207 7.533 3.073 1.086 7.441-4.977 18.426 2.36 25.365 4.747 4.988-.242 9.841 4.316 14.96 1.542 9.848-2.655-19.263-3.935-11.633-8.638-9.01 2.624-15.666-3.125-20.1-8.899-10.11-2.335-21.795-7.5-26.843-16.452-2.06-3.354 2.97.478-1.778-5.015-6.088-5.415-9.128-11.569-13.216-18.153-4.885-2.603-5.46-10.273-5.951-.254.04-6.324-5.898-10.581-7.35-8.815-.026-6.089 6.357-3.035 1.89-7.54-.96-6.311-4.126-12.888-5.075-20.016-1.476-3.433-.21-10.789-5.047-3.015-1.76 8.22-.582-10.096 2.158-4.06 3.596-6.16-1.296-5.435-1.492-4.584 2.342-5.198 1.485-12.575-.614-9.763 1.249-5.513 1.975-20.284-1.863-17.662 2.327-5.767 4.414-26.38-5.697-18.518-4.093.058-11.187 1.485-14.535 3.152 10.508 5.794-1.06 2.092-5.343 1.17-.556 5.362-4.793 3.047-10.09 3.099 8.462 1.046-4.12 8.65-8.964 5.696-6.304 3.008 5.434 10.528.124 12.855.655 3.499-9.652-1.267-8.847 6.828-6.115-2.578-.837 9.599 2.223 5.48 10.404 2.818 7.324 9.233 7.585 15.333-1.694 3.55-8.37-8.35-1.485-7.8-5.434-8.823-6.008-3.192-10.521.908-1.046.295 11.509 5.832 3.63 8.566 6.931 1.073 7.134 7.141 8.547 10.98 4.165 4.34 3.307-4.795 8.298.425-3.16-4.65-16.715-13.1-5.8-10.39-.06-4.676-1.976-8.45 1.372-8.359 3.316-5.996-3.472 14.792 3.996 7.168 2.065-.902 2.583-6.003 6.297.484 5.394 5.31 1.949 9.153-5.663 4.289 1.36 4.623 10.181 6.27 8.52 13.497 1.758 6.356 4.218 4.014 6.362 3.648 1.68 6.173 2.637 1.635 2.715-1.308 7.696 1.65 5.891 6.2 8.303 9.378 5.303 2.392-7.591-16.224 1.512-5.598 9.578 8.651 3.596 12.26-5.002 10.875 5.44-.44 7.191 7.357 14 7.082 6.205 2.955 10.41 14.294-.288 9.572-3.708-3.348-16.846-7.474-6.114-1.111 9.9 4.59 17.773 7.33 27.326 13.092 6.834 4.878 9.788 10.467 12.378 11.574-5.747 2.745-17.314-2.191-8.723-3.701-5.362-.975-11.39-3.688-6.258 2.988 4.368 3.649 15.465 3.262 17.46 3.674-1.687 3.715-4.583 4.01.065 4.297-5.186 2.766 1.668 3.198 2.145 4.773zm-10.606-29.955c-3.158-3.302-3.975-9.481-.562-4.108 1.753.707 5.605 10.105.562 4.108m34.547 21.945c1.968-.13.058 1.496 0 0m-39.528-30.04c-.126-4.99 1.136 3.85 0 0m-3.434-4.617c-3.975-7.67 5.002 2.171 0 0m-41.615-28.719c2.335-.623 1.151 3.987 0 0m33.121 17.949c1.432-5.382 1.681 4.513 0 0m-23.397-16.27c-1.647-2.968 3.447 2.787 0 0m20.075 6.435c-3.76-8.422 2.668-4.604.837 1.38zm-34.624-23.09c-1.68-2.765-4.46-10.874-3.564-13.351.804 4.034 8.573 17.354 3.805 5.519-5.263-9.92 6.298 3.216 7.488 5.695.556 2.459-3.25-.673-.674 5.1-4.701-6.572-2.773 3.63-7.055-2.963m-10.698-7.375c.438-6.428 2.446 4.407 0 0m4.813 1.66c2.295-4.85 3.89 6.762 0 0m-11.581-8.957c-3.983-3.964-6.867-7.612.189-2.46 2.714.105-6.041-8.297.655-2.668 7.035 1.283 3.471 11.543-.844 5.128m6.081-.157c2.316-2.295 1.23 2.256 0 0m3.747 1.196c-3.512-6.572 4.257 2.76 0 0m-7.441-7.107c-11.58-10.314 14.549 5.387 1.89 1.908zm33.185 19.276c-5.015-3.002-1.334-21.153.38-8.742 4.872-1.577-.27 6.415 3.36 6.336-.568 5.04-2.196 6.854-3.74 2.406m12.274 7.258c.49-5.472 1.033 3.742 0 0m-2.131-2.112c.549-2.334.052 2.753 0 0m-41.06-27.81c-7.44-10.267 21.625 10.383 4.768 2.603-1.76-.464-3.884-.628-4.768-2.603m23.639 12.53c-.705-8.645 1.57 1.43 0 0m17.943 11.513c1.386-4.923.106 3.258 0 0m-40.437-27.96c4.421-.948 18.322 7.762 5.558 2.485-1.418-1.57-4.446-.857-5.558-2.486zm37.971 18.924c.473-8.84 2.644-5.277.02 1.269zM53.171 85.375c1.804-2.643-4.788-11.947.947-3.336 2.48 1.968 7.173 3.296 3.028 4.126 6.519 5.749-1.588 1.557-3.975-.79m32.805 19.244c1.244-10.07 1.1 5.898 0 0M49.404 76.076c1.38-.59.732 1.836 0 0m8.56 5.094c2.202-4.624 4.06 5.152 0 0m24.135 13.424c-.02-1.772.457 2.583 0 0m-1.4-3.092c-3.348-8.266 3.12 4.374 0 0m-2.054-5.422c-.56-3.414 1.91 4.29 0 0m3.348-5.44c-2.301-4.049 2.905-17.852 3.487-9.292-2.427 6.67-.7 10.398.986 1.452 3.127-7.036-.673 13.896-4.473 7.84m3.44-20.526c1.002-1.23.223 1.483 0 0m-5.746 113.21c-1.361-1.19.175.753 0 0m11.835 5.984c6.584 1.694 6.552-1.021.6-1.832-3.197-2.974-13.3-6.133-4.256-.366.596 1.518 2.486 1.478 3.656 2.198m-23.37-15.525c3.622 2.709 13.659 7.664 5.165 1.035 2.864-3.33-5.48-5.101-2.713-7.33-7.043-4.311-5.56-3.925-.621-3.787-8.462-3.787 1.222-3.499.765-5.44-3.263-.642-16.211-5.756-8.593.418-7.742-3.944-1.845 1.471-4.185.902-7.92-2.158 7.05 6.03-1.256 3.996 4.539 3.596 12.222 9.22 1.916 3.805-1.353 1.955 7.377 4.918 9.521 6.401zm12.377 7.115c15.047 4.846-7.383-5.931 0 0m63.364 38.384c.196-2.988-2.054 2.55 0 0m6.513 2.74c3.472-3.36.144 5.362 5.754-.823.058-4.428-.17-7.042-6.447-1.662-1.734.962-2.504 5.035.693 2.486zM47.024 147.098c-1.067-4.192-7.475-4.174 0 0m6.95 4.556c-2.583-4.282-9.214-3.877 0 0m39.568 23.861c3.866 3.434 17.741 2.518 4.69.426-1.93-2.858-12.268-2.171-4.69-.426m54.385 33.593c5.944-4.99-5.76 2.223 0 0m12.366 8.493c.038-1.602-2.563.7 0 0m.02-2.243c6.584-6.97-6.376.412 0 0M29.917 132.776c-5.61-8.004-3.485-11.601-8.899-18.14-1.028-5.002-9.285-16.341-4.27-4.329 4.59 7.03 5.95 17.91 13.17 22.469zm128.329 80.365c12.118-7.828-4.969-3.407 0 0m9.247 3.622c6.068-5.206-3.839-1.086 0 0m-122.53-78.515c1.734-2.583-4.485-.333 0 0m120.6 76.043c5.872-3.785-1.353-3.204-1.065.346zm-79.698-50.233c-.202-2.563-3.105.216 0 0m4.924 2.832c-1.569-3.165-2.406.497 0 0m84.197 49.959c7.526-5.429-4.557-1.041-1.576 1.033zm-2.883-1.393c6.133-5.134-6.468 2.275 0 0m14.724 9.801c4.115-2.753-5.001-.889 0 0m-138.09-88.872c5.512 1.235 22.042 13.581 12.293.857-4.995-1.478-2-13.687-7.094-11.529 3.42 5.715 2.81 8.14-4.37 4.545-9.016-4.408-5.067 2.178-3.3 3.996-2.408.549 3.177 2.086 2.47 2.13zm-25.13-19.845c.987-4.088-9.096-22.469-4.76-9.214 1.562 2.779 1.4 8.042 4.76 9.214m46.126 28.437c-2.844-2.373-.137-.34 0 0m6.99 1.63c0-4.33-7.728-1.76 0 0m60.618 38.207c-1.157-2.957-4.57-.066 0 0m2.91 2.124c-.433-1.654-1.682.321 0 0m24.024 15.138c2.309-1.706-2.884-.221 0 0M36.156 119.744c6.61-2.558-7.083-1.825 0 0m95.848 60.38c-.077-4.276-4.217 1.067 0 0m-98.458-66.469c4.244-1.43-3.93-.94 0 0m12.32 5.97c-.073-1.405-1.301.537 0 0m150.3 92.168c5.46-1.105 17.904 2.78 19.911-1.444-6.63-.164-22.932-4.683-23.704 1.071l1.452.23 2.342.143zm-146.384-91.18c.1-4.336-3.38-.163 0 0M17.39 98.138c-1.471-8.26-5.598-1.25 0 0m7.722 1.942c.099-2.655-7.07-2.387 0 0m4.414 2.171c-1.275-1.034-.994 1.3 0 0M57.31 120.07c1.309-1.204-3.099-.889 0 0M26.59 97.36c-.751-6.238-8.952-.935 0 0M10.745 87.08c-.223-2.877-1.544 1.085 0 0m2.36-1.777c-.385-3.415-2.027.43 0 0M26.12 93.07c5.506-2.158-10.026-4.473-1.125-.405zm174.226 107.62c3.524-3.23-4.473-1 0 0m21.049 10.907c1.413-4.171-3.558.55 0 0M27.45 86.25c.583-4.04-4.367.804 0 0M8.927 73.84c-.994-5.702-.857-15.714 8.658-12.333-12.7 2.524 8.795 15.79 6.081 5.315 5.342.263 10.45-3.157 7.644 2.027 10.528-1.157 17.82-10.285 27.987-9.003 7.918-1.052 16.576-1.844 25.11-5.035 7.016-.504 13.77-8.057 9.927-12.536-9.567-.81-19.586.386-30.159 2.492-11.717 2.432-22.362 7.061-34.186 9.05-11.529 1.55 2.315 4.263-.988 4.871-6.01 2.086 7.174 3.492-.778 5.695-4.91-.934-10.024-2.621-7.925-7.8C9.26 58.021-.444 62.598 8.28 73.832l.648.006zm26.608-13.55c2.583-9.533 13.862 7.848 4.237 1.269-1.145-.864-3.042-1.564-4.237-1.269m.502-4.624c3.735-2.778 1.982 1.564 0 0m4.741.08c.342-4.388 10.863 2.321 1.734 1.576zm6.487-2.609c2.374-2.774.688 2.458 0 0m1.662-1.111c3.949-4.741 22.343-3.029 8.879-.466-3.61-2.72-6.375 1.602-8.879.466m24.01-3.702c-.594-12.955 11.934 4.597 0 0m6.815-.04c2.49-6.525 9.67-2.621 1.157-1.314.182.7-.255 3.375-1.157 1.314M24.765 82.902c7.44-4.558-7.9-3.955 0 0m5.505 1.524c2.61-2.772-5.676-1.125 0 0M14.054 72.924c4.25-3.27-5.035-1.242 0 0m219.764 137.483c.124-3.793-3.25 1.706 0 0m-22.331-15.243c.634-4.36-2.87.38 0 0m28.471 16.715c5.945.02 18.014-1.852 5.08-1.845-2.033.315-11.828.25-5.08 1.845M35.11 81.75c4.813-.327 7.526-5.304-.936-5.022-13.11-1.353 11.567 4.493-1.68 2.819-1.778 1.177 2.51 2.53 2.616 2.203m4.237 2.146c-.504-3.087-1.492 1.64 0 0m5.028-13.406c2.086-2.59-2.89-.693 0 0M28.367 43.74c8.593-2.916 20.337-6.199 24.392 1.44-4.127-4.963-1.667-9.855 2.23-2.59 5.512 7.344 8.27-3.341 4.687-5.807 4.088 5.074 8.73 7.475 2.733.322 6.52-7.841-13.045 1.026-17.491.934-2.138.96-22.089 5.087-16.55 5.701zm5.035-9.637c4.899-3.694 16.943 2.203 9.214-3.676-.758-.666-16.922 4.46-9.214 3.676m17.859.738c5.728.144-2.471-7.703 4.355-4.146-1.118-3.661-7.951-4.348-11.292-5.812-1.89 3.348 3.843 10.004 6.937 9.958M36.534 18.63c1.982-2.687-3.478 1.367 0 0m7.3 1.745c9.238-1.222-2.356-3.975-1.866-.097l1.865.097zM30.204 9.717c-6.507-8.494 12.235 1.426 5.623-7.468-5.564-4.426-10.906 4.99-5.623 7.468m83.47 44.957c2.984-5.285-12.312-7.128-2.007-1.872.948.315.734 2.237 2.007 1.872M53.108 251.495q-.991 3.91-1.222 13.117 0 1.81-1.632 1.81c-1.632 0-1.847-.527-2.276-1.576-1.166-2.838-2.27-4.817-3.324-5.947q-1.863-1.981-4.955-2.39-3.322-.525-16.555-.525-3.032 0-3.963.644-.583.406-.583 1.749v26.409q0 1.34 1.688 1.283c3.461-.04 8.474-.276 15.04-.7q1.926-.236 2.596-1.256.675-1.018 1.312-5.275.407-2.333 2.74-1.806c1.32.272 1.888.875 1.693 1.806q-1.636 7.931-1.053 20.64.061 1.513-1.923 1.632-1.635.175-2.04-1.75c-1.008-4.857-2.887-7.453-5.624-7.785-2.74-.328-7.203-.494-13.38-.494q-1.05-.001-1.049.757v26.235q0 2.917 2.154 3.964 1.694.875 7.287 1.575c1.907.194 2.74 1.032 2.51 2.506-.235 1.283-1.943 1.789-5.133 1.517q-13.817-1.11-22.793.119-2.508.345-2.506-2.041-.002-1.518 2.506-1.75 5.713-.644 5.712-10.027v-49.908q-.001-3.843-1.369-5.915-1.373-2.071-5.1-3.761-2.333-1.049-1.75-2.857.292-1.107.931-1.223.585-.177 3.089.234 3.676.583 17.316.583c10.729 0 19.996-.235 27.81-.7q3.906-.236 3.907.64 0 .235-.061.466m37.807 74.007q0 2.333-2.623 2.04-8.042-.76-19.936.231c-1.595.158-2.574.117-2.946-.113-.37-.235-.552-.875-.552-1.928q-.001-1.395 3.175-2.36c2.121-.639 3.177-2.554 3.177-5.74V264.87q0-4.724-1.368-6.94-1.372-2.216-4.81-3.437-1.81-.644-1.81-1.81 0-1.749 2.624-2.623 3.966-1.28 8.223-3.964 3.5-2.099 4.429-2.097 2.157-.002 2.159 2.971 0-.23-.236 5.83-.171 5.77-.113 11.37l.23 52.06q0 3.558 1.75 5.162c1.166 1.068 3.17 1.777 6.004 2.126q2.623.29 2.623 1.983zm52.729-3.438q0 1.226-4.458 3.7-4.463 2.48-7.142 2.479-2.275.001-4.023-2.215-1.75-2.215-2.45-2.214-.523 0-5.54 2.388-5.01 2.393-10.084 2.393-4.78-.002-7.987-2.797-3.498-3.092-3.498-8.398 0-10.085 23.088-14.457c2.64-.506 3.984-1.575 4.02-3.207l.119-3.732q.351-9.56-8.454-9.559-2.507-.001-4.754 4.486c-1.493 2.996-3.643 4.607-6.441 4.842q-4.78.463-4.781-4.024c0-1.867 2.372-4.04 7.113-6.53q7.464-3.906 14.344-3.907 11.832.001 11.717 11.254l-.235 24.017q-.054 3.79 3.207 3.789.644 0 2.449-.291 1.81-.292 2.102-.292c1.125 0 1.688.761 1.688 2.275m-17.955-13.29c.04-.973-.187-1.617-.673-1.924-.486-.311-1.25-.373-2.3-.178q-14.052 2.509-14.052 9.154 0 6.705 7.287 6.704 2.918 0 6.004-1.105c2.413-.858 3.616-1.886 3.616-3.093l.118-9.559zm61.299 6.583c0 4.12-1.588 7.397-4.753 9.825q-4.75 3.644-12.972 3.644c-3.652 0-7.308-.388-10.96-1.166q-4.724-1.05-5.481-1.923c-.312-.547-.466-3.206-.466-7.988q0-3.091 1.4-3.206 1.399-.175 2.39 1.514 4.372 7.64 14.109 7.64 8.217-.001 8.218-5.717c0-1.668-.62-3.069-1.866-4.195-1.361-1.283-4-2.78-7.927-4.49q-8.514-3.787-11.369-6.647-3.09-3.03-3.09-8.162 0-6.297 4.839-9.793 4.489-3.382 12.008-3.381 4.723-.002 8.632.757 4.197.757 4.372 1.866c.308 2.174.952 5.324 1.924 9.446.117.502-.43.911-1.632 1.222q-1.925.407-2.567-.64-4.603-7.523-11.66-7.522-7.986 0-7.987 5.13 0 2.858 2.157 4.546 1.925 1.459 9.037 4.551 7.462 3.206 10.146 5.77c2.332 2.214 3.498 5.19 3.498 8.919m68.587 10.203q-.001 2.04-2.741 2.157c-2.721.04-6.28.234-10.668.583q-3.267.644-4.664-.814-9.213-9.91-15.628-20.757-.522-.93-1.34-.931-.99 0-3.437 1.75c-1.83 1.008-2.741 2.448-2.741 4.31 0 1.324.036 3.227.117 5.718q.115 3.727 1.863 4.894c.817.547 2.705.972 5.655 1.284q2.741.351 2.742 2.04 0 1.344-.438 1.66-.436.321-2.304.146-5.828-.522-19.703.583-3.498.29-3.79-.875-.117-.406-.118-1.166c0-1.202 1.187-2.118 3.56-2.736q3.205-.82 3.205-7.523v-50.955q.001-4.78-.935-6.644-1.282-2.392-5.364-3.733-1.922-.638-1.923-1.806.001-1.695 2.74-2.623a36.6 36.6 0 0 0 8.336-4.024q3.21-2.097 3.964-2.098c1.596 0 2.393 1.008 2.393 3.033 0-.275-.02 1.652-.061 5.77a935 935 0 0 0-.056 11.428l.117 36.494c0 1.012.271 1.514.814 1.514.583 0 1.478-.502 2.684-1.514q4.84-3.79 11.891-9.911 1.401-1.457 1.4-2.332c0-1.048-1.574-1.79-4.72-2.214q-2.041-.236-1.928-2.276.178-2.04 2.041-1.749 4.203.584 12.243.644 5.599.055 11.138.057 1.805.058 1.806 2.158 0 1.98-2.855 2.158-4.494.17-8.453 2.04-5.54 2.503-11.838 8.802c-.308.234-.466.525-.466.874q-.001.816 1.984 3.907 7.288 11.076 13.757 16.732 4.14 3.555 7.753 3.555 2.685 0 3.323.38.645.38.645 2.01"/></svg>