<svg xmlns="http://www.w3.org/2000/svg" viewBox="48 -2.25 262.5 364"><defs><style>.cls-1{fill:#326ce5}.cls-3{fill:none}</style></defs><path d="M59.724 97.778a10.183 10.183 0 0 1 0-17.073l114.07-74.16a10.18 10.18 0 0 1 11.1 0l114.07 74.16a10.183 10.183 0 0 1 0 17.073l-114.07 74.16a10.18 10.18 0 0 1-11.1 0z" class="cls-1"/><path fill="#c1d2f7" d="M197.356 110.866h7.912a6.003 6.003 0 0 0 5.2-9.005l-25.924-44.902a6.004 6.004 0 0 0-10.399 0l-25.924 44.902a6.003 6.003 0 0 0 5.2 9.005h7.912a6.003 6.003 0 0 1 6.004 6.003v51.257l5.31 3.452a12.29 12.29 0 0 0 13.395 0l5.31-3.452v-51.257a6.003 6.003 0 0 1 6.004-6.003"/><path d="M173.793 353.271a10.1 10.1 0 0 0 3.457 1.402 119 119 0 0 0-6.623-3.46zm-6.456-161.195-11.316 7.356a111 111 0 0 0 11.316 6.6zm24.015 23.716c9.739 3.115 19.813 5.648 30.11 8.186 10.92 2.692 21.973 5.427 32.818 9.009l-35.416-23.025a216 216 0 0 1-27.512-9.41zm0 62.191v.586c0 2.57-2.688 4.652-6.003 4.652H173.34c-3.315 0-6.003-2.083-6.003-4.652v-6.605c-24.906-6.402-49.873-14.485-70.86-33.82l-14.529 9.445c22.468 22.05 50.28 28.933 79.715 36.189 27.178 6.698 55.18 13.651 78.685 33.442l14.68-9.544c-18.532-16.504-40.41-23.687-63.676-29.693M93.315 300.95l38.908 25.295c20.064 5.113 40.2 11.248 58.31 23.36l14.901-9.687c-19.752-13.672-42.55-19.313-66.419-25.197-15.287-3.767-30.835-7.616-45.7-13.771m74.022-82.254a124.3 124.3 0 0 1-21.534-12.62l-14.805 9.625a124.5 124.5 0 0 0 36.339 18.708zm51.41 16.294c-9.106-2.245-18.304-4.524-27.395-7.299v13.682q5.051 1.286 10.177 2.538c29.934 7.379 60.888 15.01 85.708 39.829.61.61 1.162 1.24 1.752 1.857l9.974-6.484a10.1 10.1 0 0 0 3.475-3.8 101 101 0 0 0-3.289-3.486c-22.585-22.585-50.669-29.508-80.402-36.837m-19.933 19.933q-3.722-.918-7.462-1.855v13.21c25.817 6.561 51.803 14.688 73.455 35.04l14.521-9.44-.11-.118c-22.586-22.585-50.67-29.509-80.404-36.837m-31.477-8.587c-16.28-5.278-32.118-12.397-46.344-24.131l-14.682 9.545c17.87 15.557 38.784 22.673 61.026 28.5z" class="cls-3"/><path d="M73.24 254.96c-.348-.348-.658-.71-1-1.06l-12.514 8.136a10 10 0 0 0-1.644 1.397c1.053 1.157 2.115 2.31 3.245 3.44 22.585 22.585 50.67 29.509 80.403 36.837 25.343 6.247 51.401 12.717 73.865 29.603l14.806-9.626c-20.865-16.42-45.53-22.509-71.453-28.898-29.934-7.379-60.888-15.01-85.708-39.83" class="cls-3"/><path d="m218.864 209.962-27.512-17.886v8.476a216 216 0 0 0 27.512 9.41m-27.512 5.83v11.9c9.091 2.774 18.289 5.053 27.395 7.298 29.733 7.329 57.817 14.252 80.402 36.837a101 101 0 0 1 3.29 3.486 10.193 10.193 0 0 0-3.476-13.277l-44.683-29.05c-10.845-3.58-21.898-6.316-32.818-9.008-10.297-2.538-20.371-5.071-30.11-8.186m-24.015-9.76a111 111 0 0 1-11.316-6.6l-10.218 6.644a124.3 124.3 0 0 0 21.534 12.62zm34.192 37.88q-5.125-1.264-10.177-2.539v11.695q3.737.938 7.462 1.855c29.733 7.328 57.818 14.252 80.403 36.837.039.039.073.079.111.118l9.66-6.28c-.589-.618-1.142-1.248-1.751-1.858-24.82-24.82-55.774-32.45-85.708-39.829m-34.192-9.503a124.5 124.5 0 0 1-36.34-18.708l-10.004 6.504c14.226 11.734 30.064 18.853 46.344 24.13zm0 25.842c-22.242-5.828-43.156-12.944-61.026-28.5l-9.834 6.392c20.987 19.336 45.954 27.42 70.86 33.821zm24.015 17.732c23.266 6.006 45.144 13.19 63.675 29.693l9.78-6.358c-21.652-20.352-47.638-28.479-73.455-35.04zM81.948 247.59l-9.707 6.311c.341.35.652.712 1 1.06 24.82 24.82 55.773 32.45 85.707 39.829 25.922 6.39 50.588 12.478 71.452 28.898l9.948-6.467c-23.505-19.791-51.507-26.744-78.685-33.442-29.436-7.256-57.247-14.138-79.715-36.189m-20.621 19.284c-1.13-1.13-2.192-2.283-3.245-3.44a10.154 10.154 0 0 0 1.644 15.68l33.589 21.837c14.865 6.155 30.413 10.004 45.7 13.771 23.869 5.884 46.667 11.525 66.419 25.197l10.16-6.605c-22.463-16.886-48.521-23.356-73.864-29.603-29.733-7.328-57.818-14.252-80.403-36.837m109.3 84.34a119 119 0 0 1 6.623 3.46 10.16 10.16 0 0 0 7.645-1.402l5.639-3.666c-18.11-12.112-38.247-18.247-58.311-23.36z" class="cls-1"/></svg>