<svg xmlns="http://www.w3.org/2000/svg" xmlns:xlink="http://www.w3.org/1999/xlink" width="64" height="64" viewBox="15 15 24 24"><defs><path id="a" d="M27.8 115.217 1.54 69.75a11.5 11.5 0 0 1 0-11.499L27.8 12.784a11.5 11.5 0 0 1 9.959-5.749h52.5a11.5 11.5 0 0 1 9.959 5.749l26.25 45.467a11.5 11.5 0 0 1 0 11.499l-26.25 45.467a11.5 11.5 0 0 1-9.958 5.749h-52.5a11.5 11.5 0 0 1-9.958-5.749z"/><path id="b" d="M27.8 115.217 1.54 69.75a11.5 11.5 0 0 1 0-11.499L27.8 12.784a11.5 11.5 0 0 1 9.958-5.749h52.5a11.5 11.5 0 0 1 9.959 5.749l26.25 45.467a11.5 11.5 0 0 1 0 11.499l-26.25 45.467a11.5 11.5 0 0 1-9.958 5.749h-52.5a11.5 11.5 0 0 1-9.958-5.749z"/><path id="f" d="M63.336 35.633c-6.364 0-11.523 5.158-11.523 11.523s5.16 11.523 11.523 11.523 11.522-5.16 11.522-11.523-5.16-11.523-11.522-11.523m0 20.265c-4.83 0-8.744-3.914-8.744-8.742s3.915-8.744 8.744-8.744 8.743 3.915 8.743 8.744-3.914 8.742-8.743 8.742"/><path id="g" d="M63.333 33.58a13.6 13.6 0 0 1 2.814.294l-1.722-4.786c-.126-.43-.393-.717-.788-.717h-.72c-.396 0-.67.287-.788.717l-1.496 4.762a13.6 13.6 0 0 1 2.7-.27"/><path id="h" d="M49.76 47.155c0-.986.108-1.947.307-2.874l-4.804 1.5c-.43.118-.716.392-.716.788v1.817c0 .395.287.662.716.788h4.648c-.1-.66-.15-1.34-.15-2.028"/><linearGradient id="c" x1="64" x2="64" y1="7.034" y2="120.789" gradientUnits="userSpaceOnUse"><stop offset="0" stop-color="#4387fd"/><stop offset="1" stop-color="#4683ea"/></linearGradient><clipPath id="i"><use xlink:href="#a" width="128" height="128"/></clipPath></defs><g transform="matrix(.1875 0 0 .1875 15 15)"><use xlink:href="#b" fill="url(#c)"/><defs><path id="d" d="M27.8 115.217 1.54 69.75a11.5 11.5 0 0 1 0-11.499L27.8 12.784a11.5 11.5 0 0 1 9.959-5.749h52.5a11.5 11.5 0 0 1 9.959 5.749l26.25 45.467a11.5 11.5 0 0 1 0 11.499l-26.25 45.467a11.5 11.5 0 0 1-9.958 5.749h-52.5a11.5 11.5 0 0 1-9.958-5.749z"/></defs><clipPath id="e"><use xlink:href="#d" width="128" height="128"/></clipPath><path d="m81.268 121.896 16.4.146 23.536-40.12-19.937-19.938-.693-.214-34.9-34.9-7.162 10.473 6 6-15.27 5.563-5.967 15.18-5.856-5.856-10.55 9.266z" clip-path="url(#e)" opacity=".07"/></g><g fill="#fff" transform="matrix(.375 0 0 .375 3.249 9.317)"><use xlink:href="#f"/><path d="m81.408 45.8-4.804-1.5a13.6 13.6 0 0 1 .307 2.874 14 14 0 0 1-.151 2.028h4.647c.43-.126.716-.392.716-.788v-1.817c0-.395-.287-.67-.716-.787"/><use xlink:href="#g"/><use xlink:href="#h"/><path d="m67.45 43.395-1.1 1.1v-.002a4.13 4.13 0 0 0-2.934-1.214c-1.1 0-2.15.433-2.935 1.216a4.16 4.16 0 0 0 0 5.87l-1.1 1.1a5.68 5.68 0 0 0 4.024 1.669 5.7 5.7 0 0 0 5.695-5.695c0-1.57-.64-2.993-1.67-4.023M65.2 49.02c-.514.515-1.2.773-1.864.773a2.63 2.63 0 0 1-1.866-.773 2.64 2.64 0 0 1 0-3.732 2.64 2.64 0 0 1 1.866-.772 2.62 2.62 0 0 1 1.864.772 2.64 2.64 0 0 1 0 3.732"/></g><g transform="matrix(.5 0 0 .5 128.749 -62.338)"><use xlink:href="#b" fill="url(#c)"/><path d="m97.667 122.042 23.536-40.12-19.937-19.938-.693-.214-34.9-34.9-7.162 10.473 6 6-15.27 5.563-5.967 15.18-5.856-5.856-10.55 9.266 54.4 54.4z" clip-path="url(#i)" opacity=".07"/></g><g fill="#fff"><use xlink:href="#f" x="97.412" y="-77.493"/><path d="m178.82-31.7-4.804-1.5a13.6 13.6 0 0 1 .307 2.874 14 14 0 0 1-.151 2.028h4.648c.43-.126.716-.392.716-.788v-1.817c0-.395-.287-.67-.716-.787"/><use xlink:href="#g" x="97.412" y="-77.493"/><use xlink:href="#h" x="97.412" y="-77.492"/><path d="m164.862-34.097-1.1 1.1V-33a4.13 4.13 0 0 0-2.934-1.214c-1.1 0-2.15.433-2.935 1.216a4.16 4.16 0 0 0 0 5.87l-1.1 1.1a5.68 5.68 0 0 0 4.024 1.669 5.7 5.7 0 0 0 5.695-5.695c0-1.57-.64-2.993-1.67-4.023m-2.25 5.626c-.514.515-1.2.773-1.864.773a2.63 2.63 0 0 1-1.866-.773 2.64 2.64 0 0 1 0-3.732 2.64 2.64 0 0 1 1.866-.772 2.62 2.62 0 0 1 1.864.772 2.64 2.64 0 0 1 0 3.732"/></g><path d="M121.26 7.114c-.234.47-5.016 12.422-5.016 12.563 0 .078.188.14.438.14.406 0 .47-.125 1.297-2.234l.9-2.22 2.64-.047 2.656-.03.86 2.22c.844 2.172.875 2.234 1.36 2.28.266.03.484.016.484-.03s-.984-2.6-2.203-5.672L122.15 7.66c-.312-.828-.625-1.03-.9-.547zm1.703 5.016c.453 1.22.797 2.25.75 2.297s-1.062.063-2.266.047l-2.187-.047 1.063-2.734 1.156-3.047c.063-.25.14-.14.36.47l1.125 3.016zm31.25 1.28v6.406h7.03v-.78l-3.062-.03-3.047-.047v-5.47l2.906-.047c2.906-.03 2.906-.03 2.86-.4-.047-.344-.094-.344-2.906-.422l-2.86-.078V7.864l3.047-.047 3.063-.03v-.78h-7.03zm-23.236-3.1c-.28.078-.766.4-1.078.688l-.6.547c-.016 0-.078-.28-.14-.625-.078-.484-.172-.625-.406-.625-.312 0-.312.125-.312 6.953V24.2h.797l-.047-2.9.047-2.9c.063 0 .22.188.375.406.703 1.078 3.047 1.484 4.53.78.922-.437 1.156-.672 1.75-1.812.4-.78.438-1 .438-2.578 0-1-.094-2.03-.22-2.453-.266-.922-1.125-1.953-1.953-2.328-.703-.312-2.297-.375-3.172-.125zm3.188 1.047c.813.578 1.203 1.594 1.266 3.344q.187 4.5-3.14 4.5c-1.234 0-2.125-.5-2.6-1.484-.344-.703-.4-.97-.4-2.656s.047-1.953.4-2.656c.547-1.1 1.4-1.516 2.9-1.453.828.03 1.22.14 1.594.406zm7.155-.92c-.344.156-.797.47-1 .703-.516.547-.64.516-.64-.22 0-.562-.03-.625-.4-.625h-.4v13.922l.438-.047.422-.047-.03-2.875-.047-2.9.594.578c1.03 1 2.64 1.313 4.14.797.97-.328 1.906-1.4 2.25-2.547.36-1.203.344-3.28-.03-4.47-.36-1.125-1.312-2.156-2.203-2.406-.937-.266-2.406-.203-3.1.125zm2.938.703c.64.25 1.266.984 1.53 1.766.125.344.22 1.28.22 2.172 0 1.438-.03 1.64-.47 2.5-.6 1.172-1.328 1.625-2.625 1.625-.5 0-1.125-.094-1.406-.22-.656-.266-1.297-1.03-1.516-1.78-.203-.75-.203-3.53.016-4.297.203-.766.984-1.64 1.6-1.812.734-.22 2.078-.203 2.64.047zm22.266-.854c-.64.188-1.484.75-1.6 1.047-.078.234-.1.234-.234.047-.094-.125-.156-.422-.156-.672 0-.344-.062-.422-.4-.422h-.4v9.53h.938v-3.22c0-3.687.094-4.203.953-4.984.656-.594 1.516-.797 2.813-.672.922.094 1.625.656 1.86 1.516.078.313.156 2.094.156 3.953v3.406h.78v-3.64c-.016-4.547-.172-5.078-1.64-5.75-.656-.312-2.297-.375-3.078-.14zm9.203.062c-2.094.766-2.594 3.422-.97 5.047l.672.672-.53.53c-.672.672-.72 1.375-.125 1.984l.406.422-.703.313c-1.094.484-1.625 1.563-1.375 2.72.313 1.4 1.53 2.047 3.766 2.047 3.03 0 4.578-1.062 4.578-3.14 0-.953-.312-1.484-1.156-1.984-.437-.25-.922-.328-2.578-.4-1.375-.062-2.14-.156-2.312-.297-.375-.312-.297-1.016.14-1.547.36-.422.484-.47 1.6-.53 1.422-.078 2-.36 2.75-1.266.438-.547.484-.703.484-1.734 0-.812-.078-1.234-.266-1.547-.437-.64-.36-.734.578-.734.64 0 .9-.062.97-.234.047-.14.063-.266.03-.297s-1.25-.094-2.72-.14c-2.078-.078-2.78-.062-3.25.1zm2.703.72c.766.4 1.14 1.078 1.14 2.1 0 1.484-.72 2.25-2.22 2.375-1.6.125-2.672-.812-2.672-2.375 0-1.922 1.97-3.016 3.75-2.1zm.97 8.438c.875.25 1.266.844 1.172 1.766-.125 1.344-1.062 1.953-3.156 2.094-2.516.172-3.766-.687-3.453-2.36.234-1.203 1.1-1.64 3.375-1.656.813 0 1.75.078 2.063.156zm10.53-9.142c-.328.1-.844.438-1.125.72l-.516.5-.1-.64c-.094-.562-.156-.656-.47-.656h-.375v9.53h.938v-3.172l.172-3.75c.22-.797.984-1.625 1.672-1.828.844-.234 2.172-.187 2.75.078 1.03.484 1.1.828 1.156 4.953l.047 3.72h.766V16.1c0-3.25-.047-3.78-.297-4.328-.344-.75-.687-1.078-1.47-1.406-.703-.297-2.328-.297-3.14 0zm10 0c-.766.266-1.5.984-2.062 2-.36.672-.437 1.03-.5 2.313-.094 1.828.203 2.938 1.016 3.9.922 1.078 1.594 1.328 3.406 1.328 1.844-.016 2.78-.28 2.86-.828.063-.406.078-.406-1.03-.094-1.297.375-3.094.25-3.906-.297-.75-.484-1.4-1.72-1.47-2.766l-.047-.703 3.422-.047 3.422-.03-.078-1.22c-.094-1.437-.453-2.25-1.375-3.047-.906-.766-2.344-.97-3.656-.5zm2.9.906c.594.4 1.156 1.422 1.297 2.406l.094.672h-5.984l.1-.64c.188-1.187.938-2.266 1.813-2.625.75-.297 2.094-.203 2.672.188zm-19.4 3.78v4.766h.938v-9.53h-.937z"/></svg>