<?xml version="1.0" encoding="UTF-8"?>
<svg version="1.1" xmlns="http://www.w3.org/2000/svg" width="512" height="512" viewBox="0 0 512 512">
<path d="M0 0 C3.73559061 0.00685613 7.47114092 -0.00372287 11.20672321 -0.01193976 C18.50383359 -0.02521006 25.80085088 -0.02242948 33.09796476 -0.01370184 C39.03376142 -0.00689912 44.96953217 -0.0060197 50.90533161 -0.00927329 C51.75335547 -0.00973299 52.60137933 -0.01019269 53.47510087 -0.01066632 C55.19838064 -0.01162559 56.92166039 -0.01259823 58.64494014 -0.01358409 C74.76640667 -0.02211835 90.88782186 -0.0123348 107.00927997 0.00381701 C120.81232304 0.0172184 134.61529039 0.01488975 148.4183321 0.00106072 C164.48603846 -0.01502992 180.55369993 -0.02129456 196.62141323 -0.01210248 C198.33800093 -0.01114694 200.05458863 -0.01020382 201.77117634 -0.00927329 C202.6155511 -0.00881046 203.45992587 -0.00834764 204.32988775 -0.00787079 C210.25169389 -0.00529133 216.17347132 -0.00962924 222.09527302 -0.01671195 C229.32179783 -0.025166 236.54822502 -0.02276537 243.77473879 -0.00686972 C247.45477095 0.00096086 251.13464092 0.00419487 254.81467152 -0.00581717 C283.20974034 -0.07670489 283.20974034 -0.07670489 296.33825397 3.39217401 C297.58017254 3.71803459 297.58017254 3.71803459 298.84718037 4.05047822 C329.33043319 12.89208989 353.97604817 33.49950204 369.40075397 60.99373651 C373.64577812 69.09953691 377.0260152 77.5332309 379.33825397 86.39217401 C379.71120389 87.70561477 379.71120389 87.70561477 380.09168816 89.04558969 C383.28032223 102.15162261 382.7740403 115.48652342 382.74508703 128.89387727 C382.7403145 132.62409526 382.75290103 136.3542637 382.76310444 140.08446527 C382.78021938 147.37402386 382.7811476 154.66349597 382.77589153 161.95306942 C382.77183437 167.88457474 382.77331166 173.8160547 382.77863979 179.74755883 C382.77938822 180.59485201 382.78013664 181.44214519 382.78090774 182.31511392 C382.78243937 184.03693802 382.78397772 185.75876211 382.78552271 187.4805862 C382.7992217 203.59450561 382.79382873 219.70837635 382.78233749 235.82229462 C382.77241116 250.52636793 382.78534005 265.23031529 382.80927169 279.93436918 C382.83372396 295.07372499 382.84325534 310.2130223 382.83661896 325.35239744 C382.83313989 333.83544809 382.83527131 342.31840202 382.85286999 350.80143762 C382.86766904 358.02389484 382.86812789 365.24618723 382.85079908 372.46864149 C382.8423489 376.14503648 382.8399904 379.82113801 382.85545063 383.49751687 C382.93936064 405.02191126 381.30502973 423.64715265 372.33825397 443.39217401 C371.91028522 444.39248651 371.48231647 445.39279901 371.04137897 446.42342401 C358.86808247 473.06146107 334.42546465 493.41335383 307.48278522 503.96248651 C289.30301431 510.36084634 271.76229204 510.83627357 252.67650795 510.78434801 C248.94091734 510.77749188 245.20536703 510.78807088 241.46978474 510.79628778 C234.17267436 510.80955807 226.87565707 510.80677749 219.57854319 510.79804985 C213.64274653 510.79124713 207.70697578 510.79036772 201.77117634 510.7936213 C200.49914055 510.79431085 200.49914055 510.79431085 199.20140707 510.79501433 C197.47812731 510.7959736 195.75484756 510.79694624 194.03156781 510.7979321 C177.91010128 510.80646636 161.78868609 510.79668281 145.66722798 510.780531 C131.86418491 510.76712962 118.06121756 510.76945826 104.25817585 510.78328729 C88.19046949 510.79937793 72.12280802 510.80564257 56.05509472 510.7964505 C54.33850702 510.79549495 52.62191932 510.79455183 50.90533161 510.7936213 C50.06095685 510.79315848 49.21658208 510.79269565 48.3466202 510.7922188 C42.42481406 510.78963934 36.50303663 510.79397725 30.58123493 510.80105996 C23.35471012 510.80951401 16.12828293 510.80711338 8.90176916 510.79121773 C5.221737 510.78338715 1.54186703 510.78015314 -2.13816357 510.79016519 C-30.53323239 510.8610529 -30.53323239 510.8610529 -43.66174603 507.39217401 C-44.90366459 507.06631342 -44.90366459 507.06631342 -46.17067242 506.73386979 C-76.65392524 497.89225812 -101.29954022 477.28484597 -116.72424603 449.79061151 C-120.96927017 441.6848111 -124.34950725 433.25111711 -126.66174603 424.39217401 C-126.9103793 423.51654683 -127.15901258 422.64091966 -127.41518021 421.73875833 C-130.60381428 408.6327254 -130.09753235 395.29782459 -130.06857908 381.89047074 C-130.06380655 378.16025275 -130.07639308 374.43008431 -130.08659649 370.69988275 C-130.10371143 363.41032416 -130.10463965 356.12085204 -130.09938359 348.83127859 C-130.09532643 342.89977327 -130.09680371 336.96829331 -130.10213184 331.03678918 C-130.10288027 330.189496 -130.10362869 329.34220282 -130.10439979 328.46923409 C-130.10593142 326.74740999 -130.10746977 325.0255859 -130.10901476 323.30376181 C-130.12271375 307.1898424 -130.11732078 291.07597166 -130.10582954 274.96205339 C-130.09590321 260.25798008 -130.1088321 245.55403272 -130.13276374 230.84997883 C-130.15721601 215.71062302 -130.16674739 200.57132571 -130.16011101 185.43195057 C-130.15663194 176.94889992 -130.15876336 168.46594599 -130.17636204 159.98291039 C-130.19116109 152.76045317 -130.19161994 145.53816078 -130.17429113 138.31570652 C-130.16584095 134.63931153 -130.16348245 130.96321 -130.17894268 127.28683114 C-130.26285269 105.76243675 -128.62852178 87.13719536 -119.66174603 67.39217401 C-119.23377728 66.39186151 -118.80580853 65.39154901 -118.36487103 64.36092401 C-106.19157452 37.72288694 -81.7489567 17.37099418 -54.80627728 6.82186151 C-36.62650636 0.42350167 -19.08578409 -0.05192556 0 0 Z " fill="#000000" transform="translate(129.66174602508545,0.6078259944915771)"/>
<path d="M0 0 C0 3.99456809 -1.33800355 4.92485279 -3.875 8 C-30.66414598 41.71038432 -49.98100787 76.8992881 -47 121 C-45.94901657 129.92653461 -44.28598958 138.7527884 -42.6328125 147.58398438 C-35.28670948 187.23933676 -39.84339415 225.9767145 -63 260 C-65.50934528 263.49248429 -68.15524758 266.77668953 -71 270 C-71.73089844 270.83917969 -72.46179688 271.67835938 -73.21484375 272.54296875 C-75.44354005 275.06120508 -77.71135291 277.5362429 -80 280 C-80.60070312 280.66644531 -81.20140625 281.33289063 -81.8203125 282.01953125 C-98.00413667 299.21922318 -120.30517603 309.93431167 -142.5625 316.75 C-143.19792725 316.94883789 -143.83335449 317.14767578 -144.48803711 317.35253906 C-177.89619359 327.08979952 -216.05189235 321.04928647 -246.375 304.8125 C-248.60464721 303.57360732 -250.80147397 302.29471836 -253 301 C-253.88816406 300.49082031 -254.77632812 299.98164063 -255.69140625 299.45703125 C-257.50769611 298.37989239 -259.2650796 297.20382232 -261 296 C-261 295.34 -261 294.68 -261 294 C-260.03175293 293.56131592 -259.06350586 293.12263184 -258.06591797 292.6706543 C-254.45357194 291.03363717 -250.84191968 289.39509428 -247.23046875 287.75610352 C-245.67108563 287.0486595 -244.11151785 286.34162237 -242.55175781 285.63500977 C-240.30224017 284.61583175 -238.05340361 283.59516383 -235.8046875 282.57421875 C-235.1138205 282.26159592 -234.42295349 281.94897308 -233.71115112 281.62687683 C-230.66501881 280.24236627 -227.66736935 278.82893702 -224.69018555 277.29785156 C-218.78713834 274.44998888 -213.4405401 276.55091419 -207.5625 278.4375 C-183.13919925 286.18782744 -155.57251049 283.47645355 -132.79150391 271.953125 C-107.0242149 258.24428113 -89.82546069 235.47798682 -81 208 C-75.44274399 189.60765806 -76.52590012 169.26436268 -82 151 C-82.33515625 149.87464844 -82.6703125 148.74929687 -83.015625 147.58984375 C-84.63751428 142.7048677 -85.97416906 139.37842374 -90 136 C-94.90093496 134.71450886 -96.61206988 134.30856458 -101.21484375 136.6015625 C-105.58502771 139.25848532 -109.66057524 142.31037955 -113.75 145.375 C-115.43870681 146.6303365 -117.1275117 147.88554108 -118.81640625 149.140625 C-119.67508301 149.78064453 -120.53375977 150.42066406 -121.41845703 151.08007812 C-124.70433783 153.52382378 -128.00357418 155.94909552 -131.30371094 158.37353516 C-137.89428327 163.21589135 -144.46426913 168.0838727 -151 173 C-159.1498895 179.13028521 -167.3602261 185.17710259 -175.57666016 191.21777344 C-180.33668317 194.71849558 -185.0928977 198.22439599 -189.84790039 201.73193359 C-193.94979155 204.75679663 -198.05675474 207.77440294 -202.171875 210.78125 C-203.44708008 211.71517578 -203.44708008 211.71517578 -204.74804688 212.66796875 C-206.36225171 213.8499548 -207.97802494 215.02980333 -209.59570312 216.20703125 C-214.24892789 219.61858187 -218.66439232 223.19200595 -223 227 C-223.66 226.67 -224.32 226.34 -225 226 C-224.22627548 225.22849609 -223.45255096 224.45699219 -222.65538025 223.66210938 C-215.34098604 216.36804394 -208.02927717 209.07129607 -200.72014523 201.7719574 C-196.9629563 198.01997263 -193.2048489 194.26891781 -189.44458008 190.52001953 C-185.81136972 186.89772605 -182.18065377 183.27294916 -178.55160713 179.64648438 C-177.1711113 178.26782699 -175.78974004 176.89004559 -174.40745354 175.51318359 C-172.4618917 173.57494917 -170.5195516 171.63353765 -168.57788086 169.69140625 C-168.01395126 169.13107193 -167.45002167 168.57073761 -166.8690033 167.99342346 C-164.03854873 165.15575966 -161.33071248 162.2586257 -158.71829224 159.21829224 C-155.37348385 155.38131491 -151.88106683 151.74278037 -148.27381897 148.15356445 C-147.63488738 147.51377844 -146.99595579 146.87399242 -146.33766264 146.21481895 C-144.21973928 144.09526298 -142.09828866 141.97927485 -139.97680664 139.86328125 C-138.44848502 138.335242 -136.92038416 136.80698192 -135.39248657 135.27851868 C-131.26097108 131.14671718 -127.12638747 127.01799841 -122.99123311 122.88983917 C-118.66394524 118.5688177 -114.33950362 114.24494961 -110.01475525 109.92138672 C-101.83236315 101.74209825 -93.64742605 93.56536149 -85.46156448 85.38954544 C-76.1391649 76.07833706 -66.81961677 66.76427689 -57.50030339 57.44997978 C-38.33669976 38.29681864 -19.16953001 19.14722956 0 0 Z " fill="#FDFDFD" transform="translate(441,78)"/>
<path d="M0 0 C-2.31585582 3.47378373 -3.74659177 4.05025505 -7.49609375 5.7421875 C-8.61306641 6.25136719 -9.73003906 6.76054687 -10.88085938 7.28515625 C-12.64139648 8.07212891 -12.64139648 8.07212891 -14.4375 8.875 C-15.57638672 9.39191406 -16.71527344 9.90882813 -17.88867188 10.44140625 C-20.15756663 11.4702483 -22.42904035 12.49342296 -24.703125 13.51074219 C-26.86317781 14.48647694 -29.01472972 15.4813059 -31.15625 16.49707031 C-32.12433594 16.95436523 -33.09242188 17.41166016 -34.08984375 17.8828125 C-34.94054443 18.29160645 -35.79124512 18.70040039 -36.66772461 19.12158203 C-42.50337935 21.31949743 -47.89751377 18.76190229 -53.47851562 16.80175781 C-61.7985697 14.15622551 -70.20200669 13.66769236 -78.875 13.75 C-80.46078857 13.76232666 -80.46078857 13.76232666 -82.07861328 13.77490234 C-110.08477266 14.17591433 -134.51152689 25.19449599 -154.75 44.3125 C-172.93381912 63.32738946 -183.65667108 90.1615634 -183.4375 116.3125 C-183.42992676 117.58561035 -183.42235352 118.8587207 -183.41455078 120.17041016 C-183.247159 129.74350949 -182.2478728 137.98261402 -179 147 C-178.67854004 147.94504395 -178.67854004 147.94504395 -178.35058594 148.90917969 C-173.41389363 163.31684791 -164.85486533 174.61036056 -155 186 C-161.97375557 194.71719447 -170.53096089 201.90002223 -178.94140625 209.19140625 C-181.4895665 211.4301125 -183.99410593 213.71410212 -186.5 216 C-190.26350521 219.43264761 -194.06129351 222.8155501 -197.90625 226.15625 C-200.46419027 228.40876457 -202.9817898 230.70317092 -205.5 233 C-209.26350521 236.43264761 -213.06129351 239.8155501 -216.90625 243.15625 C-219.46419027 245.40876457 -221.9817898 247.70317092 -224.5 250 C-228.26350521 253.43264761 -232.06129351 256.8155501 -235.90625 260.15625 C-239.4281247 263.25760235 -242.88077022 266.43513333 -246.34765625 269.59765625 C-249.14089622 272.12761587 -251.97470295 274.60427191 -254.82421875 277.0703125 C-256.5795011 278.62706202 -258.30414657 280.20465407 -260.01953125 281.8046875 C-260.81919312 282.54827515 -260.81919312 282.54827515 -261.63500977 283.30688477 C-262.68997515 284.29040275 -263.74141555 285.27771919 -264.78881836 286.26928711 C-267.36970575 288.6726825 -269.72228742 290.64989458 -273 292 C-268.04397749 284.97896812 -262.33246238 278.84317647 -256.47216797 272.58544922 C-254.36466515 270.31577703 -252.30786608 268.00215352 -250.25 265.6875 C-247.58659928 262.7079402 -244.86478526 259.84833449 -242 257.0625 C-238.09029772 253.20709914 -234.64413585 249.05712895 -231.21875 244.76953125 C-229.82991152 243.03592828 -228.41665601 241.32130171 -226.96875 239.63671875 C-213.30131313 223.50155022 -205.83419427 205.54444471 -207.16796875 184.328125 C-208.16807321 176.1860981 -211.16317799 168.78490187 -214.02954102 161.15600586 C-226.56949918 127.55789359 -223.25803917 89.30613007 -208.79125977 56.86523438 C-200.02608801 37.8635191 -187.46572634 20.11309897 -171 7 C-169.97777344 6.17886719 -168.95554687 5.35773438 -167.90234375 4.51171875 C-153.96090223 -6.35374463 -137.98557702 -14.99798171 -121 -20 C-120.01257813 -20.29261719 -119.02515625 -20.58523437 -118.0078125 -20.88671875 C-79.35027709 -31.39705663 -32.08697384 -25.22808754 0 0 Z " fill="#FCFCFC" transform="translate(342,143)"/>
<path d="M0 0 C0 3.7226489 -0.98537259 4.67462429 -3.25 7.5625 C-3.85328125 8.34753906 -4.4565625 9.13257812 -5.078125 9.94140625 C-7 12 -7 12 -8.73651505 12.76009178 C-12.05596187 14.57844246 -14.49793461 17.2303563 -17.13763428 19.89712524 C-17.74950128 20.5072834 -18.36136828 21.11744155 -18.9917767 21.74608934 C-21.0432476 23.79426288 -23.08748299 25.84950871 -25.13183594 27.90478516 C-26.59995802 29.3734713 -28.06852048 30.84171736 -29.53749084 32.30955505 C-33.52715506 36.29864455 -37.51061513 40.29387827 -41.49301052 44.29022264 C-45.6547951 48.46449472 -49.82222968 52.6331181 -53.98907471 56.80233765 C-61.88009025 64.69957378 -69.76599293 72.60189514 -77.65008283 80.50604475 C-86.62550795 89.50381083 -95.60660074 98.49591055 -104.58818007 107.48753285 C-123.06511135 125.98537926 -141.5348943 144.49034946 -160 163 C-160 159.12437942 -158.43862498 158.07952782 -155.81230164 155.42505771 C-155.18974991 154.81124451 -154.56719818 154.1974313 -153.92578125 153.5650177 C-153.27241287 152.90908605 -152.61904449 152.2531544 -151.94587708 151.57734603 C-149.74183131 149.36833574 -147.5271901 147.17025858 -145.3125 144.97192383 C-143.73552131 143.39579083 -142.15920188 141.81899797 -140.58349609 140.24159241 C-136.29280561 135.95003829 -131.99290305 131.66782106 -127.69134521 127.3871634 C-123.20165365 122.91617743 -118.72041018 118.43674077 -114.23828125 113.95817566 C-106.71054322 106.43871393 -99.17758756 98.92451935 -91.640625 91.41430664 C-83.87670001 83.67790846 -76.11592449 75.93837326 -68.359375 68.19458008 C-67.64249606 67.4788834 -67.64249606 67.4788834 -66.91113472 66.74872819 C-64.51363179 64.35514031 -62.11619076 61.96149042 -59.71878052 59.5678097 C-39.82210991 39.70225157 -19.91448452 19.84769907 0 0 Z " fill="#E0E0E0" transform="translate(441,78)"/>
</svg>
