<svg width="361" height="224" viewBox="0 0 361 224" fill="none" xmlns="http://www.w3.org/2000/svg">
<path d="M67.3465 4.3208C62.5234 4.3208 58.0667 6.89389 55.6552 11.0708L1.80865 104.336C-0.602889 108.513 -0.602883 113.659 1.80866 117.836L55.6552 211.101C58.0667 215.277 62.5234 217.851 67.3465 217.851H175.039C179.863 217.851 184.319 215.277 186.731 211.101L240.577 117.836C242.989 113.659 242.989 108.513 240.577 104.336L186.731 11.0708C184.319 6.89388 179.863 4.3208 175.039 4.3208L67.3465 4.3208Z" fill="#D5E5FF"/>
<path d="M287.008 2.29488C319.287 10.6012 315.609 28.9193 328.995 66.1793C337.583 90.084 379.104 119.725 341.16 177.344C329.837 194.54 293.425 214.941 267.079 220.6C209.035 232.875 174.834 205.018 144.494 159.09C121.73 124.349 129.773 74.335 164.299 49.7761C197.018 26.5653 244.576 -9.45146 287.008 2.29488Z" fill="#69A3FF"/>
</svg>
