<svg xmlns="http://www.w3.org/2000/svg" viewBox="0 0 77.62745 102.5">
  <path fill="#516baa" d="m31.05548,54.44523v24.1773c.00065.04512-.03164.084-.07611.09164l-23.27949,3.99047c-.05091.0076-.09834-.02751-.10594-.07841-.00256-.01712-.0003-.03461.00653-.05051L30.87996,30.58635c.02242-.04633.07815-.06572.12449-.04331.0316.01529.05193.04704.05259.08214l-.00156,23.82005Zm3.92367-13.93321v38.21148c.00046.04691.03573.08617.08232.09164l34.87031,3.89415c.0512.00527.09698-.03196.10226-.08316.00167-.01616-.00092-.03247-.00751-.04732L35.15623,4.70041c-.02237-.04636-.07809-.0658-.12444-.04343-.03117.01504-.05144.04612-.05264.08071v35.77433Zm34.68546,45.76213l-38.57341,11.57218c-.02155.00797-.04524.00797-.06679,0l-23.309-11.57217c-.04636-.0203-.06749-.07435-.04719-.12071.01513-.03455.04988-.0563.08757-.05481h61.88241c.0508.00825.08531.05613.07706.10693-.00482.0297-.02369.05525-.05066.06859Z"/>
</svg>
