<svg xmlns="http://www.w3.org/2000/svg" xml:space="preserve" viewBox="0 0 122.88 118.78"><path d="M112.13 26.42c-.7-2.25-2.39-4.08-4.5-5.2L64.78.7C63.65.14 62.39 0 61.26 0s-2.39 0-3.51.28L14.89 20.94c-2.11.98-3.65 2.81-4.22 5.2L.14 72.37c-.42 2.39.14 4.78 1.55 6.75l29.65 36.67c1.69 1.69 4.08 2.81 6.46 2.95h47.21c2.53.28 4.92-.84 6.46-2.95l29.65-36.67c1.41-1.97 1.97-4.36 1.69-6.75z" style="fill:#326de6"/><path d="M105.59 69.45c-.14 0-.28 0-.28-.14s-.28-.14-.56-.14c-.56-.14-1.12-.14-1.69-.14-.28 0-.56 0-.84-.14h-.14a28.5 28.5 0 0 1-4.78-.84c-.42-.14-.84-.56-.98-.98.14 0 0 0 0 0l-1.12-.28c.56-4.08.28-8.29-.56-12.37-.98-4.08-2.67-8.01-4.92-11.52l.84-.84v-.14c0-.42.14-.98.42-1.26 1.26-1.12 2.53-1.97 3.93-2.81l.84-.42c.56-.28.98-.56 1.55-.84.14-.14.28-.14.42-.28s0-.14 0-.28c1.26-.98 1.55-2.67.56-3.93-.42-.56-1.26-.98-1.97-.98-.7 0-1.41.28-1.97.7l-.14.14c-.14.14-.28.28-.42.28-.42.42-.84.84-1.12 1.26-.14.28-.42.42-.56.56a18.5 18.5 0 0 1-3.51 3.09c-.28.14-.56.28-.84.28-.14 0-.42 0-.56-.14h-.14l-1.12.7c-1.12-1.12-2.39-2.25-3.51-3.37-5.2-4.08-11.66-6.6-18.27-7.31l-.14-1.12v.14c-.42-.28-.56-.7-.7-1.12 0-1.55 0-3.09.28-4.78v-.14c0-.28.14-.56.14-.84.14-.56.14-1.12.28-1.69v-.86c.14-1.41-.98-2.81-2.39-2.95-.84-.14-1.69.28-2.39.98-.56.56-.84 1.26-.84 1.97v.7c0 .56.14 1.12.28 1.69.14.28.14.56.14.84v.14c.28 1.55.28 3.09.28 4.78-.14.42-.28.84-.7 1.12v.28l-.14 1.12c-1.55.14-3.09.42-4.78.7-6.6 1.41-12.65 4.92-17.28 9.84l-.84-.56h-.14c-.14 0-.28.14-.56.14s-.56-.14-.84-.28c-1.26-.98-2.53-2.11-3.51-3.23-.14-.28-.42-.42-.56-.56-.42-.42-.7-.84-1.12-1.26-.14-.14-.28-.14-.42-.28l-.14-.14c-.56-.42-1.26-.7-1.97-.7-.84 0-1.55.28-1.97.98-.84 1.26-.56 2.95.56 3.93.14 0 .14.14.14.14s.28.28.42.28c.42.28.98.56 1.55.84l.84.42c1.41.84 2.81 1.69 3.93 2.81.28.28.56.84.42 1.26v-.14l.84.84c-.14.28-.28.42-.42.7-4.36 6.89-6.18 15.04-4.92 23.05l-1.12.28c0 .14-.14.14-.14.14-.14.42-.56.7-.98.98-1.55.42-3.09.7-4.78.84-.28 0-.56 0-.84.14-.56 0-1.12.14-1.69.14-.14 0-.28.14-.56.14-.14 0-.14 0-.28.14-1.55.28-2.53 1.69-2.25 3.23.28 1.26 1.55 2.11 2.81 1.97.28 0 .42 0 .7-.14.14 0 .14 0 .14-.14s.42 0 .56 0c.56-.14 1.12-.42 1.55-.56.28-.14.56-.28.84-.28h.14c1.55-.56 2.95-.98 4.64-1.26h.14c.42 0 .84.14 1.12.42.14 0 .14.14.14.14l1.26-.14c2.11 6.46 6.04 12.23 11.52 16.44 1.26.98 2.39 1.83 3.79 2.53l-.7.98c0 .14.14.14.14.14.28.42.28.98.14 1.41-.56 1.41-1.41 2.81-2.25 4.08v.14c-.14.28-.28.42-.56.7s-.56.84-.98 1.41c-.14.14-.14.28-.28.42 0 0 0 .14-.14.14-.7 1.41-.14 3.09 1.12 3.79.28.14.7.28.98.28 1.12 0 2.11-.7 2.67-1.69 0 0 0-.14.14-.14 0-.14.14-.28.28-.42.14-.56.42-.98.56-1.55l.28-.84c.42-1.55 1.12-2.95 1.83-4.36.28-.42.7-.7 1.12-.84.14 0 .14 0 .14-.14l.56-1.12C53.17 95.3 57.25 96 61.46 96c2.53 0 5.06-.28 7.59-.98 1.55-.28 3.09-.84 4.5-1.26l.56.98c.14 0 .14 0 .14.14.42.14.84.42 1.12.84.7 1.41 1.41 2.81 1.83 4.36v.14l.28.84c.14.56.28 1.12.56 1.55.14.14.14.28.28.42 0 0 0 .14.14.14.56.98 1.55 1.69 2.67 1.69.42 0 .7-.14 1.12-.28.56-.28 1.12-.84 1.26-1.55.14-.7.14-1.41-.14-2.11 0-.14-.14-.14-.14-.14 0-.14-.14-.28-.28-.42-.28-.56-.56-.98-.98-1.41-.14-.28-.28-.42-.56-.7v-.28c-.98-1.26-1.69-2.67-2.25-4.08-.14-.42-.14-.98.14-1.41 0-.14.14-.14.14-.14l-.42-1.12c7.17-4.36 12.65-11.1 15.18-19.11l1.12.14c.14 0 .14-.14.14-.14.28-.28.7-.42 1.12-.42h.14c1.55.28 3.09.7 4.5 1.26h.14c.28.14.56.28.84.28.56.28.98.56 1.55.7.14 0 .28.14.56.14.14 0 .14 0 .28.14.28.14.42.14.7.14 1.26 0 2.39-.84 2.81-1.97a3.28 3.28 0 0 0-2.51-2.93m-40.61-4.36-3.79 1.83-3.79-1.83-.98-4.08 2.67-3.37h4.22l2.67 3.37zm22.9-9.13c.7 2.95.84 5.9.56 8.85l-13.35-3.79c-1.26-.28-1.97-1.55-1.69-2.81.14-.42.28-.7.56-.98l10.54-9.56c1.55 2.53 2.68 5.34 3.38 8.29m-7.59-13.49-11.52 8.15c-.98.56-2.39.42-3.09-.56-.28-.28-.42-.56-.42-.98l-.84-14.19c6.18.7 11.66 3.37 15.87 7.58M54.86 35.3l2.81-.56-.7 14.05c0 1.26-1.12 2.25-2.39 2.25-.42 0-.7-.14-1.12-.28L41.8 42.47c3.64-3.51 8.14-6.04 13.06-7.17M37.72 47.67l10.4 9.27c.98.84 1.12 2.25.28 3.23-.28.42-.56.56-1.12.7L33.65 64.8c-.43-5.89.97-11.93 4.07-17.13m-2.39 23.75 13.91-2.39c1.12 0 2.25.7 2.39 1.83.14.42.14.98-.14 1.41L46.15 85.2c-4.92-3.24-8.86-8.16-10.82-13.78m31.9 17.42c-1.97.42-3.93.7-6.04.7-2.95 0-6.04-.56-8.85-1.41l6.89-12.51c.7-.84 1.83-1.12 2.81-.56.42.28.7.56 1.12.98l6.75 12.23c-.86.15-1.7.29-2.68.57m17.14-12.22a26.9 26.9 0 0 1-8.43 8.43l-5.48-13.21c-.28-1.12.28-2.25 1.26-2.67.42-.14.84-.28 1.26-.28l14.05 2.39c-.69 1.96-1.54 3.79-2.66 5.34" style="fill:#fff"/></svg>