<?xml version="1.0" encoding="UTF-8"?>
<svg version="1.1" xmlns="http://www.w3.org/2000/svg" width="512" height="512">
<path d="M0 0 C1.01790619 0.00215515 2.03581238 0.0043103 3.08456421 0.00653076 C17.69363523 0.05620146 32.02575853 0.30709809 46.375 3.3125 C47.34985352 3.51117676 48.32470703 3.70985352 49.32910156 3.91455078 C97.7109774 14.03517194 141.69928269 35.9516877 177.375 70.3125 C178.3640332 71.26068604 178.3640332 71.26068604 179.37304688 72.22802734 C188.86130305 81.37247479 197.6012044 90.66984009 205.375 101.3125 C206.23306152 102.46355017 207.09113451 103.61459177 207.94921875 104.765625 C213.98736829 112.95680614 219.34595521 121.47054105 224.375 130.3125 C224.73948242 130.94430176 225.10396484 131.57610352 225.47949219 132.22705078 C247.08534998 169.97532572 256.85198095 212.74189997 256.6875 255.9375 C256.68534485 256.95540619 256.6831897 257.97331238 256.68096924 259.02206421 C256.63129854 273.63113523 256.38040191 287.96325853 253.375 302.3125 C253.07698486 303.77478027 253.07698486 303.77478027 252.77294922 305.26660156 C242.65232806 353.6484774 220.7358123 397.63678269 186.375 433.3125 C185.74287598 433.97185547 185.11075195 434.63121094 184.45947266 435.31054688 C175.31502521 444.79880305 166.01765991 453.5387044 155.375 461.3125 C154.22394983 462.17056152 153.07290823 463.02863451 151.921875 463.88671875 C143.73224019 469.92427396 135.22961724 475.30707302 126.375 480.3125 C125.66778809 480.7146875 124.96057617 481.116875 124.23193359 481.53125 C101.09654164 494.5566741 75.92537591 503.30551461 49.9375 508.625 C49.21860596 508.77235596 48.49971191 508.91971191 47.7590332 509.0715332 C33.08339502 511.86090125 18.55831162 512.66142619 3.64770508 512.62817383 C0.70811513 512.6250221 -2.2304558 512.64854926 -5.16992188 512.67382812 C-18.54306192 512.71848737 -31.43916711 511.51301542 -44.625 509.3125 C-46.33055054 509.03031616 -46.33055054 509.03031616 -48.07055664 508.74243164 C-91.33802759 500.97044532 -132.38793216 480.98345309 -165.625 452.3125 C-166.37007813 451.67828125 -167.11515625 451.0440625 -167.8828125 450.390625 C-181.38779833 438.57948485 -194.05918743 425.82889772 -204.625 411.3125 C-205.48149066 410.16255169 -206.33826433 409.01281411 -207.1953125 407.86328125 C-213.23534209 399.67315742 -218.61867614 391.16870382 -223.625 382.3125 C-224.0271875 381.60528809 -224.429375 380.89807617 -224.84375 380.16943359 C-237.8691741 357.03404164 -246.61801461 331.86287591 -251.9375 305.875 C-252.08485596 305.15610596 -252.23221191 304.43721191 -252.3840332 303.6965332 C-255.35789088 288.05024391 -255.99800362 272.57681954 -255.9375 256.6875 C-255.93534485 255.66959381 -255.9331897 254.65168762 -255.93096924 253.60293579 C-255.88129854 238.99386477 -255.63040191 224.66174147 -252.625 210.3125 C-252.42632324 209.33764648 -252.22764648 208.36279297 -252.02294922 207.35839844 C-241.90232806 158.9765226 -219.9858123 114.98821731 -185.625 79.3125 C-184.99287598 78.65314453 -184.36075195 77.99378906 -183.70947266 77.31445312 C-174.56502521 67.82619695 -165.26765991 59.0862956 -154.625 51.3125 C-153.47394983 50.45443848 -152.32290823 49.59636549 -151.171875 48.73828125 C-142.98224019 42.70072604 -134.47961724 37.31792698 -125.625 32.3125 C-124.91778809 31.9103125 -124.21057617 31.508125 -123.48193359 31.09375 C-100.34654164 18.0683259 -75.17537591 9.31948539 -49.1875 4 C-48.46860596 3.85264404 -47.74971191 3.70528809 -47.0090332 3.5534668 C-31.36274391 0.57960912 -15.88931954 -0.06050362 0 0 Z " fill="#FAFAFA" transform="translate(255.625,-0.3125)"/>
<path d="M0 0 C1.01790619 0.00215515 2.03581238 0.0043103 3.08456421 0.00653076 C17.69363523 0.05620146 32.02575853 0.30709809 46.375 3.3125 C47.34985352 3.51117676 48.32470703 3.70985352 49.32910156 3.91455078 C97.7109774 14.03517194 141.69928269 35.9516877 177.375 70.3125 C178.3640332 71.26068604 178.3640332 71.26068604 179.37304688 72.22802734 C188.86130305 81.37247479 197.6012044 90.66984009 205.375 101.3125 C206.23306152 102.46355017 207.09113451 103.61459177 207.94921875 104.765625 C213.98736829 112.95680614 219.34595521 121.47054105 224.375 130.3125 C224.73948242 130.94430176 225.10396484 131.57610352 225.47949219 132.22705078 C247.08534998 169.97532572 256.85198095 212.74189997 256.6875 255.9375 C256.68534485 256.95540619 256.6831897 257.97331238 256.68096924 259.02206421 C256.63129854 273.63113523 256.38040191 287.96325853 253.375 302.3125 C253.07698486 303.77478027 253.07698486 303.77478027 252.77294922 305.26660156 C242.65232806 353.6484774 220.7358123 397.63678269 186.375 433.3125 C185.74287598 433.97185547 185.11075195 434.63121094 184.45947266 435.31054688 C175.31502521 444.79880305 166.01765991 453.5387044 155.375 461.3125 C154.22394983 462.17056152 153.07290823 463.02863451 151.921875 463.88671875 C143.73224019 469.92427396 135.22961724 475.30707302 126.375 480.3125 C125.66778809 480.7146875 124.96057617 481.116875 124.23193359 481.53125 C101.09654164 494.5566741 75.92537591 503.30551461 49.9375 508.625 C49.21860596 508.77235596 48.49971191 508.91971191 47.7590332 509.0715332 C33.08339502 511.86090125 18.55831162 512.66142619 3.64770508 512.62817383 C0.70811513 512.6250221 -2.2304558 512.64854926 -5.16992188 512.67382812 C-18.54306192 512.71848737 -31.43916711 511.51301542 -44.625 509.3125 C-46.33055054 509.03031616 -46.33055054 509.03031616 -48.07055664 508.74243164 C-91.33802759 500.97044532 -132.38793216 480.98345309 -165.625 452.3125 C-166.37007813 451.67828125 -167.11515625 451.0440625 -167.8828125 450.390625 C-181.38779833 438.57948485 -194.05918743 425.82889772 -204.625 411.3125 C-205.48149066 410.16255169 -206.33826433 409.01281411 -207.1953125 407.86328125 C-213.23534209 399.67315742 -218.61867614 391.16870382 -223.625 382.3125 C-224.0271875 381.60528809 -224.429375 380.89807617 -224.84375 380.16943359 C-237.8691741 357.03404164 -246.61801461 331.86287591 -251.9375 305.875 C-252.08485596 305.15610596 -252.23221191 304.43721191 -252.3840332 303.6965332 C-255.35789088 288.05024391 -255.99800362 272.57681954 -255.9375 256.6875 C-255.93534485 255.66959381 -255.9331897 254.65168762 -255.93096924 253.60293579 C-255.88129854 238.99386477 -255.63040191 224.66174147 -252.625 210.3125 C-252.42632324 209.33764648 -252.22764648 208.36279297 -252.02294922 207.35839844 C-241.90232806 158.9765226 -219.9858123 114.98821731 -185.625 79.3125 C-184.99287598 78.65314453 -184.36075195 77.99378906 -183.70947266 77.31445312 C-174.56502521 67.82619695 -165.26765991 59.0862956 -154.625 51.3125 C-153.47394983 50.45443848 -152.32290823 49.59636549 -151.171875 48.73828125 C-142.98224019 42.70072604 -134.47961724 37.31792698 -125.625 32.3125 C-124.91778809 31.9103125 -124.21057617 31.508125 -123.48193359 31.09375 C-100.34654164 18.0683259 -75.17537591 9.31948539 -49.1875 4 C-48.46860596 3.85264404 -47.74971191 3.70528809 -47.0090332 3.5534668 C-31.36274391 0.57960912 -15.88931954 -0.06050362 0 0 Z M-132.625 100.3125 C-133.86636719 101.38757813 -133.86636719 101.38757813 -135.1328125 102.484375 C-165.63578284 129.44938326 -187.86448496 164.37287727 -198.01196289 203.92382812 C-198.4561255 205.654488 -198.91264545 207.38199177 -199.37670898 209.10742188 C-206.39011482 235.81273152 -206.57174532 264.26106754 -201.625 291.3125 C-201.5022168 292.01439453 -201.37943359 292.71628906 -201.25292969 293.43945312 C-191.91867325 346.46214396 -160.92344717 393.42130233 -117.23217773 424.5078125 C-89.1520157 444.03658082 -57.46503366 455.81316968 -23.625 460.3125 C-22.6246875 460.4465625 -21.624375 460.580625 -20.59375 460.71875 C33.68154914 466.46554638 87.79464708 449.50556098 130.05859375 415.375 C172.73532881 380.04170204 197.99757236 331.33192114 204.83984375 276.59375 C205.14411827 273.15919925 205.29014212 269.75985138 205.375 266.3125 C205.40078125 265.47734863 205.4265625 264.64219727 205.453125 263.78173828 C207.08252124 205.19475973 185.21292028 153.59303729 145.375 111.3125 C144.28251953 110.13880859 144.28251953 110.13880859 143.16796875 108.94140625 C136.81651093 102.33070526 129.68927931 96.80369409 122.375 91.3125 C121.54226563 90.68472656 120.70953125 90.05695313 119.8515625 89.41015625 C44.39149597 34.6822923 -62.3071717 39.41419387 -132.625 100.3125 Z " fill="#000000" transform="translate(255.625,-0.3125)"/>
<path d="M0 0 C0.71623535 0.07524902 1.4324707 0.15049805 2.17041016 0.22802734 C11.41582457 1.31558193 17.53905875 5.69555803 24.37939453 11.60302734 C25.9717539 12.97565167 27.58779464 14.31330925 29.21484375 15.64453125 C39.45353655 24.07849539 49.89302189 32.86357336 58.390625 43.0859375 C59.52771819 44.43830561 60.70999313 45.7532854 61.921875 47.0390625 C78.86561041 65.03405157 92.54732646 86.67485183 103 109 C103.45761719 109.94875 103.91523438 110.8975 104.38671875 111.875 C105.65363083 114.56069375 106.84247298 117.26538924 108 120 C108.70576172 121.65902344 108.70576172 121.65902344 109.42578125 123.3515625 C115.29775985 137.75748334 119.44802749 153.51162791 121 169 C121.1393396 170.13598633 121.1393396 170.13598633 121.28149414 171.29492188 C123.04224228 187.01734848 123.04224228 187.01734848 118.6640625 192.58203125 C115.46027156 195.86702306 111.77976561 198.42626256 108 201 C106.70961638 201.94695663 105.4218661 202.89751165 104.13671875 203.8515625 C54.19558639 240.19218217 -10.15836211 250.82403206 -70.52783203 244.24707031 C-72.70701376 244.02928126 -74.87191381 243.88318722 -77.05859375 243.7734375 C-87.15317474 242.98567756 -93.49567628 238.26267641 -101 232 C-101.5775 231.5270752 -102.155 231.05415039 -102.75 230.56689453 C-113.80888326 221.47972622 -125.20747742 211.94987788 -134.3828125 200.92578125 C-136.24364652 198.70986054 -138.21467717 196.61674763 -140.1875 194.5 C-161.40351648 170.90663702 -177.09305866 142.66632254 -188 113 C-188.40734375 111.93007812 -188.8146875 110.86015625 -189.234375 109.7578125 C-194.48827127 95.16814672 -202.71297728 67.59681209 -195.89453125 52.5625 C-194.07223789 50.69071225 -192.19999029 49.41220499 -190 48 C-188.52096885 46.81314803 -187.04236305 45.62573122 -185.57055664 44.42993164 C-163.09739012 26.47222869 -136.79512656 14.12849151 -109 7 C-107.47898826 6.58659334 -105.95816766 6.17248301 -104.4375 5.7578125 C-70.37699256 -3.34276097 -34.91038892 -3.88896444 0 0 Z " fill="#010101" transform="translate(294,134)"/>
<path d="M0 0 C0.86409988 -0.0033284 1.72819977 -0.0066568 2.6184845 -0.01008606 C4.43616205 -0.0151155 6.2538487 -0.01749563 8.0715332 -0.01733398 C10.80761482 -0.01951182 13.54328676 -0.03768671 16.27929688 -0.05664062 C26.27760684 -0.08904371 35.78646484 0.35879187 45.64453125 2.16796875 C46.42820068 2.2980835 47.21187012 2.42819824 48.01928711 2.56225586 C67.48091134 5.91708002 86.4354731 13.58908312 103.64453125 23.16796875 C104.27649414 23.51827148 104.90845703 23.86857422 105.55957031 24.22949219 C119.56180482 32.08853758 131.62289424 41.70235966 143.20019531 52.78662109 C144.48254743 54.01304914 145.77750786 55.22626362 147.07421875 56.4375 C160.46125565 69.27666884 171.07943638 85.21359379 179.83203125 101.48046875 C180.23115723 102.21628174 180.6302832 102.95209473 181.04150391 103.71020508 C181.97584067 105.49613991 182.81943883 107.32900956 183.64453125 109.16796875 C183.31453125 109.82796875 182.98453125 110.48796875 182.64453125 111.16796875 C181.77828125 110.23984375 180.91203125 109.31171875 180.01953125 108.35546875 C151.77719444 80.22655498 111.24847041 62.18954649 72.55981445 54.76806641 C66.66500207 53.55440703 62.13035714 50.73600667 57.08203125 47.54296875 C55.29699984 46.44819083 53.51053116 45.35575303 51.72265625 44.265625 C50.85318359 43.73340332 49.98371094 43.20118164 49.08789062 42.65283203 C16.63913044 22.93327173 -19.64835388 13.71677996 -57.35546875 13.16796875 C-51.06422023 6.87672023 -37.42242063 5.35193024 -28.98046875 3.41796875 C-28.06620117 3.20744873 -27.15193359 2.99692871 -26.20996094 2.7800293 C-17.46378901 0.84110933 -8.95226967 0.0123532 0 0 Z " fill="#030303" transform="translate(244.35546875,67.83203125)"/>
<path d="M0 0 C1.3921875 1.2065625 1.3921875 1.2065625 2.8125 2.4375 C17.70081221 15.15211863 32.63519217 25.94043322 50 35 C50.65210449 35.34772461 51.30420898 35.69544922 51.97607422 36.05371094 C68.61826436 44.84435504 87.93410811 51.6622374 106.5 54.8125 C117.0495917 56.69262525 125.60341083 62.82215102 134.53027344 68.45361328 C166.82331519 88.67347552 203.35131846 97.02260308 241 98 C234.72437292 104.27562708 221.11199545 105.81088155 212.6875 107.75 C211.78161133 107.96052002 210.87572266 108.17104004 209.94238281 108.38793945 C198.42674064 110.9501174 187.15547289 111.18641307 175.40698242 111.18530273 C172.83560399 111.18748043 170.2646618 111.20566475 167.69335938 111.22460938 C157.60706378 111.25933256 147.96699734 110.68684053 138 109 C137.17717529 108.86456787 136.35435059 108.72913574 135.5065918 108.58959961 C99.40933725 102.18890888 66.71597085 83.54843429 40.46044922 58.39746094 C39.17158965 57.16418909 37.86994193 55.94431172 36.56640625 54.7265625 C21.17388217 39.96510447 9.14707063 21.15582183 0 2 C0 1.34 0 0.68 0 0 Z " fill="#030303" transform="translate(84,333)"/>
<path d="M0 0 C2.99943905 1.34572887 5.08076179 2.83537101 7.39160156 5.16455078 C8.0319635 5.80506378 8.67232544 6.44557678 9.33209229 7.10549927 C10.01140808 7.79513763 10.69072388 8.484776 11.390625 9.1953125 C12.09523865 9.90275604 12.79985229 10.61019958 13.52581787 11.33908081 C15.7719539 13.59639862 18.01103009 15.86057633 20.25 18.125 C21.77297717 19.65800953 23.29640939 21.19056715 24.8203125 22.72265625 C28.55216815 26.47654573 32.27825351 30.23608914 36 34 C40.8277897 29.9845347 45.3437641 25.77173317 49.73828125 21.2890625 C50.98229394 20.03242542 52.22643824 18.77591862 53.47070312 17.51953125 C55.40594863 15.55930686 57.33953935 13.59749882 59.27075195 11.63330078 C61.15145313 9.72257458 63.03818159 7.81797036 64.92578125 5.9140625 C65.50596512 5.32041901 66.08614899 4.72677551 66.68391418 4.11514282 C68.08510986 2.70514466 69.53810801 1.34696546 71 0 C73 0 73 0 74.62109375 1.609375 C75.22050781 2.31578125 75.81992187 3.0221875 76.4375 3.75 C77.03433594 4.44609375 77.63117188 5.1421875 78.24609375 5.859375 C79.88667532 7.86168836 81.44684965 9.92913287 83 12 C74.42 20.58 65.84 29.16 57 38 C86.7 38.495 86.7 38.495 117 39 C117 44.28 117 49.56 117 55 C97.53 55.33 78.06 55.66 58 56 C66.25 64.25 74.5 72.5 83 81 C81.16614077 84.66771845 79.74937171 86.46834996 76.875 89.25 C76.15054688 89.95640625 75.42609375 90.6628125 74.6796875 91.390625 C74.12539063 91.92171875 73.57109375 92.4528125 73 93 C70.00056095 91.65427113 67.91923821 90.16462899 65.60839844 87.83544922 C64.64785553 86.87467972 64.64785553 86.87467972 63.66790771 85.89450073 C62.98859192 85.20486237 62.30927612 84.515224 61.609375 83.8046875 C60.90476135 83.09724396 60.20014771 82.38980042 59.47418213 81.66091919 C57.2280461 79.40360138 54.98896991 77.13942367 52.75 74.875 C51.22702283 73.34199047 49.70359061 71.80943285 48.1796875 70.27734375 C44.44783185 66.52345427 40.72174649 62.76391086 37 59 C32.16701194 63.02748053 27.61889996 67.24379413 23.19140625 71.7109375 C22.57982162 72.32393707 21.968237 72.93693665 21.33811951 73.56851196 C19.41052441 75.50164564 17.48646072 77.43824987 15.5625 79.375 C14.24567596 80.69684699 12.92862074 82.01846372 11.61132812 83.33984375 C8.40487627 86.55724299 5.20158371 89.77775681 2 93 C-1.41059403 91.39464713 -3.61792484 89.59481099 -6.25 86.875 C-6.95640625 86.15054688 -7.6628125 85.42609375 -8.390625 84.6796875 C-8.92171875 84.12539063 -9.4528125 83.57109375 -10 83 C-8.41570736 79.09154201 -5.73402218 76.47642804 -2.7734375 73.578125 C-1.84450684 72.65418945 -0.91557617 71.73025391 0.04150391 70.77832031 C1.22405762 69.61397461 2.40661133 68.44962891 3.625 67.25 C7.37875 63.5375 11.1325 59.825 15 56 C-14.205 55.505 -14.205 55.505 -44 55 C-44 49.72 -44 44.44 -44 39 C-24.2 38.67 -4.4 38.34 16 38 C7.42 29.42 -1.16 20.84 -10 12 C-8.02 9.69 -6.04 7.38 -4 5 C-2.65807132 3.34024611 -1.32090525 1.67653359 0 0 Z " fill="#FBFBFB" transform="translate(220,210)"/>
<path d="M0 0 C0.66 0 1.32 0 2 0 C2.10320557 0.85489014 2.10320557 0.85489014 2.20849609 1.72705078 C7.84197412 45.87779718 28.1939551 86.6195367 56 121 C56.42941895 121.53383301 56.85883789 122.06766602 57.30126953 122.61767578 C66.40690991 133.83981661 76.68709229 143.89775823 87 154 C85 155 85 155 83.08325195 154.41430664 C82.30941162 154.08293701 81.53557129 153.75156738 80.73828125 153.41015625 C79.44216919 152.85835693 79.44216919 152.85835693 78.11987305 152.29541016 C77.19343994 151.8885498 76.26700684 151.48168945 75.3125 151.0625 C74.36221924 150.64790527 73.41193848 150.23331055 72.43286133 149.80615234 C39.14146569 135.09423719 7.08477782 112.00144189 -6.8203125 77.16015625 C-7.20960937 76.11730469 -7.59890625 75.07445312 -8 74 C-8.32742187 73.13246094 -8.65484375 72.26492188 -8.9921875 71.37109375 C-16.36268399 50.62841076 -12.86150198 26.97666813 -3.75 7.5625 C-2.52169606 5.02980009 -1.26750366 2.51347207 0 0 Z " fill="#040404" transform="translate(80,210)"/>
<path d="M0 0 C1.35764345 4.07293036 -0.06910614 6.67744348 -1.5625 10.5 C-1.97749756 11.57531982 -1.97749756 11.57531982 -2.40087891 12.67236328 C-6.47155806 22.9772079 -11.68698526 31.65423127 -19 40 C-19.59296875 40.68835938 -20.1859375 41.37671875 -20.796875 42.0859375 C-35.31857853 57.78675371 -58.56153437 66.83592642 -79.57324219 68.23852539 C-83.59327999 68.37727956 -87.60297433 68.43877365 -91.625 68.4375 C-92.70432297 68.43910126 -92.70432297 68.43910126 -93.80545044 68.44073486 C-120.19044633 68.3846361 -144.22754501 60.94698881 -168 50 C-168 49.67 -168 49.34 -168 49 C-167.23671387 48.98018066 -166.47342773 48.96036133 -165.68701172 48.93994141 C-135.41473945 48.1185831 -105.01412697 46.60137763 -75.89160156 37.58056641 C-74.17234947 37.05289714 -72.4420738 36.56148633 -70.7109375 36.07421875 C-45.39043035 28.79857935 -20.43492118 16.73681044 0 0 Z " fill="#040404" transform="translate(411,347)"/>
<path d="M0 0 C36.3336157 11.02984762 71.78280942 35.12814008 90.01855469 69.06640625 C96.50040978 81.83662823 99.34867561 93.65420512 99.25 107.9375 C99.26160156 109.61102539 99.26160156 109.61102539 99.2734375 111.31835938 C99.25018103 121.24305766 97.70881388 129.9522873 94.125 139.1875 C93.88136719 139.84685547 93.63773437 140.50621094 93.38671875 141.18554688 C91.65503117 145.7390777 89.50393006 149.82136348 87 154 C86.34 153.67 85.68 153.34 85 153 C84.50097656 151.18432617 84.50097656 151.18432617 84.140625 148.79296875 C83.99786133 147.90649658 83.85509766 147.02002441 83.70800781 146.10668945 C83.55686523 145.14335693 83.40572266 144.18002441 83.25 143.1875 C79.16249798 119.24447032 70.31517306 97.3963538 59 76 C58.48832275 75.02450195 58.48832275 75.02450195 57.96630859 74.02929688 C47.301887 53.8627614 33.39273041 35.47640491 17.7265625 18.9375 C15.86858655 16.97059803 14.11773128 14.95405655 12.41015625 12.85546875 C10.3273051 10.38777963 8.28787438 8.36653406 5.8125 6.3125 C3.31942756 4.23891203 1.82972289 2.74458434 0 0 Z " fill="#040404" transform="translate(345,147)"/>
<path d="M0 0 C1.26231445 0.00491455 2.52462891 0.0098291 3.82519531 0.01489258 C24.5153613 0.27226578 42.86797287 5.22314233 62.125 12.4375 C63.02718262 12.77418701 63.92936523 13.11087402 64.85888672 13.45776367 C66.12949951 13.94660034 66.12949951 13.94660034 67.42578125 14.4453125 C68.55173706 14.87674561 68.55173706 14.87674561 69.70043945 15.31689453 C71.99402845 16.3980708 73.83827422 17.73010316 75.8125 19.3125 C74.90935059 19.3218457 74.00620117 19.33119141 73.07568359 19.34082031 C46.66373358 19.68118909 20.60587941 21.22322233 -5.11425781 27.79150391 C-7.27539495 28.33458759 -9.44421442 28.83079049 -11.6171875 29.32421875 C-39.00925704 35.7635841 -65.52353508 48.25154961 -88.08203125 65.01171875 C-91.1875 67.3125 -91.1875 67.3125 -93.1875 68.3125 C-92.18113049 53.55241391 -82.67422534 39.13895373 -73.1875 28.3125 C-72.59453125 27.62414062 -72.0015625 26.93578125 -71.390625 26.2265625 C-53.12979089 6.48301109 -25.93856094 -0.12102791 0 0 Z " fill="#030303" transform="translate(193.1875,96.6875)"/>
<path d="M0 0 C0.99 0.33 1.98 0.66 3 1 C2.34 1.66 1.68 2.32 1 3 C0.67 2.01 0.34 1.02 0 0 Z M-9 10 C-9 13 -9 13 -9 13 Z " fill="#E8E8E8" transform="translate(220,210)"/>
</svg>
