<svg xmlns="http://www.w3.org/2000/svg" viewBox="0 0 48 48"><path fill="#fff" d="M44.559 19.646a11.957 11.957 0 0 0-1.028-9.822 12.094 12.094 0 0 0-13.026-5.802A11.962 11.962 0 0 0 21.485 0 12.097 12.097 0 0 0 9.95 8.373a11.964 11.964 0 0 0-7.997 5.8A12.097 12.097 0 0 0 3.44 28.356a11.957 11.957 0 0 0 1.028 9.822 12.094 12.094 0 0 0 13.026 5.802 11.953 11.953 0 0 0 9.02 4.02 12.096 12.096 0 0 0 11.54-8.379 11.964 11.964 0 0 0 7.997-5.8 12.099 12.099 0 0 0-1.491-14.177zM26.517 44.863a8.966 8.966 0 0 1-5.759-2.082 6.85 6.85 0 0 0 .284-.16L30.6 37.1c.49-.278.79-.799.786-1.361V22.265l4.04 2.332a.141.141 0 0 1 .078.111v11.16a9.006 9.006 0 0 1-8.987 8.995zM7.191 36.608a8.957 8.957 0 0 1-1.073-6.027c.071.042.195.119.284.17l9.558 5.52a1.556 1.556 0 0 0 1.57 0l11.67-6.738v4.665a.15.15 0 0 1-.057.124l-9.662 5.579a9.006 9.006 0 0 1-12.288-3.293zM4.675 15.744a8.966 8.966 0 0 1 4.682-3.943c0 .082-.005.228-.005.33v11.042a1.555 1.555 0 0 0 .785 1.359l11.669 6.736-4.04 2.333a.143.143 0 0 1-.136.012L7.967 28.03a9.006 9.006 0 0 1-3.293-12.284zm33.19 7.724L26.196 16.73l4.04-2.331a.143.143 0 0 1 .136-.012l9.664 5.579c4.302 2.485 5.776 7.989 3.29 12.29a8.991 8.991 0 0 1-4.68 3.943V24.827a1.553 1.553 0 0 0-.78-1.36zm4.02-6.051c-.07-.044-.195-.119-.283-.17l-9.558-5.52a1.556 1.556 0 0 0-1.57 0l-11.67 6.738V13.8a.15.15 0 0 1 .057-.124l9.662-5.574a8.995 8.995 0 0 1 13.36 9.315zm-25.277 8.315-4.04-2.333a.141.141 0 0 1-.079-.11v-11.16a8.997 8.997 0 0 1 14.753-6.91c-.073.04-.2.11-.283.161L17.4 10.9a1.552 1.552 0 0 0-.786 1.36l-.006 13.469zM18.803 21l5.198-3.002 5.197 3V27l-5.197 3-5.198-3z"/></svg>