<?xml version="1.0" encoding="UTF-8"?>
<svg version="1.1" xmlns="http://www.w3.org/2000/svg" width="280" height="280">
<path d="M0 0 C92.4 0 184.8 0 280 0 C280 92.4 280 184.8 280 280 C187.6 280 95.2 280 0 280 C0 187.6 0 95.2 0 0 Z " fill="#FEFEFE" transform="translate(0,0)"/>
<path d="M0 0 C4.32048747 1.62223107 6.55486576 4.28030505 9.52734375 7.72265625 C10.09864014 8.36162842 10.66993652 9.00060059 11.25854492 9.65893555 C12.88271439 11.48112369 14.48833898 13.3180548 16.08984375 15.16015625 C16.78851563 15.9490625 17.4871875 16.73796875 18.20703125 17.55078125 C18.76648438 18.185 19.3259375 18.81921875 19.90234375 19.47265625 C20.40076782 20.02429947 20.89919189 20.57594269 21.41271973 21.14430237 C23.08984375 23.16015625 23.08984375 23.16015625 24.49304199 25.45811462 C27.47252811 29.81453108 29.71272364 31.88015293 34.97558594 32.95022583 C39.9205962 33.32069047 44.85650654 33.17298906 49.80859375 33.0390625 C51.63558812 33.02225785 53.46262328 33.00945545 55.28967285 33.00047302 C60.07802047 32.96625339 64.86387621 32.87797816 69.65124512 32.77813721 C74.54449761 32.68575224 79.43815637 32.64489784 84.33203125 32.59960938 C93.91905835 32.50334235 103.50424315 32.34991947 113.08984375 32.16015625 C113.38173584 31.5460791 113.67362793 30.93200195 113.97436523 30.29931641 C115.36028726 27.64152503 117.11916807 25.73686678 119.15234375 23.53515625 C119.95414063 22.65988281 120.7559375 21.78460938 121.58203125 20.8828125 C122.82339844 19.53509766 122.82339844 19.53509766 124.08984375 18.16015625 C125.6549797 16.43337512 127.21756353 14.70427667 128.77734375 12.97265625 C129.51984375 12.15539062 130.26234375 11.338125 131.02734375 10.49609375 C132.86324628 8.41679505 134.56732791 6.27970771 136.27734375 4.09765625 C138.30731891 1.73122112 139.11199786 1.15156588 142.15234375 -0.02734375 C146.07530165 0.22305782 147.37097322 1.35790253 150.08984375 4.16015625 C150.69111633 7.33660889 150.69111633 7.33660889 150.6574707 11.13183594 C150.6585659 12.17146736 150.6585659 12.17146736 150.65968323 13.23210144 C150.65620792 15.51621591 150.61735535 17.79827448 150.578125 20.08203125 C150.56879653 21.66814052 150.56168057 23.25426423 150.5566864 24.84039307 C150.53761889 29.00990759 150.48852138 33.17854766 150.4331665 37.34771729 C150.381968 41.60408702 150.35917115 45.86059842 150.33398438 50.1171875 C150.28040107 58.46528927 150.19246835 66.81251315 150.08984375 75.16015625 C158.00984375 75.16015625 165.92984375 75.16015625 174.08984375 75.16015625 C174.08984375 80.11015625 174.08984375 85.06015625 174.08984375 90.16015625 C161.54984375 90.16015625 149.00984375 90.16015625 136.08984375 90.16015625 C135.75984375 70.03015625 135.42984375 49.90015625 135.08984375 29.16015625 C126.87476058 37.9752561 126.87476058 37.9752561 119.08984375 47.16015625 C115.79274781 48.80870422 112.12209411 48.32562514 108.49682617 48.3371582 C107.60723709 48.3437294 106.71764801 48.3503006 105.80110168 48.35707092 C102.84917116 48.37682562 99.89729154 48.38847111 96.9453125 48.3984375 C95.43493125 48.40455079 95.43493125 48.40455079 93.89403725 48.41078758 C88.56502105 48.4316572 83.23603067 48.44595528 77.90698242 48.45532227 C72.39874211 48.46639094 66.89090531 48.50079372 61.38280773 48.54049397 C57.15089662 48.56662113 52.91908223 48.57501062 48.68709755 48.57860374 C46.6565001 48.58347949 44.62590725 48.59512145 42.59538841 48.61364174 C39.75361399 48.63795098 36.91289116 48.63708321 34.07104492 48.63012695 C33.23189545 48.64293701 32.39274597 48.65574707 31.52816772 48.66894531 C27.52364757 48.63320802 25.5843855 48.48069887 22.14155579 46.24919128 C20.24828704 44.32148181 18.40141019 42.40710858 16.65234375 40.34765625 C16.11738281 39.72246094 15.58242187 39.09726563 15.03125 38.453125 C14.39058594 37.69644531 13.74992187 36.93976563 13.08984375 36.16015625 C11.10984375 33.85015625 9.12984375 31.54015625 7.08984375 29.16015625 C6.75984375 49.29015625 6.42984375 69.42015625 6.08984375 90.16015625 C-6.45015625 90.16015625 -18.99015625 90.16015625 -31.91015625 90.16015625 C-31.91015625 85.21015625 -31.91015625 80.26015625 -31.91015625 75.16015625 C-23.99015625 75.16015625 -16.07015625 75.16015625 -7.91015625 75.16015625 C-7.93634033 73.03030273 -7.96252441 70.90044922 -7.98950195 68.70605469 C-8.07234699 61.66938098 -8.1275781 54.63268573 -8.16921711 47.59565353 C-8.19531224 43.32896888 -8.23070773 39.06278382 -8.28735352 34.79638672 C-8.34167786 30.67907045 -8.37157742 26.5622347 -8.38454247 22.44458771 C-8.39378174 20.87364384 -8.41182439 19.30272631 -8.43880653 17.731987 C-8.47510571 15.53135855 -8.48010172 13.33271556 -8.4777832 11.13183594 C-8.48888626 9.87941101 -8.49998932 8.62698608 -8.51142883 7.33660889 C-7.91015625 4.16015625 -7.91015625 4.16015625 -5.55656433 1.73443604 C-2.91015625 0.16015625 -2.91015625 0.16015625 0 0 Z " fill="#000000" transform="translate(68.91015625,79.83984375)"/>
<path d="M0 0 C12.54 0 25.08 0 38 0 C38 4.95 38 9.9 38 15 C25.46 15 12.92 15 0 15 C0 10.05 0 5.1 0 0 Z " fill="#000000" transform="translate(205,185)"/>
<path d="M0 0 C12.54 0 25.08 0 38 0 C38 4.95 38 9.9 38 15 C25.46 15 12.92 15 0 15 C0 10.05 0 5.1 0 0 Z " fill="#000000" transform="translate(37,185)"/>
<path d="M0 0 C3.5386994 1.65139305 4.81070153 2.71605229 7 6 C7.34061873 9.0169088 7.57212107 11.09407815 7 14 C4.05423033 17.64345196 1.88105815 19.79099354 -2.8125 20.3125 C-6.7307645 19.92835642 -8.21293267 18.70743683 -11 16 C-12.74330022 12.51339956 -12.5706106 8.80407065 -12 5 C-8.64770496 0.02234979 -5.86333845 -0.83761978 0 0 Z " fill="#050505" transform="translate(109,150)"/>
<path d="M0 0 C3.09459236 2.57882697 4.55423234 4.12558351 5.4765625 8.00390625 C5.75079474 11.80707441 5.1142302 13.83730851 2.9375 16.9375 C-0.57823396 19.40599406 -2.71383323 20 -7 20 C-10.57387602 18.41161066 -11.81089572 17.28365642 -14 14 C-14.67226891 7.05322129 -14.67226891 7.05322129 -12.125 3.0625 C-8.53966618 -0.41738282 -4.85970455 -0.95707375 0 0 Z " fill="#040404" transform="translate(178,150)"/>
</svg>
