<svg xmlns="http://www.w3.org/2000/svg" viewBox="0 0 590 270">
<path d="M30.36,109.14v.48h0A3.73,3.73,0,0,1,30.36,109.14Z" fill="currentColor" fill-rule="evenodd"/>
<path d="M138.66,28.78C107.2,37.87,57.29,43,30.4,43h0V94.35a.8.8,0,0,0,.19.48c18.35,0,75-6,109.18-15.4a129,129,0,0,0,17.49-5.81c4.18-1.88,6.88-3.86,6.88-5.92V15.91C164.1,20.79,151.39,25.11,138.66,28.78Z" fill="#de3423" fill-rule="evenodd"/>
<path d="M138.66,95.37c-18.83,5.43-44.24,9.47-67.39,11.83-15.54,1.59-30.06,2.42-40.87,2.42h0v51.31a.8.8,0,0,0,.19.48c18.35,0,75-6,109.18-15.39a130.38,130.38,0,0,0,17.49-5.81c4.18-1.89,6.88-3.86,6.88-5.92V82.5C164.1,87.37,151.39,91.69,138.66,95.37Z" fill="#de3423" fill-rule="evenodd"/>
<path d="M138.66,162c-18.83,5.43-44.24,9.46-67.39,11.83-15.56,1.59-30.1,2.42-40.91,2.42V228c18.16,0,75.1-5.95,109.37-15.39,12.63-3.48,24.37-7.44,24.37-11.74V149.08C164.1,154,151.39,158.28,138.66,162Z" fill="#de3423" fill-rule="evenodd"/>
<path d="M30.55,94.83C32.4,97.38,48,102.19,71.27,107.2c23.27,4.46,47.47,22.07,66.29,16.64,12.73-3.68,26.54-36.47,26.54-41.34V82c0-3.4-2.55-6.13-6.88-8.4-17.75-9.07-21.11-12.41-27.69-10.6C95.37,72.43,35.06,67.61,30.55,94.83Z" fill="currentColor" fill-rule="evenodd"/>
<path d="M30.55,161.41C32.4,164,48,168.77,71.27,173.79c26,4.74,48.61,20.19,67.44,14.75,12.73-3.68,25.39-34.58,25.39-39.46v-.48c0-3.39-2.55-6.13-6.88-8.39-13.54-7.2-31.43-15.13-38-13.32C85,136.3,39.26,138.37,30.55,161.41Z" fill="currentColor" fill-rule="evenodd"/>
<path d="M200.7,142.39c6,11.79,15.6,17.6,29.05,17.6,14.44,0,19.59-7.64,19.59-15.11,0-5.15-1.83-8.63-6.64-11.79-4.82-3.32-8.3-4.81-16.93-8-10.63-4-16.77-7-23.41-12.29-6.64-5.48-9.79-13-9.79-22.74a28.28,28.28,0,0,1,10.29-22.58c7-5.81,15.44-8.63,25.56-8.63,15.77,0,27.72,6.31,35.69,18.76L249.34,87.78c-4.48-6.81-11.29-10.3-20.59-10.3-9.13,0-15.77,5.15-15.77,12.29,0,4.81,2,7.14,4.82,10,1.82,1.33,6.47,3.32,8.63,4.48l6,2.32,6.8,2.66c11,4.48,18.76,9.3,23.57,14.44s7.31,12.12,7.31,20.75c0,20.42-14.11,34.2-40.51,34.2-21.41,0-37.18-10-44.48-26.4Z" fill="currentColor"/>
<path d="M354.25,104.71,342,117.49a28.14,28.14,0,0,0-21.24-9.13,25,25,0,0,0-18.43,7.47,27.76,27.76,0,0,0,0,37.52,25,25,0,0,0,18.43,7.47A28.14,28.14,0,0,0,342,151.69l12.29,12.78c-9,9.63-20.09,14.44-33.53,14.44-12.79,0-23.58-4.15-32.37-12.62s-13.12-19.09-13.12-31.7,4.32-23.08,13.12-31.54,19.58-12.78,32.37-12.78C334.16,90.27,345.28,95.08,354.25,104.71Z" fill="currentColor"/>
<path d="M393.88,125.62C408,124.3,413,122.47,413,116c0-5.15-4.64-9.13-13.94-9.13q-13.44,0-22.41,10.95l-12.28-10.46c8.13-11.45,19.58-17.09,34.36-17.09,20.75,0,33.7,10,33.7,27.05v37c0,5.81,2.15,6.48,7,6.48h.5v15.43c-2,1.17-5.15,1.83-9.3,1.83-4.48,0-8-1.33-10.62-4a14.06,14.06,0,0,1-3-5.48c-5.81,6.8-15.27,10.29-28.39,10.29-18.42,0-30.87-10.13-30.87-25.4C357.7,136.41,369.15,127.78,393.88,125.62ZM391.56,162c13.28,0,21.41-6,21.41-16.6v-9.3a9.75,9.75,0,0,1-4.14,2.49c-3.82,1.33-6.31,1.66-14.28,2.49-11.62,1.33-17.43,5-17.43,10.79C377.12,158.33,382.43,162,391.56,162Z" fill="currentColor"/>
<path d="M444.84,60.88h19.92V149.2c0,8.13,2.66,11.62,10,11.62a21.15,21.15,0,0,0,6-.67v17.76a35.56,35.56,0,0,1-9.47,1c-17.59,0-26.39-9-26.39-27.06Z" fill="currentColor"/>
<path d="M521.71,125.62c14.11-1.32,19.09-3.15,19.09-9.62,0-5.15-4.64-9.13-13.94-9.13q-13.44,0-22.41,10.95l-12.28-10.46c8.13-11.45,19.58-17.09,34.36-17.09,20.75,0,33.7,10,33.7,27.05v37c0,5.81,2.15,6.48,7,6.48h.5v15.43c-2,1.17-5.15,1.83-9.3,1.83-4.48,0-8-1.33-10.62-4a13.94,13.94,0,0,1-3-5.48c-5.81,6.8-15.27,10.29-28.39,10.29-18.42,0-30.87-10.13-30.87-25.4C485.53,136.41,497,127.78,521.71,125.62ZM519.39,162c13.28,0,21.41-6,21.41-16.6v-9.3a9.73,9.73,0,0,1-4.15,2.49c-3.81,1.33-6.3,1.66-14.27,2.49-11.62,1.33-17.43,5-17.43,10.79C505,158.33,510.26,162,519.39,162Z" fill="currentColor"/>
</svg>
