<svg xmlns="http://www.w3.org/2000/svg" xml:space="preserve" viewBox="0 0 122.88 103.53"><path d="M5.47 0H117.4c3.01 0 5.47 2.46 5.47 5.47v92.58c0 3.01-2.46 5.47-5.47 5.47H5.47c-3.01 0-5.47-2.46-5.47-5.47V5.47C0 2.46 2.46 0 5.47 0m26.37 38.55 17.79 18.42 2.14 2.13-2.12 2.16-17.97 19.05-5.07-5 15.85-16.15L26.81 43.6zM94.1 79.41H54.69v-6.84H94.1zM38.19 9.83c3.19 0 5.78 2.59 5.78 5.78s-2.59 5.78-5.78 5.78-5.78-2.59-5.78-5.78S35 9.83 38.19 9.83m-19.24 0c3.19 0 5.78 2.59 5.78 5.78s-2.59 5.78-5.78 5.78-5.78-2.59-5.78-5.78 2.58-5.78 5.78-5.78M7.49 5.41H115.4c1.15 0 2.09.94 2.09 2.09v18.32H5.4V7.5c0-1.15.94-2.09 2.09-2.09" style="fill-rule:evenodd;clip-rule:evenodd;fill:#1668dc"/></svg>