<svg xmlns="http://www.w3.org/2000/svg" viewBox="0 0 18 18"><defs><radialGradient id="a" cx="-105.006" cy="-10.409" r="5.954" gradientTransform="matrix(1.036 0 0 1.027 117.739 19.644)" gradientUnits="userSpaceOnUse"><stop offset=".183" stop-color="#5ea0ef"/><stop offset="1" stop-color="#0078d4"/></radialGradient><clipPath id="b"><path d="M14.969 7.53a6.137 6.137 0 11-7.395-4.543 6.137 6.137 0 017.395 4.543z" fill="none"/></clipPath></defs><path d="M2.954 5.266a.175.175 0 01-.176-.176A2.012 2.012 0 00.769 3.081a.176.176 0 01-.176-.175.176.176 0 01.176-.176A2.012 2.012 0 002.778.72a.175.175 0 01.176-.176.175.175 0 01.176.176 2.012 2.012 0 002.009 2.009.175.175 0 01.176.176.175.175 0 01-.176.176A2.011 2.011 0 003.13 5.09a.177.177 0 01-.176.176zM15.611 17.456a.141.141 0 01-.141-.141 1.609 1.609 0 00-1.607-1.607.141.141 0 01-.141-.14.141.141 0 01.141-.141 1.608 1.608 0 001.607-1.607.141.141 0 01.141-.141.141.141 0 01.141.141 1.608 1.608 0 001.607 1.607.141.141 0 110 .282 1.609 1.609 0 00-1.607 1.607.141.141 0 01-.141.14z" fill="#50e6ff"/><path d="M14.969 7.53a6.137 6.137 0 11-7.395-4.543 6.137 6.137 0 017.395 4.543z" fill="url(#a)"/><g clip-path="url(#b)" fill="#f2f2f2"><path d="M5.709 13.115a1.638 1.638 0 10.005-3.275 1.307 1.307 0 00.007-.14A1.651 1.651 0 004.06 8.064H2.832a6.251 6.251 0 001.595 5.051zM15.045 7.815c0-.015 0-.03-.007-.044a5.978 5.978 0 00-1.406-2.88 1.825 1.825 0 00-.289-.09 1.806 1.806 0 00-2.3 1.663 2 2 0 00-.2-.013 1.737 1.737 0 00-.581 3.374 1.451 1.451 0 00.541.1h2.03a13.453 13.453 0 002.212-2.11z"/></g><path d="M17.191 3.832c-.629-1.047-2.1-1.455-4.155-1.149a14.606 14.606 0 00-2.082.452 6.456 6.456 0 011.528.767c.241-.053.483-.116.715-.151a7.49 7.49 0 011.103-.089 2.188 2.188 0 011.959.725c.383.638.06 1.729-.886 3a16.723 16.723 0 01-4.749 4.051A16.758 16.758 0 014.8 13.7c-1.564.234-2.682 0-3.065-.636s-.06-1.73.886-2.995c.117-.157.146-.234.279-.392a6.252 6.252 0 01.026-1.63 11.552 11.552 0 00-1.17 1.372C.517 11.076.181 12.566.809 13.613a3.165 3.165 0 002.9 1.249 8.434 8.434 0 001.251-.1 17.855 17.855 0 006.219-2.4A17.808 17.808 0 0016.24 8.03c1.243-1.661 1.579-3.15.951-4.198z" fill="#50e6ff"/></svg>