<svg width="24px" height="24px" viewBox="0 0 24 24" version="1.1" xmlns="http://www.w3.org/2000/svg" xmlns:xlink="http://www.w3.org/1999/xlink">
    <defs>
        <linearGradient x1="0%" y1="100%" x2="100%" y2="0%" id="linearGradient-1">
            <stop stop-color="#4D27A8" offset="0%"></stop>
            <stop stop-color="#A166FF" offset="100%"></stop>
        </linearGradient>
    </defs>
    <g stroke="none" stroke-width="1" fill="none" fill-rule="evenodd">
        <g fill="url(#linearGradient-1)">
            <rect id="Rectangle" x="0" y="0" width="24" height="24"></rect>
        </g>
        <path d="M6,6.76751613 L8,5.43446738 L8,18.5659476 L6,17.2328988 L6,6.76751613 Z M5,6.49950633 L5,17.4999086 C5,17.6669147 5.084,17.8239204 5.223,17.9159238 L8.223,19.9159969 C8.307,19.971999 8.403,20 8.5,20 C8.581,20 8.662,19.9809993 8.736,19.9409978 C8.898,19.8539947 9,19.6849885 9,19.4999817 L9,16.9998903 L10,16.9998903 L10,15.9998537 L9,15.9998537 L9,7.99956118 L10,7.99956118 L10,6.99952461 L9,6.99952461 L9,4.49943319 C9,4.31542646 8.898,4.14542025 8.736,4.0594171 C8.574,3.97241392 8.377,3.98141425 8.223,4.08341798 L5.223,6.08349112 C5.084,6.17649452 5,6.33250022 5,6.49950633 L5,6.49950633 Z M19,17.2328988 L17,18.5659476 L17,5.43446738 L19,6.76751613 L19,17.2328988 Z M19.777,6.08349112 L16.777,4.08341798 C16.623,3.98141425 16.426,3.97241392 16.264,4.0594171 C16.102,4.14542025 16,4.31542646 16,4.49943319 L16,6.99952461 L15,6.99952461 L15,7.99956118 L16,7.99956118 L16,15.9998537 L15,15.9998537 L15,16.9998903 L16,16.9998903 L16,19.4999817 C16,19.6849885 16.102,19.8539947 16.264,19.9409978 C16.338,19.9809993 16.419,20 16.5,20 C16.597,20 16.693,19.971999 16.777,19.9159969 L19.777,17.9159238 C19.916,17.8239204 20,17.6669147 20,17.4999086 L20,6.49950633 C20,6.33250022 19.916,6.17649452 19.777,6.08349112 L19.777,6.08349112 Z M13,7.99956118 L14,7.99956118 L14,6.99952461 L13,6.99952461 L13,7.99956118 Z M11,7.99956118 L12,7.99956118 L12,6.99952461 L11,6.99952461 L11,7.99956118 Z M13,16.9998903 L14,16.9998903 L14,15.9998537 L13,15.9998537 L13,16.9998903 Z M11,16.9998903 L12,16.9998903 L12,15.9998537 L11,15.9998537 L11,16.9998903 Z M13.18,14.884813 L10.18,12.3847215 C10.065,12.288718 10,12.1487129 10,11.9997075 C10,11.851702 10.065,11.7106969 10.18,11.6156934 L13.18,9.11560199 L13.82,9.88463011 L11.281,11.9997075 L13.82,14.1157848 L13.18,14.884813 Z" id="Amazon-API-Gateway_Icon_16_Squid" fill="#FFFFFF"></path>
    </g>
</svg>