
	<svg
						width="32"
						height="32"
						viewBox="0 0 32 32"
						fill="none"
						xmlns="http://www.w3.org/2000/svg"
					>
						<path
							d="M19.11 16.8483L14.0369 17.7304C14.0369 17.7304 12.3481 22.0324 12.2437 22.3235C12.1392 22.6146 12.1437 23.0746 12.6037 23.0746C13.1881 23.0746 16.1546 23.0591 16.1546 23.0591C16.1546 23.0591 15.4346 26.5322 15.3924 26.8433C15.3502 27.1544 15.6835 27.4277 15.9768 27.1144C16.2701 26.8011 20.3121 21.6058 20.4877 21.3525C20.801 20.8992 20.4988 20.4814 20.1433 20.4614C19.7877 20.4414 17.4056 20.4925 17.4056 20.4925L19.11 16.8483Z"
							fill="#FECA18"
						/>
						<path
							d="M17.7589 17.4527C17.7589 17.4527 16.6279 19.9548 16.5856 20.097C16.4612 20.5192 17.0078 20.6903 17.1634 20.3481C17.3189 20.0037 18.6655 17.2194 18.6655 17.2194L17.7589 17.4527Z"
							fill="#FDB900"
						/>
						<path
							d="M12.8859 22.2592C13.1836 22.2503 15.7968 22.2436 16.0146 22.2281C16.4213 22.1969 16.4835 22.7591 16.0146 22.7591C15.528 22.7591 12.9637 22.768 12.8081 22.7747C12.4481 22.7925 12.3992 22.2747 12.8859 22.2592Z"
							fill="#FDB900"
						/>
						<path
							d="M14.9813 17.1127C14.9813 17.1127 13.6481 20.4592 13.5725 20.7103C13.2592 21.7591 14.3858 21.728 14.6836 21.1325C14.8302 20.837 16.2635 17.8016 16.3257 17.2527C16.3879 16.7061 14.9813 17.1127 14.9813 17.1127Z"
							fill="#FFE36A"
						/>
						<path
							d="M15.3347 21.0148C15.1436 20.8837 14.9125 20.9992 14.7725 21.2192C14.6325 21.4392 14.428 21.797 14.7414 21.9858C15.0236 22.1547 15.2724 21.8147 15.3835 21.657C15.4924 21.4992 15.6324 21.217 15.3347 21.0148Z"
							fill="#FFE36A"
						/>
						<path
							d="M17.6301 21.7326C17.1212 21.6237 16.9568 22.0459 16.8479 22.5459C16.739 23.0459 16.3302 24.6636 16.2546 25.0635C16.1457 25.6257 16.6612 25.7057 16.8812 25.188C17.0457 24.8013 17.759 23.057 17.8501 22.7792C17.9901 22.3592 18.1456 21.8437 17.6301 21.7326Z"
							fill="#FFE36A"
						/>
						<path
							d="M25.7585 12.0573C25.7585 12.0573 26.3363 4.28441 19.69 3.2978C13.7147 2.41118 12.5415 8.08421 12.5415 8.08421C12.5415 8.08421 10.2838 7.55757 8.66166 9.00639C7.05064 10.4463 7.17508 12.1507 7.17508 12.1507C7.17508 12.1507 3.20195 11.524 2.79531 14.935C2.41533 18.1215 7.11286 17.3282 7.11286 17.3282L29.4183 15.686C29.4183 15.686 29.9472 14.0106 28.2606 12.7462C27.2585 11.9929 25.7585 12.0573 25.7585 12.0573Z"
							fill="#E4EAEE"
						/>
						<path
							d="M13.7347 13.8196C13.9213 13.7574 14.9857 14.6662 18.0522 14.6951C22.2653 14.7373 25.4563 12.2552 25.4563 12.2552C25.4563 12.2552 25.5629 13.0108 25.2274 13.5485C24.8096 14.2151 24.163 14.3418 24.163 14.3418C24.163 14.3418 25.3318 15.1551 26.9362 15.0307C28.3828 14.9173 29.4294 14.4262 29.4294 14.4262C29.4294 14.4262 29.5694 15.1395 29.4916 15.8351C29.3361 17.2217 28.5228 17.7861 27.6251 17.8883C26.9651 17.9638 21.3276 17.9905 19.0122 18.0127C16.9256 18.0327 6.29285 18.2994 5.20624 18.1794C4.07963 18.0549 3.22412 17.3772 2.91303 16.4061C2.67526 15.6706 2.78859 15.1973 2.78859 15.1973C2.78859 15.1973 4.85959 15.7462 6.02175 15.6151C7.48167 15.4484 8.46162 14.5307 8.46162 14.5307C8.46162 14.5307 9.33713 15.0307 11.277 14.864C12.9458 14.7173 13.7347 13.8196 13.7347 13.8196Z"
							fill="url(#paint0_radial_811_5475)"
						/>
						<path
							d="M24.8653 18.2661C24.6386 18.1394 23.832 18.8927 23.3787 19.346C23.1009 19.6238 22.2165 20.3504 22.0965 21.0504C21.7988 22.7703 23.7698 23.1614 24.552 22.3637C25.143 21.7615 25.0364 20.586 25.0364 20.1904C25.0386 19.6416 25.1475 18.4216 24.8653 18.2661Z"
							fill="#52C0EE"
						/>
						<path
							d="M8.67058 19.1904C8.45504 19.0659 7.68174 19.7948 7.24621 20.237C6.97956 20.5058 6.13294 21.2103 6.01294 21.8947C5.71962 23.5723 7.5973 23.9657 8.34837 23.1924C8.91501 22.608 8.82168 21.4591 8.82391 21.0725C8.82613 20.537 8.93723 19.3459 8.67058 19.1904Z"
							fill="#52C0EE"
						/>
						<path
							d="M12.2548 24.1634C12.0126 24.0723 11.1971 24.8145 10.7438 25.2678C10.466 25.5456 9.64386 26.2566 9.52386 26.9566C9.2261 28.6765 11.1349 29.0832 11.9171 28.2854C12.5081 27.6832 12.4104 26.5077 12.4015 26.1122C12.3793 25.0812 12.4215 24.2256 12.2548 24.1634Z"
							fill="#52C0EE"
						/>
						<path
							d="M23.5054 20.4926C23.1943 20.3304 22.8165 20.3993 22.5765 20.8992C22.3365 21.3992 22.5343 21.797 22.7854 21.9103C23.0743 22.0436 23.432 21.9214 23.672 21.5147C23.912 21.1081 23.7654 20.6281 23.5054 20.4926Z"
							fill="#B2E6FE"
						/>
						<path
							d="M10.6682 26.4279C10.3482 26.3168 9.99715 26.4345 9.83716 26.9478C9.67717 27.4611 9.92382 27.8122 10.1794 27.8878C10.4749 27.9744 10.7993 27.8078 10.9727 27.3834C11.1438 26.9589 10.9349 26.5212 10.6682 26.4279Z"
							fill="#B2E6FE"
						/>
						<path
							d="M7.12613 21.3258C6.78837 21.2325 6.43283 21.3769 6.30395 21.9169C6.17507 22.4569 6.45061 22.8035 6.71948 22.8613C7.03058 22.9302 7.35278 22.7369 7.50389 22.288C7.65277 21.8436 7.41056 21.4036 7.12613 21.3258Z"
							fill="#B2E6FE"
						/>
						<defs>
							<radialGradient
								id="paint0_radial_811_5475"
								cx="0"
								cy="0"
								r="1"
								gradientTransform="matrix(0.18837 -6.53799 9.79456 0.282554 16.401 18.5051)"
								gradientUnits="userSpaceOnUse"
							>
								<stop offset="0.1934" stopColor="#FFE366" />
								<stop offset="0.3305" stopColor="#EDDD82" />
								<stop offset="0.5709" stopColor="#D0D4AD" />
								<stop offset="0.7589" stopColor="#BFCFC7" />
								<stop offset="0.8699" stopColor="#B8CDD1" />
							</radialGradient>
						</defs>
					</svg>