	<svg
							width="1348"
							height="8"
							viewBox="0 0 1348 8"
							fill="none"
							xmlns="http://www.w3.org/2000/svg"
						>
							<rect width="2" height="2" rx="1" fill="#242834" />
							<rect x="6" width="2" height="2" rx="1" fill="#242834" />
							<rect x="12" width="2" height="2" rx="1" fill="#242834" />
							<rect x="18" width="2" height="2" rx="1" fill="#242834" />
							<rect x="24" width="2" height="2" rx="1" fill="#242834" />
							<rect x="30" width="2" height="2" rx="1" fill="#242834" />
							<rect x="36" width="2" height="2" rx="1" fill="#242834" />
							<rect x="42" width="2" height="2" rx="1" fill="#242834" />
							<rect x="48" width="2" height="2" rx="1" fill="#242834" />
							<rect x="54" width="2" height="2" rx="1" fill="#242834" />
							<rect x="60" width="2" height="2" rx="1" fill="#242834" />
							<rect x="66" width="2" height="2" rx="1" fill="#242834" />
							<rect x="72" width="2" height="2" rx="1" fill="#242834" />
							<rect x="78" width="2" height="2" rx="1" fill="#242834" />
							<rect x="84" width="2" height="2" rx="1" fill="#242834" />
							<rect x="90" width="2" height="2" rx="1" fill="#242834" />
							<rect x="96" width="2" height="2" rx="1" fill="#242834" />
							<rect x="102" width="2" height="2" rx="1" fill="#242834" />
							<rect x="108" width="2" height="2" rx="1" fill="#242834" />
							<rect x="114" width="2" height="2" rx="1" fill="#242834" />
							<rect x="120" width="2" height="2" rx="1" fill="#242834" />
							<rect x="126" width="2" height="2" rx="1" fill="#242834" />
							<rect x="132" width="2" height="2" rx="1" fill="#242834" />
							<rect x="138" width="2" height="2" rx="1" fill="#242834" />
							<rect x="144" width="2" height="2" rx="1" fill="#242834" />
							<rect x="150" width="2" height="2" rx="1" fill="#242834" />
							<rect x="156" width="2" height="2" rx="1" fill="#242834" />
							<rect x="162" width="2" height="2" rx="1" fill="#242834" />
							<rect x="168" width="2" height="2" rx="1" fill="#242834" />
							<rect x="174" width="2" height="2" rx="1" fill="#242834" />
							<rect x="180" width="2" height="2" rx="1" fill="#242834" />
							<rect x="186" width="2" height="2" rx="1" fill="#242834" />
							<rect x="192" width="2" height="2" rx="1" fill="#242834" />
							<rect x="198" width="2" height="2" rx="1" fill="#242834" />
							<rect x="204" width="2" height="2" rx="1" fill="#242834" />
							<rect x="210" width="2" height="2" rx="1" fill="#242834" />
							<rect x="216" width="2" height="2" rx="1" fill="#242834" />
							<rect x="222" width="2" height="2" rx="1" fill="#242834" />
							<rect x="228" width="2" height="2" rx="1" fill="#242834" />
							<rect x="234" width="2" height="2" rx="1" fill="#242834" />
							<rect x="240" width="2" height="2" rx="1" fill="#242834" />
							<rect x="246" width="2" height="2" rx="1" fill="#242834" />
							<rect x="252" width="2" height="2" rx="1" fill="#242834" />
							<rect x="258" width="2" height="2" rx="1" fill="#242834" />
							<rect x="264" width="2" height="2" rx="1" fill="#242834" />
							<rect x="270" width="2" height="2" rx="1" fill="#242834" />
							<rect x="276" width="2" height="2" rx="1" fill="#242834" />
							<rect x="282" width="2" height="2" rx="1" fill="#242834" />
							<rect x="288" width="2" height="2" rx="1" fill="#242834" />
							<rect x="294" width="2" height="2" rx="1" fill="#242834" />
							<rect x="300" width="2" height="2" rx="1" fill="#242834" />
							<rect x="306" width="2" height="2" rx="1" fill="#242834" />
							<rect x="312" width="2" height="2" rx="1" fill="#242834" />
							<rect x="318" width="2" height="2" rx="1" fill="#242834" />
							<rect x="324" width="2" height="2" rx="1" fill="#242834" />
							<rect x="330" width="2" height="2" rx="1" fill="#242834" />
							<rect x="336" width="2" height="2" rx="1" fill="#242834" />
							<rect x="342" width="2" height="2" rx="1" fill="#242834" />
							<rect x="348" width="2" height="2" rx="1" fill="#242834" />
							<rect x="354" width="2" height="2" rx="1" fill="#242834" />
							<rect x="360" width="2" height="2" rx="1" fill="#242834" />
							<rect x="366" width="2" height="2" rx="1" fill="#242834" />
							<rect x="372" width="2" height="2" rx="1" fill="#242834" />
							<rect x="378" width="2" height="2" rx="1" fill="#242834" />
							<rect x="384" width="2" height="2" rx="1" fill="#242834" />
							<rect x="390" width="2" height="2" rx="1" fill="#242834" />
							<rect x="396" width="2" height="2" rx="1" fill="#242834" />
							<rect x="402" width="2" height="2" rx="1" fill="#242834" />
							<rect x="408" width="2" height="2" rx="1" fill="#242834" />
							<rect x="414" width="2" height="2" rx="1" fill="#242834" />
							<rect x="420" width="2" height="2" rx="1" fill="#242834" />
							<rect x="426" width="2" height="2" rx="1" fill="#242834" />
							<rect x="432" width="2" height="2" rx="1" fill="#242834" />
							<rect x="438" width="2" height="2" rx="1" fill="#242834" />
							<rect x="444" width="2" height="2" rx="1" fill="#242834" />
							<rect x="450" width="2" height="2" rx="1" fill="#242834" />
							<rect x="456" width="2" height="2" rx="1" fill="#242834" />
							<rect x="462" width="2" height="2" rx="1" fill="#242834" />
							<rect x="468" width="2" height="2" rx="1" fill="#242834" />
							<rect x="474" width="2" height="2" rx="1" fill="#242834" />
							<rect x="480" width="2" height="2" rx="1" fill="#242834" />
							<rect x="486" width="2" height="2" rx="1" fill="#242834" />
							<rect x="492" width="2" height="2" rx="1" fill="#242834" />
							<rect x="498" width="2" height="2" rx="1" fill="#242834" />
							<rect x="504" width="2" height="2" rx="1" fill="#242834" />
							<rect x="510" width="2" height="2" rx="1" fill="#242834" />
							<rect x="516" width="2" height="2" rx="1" fill="#242834" />
							<rect x="522" width="2" height="2" rx="1" fill="#242834" />
							<rect x="528" width="2" height="2" rx="1" fill="#242834" />
							<rect x="534" width="2" height="2" rx="1" fill="#242834" />
							<rect x="540" width="2" height="2" rx="1" fill="#242834" />
							<rect x="546" width="2" height="2" rx="1" fill="#242834" />
							<rect x="552" width="2" height="2" rx="1" fill="#242834" />
							<rect x="558" width="2" height="2" rx="1" fill="#242834" />
							<rect x="564" width="2" height="2" rx="1" fill="#242834" />
							<rect x="570" width="2" height="2" rx="1" fill="#242834" />
							<rect x="576" width="2" height="2" rx="1" fill="#242834" />
							<rect x="582" width="2" height="2" rx="1" fill="#242834" />
							<rect x="588" width="2" height="2" rx="1" fill="#242834" />
							<rect x="594" width="2" height="2" rx="1" fill="#242834" />
							<rect x="600" width="2" height="2" rx="1" fill="#242834" />
							<rect x="606" width="2" height="2" rx="1" fill="#242834" />
							<rect x="612" width="2" height="2" rx="1" fill="#242834" />
							<rect x="618" width="2" height="2" rx="1" fill="#242834" />
							<rect x="624" width="2" height="2" rx="1" fill="#242834" />
							<rect x="630" width="2" height="2" rx="1" fill="#242834" />
							<rect x="636" width="2" height="2" rx="1" fill="#242834" />
							<rect x="642" width="2" height="2" rx="1" fill="#242834" />
							<rect x="648" width="2" height="2" rx="1" fill="#242834" />
							<rect x="654" width="2" height="2" rx="1" fill="#242834" />
							<rect x="660" width="2" height="2" rx="1" fill="#242834" />
							<rect x="666" width="2" height="2" rx="1" fill="#242834" />
							<rect x="672" width="2" height="2" rx="1" fill="#242834" />
							<rect x="678" width="2" height="2" rx="1" fill="#242834" />
							<rect x="684" width="2" height="2" rx="1" fill="#242834" />
							<rect x="690" width="2" height="2" rx="1" fill="#242834" />
							<rect x="696" width="2" height="2" rx="1" fill="#242834" />
							<rect x="702" width="2" height="2" rx="1" fill="#242834" />
							<rect x="708" width="2" height="2" rx="1" fill="#242834" />
							<rect x="714" width="2" height="2" rx="1" fill="#242834" />
							<rect x="720" width="2" height="2" rx="1" fill="#242834" />
							<rect x="726" width="2" height="2" rx="1" fill="#242834" />
							<rect x="732" width="2" height="2" rx="1" fill="#242834" />
							<rect x="738" width="2" height="2" rx="1" fill="#242834" />
							<rect x="744" width="2" height="2" rx="1" fill="#242834" />
							<rect x="750" width="2" height="2" rx="1" fill="#242834" />
							<rect x="756" width="2" height="2" rx="1" fill="#242834" />
							<rect x="762" width="2" height="2" rx="1" fill="#242834" />
							<rect x="768" width="2" height="2" rx="1" fill="#242834" />
							<rect x="774" width="2" height="2" rx="1" fill="#242834" />
							<rect x="780" width="2" height="2" rx="1" fill="#242834" />
							<rect x="786" width="2" height="2" rx="1" fill="#242834" />
							<rect x="792" width="2" height="2" rx="1" fill="#242834" />
							<rect x="798" width="2" height="2" rx="1" fill="#242834" />
							<rect x="804" width="2" height="2" rx="1" fill="#242834" />
							<rect x="810" width="2" height="2" rx="1" fill="#242834" />
							<rect x="816" width="2" height="2" rx="1" fill="#242834" />
							<rect x="822" width="2" height="2" rx="1" fill="#242834" />
							<rect x="828" width="2" height="2" rx="1" fill="#242834" />
							<rect x="834" width="2" height="2" rx="1" fill="#242834" />
							<rect x="840" width="2" height="2" rx="1" fill="#242834" />
							<rect x="846" width="2" height="2" rx="1" fill="#242834" />
							<rect x="852" width="2" height="2" rx="1" fill="#242834" />
							<rect x="858" width="2" height="2" rx="1" fill="#242834" />
							<rect x="864" width="2" height="2" rx="1" fill="#242834" />
							<rect x="870" width="2" height="2" rx="1" fill="#242834" />
							<rect x="876" width="2" height="2" rx="1" fill="#242834" />
							<rect x="882" width="2" height="2" rx="1" fill="#242834" />
							<rect x="888" width="2" height="2" rx="1" fill="#242834" />
							<rect x="894" width="2" height="2" rx="1" fill="#242834" />
							<rect x="900" width="2" height="2" rx="1" fill="#242834" />
							<rect x="906" width="2" height="2" rx="1" fill="#242834" />
							<rect x="912" width="2" height="2" rx="1" fill="#242834" />
							<rect x="918" width="2" height="2" rx="1" fill="#242834" />
							<rect x="924" width="2" height="2" rx="1" fill="#242834" />
							<rect x="930" width="2" height="2" rx="1" fill="#242834" />
							<rect x="936" width="2" height="2" rx="1" fill="#242834" />
							<rect x="942" width="2" height="2" rx="1" fill="#242834" />
							<rect x="948" width="2" height="2" rx="1" fill="#242834" />
							<rect x="954" width="2" height="2" rx="1" fill="#242834" />
							<rect x="960" width="2" height="2" rx="1" fill="#242834" />
							<rect x="966" width="2" height="2" rx="1" fill="#242834" />
							<rect x="972" width="2" height="2" rx="1" fill="#242834" />
							<rect x="978" width="2" height="2" rx="1" fill="#242834" />
							<rect x="984" width="2" height="2" rx="1" fill="#242834" />
							<rect x="990" width="2" height="2" rx="1" fill="#242834" />
							<rect x="996" width="2" height="2" rx="1" fill="#242834" />
							<rect x="1002" width="2" height="2" rx="1" fill="#242834" />
							<rect x="1008" width="2" height="2" rx="1" fill="#242834" />
							<rect x="1014" width="2" height="2" rx="1" fill="#242834" />
							<rect x="1020" width="2" height="2" rx="1" fill="#242834" />
							<rect x="1026" width="2" height="2" rx="1" fill="#242834" />
							<rect x="1032" width="2" height="2" rx="1" fill="#242834" />
							<rect x="1038" width="2" height="2" rx="1" fill="#242834" />
							<rect x="1044" width="2" height="2" rx="1" fill="#242834" />
							<rect x="1050" width="2" height="2" rx="1" fill="#242834" />
							<rect x="1056" width="2" height="2" rx="1" fill="#242834" />
							<rect x="1062" width="2" height="2" rx="1" fill="#242834" />
							<rect x="1068" width="2" height="2" rx="1" fill="#242834" />
							<rect x="1074" width="2" height="2" rx="1" fill="#242834" />
							<rect x="1080" width="2" height="2" rx="1" fill="#242834" />
							<rect x="1086" width="2" height="2" rx="1" fill="#242834" />
							<rect x="1092" width="2" height="2" rx="1" fill="#242834" />
							<rect x="1098" width="2" height="2" rx="1" fill="#242834" />
							<rect x="1104" width="2" height="2" rx="1" fill="#242834" />
							<rect x="1110" width="2" height="2" rx="1" fill="#242834" />
							<rect x="1116" width="2" height="2" rx="1" fill="#242834" />
							<rect x="1122" width="2" height="2" rx="1" fill="#242834" />
							<rect x="1128" width="2" height="2" rx="1" fill="#242834" />
							<rect x="1134" width="2" height="2" rx="1" fill="#242834" />
							<rect x="1140" width="2" height="2" rx="1" fill="#242834" />
							<rect x="1146" width="2" height="2" rx="1" fill="#242834" />
							<rect x="1152" width="2" height="2" rx="1" fill="#242834" />
							<rect x="1158" width="2" height="2" rx="1" fill="#242834" />
							<rect x="1164" width="2" height="2" rx="1" fill="#242834" />
							<rect x="1170" width="2" height="2" rx="1" fill="#242834" />
							<rect x="1176" width="2" height="2" rx="1" fill="#242834" />
							<rect x="1182" width="2" height="2" rx="1" fill="#242834" />
							<rect x="1188" width="2" height="2" rx="1" fill="#242834" />
							<rect x="1194" width="2" height="2" rx="1" fill="#242834" />
							<rect x="1200" width="2" height="2" rx="1" fill="#242834" />
							<rect x="1206" width="2" height="2" rx="1" fill="#242834" />
							<rect x="1212" width="2" height="2" rx="1" fill="#242834" />
							<rect x="1218" width="2" height="2" rx="1" fill="#242834" />
							<rect x="1224" width="2" height="2" rx="1" fill="#242834" />
							<rect x="1230" width="2" height="2" rx="1" fill="#242834" />
							<rect x="1236" width="2" height="2" rx="1" fill="#242834" />
							<rect x="1242" width="2" height="2" rx="1" fill="#242834" />
							<rect x="1248" width="2" height="2" rx="1" fill="#242834" />
							<rect x="1254" width="2" height="2" rx="1" fill="#242834" />
							<rect x="1260" width="2" height="2" rx="1" fill="#242834" />
							<rect x="1266" width="2" height="2" rx="1" fill="#242834" />
							<rect x="1272" width="2" height="2" rx="1" fill="#242834" />
							<rect x="1278" width="2" height="2" rx="1" fill="#242834" />
							<rect x="1284" width="2" height="2" rx="1" fill="#242834" />
							<rect x="1290" width="2" height="2" rx="1" fill="#242834" />
							<rect x="1296" width="2" height="2" rx="1" fill="#242834" />
							<rect x="1302" width="2" height="2" rx="1" fill="#242834" />
							<rect x="1308" width="2" height="2" rx="1" fill="#242834" />
							<rect x="1314" width="2" height="2" rx="1" fill="#242834" />
							<rect x="1320" width="2" height="2" rx="1" fill="#242834" />
							<rect x="1326" width="2" height="2" rx="1" fill="#242834" />
							<rect x="1332" width="2" height="2" rx="1" fill="#242834" />
							<rect x="1338" width="2" height="2" rx="1" fill="#242834" />
							<rect x="1344" width="2" height="2" rx="1" fill="#242834" />
							<rect y="6" width="2" height="2" rx="1" fill="#242834" />
							<rect x="6" y="6" width="2" height="2" rx="1" fill="#242834" />
							<rect x="12" y="6" width="2" height="2" rx="1" fill="#242834" />
							<rect x="18" y="6" width="2" height="2" rx="1" fill="#242834" />
							<rect x="24" y="6" width="2" height="2" rx="1" fill="#242834" />
							<rect x="30" y="6" width="2" height="2" rx="1" fill="#242834" />
							<rect x="36" y="6" width="2" height="2" rx="1" fill="#242834" />
							<rect x="42" y="6" width="2" height="2" rx="1" fill="#242834" />
							<rect x="48" y="6" width="2" height="2" rx="1" fill="#242834" />
							<rect x="54" y="6" width="2" height="2" rx="1" fill="#242834" />
							<rect x="60" y="6" width="2" height="2" rx="1" fill="#242834" />
							<rect x="66" y="6" width="2" height="2" rx="1" fill="#242834" />
							<rect x="72" y="6" width="2" height="2" rx="1" fill="#242834" />
							<rect x="78" y="6" width="2" height="2" rx="1" fill="#242834" />
							<rect x="84" y="6" width="2" height="2" rx="1" fill="#242834" />
							<rect x="90" y="6" width="2" height="2" rx="1" fill="#242834" />
							<rect x="96" y="6" width="2" height="2" rx="1" fill="#242834" />
							<rect x="102" y="6" width="2" height="2" rx="1" fill="#242834" />
							<rect x="108" y="6" width="2" height="2" rx="1" fill="#242834" />
							<rect x="114" y="6" width="2" height="2" rx="1" fill="#242834" />
							<rect x="120" y="6" width="2" height="2" rx="1" fill="#242834" />
							<rect x="126" y="6" width="2" height="2" rx="1" fill="#242834" />
							<rect x="132" y="6" width="2" height="2" rx="1" fill="#242834" />
							<rect x="138" y="6" width="2" height="2" rx="1" fill="#242834" />
							<rect x="144" y="6" width="2" height="2" rx="1" fill="#242834" />
							<rect x="150" y="6" width="2" height="2" rx="1" fill="#242834" />
							<rect x="156" y="6" width="2" height="2" rx="1" fill="#242834" />
							<rect x="162" y="6" width="2" height="2" rx="1" fill="#242834" />
							<rect x="168" y="6" width="2" height="2" rx="1" fill="#242834" />
							<rect x="174" y="6" width="2" height="2" rx="1" fill="#242834" />
							<rect x="180" y="6" width="2" height="2" rx="1" fill="#242834" />
							<rect x="186" y="6" width="2" height="2" rx="1" fill="#242834" />
							<rect x="192" y="6" width="2" height="2" rx="1" fill="#242834" />
							<rect x="198" y="6" width="2" height="2" rx="1" fill="#242834" />
							<rect x="204" y="6" width="2" height="2" rx="1" fill="#242834" />
							<rect x="210" y="6" width="2" height="2" rx="1" fill="#242834" />
							<rect x="216" y="6" width="2" height="2" rx="1" fill="#242834" />
							<rect x="222" y="6" width="2" height="2" rx="1" fill="#242834" />
							<rect x="228" y="6" width="2" height="2" rx="1" fill="#242834" />
							<rect x="234" y="6" width="2" height="2" rx="1" fill="#242834" />
							<rect x="240" y="6" width="2" height="2" rx="1" fill="#242834" />
							<rect x="246" y="6" width="2" height="2" rx="1" fill="#242834" />
							<rect x="252" y="6" width="2" height="2" rx="1" fill="#242834" />
							<rect x="258" y="6" width="2" height="2" rx="1" fill="#242834" />
							<rect x="264" y="6" width="2" height="2" rx="1" fill="#242834" />
							<rect x="270" y="6" width="2" height="2" rx="1" fill="#242834" />
							<rect x="276" y="6" width="2" height="2" rx="1" fill="#242834" />
							<rect x="282" y="6" width="2" height="2" rx="1" fill="#242834" />
							<rect x="288" y="6" width="2" height="2" rx="1" fill="#242834" />
							<rect x="294" y="6" width="2" height="2" rx="1" fill="#242834" />
							<rect x="300" y="6" width="2" height="2" rx="1" fill="#242834" />
							<rect x="306" y="6" width="2" height="2" rx="1" fill="#242834" />
							<rect x="312" y="6" width="2" height="2" rx="1" fill="#242834" />
							<rect x="318" y="6" width="2" height="2" rx="1" fill="#242834" />
							<rect x="324" y="6" width="2" height="2" rx="1" fill="#242834" />
							<rect x="330" y="6" width="2" height="2" rx="1" fill="#242834" />
							<rect x="336" y="6" width="2" height="2" rx="1" fill="#242834" />
							<rect x="342" y="6" width="2" height="2" rx="1" fill="#242834" />
							<rect x="348" y="6" width="2" height="2" rx="1" fill="#242834" />
							<rect x="354" y="6" width="2" height="2" rx="1" fill="#242834" />
							<rect x="360" y="6" width="2" height="2" rx="1" fill="#242834" />
							<rect x="366" y="6" width="2" height="2" rx="1" fill="#242834" />
							<rect x="372" y="6" width="2" height="2" rx="1" fill="#242834" />
							<rect x="378" y="6" width="2" height="2" rx="1" fill="#242834" />
							<rect x="384" y="6" width="2" height="2" rx="1" fill="#242834" />
							<rect x="390" y="6" width="2" height="2" rx="1" fill="#242834" />
							<rect x="396" y="6" width="2" height="2" rx="1" fill="#242834" />
							<rect x="402" y="6" width="2" height="2" rx="1" fill="#242834" />
							<rect x="408" y="6" width="2" height="2" rx="1" fill="#242834" />
							<rect x="414" y="6" width="2" height="2" rx="1" fill="#242834" />
							<rect x="420" y="6" width="2" height="2" rx="1" fill="#242834" />
							<rect x="426" y="6" width="2" height="2" rx="1" fill="#242834" />
							<rect x="432" y="6" width="2" height="2" rx="1" fill="#242834" />
							<rect x="438" y="6" width="2" height="2" rx="1" fill="#242834" />
							<rect x="444" y="6" width="2" height="2" rx="1" fill="#242834" />
							<rect x="450" y="6" width="2" height="2" rx="1" fill="#242834" />
							<rect x="456" y="6" width="2" height="2" rx="1" fill="#242834" />
							<rect x="462" y="6" width="2" height="2" rx="1" fill="#242834" />
							<rect x="468" y="6" width="2" height="2" rx="1" fill="#242834" />
							<rect x="474" y="6" width="2" height="2" rx="1" fill="#242834" />
							<rect x="480" y="6" width="2" height="2" rx="1" fill="#242834" />
							<rect x="486" y="6" width="2" height="2" rx="1" fill="#242834" />
							<rect x="492" y="6" width="2" height="2" rx="1" fill="#242834" />
							<rect x="498" y="6" width="2" height="2" rx="1" fill="#242834" />
							<rect x="504" y="6" width="2" height="2" rx="1" fill="#242834" />
							<rect x="510" y="6" width="2" height="2" rx="1" fill="#242834" />
							<rect x="516" y="6" width="2" height="2" rx="1" fill="#242834" />
							<rect x="522" y="6" width="2" height="2" rx="1" fill="#242834" />
							<rect x="528" y="6" width="2" height="2" rx="1" fill="#242834" />
							<rect x="534" y="6" width="2" height="2" rx="1" fill="#242834" />
							<rect x="540" y="6" width="2" height="2" rx="1" fill="#242834" />
							<rect x="546" y="6" width="2" height="2" rx="1" fill="#242834" />
							<rect x="552" y="6" width="2" height="2" rx="1" fill="#242834" />
							<rect x="558" y="6" width="2" height="2" rx="1" fill="#242834" />
							<rect x="564" y="6" width="2" height="2" rx="1" fill="#242834" />
							<rect x="570" y="6" width="2" height="2" rx="1" fill="#242834" />
							<rect x="576" y="6" width="2" height="2" rx="1" fill="#242834" />
							<rect x="582" y="6" width="2" height="2" rx="1" fill="#242834" />
							<rect x="588" y="6" width="2" height="2" rx="1" fill="#242834" />
							<rect x="594" y="6" width="2" height="2" rx="1" fill="#242834" />
							<rect x="600" y="6" width="2" height="2" rx="1" fill="#242834" />
							<rect x="606" y="6" width="2" height="2" rx="1" fill="#242834" />
							<rect x="612" y="6" width="2" height="2" rx="1" fill="#242834" />
							<rect x="618" y="6" width="2" height="2" rx="1" fill="#242834" />
							<rect x="624" y="6" width="2" height="2" rx="1" fill="#242834" />
							<rect x="630" y="6" width="2" height="2" rx="1" fill="#242834" />
							<rect x="636" y="6" width="2" height="2" rx="1" fill="#242834" />
							<rect x="642" y="6" width="2" height="2" rx="1" fill="#242834" />
							<rect x="648" y="6" width="2" height="2" rx="1" fill="#242834" />
							<rect x="654" y="6" width="2" height="2" rx="1" fill="#242834" />
							<rect x="660" y="6" width="2" height="2" rx="1" fill="#242834" />
							<rect x="666" y="6" width="2" height="2" rx="1" fill="#242834" />
							<rect x="672" y="6" width="2" height="2" rx="1" fill="#242834" />
							<rect x="678" y="6" width="2" height="2" rx="1" fill="#242834" />
							<rect x="684" y="6" width="2" height="2" rx="1" fill="#242834" />
							<rect x="690" y="6" width="2" height="2" rx="1" fill="#242834" />
							<rect x="696" y="6" width="2" height="2" rx="1" fill="#242834" />
							<rect x="702" y="6" width="2" height="2" rx="1" fill="#242834" />
							<rect x="708" y="6" width="2" height="2" rx="1" fill="#242834" />
							<rect x="714" y="6" width="2" height="2" rx="1" fill="#242834" />
							<rect x="720" y="6" width="2" height="2" rx="1" fill="#242834" />
							<rect x="726" y="6" width="2" height="2" rx="1" fill="#242834" />
							<rect x="732" y="6" width="2" height="2" rx="1" fill="#242834" />
							<rect x="738" y="6" width="2" height="2" rx="1" fill="#242834" />
							<rect x="744" y="6" width="2" height="2" rx="1" fill="#242834" />
							<rect x="750" y="6" width="2" height="2" rx="1" fill="#242834" />
							<rect x="756" y="6" width="2" height="2" rx="1" fill="#242834" />
							<rect x="762" y="6" width="2" height="2" rx="1" fill="#242834" />
							<rect x="768" y="6" width="2" height="2" rx="1" fill="#242834" />
							<rect x="774" y="6" width="2" height="2" rx="1" fill="#242834" />
							<rect x="780" y="6" width="2" height="2" rx="1" fill="#242834" />
							<rect x="786" y="6" width="2" height="2" rx="1" fill="#242834" />
							<rect x="792" y="6" width="2" height="2" rx="1" fill="#242834" />
							<rect x="798" y="6" width="2" height="2" rx="1" fill="#242834" />
							<rect x="804" y="6" width="2" height="2" rx="1" fill="#242834" />
							<rect x="810" y="6" width="2" height="2" rx="1" fill="#242834" />
							<rect x="816" y="6" width="2" height="2" rx="1" fill="#242834" />
							<rect x="822" y="6" width="2" height="2" rx="1" fill="#242834" />
							<rect x="828" y="6" width="2" height="2" rx="1" fill="#242834" />
							<rect x="834" y="6" width="2" height="2" rx="1" fill="#242834" />
							<rect x="840" y="6" width="2" height="2" rx="1" fill="#242834" />
							<rect x="846" y="6" width="2" height="2" rx="1" fill="#242834" />
							<rect x="852" y="6" width="2" height="2" rx="1" fill="#242834" />
							<rect x="858" y="6" width="2" height="2" rx="1" fill="#242834" />
							<rect x="864" y="6" width="2" height="2" rx="1" fill="#242834" />
							<rect x="870" y="6" width="2" height="2" rx="1" fill="#242834" />
							<rect x="876" y="6" width="2" height="2" rx="1" fill="#242834" />
							<rect x="882" y="6" width="2" height="2" rx="1" fill="#242834" />
							<rect x="888" y="6" width="2" height="2" rx="1" fill="#242834" />
							<rect x="894" y="6" width="2" height="2" rx="1" fill="#242834" />
							<rect x="900" y="6" width="2" height="2" rx="1" fill="#242834" />
							<rect x="906" y="6" width="2" height="2" rx="1" fill="#242834" />
							<rect x="912" y="6" width="2" height="2" rx="1" fill="#242834" />
							<rect x="918" y="6" width="2" height="2" rx="1" fill="#242834" />
							<rect x="924" y="6" width="2" height="2" rx="1" fill="#242834" />
							<rect x="930" y="6" width="2" height="2" rx="1" fill="#242834" />
							<rect x="936" y="6" width="2" height="2" rx="1" fill="#242834" />
							<rect x="942" y="6" width="2" height="2" rx="1" fill="#242834" />
							<rect x="948" y="6" width="2" height="2" rx="1" fill="#242834" />
							<rect x="954" y="6" width="2" height="2" rx="1" fill="#242834" />
							<rect x="960" y="6" width="2" height="2" rx="1" fill="#242834" />
							<rect x="966" y="6" width="2" height="2" rx="1" fill="#242834" />
							<rect x="972" y="6" width="2" height="2" rx="1" fill="#242834" />
							<rect x="978" y="6" width="2" height="2" rx="1" fill="#242834" />
							<rect x="984" y="6" width="2" height="2" rx="1" fill="#242834" />
							<rect x="990" y="6" width="2" height="2" rx="1" fill="#242834" />
							<rect x="996" y="6" width="2" height="2" rx="1" fill="#242834" />
							<rect x="1002" y="6" width="2" height="2" rx="1" fill="#242834" />
							<rect x="1008" y="6" width="2" height="2" rx="1" fill="#242834" />
							<rect x="1014" y="6" width="2" height="2" rx="1" fill="#242834" />
							<rect x="1020" y="6" width="2" height="2" rx="1" fill="#242834" />
							<rect x="1026" y="6" width="2" height="2" rx="1" fill="#242834" />
							<rect x="1032" y="6" width="2" height="2" rx="1" fill="#242834" />
							<rect x="1038" y="6" width="2" height="2" rx="1" fill="#242834" />
							<rect x="1044" y="6" width="2" height="2" rx="1" fill="#242834" />
							<rect x="1050" y="6" width="2" height="2" rx="1" fill="#242834" />
							<rect x="1056" y="6" width="2" height="2" rx="1" fill="#242834" />
							<rect x="1062" y="6" width="2" height="2" rx="1" fill="#242834" />
							<rect x="1068" y="6" width="2" height="2" rx="1" fill="#242834" />
							<rect x="1074" y="6" width="2" height="2" rx="1" fill="#242834" />
							<rect x="1080" y="6" width="2" height="2" rx="1" fill="#242834" />
							<rect x="1086" y="6" width="2" height="2" rx="1" fill="#242834" />
							<rect x="1092" y="6" width="2" height="2" rx="1" fill="#242834" />
							<rect x="1098" y="6" width="2" height="2" rx="1" fill="#242834" />
							<rect x="1104" y="6" width="2" height="2" rx="1" fill="#242834" />
							<rect x="1110" y="6" width="2" height="2" rx="1" fill="#242834" />
							<rect x="1116" y="6" width="2" height="2" rx="1" fill="#242834" />
							<rect x="1122" y="6" width="2" height="2" rx="1" fill="#242834" />
							<rect x="1128" y="6" width="2" height="2" rx="1" fill="#242834" />
							<rect x="1134" y="6" width="2" height="2" rx="1" fill="#242834" />
							<rect x="1140" y="6" width="2" height="2" rx="1" fill="#242834" />
							<rect x="1146" y="6" width="2" height="2" rx="1" fill="#242834" />
							<rect x="1152" y="6" width="2" height="2" rx="1" fill="#242834" />
							<rect x="1158" y="6" width="2" height="2" rx="1" fill="#242834" />
							<rect x="1164" y="6" width="2" height="2" rx="1" fill="#242834" />
							<rect x="1170" y="6" width="2" height="2" rx="1" fill="#242834" />
							<rect x="1176" y="6" width="2" height="2" rx="1" fill="#242834" />
							<rect x="1182" y="6" width="2" height="2" rx="1" fill="#242834" />
							<rect x="1188" y="6" width="2" height="2" rx="1" fill="#242834" />
							<rect x="1194" y="6" width="2" height="2" rx="1" fill="#242834" />
							<rect x="1200" y="6" width="2" height="2" rx="1" fill="#242834" />
							<rect x="1206" y="6" width="2" height="2" rx="1" fill="#242834" />
							<rect x="1212" y="6" width="2" height="2" rx="1" fill="#242834" />
							<rect x="1218" y="6" width="2" height="2" rx="1" fill="#242834" />
							<rect x="1224" y="6" width="2" height="2" rx="1" fill="#242834" />
							<rect x="1230" y="6" width="2" height="2" rx="1" fill="#242834" />
							<rect x="1236" y="6" width="2" height="2" rx="1" fill="#242834" />
							<rect x="1242" y="6" width="2" height="2" rx="1" fill="#242834" />
							<rect x="1248" y="6" width="2" height="2" rx="1" fill="#242834" />
							<rect x="1254" y="6" width="2" height="2" rx="1" fill="#242834" />
							<rect x="1260" y="6" width="2" height="2" rx="1" fill="#242834" />
							<rect x="1266" y="6" width="2" height="2" rx="1" fill="#242834" />
							<rect x="1272" y="6" width="2" height="2" rx="1" fill="#242834" />
							<rect x="1278" y="6" width="2" height="2" rx="1" fill="#242834" />
							<rect x="1284" y="6" width="2" height="2" rx="1" fill="#242834" />
							<rect x="1290" y="6" width="2" height="2" rx="1" fill="#242834" />
							<rect x="1296" y="6" width="2" height="2" rx="1" fill="#242834" />
							<rect x="1302" y="6" width="2" height="2" rx="1" fill="#242834" />
							<rect x="1308" y="6" width="2" height="2" rx="1" fill="#242834" />
							<rect x="1314" y="6" width="2" height="2" rx="1" fill="#242834" />
							<rect x="1320" y="6" width="2" height="2" rx="1" fill="#242834" />
							<rect x="1326" y="6" width="2" height="2" rx="1" fill="#242834" />
							<rect x="1332" y="6" width="2" height="2" rx="1" fill="#242834" />
							<rect x="1338" y="6" width="2" height="2" rx="1" fill="#242834" />
							<rect x="1344" y="6" width="2" height="2" rx="1" fill="#242834" />
						</svg>