<svg width="33" height="32" viewBox="0 0 33 32" fill="none" xmlns="http://www.w3.org/2000/svg">
<path d="M4.99715 27.2944C4.70156 27.2944 4.74156 27.6477 4.74156 28.3143C4.74156 28.981 4.70156 29.3543 5.05493 29.3543C5.40831 29.3543 27.7778 29.3143 28.0134 29.2965C28.2489 29.2765 28.1889 28.4143 28.1889 28.081C28.1889 27.6699 28.2467 27.3166 27.9156 27.2966C27.5822 27.2766 5.11494 27.2944 4.99715 27.2944Z" fill="#ED6D30"/>
<path d="M5.07275 21.8602L5.09498 27.3132L27.7956 27.291L27.8467 21.7135L27.3466 21.1536L5.255 21.1158L5.07275 21.8602Z" fill="#F78A51"/>
<path d="M5.53728 21.4707L5.07278 21.8596L5.07056 22.724C5.07056 22.724 5.22169 22.8306 5.37282 22.7551C5.52395 22.6795 5.73508 22.5329 5.92177 22.5173C6.21959 22.4951 6.19514 22.7795 6.48184 22.7795C6.76855 22.7795 7.02858 22.4929 7.27083 22.4929C7.51308 22.4929 7.62421 22.7995 7.88202 22.784C8.13983 22.7684 8.28429 22.5084 8.60655 22.5173C8.86436 22.524 8.90881 22.784 9.22663 22.784C9.54445 22.784 9.70669 22.4818 9.97784 22.4818C10.249 22.4818 10.3379 22.8018 10.6401 22.8018C10.9424 22.8018 11.0246 22.4818 11.3713 22.4818C11.7181 22.4818 11.6892 22.784 11.9759 22.7529C12.2626 22.7218 12.2915 22.4729 12.6382 22.4573C12.9849 22.4418 13.0204 22.784 13.3227 22.784C13.625 22.784 13.6161 22.5373 13.8739 22.5373C14.1317 22.5373 18.9145 22.5262 19.0968 22.5262C19.279 22.5262 19.559 22.8462 19.8613 22.8462C20.1636 22.8462 20.0791 22.504 20.4103 22.4951C20.6081 22.4907 20.9925 22.824 21.2192 22.824C21.4459 22.824 21.5282 22.4818 21.7838 22.4662C22.0393 22.4507 22.4194 22.844 22.7217 22.8129C23.0239 22.7818 22.8728 22.4796 23.0995 22.4507C23.3262 22.4196 23.7796 22.784 24.0818 22.7973C24.3841 22.8129 24.1885 22.404 24.5041 22.404C24.8197 22.404 25.0642 22.7507 25.3953 22.7662C25.7265 22.7818 25.502 22.4196 25.8332 22.3884C26.1643 22.3573 26.4066 22.8418 26.7244 22.8106C27.0422 22.7795 26.9066 22.4329 27.1778 22.4173C27.4489 22.4018 27.8267 22.644 27.8267 22.644L27.8401 21.7063L14.7807 17.582L5.53728 21.4707Z" fill="#ED6D30"/>
<path d="M13.8049 29.3267C13.8049 29.3267 13.8605 22.7804 13.8516 22.6204C13.8405 22.4271 14.0116 22.3804 14.1494 22.3804C14.2871 22.3804 18.8558 22.3804 18.9935 22.3804C19.1313 22.3804 19.2113 22.4827 19.2224 22.6093C19.2335 22.736 19.2002 29.3156 19.2002 29.3156L13.8049 29.3267Z" fill="#51362F"/>
<path d="M4.15465 18.7244C4.15465 18.7244 3.23898 20.7487 3.24787 20.902C3.25676 21.0553 3.51234 21.9864 3.92128 22.0109C4.48135 22.0442 4.58359 21.5531 4.67693 21.5531C4.77028 21.5531 4.89474 22.0331 5.21478 22.0797C5.58816 22.1331 5.85708 21.5331 6.00154 21.5331C6.14601 21.5331 6.21713 22.0553 6.55495 22.0553C6.89277 22.0553 7.25281 21.4909 7.38616 21.502C7.51951 21.5131 7.64842 22.102 7.92401 22.102C8.20182 22.102 8.47296 21.5998 8.71299 21.5753C8.83745 21.5642 8.95525 22.1375 9.18194 22.1464C9.40864 22.1575 9.79535 21.5531 9.99093 21.5531C10.1865 21.5531 10.3399 22.1775 10.6377 22.1486C10.9355 22.1197 11.3378 21.5642 11.48 21.5642C11.6222 21.5642 11.7778 22.1264 12.0112 22.1375C12.2223 22.1464 12.5713 21.6087 12.7135 21.5998C12.8557 21.5909 13.0269 22.1486 13.2625 22.1486C13.498 22.1486 13.7536 21.5442 13.9492 21.5331C14.1448 21.522 14.227 22.102 14.4626 22.102C14.6982 22.102 15.0471 21.5175 15.2627 21.5087C15.4783 21.4975 15.5961 22.0686 15.8117 22.0686C16.0272 22.0686 16.2673 21.4887 16.4206 21.482C16.6584 21.4731 16.8096 22.0464 17.1385 22.0575C17.4674 22.0686 17.6008 21.5042 17.8564 21.5042C18.1119 21.5042 18.1853 22.0375 18.472 22.0486C18.7587 22.0597 18.9943 21.4953 19.2099 21.5042C19.4254 21.5153 19.5677 22.0264 19.8055 22.0264C20.0433 22.0264 20.2767 21.5042 20.4522 21.5131C20.6256 21.5242 20.8634 22.0464 21.099 22.0464C21.3346 22.0464 21.5302 21.5064 21.6435 21.502C21.8613 21.4953 22.0836 22.0664 22.3102 22.0464C22.5369 22.0264 22.7992 21.4642 22.9948 21.4731C23.1904 21.4842 23.4904 22.1108 23.726 22.0909C23.9616 22.0709 24.1616 21.4753 24.3772 21.4842C24.5928 21.4931 24.7661 22.0331 25.0395 22.0331C25.2906 22.0331 25.4306 21.5175 25.6573 21.5064C25.884 21.4953 26.0952 21.9997 26.3308 21.9753C26.5663 21.9509 26.6619 21.482 26.8686 21.4731C27.0731 21.462 27.3753 22.0042 27.6731 21.9931C27.971 21.982 28.1243 21.562 28.2888 21.5531C28.4532 21.5442 28.5955 22.0109 28.9955 22.0042C29.3556 21.9997 29.8267 21.3264 29.7334 20.8554C29.6401 20.3843 28.3599 18.5066 28.3599 18.5066L4.15465 18.7244Z" fill="#6C4D43"/>
<path d="M6.09496 13.357C6.09496 13.357 4.90148 15.0328 4.1925 16.5641C3.48352 18.0954 3.21016 19.0022 3.16571 19.8956C3.12126 20.7691 3.24794 20.9024 3.24794 20.9024L4.54366 19.4867C4.54366 19.4867 4.55699 20.8247 4.65256 20.838C4.74813 20.8513 5.74603 19.4578 5.8127 19.4445C5.8816 19.4311 5.8816 20.8513 5.97717 20.8513C6.07274 20.8513 7.09731 19.4178 7.16621 19.4178C7.2351 19.4178 7.26177 20.838 7.34401 20.838C7.42624 20.838 8.35524 19.3911 8.42414 19.4045C8.49304 19.4178 8.73751 20.9202 8.81975 20.9202C8.90198 20.9202 9.76209 19.3911 9.85765 19.3911C9.95322 19.3911 10.0621 20.9758 10.171 20.9758C10.2799 20.9758 11.1267 19.4467 11.1956 19.4467C11.2645 19.4467 11.5379 20.9625 11.6468 20.9491C11.7557 20.9358 12.5069 19.4467 12.5758 19.4734C12.6447 19.5 12.8225 20.9358 12.9447 20.9358C13.0669 20.9358 13.7226 19.4334 13.8315 19.4334C13.9404 19.4334 14.216 20.8913 14.2982 20.8913C14.3804 20.8913 15.0627 19.4289 15.145 19.4156C15.2272 19.4023 15.665 21.0269 15.8006 21.0269C15.9362 21.0269 16.3474 19.5245 16.4429 19.5378C16.5385 19.5512 17.1808 20.9713 17.2341 20.9713C17.2875 20.9713 17.7675 19.4823 17.8209 19.4823C17.8742 19.4823 18.5165 20.8335 18.6121 20.8491C18.7076 20.8624 19.0632 19.4978 19.1321 19.5245C19.201 19.5512 19.8567 20.958 19.9389 20.9713C20.0211 20.9847 20.3078 19.4956 20.3901 19.4956C20.4723 19.4956 21.3724 21.1336 21.4413 21.1202C21.5102 21.1069 21.5925 19.4667 21.6725 19.4534C21.7547 19.44 22.8326 21.0647 22.9148 21.0513C22.9971 21.038 22.9548 19.3978 23.0104 19.3978C23.066 19.3978 23.9527 20.9269 24.075 20.9136C24.1972 20.9002 24.3061 19.48 24.3884 19.48C24.4706 19.48 25.4529 21.1469 25.5774 21.1336C25.7019 21.1202 25.6041 19.5756 25.6596 19.5623C25.7152 19.5489 26.8198 20.9558 26.8753 20.9424C26.9309 20.9291 26.9153 19.4267 27.0109 19.4134C27.1065 19.4 28.131 20.8758 28.2266 20.8469C28.3222 20.8202 28.3355 19.3445 28.3911 19.3311C28.4466 19.3178 29.7268 20.8535 29.7268 20.8535C29.7268 20.8535 29.9757 19.5178 29.5357 18.2377C29.0956 16.9575 28.0266 15.1595 27.5087 14.395C26.9931 13.6304 26.6909 13.277 26.6909 13.277L14.0648 11.6591L6.09496 13.357Z" fill="#A37F69"/>
<path d="M10.4736 8.22084C10.4736 8.22084 8.78668 9.88105 7.98214 10.8412C7.17759 11.8013 6.09301 13.3548 6.09301 13.3548C6.09301 13.3548 5.69963 15.1728 5.8152 15.1862C5.93299 15.1995 7.08647 13.4615 7.19093 13.4726C7.29539 13.4859 7.02202 15.2239 7.12648 15.2506C7.23093 15.2773 8.51554 13.4482 8.57999 13.4348C8.64444 13.4215 8.3733 15.2373 8.4622 15.2639C8.5511 15.2906 9.85126 13.4482 9.92905 13.4482C10.0068 13.4482 10.1113 15.1484 10.2135 15.1484C10.3158 15.1484 11.1736 13.4237 11.2514 13.4348C11.3292 13.4482 11.5115 15.2128 11.6404 15.2373C11.7693 15.2639 12.3671 13.4082 12.4716 13.3948C12.576 13.3815 12.8339 15.3417 12.9516 15.3417C13.0694 15.3417 13.6917 13.4215 13.7695 13.4215C13.8473 13.4215 14.0429 15.3417 14.1718 15.3417C14.3007 15.3417 14.8852 13.3837 14.963 13.3837C15.0408 13.3837 15.5986 15.2639 15.6898 15.2395C15.7809 15.2128 16.2743 13.3593 16.3654 13.3704C16.4565 13.3837 16.8833 15.1862 17.041 15.2128C17.1966 15.2395 17.6122 13.4615 17.7411 13.4615C17.87 13.4615 18.2079 15.4329 18.3634 15.4329C18.519 15.4329 18.8702 13.4615 18.948 13.4615C19.0257 13.4615 19.7392 15.4084 19.857 15.4195C19.9747 15.4329 20.1037 13.5637 20.2459 13.5504C20.3881 13.5371 21.1549 15.4195 21.2327 15.4062C21.3105 15.3929 21.3749 13.5637 21.4527 13.5504C21.5305 13.5371 22.3995 15.2639 22.5417 15.2639C22.684 15.2639 22.5929 13.4726 22.724 13.4859C22.8529 13.4993 24.1508 15.3662 24.2686 15.3662C24.3864 15.3662 23.9308 13.4193 24.0353 13.3948C24.1397 13.3682 25.5021 15.4706 25.6443 15.4306C25.7866 15.3906 25.2821 13.5237 25.371 13.4971C25.4621 13.4704 26.8756 15.3262 27.0067 15.2751C27.1356 15.2239 26.7 13.277 26.7 13.277C26.7 13.277 25.3976 11.5768 24.7242 10.7478C24.0486 9.91661 22.9862 8.81425 22.9862 8.81425L17.7478 6.19836L10.4736 8.22084Z" fill="#BD9177"/>
<path d="M10.4734 8.2202C10.4734 8.2202 9.83556 9.42236 9.96447 9.49791C10.0934 9.57346 11.6736 8.05576 11.8269 8.09354C11.9803 8.13131 11.3157 9.70012 11.5336 9.75123C11.7514 9.80234 12.7959 8.0291 12.9248 8.05354C13.0515 8.07798 12.6559 9.77567 12.8604 9.84011C13.0649 9.90455 13.945 7.9891 14.085 8.01576C14.225 8.04021 14.1872 9.929 14.3139 9.94233C14.4406 9.95566 15.0918 8.10465 15.1807 8.10465C15.2696 8.10465 15.5252 10.0579 15.6785 10.069C15.8319 10.0823 16.2897 8.03576 16.3919 8.03576C16.4942 8.03576 17.0053 9.96677 17.172 9.96677C17.3387 9.96677 17.4387 8.01799 17.5276 7.98021C17.6165 7.94244 18.3633 9.85122 18.5767 9.85122C18.7611 9.85122 18.4478 7.95132 18.5633 7.92466C18.6789 7.90021 19.7368 9.889 19.9546 9.87789C20.1724 9.86456 19.7946 8.02243 19.8968 8.02243C19.9991 8.02243 21.1681 9.86456 21.3592 9.86456C21.5504 9.86456 20.9592 7.99132 21.0747 7.96466C21.1903 7.94021 22.9305 9.60679 23.0328 9.58013C23.135 9.55568 22.9817 8.81128 22.9817 8.81128C22.9817 8.81128 18.7833 4.49595 16.4342 4.48484C14.0339 4.47151 10.4734 8.2202 10.4734 8.2202Z" fill="#D2A590"/>
</svg>
