<svg width="18" height="18" viewBox="0 0 18 18" fill="none" xmlns="http://www.w3.org/2000/svg">
<path d="M7.9844 5.0511C7.9844 5.0511 3.17466 6.38853 2.79968 6.90476C2.4247 7.42098 1.77848 8.37718 1.71974 10.4246C1.67224 12.067 2.58844 16.2905 7.09195 16.4305C11.6905 16.5742 13.4029 13.5444 14.2241 11.6683C14.964 9.97584 14.9515 8.0322 15.4203 7.13974C15.889 6.24729 16.3115 5.47358 16.289 4.46488C16.2665 3.45619 15.8902 2.58748 15.2328 2.16501C14.5753 1.74253 14.0128 1.81252 13.7316 1.74253C13.4504 1.67253 7.9844 5.0511 7.9844 5.0511Z" fill="#757E40"/>
<path d="M8.82817 3.36241C6.83328 4.18361 4.18217 4.95732 2.91599 6.74098C1.7723 8.3509 1.39107 10.3533 2.93973 12.6994C4.35341 14.8418 8.12196 15.7555 10.9406 13.7319C13.5217 11.8782 13.7554 9.1571 14.5304 7.3497C15.3053 5.54229 16.9352 3.16742 14.9766 1.99998C12.888 0.757545 10.4043 2.71369 8.82817 3.36241Z" fill="#AFB42A"/>
<path d="M14.5304 2.51733C13.5817 1.96986 12.3717 2.21234 11.0343 2.86981C9.69688 3.52728 8.66444 4.01975 8.19571 4.18349C7.72574 4.34723 3.73345 5.80966 2.96349 7.74955C2.32977 9.34447 2.49476 11.4331 4.15967 12.958C5.82459 14.4829 10.0256 14.3892 11.6443 12.0893C13.2629 9.78945 13.3329 7.93704 13.6854 7.11584C14.0379 6.29463 14.8054 5.09219 15.0229 4.44098C15.2803 3.66727 15.1403 2.86981 14.5304 2.51733Z" fill="#FFF69D"/>
<path d="M9.93064 6.97475C9.17943 6.08355 6.31708 6.36478 5.33214 7.77221C4.34719 9.17963 4.75717 10.3233 5.23839 10.9395C5.82461 11.6908 7.42078 12.3707 8.87445 11.362C10.3281 10.3533 10.7543 7.9522 9.93064 6.97475Z" fill="#855C52"/>
<path d="M6.91449 8.57723C6.54451 9.1197 6.7295 9.99465 6.09328 10.0359C5.45707 10.0772 5.08708 9.05595 5.53831 8.201C6.02579 7.27855 7.18072 6.86732 7.50946 7.3048C7.83944 7.74352 7.26572 8.06226 6.91449 8.57723Z" fill="#D67659"/>
</svg>
