<svg width="32" height="33" fill="none" xmlns="http://www.w3.org/2000/svg"><path d="M15.91 28.675c-6.199 0-12.888-3.888-12.888-12.421S9.711 3.832 15.911 3.832c3.444 0 6.621 1.134 8.977 3.2 2.555 2.267 3.91 5.466 3.91 9.222 0 3.755-1.355 6.933-3.91 9.2-2.356 2.066-5.555 3.221-8.977 3.221z" fill="url(#prefix__paint0_radial_2122_6520)"/><path d="M26.552 8.87c1.185 1.91 1.803 4.186 1.803 6.717 0 3.756-1.356 6.933-3.911 9.2-2.356 2.066-5.556 3.222-8.978 3.222-4.013 0-8.221-1.634-10.706-5.098 2.391 3.924 6.889 5.764 11.15 5.764 3.423 0 6.623-1.155 8.978-3.222 2.555-2.266 3.911-5.444 3.911-9.2 0-2.83-.771-5.346-2.247-7.383z" fill="#EB8F00"/><path d="M20.123 22.905c0 1.685-1.846 2.667-4.124 2.667-2.277 0-4.124-.989-4.124-2.667 0-1.677 1.847-3.522 4.124-3.522 2.278 0 4.124 1.838 4.124 3.522zM12.06 14.852l1.88-1.748c.267-.331.307-.778.038-1.045-.353-.355-.98-.269-1.32.136-.018.033-.03.042-.049.075l-1.333 1.938-1.804-1.682c-.027-.03-.042-.034-.067-.062-.42-.32-1.05-.267-1.315.157-.207.32-.07.745.264 1.011l2.313 1.372-1.96 1.833c-.262.326-.31.77-.04 1.044.351.358.978.276 1.32-.127.018-.033.031-.042.051-.075l1.405-2.031 1.706 1.609c.027.029.043.035.067.064.418.322 1.049.273 1.318-.149.206-.32.07-.746-.26-1.013l-2.213-1.307zM20.61 14.852l-1.879-1.748c-.267-.331-.307-.778-.036-1.045.354-.355.978-.269 1.318.136.018.033.034.042.051.075l1.334 1.938 1.806-1.682c.025-.03.04-.034.065-.062.422-.32 1.05-.267 1.317.157.205.32.067.745-.266 1.011L22 15.004l1.96 1.833c.268.33.313.775.042 1.044-.349.358-.976.276-1.318-.127-.02-.033-.033-.042-.051-.075l-1.404-2.031-1.71 1.609c-.024.029-.04.035-.066.064-.418.322-1.046.273-1.315-.149-.21-.32-.074-.746.257-1.013l2.216-1.307zM11.911 8.696c.511.044.711-.645.178-.8a4.07 4.07 0 00-1.289-.133A4.596 4.596 0 007.689 9.14c-.378.4.156.89.556.6a5.829 5.829 0 013.666-1.044zM20.044 8.696a5.85 5.85 0 013.689 1.044c.4.29.933-.2.555-.6a4.645 4.645 0 00-3.11-1.377 4.07 4.07 0 00-1.29.133.408.408 0 00-.282.504c.053.194.24.318.438.296z" fill="#422B0D"/><defs><radialGradient id="prefix__paint0_radial_2122_6520" cx="0" cy="0" r="1" gradientUnits="userSpaceOnUse" gradientTransform="translate(15.91 16.254) scale(12.657)"><stop offset=".5" stop-color="#FDE030"/><stop offset=".92" stop-color="#F7C02B"/><stop offset="1" stop-color="#F4A223"/></radialGradient></defs></svg>