<svg width="18" height="18" viewBox="0 0 18 18" fill="none" xmlns="http://www.w3.org/2000/svg">
<path d="M12.7781 9.56835C12.7781 9.56835 16.2542 8.88588 16.4192 10.1983C16.5154 10.972 16.2729 12.3944 14.963 13.5631C13.8756 14.5331 12.0582 15.3493 9.05957 15.2943C6.61595 15.2505 4.95354 14.6643 3.82485 14.0156C1.93495 12.9294 1.56122 11.457 1.65996 10.5333C1.80121 9.20836 3.92484 8.6009 4.02109 8.5459L12.7781 9.56835Z" fill="#F1B34F"/>
<path d="M1.91504 10.8869C1.91504 10.8869 3.91993 14.2142 9.13716 14.2317C14.7856 14.2517 16.5118 10.8781 16.418 10.1969C16.2405 8.89075 13.2307 8.62451 13.2307 8.62451L6.04857 10.3169L1.91504 9.8632V10.8869Z" fill="#FADFB1"/>
<path d="M1.93617 9.68343C1.93617 9.68343 1.61119 10.0734 1.66868 10.8171C1.71993 11.4771 2.3399 12.4495 3.42359 12.8008C4.38229 13.112 5.086 12.7545 6.07845 13.0757C7.0709 13.397 7.98585 14.3719 9.25203 14.2957C10.5182 14.2194 11.1907 13.3145 12.1044 13.182C13.4768 12.9833 14.133 13.352 15.1705 12.3283C16.3142 11.1996 16.3204 10.1484 16.3142 9.88716C16.3017 9.35969 15.9279 9.07471 15.9279 9.07471L3.3311 9.53593L1.93617 9.68343Z" fill="white"/>
<path d="M9.07957 2.68481C4.12483 2.68481 1.64246 5.27593 1.44747 8.23077C1.37248 9.36821 1.74246 10.1132 2.54867 10.8231C3.95609 12.0606 6.52471 12.8355 9.17832 12.8643C12.0219 12.8955 14.1793 12.1756 15.8305 9.99693C16.3692 9.28697 16.4279 8.88324 16.4504 8.09328C16.5192 5.61591 14.2905 2.68481 9.07957 2.68481Z" fill="url(#paint0_radial_721_145)"/>
<path d="M6.53842 7.24459C6.48217 7.12084 6.91715 6.9696 7.13339 6.81211C7.37088 6.63837 7.41462 6.43338 7.50087 6.42213C7.58711 6.41088 7.96584 6.52837 8.93954 6.54087C9.7945 6.55212 10.3357 6.32463 10.4107 6.38963C10.487 6.45463 10.5945 6.63837 10.8332 6.87711C11.0394 7.08334 11.2769 7.22334 11.2882 7.29958C11.2994 7.37583 10.7519 7.49207 10.6557 7.51332C10.5582 7.53457 7.43462 7.52582 7.43462 7.52582C7.43462 7.52582 7.25213 7.47207 7.10089 7.42958C6.94965 7.38458 6.59217 7.36333 6.53842 7.24459Z" fill="#FCDE8C"/>
<path d="M8.97213 7.99091C9.52335 7.99091 9.82458 7.82967 10.1946 7.69842C10.5808 7.56218 10.8983 7.44969 10.8983 7.44969C10.8983 7.44969 10.3246 6.86597 9.05837 6.86597C7.79219 6.86597 7.24097 7.46094 7.24097 7.46094C7.24097 7.46094 8.32341 7.99091 8.97213 7.99091Z" fill="white"/>
<path d="M5.67215 4.62494C5.52341 4.65869 5.51841 4.88618 5.47341 5.10117C5.38217 5.53365 5.58716 5.88363 5.97589 5.77238C6.42086 5.64489 6.31962 5.20866 6.05838 4.91868C5.90589 4.75119 5.82464 4.58994 5.67215 4.62494Z" fill="#F5E5C7"/>
<path d="M7.75965 4.31862C7.71965 4.42611 7.36842 4.49986 7.01094 4.45986C6.74595 4.42986 6.52346 4.16488 6.6647 3.86989C6.80845 3.57116 7.16593 3.53616 7.40841 3.77365C7.65715 4.01738 7.80339 4.19987 7.75965 4.31862Z" fill="#F5E5C7"/>
<path d="M8.52576 4.12493C8.44077 4.10743 8.16203 4.34617 8.10079 4.6124C8.03079 4.90989 8.23078 5.03238 8.39577 5.04988C8.59951 5.07113 8.747 4.91364 8.7595 4.7099C8.7695 4.50741 8.61701 4.14368 8.52576 4.12493Z" fill="#F5E5C7"/>
<path d="M4.20737 7.25711C4.26611 7.39835 4.4911 7.3621 4.71109 7.36835C5.15232 7.38085 5.46105 7.11836 5.28356 6.75463C5.07982 6.3384 4.66734 6.51715 4.42985 6.82463C4.29111 7.00462 4.14737 7.11336 4.20737 7.25711Z" fill="#F5E5C7"/>
<path d="M2.6774 7.23603C2.52491 7.22853 2.46116 7.44727 2.36117 7.64351C2.15993 8.03599 2.26492 8.42846 2.66865 8.42347C3.13113 8.41847 3.14738 7.96974 2.97239 7.62226C2.86989 7.41977 2.83364 7.24228 2.6774 7.23603Z" fill="#F5E5C7"/>
<path d="M14.0117 6.92965C14.163 6.9109 14.1892 6.68466 14.2567 6.47467C14.3892 6.05344 14.2205 5.68471 13.823 5.75721C13.3668 5.8397 13.4255 6.28468 13.6567 6.59841C13.7917 6.7809 13.8567 6.9484 14.0117 6.92965Z" fill="#F5E5C7"/>
<path d="M5.79346 9.21074C5.72096 9.15824 5.49097 9.22698 5.28598 9.30823C4.876 9.47072 4.69601 9.83445 5.00225 10.0969C5.35348 10.3982 5.66221 10.0719 5.75971 9.69571C5.8172 9.47697 5.88095 9.27448 5.79346 9.21074Z" fill="#F5E5C7"/>
<path d="M5.07238 8.79214C5.10738 8.72214 5.01364 8.53215 4.91989 8.38091C4.81115 8.20467 4.6874 8.02468 4.51491 7.97593C3.95994 7.81969 3.75995 8.52715 4.13243 8.75339C4.26868 8.83588 4.41242 8.84088 4.57116 8.84963C4.80865 8.85963 5.03864 8.85963 5.07238 8.79214Z" fill="#F5E5C7"/>
<path d="M3.81117 6.75339C3.78867 6.89463 3.16996 7.01212 2.85372 6.82088C2.47499 6.5909 2.67873 6.06092 3.12996 6.09967C3.51619 6.13467 3.83617 6.5934 3.81117 6.75339Z" fill="#F5E5C7"/>
<path d="M4.13105 5.98216C4.27729 6.02216 4.69977 5.70593 4.82351 5.47594C4.91351 5.30845 4.986 4.89222 4.69352 4.76098C4.36729 4.61474 4.08855 4.82972 4.00606 5.09846C3.90106 5.45344 4.00106 5.94717 4.13105 5.98216Z" fill="#F5E5C7"/>
<path d="M6.631 7.70587C6.65475 7.81462 6.44476 8.40959 5.95478 8.43208C5.6173 8.44708 5.32482 7.99336 5.74604 7.69962C6.06603 7.47838 6.61475 7.62713 6.631 7.70587Z" fill="#F5E5C7"/>
<path d="M7.05344 8.65468C6.9572 8.57343 6.45098 8.93591 6.29848 9.2009C6.20849 9.35839 6.14599 9.64588 6.51847 9.81462C6.87845 9.97836 7.07594 9.70212 7.12094 9.47713C7.16594 9.25215 7.12719 8.71717 7.05344 8.65468Z" fill="#F5E5C7"/>
<path d="M7.56088 10.4421C7.68462 10.6733 8.32584 10.5733 8.47833 10.5271C8.69832 10.4596 9.00955 10.2546 8.81081 9.82835C8.64707 9.47962 8.21959 9.55212 7.96085 9.7721C7.73712 9.96084 7.47588 10.2846 7.56088 10.4421Z" fill="#F5E5C7"/>
<path d="M9.62712 9.62576C9.49463 9.72326 9.59963 10.3195 9.67837 10.4982C9.77962 10.7295 10.1058 10.8195 10.3258 10.6507C10.5796 10.4557 10.5396 10.1332 10.3771 9.95825C10.2533 9.827 9.75587 9.52952 9.62712 9.62576Z" fill="#F5E5C7"/>
<path d="M10.5782 9.25952C10.5295 9.30327 10.0945 9.33326 9.78451 9.06828C9.60577 8.91579 9.61077 8.55455 9.79076 8.42081C9.98825 8.27457 10.2582 8.31957 10.432 8.5733C10.5407 8.72955 10.6345 9.20827 10.5782 9.25952Z" fill="#F5E5C7"/>
<path d="M11.2369 9.04573C11.3244 9.12198 11.8781 9.02823 12.0868 8.787C12.2006 8.6545 12.3631 8.37077 12.1431 8.16828C11.9231 7.96579 11.6643 8.00454 11.4394 8.28077C11.2719 8.48451 11.1469 8.96699 11.2369 9.04573Z" fill="#F5E5C7"/>
<path d="M13.3819 7.3848C13.3394 7.55479 12.7182 7.62479 12.4695 7.50854C12.2158 7.3898 12.2607 7.10357 12.312 6.97982C12.3632 6.85608 12.487 6.70984 12.8132 6.79983C13.1582 6.89483 13.4107 7.27231 13.3819 7.3848Z" fill="#F5E5C7"/>
<path d="M12.5143 9.30959C12.3756 9.27084 12.2943 9.46083 12.2043 9.54583C12.0918 9.65332 11.6194 10.1995 12.2218 10.3395C12.8256 10.4808 12.6606 9.81581 12.6381 9.68082C12.6231 9.58708 12.6156 9.33834 12.5143 9.30959Z" fill="#F5E5C7"/>
<path d="M13.1619 8.95576C13.1119 9.0995 13.3931 9.38324 13.5281 9.54698C13.6631 9.71072 13.9618 9.86196 14.1356 9.53573C14.3106 9.2095 14.0393 9.00701 13.7981 8.95076C13.5569 8.89326 13.2069 8.82577 13.1619 8.95576Z" fill="#F5E5C7"/>
<path d="M15.3192 7.79581C15.3192 7.89206 14.9817 8.16204 14.6042 8.17329C14.323 8.18204 14.1143 8.07955 14.1143 7.80206C14.1143 7.52083 14.368 7.36333 14.683 7.43083C14.8642 7.46833 15.3192 7.64332 15.3192 7.79581Z" fill="#F5E5C7"/>
<path d="M14.6654 6.97962C14.6942 7.09211 15.0317 7.12586 15.2729 7.13211C15.5154 7.13836 15.8129 7.05336 15.7004 6.72088C15.5879 6.3884 15.2554 6.47339 15.1316 6.53464C15.0092 6.59589 14.6279 6.82712 14.6654 6.97962Z" fill="#F5E5C7"/>
<path d="M13.6131 4.7547C13.5119 4.90094 13.7031 5.20468 13.8781 5.33967C14.0531 5.47466 14.2943 5.55966 14.4356 5.32217C14.5768 5.08593 14.3281 4.87219 14.1768 4.77595C14.0243 4.6822 13.7119 4.61221 13.6131 4.7547Z" fill="#F5E5C7"/>
<path d="M13.0444 5.03096C12.9781 4.98971 12.6281 5.07845 12.4257 5.26219C12.2157 5.45218 12.1382 5.72967 12.3919 5.92716C12.6369 6.11715 12.9031 5.93216 13.0106 5.67967C13.1119 5.44218 13.1194 5.0772 13.0444 5.03096Z" fill="#F5E5C7"/>
<path d="M10.3083 4.87363C10.3758 4.77989 10.2521 4.27742 10.0946 4.08493C9.93711 3.89369 9.73962 3.81994 9.52088 3.98368C9.34839 4.11242 9.28465 4.46241 9.53213 4.6424C9.80087 4.83989 10.2346 4.97488 10.3083 4.87363Z" fill="#F5E5C7"/>
<path d="M10.5044 4.09607C10.5882 4.15732 10.8932 4.11357 11.1006 3.97733C11.3081 3.84109 11.3394 3.62485 11.2194 3.47611C11.0731 3.29611 10.8369 3.36361 10.6682 3.5836C10.5207 3.77484 10.3982 4.01733 10.5044 4.09607Z" fill="#F5E5C7"/>
<path d="M11.0059 4.82243C11.0734 5.00242 11.7496 4.96368 11.9458 4.87868C12.1433 4.79369 12.2808 4.61495 12.1708 4.35496C12.0471 4.06247 11.8521 4.06122 11.7096 4.10122C11.4283 4.18122 10.9396 4.64619 11.0059 4.82243Z" fill="#F5E5C7"/>
<defs>
<radialGradient id="paint0_radial_721_145" cx="0" cy="0" r="1" gradientUnits="userSpaceOnUse" gradientTransform="translate(9.02655 6.51166) rotate(-0.374469) scale(8.19673 5.34427)">
<stop offset="0.1616" stop-color="#F1B14A"/>
<stop offset="0.1688" stop-color="#F1B049"/>
<stop offset="0.3704" stop-color="#E89825"/>
<stop offset="0.5354" stop-color="#E28810"/>
<stop offset="0.6425" stop-color="#E08308"/>
<stop offset="0.7125" stop-color="#E1860D"/>
<stop offset="0.7924" stop-color="#E5901B"/>
<stop offset="0.877" stop-color="#EBA031"/>
<stop offset="0.947" stop-color="#F1B14A"/>
</radialGradient>
</defs>
</svg>
