<svg width="18" height="18" viewBox="0 0 18 18" fill="none" xmlns="http://www.w3.org/2000/svg">
<path d="M3.78857 14.527C3.78857 14.527 6.19095 17.0543 10.312 16.4131C14.433 15.7731 16.0854 12.1596 16.4254 10.0997C16.8579 7.47608 15.6592 5.67242 15.5955 5.57368C15.548 5.50118 3.78857 14.527 3.78857 14.527Z" fill="#DC5819"/>
<path d="M3.60104 3.68857C1.13242 6.28719 0.713693 10.0832 2.56984 13.0168C3.43355 14.3818 3.96227 14.6592 3.96227 14.6592C3.96227 14.6592 8.00081 17.2491 12.5393 13.3231C16.4266 9.96074 15.6029 5.58222 15.6029 5.58222C15.6029 5.58222 15.1179 4.52228 14.098 3.51608C11.8344 1.2812 6.77462 0.346251 3.60104 3.68857Z" fill="#EF6C32"/>
<path d="M13.4956 3.00498C13.4594 3.00748 9.84832 3.26746 6.02852 8.40219C3.61615 11.6445 3.73489 13.9332 3.82864 14.5606C3.82864 14.5606 3.6449 14.4094 3.5149 14.2694C3.38491 14.1306 3.28366 14.0069 3.28366 14.0069C3.27366 12.9082 3.6024 10.8258 5.62854 8.10346C8.71213 3.95493 11.6607 2.87374 12.8969 2.59375C12.8969 2.59375 13.0481 2.6825 13.1944 2.77374C13.3019 2.84124 13.4956 3.00498 13.4956 3.00498Z" fill="#2D3130"/>
<path d="M2.94616 4.47241C3.34738 5.13113 4.31608 6.5548 5.99349 8.04097C8.10463 9.91337 10.2995 11.4358 12.5144 12.5645C13.5606 13.0982 14.3643 13.4107 14.933 13.5944C14.933 13.5944 14.8505 13.7207 14.773 13.8244C14.6955 13.9282 14.6105 14.0157 14.6105 14.0157C14.0318 13.8194 13.2594 13.5069 12.2857 13.0095C10.0333 11.8608 7.8034 10.3146 5.66101 8.4147C4.0736 7.00728 3.11115 5.67485 2.63867 4.92864C2.63867 4.92864 2.70492 4.79739 2.79241 4.68115C2.87991 4.56491 2.94616 4.47241 2.94616 4.47241Z" fill="#2D3130"/>
<path d="M7.64719 1.59619C7.46845 1.79993 7.21346 2.13116 6.91598 2.63239C6.64349 3.08986 6.5035 3.54484 6.34101 4.07231C6.07477 4.93727 5.77353 5.91721 4.78734 7.16965C3.41741 8.90956 2.07123 9.49078 1.44376 9.67702C1.44376 9.67702 1.42626 9.51452 1.42002 9.40078C1.41377 9.28704 1.41627 9.15829 1.41627 9.15829C2.01248 8.95455 3.19242 8.38458 4.39361 6.86091C5.32231 5.68098 5.60854 4.74853 5.86228 3.92607C6.02727 3.3911 6.18226 2.88612 6.486 2.3774C6.62974 2.13616 6.76473 1.92992 6.88848 1.75743C6.88848 1.75743 7.02722 1.71119 7.21721 1.66869C7.3647 1.63369 7.64719 1.59619 7.64719 1.59619Z" fill="#2D3130"/>
<path d="M9.58958 16.5004C9.17085 16.1217 8.30589 15.2568 7.67468 14.0531C6.97596 12.7219 6.64848 10.7195 7.58093 9.46831C8.64588 8.04088 10.6345 7.84714 12.4419 7.84714C12.4444 7.84714 12.4469 7.84714 12.4494 7.84714C14.7506 7.84839 16.4817 8.32962 16.5017 8.33587C16.5017 8.33587 16.488 8.16712 16.4692 8.02338C16.453 7.89964 16.4355 7.78464 16.4355 7.78464C16.348 7.76215 14.8181 7.34842 12.4494 7.34717C12.4469 7.34717 12.4444 7.34717 12.4419 7.34717C10.5108 7.34717 8.37589 7.56466 7.1797 9.16957C6.40974 10.202 6.12726 12.1844 7.2322 14.2856C7.75217 15.2755 8.40714 16.0392 8.88586 16.5204C8.88586 16.5204 9.02586 16.5254 9.2046 16.5229C9.38084 16.5204 9.58958 16.5004 9.58958 16.5004Z" fill="#2D3130"/>
</svg>
