<svg width="33" height="32" viewBox="0 0 33 32" fill="none" xmlns="http://www.w3.org/2000/svg">
<path d="M25.3952 7.11163L7.6041 7.08496C4.25702 7.08496 3.16577 8.44291 3.16577 11.2766V20.7C3.16577 23.0181 3.88586 24.8916 7.60633 24.8916L25.3974 24.9183C28.7379 24.9183 29.838 23.487 29.838 20.7267V11.3033C29.8358 8.18954 28.6534 7.11163 25.3952 7.11163Z" fill="#504F4F"/>
<path d="M25.8508 22.798H23.922C23.062 22.798 22.6221 22.1224 22.6221 21.2647C22.6221 20.4047 23.062 19.7314 23.922 19.7314H25.8508C26.7107 19.7314 27.1507 20.407 27.1507 21.2647C27.1463 22.0624 26.7063 22.798 25.8508 22.798Z" fill="black"/>
<path d="M25.7441 21.7801H24.0108C23.5575 21.7801 23.5686 21.5534 23.5686 21.2646C23.5686 20.9757 23.5575 20.749 24.0108 20.749H25.7441C26.1974 20.749 26.2063 20.9757 26.2063 21.2646C26.204 21.5312 26.1952 21.7801 25.7441 21.7801Z" fill="#8BC34A"/>
<path d="M9.08004 22.798H7.15125C6.2913 22.798 5.85132 22.1224 5.85132 21.2647C5.85132 20.4047 6.2913 19.7314 7.15125 19.7314H9.08004C9.93999 19.7314 10.38 20.407 10.38 21.2647C10.38 22.0624 9.93777 22.798 9.08004 22.798Z" fill="black"/>
<path d="M8.11556 22.1896C8.62609 22.1896 9.03995 21.7757 9.03995 21.2652C9.03995 20.7547 8.62609 20.3408 8.11556 20.3408C7.60503 20.3408 7.19116 20.7547 7.19116 21.2652C7.19116 21.7757 7.60503 22.1896 8.11556 22.1896Z" fill="#F44336"/>
<path d="M20.2592 22.798H18.3305C17.4705 22.798 17.0305 22.1224 17.0305 21.2647C17.0305 20.4047 17.4705 19.7314 18.3305 19.7314H20.2592C21.1192 19.7314 21.5592 20.407 21.5592 21.2647C21.5614 22.0624 21.1192 22.798 20.2592 22.798Z" fill="black"/>
<path d="M18.844 20.3408L20.375 21.2652L18.844 22.1896V20.3408Z" fill="#EEEEEE"/>
<path d="M12.7423 22.798H14.6711C15.5311 22.798 15.971 22.1224 15.971 21.2647C15.971 20.4047 15.5311 19.7314 14.6711 19.7314H12.7423C11.8824 19.7314 11.4424 20.407 11.4424 21.2647C11.4402 22.0624 11.8824 22.798 12.7423 22.798Z" fill="black"/>
<path d="M14.158 20.3408L12.627 21.2652L14.158 22.1896V20.3408Z" fill="#EEEEEE"/>
<path d="M26.6225 16.5808C26.6225 17.0519 26.2514 17.4252 25.778 17.4252H7.21345C6.74228 17.4252 6.3689 17.0541 6.3689 16.5808V11.0944C6.3689 10.6233 6.74005 10.25 7.21345 10.25H25.778C26.2492 10.25 26.6225 10.6211 26.6225 11.0944V16.5808Z" fill="#8DCC47"/>
<path opacity="0.5" d="M11.5296 13.2373L11.1674 13.5995C11.1119 13.655 11.0208 13.655 10.9652 13.5995L10.603 13.2373C10.5741 13.2084 10.5608 13.1728 10.5608 13.135V12.1262C10.5608 12.0884 10.5763 12.0529 10.603 12.024L10.9652 11.6618C11.0208 11.6062 11.1119 11.6062 11.1674 11.6618L11.5296 12.024C11.5585 12.0529 11.5718 12.0884 11.5718 12.1262V13.135C11.5718 13.175 11.5563 13.2106 11.5296 13.2373Z" fill="black"/>
<path opacity="0.5" d="M11.5296 15.6503L11.1674 16.0125C11.1119 16.0681 11.0208 16.0681 10.9652 16.0125L10.603 15.6503C10.5741 15.6215 10.5608 15.5859 10.5608 15.5481V14.5393C10.5608 14.5015 10.5763 14.466 10.603 14.4371L10.9652 14.0749C11.0208 14.0193 11.1119 14.0193 11.1674 14.0749L11.5296 14.4371C11.5585 14.466 11.5718 14.5015 11.5718 14.5393V15.5481C11.5718 15.5881 11.5563 15.6237 11.5296 15.6503Z" fill="black"/>
<path opacity="0.5" d="M13.3873 13.2373L13.0251 13.5995C12.9695 13.655 12.8784 13.655 12.8229 13.5995L12.4607 13.2373C12.4318 13.2084 12.4185 13.1728 12.4185 13.135V12.1262C12.4185 12.0884 12.434 12.0529 12.4607 12.024L12.8229 11.6618C12.8784 11.6062 12.9695 11.6062 13.0251 11.6618L13.3873 12.024C13.4162 12.0529 13.4295 12.0884 13.4295 12.1262V13.135C13.4295 13.175 13.414 13.2106 13.3873 13.2373Z" fill="black"/>
<path opacity="0.5" d="M16.0323 13.2373L15.6701 13.5995C15.6146 13.655 15.5235 13.655 15.4679 13.5995L15.1057 13.2373C15.0768 13.2084 15.0635 13.1728 15.0635 13.135V12.1262C15.0635 12.0884 15.079 12.0529 15.1057 12.024L15.4679 11.6618C15.5235 11.6062 15.6146 11.6062 15.6701 11.6618L16.0323 12.024C16.0612 12.0529 16.0745 12.0884 16.0745 12.1262V13.135C16.0745 13.175 16.059 13.2106 16.0323 13.2373Z" fill="black"/>
<path opacity="0.5" d="M16.0323 15.6503L15.6701 16.0125C15.6146 16.0681 15.5235 16.0681 15.4679 16.0125L15.1057 15.6503C15.0768 15.6215 15.0635 15.5859 15.0635 15.5481V14.5393C15.0635 14.5015 15.079 14.466 15.1057 14.4371L15.4679 14.0749C15.5235 14.0193 15.6146 14.0193 15.6701 14.0749L16.0323 14.4371C16.0612 14.466 16.0745 14.5015 16.0745 14.5393V15.5481C16.0745 15.5881 16.059 15.6237 16.0323 15.6503Z" fill="black"/>
<path opacity="0.5" d="M13.6409 11.8868L13.2787 11.5246C13.2232 11.4691 13.2232 11.3779 13.2787 11.3224L13.6409 10.9602C13.6698 10.9313 13.7054 10.918 13.7431 10.918H14.7542C14.792 10.918 14.8275 10.9335 14.8564 10.9602L15.2186 11.3224C15.2742 11.3779 15.2742 11.4691 15.2186 11.5246L14.8564 11.8868C14.8275 11.9157 14.792 11.929 14.7542 11.929H13.7431C13.7031 11.929 13.6676 11.9135 13.6409 11.8868Z" fill="black"/>
<path opacity="0.5" d="M13.6409 14.3018L13.2787 13.9396C13.2232 13.8841 13.2232 13.793 13.2787 13.7374L13.6409 13.3752C13.6698 13.3463 13.7054 13.333 13.7431 13.333H14.7542C14.792 13.333 14.8275 13.3486 14.8564 13.3752L15.2186 13.7374C15.2742 13.793 15.2742 13.8841 15.2186 13.9396L14.8564 14.3018C14.8275 14.3307 14.792 14.3441 14.7542 14.3441H13.7431C13.7031 14.3441 13.6676 14.3285 13.6409 14.3018Z" fill="black"/>
<path opacity="0.5" d="M13.6409 16.7149L13.2787 16.3527C13.2232 16.2972 13.2232 16.2061 13.2787 16.1505L13.6409 15.7883C13.6698 15.7594 13.7054 15.7461 13.7431 15.7461H14.7542C14.792 15.7461 14.8275 15.7616 14.8564 15.7883L15.2186 16.1505C15.2742 16.2061 15.2742 16.2972 15.2186 16.3527L14.8564 16.7149C14.8275 16.7438 14.792 16.7572 14.7542 16.7572H13.7431C13.7031 16.7572 13.6676 16.7416 13.6409 16.7149Z" fill="black"/>
<path opacity="0.5" d="M17.8902 13.2373L17.528 13.5995C17.4725 13.655 17.3814 13.655 17.3258 13.5995L16.9636 13.2373C16.9347 13.2084 16.9214 13.1728 16.9214 13.135V12.1262C16.9214 12.0884 16.9369 12.0529 16.9636 12.024L17.3258 11.6618C17.3814 11.6062 17.4725 11.6062 17.528 11.6618L17.8902 12.024C17.9191 12.0529 17.9324 12.0884 17.9324 12.1262V13.135C17.9324 13.175 17.9169 13.2106 17.8902 13.2373Z" fill="black"/>
<path opacity="0.5" d="M20.5374 13.2373L20.1752 13.5995C20.1197 13.655 20.0286 13.655 19.973 13.5995L19.6108 13.2373C19.5819 13.2084 19.5686 13.1728 19.5686 13.135V12.1262C19.5686 12.0884 19.5842 12.0529 19.6108 12.024L19.973 11.6618C20.0286 11.6062 20.1197 11.6062 20.1752 11.6618L20.5374 12.024C20.5663 12.0529 20.5797 12.0884 20.5797 12.1262V13.135C20.5774 13.175 20.5619 13.2106 20.5374 13.2373Z" fill="black"/>
<path opacity="0.5" d="M20.5374 15.6503L20.1752 16.0125C20.1197 16.0681 20.0286 16.0681 19.973 16.0125L19.6108 15.6503C19.5819 15.6215 19.5686 15.5859 19.5686 15.5481V14.5393C19.5686 14.5015 19.5842 14.466 19.6108 14.4371L19.973 14.0749C20.0286 14.0193 20.1197 14.0193 20.1752 14.0749L20.5374 14.4371C20.5663 14.466 20.5797 14.5015 20.5797 14.5393V15.5481C20.5774 15.5881 20.5619 15.6237 20.5374 15.6503Z" fill="black"/>
<path opacity="0.5" d="M18.1434 11.8868L17.7812 11.5246C17.7256 11.4691 17.7256 11.3779 17.7812 11.3224L18.1434 10.9602C18.1723 10.9313 18.2078 10.918 18.2456 10.918H19.2566C19.2944 10.918 19.33 10.9335 19.3589 10.9602L19.7211 11.3224C19.7766 11.3779 19.7766 11.4691 19.7211 11.5246L19.3589 11.8868C19.33 11.9157 19.2944 11.929 19.2566 11.929H18.2456C18.2056 11.929 18.17 11.9135 18.1434 11.8868Z" fill="black"/>
<path opacity="0.5" d="M18.1434 14.3018L17.7812 13.9396C17.7256 13.8841 17.7256 13.793 17.7812 13.7374L18.1434 13.3752C18.1723 13.3463 18.2078 13.333 18.2456 13.333H19.2566C19.2944 13.333 19.33 13.3486 19.3589 13.3752L19.7211 13.7374C19.7766 13.793 19.7766 13.8841 19.7211 13.9396L19.3589 14.3018C19.33 14.3307 19.2944 14.3441 19.2566 14.3441H18.2456C18.2056 14.3441 18.17 14.3285 18.1434 14.3018Z" fill="black"/>
<path opacity="0.5" d="M18.1434 16.7149L17.7812 16.3527C17.7256 16.2972 17.7256 16.2061 17.7812 16.1505L18.1434 15.7883C18.1723 15.7594 18.2078 15.7461 18.2456 15.7461H19.2566C19.2944 15.7461 19.33 15.7616 19.3589 15.7883L19.7211 16.1505C19.7766 16.2061 19.7766 16.2972 19.7211 16.3527L19.3589 16.7149C19.33 16.7438 19.2944 16.7572 19.2566 16.7572H18.2456C18.2056 16.7572 18.17 16.7416 18.1434 16.7149Z" fill="black"/>
<path opacity="0.5" d="M22.3951 13.2373L22.0329 13.5995C21.9774 13.655 21.8862 13.655 21.8307 13.5995L21.4685 13.2373C21.4396 13.2084 21.4263 13.1728 21.4263 13.135V12.1262C21.4263 12.0884 21.4418 12.0529 21.4685 12.024L21.8307 11.6618C21.8862 11.6062 21.9774 11.6062 22.0329 11.6618L22.3951 12.024C22.424 12.0529 22.4373 12.0884 22.4373 12.1262V13.135C22.4351 13.175 22.4195 13.2106 22.3951 13.2373Z" fill="black"/>
<path opacity="0.5" d="M25.0379 13.2373L24.6757 13.5995C24.6202 13.655 24.5291 13.655 24.4735 13.5995L24.1113 13.2373C24.0824 13.2084 24.0691 13.1728 24.0691 13.135V12.1262C24.0691 12.0884 24.0846 12.0529 24.1113 12.024L24.4735 11.6618C24.5291 11.6062 24.6202 11.6062 24.6757 11.6618L25.0379 12.024C25.0668 12.0529 25.0801 12.0884 25.0801 12.1262V13.135C25.0824 13.175 25.0668 13.2106 25.0379 13.2373Z" fill="black"/>
<path opacity="0.5" d="M22.3951 15.6503L22.0329 16.0125C21.9774 16.0681 21.8862 16.0681 21.8307 16.0125L21.4685 15.6503C21.4396 15.6215 21.4263 15.5859 21.4263 15.5481V14.5393C21.4263 14.5015 21.4418 14.466 21.4685 14.4371L21.8307 14.0749C21.8862 14.0193 21.9774 14.0193 22.0329 14.0749L22.3951 14.4371C22.424 14.466 22.4373 14.5015 22.4373 14.5393V15.5481C22.4351 15.5881 22.4195 15.6237 22.3951 15.6503Z" fill="black"/>
<path opacity="0.5" d="M25.0379 15.6503L24.6757 16.0125C24.6202 16.0681 24.5291 16.0681 24.4735 16.0125L24.1113 15.6503C24.0824 15.6215 24.0691 15.5859 24.0691 15.5481V14.5393C24.0691 14.5015 24.0846 14.466 24.1113 14.4371L24.4735 14.0749C24.5291 14.0193 24.6202 14.0193 24.6757 14.0749L25.0379 14.4371C25.0668 14.466 25.0801 14.5015 25.0801 14.5393V15.5481C25.0824 15.5881 25.0668 15.6237 25.0379 15.6503Z" fill="black"/>
<path opacity="0.5" d="M22.6487 11.8868L22.2865 11.5246C22.231 11.4691 22.231 11.3779 22.2865 11.3224L22.6487 10.9602C22.6776 10.9313 22.7132 10.918 22.751 10.918H23.762C23.7998 10.918 23.8353 10.9335 23.8642 10.9602L24.2264 11.3224C24.282 11.3779 24.282 11.4691 24.2264 11.5246L23.8642 11.8868C23.8353 11.9157 23.7998 11.929 23.762 11.929H22.751C22.711 11.929 22.6732 11.9135 22.6487 11.8868Z" fill="black"/>
<path opacity="0.5" d="M22.6487 14.3018L22.2865 13.9396C22.231 13.8841 22.231 13.793 22.2865 13.7374L22.6487 13.3752C22.6776 13.3463 22.7132 13.333 22.751 13.333H23.762C23.7998 13.333 23.8353 13.3486 23.8642 13.3752L24.2264 13.7374C24.282 13.793 24.282 13.8841 24.2264 13.9396L23.8642 14.3018C23.8353 14.3307 23.7998 14.3441 23.762 14.3441H22.751C22.711 14.3441 22.6732 14.3285 22.6487 14.3018Z" fill="black"/>
<path opacity="0.5" d="M22.6487 16.7149L22.2865 16.3527C22.231 16.2972 22.231 16.2061 22.2865 16.1505L22.6487 15.7883C22.6776 15.7594 22.7132 15.7461 22.751 15.7461H23.762C23.7998 15.7461 23.8353 15.7616 23.8642 15.7883L24.2264 16.1505C24.282 16.2061 24.282 16.2972 24.2264 16.3527L23.8642 16.7149C23.8353 16.7438 23.7998 16.7572 23.762 16.7572H22.751C22.711 16.7572 22.6732 16.7416 22.6487 16.7149Z" fill="black"/>
<path d="M25.7801 10.2509C26.2513 10.2509 26.6247 10.622 26.6247 11.0954V16.5805C26.6247 17.0517 26.2535 17.4251 25.7801 17.4251H7.21336C6.74219 17.4251 6.36881 17.0539 6.36881 16.5805V11.0954C6.36881 10.6242 6.73997 10.2509 7.21336 10.2509H25.7801ZM25.7801 9.09961H7.21336C6.111 9.09961 5.21533 9.99528 5.21533 11.0976V16.5828C5.21533 17.6851 6.111 18.5808 7.21336 18.5808H25.7779C26.8803 18.5808 27.7759 17.6851 27.7759 16.5828V11.0954C27.7759 9.99528 26.8803 9.09961 25.7801 9.09961Z" fill="black"/>
</svg>
