<svg width="18" height="18" viewBox="0 0 18 18" fill="none" xmlns="http://www.w3.org/2000/svg">
<path d="M1.53866 2.43392C1.32492 2.80765 1.6599 3.60261 3.29731 3.92759C5.33596 4.33257 7.53209 3.51261 9.18825 3.80135C10.1307 3.96634 10.7282 4.18008 11.0707 4.33507C11.3369 4.45631 11.3369 4.46631 11.3369 4.46631L11.7594 3.12638C11.7594 3.12638 10.5832 2.48892 9.00576 2.41892C7.42835 2.34893 6.25591 2.86515 4.69224 2.8239C2.33487 2.7614 1.87364 1.8477 1.53866 2.43392Z" fill="#966738"/>
<path d="M13.7792 6.71613L15.0767 6.18616C15.0767 6.18616 15.7491 7.12486 15.9866 8.96726C16.2704 11.1684 15.5816 12.6246 15.8054 13.867C16.0291 15.1094 16.5178 15.7794 16.4753 16.0731C16.4328 16.3669 16.2241 16.6869 15.9454 16.5344C15.6666 16.3806 14.7967 15.2632 14.7592 13.7145C14.7167 11.9971 15.1929 10.5647 14.8017 9.03851C14.3667 7.34735 13.7792 6.71613 13.7792 6.71613Z" fill="#966738"/>
<path d="M11.6594 3.07629L11.0981 4.34873C11.0981 4.34873 11.8494 4.67996 12.6781 5.43492C13.4018 6.09488 13.9205 6.90109 13.9205 6.90109L15.0792 6.18863C15.0792 6.18863 14.478 5.12369 13.5993 4.35998C12.5531 3.45002 11.6594 3.07629 11.6594 3.07629Z" fill="#D29F6C"/>
<path d="M13.8368 3.62756L5.21472 12.4546L5.25222 12.8646L5.6247 12.9208L14.3405 4.11254L13.8368 3.62756Z" fill="#F3C976"/>
<path d="M14.2167 3.2026L13.768 3.70382L14.2605 4.1963L14.7805 3.72132C14.7805 3.72132 15.6079 3.88006 15.6967 3.82757C15.8179 3.75507 16.5441 1.50894 16.5066 1.45019C16.4454 1.35395 15.6867 1.65768 15.2042 1.82892C14.6317 2.03141 14.148 2.2264 14.1042 2.2864C14.0055 2.41889 14.2167 3.2026 14.2167 3.2026Z" fill="#858585"/>
<path d="M15.4192 16.2531C15.3979 16.2531 15.3754 16.2506 15.3542 16.2444L4.93848 13.422C4.85349 13.3983 4.78599 13.3321 4.76349 13.2471L2.10863 3.61756C2.09613 3.57132 2.09613 3.52382 2.11113 3.47757L2.43361 2.41138L2.91109 2.56637L2.6636 3.73006L5.18722 12.9146L15.3192 15.7457L16.0741 14.8745L16.2641 15.3657L15.6129 16.1644C15.5629 16.2219 15.4929 16.2531 15.4192 16.2531Z" fill="#B8CED4"/>
<path d="M5.22598 12.5245L5.6247 12.9208C5.6247 12.9208 5.20348 13.432 5.13598 13.4382C5.09598 13.442 4.74975 13.1583 4.77725 13.0958C4.80475 13.0345 5.22598 12.5245 5.22598 12.5245Z" fill="#5D6265"/>
<path d="M7.46208 10.221C7.45833 10.231 6.79712 10.9272 6.18715 11.5709C5.71468 12.0697 5.2672 12.5534 5.23345 12.5534C5.15721 12.5534 4.46849 11.9034 4.45724 11.7522C4.44599 11.6009 5.49969 10.6922 5.99966 10.3385C7.03211 9.60728 7.46208 10.221 7.46208 10.221Z" fill="#DB0D2A"/>
<path d="M7.85453 10.6246C7.82829 10.6484 7.07083 11.4208 6.44211 12.0621C6.01088 12.502 5.6284 12.8783 5.6234 12.9145C5.61715 12.9658 6.20087 13.6407 6.26212 13.6407C6.37461 13.6407 7.4783 12.4633 7.82079 11.8696C8.32576 10.9946 7.85453 10.6246 7.85453 10.6246Z" fill="#DB0D2A"/>
</svg>
