<svg width="18" height="18" viewBox="0 0 18 18" fill="none" xmlns="http://www.w3.org/2000/svg">
<path d="M6.97592 1.44005C6.96717 1.62005 6.80718 16.5155 6.82593 16.5918C6.84468 16.668 7.93962 16.6468 7.93962 16.603C7.93962 16.5068 8.13336 1.5488 8.12961 1.4513C8.12586 1.39131 6.97842 1.37256 6.97592 1.44005Z" fill="#FFD51D"/>
<path d="M6.97341 1.55371C6.97341 1.55371 7.35339 2.06868 7.59088 2.37742C7.80337 2.65365 8.1121 3.00363 8.1121 3.00363L8.1021 3.75359C8.1021 3.75359 7.62213 3.21612 7.37964 2.92739C7.11715 2.61615 6.96466 2.36867 6.96466 2.36867L6.97341 1.55371Z" fill="#FDA726"/>
<path d="M6.93969 4.33862C6.93969 4.33862 7.18218 4.76485 7.49716 5.16858C7.7534 5.49731 8.07338 5.79355 8.07338 5.79355L8.05713 7.27597L6.90344 7.05973L6.93969 4.33862Z" fill="#FDA726"/>
<path d="M6.86471 11.6094L6.86096 12.1306C6.86096 12.1306 7.09095 12.5144 7.38343 12.8468C7.62717 13.1231 7.9784 13.4968 7.9784 13.4968L8.00215 11.6094L7.52968 11.3782L6.86471 11.6094Z" fill="#FDA726"/>
<path d="M6.84093 14.1719C6.84093 14.1719 7.20967 14.6531 7.4659 14.9406C7.66964 15.1693 7.95463 15.4693 7.95463 15.4693L7.94463 16.1855C7.94463 16.1855 7.4659 15.7018 7.24966 15.4693C7.03342 15.2368 6.83344 15.0043 6.83344 15.0043L6.84093 14.1719Z" fill="#FDA726"/>
<path d="M2.10621 13.4207C2.10621 13.4207 1.91872 13.1407 2.03371 12.782C2.15496 12.402 2.42994 12.262 2.55869 11.9583C2.73618 11.5383 2.69493 11.1983 3.02741 10.8833C3.32615 10.6008 3.73862 10.7058 4.10236 10.6008C4.46609 10.4958 4.61983 10.2771 4.61983 10.2771L5.46853 10.5358C5.46853 10.5358 5.35604 11.4808 5.01606 11.4645C4.67608 11.4483 3.50489 11.667 3.48114 11.7145C3.45739 11.7633 2.41494 13.4032 2.41494 13.4032L2.10621 13.4207Z" fill="#8A867E"/>
<path d="M9.99951 11.3682C10.0158 11.4407 10.2907 11.8369 10.727 12.1919C11.1632 12.5469 11.8094 12.8056 12.0282 12.9681C12.2469 13.1294 12.4081 13.2019 12.6744 13.5581C12.9406 13.9143 13.0294 14.1318 13.2243 14.4068C13.4181 14.6818 13.6206 14.8755 13.7981 15.013C13.9818 15.1543 14.3555 15.3767 14.4205 15.368C14.4855 15.3605 14.768 14.7705 14.768 14.7705C14.768 14.7705 13.9143 13.7981 13.7231 13.4681C13.5318 13.1394 13.1493 12.6181 12.7244 12.3744C12.5119 12.2519 11.1232 10.5208 11.1232 10.5208L9.99951 11.3682Z" fill="#8A867E"/>
<path d="M12.6732 7.68727C12.6732 7.68727 12.8119 7.52478 12.9019 7.46228C13.0156 7.38228 13.1081 7.33604 13.2881 7.33229C13.4506 7.32979 13.9506 7.76476 13.9506 7.76476C13.9506 7.76476 15.133 9.9559 15.1368 9.95215C15.1405 9.9484 15.9055 10.8246 15.8917 10.8071C15.878 10.7884 16.3617 11.0371 16.3617 11.0371C16.3617 11.0371 16.2792 11.5821 15.3143 11.5533C14.3706 11.5258 13.7743 10.9896 13.4394 10.2771C13.2781 9.93465 13.2531 9.31343 13.2531 9.31343L12.6732 7.68727Z" fill="#7A57BD"/>
<path d="M13.0581 7.3709C13.0581 7.3709 13.1256 7.67214 13.3706 7.88963C13.6156 8.10587 13.8306 8.29586 14.0006 8.56834C14.1705 8.84083 14.5543 9.83452 15.0468 10.4145C15.5392 10.9945 15.7255 11.032 15.9167 11.102C16.0779 11.1607 16.2342 11.1545 16.2917 11.132C16.3804 11.0995 16.4642 10.927 16.0592 10.5532C15.6542 10.1795 15.4005 9.73703 15.178 9.29205C14.9555 8.84708 14.8443 7.85338 14.233 7.4409C13.6218 7.02967 13.0581 7.3709 13.0581 7.3709Z" fill="#A47FCC"/>
<path d="M13.0418 7.92847C13.0418 7.92847 13.4293 8.43219 13.4131 9.12215C13.3968 9.81212 13.0606 10.3008 13.0606 10.7096C13.0606 11.1183 13.1493 11.3995 13.5493 11.5195C13.9505 11.6395 14.1668 11.712 14.2393 11.8808C14.3118 12.0495 14.2955 12.4745 14.4793 12.827C14.663 13.1794 14.803 13.2607 14.888 13.4444C14.9842 13.6494 15.0005 13.9894 15.0005 13.9894C15.0005 13.9894 14.8005 14.9593 14.568 14.5506C14.3355 14.1419 13.5331 12.482 13.3093 12.2895C13.0843 12.097 11.8819 10.7733 11.8819 10.7021C11.8819 10.6308 13.0418 7.92847 13.0418 7.92847Z" fill="#ACA399"/>
<path d="M2.77615 13.5869L3.23113 13.6507L3.25238 13.322C3.25238 13.322 3.40112 13.0145 3.54861 12.8132C3.69735 12.612 3.83485 12.3895 4.11983 12.347C4.40607 12.3045 6.21597 12.347 6.36471 12.262C6.51346 12.177 6.81969 11.7958 6.81969 11.7958C6.81969 11.7958 7.91338 11.8908 9.04332 11.6583C9.84828 11.492 10.377 11.4358 10.377 11.4358L11.1707 11.3621C11.1707 11.3621 12.0069 10.9921 11.9857 10.9171C11.9644 10.8433 11.3395 9.70964 11.2757 9.74214C11.212 9.77339 6.43721 10.2184 6.36346 10.3034C6.28972 10.3884 5.42101 11.2771 5.42101 11.2771C5.42101 11.2771 3.51486 11.7745 3.48362 11.7858C3.45237 11.7958 2.65741 13.4482 2.65741 13.4482L2.77615 13.5869Z" fill="#ACA399"/>
<path d="M4.02607 9.23706C4.02607 9.23706 4.02107 8.84833 4.08232 8.36336C4.14106 7.89338 4.24981 7.37216 4.26106 6.96968C4.27356 6.52095 4.22231 6.25472 4.17481 6.23972C4.12857 6.22472 3.90233 6.75969 3.90233 6.75969C3.90233 6.75969 3.91608 7.00218 3.81233 7.24092C3.68984 7.52215 3.49485 7.42216 3.49485 7.42216L3.26361 6.6372L3.71484 5.39101L3.95607 3.6936L4.75853 4.26232L5.296 6.40471L5.10851 8.4371L4.56979 9.44955L4.02607 9.23706Z" fill="#ACA399"/>
<path d="M11.2245 7.05347L10.6982 8.3184L11.287 11.0195L10.7832 11.412C10.7832 11.412 11.1532 12.1219 11.7294 12.4019C12.3069 12.6819 12.8206 12.6369 12.9919 12.6269C13.1631 12.6182 13.2781 12.6919 13.3794 12.8344C13.8593 13.5031 13.8306 14.1093 13.9643 14.3581C14.1981 14.7906 14.488 14.8268 14.488 14.8268C14.488 14.8268 15.0105 14.6368 14.993 14.6018C14.9755 14.5656 14.7493 14.1593 14.7493 14.1593C14.7493 14.1593 14.6593 13.7631 14.4518 13.4019C14.2443 13.0407 14.1268 12.8607 14.0731 12.4819C14.0193 12.1032 14.0006 11.9232 13.5956 11.8332C13.1894 11.7432 12.6669 11.4907 12.7031 10.977C12.7394 10.4633 13.3844 9.37084 13.2894 8.57839C13.2081 7.90217 12.6219 7.26221 11.7019 7.11721C11.4482 7.07722 11.2245 7.05347 11.2245 7.05347Z" fill="#F1EDEC"/>
<path d="M15.0118 13.7907C14.9555 13.8007 14.813 14.1419 14.7055 14.3231C14.6206 14.4656 14.3993 14.7919 14.4168 14.8369C14.4343 14.8819 15.1393 15.5631 15.183 15.5943C15.2468 15.6393 15.373 15.5943 15.4268 15.3956C15.4805 15.1968 15.743 14.0607 15.743 14.0607C15.743 14.0607 15.1205 13.7719 15.0118 13.7907Z" fill="#5E6367"/>
<path d="M11.8107 7.56722C11.7644 7.70471 11.8919 7.80221 12.1169 8.01845C12.3419 8.23468 12.4782 8.49592 12.5044 8.8034C12.5319 9.10964 12.5831 9.33713 12.7481 9.34463C12.9469 9.35337 13.1669 8.8934 12.8294 8.20843C12.4694 7.47722 11.8382 7.48597 11.8107 7.56722Z" fill="white"/>
<path d="M11.2957 7.2373L11.2782 10.9621C11.2782 10.9621 10.967 11.0834 10.577 10.9621C10.187 10.8409 10.057 10.5984 10.057 10.5984C10.057 10.5984 9.77955 11.0659 9.02584 11.0571C8.27213 11.0484 8.08214 10.6934 8.08214 10.6934C8.08214 10.6934 7.95089 10.9859 7.39842 11.0571C7.08594 11.0971 6.8197 11.0971 6.7672 10.9759C6.71471 10.8546 5.841 8.14476 5.841 8.14476L8.80085 7.37605L11.2957 7.2373Z" fill="#B0E4FE"/>
<path d="M7.16468 8.23345L7.13843 10.6058C7.13843 10.6058 7.39716 10.6083 7.63215 10.4496C7.87714 10.2833 7.98713 10.1171 8.03088 10.1209C8.09088 10.1259 8.40336 10.6071 9.00083 10.6233C9.66829 10.6408 9.96203 10.0696 10.0145 10.0696C10.0833 10.0696 10.2295 10.3171 10.3783 10.3983C10.647 10.5458 10.8457 10.4758 10.8457 10.4758L10.8545 7.78223L7.16468 8.23345Z" fill="#34B6E2"/>
<path d="M2.01994 4.46994C2.01994 4.46994 1.9012 3.72873 2.17744 3.29375C2.45367 2.85877 2.87865 2.74003 2.87865 2.74003L3.65986 2.54254C3.65986 2.54254 3.96234 2.41629 4.53981 2.43379C5.10978 2.45129 5.59851 2.74378 5.86349 2.89877C6.16973 3.07626 6.45596 3.46249 6.35722 3.62998C6.25847 3.79747 5.99223 3.67998 5.99223 3.67998C5.99223 3.67998 6.71345 4.1837 7.05968 5.0924C7.34716 5.84861 7.38591 6.61357 7.38591 6.61357L8.31461 8.066L11.1207 6.68232C11.1207 6.68232 11.3095 6.67107 11.4269 6.76107C11.5944 6.88981 11.6257 7.0948 11.6257 7.0948C11.6257 7.0948 11.4444 7.14479 11.2482 7.42353C10.7045 8.19474 10.3883 10.0521 8.88708 9.9234C7.58215 9.81215 7.35591 8.50097 7.26592 8.16474C7.17717 7.82851 6.00848 6.75732 6.00848 6.75732L4.89479 4.21245L3.7186 3.13501L2.44367 4.38994L2.01994 4.46994Z" fill="#7A57BD"/>
<path d="M4.64982 10.9221C4.64982 10.9221 4.39733 11.0658 4.07235 11.1121C3.74736 11.1571 3.40488 11.1033 3.14365 11.3821C2.88241 11.6608 2.9899 12.0583 2.78241 12.3645C2.57493 12.6708 2.40368 12.8607 2.23244 13.0495C2.0612 13.2382 2.02495 13.4557 2.0337 13.6357C2.04245 13.8157 2.1962 14.1319 2.1962 14.1319L3.0624 14.0682L3.05365 13.5095C3.05365 13.5095 2.93741 13.3082 3.09865 13.032C3.20239 12.8545 3.48613 12.3833 3.57612 12.2658C3.66612 12.1483 3.72612 12.0108 3.93735 11.977C4.16609 11.9395 5.9935 11.9233 6.16474 11.8421C6.33598 11.7608 6.70596 11.3646 6.73346 11.0671C6.76096 10.7696 6.77845 8.35224 6.77845 8.35224L6.9472 7.02106C6.9472 7.02106 6.84845 6.75107 6.74721 6.47983C6.40472 5.55988 5.98475 4.59743 5.18979 3.68248C4.40858 2.78378 3.62237 2.87877 3.62237 2.87877C3.62237 2.87877 2.40493 1.77008 2.34119 1.67884C2.27744 1.58759 2.1887 1.49885 2.16995 1.57009C2.1512 1.64134 2.2062 2.41755 2.2062 2.41755L2.65742 3.19251C2.65742 3.19251 2.56743 3.56249 2.41368 3.93247C2.25994 4.30245 2.01996 4.46869 2.01996 4.46869L1.92871 6.1086C1.92871 6.1086 1.73747 6.40734 1.73122 6.79607C1.72497 7.17855 3.24989 6.75607 3.25614 6.72357C3.26239 6.69107 3.77736 5.28865 3.77111 5.2174C3.76486 5.14616 4.15484 4.02371 4.15484 4.02371C4.15484 4.02371 4.84731 5.01866 4.73731 6.17485C4.69981 6.57483 4.63357 6.99856 4.57732 7.33979C4.39358 8.46223 4.25859 9.21844 4.25859 9.21844L4.64982 10.6221V10.9221Z" fill="#F1EDEC"/>
<path d="M3.60862 13.8983C3.60862 13.952 3.44488 14.232 3.1024 14.692C2.75992 15.1519 2.63742 15.3019 2.50868 15.1194C2.37994 14.9369 2.33244 14.627 2.28369 14.4632C2.23994 14.3157 2.1662 14.0782 2.1662 14.0782L3.25239 13.332C3.25364 13.332 3.60862 13.7808 3.60862 13.8983Z" fill="#5E6367"/>
<path d="M2.79364 5.25611C2.73739 5.2811 2.6874 5.52984 2.88239 5.77483C3.07738 6.01981 3.30111 6.13731 3.30111 6.13731L3.47361 5.75858C3.47361 5.75858 3.23487 5.60859 3.09987 5.48484C2.96113 5.3561 2.84364 5.23361 2.79364 5.25611Z" fill="white"/>
<path d="M2.16995 1.56992C2.13496 1.58617 1.92622 1.85616 2.06996 2.40238C2.15495 2.72611 2.76242 3.32608 2.76242 3.32608L3.1249 3.57982C3.1249 3.57982 3.07116 3.20234 2.85492 2.9486C2.63868 2.69486 2.38494 2.40988 2.3162 2.17114C2.24745 1.93241 2.2862 1.51618 2.16995 1.56992Z" fill="#ACA399"/>
<path d="M1.92498 6.10737C1.92498 6.10737 1.71374 6.4811 1.72249 6.84483C1.72999 7.17731 1.83624 7.35605 2.04123 7.53729C2.24497 7.71728 2.59745 7.84853 2.81744 7.75978C2.84743 7.74728 2.85993 7.53729 2.93118 7.38105C2.98618 7.26231 3.17742 7.07107 3.17742 7.07107C3.17742 7.07107 3.26991 7.27106 3.28491 7.37105C3.29991 7.47105 3.30991 7.66979 3.34616 7.67854C3.4849 7.71353 3.67614 7.57479 3.79738 7.27481C3.92738 6.95357 3.90113 6.76608 3.90113 6.76608L4.10862 6.29111C4.10862 6.29111 4.00112 5.4599 3.29241 5.26741C2.5837 5.07492 1.96373 5.4299 1.96373 5.4299L1.92498 6.10737Z" fill="url(#paint0_radial_715_295)"/>
<path d="M2.22246 6.3922C2.02497 6.36971 1.94623 6.59094 1.94623 6.83718C1.94623 7.08342 2.07872 7.18591 2.20496 7.18591C2.33121 7.18591 2.4462 7.02342 2.4462 6.79468C2.44495 6.5672 2.37871 6.41095 2.22246 6.3922Z" fill="#845B51"/>
<path d="M2.35742 4.74364C2.37992 4.79989 2.44742 4.88989 2.54366 4.92363C2.63991 4.95738 2.7524 4.94113 2.7524 4.94113C2.7524 4.94113 2.78115 5.18362 2.95489 5.18987C3.13738 5.19612 3.15238 4.87364 3.12363 4.71615C3.09488 4.55865 2.99989 4.45116 2.99989 4.45116C2.99989 4.45116 2.7124 4.41116 2.53116 4.53616C2.39867 4.62615 2.35742 4.74364 2.35742 4.74364Z" fill="#464D50"/>
<path d="M3.26488 2.55373C3.26488 2.55373 3.56736 2.79622 3.60486 3.21495C3.64611 3.68367 3.64486 3.78992 3.64486 3.78992L2.54367 3.09745C2.54367 3.09745 2.49117 3.2187 2.48867 3.35369C2.48617 3.49993 2.50742 3.65118 2.50742 3.65118L3.65111 4.35364C3.65111 4.35364 3.60736 4.97986 3.42237 5.63482C3.25863 6.21229 3.03364 6.64227 2.99614 6.72226C2.95864 6.80226 2.8274 7.14474 3.13863 7.22224C3.41112 7.28973 3.46612 6.901 3.54611 6.72726C3.62611 6.55352 3.81985 6.0648 3.93484 5.63357C4.24983 4.45363 4.18858 3.74867 4.11983 3.2612C4.04734 2.73997 3.88734 2.63998 3.69611 2.55873C3.55861 2.50249 3.35612 2.46499 3.26488 2.55373Z" fill="#34B6E2"/>
<path d="M4.01483 8.99843C4.01483 8.99843 3.98609 9.34841 4.06233 9.87089C4.12358 10.2846 4.44356 10.9633 4.6548 10.9121C4.70605 10.8996 4.57356 10.2534 4.77729 9.99588C4.91604 9.81964 5.16852 9.78839 5.81724 9.42091C6.35971 9.11343 6.84094 8.51221 6.84094 8.51221L6.73969 7.62476L6.05598 7.79225C6.05598 7.79225 5.556 8.27597 4.96978 8.5922C4.44856 8.87469 4.01483 8.99843 4.01483 8.99843Z" fill="#D853C9"/>
<path d="M6.45474 7.58598C6.45099 7.58723 6.211 7.48974 6.05601 7.74973C5.86477 8.07096 5.86352 8.65218 5.84477 8.69592C5.82602 8.73967 5.70978 8.87842 5.82602 8.90216C5.94101 8.92591 6.38849 8.88716 6.67598 8.68093C6.96471 8.47469 7.01721 8.19095 7.01721 8.19095L6.45474 7.58598Z" fill="#34B6E2"/>
<path d="M11.2569 6.6974C11.2569 6.6974 11.0832 6.68865 10.6982 7.17862C10.1758 7.84233 9.90827 9.20726 8.97582 9.20726C8.04337 9.20726 7.89463 8.3948 7.64839 7.76734C7.40215 7.13987 6.94718 6.79739 6.94718 6.79739C6.94718 6.79739 6.70844 6.64865 6.83593 6.45491C6.93343 6.30617 7.25091 6.43991 7.42965 6.5224C7.60839 6.6049 7.93088 6.81364 8.13336 6.89363C8.69209 7.11487 9.20831 6.97738 9.49954 6.91113C9.79078 6.84364 10.0608 6.71864 10.4995 6.6724C10.9895 6.61865 11.2569 6.6974 11.2569 6.6974Z" fill="#A47FCC"/>
<path d="M6.66972 6.9986C6.42599 7.16734 6.1635 7.55357 6.46848 8.04729C6.74722 8.49727 7.33969 8.35353 7.50968 8.18353C7.72342 7.9698 7.80841 7.55607 7.58593 7.19859C7.36344 6.84111 6.89721 6.83986 6.66972 6.9986Z" fill="#FFA6A3"/>
<path d="M6.94471 7.32231C6.81596 7.35481 6.69347 7.53855 6.75846 7.73604C6.81471 7.90978 7.01845 7.98103 7.14844 7.91853C7.28594 7.85228 7.37343 7.66729 7.29594 7.5023C7.23219 7.36356 7.09345 7.28481 6.94471 7.32231Z" fill="#F182A7"/>
<defs>
<radialGradient id="paint0_radial_715_295" cx="0" cy="0" r="1" gradientUnits="userSpaceOnUse" gradientTransform="translate(2.61485 7.97649) scale(2.18616)">
<stop offset="0.6623" stop-color="#FFA8A6"/>
<stop offset="0.9142" stop-color="#FFA8A6" stop-opacity="0"/>
</radialGradient>
</defs>
</svg>
