<svg width="18" height="18" viewBox="0 0 18 18" fill="none" xmlns="http://www.w3.org/2000/svg">
<path d="M7.02217 9.55581L1.83744 9.7433C1.83744 9.7433 1.50871 9.41456 1.55621 9.29707C1.6037 9.17958 5.89723 5.82475 6.06097 5.8485C6.22471 5.87225 6.60094 6.27098 6.90592 6.12974C7.21091 5.98849 6.90592 5.16729 6.99967 5.05104C7.09341 4.93355 10.4482 3.12739 10.6595 3.03365C10.8707 2.9399 11.0582 2.72867 11.4807 2.82241C11.9032 2.91616 12.9594 3.10365 14.108 3.8786C15.2567 4.65356 16.4542 5.54477 16.3604 6.03724C16.2667 6.52972 7.02217 9.55581 7.02217 9.55581Z" fill="#FFE265"/>
<path d="M3.43233 15.4455C4.58227 15.3042 15.3042 13.0056 15.7504 12.9356C16.1967 12.8656 16.4779 12.4431 16.4779 11.9732C16.4779 11.5032 16.3604 6.03723 16.3604 6.03723C16.3604 6.03723 15.8442 6.20097 15.2342 6.34222C14.6242 6.48221 9.62576 7.70214 7.65586 8.14837C5.68596 8.5946 2.54113 9.4158 2.18865 9.4158C1.83617 9.4158 1.55493 9.29831 1.55493 9.29831C1.55493 9.29831 1.64868 14.1781 1.67243 14.5305C1.69617 14.883 1.85992 15.3042 2.25864 15.4217C2.65737 15.5392 2.91736 15.508 3.43233 15.4455Z" fill="#FEB502"/>
<path d="M10.3708 4.19483C10.3708 4.49482 10.6758 4.69356 11.1808 4.67856C11.732 4.66231 11.8845 4.33483 11.867 4.12484C11.8495 3.9136 11.5958 3.72861 11.0933 3.73736C10.6271 3.74611 10.3708 3.9311 10.3708 4.19483Z" fill="#FF8B0D"/>
<path d="M4.73988 7.93458C3.92742 8.20832 4.01867 8.91953 4.25616 9.07827C4.49364 9.23701 4.80988 9.22826 5.17986 9.09577C5.54984 8.96328 5.78483 8.81203 5.82232 8.56455C5.85732 8.32956 5.54984 7.66084 4.73988 7.93458Z" fill="#ED6B31"/>
<path d="M12.122 5.90225C11.5771 5.92725 10.9746 6.31848 10.7496 6.69471C10.5121 7.09094 10.4946 7.55716 11.0396 7.84715C11.5846 8.13713 13.512 7.39842 13.4157 6.72096C13.3195 6.04224 12.6945 5.876 12.122 5.90225Z" fill="#ED6B31"/>
<path d="M10.2307 11.3832C10.2307 11.3832 11.0045 10.8107 11.0045 10.407C11.0045 10.002 10.6707 9.04583 9.25329 8.97334C7.92461 8.90459 7.10591 10.7157 7.97711 11.6482C8.84832 12.5806 9.37579 12.1582 9.70202 12.0707C10.0283 11.9819 10.2307 11.3832 10.2307 11.3832Z" fill="#ED6B31"/>
<path d="M6.40339 13.0106C6.40339 13.0106 7.17209 12.5294 6.58213 12.0019C6.16715 11.6307 5.61218 11.7982 5.32969 12.0869C4.96846 12.4569 5.06596 13.0456 5.39969 13.3093C5.73467 13.5743 6.40339 13.0106 6.40339 13.0106Z" fill="#ED6B31"/>
<path d="M3.79857 10.8469C3.79857 10.8469 3.71108 10.5707 3.39734 10.4594C3.04486 10.3345 2.51864 10.7732 2.74363 11.2419C2.94612 11.6644 3.39484 11.5406 3.39484 11.5406L3.79857 10.8469Z" fill="#ED6B31"/>
<path d="M15.0518 11.2507C15.1281 11.1682 15.6268 10.8083 15.6268 10.5345C15.6268 10.262 14.8756 9.41958 13.9169 10.0533C12.9582 10.687 13.4594 11.6457 13.7232 11.8045C13.9869 11.9632 14.7181 11.612 15.0518 11.2507Z" fill="#ED6B31"/>
<path d="M4.85735 8.36585C4.32363 8.55084 4.12239 8.92832 4.25613 9.07831C4.39737 9.23705 4.70486 9.34205 5.24108 9.14831C5.65606 8.99831 5.86605 8.74708 5.83105 8.52334C5.80605 8.36085 5.34108 8.19836 4.85735 8.36585Z" fill="#FF8B0D"/>
<path d="M3.07736 10.8282C2.84362 11.1207 3.03361 11.4532 3.2536 11.5319C3.47359 11.6107 3.86106 11.3732 3.83482 10.9782C3.80732 10.582 3.2886 10.5645 3.07736 10.8282Z" fill="#FF8B0D"/>
<path d="M5.79599 12.4219C5.29352 12.8294 5.27977 13.2281 5.47351 13.3631C5.6085 13.4581 6.10597 13.6556 6.56095 13.3194C6.89843 13.0706 6.90468 12.5482 6.79844 12.2982C6.70969 12.0857 6.21847 12.0782 5.79599 12.4219Z" fill="#FF8B0D"/>
<path d="M8.84581 10.2007C8.17334 10.8544 8.01335 11.9156 8.67332 12.1656C9.25454 12.3856 10.0895 12.2531 10.582 11.6469C11.0994 11.0094 11.1544 10.3057 10.822 9.89072C10.4245 9.392 9.36578 9.69698 8.84581 10.2007Z" fill="#FF8B0D"/>
<path d="M11.9019 6.55347C11.022 6.85221 10.5033 7.48592 10.952 7.80341C11.4007 8.11964 11.8669 8.07339 12.3769 7.89965C12.9556 7.70341 13.3981 7.24844 13.4156 6.81721C13.4294 6.46348 12.6769 6.28974 11.9019 6.55347Z" fill="#FF8B0D"/>
<path d="M14.2518 10.5995C13.6531 11.087 13.4781 11.5757 13.7243 11.8044C13.9706 12.0332 14.5606 12.1382 15.1055 11.7607C15.6717 11.3682 15.713 10.9232 15.6505 10.5645C15.5805 10.1608 14.8668 10.0983 14.2518 10.5995Z" fill="#FF8B0D"/>
</svg>
