<svg width="18" height="18" viewBox="0 0 18 18" fill="none" xmlns="http://www.w3.org/2000/svg">
<path d="M10.9732 10.1476L7.56209 10.0176L6.95337 15.8623C6.95337 15.8623 7.88832 15.7973 9.12575 15.7973C10.3632 15.7973 11.4069 15.8848 11.4069 15.8848L10.9732 10.1476Z" fill="#8A2E08"/>
<path d="M4.11226 10.9648L3.27731 10.791C3.27731 10.791 3.07232 12.1147 2.88358 12.9347C2.69484 13.7546 2.3811 14.8633 2.3811 14.8633L4.366 15.8495C4.366 15.8495 6.16215 16.007 6.1934 15.9445C6.22465 15.882 7.54833 12.8084 7.54833 12.8084L7.86331 11.626L4.11226 10.9648Z" fill="#FF6110"/>
<path d="M10.3207 11.6103L14.4805 10.7441L14.6692 11.2479C14.6692 11.2479 14.9429 12.3928 15.0942 13.0128C15.3379 14.0077 15.6516 14.8989 15.6516 14.8989L13.7855 16.0539L11.8631 15.9914L10.3207 11.6103Z" fill="#FF6110"/>
<path d="M3.26727 10.2969C3.26727 10.3256 3.28727 10.5344 3.27727 10.6869C3.26727 10.8393 3.23853 11.0268 3.23853 11.0268C3.23853 11.0268 3.35227 11.0518 3.45726 11.1193C3.56226 11.1868 3.77225 11.4443 3.77225 11.4443C3.77225 11.4443 4.18223 11.2931 4.43096 11.3868C4.81344 11.5306 4.97593 11.8843 4.97593 11.8843C4.97593 11.8843 5.36716 11.5206 5.84589 11.5981C6.31336 11.6731 6.49585 12.1143 6.49585 12.1143C6.49585 12.1143 6.84709 11.8305 7.15457 11.8468C7.5183 11.8655 7.65204 12.133 7.65204 12.133L8.19701 11.0343L4.14598 10.2981H3.26727V10.2969Z" fill="#AF0D03"/>
<path d="M2.17737 15.3802L2.39736 14.7977C2.39736 14.7977 3.37231 15.2752 4.07852 15.4852C4.78473 15.6952 5.61719 15.7239 5.61719 15.7239C5.61719 15.7239 5.60719 15.3939 5.30095 15.1552C4.99472 14.9164 4.50975 14.5152 4.50975 14.5152L5.17221 14.294L5.54094 14.1465L6.69713 15.5227L6.32465 16.4501C6.32465 16.4501 5.51219 16.5551 4.21351 16.2214C2.91483 15.8876 2.17737 15.3802 2.17737 15.3802Z" fill="#C9C9C9"/>
<path d="M10.2419 10.8418C10.2607 10.918 10.2519 11.5205 10.2519 11.5205L10.6057 11.9217C10.6057 11.9217 10.7969 11.673 11.2369 11.693C11.6769 11.7117 11.8769 11.913 11.8769 11.913C11.8769 11.913 12.1443 11.588 12.5081 11.5218C12.8718 11.4543 13.2243 11.6455 13.2243 11.6455C13.2243 11.6455 13.473 11.1868 13.8355 11.0818C14.1992 10.9768 14.6692 11.2493 14.6692 11.2493L14.4755 10.0693L10.9119 10.3256L10.2419 10.8418Z" fill="#AF0D03"/>
<path d="M15.613 14.7792L15.8417 15.3617C15.8417 15.3617 15.1443 15.9067 14.2456 16.1554C13.3468 16.4041 12.0969 16.5041 12.0969 16.5041L11.7319 14.4555L12.9644 14.083L13.6406 14.3717C13.6406 14.3717 13.0419 14.8755 12.8781 15.1067C12.5669 15.5442 12.6781 15.8217 12.6781 15.8217C12.6781 15.8217 13.6331 15.7354 14.3693 15.4204C15.1068 15.103 15.613 14.7792 15.613 14.7792Z" fill="#C9C9C9"/>
<path d="M4.97729 14.5015C4.97729 14.5015 5.40102 14.6915 5.61726 14.8452C5.88475 15.0365 6.15223 15.3227 6.23848 15.7814C6.29848 16.0977 6.32472 16.4502 6.32472 16.4502C6.32472 16.4502 6.62096 16.6789 7.20343 15.7052C7.7859 14.7315 8.08213 13.3828 8.13088 12.4279C8.17838 11.4729 8.15963 11.2529 8.15963 11.2529L7.29967 12.6666L6.02849 13.8228L4.97729 14.5015Z" fill="#D92F0A"/>
<path d="M8.16709 11.2578C8.16709 11.2578 8.26708 12.1253 7.0984 13.2015C6.37218 13.8702 5.66347 14.3302 5.1785 14.5202C5.01226 14.5852 4.86351 14.5589 4.75852 14.5577C4.41604 14.5527 4.47978 14.4939 4.67102 14.3964C4.89601 14.2814 5.54973 14.0427 6.77341 12.9152C7.75211 12.0128 7.81961 11.1103 7.81961 11.1103L8.16584 10.9229V11.2578H8.16709Z" fill="#FFFEFF"/>
<path d="M12.1444 16.4997C12.1444 16.4997 11.7144 16.6522 11.0644 15.7735C10.4145 14.8948 10.2145 13.3374 10.1857 12.8399C10.157 12.3425 10.167 11.4062 10.167 11.4062L11.3619 12.9062C11.3619 12.9062 13.2156 14.3011 13.1868 14.3111C13.1581 14.3211 12.5818 14.6836 12.3656 15.0473C11.9244 15.7823 12.1444 16.4997 12.1444 16.4997Z" fill="#D92F0A"/>
<path d="M10.1007 10.9924C10.1007 10.9924 10.0832 11.3199 10.147 11.5686C10.2807 12.0936 10.7419 12.661 11.3419 13.1935C12.1156 13.881 13.0143 14.3597 13.0806 14.3785C13.148 14.3972 13.6255 14.4172 13.6343 14.3685C13.638 14.3522 13.6668 14.281 13.5105 14.1672C13.1893 13.936 12.4781 13.5285 11.8956 13.0685C11.4844 12.7435 10.9569 12.3398 10.4982 11.5074C10.4144 11.3561 10.4444 10.9736 10.4444 10.9736L10.1007 10.9924Z" fill="white"/>
<path d="M3.74602 8.15983C3.74602 8.15983 2.75107 8.28982 2.71982 8.43107C2.68857 8.57356 2.79857 10.451 2.79857 10.451C2.79857 10.451 3.2173 10.3735 3.42853 10.4197C3.63977 10.466 4.03725 10.7234 4.03725 10.7234L4.70347 10.3135L5.18344 10.9797C5.18344 10.9797 5.52217 10.8047 5.9909 10.8509C6.45962 10.8972 6.77461 11.2134 6.77461 11.2134L7.42957 10.6747L8.16078 11.2497C8.16078 11.2497 8.49452 10.8609 9.11448 10.8497C9.73445 10.8384 10.1094 11.2947 10.1094 11.2947L10.9281 10.581L11.7356 11.2009C11.7356 11.2009 12.0518 10.9434 12.4143 10.8622C12.7768 10.7797 13.0455 10.9209 13.0455 10.9209L13.5605 10.0085L14.1455 10.4297C14.1455 10.4297 14.333 10.2072 14.6017 10.1722C14.8704 10.1372 15.1979 10.126 15.1979 10.126C15.1979 10.126 15.1742 8.86229 15.1742 8.6748C15.1742 8.48731 15.1042 8.18358 15.0217 8.12483C14.9392 8.06608 14.203 7.90234 14.203 7.90234L3.74602 8.15983Z" fill="#D92F0A"/>
<path d="M5.06221 8.70605L4.08601 8.93229L4.03601 10.7247C4.03601 10.7247 4.33349 10.6385 4.63098 10.6697C4.92846 10.7009 5.1822 10.9822 5.1822 10.9822C5.1822 10.9822 5.17595 9.81725 5.18595 9.62101C5.19595 9.42477 5.2722 9.05229 5.31344 8.98104C5.35469 8.90854 5.06221 8.70605 5.06221 8.70605Z" fill="#E1E1E1"/>
<path d="M7.63203 9.08691L6.74083 9.41315C6.74083 9.41315 6.71708 10.2381 6.73833 10.5668C6.75833 10.8956 6.77333 11.2156 6.77333 11.2156C6.77333 11.2156 7.17956 11.0806 7.50954 11.1006C7.83827 11.1206 8.1595 11.2518 8.1595 11.2518L8.147 9.48689L7.63203 9.08691Z" fill="#E1E1E1"/>
<path d="M10.0795 9.45727C10.0795 9.45727 10.1107 10.126 10.1207 10.4647C10.1307 10.8034 10.1082 11.2984 10.1082 11.2984C10.1082 11.2984 10.5932 11.0509 10.9744 11.0197C11.3544 10.9884 11.7344 11.2047 11.7344 11.2047C11.7344 11.2047 11.7044 10.506 11.6631 9.99224C11.6344 9.63351 11.5294 9.32353 11.5294 9.32353L10.5532 8.7998L10.0795 9.45727Z" fill="#E1E1E1"/>
<path d="M13.0443 10.9232C13.0443 10.9232 13.3681 10.567 13.6255 10.4845C13.883 10.402 14.1443 10.432 14.1443 10.432C14.1443 10.432 14.1293 9.59078 14.088 9.20955C14.0468 8.82957 14.0093 8.61083 14.0093 8.61083L12.8143 8.09961L12.8481 9.03956C12.8481 9.03956 12.9893 9.35329 13.0306 9.89826C13.0706 10.4432 13.0443 10.9232 13.0443 10.9232Z" fill="#E1E1E1"/>
<path d="M9.05208 4.72754L7.60965 5.37001C7.60965 5.37001 6.29847 6.3537 5.26103 7.00992C4.22358 7.66613 3.62736 7.91612 3.50362 7.96737C3.30613 8.04986 2.98615 8.14736 2.8474 8.24235C2.61742 8.40234 2.71366 8.47734 2.75116 8.48984C2.78866 8.50234 3.9361 9.01606 5.96974 9.3173C8.00338 9.61853 10.7682 9.49604 12.1857 9.22105C13.6018 8.94607 15.0218 8.12611 15.0218 8.12611C15.0218 8.12611 14.903 7.92737 14.1168 7.58614C13.3294 7.24491 12.6606 6.87743 11.5194 6.12997C10.3783 5.3825 10.1033 5.01502 10.1033 5.01502L9.05208 4.72754Z" fill="#FF6110"/>
<path d="M7.83206 5.63281C7.83206 5.63281 6.24465 7.25898 4.28975 8.61016C4.07601 8.75765 4.08601 8.93264 4.08601 8.93264C4.08601 8.93264 4.2435 8.99264 4.63098 9.08263C5.02471 9.17388 5.25095 9.19637 5.25095 9.19637C5.25095 9.19637 5.42969 8.99138 5.81092 8.61016C6.49338 7.92769 6.91711 7.38647 7.45083 6.69526C7.80456 6.23653 8.22579 5.68656 8.22579 5.68656L7.83206 5.63281Z" fill="white"/>
<path d="M8.5145 5.84187C8.5145 5.84187 7.93703 7.1793 7.66205 7.75677C7.53205 8.02801 7.24207 8.53048 6.97958 8.95046C6.75084 9.31669 6.74084 9.41419 6.74084 9.41419C6.74084 9.41419 7.25457 9.48793 7.5033 9.48793C7.75204 9.48793 8.14577 9.48543 8.14577 9.48543C8.14577 9.48543 8.34326 8.89671 8.55325 7.71678C8.67574 7.03056 8.85448 5.82812 8.85448 5.82812L8.5145 5.84187Z" fill="white"/>
<path d="M9.31445 5.89503C9.31445 5.89503 9.44445 7.18371 9.58944 7.86242C9.78568 8.78113 10.0782 9.45609 10.0782 9.45609C10.0782 9.45609 10.5731 9.43609 10.8481 9.40984C11.1231 9.38359 11.5268 9.32235 11.5268 9.32235C11.5268 9.32235 11.0544 8.59489 10.5981 7.86242C10.2969 7.37745 9.73193 6.24876 9.64069 5.81628C9.56319 5.4438 9.31445 5.89503 9.31445 5.89503Z" fill="white"/>
<path d="M10.022 5.65878C10.022 5.69753 10.437 6.58248 11.4644 7.69242C12.2906 8.58488 12.8418 9.0436 12.8418 9.0436C12.8418 9.0436 13.313 8.89861 13.5243 8.82111C13.773 8.72987 14.0093 8.61113 14.0093 8.61113C14.0093 8.61113 12.8943 7.83742 12.2381 7.29994C11.5819 6.76247 10.6769 6.01501 10.4282 5.67378C10.1795 5.3313 10.022 5.65878 10.022 5.65878Z" fill="white"/>
<path d="M9.03832 3.83621C8.76209 3.85621 8.67084 4.32119 8.5271 4.46618C8.38336 4.60992 7.6084 5.37113 7.6084 5.37113C7.6084 5.37113 7.74589 6.08985 9.11082 6.0761C10.3595 6.06235 10.597 5.47113 10.597 5.47113C10.597 5.47113 9.79953 4.62367 9.61579 4.41368C9.43205 4.20244 9.4058 3.80997 9.03832 3.83621Z" fill="#D92F0A"/>
<path d="M9.08454 3.22829C9.08454 3.22829 9.32078 3.15329 9.65701 3.19204C9.99949 3.23204 10.227 3.34328 10.5832 3.33578C11.1282 3.32578 11.5669 3.06955 11.7244 2.92455C11.8819 2.77956 12.0831 2.54457 11.9781 2.46583C11.8731 2.38708 11.4257 2.50583 10.9257 2.30834C10.4845 2.1346 10.2632 1.68087 9.63701 1.60837C9.09829 1.54713 8.9408 1.76837 8.9408 1.76837L9.08454 3.22829Z" fill="#FF6110"/>
<path d="M8.87451 1.61133V4.06995L9.26824 3.96495L9.22949 1.61133H8.87451Z" fill="#D92F0A"/>
</svg>
