<svg width="18" height="18" viewBox="0 0 18 18" fill="none" xmlns="http://www.w3.org/2000/svg">
<path d="M2.99861 5.46985L2.46614 5.59234C2.46614 5.59234 1.72742 6.73228 1.56618 7.94472C1.46494 8.70593 1.46119 9.69962 1.53119 10.1946C1.60243 10.6896 1.85742 11.7433 2.25865 12.4857C2.64488 13.2007 3.02111 13.4819 3.43233 13.7307C3.60858 13.8369 3.76607 14.2006 4.04105 14.3769C4.29854 14.5419 4.63852 14.5744 4.63852 14.5744C4.63852 14.5744 5.57847 16.0505 7.61211 16.3068C9.99824 16.6068 11.1657 15.5293 11.1657 15.5293C11.1657 15.5293 12.1206 15.5268 13.0218 15.1406C14.033 14.7069 14.573 13.8044 14.573 13.8044C14.573 13.8044 15.8392 12.7145 16.2404 11.4095C16.5629 10.3621 16.5716 8.37094 16.3242 7.43349C16.0767 6.49604 15.5979 5.70233 15.218 5.19361C14.9155 4.78863 11.5382 2.99373 11.1307 2.83373C10.7245 2.67499 6.9409 2.42751 6.79966 2.53375C6.65841 2.64125 2.99861 5.46985 2.99861 5.46985Z" fill="#AC5811"/>
<path d="M4.31614 3.46869C3.43494 4.18615 2.97871 4.56113 2.52124 5.45858C2.06376 6.35603 2.21125 7.54722 2.29375 7.9872C2.375 8.42718 2.52249 9.27588 2.60373 9.69961C2.68498 10.1246 2.90122 11.132 3.49994 11.7558C4.33864 12.6295 5.0986 12.9307 5.0986 12.9307C5.0986 12.9307 5.71482 13.8856 7.20349 14.4319C9.16089 15.1493 10.0421 14.1056 10.7921 13.8281C11.542 13.5507 12.4395 13.5344 13.2069 12.9957C13.9731 12.457 14.8218 11.8045 15.3768 10.4346C15.9318 9.06464 15.8168 8.46092 15.833 8.11844C15.8493 7.77596 15.8005 6.12855 15.1643 5.11735C14.5281 4.10615 13.7631 3.49868 13.4682 3.30619C12.8157 2.88247 10.4858 1.86877 9.8996 1.75503C9.31213 1.64128 7.21724 1.81877 6.38603 2.16125C5.55483 2.50374 4.31614 3.46869 4.31614 3.46869Z" fill="url(#paint0_radial_718_89)"/>
<path d="M8.03476 9.93212C7.89601 9.88837 7.74977 9.68213 7.71477 9.2409C7.66602 8.61219 8.12975 8.43845 8.12975 8.43845C8.12975 8.43845 8.68222 8.2922 9.07095 8.15346C9.43218 8.02472 9.69217 7.85973 9.69217 7.85973C9.69217 7.85973 9.72717 7.18601 9.9509 6.98727C10.1759 6.78853 10.5721 6.80603 11.0133 6.85728C11.4533 6.90853 12.162 7.20226 12.0583 7.46975C11.9545 7.73723 11.8333 8.00472 11.4108 8.24721C10.9883 8.48844 10.6859 8.71343 10.4696 8.90342C10.2534 9.09466 9.85716 9.33465 9.20094 9.57714C8.54473 9.81962 8.23474 9.99461 8.03476 9.93212Z" fill="#FFC86E"/>
<path d="M4.31864 4.30862C3.90366 4.22363 3.31744 5.12233 3.2087 5.41981C3.0987 5.7173 2.98621 6.44226 2.97371 6.77349C2.95746 7.18472 2.94996 7.57095 3.12245 7.88468C3.25495 8.12717 3.57618 8.26341 3.86491 8.01343C4.15365 7.76344 4.65487 7.07848 4.78736 6.98223C4.91986 6.88599 5.30734 6.75849 5.15485 6.12853C5.09235 5.87104 4.45863 5.33857 4.42738 5.26607C4.39739 5.19483 4.55363 4.35737 4.31864 4.30862Z" fill="#FFC86E"/>
<path d="M7.25225 3.17991C7.2685 3.42115 7.46599 3.80738 7.67973 4.01611C7.99971 4.32735 9.46713 5.37979 9.84712 5.3198C10.2271 5.2598 10.6408 4.57733 10.7621 4.38734C10.8833 4.19736 11.1245 3.92987 11.2195 3.80863C11.3145 3.68738 11.5645 3.41115 11.3583 3.13491C11.1508 2.85868 10.6333 2.67744 10.2883 2.65119C9.94336 2.62494 9.40714 2.4012 8.94966 2.4187C8.49219 2.4362 7.20975 2.55744 7.25225 3.17991Z" fill="#FFC86E"/>
<path d="M13.292 6.39853C13.3208 6.66102 13.6895 6.71851 13.9832 6.9085C14.277 7.09849 14.4757 7.29723 14.6482 7.24474C14.8207 7.19349 15.0557 6.91725 15.0019 6.43353C14.9332 5.81231 14.5444 5.01735 14.0007 5.0436C13.672 5.05985 13.717 5.63107 13.717 5.63107C13.717 5.63107 13.2745 6.24354 13.292 6.39853Z" fill="#FFC86E"/>
<path d="M6.1836 4.77845C6.1836 4.77845 5.00491 4.77095 5.02616 4.88844C5.04866 5.00594 5.15116 5.39342 5.45864 5.40842C5.76612 5.42341 6.16235 5.45216 6.35234 5.39342C6.54233 5.33467 7.06981 4.90969 7.06981 4.7197C7.06981 4.52971 6.85732 4.25098 6.85732 4.25098L6.1836 4.77845Z" fill="#CF701E"/>
<path d="M7.86715 6.93968C7.86715 6.93968 7.8534 6.94842 7.8334 6.96467C7.77466 7.01342 7.66216 7.12717 7.70591 7.25466C7.76466 7.4234 8.10839 7.73838 8.44587 7.73838C8.78335 7.73838 8.96584 7.4234 9.02459 7.21841C9.08334 7.01342 9.05334 6.88843 9.05334 6.88843L7.86715 6.93968Z" fill="#CF701E"/>
<path d="M5.23871 7.89969C5.23871 7.89969 5.03372 7.97344 5.04122 8.10468C5.04872 8.23593 5.09996 8.47841 5.3637 8.73465C5.62994 8.99339 6.01616 9.06463 6.3674 8.96964C6.71863 8.87464 6.97486 8.61091 6.94612 8.25967C6.91737 7.90844 6.57989 7.63721 6.57989 7.63721L5.23871 7.89969Z" fill="#CF701E"/>
<path d="M3.72254 9.8409C3.72254 9.8409 3.50255 9.89215 3.52505 10.0384C3.54755 10.1846 3.79629 10.6459 4.19127 10.5946C4.58625 10.5434 5.20996 10.0896 5.20996 9.9134C5.20996 9.73716 4.89498 9.50342 4.89498 9.50342L3.72254 9.8409Z" fill="#CF701E"/>
<path d="M6.41717 11.6719C6.41717 11.6719 6.33592 12.1444 6.97339 12.3168C8.03584 12.6031 8.14583 11.9581 8.14583 11.9581L6.41717 11.6719Z" fill="#CF701E"/>
<path d="M10.5908 11.8906C10.5908 11.8906 10.3058 12.1756 10.6295 12.3993C10.9532 12.6231 11.322 12.6993 11.6695 12.6606C12.0169 12.6218 12.2544 12.3444 12.2544 12.3444L10.5908 11.8906Z" fill="#CF701E"/>
<path d="M13.2507 8.72583C13.2507 8.72583 12.7133 8.99707 13.1295 9.46579C13.4457 9.82327 14.1694 9.75078 14.4657 9.54954C14.6594 9.41829 14.7169 9.18581 14.6444 9.06831C14.5707 8.95082 13.2507 8.72583 13.2507 8.72583Z" fill="#CF701E"/>
<path d="M11.1708 5.62103C11.1708 5.62103 11.142 6.23474 11.9695 6.21475C13.1269 6.186 12.9807 5.46729 12.9807 5.46729L11.1708 5.62103Z" fill="#CF701E"/>
<path d="M11.7058 4.85228C11.7058 4.85228 11.1633 5.18976 11.1046 5.32851C11.0459 5.46725 10.9209 5.90722 11.5508 5.87848C12.1808 5.84973 12.8108 5.82723 13.0232 5.57099C13.2357 5.31476 13.1845 5.07977 13.097 4.88978C13.0095 4.69979 12.517 3.98108 12.1258 3.98983C11.8696 3.99483 11.7058 4.85228 11.7058 4.85228Z" fill="#593329"/>
<path d="M12.1233 3.98744C12.1233 3.98744 11.7795 3.94369 11.4783 4.47866C11.1783 5.01363 11.1008 5.33237 11.1008 5.33237C11.1008 5.33237 11.712 5.33487 12.0783 5.29112C12.4445 5.24737 12.6932 5.01988 12.6932 5.01988C12.6932 5.01988 12.3945 4.05368 12.1233 3.98744Z" fill="#925849"/>
<path d="M7.96335 6.48593C7.96335 6.48593 7.66336 6.46593 7.64087 6.58217C7.61837 6.69967 7.68461 6.9984 7.78711 7.12965C7.8896 7.26089 8.19709 7.55462 8.50457 7.49588C8.81205 7.43713 8.99454 7.1359 9.04579 7.03215C9.09204 6.93466 9.14204 6.82966 9.05454 6.69842C8.9658 6.56593 7.96335 6.48593 7.96335 6.48593Z" fill="#593329"/>
<path d="M8.40971 6.01723C8.15473 5.98973 7.53976 6.47845 7.64975 6.64595C7.77225 6.82969 7.7935 6.71344 8.13098 6.88218C8.40971 7.02093 8.53096 7.14967 8.70595 7.12717C8.88094 7.10467 9.08968 6.81594 9.05343 6.69844C9.01718 6.58095 8.7547 6.05348 8.40971 6.01723Z" fill="#925849"/>
<path d="M5.52366 4.03867L4.9237 4.45364C4.9237 4.45364 4.9012 4.73488 5.02619 4.88862C5.15118 5.04236 5.18743 5.13736 5.77365 5.13736C6.35987 5.13736 6.90859 5.05736 7.01109 4.63988C7.11358 4.22241 6.93359 3.95492 6.8236 3.80118C6.7136 3.64744 5.52366 4.03867 5.52366 4.03867Z" fill="#593329"/>
<path d="M5.53104 3.38745C5.39604 3.44494 5.07731 3.87867 5.00357 4.06866C4.92982 4.25865 4.91357 4.46114 4.92357 4.46364C5.04481 4.49364 5.75853 4.55989 6.07351 4.50864C6.38849 4.45739 6.64473 4.31865 6.74722 4.13491C6.82847 3.98867 6.82222 3.79493 6.82222 3.79493C6.82222 3.79493 6.60848 3.40995 6.31475 3.29245C6.02226 3.17496 5.58228 3.36495 5.53104 3.38745Z" fill="#925949"/>
<path d="M5.02853 7.92721C5.02853 7.92721 4.97853 8.00346 5.07353 8.1497C5.16852 8.29594 5.35476 8.47093 5.6335 8.55218C5.91223 8.63218 6.10972 8.74217 6.29221 8.72092C6.47595 8.69842 6.83468 8.55218 6.84843 8.04721C6.86343 7.54223 6.76094 7.30725 6.54095 7.08726C6.32096 6.86727 6.16222 6.90477 6.16222 6.90477L5.02853 7.92721Z" fill="#593329"/>
<path d="M5.09246 7.45956C5.01496 7.58955 4.95746 8.01203 5.05246 8.10702C5.14745 8.20202 5.71867 8.20827 5.86866 8.19202C6.01991 8.17577 6.51363 7.94328 6.52113 7.76704C6.52863 7.5908 6.43363 7.35706 6.43363 7.26957C6.43363 7.18207 6.54363 6.97708 6.24364 6.90334C5.94366 6.82959 5.25245 7.18832 5.09246 7.45956Z" fill="#925849"/>
<path d="M4.1024 9.357C4.1024 9.357 3.63117 9.47324 3.60118 9.63449C3.57243 9.79573 3.63992 9.95822 3.80116 10.112C3.96241 10.2657 4.0799 10.4269 4.20364 10.4119C4.32864 10.3969 4.65737 10.1045 4.75986 10.0095C4.86236 9.91447 5.0086 9.74573 4.99485 9.60699C4.9811 9.46824 4.92111 9.32825 4.78986 9.21826C4.65987 9.10826 4.1024 9.357 4.1024 9.357Z" fill="#593329"/>
<path d="M4.2199 8.9396C3.99991 8.9446 3.83117 9.21083 3.75867 9.30583C3.68492 9.40082 3.56118 9.62831 3.61243 9.66456C3.66368 9.70081 3.87616 9.72331 3.97866 9.78955C4.08115 9.8558 4.2349 9.95829 4.35239 9.8633C4.46988 9.7683 4.57238 9.50457 4.63112 9.41707C4.68987 9.32958 4.79237 9.21958 4.79237 9.21958C4.79237 9.21958 4.57113 8.9321 4.2199 8.9396Z" fill="#925849"/>
<path d="M6.9084 10.7044C6.86465 10.7556 6.24219 11.2606 6.24219 11.2606C6.24219 11.2606 6.26469 11.7006 6.40343 11.8031C6.54217 11.9056 6.97465 12.0518 7.25338 12.1106C7.53212 12.1693 8.02959 12.2356 8.15459 12.1843C8.27958 12.1331 8.41082 11.8618 8.41832 11.5106C8.42582 11.1594 8.30083 10.8969 8.16209 10.7356C8.02334 10.5744 7.9121 10.5144 7.9121 10.5144L6.9084 10.7044Z" fill="#593329"/>
<path d="M7.73588 11.3633C7.81712 11.272 7.91212 10.5133 7.91212 10.5133C7.91212 10.5133 7.3484 10.0808 7.11341 10.0521C6.87842 10.0233 6.60094 10.0446 6.51969 10.1321C6.43969 10.2196 6.12471 10.5346 6.15346 10.7395C6.18221 10.9445 6.24095 11.2595 6.24095 11.2595C6.24095 11.2595 7.56713 11.5545 7.73588 11.3633Z" fill="#925849"/>
<path d="M10.4684 11.7244C10.4684 11.7244 10.3971 12.1994 10.9196 12.2894C11.4421 12.3781 11.8758 12.4969 12.102 12.4494C12.3283 12.4019 12.5532 12.0994 12.577 11.8794C12.6007 11.6594 12.6132 11.3419 12.577 11.2557C12.482 11.027 12.042 10.4007 11.8283 10.3345C11.7083 10.2982 11.5946 10.3182 11.5946 10.3182L10.4684 11.7244Z" fill="#593329"/>
<path d="M10.807 10.892C10.5732 11.1507 10.4532 11.5245 10.4657 11.722C10.4782 11.9082 11.3644 11.827 11.4694 11.7632C11.5744 11.6995 11.8032 11.4145 11.8107 11.3195C11.8182 11.2245 11.7457 10.927 11.7332 10.7433C11.7207 10.5595 11.7157 10.3095 11.6144 10.3158C11.5132 10.322 11.1394 10.5245 10.807 10.892Z" fill="#925849"/>
<path d="M13.8043 7.66724C13.8043 7.66724 14.0105 7.69723 14.2643 7.84973C14.5605 8.02722 14.8705 8.47969 14.8467 8.84842C14.823 9.21715 14.5017 9.3834 14.1105 9.38965C13.7193 9.3959 13.3368 9.37465 13.2656 9.17216C13.1943 8.96967 13.8043 7.66724 13.8043 7.66724Z" fill="#593329"/>
<path d="M13.4919 7.79085C13.4306 7.87584 13.2719 8.13583 13.2181 8.46831C13.1644 8.80079 13.2006 9.18077 13.3194 9.24702C13.4381 9.31202 14.0918 8.7483 14.1268 8.6883C14.1631 8.6283 13.9181 7.7196 13.8406 7.67835C13.7631 7.63711 13.5694 7.6846 13.4919 7.79085Z" fill="#925849"/>
<defs>
<radialGradient id="paint0_radial_718_89" cx="0" cy="0" r="1" gradientUnits="userSpaceOnUse" gradientTransform="translate(9.02019 8.19924) scale(6.6499 6.6499)">
<stop offset="0.507" stop-color="#F29F58"/>
<stop offset="0.7151" stop-color="#F09D56"/>
<stop offset="0.8262" stop-color="#EB9550"/>
<stop offset="0.9141" stop-color="#E18745"/>
<stop offset="0.9898" stop-color="#D47436"/>
<stop offset="1" stop-color="#D27133"/>
</radialGradient>
</defs>
</svg>
