<svg width="18" height="18" viewBox="0 0 18 18" fill="none" xmlns="http://www.w3.org/2000/svg">
<path d="M15.8981 13.9368H10.3171V14.803H15.8981V13.9368Z" fill="#AF0C1A"/>
<path d="M9.64575 14.5493V15.213L16.4791 15.2205C16.4791 15.2205 16.4941 14.5781 16.4716 14.5781C16.4504 14.5793 9.64575 14.5493 9.64575 14.5493Z" fill="#DC0D2A"/>
<path d="M9.64575 13.3882L9.66075 14.0594C9.66075 14.0594 16.4579 14.0956 16.4654 14.0744C16.4729 14.0531 16.4804 13.4394 16.4504 13.4244C16.4216 13.4094 9.64575 13.3882 9.64575 13.3882Z" fill="#DC0D2A"/>
<path d="M2.10986 6.98474C2.10986 6.98474 2.10986 9.24213 2.10986 9.31837C2.10986 9.39462 2.16236 9.46211 2.26111 9.46961C2.35985 9.47711 3.65853 9.45461 3.73353 9.46211C3.80852 9.46961 3.89227 9.40212 3.89227 9.26587C3.89227 9.12963 3.89227 6.99349 3.89227 6.99349C3.89227 6.99349 3.43979 6.65351 3.38605 6.66101C3.3323 6.66851 2.10986 6.98474 2.10986 6.98474Z" fill="#858585"/>
<path d="M2.66233 7.52465C2.55734 7.53715 2.51109 7.59964 2.51109 7.72089C2.51109 7.84213 2.49609 8.65709 2.49609 8.73958C2.49609 8.82208 2.50359 8.90582 2.62484 8.91332C2.74608 8.92082 3.2898 8.92832 3.3573 8.92082C3.42479 8.91332 3.47854 8.83833 3.48604 8.73958C3.49354 8.64084 3.48604 7.75838 3.48604 7.68964C3.48604 7.56839 3.40355 7.5309 3.2973 7.5309C3.19106 7.5309 2.78233 7.50965 2.66233 7.52465Z" fill="#B0B0B0"/>
<path d="M13.7444 7.6571L13.7594 6.87964L11.932 6.88714L11.917 7.6196L12.3695 8.11082H12.6382C12.6282 8.83704 12.5957 11.1157 12.5957 11.1157C12.5957 11.1157 12.4932 11.2619 12.377 11.3719C12.2257 11.5156 11.977 11.7044 11.9995 12.1719C12.0207 12.6018 12.4445 12.9268 12.8607 12.9268C13.3057 12.9268 13.6082 12.6018 13.6232 12.2931C13.6382 11.9831 13.5169 11.9706 13.4494 11.9606C13.3432 11.9456 13.2607 12.0206 13.2382 12.1569C13.2157 12.2931 13.0794 12.4668 12.8457 12.4131C12.612 12.3594 12.4607 12.1031 12.6495 11.8544C12.7844 11.6756 13.0419 11.6206 13.0644 11.4694C13.0844 11.3394 13.0694 8.79954 13.0657 8.10957H13.3444L13.7444 7.6571Z" fill="#858587"/>
<path d="M11.4569 13.2582C11.3131 13.3245 11.3331 13.4382 11.3344 13.5545C11.3394 14.0619 11.3631 15.2144 11.3631 15.2144C11.3631 15.2144 11.3969 15.3806 11.6156 15.3806C11.8769 15.3806 11.8969 15.2069 11.8969 15.2069V13.482L12.8831 12.6645L14.1917 13.6257C14.1917 13.6257 14.228 15.1194 14.228 15.2056C14.228 15.2919 14.3142 15.4081 14.5167 15.4006C14.748 15.3919 14.7767 15.2056 14.7767 15.2056C14.7767 15.2056 14.768 13.6057 14.7605 13.4732C14.748 13.2757 14.4517 13.2795 14.4517 13.2795C14.4517 13.2795 13.008 12.1308 12.8781 12.1245C12.7343 12.1183 11.5569 13.212 11.4569 13.2582Z" fill="#FF510F"/>
<path d="M12.3945 9.602C12.3008 9.617 12.2795 9.68199 12.2795 9.76824C12.2795 9.85448 12.2808 10.7119 12.2808 10.7694C12.2808 10.8269 12.2808 10.8844 12.3608 10.8919C12.4408 10.8994 13.2632 10.8994 13.3057 10.8994C13.3707 10.8994 13.407 10.8194 13.407 10.7194C13.407 10.6182 13.412 9.77449 13.407 9.71699C13.3995 9.62325 13.3132 9.602 13.2407 9.5945C13.1682 9.58575 12.4595 9.592 12.3945 9.602Z" fill="#F1901B"/>
<path d="M1.77368 4.73616L6.02971 2.70752C6.02971 2.70752 7.45838 3.025 10.242 3.70872C13.4831 4.50492 14.1368 4.79491 14.1368 4.79491L13.1606 5.06365L12.3669 4.77116L6.04221 3.25749L2.64739 4.83241L1.90242 4.9424L1.77368 4.73616Z" fill="#858585"/>
<path d="M16.5492 6.64477C16.4817 6.57352 14.5593 4.68862 14.4668 4.68862C14.3743 4.68862 7.51213 4.68862 7.51213 4.68862C7.51213 4.68862 6.39844 3.01871 6.25595 2.81247C6.09596 2.57998 5.95222 2.56749 5.80722 2.80622C5.74848 2.90372 4.67728 4.67612 4.67728 4.67612C4.67728 4.67612 1.85243 4.71237 1.68994 4.69987C1.52745 4.68862 1.4812 4.76987 1.4812 4.83862C1.4812 4.90861 1.4812 7.1185 1.5162 7.141C1.5512 7.16349 4.38605 7.15224 4.38605 7.15224L4.3623 15.5768C4.3623 15.5768 4.10981 15.5818 3.93607 15.5818C3.76233 15.5818 3.66609 15.5843 3.66734 15.7168C3.66734 15.7868 3.66484 16.0868 3.66734 16.1918C3.67234 16.3918 3.65109 16.4943 3.78358 16.493C3.89982 16.4918 7.84587 16.493 8.06585 16.493C8.28584 16.493 8.28584 16.3543 8.28584 16.2843C8.28584 16.2143 8.28584 15.8443 8.28584 15.7293C8.28584 15.6143 8.1821 15.5668 8.10085 15.5668C8.01961 15.5668 7.60338 15.5668 7.60338 15.5668V9.16714C7.60338 9.16714 8.0321 9.19089 8.49458 9.12089C8.95706 9.05089 9.10705 8.53842 9.18829 8.16844C9.26954 7.79846 9.24704 7.1235 9.24704 7.1235C9.24704 7.1235 16.4092 7.14224 16.5604 7.08475C16.7104 7.026 16.7554 6.86601 16.5492 6.64477ZM2.16616 5.27609H3.00362L2.16616 6.21104C2.16616 5.92481 2.16616 5.26859 2.16616 5.27609ZM2.62364 6.34229L3.26861 5.61108L4.04107 6.34229H2.62364ZM4.42355 6.13605L3.55484 5.27609H4.42355V6.13605ZM6.87842 13.0944L5.99846 13.9844L5.11351 13.0944H6.87842ZM5.33225 12.6782L6.02471 11.9632L6.73592 12.6695L5.33225 12.6782ZM5.97221 8.59342L4.97477 7.65472H6.89342L5.97221 8.59342ZM7.10215 8.10844V9.65836L6.30595 8.9084L7.10215 8.10844ZM6.79092 10.0646H5.15726L5.96596 9.25088L6.79092 10.0646ZM7.10215 10.7933V12.3657L6.33095 11.6145L7.10215 10.7933ZM6.74842 10.4733L5.98721 11.3083L5.17601 10.4883L6.74842 10.4733ZM7.1659 6.60477H5.40224L7.16715 5.58233V6.60477H7.1659ZM6.01346 3.46369C6.01346 3.46369 6.80842 4.61738 6.78842 4.65613C6.77842 4.67612 6.37344 4.66113 5.98846 4.65863C5.62598 4.65738 5.281 4.66988 5.27725 4.64613C5.26725 4.59863 6.01346 3.46369 6.01346 3.46369ZM4.96602 5.26734H6.75842L4.95852 6.35354L4.96602 5.26734ZM4.88977 8.18844L5.64098 8.9309L4.88977 9.69586V8.18844ZM4.88977 10.842L5.66223 11.6208L4.89477 12.4307L4.88977 10.842ZM4.88977 13.5457L5.66598 14.3219L4.88977 15.1068V13.5457ZM5.11351 15.5856L6.00346 14.6593L6.91216 15.5681C6.50594 15.5668 5.54974 15.5793 5.11351 15.5856ZM7.10215 15.0956L6.3297 14.3181L7.10215 13.5144V15.0956ZM7.63213 6.60477L7.63963 5.49358L8.69707 6.60727C8.05085 6.60477 7.63213 6.60477 7.63213 6.60477ZM9.25829 6.51478L8.00586 5.2361L10.527 5.2286L9.25829 6.51478ZM9.82701 6.60977L11.0482 5.41484L12.3231 6.61602C11.4832 6.61352 10.5982 6.61102 9.82701 6.60977ZM11.4807 5.2261L14.1893 5.2186L12.8519 6.52728L11.4807 5.2261ZM15.598 6.62352C15.5855 6.62352 14.6768 6.62102 13.4781 6.61852C13.7706 6.32354 14.368 5.71982 14.6143 5.47108C14.9455 5.80732 15.5005 6.37229 15.588 6.45978C15.7142 6.58477 15.6367 6.62352 15.598 6.62352Z" fill="#F3911C"/>
<path d="M8.13965 7.33466L8.14465 8.23837L8.93961 8.83084C8.93961 8.83084 9.1296 8.6096 9.21584 8.11712C9.28834 7.70589 9.24834 7.32341 9.24834 7.32341C9.24834 7.32341 8.15215 7.31966 8.13965 7.33466Z" fill="#A7D0D6"/>
<path d="M7.59208 7.09356C7.59208 7.09356 7.60208 7.92976 7.58208 7.93976C7.56208 7.94976 4.366 7.93226 4.30601 7.91226C4.24601 7.89226 4.24726 7.10356 4.27601 7.09356C4.30476 7.08356 7.59208 7.09356 7.59208 7.09356Z" fill="#D15116"/>
</svg>
