<svg width="18" height="18" viewBox="0 0 18 18" fill="none" xmlns="http://www.w3.org/2000/svg">
<path d="M8.87954 1.94633C5.58971 1.87134 1.96115 4.59994 2.03115 9.01971C2.0924 12.9058 5.01224 15.8468 8.79579 15.9081C12.5793 15.9693 15.9317 13.4682 15.9517 8.99971C15.9729 4.4962 12.4981 2.02883 8.87954 1.94633Z" fill="#FF2A23"/>
<path d="M8.8895 3.52361C6.27964 3.61236 3.64603 5.55975 3.58478 8.99332C3.52354 12.4269 6.52463 14.3393 8.8895 14.3393C11.8918 14.3393 14.4005 11.9744 14.338 8.82833C14.2767 5.6835 11.9118 3.42112 8.8895 3.52361Z" fill="#FFFDFE"/>
<path d="M8.95078 4.86112C6.5859 4.80738 4.8385 6.89727 4.81725 8.89091C4.79725 10.9271 6.07093 13.0032 8.90953 13.1057C11.7481 13.2082 13.0831 10.9471 13.1243 9.03465C13.1668 7.12225 11.6444 4.92237 8.95078 4.86112Z" fill="#FF2A23"/>
<path d="M6.24718 8.9658C6.22718 10.7545 7.50086 11.7832 9.04328 11.7832C10.4445 11.7832 11.8194 10.8995 11.8194 9.0283C11.8194 7.34214 10.5445 6.33469 9.12578 6.27345C7.7071 6.21095 6.26718 7.23964 6.24718 8.9658Z" fill="white"/>
<path d="M7.51208 8.95208C7.43583 10.0183 8.30328 10.5283 9.08449 10.5283C9.82445 10.5283 10.5544 10.042 10.5757 9.05458C10.5944 8.12713 9.86695 7.56091 9.08449 7.53341C8.27704 7.50591 7.57332 8.08588 7.51208 8.95208Z" fill="#FB2B22"/>
<path d="M9.34201 9.03589L8.92328 9.26838L9.72199 10.4046C9.72199 10.4046 10.3395 10.4521 10.4819 10.2908C10.6244 10.1296 10.4632 9.65461 10.4632 9.65461L9.34201 9.03589Z" fill="#CC1935"/>
<path d="M11.9268 7.80095C11.8143 7.56846 11.6993 7.38222 11.3944 7.43972C11.0906 7.49722 10.5294 7.8197 10.4244 7.97219C10.3282 8.11219 10.2344 8.28593 10.2344 8.28593C10.2344 8.28593 9.15947 8.8734 8.98948 8.96964C8.72325 9.12213 8.90699 9.43212 9.09448 9.39712C9.35071 9.34962 10.4957 8.8834 10.4957 8.8834C10.4957 8.8834 10.7381 8.94089 10.8806 8.94089C11.0231 8.94089 11.8356 8.53966 11.9456 8.46592C12.1268 8.34217 12.0406 8.03844 11.9268 7.80095Z" fill="#ACB1B5"/>
<path d="M10.4594 9.6521C10.4594 9.6521 10.3994 9.86459 10.1807 10.0846C9.95322 10.3121 9.71948 10.4021 9.71948 10.4021L10.4407 11.4595C10.4407 11.4595 10.9769 11.4983 11.3669 11.1183C11.7569 10.7383 11.5869 10.2408 11.5869 10.2408L10.4594 9.6521Z" fill="#C8C8C8"/>
<path d="M11.1744 12.5706L10.4395 11.4582C10.4395 11.4582 10.5619 11.3932 10.7232 11.2832C11.0194 11.0807 11.1844 10.9195 11.3957 10.5895C11.5106 10.412 11.5844 10.2395 11.5844 10.2395L12.7206 10.8007C12.7206 10.8007 12.6956 11.6782 12.3244 12.1057C11.9531 12.5331 11.1744 12.5706 11.1744 12.5706Z" fill="#CC1935"/>
<path d="M11.1744 12.5707L11.8056 13.5169C11.8056 13.5169 12.6293 13.5982 13.3043 12.7895C13.9792 11.9807 13.7992 11.3158 13.7992 11.3158L12.7205 10.7996C12.7205 10.7996 12.5106 11.3045 12.0931 11.7895C11.6756 12.2745 11.1744 12.5707 11.1744 12.5707Z" fill="#C8C8C8"/>
<path d="M12.7405 14.9157L11.8068 13.5182C11.8068 13.5182 12.5105 13.107 13.0105 12.5158C13.5292 11.9021 13.8005 11.3184 13.8005 11.3184L15.3116 12.0696C15.3116 12.0696 14.9717 12.9483 14.2179 13.742C13.4805 14.5157 12.7405 14.9157 12.7405 14.9157Z" fill="#CC1935"/>
<path d="M11.2006 8.17093C11.3419 8.43466 11.5756 8.43716 11.8231 8.33217C12.0706 8.22717 13.2393 7.40097 13.2393 7.40097C13.2393 7.40097 14.8267 8.19968 15.8529 7.7997C16.8791 7.40097 16.8503 6.31728 16.8503 6.31728L16.2429 5.9323C16.2429 5.9323 16.6854 5.70231 16.8278 5.61731C16.8978 5.57481 17.0016 5.41732 16.9441 5.27608C16.8991 5.16609 16.7266 5.12859 16.5841 5.18609C16.4416 5.24358 16.0304 5.37233 16.0304 5.37233C16.0304 5.37233 16.1941 4.69111 16.1654 4.65361C16.1366 4.61612 15.8416 4.46362 15.8416 4.46362C15.8416 4.46362 14.8817 4.46362 14.758 4.51112C14.6342 4.55862 13.6843 5.49982 13.6843 5.49982L13.228 6.43102L13.033 6.846C13.033 6.846 11.7019 7.44222 11.5019 7.52721C11.3031 7.61346 11.0269 7.84969 11.2006 8.17093Z" fill="#006CA9"/>
<path d="M13.3168 6.73108C13.3168 6.73108 13.8768 6.3261 14.2755 6.12611C14.6742 5.92612 15.4142 5.68239 15.6329 5.65614C15.8517 5.62989 15.9417 5.68864 15.9804 5.79113C16.0192 5.89363 15.8904 6.02237 15.7804 6.08112C15.6717 6.13861 15.0917 6.40235 14.4492 6.74358C13.8068 7.08481 13.5018 7.3348 13.2418 7.39355C13.1106 7.42355 12.9418 7.30605 12.9318 7.10981C12.9243 6.95732 12.9543 6.82983 13.0543 6.53734C13.1768 6.17736 13.4455 5.63614 13.6718 5.28366C14.0068 4.76244 14.4892 4.40871 15.023 4.31246C15.5567 4.21622 15.9942 4.35121 16.1042 4.4412C16.2129 4.5312 16.2066 4.62369 16.1679 4.65494C16.1292 4.68619 16.0717 4.71119 15.7817 4.60869C15.5804 4.53745 14.9392 4.53745 14.4892 4.87243C14.0343 5.20991 13.923 5.41865 13.7243 5.78613C13.5255 6.15361 13.3168 6.73108 13.3168 6.73108Z" fill="#1F87FD"/>
</svg>
