	<svg
												width="16"
												height="16"
												viewBox="0 0 16 16"
												fill="none"
												xmlns="http://www.w3.org/2000/svg"
											>
												<path
													d="M14.519 14.6685H1.48179C1.39956 14.6685 1.33289 14.6018 1.33289 14.5196V1.4824C1.33289 1.40017 1.39956 1.3335 1.48179 1.3335H14.519C14.6012 1.3335 14.6679 1.40017 14.6679 1.4824V14.5196C14.6679 14.6018 14.6012 14.6685 14.519 14.6685Z"
													fill="#F2A600"
												/>
												<path
													d="M12.7488 3.25146H3.25098V12.7493H12.7488V3.25146Z"
													fill="white"
												/>
												<path
													opacity="0.5"
													d="M14.519 1.3335H1.48179C1.44067 1.3335 1.404 1.35016 1.37622 1.37683L3.2509 3.25117H12.7488L14.6234 1.37683C14.5968 1.35016 14.5601 1.3335 14.519 1.3335Z"
													fill="#D1762C"
												/>
												<path
													d="M3.25056 3.25163L1.37622 1.37695C1.34955 1.40473 1.33289 1.44141 1.33289 1.48252V14.5197C1.33289 14.5608 1.34955 14.5986 1.37622 14.6253L3.25056 12.7506V3.25163Z"
													fill="#DE7340"
												/>
												<path
													d="M13.6122 2.38892V13.6126H2.38855V2.38892H13.6122ZM14.2789 1.72217H1.7218V14.2793H14.2789V1.72217Z"
													fill="#FFCD40"
												/>
												<path
													d="M2.38843 13.6126V2.38892L1.7218 1.72217V14.2793L2.38843 13.6126Z"
													fill="#A65F3E"
												/>
												<path
													d="M13.6044 2.3888L14.2711 1.72217H1.7218L2.38855 2.3888H13.6044Z"
													fill="#D1762C"
												/>
												<path
													d="M13.8346 13.8346H2.16644V2.1665H13.8346V13.8346ZM2.38869 13.6124H13.6123V2.38875H2.38869V13.6124Z"
													fill="#D1762C"
												/>
												<path
													d="M2.38865 13.6124V2.38875L2.16644 2.1665V13.8346L2.38865 13.6124Z"
													fill="#824A34"
												/>
												<path
													d="M13.6123 2.38871L13.8346 2.1665H2.16644L2.38869 2.38871H13.6123Z"
													fill="#A65F3E"
												/>
												<path
													d="M12.0566 3.94482H3.94446V12.057H12.0566V3.94482Z"
													fill="url(#paint0_linear_2447_4817)"
												/>
												<path
													d="M12.0561 7.84766C11.8117 7.91765 11.5972 8.08431 11.4672 8.30319C11.4472 8.33763 11.4295 8.37652 11.3939 8.39763C11.2795 8.43985 11.1484 8.44874 11.0595 8.54873C11.0217 8.31319 10.7362 8.18208 10.5173 8.25541C10.3317 8.30208 10.2395 8.49762 10.2228 8.67539C10.0273 8.61762 9.81176 8.76761 9.79843 8.97093C9.79621 8.98982 9.79621 9.01093 9.78621 9.02648C9.73732 9.07648 9.63844 9.07093 9.57844 9.13092C9.45956 9.22425 9.404 9.38535 9.27734 9.46757C9.99286 9.06426 10.8584 9.12092 11.6383 8.92538C11.7928 8.8876 11.965 8.83983 12.0561 8.70428V7.84766Z"
													fill="#1B5E20"
												/>
												<path
													d="M12.0566 11.3998C12.0566 11.3998 10.213 11.4953 8.20057 10.8754C6.1881 10.2565 5.26465 9.62321 5.26465 9.62321C5.26465 9.62321 6.61037 9.88431 8.40726 9.59099C9.58408 9.39878 10.4564 8.73326 12.0544 8.70215L12.0566 11.3998Z"
													fill="#689F38"
												/>
												<path
													d="M7.27824 9.74526C7.2938 9.72415 7.31268 9.70415 7.31935 9.67859C7.32713 9.64748 7.31491 9.61526 7.30602 9.58526C7.28157 9.49749 7.28935 9.40083 7.32602 9.31639C7.3449 9.27195 7.37268 9.23195 7.38601 9.18529C7.40935 9.10529 7.38712 9.01974 7.38268 8.93641C7.37601 8.82308 7.40157 8.70864 7.4549 8.60865C7.46268 8.5942 7.47156 8.57976 7.48712 8.57198C7.52934 8.5531 7.56489 8.61198 7.56934 8.65753C7.58267 8.77308 7.55823 8.89197 7.58267 9.00641C7.61711 9.1664 7.74599 9.30528 7.73711 9.46971C7.73377 9.5286 7.71266 9.58749 7.72377 9.64415C7.73266 9.68748 7.76044 9.72526 7.78377 9.76303C7.84377 9.86081 7.88043 9.9708 7.89154 10.0852C7.90488 10.2219 7.86377 10.3852 7.73599 10.433C7.59711 10.4863 7.4549 10.373 7.34602 10.2986C7.24602 10.2297 7.19825 10.0875 7.20158 9.9708C7.2038 9.8908 7.22936 9.8097 7.27824 9.74526Z"
													fill="#2E7D32"
												/>
												<path
													d="M10.5363 7.21366C10.0952 7.24589 9.65401 7.27811 9.21173 7.31033C8.99281 7.32588 8.77056 7.34255 8.55498 7.30033C8.45274 7.28033 8.35273 7.247 8.24827 7.24144C8.05825 7.23144 7.87712 7.31255 7.69265 7.35921C7.4904 7.41032 7.27815 7.42032 7.07257 7.3881C6.92922 7.36588 6.78253 7.31922 6.67808 7.21811C6.62585 7.16811 6.58584 7.10478 6.53028 7.05701C6.4625 6.99701 6.37471 6.96368 6.29914 6.91479C5.9791 6.71036 5.90354 6.20927 6.14912 5.91929C6.18913 5.87262 6.2358 5.8304 6.27136 5.7793C6.34026 5.68152 6.36248 5.55931 6.4036 5.44709C6.53362 5.086 6.87255 4.81157 7.25148 4.74935C7.63042 4.68713 8.03491 4.83601 8.2905 5.12266C8.37385 5.21599 8.4483 5.32599 8.56387 5.37265C8.63165 5.39932 8.70722 5.40154 8.77945 5.41043C9.19173 5.46265 9.53732 5.7793 9.7129 6.15594C9.79069 6.32371 9.84514 6.50926 9.97516 6.63925C10.0285 6.69258 10.0929 6.7348 10.1574 6.7748C10.4463 6.95479 10.7486 7.11256 11.0608 7.247C10.9808 7.24144 10.9019 7.237 10.8219 7.23144"
													fill="white"
												/>
												<path
													d="M9.21178 7.31053C8.99286 7.32608 8.77061 7.34275 8.55503 7.30053C8.45279 7.28053 8.35278 7.2472 8.24832 7.24164C8.0583 7.23164 7.87717 7.31275 7.6927 7.35941C7.49045 7.41052 7.2782 7.42052 7.07262 7.3883C6.92927 7.36608 6.78259 7.31942 6.67813 7.21831C6.6259 7.16831 6.58589 7.10498 6.53033 7.05721C6.46255 6.99721 6.37476 6.96388 6.29919 6.91499C6.18362 6.84055 6.11806 6.73722 6.05805 6.61723C6.0436 6.58945 6.0436 6.5639 6.04138 6.53279C6.13806 6.68167 6.3992 6.84166 6.50366 6.725C6.53811 6.62279 6.41587 6.44502 6.37476 6.30391C6.29697 6.03726 6.28919 5.76061 6.38476 5.49951C6.39587 5.4684 6.42365 5.3673 6.46143 5.31396C6.49033 5.53062 6.56589 5.85949 6.72036 6.01393C6.87482 6.16836 7.13263 6.23392 7.31821 6.11837C7.43489 6.04504 7.50379 5.91727 7.58824 5.80838C7.83716 5.48951 8.27166 5.32619 8.66949 5.40285C8.46391 5.52284 8.26388 5.66839 8.14276 5.87282C8.02163 6.07726 7.99274 6.35169 8.12831 6.54835C8.23721 6.70611 8.43501 6.78722 8.62615 6.78389C8.73172 6.78167 8.85062 6.745 8.89396 6.64834C8.91841 6.59279 8.91285 6.52612 8.94063 6.47168C8.99286 6.36724 9.14621 6.35391 9.24956 6.40724C9.35402 6.46168 9.42514 6.56057 9.50515 6.64501C9.80519 6.96055 10.2486 7.08721 10.6686 7.20053C10.6564 7.1972 10.6308 7.2072 10.6175 7.20942C10.5975 7.21276 10.5775 7.21609 10.5575 7.21942C10.5264 7.22498 10.4953 7.23275 10.463 7.22831C10.3964 7.21831 10.3286 7.22942 10.2619 7.23386C10.1052 7.24498 9.94743 7.2572 9.79074 7.26831C9.59849 7.28164 9.40514 7.29608 9.21178 7.31053Z"
													fill="#C9E3E6"
												/>
												<path
													d="M12.0566 10.4487C8.15943 11.3565 6.30698 9.12659 3.94446 8.87549V12.0564H12.0566V10.4487Z"
													fill="#8BC34A"
												/>
												<path
													d="M12.0566 10.4487C8.15943 11.3565 6.30698 9.12659 3.94446 8.87549V12.0564H12.0566V10.4487Z"
													fill="url(#paint1_radial_2447_4817)"
												/>
												<path
													d="M4.92438 9.46168C4.80883 9.49613 4.71328 9.40724 4.61662 9.36058C4.35997 9.17059 4.35997 8.82394 4.37997 8.53395C4.37441 8.46507 4.4233 8.35174 4.50441 8.40063C4.47108 8.23397 4.46774 8.06176 4.49218 7.89399C4.50885 7.76399 4.5544 7.674 4.65995 7.60734C4.66662 7.594 4.66218 7.57845 4.65884 7.564C4.60996 7.3729 4.69884 7.17514 4.70773 6.97737C4.71551 6.82293 4.6744 6.66294 4.72773 6.5185C4.74995 6.45406 4.83106 6.41851 4.8455 6.49962C4.92327 6.80404 5.05771 7.10736 5.03216 7.42735C5.02327 7.47068 5.03993 7.50623 5.07549 7.53178C5.30214 7.734 5.20104 8.0862 5.2377 8.36063C5.34436 8.61284 5.34214 8.89505 5.21548 9.14059C5.15771 9.27614 5.06438 9.40169 4.92438 9.46168Z"
													fill="#2E7D32"
												/>
												<path
													d="M6.46127 9.63067C5.97019 9.5129 5.95019 9.64289 5.78798 9.60511C5.23023 9.43734 5.57354 8.89404 5.73465 8.76182C5.66687 8.50295 5.84353 8.3974 6.05241 8.14186C6.08574 7.61855 6.58793 7.77076 6.52349 8.22963C6.65682 8.40295 6.7057 8.59294 6.66237 8.8096C6.67571 8.93848 6.80126 9.02292 6.86014 9.13847C6.97458 9.36401 6.78237 9.70733 6.46127 9.63067Z"
													fill="#689F38"
												/>
												<path
													d="M6.27462 8.77985C6.21573 8.90206 6.04685 8.92762 5.91464 8.89429C5.85353 8.87873 5.78909 8.8454 5.7302 8.86762C5.59243 8.91873 5.5491 9.02984 5.54466 9.14094C5.54466 9.28982 5.69354 9.40648 5.84242 9.41315C5.9913 9.41982 6.13129 9.34204 6.24351 9.24649C6.27684 9.44648 6.58682 9.44093 6.72237 9.32649C6.85125 9.2176 6.7957 9.04317 6.7957 9.04317C6.95014 9.21538 6.94236 9.35093 6.92458 9.49426C6.90792 9.63203 6.78903 9.78535 6.86014 9.89201C6.61349 9.95534 6.49127 9.74313 6.29462 9.65536C6.2224 9.63536 6.14685 9.65647 6.07352 9.67091C5.77131 9.7498 5.43244 9.57203 5.43022 9.2376C5.42799 9.0765 5.51688 8.91762 5.65243 8.82985C5.66798 8.81985 5.68465 8.80985 5.69131 8.79207C5.69798 8.77318 5.69131 8.75318 5.68465 8.7343C5.54688 8.36543 5.90686 8.36876 6.06241 8.12988C6.12462 8.19877 6.22684 8.22765 6.31573 8.2021C6.24573 8.36431 6.04907 8.28654 5.92463 8.35209C5.69354 8.54208 6.07352 8.80874 6.27462 8.77985Z"
													fill="#2E7D32"
												/>
												<path
													d="M4.61111 8.03417C4.6911 8.17971 4.9022 8.29748 4.85443 8.48747C4.78221 8.4397 4.69443 8.37859 4.60666 8.38192C4.53333 8.4797 4.56222 8.6508 4.61999 8.75191C4.88887 9.11189 5.17885 8.56858 5.20107 8.31415C5.52772 8.69635 5.22885 9.7563 4.63777 9.38743C4.55889 9.3241 4.3289 9.06967 4.34223 8.64524C4.35001 8.38748 4.45334 8.37081 4.51333 8.37859C4.42556 8.24304 4.40889 8.05083 4.44334 7.91195C4.47334 7.79307 4.52555 7.69752 4.60555 7.61974C4.68666 7.53975 4.62777 7.46864 4.62999 7.34642C4.63222 7.16865 4.67888 7.06644 4.71554 6.96533C4.72888 7.15421 4.79887 7.34865 4.76888 7.53641C4.7511 7.61641 4.66221 7.6153 4.62222 7.67307C4.55666 7.78084 4.55111 7.92306 4.61111 8.03417Z"
													fill="#1B5E20"
												/>
												<path
													d="M5.00664 10.0212C5.04886 10.1578 4.54888 10.0578 4.61888 9.88229C4.66776 9.76007 4.68999 9.6323 4.71443 9.50675C4.73887 9.30787 4.67999 9.1301 4.58777 8.96011C4.60888 8.94122 4.63332 8.92456 4.65888 8.91234C4.85887 9.28343 4.86553 9.15232 5.02997 8.86234C5.06108 8.85901 5.09219 8.86123 5.12218 8.86901C4.92331 9.18455 4.87553 9.65674 5.00664 10.0212Z"
													fill="url(#paint2_radial_2447_4817)"
												/>
												<defs>
													<linearGradient
														id="paint0_linear_2447_4817"
														x1="7.35993"
														y1="10.2856"
														x2="8.28906"
														y2="6.97175"
														gradientUnits="userSpaceOnUse"
													>
														<stop offset="0.1167" stopColor="#AFE4FE" />
														<stop offset="0.6082" stopColor="#84C9ED" />
														<stop offset="1" stopColor="#5FB2DE" />
													</linearGradient>
													<radialGradient
														id="paint1_radial_2447_4817"
														cx="0"
														cy="0"
														r="1"
														gradientUnits="userSpaceOnUse"
														gradientTransform="translate(9.71023 10.5339) rotate(8.61827) scale(3.99428 2.03076)"
													>
														<stop stopColor="#D4E157" />
														<stop offset="1" stopColor="#D4E157" stopOpacity="0" />
													</radialGradient>
													<radialGradient
														id="paint2_radial_2447_4817"
														cx="0"
														cy="0"
														r="1"
														gradientUnits="userSpaceOnUse"
														gradientTransform="translate(5.06834 9.42892) rotate(15.9186) scale(0.528617 0.65868)"
													>
														<stop offset="0.4413" stopColor="#A06841" />
														<stop offset="0.9229" stopColor="#A06841" stopOpacity="0.138" />
														<stop offset="1" stopColor="#A06841" stopOpacity="0" />
													</radialGradient>
												</defs>
											</svg>