<svg width="32" height="32" fill="none" xmlns="http://www.w3.org/2000/svg"><path d="M4.497 27.294c-.295 0-.255.354-.255 1.02 0 .667-.04 1.04.313 1.04s22.723-.04 22.958-.057c.236-.02.176-.883.176-1.216 0-.411.058-.764-.273-.784-.334-.02-22.801-.003-22.919-.003z" fill="#ED6D30"/><path d="M4.573 21.86l.022 5.453 22.7-.022.052-5.577-.5-.56-22.092-.038-.182.744z" fill="#F78A51"/><path d="M5.037 21.47l-.464.39-.002.864s.15.107.302.031c.15-.075.362-.222.549-.238.298-.022.273.262.56.262.287 0 .547-.286.789-.286s.353.306.611.291c.258-.016.402-.276.725-.267.257.007.302.267.62.267.317 0 .48-.302.75-.302.272 0 .36.32.663.32.302 0 .385-.32.731-.32.347 0 .318.302.605.27.287-.03.315-.28.662-.295.347-.015.382.327.685.327.302 0 .293-.247.55-.247l5.224-.01c.182 0 .462.32.764.32.303 0 .218-.343.55-.352.197-.004.581.329.808.329.227 0 .31-.342.565-.358.255-.015.635.378.938.347.302-.031.15-.333.377-.362.227-.031.68.333.983.346.302.016.107-.393.422-.393.316 0 .56.347.891.362.332.016.107-.346.438-.378.331-.03.574.454.891.423.318-.032.183-.378.454-.394.27-.015.649.227.649.227l.013-.938-13.06-4.124-9.243 3.889z" fill="#ED6D30"/><path d="M13.305 29.327s.056-6.547.047-6.707c-.011-.193.16-.24.297-.24h4.845c.137 0 .217.103.229.23.01.126-.023 6.706-.023 6.706l-5.395.01z" fill="#51362F"/><path d="M3.655 18.724s-.916 2.025-.907 2.178c.009.153.264 1.084.673 1.109.56.033.663-.458.756-.458.093 0 .218.48.538.527.373.053.642-.547.787-.547.144 0 .215.522.553.522.338 0 .698-.564.831-.553.134.011.262.6.538.6.278 0 .549-.502.789-.527.124-.01.242.563.469.571.227.011.613-.593.809-.593.196 0 .349.624.647.596.297-.03.7-.585.842-.585.142 0 .298.562.531.573.211.01.56-.528.703-.537.142-.01.313.549.548.549.236 0 .492-.605.687-.616.196-.011.278.569.514.569.235 0 .584-.585.8-.593.215-.012.333.56.549.56.215 0 .455-.58.609-.587.237-.009.389.564.718.576.328.01.462-.554.717-.554.256 0 .33.534.616.545.287.01.522-.554.738-.545.215.011.358.522.595.522.238 0 .472-.522.647-.513.174.011.411.533.647.533.236 0 .431-.54.544-.544.218-.007.44.564.667.544.227-.02.49-.582.685-.573.195.011.495.638.731.618.236-.02.436-.616.651-.607.216.01.39.55.663.55.25 0 .39-.517.617-.528.227-.01.438.494.674.47.235-.025.33-.494.538-.503.204-.011.506.531.804.52.298-.011.451-.431.616-.44.164-.009.306.458.706.451.36-.004.832-.678.738-1.149-.093-.47-1.373-2.348-1.373-2.348l-24.205.217z" fill="#6C4D43"/><path d="M5.595 13.357s-1.194 1.676-1.902 3.207c-.71 1.531-.983 2.438-1.027 3.332-.045.873.082 1.006.082 1.006l1.296-1.415s.013 1.338.109 1.351c.095.013 1.093-1.38 1.16-1.393.069-.014.069 1.406.164 1.406.096 0 1.12-1.433 1.19-1.433.068 0 .095 1.42.177 1.42.082 0 1.011-1.447 1.08-1.434.069.014.314 1.516.396 1.516.082 0 .942-1.529 1.038-1.529.095 0 .204 1.585.313 1.585.109 0 .956-1.53 1.025-1.53.069 0 .342 1.516.45 1.503.11-.013.86-1.502.93-1.476.069.027.246 1.463.369 1.463.122 0 .778-1.503.886-1.503.11 0 .385 1.458.467 1.458.082 0 .765-1.462.847-1.475.082-.014.52 1.61.656 1.61.135 0 .546-1.502.642-1.488.095.013.738 1.433.791 1.433.053 0 .533-1.489.587-1.489.053 0 .695 1.352.791 1.367.096.014.451-1.351.52-1.325.069.027.725 1.434.807 1.447.082.014.369-1.475.451-1.475.082 0 .982 1.638 1.051 1.624.07-.013.152-1.653.232-1.667.082-.013 1.16 1.612 1.242 1.598.082-.013.04-1.653.095-1.653.056 0 .943 1.529 1.065 1.516.122-.014.231-1.434.313-1.434.083 0 1.065 1.667 1.19 1.654.124-.014.026-1.558.082-1.572.055-.013 1.16 1.394 1.215 1.38.056-.013.04-1.515.136-1.529.096-.013 1.12 1.463 1.216 1.434.095-.027.108-1.503.164-1.516.056-.013 1.336 1.523 1.336 1.523s.249-1.336-.191-2.616-1.51-3.079-2.027-3.843a13.615 13.615 0 00-.818-1.118L13.565 11.66l-7.97 1.698z" fill="#A37F69"/><path d="M9.973 8.22s-1.686 1.661-2.491 2.621c-.805.96-1.89 2.514-1.89 2.514s-.392 1.818-.277 1.831c.118.014 1.271-1.725 1.376-1.713.104.013-.17 1.751-.065 1.778.105.026 1.39-1.803 1.454-1.816.064-.014-.207 1.802-.118 1.829.089.027 1.39-1.816 1.467-1.816.078 0 .182 1.7.284 1.7.103 0 .96-1.724 1.038-1.713.078.013.26 1.778.39 1.802.128.027.726-1.829.83-1.842.105-.013.363 1.947.48 1.947.118 0 .74-1.92.818-1.92.078 0 .274 1.92.403 1.92s.713-1.958.79-1.958c.079 0 .636 1.88.728 1.855.09-.026.584-1.88.675-1.869.091.014.518 1.816.676 1.843.155.027.571-1.752.7-1.752s.467 1.972.622 1.972c.156 0 .507-1.972.585-1.972.078 0 .791 1.947.909 1.959.118.013.247-1.856.389-1.87.142-.013.909 1.87.987 1.856.077-.013.142-1.842.22-1.856.077-.013.946 1.714 1.089 1.714.142 0 .05-1.791.182-1.778.129.013 1.427 1.88 1.544 1.88.118 0-.337-1.947-.233-1.971.105-.027 1.467 2.076 1.61 2.036.142-.04-.363-1.907-.274-1.934.091-.027 1.505 1.83 1.636 1.778.128-.051-.307-1.998-.307-1.998s-1.302-1.7-1.976-2.53c-.675-.83-1.738-1.933-1.738-1.933l-5.238-2.616-7.275 2.023z" fill="#BD9177"/><path d="M9.973 8.22s-.637 1.202-.509 1.278c.13.075 1.71-1.442 1.863-1.404.153.037-.511 1.606-.293 1.657.217.051 1.262-1.722 1.39-1.697.128.024-.268 1.722-.064 1.786.205.065 1.085-1.85 1.225-1.824.14.024.102 1.913.229 1.926.127.014.778-1.837.867-1.837.089 0 .344 1.953.498 1.964.153.013.61-2.033.713-2.033.102 0 .613 1.93.78 1.93.167 0 .267-1.948.356-1.986.088-.038.835 1.871 1.049 1.871.184 0-.13-1.9-.014-1.926.116-.025 1.174 1.964 1.392 1.953.217-.013-.16-1.856-.058-1.856.102 0 1.271 1.843 1.462 1.843.191 0-.4-1.874-.284-1.9.115-.025 1.855 1.642 1.958 1.615.102-.024-.051-.769-.051-.769s-4.199-4.315-6.548-4.326c-2.4-.013-5.96 3.735-5.96 3.735z" fill="#D2A590"/></svg>