<svg width="18" height="18" viewBox="0 0 18 18" fill="none" xmlns="http://www.w3.org/2000/svg">
<path d="M1.76871 13.4269C1.76871 12.2208 5.00604 11.5608 8.99958 11.5608C12.9931 11.5608 16.2304 12.2208 16.2304 13.4269C16.2304 15.1244 12.9931 16.4993 8.99958 16.4993C5.00604 16.4993 1.76871 15.1244 1.76871 13.4269Z" fill="#94D1E0"/>
<path d="M2.39368 7.33472V13.0282H2.39743C2.48117 14.5093 5.38727 15.6993 8.96208 15.6993C12.5369 15.6993 15.443 14.5093 15.5267 13.0282H15.5305V7.33472H2.39368Z" fill="#E63F33"/>
<path d="M3.92859 10.4544C5.28977 11.0219 7.07718 11.3344 8.96208 11.3344C10.847 11.3344 12.6394 11.0331 13.9956 10.4544C15.2142 9.93445 15.338 9.58947 15.5305 9.39073V8.63452C15.1743 9.107 14.573 9.53072 13.7518 9.87196C12.4656 10.4082 10.7645 10.7032 8.96083 10.7032C7.15717 10.7032 5.45601 10.4082 4.16983 9.87196C3.34987 9.52947 2.74866 9.107 2.39117 8.63452V9.55572L3.02239 10.0007C3.29488 10.1644 3.59611 10.3157 3.92859 10.4544Z" fill="#BDBDBD"/>
<path fill-rule="evenodd" clip-rule="evenodd" d="M6.39345 10.3438C6.53472 10.3438 6.64924 10.4583 6.64924 10.5995V15.6605C6.64924 15.8018 6.53472 15.9163 6.39345 15.9163C6.25218 15.9163 6.13766 15.8018 6.13766 15.6605V10.5995C6.13766 10.4583 6.25218 10.3438 6.39345 10.3438Z" fill="#94D1E0"/>
<path fill-rule="evenodd" clip-rule="evenodd" d="M11.5307 10.3438C11.672 10.3438 11.7865 10.4583 11.7865 10.5995V15.6605C11.7865 15.8018 11.672 15.9163 11.5307 15.9163C11.3894 15.9163 11.2749 15.8018 11.2749 15.6605V10.5995C11.2749 10.4583 11.3894 10.3438 11.5307 10.3438Z" fill="#94D1E0"/>
<path d="M6.25098 14.2556C6.13474 14.2131 6.03099 14.1244 5.971 14.0169C5.86475 13.8256 5.8735 13.5806 5.86975 13.3356C5.86225 12.8019 6.00974 12.6694 6.18348 12.6694H6.60221C6.91595 12.7982 6.91595 13.0569 6.91595 13.2307C6.91595 13.4119 6.91595 13.3469 6.91595 13.5281C6.91595 13.7906 6.92969 14.0531 6.67846 14.2194C6.65471 14.2356 6.45972 14.3318 6.25098 14.2556Z" fill="#94D1E0"/>
<path d="M11.6694 14.2556C11.7819 14.2044 11.8807 14.1181 11.9494 14.0169C12.0981 13.7981 12.0469 13.5806 12.0507 13.3356C12.0582 12.8307 11.9107 12.6694 11.7369 12.6694H11.3182C11.0045 12.7982 11.0045 13.0569 11.0045 13.2307C11.0045 13.4119 11.0045 13.3469 11.0045 13.5281C11.0045 13.7906 11.0095 14.0269 11.2419 14.2194C11.3494 14.3081 11.5557 14.3081 11.6694 14.2556Z" fill="#94D1E0"/>
<path d="M16.0405 11.3856C16.028 10.7969 15.9205 10.6957 15.6405 10.7194C15.6405 9.63947 15.6405 8.66577 15.6405 8.66577L15.228 8.92076L15.258 13.8255C15.258 13.8255 15.6392 13.943 15.6392 13.5318C15.6392 13.4105 15.6392 12.938 15.6392 12.3318C16.0467 12.1893 16.068 11.7556 16.0405 11.3856Z" fill="#94D1E0"/>
<path d="M2.68615 8.85704L2.27367 8.60205C2.27367 8.60205 2.27367 9.6145 2.27367 10.7194C1.99369 10.6957 1.88619 10.7969 1.87369 11.3857C1.87369 11.6306 1.83244 11.8481 1.96119 12.0669C2.03493 12.1894 2.14118 12.2931 2.27367 12.3319C2.27367 12.9143 2.27367 13.3655 2.27367 13.483C2.27367 13.8943 2.6549 13.7768 2.6549 13.7768L2.68615 8.85704Z" fill="#94D1E0"/>
<path d="M15.8942 7.56211C15.6905 5.15599 11.3494 4.47727 8.96207 4.48477C6.59595 4.46477 2.05119 5.19598 2.03244 7.6671C0.728759 9.99448 4.86104 11.5519 8.99957 11.5619C13.1519 11.5719 17.4404 9.91699 15.8942 7.56211Z" fill="#94D1E0"/>
<path d="M8.96208 10.3231C12.5897 10.3231 15.5305 9.09754 15.5305 7.58574C15.5305 6.07394 12.5897 4.84839 8.96208 4.84839C5.33445 4.84839 2.39368 6.07394 2.39368 7.58574C2.39368 9.09754 5.33445 10.3231 8.96208 10.3231Z" fill="#FFCC80"/>
<path d="M8.96205 10.3657C12.3108 10.3657 15.0255 9.23473 15.0255 7.83959C15.0255 6.44446 12.3108 5.31348 8.96205 5.31348C5.61331 5.31348 2.89862 6.44446 2.89862 7.83959C2.89862 9.23473 5.61331 10.3657 8.96205 10.3657Z" fill="#FEF6E0"/>
<path d="M7.73839 9.38452L3.36987 6.48217L4.05984 6.14844L7.94213 9.09828L7.73839 9.38452Z" fill="#FFCC80"/>
<path d="M10.2932 9.38452L14.6605 6.48217L13.9718 6.14844L10.0883 9.09828L10.2932 9.38452Z" fill="#FFCC80"/>
<path d="M8.20462 8.83084C8.02838 8.5921 7.74214 8.53836 7.70589 8.47211L7.5634 8.21712C7.51465 8.12963 7.4784 8.07463 7.43841 8.02213L2.48367 1.64247C2.36617 1.48998 2.14994 1.45498 1.98869 1.56248C1.80995 1.68372 1.77371 1.93246 1.9112 2.0987L6.91343 8.39961C6.97968 8.48211 7.05468 8.55711 7.13842 8.62085L7.34841 8.78209C7.40466 8.82459 7.39466 9.09583 7.5934 9.27832C7.75839 9.42956 8.01588 9.48456 8.17962 9.31207C8.30586 9.18082 8.30836 8.97083 8.20462 8.83084Z" fill="#BA793E"/>
<path d="M9.85326 8.83084C10.0295 8.5921 10.3157 8.53836 10.352 8.47211L10.4945 8.21712C10.5432 8.12963 10.5795 8.07463 10.6195 8.02213L15.5742 1.64247C15.693 1.48998 15.9092 1.45498 16.0692 1.56248C16.2479 1.68372 16.2842 1.93246 16.1467 2.0987L11.1444 8.40086C11.0782 8.48336 11.0032 8.55836 10.9195 8.6221L10.7095 8.78334C10.6532 8.82584 10.6632 9.09708 10.4645 9.27957C10.2995 9.43081 10.042 9.48581 9.87826 9.31332C9.75202 9.18082 9.74952 8.97083 9.85326 8.83084Z" fill="#BA793E"/>
<path d="M3.38108 10.0295C2.65487 9.57824 2.32114 9.12202 2.37989 8.97078C2.41738 8.87453 2.55613 8.87453 2.62237 8.95328C3.27859 9.72574 4.62352 10.2695 5.59472 10.4494C5.69596 10.4682 5.77346 10.6569 5.50097 10.6832C5.26473 10.7044 4.33978 10.6257 3.38108 10.0295Z" fill="white"/>
<path d="M11.4494 14.0019C11.3669 14.0356 11.2744 13.9356 11.2357 13.8044C11.1969 13.6731 11.1744 13.2156 11.1969 13.0819C11.2182 12.9494 11.2457 12.8682 11.3494 12.8682C11.4532 12.8682 11.5369 12.9519 11.5369 13.0557C11.5369 13.0557 11.5244 13.5556 11.5307 13.6769C11.5369 13.8006 11.5319 13.9681 11.4494 14.0019Z" fill="white"/>
<path d="M6.30596 14.0019C6.22347 14.0356 6.13097 13.9356 6.09222 13.8044C6.05348 13.6731 6.03098 13.2156 6.05348 13.0819C6.07597 12.9482 6.10222 12.8682 6.20597 12.8682C6.30971 12.8682 6.39346 12.9519 6.39346 13.0557C6.39346 13.0557 6.38096 13.5556 6.38721 13.6769C6.39346 13.8006 6.38846 13.9681 6.30596 14.0019Z" fill="white"/>
</svg>
