
<svg width="28" height="18" fill="none" xmlns="http://www.w3.org/2000/svg"><path d="M22.895.112 5.105.085C1.756.085.665 1.443.665 4.277v9.424c0 2.318.72 4.191 4.44 4.191l17.792.027c3.34 0 4.44-1.431 4.44-4.192V4.304C27.336 1.19 26.154.112 22.895.112Z" fill="#504F4F"/><path d="M23.35 15.798h-1.928c-.86 0-1.3-.676-1.3-1.533 0-.86.44-1.534 1.3-1.534h1.928c.86 0 1.3.676 1.3 1.534-.004.797-.444 1.533-1.3 1.533Z" fill="#000"/><path d="M23.243 14.78H21.51c-.453 0-.442-.226-.442-.515 0-.29-.011-.516.442-.516h1.733c.454 0 .463.227.463.516-.003.266-.012.515-.463.515Z" fill="#8BC34A"/><path d="M6.58 15.798H4.65c-.86 0-1.3-.676-1.3-1.533 0-.86.44-1.534 1.3-1.534h1.93c.86 0 1.3.676 1.3 1.534 0 .797-.443 1.533-1.3 1.533Z" fill="#000"/><path d="M5.615 15.19a.924.924 0 1 0 0-1.85.924.924 0 0 0 0 1.85Z" fill="#F44336"/><path d="M17.758 15.798h-1.929c-.86 0-1.3-.676-1.3-1.533 0-.86.44-1.534 1.3-1.534h1.929c.86 0 1.3.676 1.3 1.534.002.797-.44 1.533-1.3 1.533Z" fill="#000"/><path d="m16.343 13.34 1.53.925-1.53.924V13.34Z" fill="#EEE"/><path d="M10.242 15.798h1.929c.86 0 1.3-.676 1.3-1.533 0-.86-.44-1.534-1.3-1.534h-1.93c-.86 0-1.3.676-1.3 1.534-.001.797.44 1.533 1.3 1.533Z" fill="#000"/><path d="m11.657 13.34-1.531.925 1.531.924V13.34Z" fill="#EEE"/><path d="M24.123 9.58a.837.837 0 0 1-.845.845H4.714a.837.837 0 0 1-.845-.844V4.094c0-.47.371-.844.845-.844h18.564c.471 0 .845.371.845.844v5.487Z" fill="#8DCC47"/><path opacity=".5" d="m9.03 6.237-.363.362a.144.144 0 0 1-.202 0l-.362-.362a.141.141 0 0 1-.042-.103V5.125a.15.15 0 0 1 .042-.102l.362-.362a.144.144 0 0 1 .202 0l.362.362a.141.141 0 0 1 .043.102v1.01c0 .04-.016.075-.043.102ZM9.03 8.65l-.363.363a.143.143 0 0 1-.202 0l-.362-.363a.141.141 0 0 1-.042-.102V7.54a.15.15 0 0 1 .042-.102l.362-.362a.143.143 0 0 1 .202 0l.362.362a.141.141 0 0 1 .043.102v1.01c0 .04-.016.075-.043.101ZM10.887 6.237l-.362.362a.143.143 0 0 1-.202 0l-.362-.362a.141.141 0 0 1-.043-.103V5.125a.15.15 0 0 1 .043-.102l.362-.362a.143.143 0 0 1 .202 0l.362.362a.141.141 0 0 1 .043.102v1.01c0 .04-.016.075-.043.102ZM13.532 6.237l-.362.362a.143.143 0 0 1-.202 0l-.362-.362a.141.141 0 0 1-.043-.103V5.125a.15.15 0 0 1 .043-.102l.362-.362a.143.143 0 0 1 .202 0l.362.362a.141.141 0 0 1 .043.102v1.01c0 .04-.016.075-.043.102ZM13.532 8.65l-.362.363a.143.143 0 0 1-.202 0l-.362-.363a.141.141 0 0 1-.043-.102V7.54a.15.15 0 0 1 .043-.102l.362-.362a.143.143 0 0 1 .202 0l.362.362a.141.141 0 0 1 .043.102v1.01c0 .04-.016.075-.043.101ZM11.14 4.888l-.362-.363a.143.143 0 0 1 0-.202l.363-.362a.141.141 0 0 1 .102-.042h1.011a.15.15 0 0 1 .102.042l.362.362a.144.144 0 0 1 0 .202l-.362.363a.141.141 0 0 1-.102.042h-1.011a.142.142 0 0 1-.102-.042ZM11.14 7.301l-.362-.362a.143.143 0 0 1 0-.202l.363-.362a.141.141 0 0 1 .102-.042h1.011a.15.15 0 0 1 .102.042l.362.362a.144.144 0 0 1 0 .202l-.362.362a.141.141 0 0 1-.102.043h-1.011a.143.143 0 0 1-.102-.043ZM11.14 9.715l-.362-.362a.143.143 0 0 1 0-.202l.363-.362a.141.141 0 0 1 .102-.043h1.011a.15.15 0 0 1 .102.043l.362.362a.144.144 0 0 1 0 .202l-.362.362a.141.141 0 0 1-.102.042h-1.011a.143.143 0 0 1-.102-.042ZM15.39 6.237l-.363.362a.143.143 0 0 1-.202 0l-.362-.362a.141.141 0 0 1-.042-.103V5.125a.15.15 0 0 1 .042-.102l.362-.362a.143.143 0 0 1 .203 0l.362.362a.141.141 0 0 1 .042.102v1.01c0 .04-.016.075-.042.102ZM18.037 6.237l-.362.362a.143.143 0 0 1-.202 0l-.362-.362a.141.141 0 0 1-.043-.103V5.125a.15.15 0 0 1 .043-.102l.362-.362a.143.143 0 0 1 .202 0l.362.362a.141.141 0 0 1 .042.102v1.01a.164.164 0 0 1-.042.102ZM18.037 8.65l-.362.363a.143.143 0 0 1-.202 0l-.362-.363a.141.141 0 0 1-.043-.102V7.54a.15.15 0 0 1 .043-.102l.362-.362a.143.143 0 0 1 .202 0l.362.362a.141.141 0 0 1 .042.102v1.01a.164.164 0 0 1-.042.101ZM15.644 4.888l-.363-.363a.144.144 0 0 1 0-.202l.363-.362a.141.141 0 0 1 .102-.042h1.01a.15.15 0 0 1 .103.042l.362.362a.143.143 0 0 1 0 .202l-.362.363a.141.141 0 0 1-.102.042h-1.011a.143.143 0 0 1-.102-.042ZM15.644 7.301l-.363-.362a.144.144 0 0 1 0-.202l.363-.362a.141.141 0 0 1 .102-.042h1.01a.15.15 0 0 1 .103.042l.362.362a.143.143 0 0 1 0 .202l-.362.362a.141.141 0 0 1-.102.043h-1.011a.143.143 0 0 1-.102-.043ZM15.644 9.715l-.363-.362a.144.144 0 0 1 0-.202l.363-.362a.141.141 0 0 1 .102-.043h1.01a.15.15 0 0 1 .103.043l.362.362a.143.143 0 0 1 0 .202l-.362.362a.141.141 0 0 1-.102.042h-1.011a.143.143 0 0 1-.102-.042ZM19.895 6.237l-.362.362a.143.143 0 0 1-.202 0l-.363-.362a.141.141 0 0 1-.042-.103V5.125a.15.15 0 0 1 .043-.102l.362-.362a.143.143 0 0 1 .202 0l.362.362a.141.141 0 0 1 .042.102v1.01a.164.164 0 0 1-.042.102ZM22.537 6.237l-.362.362a.143.143 0 0 1-.202 0l-.362-.362a.141.141 0 0 1-.043-.103V5.125a.15.15 0 0 1 .043-.102l.362-.362a.143.143 0 0 1 .202 0l.362.362a.141.141 0 0 1 .042.102v1.01a.127.127 0 0 1-.042.102ZM19.895 8.65l-.362.363a.143.143 0 0 1-.202 0l-.363-.363a.141.141 0 0 1-.042-.102V7.54a.15.15 0 0 1 .043-.102l.362-.362a.143.143 0 0 1 .202 0l.362.362a.141.141 0 0 1 .042.102v1.01a.164.164 0 0 1-.042.101ZM22.537 8.65l-.362.363a.143.143 0 0 1-.202 0l-.362-.363a.141.141 0 0 1-.043-.102V7.54a.15.15 0 0 1 .043-.102l.362-.362a.143.143 0 0 1 .202 0l.362.362a.141.141 0 0 1 .042.102v1.01a.127.127 0 0 1-.042.101ZM20.148 4.888l-.362-.363a.143.143 0 0 1 0-.202l.362-.362a.141.141 0 0 1 .103-.042h1.01a.15.15 0 0 1 .103.042l.362.362a.144.144 0 0 1 0 .202l-.362.363a.141.141 0 0 1-.102.042H20.25a.139.139 0 0 1-.103-.042ZM20.148 7.301l-.362-.362a.143.143 0 0 1 0-.202l.362-.362a.141.141 0 0 1 .103-.042h1.01a.15.15 0 0 1 .103.042l.362.362a.144.144 0 0 1 0 .202l-.362.362a.141.141 0 0 1-.102.043H20.25a.139.139 0 0 1-.103-.043ZM20.148 9.715l-.362-.362a.143.143 0 0 1 0-.202l.362-.362a.141.141 0 0 1 .103-.043h1.01a.15.15 0 0 1 .103.043l.362.362a.144.144 0 0 1 0 .202l-.362.362a.141.141 0 0 1-.102.042H20.25a.139.139 0 0 1-.103-.042Z" fill="#000"/><path d="M23.28 3.25c.471 0 .845.371.845.845V9.58a.837.837 0 0 1-.845.844H4.713a.837.837 0 0 1-.844-.844V4.095c0-.472.371-.845.844-.845H23.28Zm0-1.151H4.713a2 2 0 0 0-1.998 1.998v5.485a2 2 0 0 0 1.998 1.998h18.565a2 2 0 0 0 1.998-1.998V4.095c0-1.1-.896-1.996-1.996-1.996Z" fill="#000"/></svg>
