<svg width="32" height="32" viewBox="0 0 32 32" fill="none" xmlns="http://www.w3.org/2000/svg">
<path d="M29.374 7.98958V27.4342C29.374 28.5055 28.505 29.3745 27.4337 29.3745H4.56866C3.49742 29.3745 2.62842 28.5055 2.62842 27.4342V4.56915C2.62842 3.4979 3.49742 2.62891 4.56866 2.62891H24.4912C25.2824 2.62891 26.0336 2.98228 26.5381 3.59347L28.7695 6.3027C29.1606 6.77832 29.374 7.37395 29.374 7.98958Z" fill="#616161"/>
<path d="M24.8782 29.3742H7.11157V17.6128C7.11157 17.2105 7.43828 16.8838 7.84055 16.8838H24.1515C24.5538 16.8838 24.8805 17.2105 24.8805 17.6128V29.3742H24.8782Z" fill="white"/>
<path d="M24.8782 26.6523H7.11157V29.3744H24.8782V26.6523Z" fill="#7190F9"/>
<path d="M5.50049 2.62891V13.2414C5.50049 13.637 5.84942 13.9459 6.3117 13.9459H23.3472C23.8094 13.9459 24.1673 13.6392 24.1673 13.2414V2.62891H5.50049Z" fill="#424242"/>
<path d="M9.5564 2.62891V12.6346C9.5564 13.008 9.81865 13.2969 10.1654 13.2969H22.9358C23.2826 13.2969 23.5515 13.008 23.5515 12.6346V2.62891H9.5564ZM20.8845 12.1168C20.8845 12.2768 20.7534 12.4079 20.5933 12.4079H16.7306C16.5706 12.4079 16.4395 12.2768 16.4395 12.1168V3.80905C16.4395 3.64903 16.5706 3.51791 16.7306 3.51791H20.5933C20.7534 3.51791 20.8845 3.64903 20.8845 3.80905V12.1168Z" fill="#E0E0E0"/>
</svg>
