<svg width="18" height="18" viewBox="0 0 18 18" fill="none" xmlns="http://www.w3.org/2000/svg">
<path d="M4.68228 8.48206L4.3548 7.77085L3.55359 4.65601L3.34985 4.17104L3.64359 3.44858C3.64359 3.44858 4.05982 3.50732 4.3773 3.86606C4.76353 4.30353 5.3935 5.61221 5.3935 5.61221L5.261 4.57977L5.97971 2.71612C5.97971 2.71612 6.2947 2.68237 6.37844 2.76861C6.52719 2.92111 6.78092 3.99105 6.87092 4.32978C6.96091 4.66851 7.08591 5.13099 7.2434 5.33348C7.40089 5.53597 7.59338 5.58222 7.59338 5.58222L8.1571 3.40483L8.29209 1.42993C8.29209 1.42993 8.48958 1.42868 8.76582 1.48618C8.97456 1.52993 9.11455 1.60117 9.18205 1.68492C9.24954 1.76867 9.25204 3.09985 9.25204 3.09985C9.25204 3.09985 10.4432 2.0849 10.482 2.09615C10.5645 2.11865 10.8207 2.17489 10.9557 2.32239C11.0907 2.46863 10.9782 3.0111 10.877 3.37233C10.7757 3.73356 10.4257 4.90725 10.4257 4.90725L10.742 4.78726L10.812 4.85475L11.4007 3.95105C11.4007 3.95105 11.6132 3.9498 11.7857 4.0348C11.9731 4.12729 12.0856 4.35478 12.0856 4.35478L13.5981 2.16615C13.5981 2.16615 13.7131 2.26864 13.8143 2.36988C13.9155 2.47113 13.9868 2.54238 13.9918 2.64487C13.9968 2.74611 13.6318 3.41983 13.4631 3.75856C13.2943 4.09729 13.0118 4.77476 13.0118 4.77476L14.2418 3.83606C14.2418 3.83606 14.6493 3.89355 14.6618 4.02855C14.673 4.16354 14.4568 4.41353 14.2418 4.78601C14.0268 5.15849 13.6668 5.88095 13.5418 6.12844C13.4168 6.37592 13.5868 6.38842 13.5868 6.38842L15.0605 5.45722C15.0605 5.45722 15.378 5.52222 15.408 5.66971C15.4417 5.83845 15.0767 6.17468 14.8392 6.44467C14.6018 6.71591 14.0943 7.36962 13.8355 7.87834C13.5768 8.38707 13.4031 8.70455 13.4031 8.70455L11.1594 10.9307L5.18976 10.5695L4.68228 8.48206Z" fill="url(#paint0_radial_718_88)"/>
<path d="M12.1458 6.02463C11.9958 6.05963 11.5221 6.87958 11.0796 8.12702C10.8134 8.87698 10.6371 9.69693 10.6471 10.0894C10.6571 10.4819 11.2496 10.3619 11.2496 10.3619L11.5008 9.54694C11.5008 9.54694 11.7821 8.59074 12.1146 7.87703C12.5033 7.03957 13.007 6.5071 12.9695 6.37836C12.9195 6.20587 12.357 5.97463 12.1458 6.02463Z" fill="#FBDE93"/>
<path d="M13.6343 3.89228C13.4243 4.01478 12.9506 4.80724 12.8094 5.10972C12.6681 5.4122 12.6631 5.98092 12.8181 6.05467C13.0093 6.14467 13.2218 5.5022 13.5443 4.96848C13.8668 4.43476 14.248 3.83104 14.248 3.83104C14.248 3.83104 13.8755 3.75104 13.6343 3.89228Z" fill="#FBDE93"/>
<path d="M14.4293 5.4622C14.1081 5.59845 13.5094 6.23716 13.3019 6.5584C12.9194 7.15212 12.6381 7.81583 12.5369 8.08707C12.4369 8.3583 12.3557 8.73078 12.6681 8.55954C12.9806 8.3883 13.3819 7.58334 13.8956 6.85963C14.4905 6.01968 15.063 5.45096 15.063 5.45096C15.063 5.45096 14.6905 5.35096 14.4293 5.4622Z" fill="#FBDE93"/>
<path d="M13.0807 1.87995C12.9569 1.86495 12.6182 2.7649 12.427 3.19738C12.2357 3.62985 11.9807 4.20232 11.9807 4.20232C11.9807 4.20232 11.8333 5.34101 12.0445 5.36101C12.2557 5.38101 12.6695 3.99233 12.9782 3.35612C13.2794 2.73615 13.5969 2.16243 13.5969 2.16243C13.5969 2.16243 13.3219 1.90994 13.0807 1.87995Z" fill="#FBDE93"/>
<path d="M10.8558 4.13481C10.7445 4.25231 10.807 4.85728 10.807 4.85728C10.807 4.85728 11.2395 5.17976 11.3208 5.10851C11.402 5.03727 11.4058 3.94482 11.4058 3.94482C11.4058 3.94482 11.037 3.94357 10.8558 4.13481Z" fill="#FBDE93"/>
<path d="M9.96212 4.95848C9.80587 5.08973 9.91212 5.70469 9.87212 6.25592C9.81212 7.08087 9.57089 8.77078 9.49964 9.26451C9.42839 9.75823 9.3584 10.3007 9.3584 10.3007L10.1334 10.1795C10.1334 10.1795 10.4346 7.87583 10.5558 6.98963C10.6771 6.10342 10.8571 4.84724 10.7371 4.77599C10.6158 4.70725 10.1534 4.79724 9.96212 4.95848Z" fill="#FBDE93"/>
<path d="M9.86827 2.01991C9.67078 2.05741 9.2533 3.09985 9.2533 3.09985C9.2533 3.09985 9.2283 3.85231 9.2283 4.21479C9.2283 4.57727 9.15831 5.00975 9.2783 5.00975C9.39829 5.00975 9.63078 4.31604 9.87202 3.71232C10.1133 3.1086 10.4832 2.09615 10.4832 2.09615C10.4832 2.09615 10.1483 1.96741 9.86827 2.01991Z" fill="#FBDE93"/>
<path d="M7.59727 1.63861C7.46103 1.78235 7.67726 2.15233 7.69726 3.16728C7.71726 4.18347 7.59227 5.5809 7.59227 5.5809C7.59227 5.5809 7.69976 5.5734 7.76726 5.78214C7.82476 5.95838 7.9185 7.02957 8.03849 6.98958C8.15974 6.94958 8.30973 6.23462 8.43097 5.02718C8.55222 3.81974 8.50097 2.88479 8.46097 2.50231C8.42097 2.11983 8.29098 1.42737 8.29098 1.42737C8.29098 1.42737 7.79851 1.42737 7.59727 1.63861Z" fill="#FBDE93"/>
<path d="M5.97981 2.71606C5.97981 2.71606 5.39859 2.75731 5.2386 3.0698C5.07735 3.38228 5.1286 3.53352 5.1586 3.83476C5.1886 4.13599 5.28359 4.73721 5.28359 4.73721C5.28359 4.73721 5.81732 5.40092 6.10855 5.23968C6.39978 5.07969 5.97981 2.71606 5.97981 2.71606Z" fill="#FBDE93"/>
<path d="M3.64363 3.44854C3.64363 3.44854 3.32114 3.38855 3.1299 3.42854C2.93866 3.46854 2.94866 3.64978 3.03991 3.77103C3.1299 3.89227 3.54613 4.64473 3.54613 4.64473C3.54613 4.64473 3.66988 4.64723 3.83112 4.70723C3.99236 4.76722 4.26859 4.91722 4.25734 4.67598C4.23735 4.25475 3.64363 3.44854 3.64363 3.44854Z" fill="#FBDE93"/>
<path d="M4.55231 8.19957C4.55231 8.19957 3.94484 6.97088 3.49236 6.29592C3.03989 5.62095 2.56616 5.09848 2.56616 4.98849C2.56616 4.87724 2.87865 4.76725 3.05864 4.71725C3.23863 4.66726 3.55236 4.65601 3.55236 4.65601C3.55236 4.65601 4.29607 5.91344 4.59855 6.5984C4.90104 7.28337 5.18227 8.08083 5.11228 8.17832C5.04853 8.26582 4.5973 8.20707 4.55231 8.19957Z" fill="#FBDE93"/>
<path d="M4.96121 6.00465C4.91372 6.18089 5.14245 6.98085 5.2837 7.55457C5.42494 8.12829 5.59618 8.732 5.59618 8.732L6.07865 9.7182L6.61238 9.52696C6.61238 9.52696 6.33114 8.98324 6.1699 8.42077C6.00866 7.8558 5.79992 6.10339 5.58493 5.87465C5.43494 5.71341 4.99246 5.89465 4.96121 6.00465Z" fill="#FBDE93"/>
<path d="M6.63232 5.80348C6.50607 5.88598 6.70231 7.22216 6.80356 7.77588C6.9048 8.3296 7.11604 8.91332 7.22604 9.18456C7.33728 9.45579 7.65851 10.1408 7.65851 10.1408C7.65851 10.1408 7.991 10.5332 8.001 10.4932C8.01099 10.4532 8.15224 9.95951 8.15224 9.95951C8.15224 9.95951 7.70851 8.65083 7.63726 8.08711C7.56727 7.52339 7.45602 5.81348 7.34603 5.75349C7.23604 5.69349 6.83356 5.67349 6.63232 5.80348Z" fill="#FBDE93"/>
<path d="M8.87582 5.83344C8.72458 5.97343 8.57459 7.82584 8.51334 8.50955C8.4521 9.19326 8.4021 10.1995 8.4021 10.1995L9.07581 10.1495C9.07581 10.1495 9.32705 7.66459 9.36705 7.34211C9.40705 7.01963 9.58829 6.28592 9.49829 5.99343C9.4083 5.70345 9.00582 5.71345 8.87582 5.83344Z" fill="#FBDE93"/>
<path d="M4.35233 8.42834C4.30983 8.52459 5.62351 15.713 5.64476 15.8205C5.66601 15.9279 5.62351 16.0254 5.82725 16.1217C6.03224 16.2179 6.35222 16.2692 6.55721 16.2917C6.7622 16.3129 8.17338 16.3154 8.18463 16.1442C8.19587 15.9717 12.4144 9.82702 12.4144 9.82702C12.4144 9.82702 13.1919 8.52334 13.1381 8.41584C13.0844 8.30835 12.8744 8.35835 12.6456 8.51459C12.4169 8.67208 12.2057 9.06081 11.5632 9.49204C10.867 9.95951 9.94453 10.0583 9.01708 10.047C8.16213 10.0358 7.14593 9.88077 6.41847 9.34204C5.7785 8.86707 5.58976 8.52459 5.01979 8.37335C4.51732 8.2396 4.35233 8.42834 4.35233 8.42834Z" fill="#FD703F"/>
<path d="M5.34619 8.89825L6.53863 16.2941C6.53863 16.2941 7.9598 16.4991 9.06725 16.5203C10.1759 16.5416 11.4971 16.3104 11.4971 16.3104L12.4571 13.0655L13.272 8.7845C13.272 8.7845 13.0708 8.58326 12.8445 8.7495C12.6708 8.877 12.1346 9.70695 11.1871 10.0732C10.1184 10.4857 8.19229 10.5157 6.98985 10.0082C5.88741 9.54446 5.55118 8.94074 5.34619 8.89825Z" fill="#FF2A23"/>
<path d="M12.1883 16.0829C11.9458 16.2279 11.3809 16.3253 11.3809 16.3253C11.3809 16.3253 11.9408 13.603 12.2521 12.1818C12.5633 10.7606 13.012 8.35701 13.012 8.35701C13.012 8.35701 13.192 8.32827 13.377 8.35076C13.587 8.37701 13.712 8.43826 13.7545 8.50451C13.8232 8.612 13.4095 10.6194 13.0045 12.5793C12.6345 14.3792 12.3171 16.0066 12.1883 16.0829Z" fill="#DC0D25"/>
<defs>
<radialGradient id="paint0_radial_718_88" cx="0" cy="0" r="1" gradientUnits="userSpaceOnUse" gradientTransform="translate(9.0729 0.0159706) scale(10.3905 10.3905)">
<stop offset="0.447" stop-color="#FCC216"/>
<stop offset="0.5897" stop-color="#FABB16"/>
<stop offset="0.7939" stop-color="#F3A814"/>
<stop offset="0.9212" stop-color="#ED9913"/>
</radialGradient>
</defs>
</svg>
