<svg width="16" height="16" fill="none" xmlns="http://www.w3.org/2000/svg"><g stroke="#C0C1C3" stroke-width="1.333" stroke-linecap="round" stroke-linejoin="round"><path d="M2 4.667V3.333C2 2.6 2.6 2 3.333 2h1.334M11.333 2h1.334C13.4 2 14 2.6 14 3.333v1.334M14 11.334v1.333C14 13.4 13.4 14 12.667 14h-1.334M4.667 14H3.333C2.6 14 2 13.4 2 12.667v-1.333M8.667 4.667H5.333a.667.667 0 00-.666.666v2c0 .368.298.667.666.667h3.334a.667.667 0 00.666-.667v-2a.667.667 0 00-.666-.667zM10.667 8H7.333a.667.667 0 00-.666.667v2c0 .368.298.666.666.666h3.334a.667.667 0 00.666-.666v-2A.667.667 0 0010.667 8z"/></g></svg>