<svg width="18" height="18" viewBox="0 0 18 18" fill="none" xmlns="http://www.w3.org/2000/svg">
<path d="M2.73857 12.2331C2.73857 12.2331 2.61858 13.0181 2.89732 13.7105C3.1298 14.2905 3.73227 15.0542 4.88471 15.6367C6.03715 16.2191 7.36083 16.4241 9.31448 16.4641C11.2681 16.5054 13.2755 16.0492 14.2392 15.203C15.2042 14.3555 15.5416 13.643 15.5142 12.8693C15.4867 12.0956 15.0754 11.8019 15.0754 11.8019L2.73857 12.2331Z" fill="#FCB745"/>
<path d="M3.2974 11.4443L2.72743 12.0143C2.72743 12.0143 2.57244 12.7768 3.4324 13.6017C4.08361 14.2254 5.23605 15.3091 9.06335 15.3379C12.6457 15.3654 13.7719 14.5779 14.4631 14.0217C15.1555 13.4655 15.4155 12.4993 15.3468 12.228C15.2793 11.9568 15.0668 11.8006 15.0668 11.8006L3.2974 11.4443Z" fill="#E78B20"/>
<path d="M3.54113 12.2581C3.54113 12.2581 3.37989 12.5319 3.43238 12.7056C3.47363 12.8419 3.55488 13.3981 5.16854 14.103C6.02225 14.4768 7.47467 14.7818 9.36082 14.7268C11.5982 14.6618 13.3906 14.2118 14.2581 13.3968C15.1468 12.5631 14.9768 12.0669 14.9768 12.0669L3.54113 12.2581Z" fill="#FFD290"/>
<path d="M3.07979 10.3582C3.07979 10.3582 2.54482 10.9031 2.45607 11.1456C2.37233 11.3744 2.38358 11.7068 2.53107 11.9756C2.72981 12.3355 2.9773 12.373 3.28353 12.5568C3.61476 12.7543 4.13849 13.3705 5.42717 13.6417C6.71585 13.913 8.41201 14.0355 9.32071 14.0355C10.2294 14.0355 11.4369 14.0217 12.563 13.6417C13.6892 13.2618 14.9779 12.5155 15.2766 11.8506C15.5754 11.1856 15.2904 10.7919 15.2904 10.7919L14.6392 10.3582H3.07979Z" fill="#6D544D"/>
<path d="M2.76732 9.66693C2.76732 9.66693 2.35235 9.64818 2.25235 10.2769C2.17986 10.7344 2.50984 11.0231 2.50984 11.0231C2.50984 11.0231 2.33485 11.2743 2.53734 11.5931C2.72733 11.8918 2.93107 11.9593 3.35104 12.0268C3.65353 12.0756 3.81227 11.9856 4.206 12.203C4.69972 12.4755 4.91096 12.963 5.58968 13.1117C6.26839 13.2605 7.02835 13.1255 7.0546 13.0168C7.08085 12.908 6.10465 12.5018 4.34099 11.5106C3.74602 11.1769 3.20105 10.7231 3.05231 10.4931C2.90357 10.2631 2.76732 9.66693 2.76732 9.66693Z" fill="#9B7169"/>
<path d="M11.302 12.9768C11.302 13.1531 11.8857 13.0718 12.157 12.9231C12.4282 12.7743 12.8619 12.3943 13.2556 12.2306C13.6494 12.0681 13.7981 12.2169 14.3681 11.9456C14.9381 11.6744 15.2505 11.0369 15.2505 11.0369C15.2505 11.0369 15.528 10.6944 15.5505 10.4544C15.5855 10.0882 15.5493 9.91072 15.2918 9.82948C15.0343 9.74823 14.4731 10.5919 14.3918 10.6869C14.3106 10.7819 13.1082 11.6606 12.6332 11.9994C12.1582 12.3381 11.302 12.8818 11.302 12.9768Z" fill="#9B7169"/>
<path d="M3.29733 9.20577C3.29733 9.20577 2.61862 9.28702 2.52362 9.572C2.42863 9.85699 2.72736 10.277 3.51357 10.8069C4.15853 11.2407 6.36842 12.2844 7.24462 12.8281C8.24832 13.4518 9.09827 14.323 9.23952 14.3343C9.41576 14.348 10.6394 13.0481 12.3331 11.9056C13.943 10.8182 15.0467 10.5494 15.4404 9.74824C15.6517 9.31826 15.1417 9.06953 15.1417 9.06953L8.60205 6.58716L3.29733 9.20577Z" fill="#FFE869"/>
<path d="M9.32088 13.6018C9.52337 13.5793 10.5821 12.5568 11.8307 11.7706C13.0794 10.9844 14.9243 10.142 15.1956 9.66823C15.4668 9.1945 14.8156 8.88077 14.8156 8.88077L7.21724 7.60583L2.76747 9.35574C2.76747 9.35574 2.52374 9.43699 2.68623 9.64073C2.84872 9.84447 3.10621 10.1832 3.67618 10.5357C4.36864 10.9644 6.14604 11.6756 7.27099 12.2856C8.39843 12.8956 9.07714 13.628 9.32088 13.6018Z" fill="#FFBE01"/>
<path d="M3.37988 9.55827L3.61612 10.1907C3.61612 10.1907 5.31603 11.9044 8.6971 11.9719C12.0619 12.0394 13.9481 10.4382 13.9481 10.4382L14.3781 9.35828L3.37988 9.55827Z" fill="#F4482B"/>
<path d="M7.81222 10.6031L7.54598 11.0294C7.54598 11.0294 8.1147 11.3706 8.27844 11.4294C8.51343 11.5131 8.74467 11.4831 9.0909 11.3756C9.43713 11.2694 10.8746 10.6969 10.8746 10.6969C10.8746 10.6969 12.0632 10.7144 12.8095 10.7281C13.4707 10.7406 14.1331 10.5032 14.4794 10.1032C14.8256 9.7032 15.3631 8.84574 15.3631 8.84574C15.3631 8.84574 15.6431 8.7795 15.8293 8.56576C16.0155 8.35202 16.0293 8.16578 16.0293 8.16578C16.0293 8.16578 15.9755 7.8058 15.7768 7.7133C15.5768 7.61956 6.66978 7.07458 6.66978 7.07458L3.10122 7.34082L2.5 8.57951L4.48365 10.2707L7.27975 10.4307L7.81222 10.6031Z" fill="#A6B732"/>
<path d="M2.68614 7.48837C2.4849 7.39713 2.27366 7.40838 2.17992 7.67461C2.08617 7.94085 2.11492 8.05834 2.11492 8.05834C2.11492 8.05834 1.84118 8.11584 1.80744 8.45957C1.76744 8.87205 2.21991 9.01829 2.21991 9.01829C2.21991 9.01829 2.24116 9.17828 2.4199 9.33828C2.62364 9.52077 2.82738 9.50202 2.82738 9.50202C2.82738 9.50202 3.36485 10.0307 3.72483 10.2432C4.08482 10.4557 4.60354 10.6032 5.12351 10.5895C5.64348 10.5757 5.81597 10.337 6.2022 10.4695C6.58843 10.602 7.61213 11.1407 8.02461 11.1494C8.67707 11.1632 10.0882 10.1507 10.4082 10.1645C10.7282 10.1782 12.1794 10.4045 12.9518 10.4045C13.7243 10.4045 14.0043 10.1782 14.1768 9.95199C14.3493 9.72576 14.643 9.15329 14.5493 9.13954C14.4555 9.12579 13.843 9.63201 13.4043 9.59201C12.9643 9.55201 12.5794 9.29953 12.0331 9.29953C11.4869 9.29953 8.82456 9.64576 8.65082 9.72576C8.47708 9.80575 7.73212 10.3782 7.58588 10.352C7.43964 10.3257 6.93341 9.8995 6.76092 9.80575C6.58843 9.71201 4.77228 9.65201 4.51104 9.69951C4.32355 9.73326 4.05857 9.7795 4.05857 9.7795C4.05857 9.7795 4.08482 9.36702 3.85858 9.12704C3.63234 8.88705 2.88613 8.47457 2.88613 8.47457C2.88613 8.47457 2.97862 7.62087 2.68614 7.48837Z" fill="#C2DD1F"/>
<path d="M14.4956 8.20707C14.4956 8.20707 15.3081 8.20707 15.5343 8.19332C15.7605 8.17957 16.0268 8.16707 16.0268 8.16707C16.0268 8.16707 15.9493 7.79834 15.8318 7.6021C15.5918 7.19962 15.0143 7.08838 15.0143 7.08838L14.4956 8.20707Z" fill="#C2DD1F"/>
<path d="M2.49988 6.99588L2.41113 7.38836C2.41113 7.38836 3.63982 9.56449 9.16203 9.64699C12.3944 9.69574 14.2518 8.71454 15.0717 7.91208C15.5629 7.43085 15.5792 6.96338 15.5792 6.96338L2.49988 6.99588Z" fill="#DE8010"/>
<path d="M2.22002 5.91342C2.15003 7.00086 2.41501 7.39084 2.41501 7.39084C2.41501 7.39084 4.24242 9.04575 8.90967 9.122C13.6932 9.1995 15.2481 7.61333 15.5206 7.15085C15.6943 6.85712 15.8331 6.2809 15.7231 5.44094C15.5406 4.05352 13.9432 1.42115 8.88717 1.44115C3.83119 1.46115 2.32252 4.33475 2.22002 5.91342Z" fill="url(#paint0_radial_721_184)"/>
<path d="M7.0235 2.79484C7.06225 3.00733 6.10355 3.7148 5.96481 3.03608C5.83482 2.39736 6.98725 2.5986 7.0235 2.79484Z" fill="#FDEAC8"/>
<path d="M7.36586 4.12605C7.41586 4.25729 8.39831 4.44603 8.29331 3.89231C8.18332 3.31609 7.26337 3.85606 7.36586 4.12605Z" fill="#FDEAC8"/>
<path d="M8.22709 2.60604C8.25209 2.79478 9.39703 3.01477 9.37328 2.4823C9.34454 1.82483 8.19835 2.3873 8.22709 2.60604Z" fill="#FDEAC8"/>
<path d="M6.33846 4.56352C6.34471 4.60602 6.06348 4.82725 5.77599 4.9135C5.5235 4.98975 5.26477 4.95725 5.23602 4.64351C5.20852 4.34103 5.42351 4.23104 5.681 4.25728C5.97723 4.28603 6.32596 4.48227 6.33846 4.56352Z" fill="#FDEAC8"/>
<path d="M8.71705 5.44724C8.66955 5.2485 7.59336 4.97226 7.66586 5.60098C7.7396 6.2272 8.7683 5.65848 8.71705 5.44724Z" fill="#FDEAC8"/>
<path d="M9.72448 4.016C9.67198 3.95475 9.42574 3.966 9.12576 4.04475C8.90952 4.10224 8.74953 4.34598 8.89952 4.57722C9.07451 4.84721 9.36824 4.73346 9.55573 4.50472C9.70823 4.31973 9.78322 4.08475 9.72448 4.016Z" fill="#FDEAC8"/>
<path d="M10.8771 2.55482C10.8434 2.51858 10.5971 2.49358 10.3959 2.59107C10.1934 2.68857 10.0184 2.92106 10.2059 3.13854C10.3959 3.35728 10.6784 3.23104 10.8121 2.9998C10.9184 2.81356 10.9284 2.60982 10.8771 2.55482Z" fill="#FDEAC8"/>
<path d="M11.6495 4.45727C11.617 4.25353 10.712 3.89105 10.7183 4.44602C10.7245 5.01474 11.6782 4.64101 11.6495 4.45727Z" fill="#FDEAC8"/>
<path d="M12.9005 3.45228C12.8705 3.29604 11.7193 3.16979 11.9156 3.75101C12.1193 4.35723 12.9368 3.64227 12.9005 3.45228Z" fill="#FDEAC8"/>
<path d="M11.3157 5.49714C11.3232 5.32215 10.447 4.92092 10.382 5.44589C10.317 5.97087 11.3057 5.72463 11.3157 5.49714Z" fill="#FDEAC8"/>
<defs>
<radialGradient id="paint0_radial_721_184" cx="0" cy="0" r="1" gradientUnits="userSpaceOnUse" gradientTransform="translate(8.9328 2.94018) rotate(89.3583) scale(5.50481 9.59198)">
<stop offset="0.517" stop-color="#DF8016"/>
<stop offset="0.6426" stop-color="#E58C21"/>
<stop offset="1" stop-color="#F5AC3C"/>
</radialGradient>
</defs>
</svg>
