<svg width="18" height="18" viewBox="0 0 18 18" fill="none" xmlns="http://www.w3.org/2000/svg">
<path d="M3.53148 15.0048C4.03297 14.9075 4.32384 14.2326 4.18115 13.4973C4.03847 12.762 3.51626 12.2448 3.01478 12.3421C2.51329 12.4394 2.22242 13.1144 2.3651 13.8497C2.50779 14.585 3.02999 15.1021 3.53148 15.0048Z" fill="#616161"/>
<path fill-rule="evenodd" clip-rule="evenodd" d="M2.80501 13.7743C2.59761 12.0082 2.47024 10.1592 2.55166 8.48633L3.30073 8.52278C3.22216 10.1373 3.34478 11.9405 3.54985 13.6868L2.80501 13.7743Z" fill="#616161"/>
<path d="M15.6327 13.8482C15.7754 13.1129 15.4845 12.4379 14.983 12.3406C14.4815 12.2433 13.9593 12.7605 13.8166 13.4958C13.674 14.2311 13.9648 14.906 14.4663 15.0034C14.9678 15.1007 15.49 14.5835 15.6327 13.8482Z" fill="#616161"/>
<path fill-rule="evenodd" clip-rule="evenodd" d="M14.4494 13.6868C14.6545 11.9405 14.7771 10.1373 14.6985 8.52278L15.4476 8.48633C15.529 10.1592 15.4016 12.0082 15.1942 13.7743L14.4494 13.6868Z" fill="#616161"/>
<path d="M15.2405 9.32571C14.5943 9.29572 14.0581 8.81074 13.9743 8.16953C13.8806 7.44331 13.6394 6.60461 13.0344 5.79965C12.0832 4.53597 10.6908 3.86725 9.00586 3.86725C7.82467 3.86725 6.16476 4.20224 4.96357 5.79965C4.3511 6.61461 4.11237 7.47081 4.02112 8.20827C3.94488 8.81949 3.4499 9.29322 2.83368 9.32197L2.75869 9.32571C2.32621 9.34571 1.96873 8.98823 1.99373 8.557C2.05373 7.50331 2.31871 5.63216 3.37491 4.22723C4.69734 2.46733 6.69723 1.49988 9.00586 1.49988C11.3057 1.49988 13.3006 2.46733 14.6231 4.22473C15.6805 5.63091 15.9442 7.50331 16.0055 8.55576C16.0305 8.98823 15.673 9.34571 15.2405 9.32571Z" fill="#616161"/>
<path d="M5.84104 16.4103C4.6261 16.5791 3.23243 15.6829 2.95119 13.6092C2.67121 11.5443 3.65241 10.2894 4.64735 10.0969L5.84104 16.4103Z" fill="#424242"/>
<path d="M5.91105 9.66946L4.8536 9.8507C4.42613 9.93319 4.09114 10.2644 4.00365 10.6919C3.88616 11.2681 3.81116 12.1893 4.05365 13.4455C4.29738 14.7004 4.71111 15.5266 5.03734 16.0179C5.27733 16.3804 5.71231 16.5628 6.13979 16.4791L7.19723 16.2979C7.70845 16.1991 7.8347 14.6342 7.47847 12.8043C7.12348 10.9744 6.42227 9.57071 5.91105 9.66946Z" fill="#757575"/>
<path opacity="0.5" d="M7.30094 16.0162C7.72721 15.9335 7.80678 14.4958 7.47867 12.8049C7.15057 11.1141 6.53903 9.81048 6.11276 9.8932C5.6865 9.97591 5.60693 11.4137 5.93503 13.1045C6.26314 14.7953 6.87468 16.0989 7.30094 16.0162Z" fill="#424242"/>
<path d="M7.23096 12.853C7.45345 13.9979 7.5022 14.9516 7.34095 14.9829C7.17971 15.0141 6.86723 14.1117 6.64599 12.9667C6.4235 11.8218 6.37476 10.8681 6.536 10.8368C6.69724 10.8056 7.00847 11.7081 7.23096 12.853Z" fill="url(#paint0_linear_715_302)"/>
<path d="M12.1582 16.4103C13.3731 16.5791 14.7668 15.6829 15.0481 13.6092C15.328 11.5443 14.3468 10.2894 13.3519 10.0969L12.1582 16.4103Z" fill="#424242"/>
<path d="M12.0882 9.66946L13.1456 9.8507C13.5731 9.93319 13.9081 10.2644 13.9956 10.6919C14.1131 11.2681 14.1881 12.1893 13.9456 13.4455C13.7018 14.7004 13.2881 15.5266 12.9619 16.0179C12.7219 16.3804 12.2869 16.5628 11.8594 16.4791L10.802 16.2979C10.2908 16.1991 10.1645 14.6342 10.5208 12.8043C10.8757 10.9744 11.577 9.57071 12.0882 9.66946Z" fill="#757575"/>
<path opacity="0.5" d="M12.0637 13.1035C12.3918 11.4127 12.3122 9.97494 11.886 9.89222C11.4597 9.8095 10.8482 11.1131 10.5201 12.804C10.1919 14.4948 10.2715 15.9325 10.6978 16.0153C11.1241 16.098 11.7356 14.7943 12.0637 13.1035Z" fill="#424242"/>
<path d="M10.7683 12.853C10.5458 13.9979 10.4971 14.9516 10.6583 14.9829C10.8196 15.0141 11.132 14.1117 11.3533 12.9667C11.5758 11.8218 11.6245 10.8681 11.4633 10.8368C11.302 10.8056 10.9908 11.7081 10.7683 12.853Z" fill="url(#paint1_linear_715_302)"/>
<path d="M15.8855 8.76198C15.5318 9.00197 15.0955 8.73198 14.9618 8.367C14.8068 7.45705 14.5006 6.40086 13.9006 5.52965C12.7769 3.80599 10.8882 2.94229 8.9996 2.94104C7.11095 2.94229 5.2223 3.80599 4.09861 5.52965C3.49864 6.40086 3.19365 7.4583 3.03741 8.367C2.90367 8.73198 2.46744 9.00197 2.11371 8.76198C2.08496 8.74198 2.04121 8.69199 1.99622 8.66449C2.03121 9.04572 2.3637 9.34195 2.75868 9.32445L2.86742 9.31945C3.63988 9.3257 3.94611 8.83448 4.01736 8.24076C4.1061 7.49705 4.34234 6.62585 4.96481 5.79964C6.1635 4.20597 7.81841 3.86849 8.9996 3.86724C10.1808 3.86849 11.8357 4.20597 13.0344 5.79964C13.6469 6.6146 13.8856 7.4708 13.9768 8.20826C14.0543 8.82698 14.3543 9.3257 15.198 9.3232L15.2393 9.3257C15.6342 9.34445 15.9667 9.04697 16.0017 8.66574C15.958 8.69199 15.9142 8.74198 15.8855 8.76198Z" fill="#424242"/>
<path d="M2.83121 6.20091C2.71497 6.11841 2.62372 6.02717 2.78996 5.3997C2.9912 4.64349 3.9249 3.17982 5.80605 2.20987C6.15478 2.02988 7.00224 1.76114 7.26098 2.22737C7.50596 2.66984 6.32228 2.99233 5.9048 3.21607C4.81236 3.80353 4.02365 4.63224 3.59992 5.28721C3.46493 5.49595 3.1087 6.3959 2.83121 6.20091Z" fill="#757575"/>
<defs>
<linearGradient id="paint0_linear_715_302" x1="6.67969" y1="12.9608" x2="7.03923" y2="12.891" gradientUnits="userSpaceOnUse">
<stop offset="0.2016" stop-color="#212121"/>
<stop offset="1" stop-color="#212121" stop-opacity="0"/>
</linearGradient>
<linearGradient id="paint1_linear_715_302" x1="11.3196" y1="12.9609" x2="10.96" y2="12.8911" gradientUnits="userSpaceOnUse">
<stop offset="0.2016" stop-color="#212121"/>
<stop offset="1" stop-color="#212121" stop-opacity="0"/>
</linearGradient>
</defs>
</svg>
