<svg width="24" height="24" viewBox="0 0 24 24" fill="none" xmlns="http://www.w3.org/2000/svg">
<path d="M11.2531 19.2411C10.5948 18.7127 4.48175 12.767 4.41342 12.702C4.14343 12.432 3.97344 12.1519 3.92677 11.8952C3.87844 11.6285 3.96011 11.3952 4.17676 11.1785C4.37842 10.9768 4.62507 10.8701 4.89006 10.8701C5.21337 10.8701 5.54502 11.0234 5.82168 11.3018L8.5932 13.9655C8.64153 14.0122 8.70486 14.0355 8.76652 14.0355C8.83152 14.0355 8.89485 14.0105 8.94318 13.9621C9.03984 13.8655 9.03984 13.7088 8.94485 13.6121L4.52008 9.04153C4.07677 8.59815 3.86844 7.91973 4.39508 7.39299C4.59674 7.1913 4.84339 7.08462 5.10838 7.08462C5.4317 7.08462 5.76335 7.23797 6.04 7.51634L10.5664 11.9302C10.6148 11.9769 10.6781 12.0019 10.7414 12.0019C10.8047 12.0019 10.8697 11.9769 10.9181 11.9286C11.0147 11.8319 11.0164 11.6752 10.9197 11.5769L5.48336 6.00282C5.23171 5.75112 5.08005 5.44942 5.05338 5.15605C5.02838 4.85768 5.13338 4.58098 5.35837 4.35595C5.56002 4.15426 5.80668 4.04758 6.07166 4.04758C6.39498 4.04758 6.72663 4.20093 7.00328 4.47763L12.548 9.88497C12.5963 9.93164 12.6597 9.95665 12.723 9.95665C12.7863 9.95665 12.8513 9.93164 12.8996 9.88331C12.9963 9.78663 12.998 9.62994 12.9013 9.53159L8.87485 5.39274C8.62153 5.13938 8.46987 4.83934 8.44487 4.54597C8.41987 4.2476 8.52487 3.9709 8.74986 3.74587C8.95151 3.54418 9.19817 3.4375 9.46315 3.4375C9.78647 3.4375 10.1181 3.59085 10.3948 3.86922C11.8714 5.3194 15.7262 9.11154 15.8562 9.25156C16.3511 9.59327 16.4511 9.07654 16.4761 8.7415C16.5044 8.35145 16.0578 6.98961 16.3178 5.76446C16.7544 4.13592 18.0127 4.40262 18.041 4.41596C18.731 4.73933 18.5993 5.22272 18.3544 6.19451L18.3294 6.3862C18.0727 7.65636 19.8359 11.4202 19.9659 11.7019C20.6576 13.2154 21.4542 16.2841 18.816 18.9228C15.9245 21.8148 12.3447 20.3329 11.2531 19.2411Z" fill="url(#paint0_radial_2434_27914)"/>
<path d="M14.9634 20.8642C13.1902 20.8642 11.6819 20.0158 11.087 19.4274C10.552 18.9907 7.17551 15.7302 4.42565 13.0616C4.31399 12.9532 4.249 12.8916 4.24233 12.8832C3.93068 12.5715 3.73736 12.2465 3.68236 11.9398C3.61903 11.5914 3.72736 11.2764 4.00068 11.0013C4.25066 10.7513 4.55731 10.6196 4.89063 10.6196C5.28228 10.6196 5.67559 10.7996 5.99891 11.1247L8.76709 13.785L4.34066 9.21443C3.83069 8.70437 3.57403 7.85926 4.219 7.21585C4.46899 6.96582 4.77564 6.83413 5.10895 6.83413C5.5006 6.83413 5.89391 7.01416 6.21723 7.3392L10.7403 11.7497L5.30561 6.17739C5.01562 5.88735 4.8373 5.5323 4.80563 5.17893C4.77397 4.80221 4.90396 4.45717 5.18228 4.1788C5.43227 3.92877 5.73892 3.79709 6.07224 3.79709C6.46221 3.79709 6.85553 3.97544 7.18051 4.30048L12.7236 9.70616L8.6971 5.56731C8.40545 5.27561 8.22712 4.92056 8.19712 4.56718C8.16546 4.19214 8.29545 3.84709 8.57377 3.56873C8.82376 3.31869 9.13041 3.18701 9.46372 3.18701C9.85537 3.18701 10.2487 3.36703 10.572 3.69207L11.7736 4.87056C13.9152 6.97082 15.7051 8.72937 15.8967 8.92606C15.99 9.00107 16.1117 9.02941 16.1634 9.00441C16.1967 8.98774 16.2334 8.91106 16.2267 8.74937C16.2167 8.466 16.1767 8.11429 16.135 7.74258C16.0517 6.99582 15.965 6.22239 16.0734 5.71233C16.31 4.82722 16.775 4.45217 17.1217 4.29048C17.5983 4.07046 18.0599 4.14713 18.1483 4.1888C19.0149 4.59552 18.8432 5.27561 18.6066 6.21906L18.6016 6.24239L18.5749 6.43742C18.4016 7.29086 19.2915 9.64949 20.1815 11.5714L20.1948 11.5981C20.7898 12.8982 21.8614 16.2336 18.9949 19.1007C17.6766 20.4158 16.25 20.8642 14.9634 20.8642ZM4.89063 11.1197C4.69397 11.1197 4.50732 11.2013 4.35399 11.3547C4.19567 11.5131 4.14067 11.6664 4.174 11.8498C4.21067 12.0515 4.35899 12.2915 4.59065 12.5248C4.59231 12.5265 4.65898 12.5915 4.77397 12.7015C8.6771 16.4903 11.0336 18.7423 11.4103 19.0457L11.4303 19.064C12.3502 19.9841 15.7684 21.6176 18.6399 18.7456C21.2848 16.1003 20.2898 13.0116 19.7382 11.8048L19.7265 11.7798C19.1532 10.5429 17.85 7.54256 18.0816 6.34574L18.1199 6.09571C18.3766 5.07558 18.3916 4.86222 17.9566 4.65219C17.8283 4.62886 16.9083 4.51718 16.5567 5.82901C16.4684 6.24739 16.5534 7.01249 16.6283 7.68757C16.6717 8.06929 16.7117 8.431 16.7217 8.73271C16.7383 9.20776 16.5134 9.38945 16.3767 9.45613C16.0984 9.59115 15.7667 9.47613 15.5601 9.30278L15.5384 9.28277C15.4367 9.17276 13.0185 6.8008 11.4186 5.2306L10.2154 4.04879C9.80537 3.63707 9.27707 3.56873 8.92209 3.92377C8.74876 4.09713 8.67043 4.30048 8.68876 4.52551C8.70876 4.76054 8.83542 5.00557 9.04708 5.21727L13.0819 9.35612C13.2719 9.54947 13.2719 9.86618 13.0785 10.0595C12.8935 10.2446 12.5669 10.2479 12.3769 10.0645L6.82886 4.65553C6.41888 4.24548 5.88891 4.17714 5.5356 4.53218C5.36227 4.70553 5.28394 4.90889 5.30228 5.13392C5.32394 5.36895 5.4506 5.61565 5.66059 5.82401L11.0986 11.4014C11.2903 11.5947 11.2886 11.9114 11.0953 12.1048C10.9103 12.2898 10.5837 12.2932 10.3937 12.1098L5.86558 7.69424C5.4556 7.28086 4.92563 7.21418 4.57231 7.56923C4.14067 8.00095 4.37066 8.53601 4.69731 8.86439L9.12541 13.4383C9.3154 13.6316 9.31373 13.9467 9.12041 14.1384C8.93375 14.3251 8.61044 14.3267 8.42045 14.145L5.64892 11.4814C5.4156 11.2464 5.14728 11.1197 4.89063 11.1197Z" fill="#EDA600"/>
<path d="M15.4581 9.09033C14.5431 10.9589 14.6614 13.5742 16.0347 15.6728C16.1897 15.9562 16.4547 15.8178 16.3197 15.5261C14.6614 11.9774 16.3997 9.42037 16.3997 9.42037L15.4581 9.09033Z" fill="#EDA600"/>
<path d="M11.8613 2.08448C12.3646 1.9528 12.9013 1.96446 13.4229 2.08615C13.9412 2.21116 14.4595 2.47453 14.8445 2.90458C15.2212 3.3313 15.4528 3.8497 15.5311 4.3931C15.6045 4.9315 15.5361 5.48657 15.2811 5.94663C15.2512 5.4299 15.1612 4.95484 15.0095 4.51645C14.9312 4.29809 14.8395 4.08973 14.7278 3.89304C14.6179 3.69801 14.4879 3.50466 14.3495 3.3463C14.0679 3.02126 13.6862 2.7679 13.2579 2.57121C12.8279 2.36785 12.3596 2.21783 11.8613 2.08448Z" fill="#B0BEC5"/>
<path d="M11.9998 3.66264C12.2781 3.48595 12.6264 3.44928 12.9547 3.50762C13.2864 3.56596 13.603 3.73098 13.853 3.95935C14.1013 4.19104 14.278 4.48274 14.388 4.78612C14.4413 4.9378 14.468 5.09782 14.493 5.25284C14.5013 5.41286 14.5013 5.57288 14.4763 5.7329C14.3613 5.61122 14.2713 5.48954 14.1863 5.37119C14.088 5.25951 14.0113 5.14116 13.923 5.03281C13.7497 4.81779 13.5813 4.62276 13.3997 4.44941C13.213 4.28105 13.0164 4.1327 12.788 4.00435C12.5614 3.87267 12.3064 3.76265 11.9998 3.66264Z" fill="#90A4AE"/>
<path d="M2.47047 14.2246C2.70546 14.6847 2.95045 15.1114 3.23543 15.4881C3.51875 15.8648 3.84373 16.1849 4.22205 16.3932C4.40537 16.4949 4.62369 16.5832 4.83701 16.6499C5.052 16.7183 5.27532 16.7649 5.50531 16.7966C5.96529 16.8533 6.4486 16.8433 6.96024 16.7649C6.56359 17.11 6.03362 17.2933 5.49365 17.3333C4.94701 17.37 4.39204 17.2517 3.8954 16.9716C3.39542 16.6866 3.02877 16.2332 2.79879 15.7515C2.5688 15.2664 2.44547 14.7447 2.47047 14.2246Z" fill="#B0BEC5"/>
<path d="M4.04627 14.0312C4.20793 14.3113 4.36792 14.5363 4.54291 14.733C4.71623 14.9297 4.90289 15.0914 5.10621 15.2381C5.31287 15.3798 5.53952 15.5048 5.78618 15.6298C5.9095 15.6931 6.04116 15.7431 6.17116 15.8165C6.30615 15.8748 6.44281 15.9365 6.58613 16.0248C6.43448 16.0815 6.27948 16.1148 6.12116 16.1398C5.9645 16.1465 5.80284 16.1548 5.64285 16.1332C5.32287 16.0898 5.00288 15.9782 4.7229 15.7831C4.44791 15.5848 4.21959 15.3097 4.0946 14.998C3.96794 14.688 3.93127 14.3413 4.04627 14.0312Z" fill="#90A4AE"/>
<defs>
<radialGradient id="paint0_radial_2434_27914" cx="0" cy="0" r="1" gradientUnits="userSpaceOnUse" gradientTransform="translate(8.67256 7.66634) rotate(-45.0051) scale(15.1685)">
<stop offset="0.3533" stop-color="#FFCA28"/>
<stop offset="0.8723" stop-color="#FFB300"/>
</radialGradient>
</defs>
</svg>
