<svg xmlns="http://www.w3.org/2000/svg" width="14" height="16" fill="none"><path fill="#616161" fill-rule="evenodd" d="M8.096 2.885H4.372V2.51h3.724zM8.096 4.79H4.372v-.375h3.724z" clip-rule="evenodd"/><path fill="#9E9E9E" d="M7.098 15.539H5.662V.936s.134-.311.719-.311.719.311.719.311v14.603z"/><path fill="#757575" d="M6.73.671V12.47H5.662v1.074c.181.001.345.023.493.055.336.074.576.37.576.714v1.227H7.1V.936c-.002 0-.08-.179-.37-.265"/><path fill="#2196F3" d="M10.58.54a3.03 3.03 0 0 0-3.028 3.038 3.02 3.02 0 0 0 3.027 3.028 3.025 3.025 0 0 0 3.028-3.028A3.035 3.035 0 0 0 10.579.54"/><path fill="#fff" d="M11.902 1.671c-.19-.048-.569-.098-1.321-.098-.753 0-1.132.05-1.322.098-.112.029-.488.185-.488.606v2.598c0 .142.115.258.258.258h.095v.288c0 .084.068.151.152.151h.306a.15.15 0 0 0 .151-.151v-.288h1.693v.288c0 .084.067.151.15.151h.307a.15.15 0 0 0 .151-.151v-.288h.098a.26.26 0 0 0 .259-.258V2.277c0-.404-.377-.579-.49-.606m-2.139.206c0-.064.051-.115.115-.115h1.403c.063 0 .115.051.115.115v.204a.115.115 0 0 1-.115.115H9.878a.115.115 0 0 1-.115-.115zm.024 2.736a.08.08 0 0 1-.078.078h-.308a.264.264 0 0 1-.264-.264v-.139c0-.042.035-.077.077-.077h.31c.144 0 .263.117.263.264zm2.235-.186a.264.264 0 0 1-.264.264h-.309a.08.08 0 0 1-.077-.078v-.138c0-.145.117-.264.264-.264h.308c.043 0 .078.035.078.077zm.07-1.129c0 .168-.363.46-1.513.46s-1.512-.27-1.512-.46v-.767c0-.05.05-.175.175-.175h2.695c.125 0 .155.126.155.175z"/><path fill="#F5F5F5" d="M8.61 12.867H4.15a.285.285 0 0 1-.285-.285v-5.15c0-.158.127-.285.285-.285h4.457c.158 0 .285.127.285.285v5.15a.285.285 0 0 1-.284.285"/><path fill="#82AEC0" d="M8.128 12.015H4.632l-.01-4.07H8.12z" opacity=".8"/><path fill="#F5F5F5" fill-rule="evenodd" d="M6.246 12.07V7.945h.25v4.123z" clip-rule="evenodd"/><path fill="#616161" d="M6.246 7.946H4.622v.34h1.624z"/><path fill="#F5F5F5" fill-rule="evenodd" d="M8.142 11.307H4.618v-.125h3.524zM8.142 10.482H4.618v-.125h3.524zM8.12 9.657H4.621v-.125H8.12zM8.12 8.833H4.617v-.125H8.12z" clip-rule="evenodd"/><path fill="#616161" d="M8.118 9.426H6.495v.34h1.623zM6.253 10.25H4.635v.34h1.618z"/><path fill="#9E9E9E" fill-rule="evenodd" d="M4.15 7.334a.097.097 0 0 0-.097.098v5.15c0 .054.044.097.098.097h4.458a.097.097 0 0 0 .097-.097v-5.15a.097.097 0 0 0-.098-.098zm-.472.098c0-.261.212-.473.473-.473h4.457c.261 0 .473.212.473.473v5.15c0 .26-.211.472-.472.472H4.151a.47.47 0 0 1-.473-.472z" clip-rule="evenodd"/><path fill="#757575" d="M4.17 12.682c-.194.017-.194-.11-.194-.145V7.493c0-.141.115-.256.256-.256H8.56c.118 0 .172.071.148.216 0 0-.015-.092-.128-.092H4.233a.133.133 0 0 0-.132.132v5.045c0 .117.069.144.069.144"/><path fill="#FFCA28" d="M4.9 1.775H.642v3.7h4.26z"/><path fill="#9E9E9E" d="M4.663 1.775c.132 0 .238.106.238.237v3.225a.237.237 0 0 1-.238.237H.88a.237.237 0 0 1-.238-.237V2.012c0-.131.107-.237.238-.237zm0-.25H.88a.49.49 0 0 0-.488.487v3.225c0 .269.22.487.488.487h3.783a.49.49 0 0 0 .488-.487V2.012a.487.487 0 0 0-.488-.487"/><path fill="#FFFDE7" fill-rule="evenodd" d="M4.902 3.11H.642v-.25h4.26zM4.902 4.388H.642v-.25h4.26z" clip-rule="evenodd"/><path fill="#757575" d="M1.975 2.186H.904v.282h1.07zM1.711 4.777H.904v.283h.807zM4.552 4.777h-.807v.283h.807zM4.552 2.186h-.807v.282h.807zM3.795 3.482H3.33v.282h.465zM4.552 3.482h-.465v.282h.465zM2.388 3.482H.904v.282h1.484z"/></svg>