<svg width="14" height="14" fill="none" xmlns="http://www.w3.org/2000/svg"><path d="M13.519 13.669H.48a.149.149 0 01-.148-.149V.483C.333.4.399.334.48.334H13.52c.082 0 .149.067.149.149V13.52a.149.149 0 01-.15.149z" fill="#F2A600"/><path d="M11.749 2.252H2.25v9.498h9.498V2.252z" fill="#fff"/><path opacity=".5" d="M13.519.334H.482a.152.152 0 00-.106.043l1.875 1.875h9.498L13.623.377a.147.147 0 00-.104-.043z" fill="#D1762C"/><path d="M2.25 2.252L.376.377a.152.152 0 00-.043.106V13.52a.15.15 0 00.043.105l1.874-1.874v-9.5z" fill="#DE7340"/><g><path d="M12.612 1.388v11.224H1.388V1.388h11.224zm.667-.666H.722v12.557h12.557V.722z" fill="#FFCD40"/><path d="M1.388 12.612V1.388L.722.722v12.557l.666-.667z" fill="#A65F3E"/><path d="M12.604 1.388l.667-.666H.721l.667.666h11.216z" fill="#D1762C"/></g><g><path d="M12.834 12.834H1.166V1.166h11.668v11.668zM1.39 12.612h11.223V1.388H1.39v11.224z" fill="#D1762C"/><path d="M1.388 12.612V1.388l-.222-.222v11.668l.222-.222z" fill="#824A34"/><path d="M12.612 1.388l.222-.222H1.166l.223.222h11.223z" fill="#A65F3E"/></g><g><path d="M11.056 2.944H2.944v8.112h8.113V2.944z" fill="url(#prefix__paint0_linear_2703_6114)"/><path d="M11.056 6.848a1.02 1.02 0 00-.589.455c-.02.035-.037.074-.073.095-.114.042-.246.05-.335.15-.037-.235-.323-.366-.542-.293-.185.047-.277.243-.294.42a.34.34 0 00-.425.296c-.002.019-.002.04-.012.055-.049.05-.148.045-.208.105-.118.093-.174.254-.3.337.715-.404 1.58-.347 2.36-.543.155-.037.327-.085.418-.22v-.857z" fill="#1B5E20"/><path d="M11.057 10.399s-1.844.095-3.856-.525c-2.013-.618-2.936-1.252-2.936-1.252s1.345.261 3.142-.032c1.177-.192 2.05-.858 3.647-.889l.003 2.698z" fill="#689F38"/><path d="M6.278 8.744c.016-.02.035-.04.041-.066.008-.031-.004-.064-.013-.094a.407.407 0 01.02-.269c.019-.044.047-.084.06-.13.023-.08.001-.166-.003-.25a.622.622 0 01.072-.327c.008-.015.017-.03.032-.037.042-.019.078.04.082.086.014.115-.01.234.014.348.034.16.163.3.154.464-.003.059-.024.118-.013.174.009.043.036.081.06.12.06.097.096.207.108.321.013.137-.028.3-.156.348-.139.053-.281-.06-.39-.134-.1-.07-.148-.212-.144-.328a.394.394 0 01.076-.226z" fill="#2E7D32"/><path d="M9.536 6.214l-1.324.096c-.22.016-.441.033-.657-.01-.102-.02-.202-.053-.307-.059-.19-.01-.37.072-.555.118a1.556 1.556 0 01-.62.03.717.717 0 01-.395-.17c-.052-.05-.092-.114-.148-.162-.067-.06-.155-.093-.23-.142-.32-.205-.396-.706-.15-.996.04-.046.086-.089.121-.14.07-.097.091-.22.133-.332.13-.361.469-.635.847-.698.38-.062.784.087 1.04.374.083.093.157.203.273.25.068.026.143.029.215.037.413.053.758.37.934.746.078.168.132.353.262.483a.996.996 0 00.182.136c.29.18.592.338.904.472l-.24-.016" fill="#fff"/><path d="M8.212 6.31c-.219.016-.441.032-.657-.01-.102-.02-.202-.053-.307-.059-.19-.01-.37.071-.555.118a1.556 1.556 0 01-.62.029.717.717 0 01-.395-.17c-.052-.05-.092-.114-.148-.161-.067-.06-.155-.094-.23-.143a.695.695 0 01-.242-.297c-.014-.028-.014-.054-.016-.085.096.15.357.31.462.193.034-.103-.088-.28-.13-.422a1.276 1.276 0 01.01-.804c.012-.031.04-.132.078-.186.028.217.104.546.258.7.155.155.413.22.598.105.117-.073.186-.201.27-.31a1.131 1.131 0 011.082-.406c-.206.12-.406.266-.527.47-.121.205-.15.48-.015.676a.593.593 0 00.498.235c.106-.002.225-.038.268-.135.025-.056.019-.122.047-.177.052-.104.205-.118.309-.064.104.054.175.153.255.238.3.315.744.442 1.164.555-.012-.003-.038.007-.051.009l-.06.01c-.031.005-.063.013-.095.009-.067-.01-.134 0-.201.005l-.471.035-.58.042z" fill="#C9E3E6"/><path d="M11.056 9.448c-3.897.908-5.75-1.322-8.112-1.573v3.18h8.113V9.449z" fill="#8BC34A"/><path d="M11.056 9.448c-3.897.908-5.75-1.322-8.112-1.573v3.18h8.113V9.449z" fill="url(#prefix__paint1_radial_2703_6114)"/><path d="M3.924 8.461c-.115.035-.21-.054-.308-.1-.256-.19-.256-.538-.236-.828-.006-.068.043-.182.124-.133a1.493 1.493 0 01-.012-.506c.017-.13.062-.22.168-.287.006-.013.002-.029-.001-.043-.05-.192.04-.39.049-.587.007-.155-.034-.315.02-.459.022-.064.103-.1.117-.019.078.305.213.608.187.928-.009.043.008.079.043.104.227.203.126.555.163.83a.913.913 0 01-.023.78.582.582 0 01-.29.32z" fill="#2E7D32"/><path d="M5.461 8.63c-.49-.118-.51.012-.673-.025-.558-.168-.214-.711-.053-.844-.068-.259.109-.364.317-.62.034-.523.536-.37.471.088a.686.686 0 01.14.58c.013.129.138.213.197.329.115.226-.078.569-.399.492z" fill="#689F38"/><path d="M5.275 7.779c-.06.122-.228.148-.36.114-.061-.015-.126-.049-.185-.026-.138.05-.18.162-.185.273 0 .149.149.266.297.272.15.007.29-.07.402-.166.033.2.343.194.478.08.13-.11.074-.284.074-.284.154.172.146.308.129.451-.017.138-.136.291-.065.398-.247.063-.369-.149-.565-.237-.073-.02-.148.001-.221.016-.303.079-.642-.099-.644-.433a.49.49 0 01.222-.408c.016-.01.033-.02.04-.038.006-.019 0-.039-.007-.058-.138-.369.222-.365.377-.604a.254.254 0 00.254.072c-.07.162-.267.085-.391.15-.231.19.149.457.35.428z" fill="#2E7D32"/><path d="M3.611 7.034c.08.145.291.263.243.453-.072-.048-.16-.109-.247-.106-.074.098-.045.27.013.37.269.36.559-.183.58-.437.328.382.029 1.442-.562 1.073a.94.94 0 01-.296-.742c.008-.258.111-.275.171-.267a.634.634 0 01.092-.759c.082-.08.023-.15.025-.273.002-.178.049-.28.085-.381.014.189.084.383.054.57-.018.08-.107.08-.147.138a.37.37 0 00-.011.36z" fill="#1B5E20"/><path d="M4.007 9.02c.042.137-.458.037-.388-.138.049-.122.07-.25.095-.376.025-.199-.034-.376-.126-.546a.307.307 0 01.07-.048c.2.37.207.24.372-.05a.257.257 0 01.092.007 1.404 1.404 0 00-.115 1.152z" fill="url(#prefix__paint2_radial_2703_6114)"/></g><defs><radialGradient id="prefix__paint1_radial_2703_6114" cx="0" cy="0" r="1" gradientUnits="userSpaceOnUse" gradientTransform="matrix(3.94918 .59855 -.30431 2.00783 8.71 9.533)"><stop stop-color="#D4E157"/><stop offset="1" stop-color="#D4E157" stop-opacity="0"/></radialGradient><radialGradient id="prefix__paint2_radial_2703_6114" cx="0" cy="0" r="1" gradientUnits="userSpaceOnUse" gradientTransform="matrix(.50835 .14498 -.18066 .63342 4.068 8.428)"><stop offset=".441" stop-color="#A06841"/><stop offset=".923" stop-color="#A06841" stop-opacity=".138"/><stop offset="1" stop-color="#A06841" stop-opacity="0"/></radialGradient><linearGradient id="prefix__paint0_linear_2703_6114" x1="6.36" y1="9.285" x2="7.289" y2="5.971" gradientUnits="userSpaceOnUse"><stop offset=".117" stop-color="#AFE4FE"/><stop offset=".608" stop-color="#84C9ED"/><stop offset="1" stop-color="#5FB2DE"/></linearGradient></defs></svg>