<svg width="18" height="18" viewBox="0 0 18 18" fill="none" xmlns="http://www.w3.org/2000/svg">
<path d="M15.9153 14.4092L15.1966 14.0943C15.1916 14.0555 15.1854 14.0168 15.1754 13.9793C15.1216 13.7705 14.9241 13.5168 14.5979 13.443L14.5316 12.5068L13.8317 12.5468L13.9192 13.543C13.6592 13.6855 13.5392 13.9368 13.5479 14.2255L12.813 14.8217L13.2505 15.3704L13.8417 14.873C13.9892 14.9867 14.1829 15.0817 14.4229 15.068C14.7116 15.0517 14.9091 14.9017 15.0316 14.7492L15.6678 15.0905L15.9153 14.4092Z" fill="#878787"/>
<path d="M6.0135 14.1379C5.88226 12.4643 4.50233 11.9118 3.49989 11.9743C2.35495 12.0468 1.29375 12.8843 1.3125 14.3129C1.32875 15.5691 2.11621 16.5553 3.72737 16.5553C5.01731 16.5566 6.1085 15.3554 6.0135 14.1379ZM3.67113 15.7279C2.69993 15.7454 2.13996 15.1791 2.13121 14.3292C2.12371 13.533 2.77492 12.8418 3.59488 12.8655C4.38234 12.888 4.96231 13.3342 5.05855 14.1617C5.1548 14.9891 4.52983 15.7129 3.67113 15.7279Z" fill="#4D453C"/>
<path d="M3.58723 13.1605C2.95101 13.1268 2.39354 13.5655 2.38604 14.3692C2.37854 15.2204 3.14975 15.5141 3.59473 15.5229C4.0397 15.5316 4.74092 15.2054 4.76342 14.4179C4.78841 13.5817 4.33469 13.1993 3.58723 13.1605Z" fill="#858585"/>
<path d="M14.1731 11.6731C12.9419 11.7556 11.867 12.8155 11.882 14.1467C11.8982 15.5466 12.9719 16.5403 14.3319 16.5403C15.6605 16.5403 16.7642 15.5616 16.7417 14.0742C16.718 12.4606 15.4693 11.5856 14.1731 11.6731ZM14.3644 15.5779C13.6094 15.5704 13.0357 14.9729 12.9644 14.3217C12.8694 13.4505 13.4157 12.8168 14.1894 12.7543C14.9931 12.6905 15.6605 13.168 15.748 14.0267C15.8355 14.8854 15.1593 15.5866 14.3644 15.5779Z" fill="#4D453C"/>
<path d="M1.89367 12.2531C1.93992 12.3343 2.45864 12.2931 2.85612 12.4681C3.11486 12.5818 3.39734 12.8818 3.35735 13.2955C3.31735 13.7092 3.2386 14.0905 3.2386 14.0905L3.96981 14.3292C3.96981 14.3292 4.25605 13.6855 4.41479 13.518C4.57353 13.3505 4.93226 13.0168 5.45723 13.088C5.86096 13.143 6.31594 13.5093 6.31594 13.5093C6.31594 13.5093 6.0297 11.7756 5.99721 11.7594C5.96596 11.7431 4.39104 11.8231 4.39104 11.8231C4.39104 11.8231 3.67483 11.5294 2.94362 11.7119C2.21116 11.8956 1.86117 12.1981 1.89367 12.2531Z" fill="#DB0D2A"/>
<path d="M4.2399 11.498L3.48494 13.7892C3.48494 13.7892 3.1962 13.7904 3.08746 14.1867C2.99996 14.5054 3.21495 14.7116 3.41369 14.7666C3.64868 14.8329 3.95241 14.7279 4.02616 14.4566C4.12115 14.1067 3.93116 13.9479 3.93116 13.9154C3.93116 13.8829 4.77362 11.5618 4.77362 11.5618L4.2399 11.498Z" fill="#E1D9DC"/>
<path d="M6.84961 13.3155L8.20829 14.8479L10.8519 14.8354L12.4706 14.3529L12.2493 13.488L10.9394 12.8705C10.9394 12.8705 11.5944 11.0169 11.4581 10.9556C11.3219 10.8944 9.7907 9.86816 9.7907 9.86816L6.88711 10.8444L6.84961 13.3155Z" fill="#2F2F2F"/>
<path d="M12.3868 11.2294C12.3868 11.2294 11.9393 11.6369 11.6793 11.9981C11.4969 12.2531 11.4456 12.5481 11.4456 12.5481L11.8281 12.7206C11.8281 12.7206 12.0593 12.1906 12.6005 11.8756C13.2218 11.5131 13.6942 11.5594 13.768 11.7194C13.8417 11.8794 13.5367 11.9331 13.1005 12.3868C12.7793 12.7206 12.6068 13.0418 12.6068 13.0418C12.6068 13.0418 14.053 13.6343 14.053 13.7093C14.053 13.783 13.793 14.5242 13.793 14.5242L12.1493 14.1292C12.1493 14.1292 11.0869 13.808 10.9756 14.1292C10.8644 14.4505 11.3581 14.6355 11.3581 14.6355L10.9006 14.9317L9.47946 14.3142C9.47946 14.3142 9.39571 13.9218 9.83819 13.0543C10.5069 11.7406 11.5056 11.0769 11.5056 11.0769L12.3868 11.2294Z" fill="#5E6268"/>
<path d="M10.9369 14.7805C10.9406 14.833 10.9806 14.8955 11.1481 14.8867C11.3156 14.878 12.993 14.9042 13.1955 14.8605C13.398 14.8167 16.1091 13.6405 16.1628 13.5343C16.2016 13.4568 16.2078 13.1955 16.0816 12.9268C15.9404 12.6268 15.7991 12.4768 15.6141 12.5118C15.4291 12.5468 11.6518 14.348 11.3693 14.4617C11.0869 14.5767 10.9281 14.6567 10.9369 14.7805Z" fill="#E0E0E0"/>
<path d="M12.9218 14.2767C12.9518 14.348 13.2455 14.338 13.5868 14.1817C13.928 14.0255 16.0991 12.963 16.0991 12.963C16.0991 12.963 16.0629 12.8543 15.9991 12.753C15.9491 12.6743 15.8654 12.5918 15.8654 12.5918C15.8654 12.5918 13.3968 13.8492 13.258 13.918C13.078 14.008 12.8656 14.143 12.9218 14.2767Z" fill="#FEFEFE"/>
<path d="M15.063 9.95188L15.9642 10.7481C15.9642 10.7481 16.1654 10.4256 16.1654 10.3944C16.1654 10.3619 15.5617 9.59814 15.5617 9.59814L15.063 9.95188Z" fill="#484D51"/>
<path d="M12.5669 11.2956C12.5669 11.2956 13.793 10.7694 14.308 10.5394C15.1142 10.1807 15.9392 9.71821 16.0867 9.63072C16.3529 9.47198 16.3504 9.32323 16.2767 9.26199C16.2029 9.20074 16.0054 9.28698 15.9054 9.29948C15.8054 9.31198 15.5105 9.32448 15.5105 9.32448L13.2993 9.92945C13.2993 9.92945 11.8294 10.8557 11.8656 10.8557C11.9019 10.8557 12.5669 11.2956 12.5669 11.2956Z" fill="#DC0D2A"/>
<path d="M9.77075 10.1719C9.77075 10.1719 10.737 11.1119 10.8757 11.1819C11.0157 11.2519 11.2819 11.2831 11.5044 11.2394C11.7269 11.1956 12.9531 10.2669 13.4806 10.1019C14.008 9.93693 14.9167 9.91193 15.2155 9.74569C15.5142 9.57945 15.5104 9.32446 15.5104 9.32446L12.9156 9.50445C12.9156 9.50445 12.3656 10.3882 11.3332 10.3307C10.5395 10.2857 9.94199 9.61945 9.94199 9.61945L9.77075 10.1719Z" fill="#464C4F"/>
<path d="M12.7831 11.9943C13.0119 12.1156 13.1206 11.8518 13.0631 11.7343C12.9419 11.4869 12.4919 10.7831 12.3769 10.7369C12.2819 10.6994 11.767 11.0731 11.7157 11.1119C11.6645 11.1494 11.6832 11.2306 11.792 11.3094C11.9319 11.4106 12.6057 11.9006 12.7831 11.9943Z" fill="#C8C8C8"/>
<path d="M5.00966 11.0169L3.4585 10.7057L4.22596 9.22699L5.04966 8.40329L5.53714 8.22705C5.53714 8.22705 5.12591 8.77327 4.90467 9.117C4.76718 9.33074 4.62218 9.68197 4.62218 9.68197C4.62218 9.68197 4.79343 9.64447 4.92967 9.62822C5.06591 9.61197 5.21715 9.60072 5.21715 9.60072C5.21715 9.60072 5.17216 9.30824 5.2359 9.157C5.29965 9.0045 5.43214 8.90576 5.52839 8.89701C5.62463 8.88951 5.68838 8.93701 5.68838 8.93701C5.68838 8.93701 5.67463 8.70577 5.69588 8.64077C5.73588 8.52078 6.07211 8.37954 6.48834 8.22705C6.90706 8.0733 7.37704 7.85956 7.50328 7.88956C7.58203 7.90831 7.76702 8.26579 7.67077 8.36954C7.57453 8.47328 6.08836 9.1695 6.08836 9.1695L6.33584 9.84946L5.00966 11.0169Z" fill="#464C4F"/>
<path d="M7.70974 10.7943L9.73088 10.7206L10.1246 11.1318L8.80218 11.953L7.521 11.6405L7.40601 10.8443L7.70974 10.7943Z" fill="#464C4F"/>
<path d="M6.84709 12.0594L5.78339 13.2205C5.78339 13.2205 6.17337 13.913 6.28087 14.2105C6.39336 14.5205 6.5521 15.0805 6.5521 15.0805C6.5521 15.0805 10.5844 15.1954 10.7731 15.1704C10.9619 15.1454 11.1756 14.9242 11.0769 14.8342C10.9781 14.7442 9.44195 14.1118 9.44195 14.1118C9.44195 14.1118 8.23451 14.1942 8.03702 14.1205C7.83953 14.0468 7.19582 13.1593 7.23082 13.0918C7.31581 12.9243 8.88323 11.9031 8.88323 11.9031L8.75199 11.7631L7.54455 11.4919L7.6183 10.9994C7.6183 10.9994 8.16077 10.5644 8.22576 10.5644C8.29076 10.5644 8.94073 10.4582 9.30196 10.3757C9.66319 10.2932 10.1069 10.1945 10.2132 10.137C10.3194 10.0795 10.3981 9.98072 10.3694 9.82448C10.3469 9.70698 10.0407 9.60324 10.0407 9.60324L6.87084 9.422L6.21962 9.49074C6.21962 9.49074 6.13213 9.78323 5.6634 10.0707C5.19467 10.3582 4.39722 10.5444 4.39722 10.5444L6.84709 12.0594Z" fill="#DC0D2A"/>
<path d="M3.62231 9.04443C3.62231 9.04443 4.55851 8.03324 5.05474 7.58951C5.42222 7.26078 5.7047 7.04829 5.8097 7.00829C5.86595 6.98704 6.40967 6.96829 6.46466 6.98454C6.52091 7.00079 6.57716 7.08829 6.48841 7.17703C6.40092 7.26453 6.12343 7.58201 5.87345 7.8445C5.75845 7.96449 5.53721 8.22323 5.53721 8.22323L5.12973 8.37447L4.10604 8.88569L3.62231 9.04443Z" fill="#AEE3FD"/>
<path d="M5.52591 8.22571C5.52591 8.22571 4.46222 8.40445 3.73976 8.94692C3.0173 9.48939 2.73731 10.5818 2.72106 10.6881C2.70481 10.7943 2.56732 11.1481 2.83856 11.318C2.9698 11.4005 3.23104 11.3618 3.50977 11.428C3.74101 11.4818 4.26473 11.658 4.66721 12.0193C5.06969 12.3805 5.78465 13.2267 5.78465 13.2267L8.75199 11.7643C8.75199 11.7643 7.89579 10.7631 5.91589 10.6318C3.936 10.5006 3.73101 10.5493 3.73101 10.5493C3.73101 10.5493 3.97975 9.83437 4.33098 9.3669C4.7997 8.74193 5.52591 8.22571 5.52591 8.22571Z" fill="#FE2A22"/>
<path d="M8.37714 13.2118C8.37714 13.2118 8.1859 12.6768 8.63587 12.3681C8.97585 12.1343 9.40708 12.1656 9.69957 12.5543C9.99205 12.943 9.73081 13.3993 9.57582 13.528C9.0696 13.9505 8.60837 13.5505 8.60837 13.5505C8.60837 13.5505 8.63837 13.7705 8.43963 13.9217C8.29839 14.0292 7.94466 14.0605 7.79842 13.7917C7.64093 13.5018 7.80217 13.2868 7.96716 13.1955C8.17965 13.0768 8.37714 13.2118 8.37714 13.2118Z" fill="#464C4F"/>
<path d="M3.04728 9.81194C3.04728 9.81194 3.721 9.80819 3.726 9.83569C3.731 9.86319 3.47851 10.5019 3.47851 10.5019C3.47851 10.5019 2.7073 10.9019 2.68355 10.8969C2.65981 10.8919 2.67855 10.5532 2.77855 10.2782C2.87854 10.0032 3.04728 9.81194 3.04728 9.81194Z" fill="#D9E3DF"/>
<path d="M6.21851 9.49316C6.21851 9.49316 6.80597 9.99064 7.86592 10.0806C8.92586 10.1706 10.0421 9.60441 10.0421 9.60441C10.0421 9.60441 8.25465 8.77695 8.03841 8.79195C7.80592 8.80695 6.22726 9.44316 6.21851 9.49316Z" fill="#FE2A22"/>
<path d="M3.32099 8.642C3.35223 8.75449 3.81971 9.10697 4.12344 9.07947C4.40218 9.05448 4.35468 8.53575 4.35218 8.40826C4.34843 8.15077 4.32593 7.93328 4.31093 7.79829C4.29468 7.6508 4.17219 7.63455 4.08595 7.70455C3.9997 7.77329 3.28724 8.52325 3.32099 8.642Z" fill="#464C4F"/>
</svg>
