<svg width="18" height="18" viewBox="0 0 18 18" fill="none" xmlns="http://www.w3.org/2000/svg">
<path d="M7.10094 15.5491L5.56352 16.2291L2.34369 8.94571L3.88111 8.26575L7.10094 15.5491Z" fill="url(#paint0_linear_746_959)"/>
<path d="M2.87744 9.64192C2.93369 9.52192 3.00868 9.43943 3.08743 9.36943C3.16743 9.30068 3.25367 9.24694 3.34492 9.20569C3.43741 9.16444 3.53491 9.13694 3.6399 9.12444C3.7449 9.11319 3.85614 9.11444 3.98238 9.15319C3.92614 9.27444 3.85239 9.35568 3.77239 9.42693C3.6924 9.49567 3.60615 9.54942 3.51366 9.59067C3.42116 9.63067 3.32367 9.65817 3.21867 9.67067C3.11618 9.68191 3.00493 9.68191 2.87744 9.64192Z" fill="#FFC107"/>
<path d="M3.73865 11.5881C3.79489 11.4681 3.86989 11.3856 3.94864 11.3156C4.02863 11.2469 4.11488 11.1931 4.20612 11.1519C4.29862 11.1106 4.39611 11.0831 4.50111 11.0706C4.6061 11.0594 4.71735 11.0606 4.84359 11.0994C4.78734 11.2206 4.7136 11.3018 4.6336 11.3731C4.5536 11.4418 4.46736 11.4956 4.37486 11.5368C4.28237 11.5768 4.18487 11.6043 4.07988 11.6168C3.97613 11.6281 3.86614 11.6268 3.73865 11.5881Z" fill="#FFC107"/>
<path d="M3.16492 10.2906C3.22116 10.1706 3.29616 10.0881 3.37491 10.0181C3.4549 9.94937 3.54115 9.89562 3.63239 9.85437C3.72489 9.81312 3.82238 9.78563 3.92738 9.77313C4.03237 9.76188 4.14362 9.76313 4.26986 9.80187C4.21361 9.92312 4.13987 10.0044 4.05987 10.0756C3.97987 10.1444 3.89363 10.1981 3.80113 10.2394C3.70864 10.2793 3.61114 10.3068 3.50615 10.3193C3.4024 10.3306 3.29241 10.3293 3.16492 10.2906Z" fill="#FFC107"/>
<path d="M4.31238 12.8854C4.36862 12.7655 4.44362 12.683 4.52237 12.613C4.60236 12.5442 4.68861 12.4905 4.77985 12.4492C4.87235 12.408 4.96984 12.3805 5.07484 12.368C5.17983 12.3567 5.28983 12.358 5.41732 12.3967C5.36107 12.518 5.28733 12.5992 5.20733 12.6705C5.12733 12.7392 5.04109 12.793 4.94859 12.8342C4.8561 12.8742 4.7586 12.9017 4.65361 12.9142C4.54987 12.9254 4.43987 12.9242 4.31238 12.8854Z" fill="#FFC107"/>
<path d="M4.0249 12.2368C4.08115 12.1168 4.15615 12.0343 4.23489 11.9643C4.31489 11.8955 4.40113 11.8418 4.49238 11.8005C4.58487 11.7593 4.68237 11.7318 4.78736 11.7193C4.89236 11.708 5.00235 11.7093 5.12984 11.748C5.0736 11.8693 4.99985 11.9505 4.91986 12.0218C4.83986 12.0905 4.75361 12.1443 4.66112 12.1855C4.56862 12.2255 4.47113 12.253 4.36613 12.2655C4.26239 12.2768 4.1524 12.2755 4.0249 12.2368Z" fill="#FFC107"/>
<path d="M5.1723 14.8316C5.2298 14.7116 5.30355 14.6291 5.38229 14.5591C5.46229 14.4904 5.54853 14.4366 5.63978 14.3954C5.73227 14.3541 5.82977 14.3266 5.93476 14.3141C6.03976 14.3029 6.14975 14.3041 6.27724 14.3429C6.221 14.4641 6.14725 14.5454 6.06726 14.6166C5.98726 14.6854 5.90101 14.7391 5.80977 14.7804C5.71727 14.8204 5.61978 14.8479 5.51478 14.8604C5.40979 14.8716 5.2998 14.8704 5.1723 14.8316Z" fill="#FFC107"/>
<path d="M3.45117 10.9394C3.50742 10.8194 3.58241 10.7369 3.66116 10.6669C3.74116 10.5982 3.8274 10.5444 3.91865 10.5032C4.01114 10.4619 4.10864 10.4344 4.21363 10.4219C4.31863 10.4107 4.42987 10.4119 4.55611 10.4507C4.49987 10.5719 4.42612 10.6532 4.34612 10.7244C4.26613 10.7932 4.17988 10.8469 4.08739 10.8882C3.99489 10.9282 3.8974 10.9557 3.7924 10.9682C3.68866 10.9794 3.57867 10.9781 3.45117 10.9394Z" fill="#FFC107"/>
<path d="M4.88611 14.1829C4.94236 14.0629 5.01735 13.9804 5.0961 13.9104C5.17609 13.8417 5.26234 13.788 5.35358 13.7467C5.44608 13.7055 5.54357 13.678 5.64857 13.6655C5.75356 13.6542 5.86356 13.6555 5.99105 13.6942C5.9348 13.8155 5.86106 13.8967 5.78106 13.9679C5.70107 14.0367 5.61482 14.0904 5.52357 14.1317C5.43108 14.1717 5.33358 14.1992 5.22859 14.2117C5.1236 14.2229 5.01235 14.2217 4.88611 14.1829Z" fill="#FFC107"/>
<path d="M4.59863 13.5343C4.65488 13.4143 4.72988 13.3318 4.80862 13.2618C4.88862 13.193 4.97486 13.1393 5.06611 13.098C5.1586 13.0568 5.2561 13.0293 5.36109 13.0168C5.46609 13.0055 5.57608 13.0068 5.70357 13.0455C5.64733 13.1668 5.57358 13.248 5.49359 13.3193C5.41359 13.388 5.32734 13.4418 5.2361 13.483C5.1436 13.523 5.04611 13.5505 4.94111 13.563C4.83612 13.5742 4.72613 13.573 4.59863 13.5343Z" fill="#FFC107"/>
<path d="M3.91738 8.48077L2.48995 9.11199C2.31746 9.18824 2.11747 9.11074 2.04123 8.93825C1.96498 8.76576 2.04248 8.56577 2.21497 8.48952L3.64239 7.85831C3.81488 7.78206 4.01487 7.85956 4.09112 8.03205C4.16737 8.20329 4.08987 8.40453 3.91738 8.48077Z" fill="#FFA000"/>
<g opacity="0.81">
<path opacity="0.81" d="M4.57732 13.9392L3.70612 11.993L5.09104 11.0693L6.16349 13.2905L4.57732 13.9392Z" fill="url(#paint1_linear_746_959)"/>
</g>
<path d="M2.11749 9.04568C2.23124 9.17068 2.42748 9.13568 2.42748 9.13568L2.48247 9.25942L4.02239 8.58571L3.96865 8.45821C3.96865 8.45821 4.13114 8.34697 4.11739 8.12573L2.11749 9.04568Z" fill="url(#paint2_linear_746_959)"/>
<path d="M2.81244 16.1078V16.4803H15.9867V16.1078C15.9867 13.9817 12.6482 12.9292 9.39959 12.933C6.17101 12.9367 2.81244 13.8554 2.81244 16.1078Z" fill="url(#paint3_linear_746_959)"/>
<path d="M3.73236 13.6642C3.73236 14.8329 5.57851 16.4803 5.57851 16.4803H13.0106C13.0106 16.4803 14.7205 14.7879 14.7205 13.408C14.7205 13.408 12.8244 12.8643 9.39956 12.933C5.57851 13.0093 3.73236 13.6642 3.73236 13.6642Z" fill="#212121"/>
<path d="M9.99328 13.3067C12.2157 13.3067 13.7056 13.5692 14.3106 13.7005C14.1418 14.5792 13.2969 15.6266 12.8494 16.1003H5.72476C5.14104 15.5554 4.33983 14.6229 4.15234 13.9355C4.8023 13.7592 6.53846 13.3705 9.40706 13.313C9.6033 13.3092 9.79954 13.3067 9.99328 13.3067ZM9.99328 12.9268C9.80079 12.9268 9.6033 12.928 9.39956 12.933C5.57976 13.0093 3.73236 13.6642 3.73236 13.6642C3.73236 14.8329 5.57851 16.4803 5.57851 16.4803H13.0106C13.0106 16.4803 14.7205 14.7879 14.7205 13.408C14.7205 13.408 13.0419 12.9268 9.99328 12.9268Z" fill="url(#paint4_linear_746_959)"/>
<path d="M7.55591 13.1867C7.55591 12.8142 7.58091 12.1593 8.02713 11.9505C8.33587 11.8068 10.4095 11.8805 10.7295 12.0455C11.1345 12.2543 11.2432 12.8342 11.2432 13.1855C11.2432 13.8154 10.4183 15.7028 9.40081 15.7028C8.38336 15.7028 7.55591 13.8167 7.55591 13.1867Z" fill="url(#paint5_linear_746_959)"/>
<path opacity="0.61" d="M7.67841 12.2467L7.59216 12.6592C7.59216 12.6592 8.23838 13.4404 9.39957 13.4404C10.7407 13.4404 11.1945 12.7604 11.1945 12.7604L11.0782 12.3742L7.67841 12.2467Z" fill="black"/>
<path d="M10.6057 16.4803C11.5294 15.4716 12.3882 14.2704 12.6444 13.0917L11.6744 12.8355C11.5519 12.803 11.427 12.873 11.3895 12.993C11.0282 14.1579 9.80079 15.4753 8.68335 16.4803H10.6057Z" fill="black"/>
<path d="M10.3483 16.4828C11.3132 15.4504 12.2307 14.2004 12.4969 12.9755L11.527 12.7193C11.4045 12.6868 11.2795 12.7568 11.242 12.8767C10.8657 14.0879 9.55332 15.4654 8.40088 16.4828H10.3483Z" fill="url(#paint6_linear_746_959)"/>
<g opacity="0.31">
<path opacity="0.31" d="M7.57971 12.9655C7.57971 12.9655 9.06213 15.1716 10.857 16.4278C10.857 16.4278 9.84834 16.544 9.81959 16.4803C9.79085 16.4165 7.65846 14.0841 7.65846 14.0841L7.57971 12.9655Z" fill="black"/>
</g>
<path d="M10.3333 16.4802C9.22584 15.4891 7.98215 14.1554 7.57968 12.9654C7.52718 12.8092 7.36219 12.7229 7.20595 12.7742L6.23975 13.1004C6.50473 14.2941 7.38344 15.4891 8.31964 16.4802H10.3333Z" fill="url(#paint7_linear_746_959)"/>
<path d="M9.39959 2.17358C7.19471 2.17358 5.15356 4.53096 5.15356 7.92453C5.15356 11.2994 7.2572 12.828 9.39959 12.828C11.542 12.828 13.6456 11.2994 13.6456 7.92453C13.6456 4.53096 11.6045 2.17358 9.39959 2.17358Z" fill="#F9DDBD"/>
<path d="M7.3172 8.86824C7.66167 8.86824 7.94092 8.57892 7.94092 8.22202C7.94092 7.86513 7.66167 7.57581 7.3172 7.57581C6.97273 7.57581 6.69348 7.86513 6.69348 8.22202C6.69348 8.57892 6.97273 8.86824 7.3172 8.86824Z" fill="#312D2D"/>
<path d="M11.482 8.86824C11.8265 8.86824 12.1057 8.57892 12.1057 8.22202C12.1057 7.86513 11.8265 7.57581 11.482 7.57581C11.1375 7.57581 10.8583 7.86513 10.8583 8.22202C10.8583 8.57892 11.1375 8.86824 11.482 8.86824Z" fill="#312D2D"/>
<path d="M8.25714 7.08204C8.13965 6.92704 7.86841 6.70081 7.34094 6.70081C6.81347 6.70081 6.54223 6.92704 6.42474 7.08204C6.37224 7.15078 6.38599 7.23078 6.42224 7.27828C6.45599 7.32327 6.55473 7.36452 6.66347 7.32702C6.77222 7.28952 6.98471 7.17953 7.34219 7.17703C7.69842 7.17953 7.91091 7.28952 8.0209 7.32702C8.12965 7.36452 8.22839 7.32327 8.26214 7.27828C8.29589 7.23078 8.30964 7.15078 8.25714 7.08204Z" fill="#454140"/>
<path d="M12.3744 7.08204C12.2569 6.92704 11.9857 6.70081 11.4582 6.70081C10.9307 6.70081 10.6595 6.92704 10.542 7.08204C10.4895 7.15078 10.5032 7.23078 10.5395 7.27828C10.5732 7.32327 10.672 7.36452 10.7807 7.32702C10.8895 7.28952 11.102 7.17953 11.4594 7.17703C11.8157 7.17953 12.0282 7.28952 12.1382 7.32702C12.2469 7.36452 12.3456 7.32327 12.3794 7.27828C12.4131 7.23078 12.4256 7.15078 12.3744 7.08204Z" fill="#454140"/>
<g opacity="0.17">
<path opacity="0.17" d="M9.39959 2.0061C7.05846 2.0061 5.15356 3.57852 5.15356 7.15208C5.15356 10.7456 6.99097 12.7105 9.39959 12.7105C11.8082 12.7105 13.8494 10.6994 13.8494 7.10458C13.8481 3.53102 11.7407 2.0061 9.39959 2.0061ZM9.39959 12.4106C7.82217 12.4106 5.73603 11.5981 5.73603 8.657C5.73603 5.73216 7.48969 5.81215 9.39959 5.81215C11.3095 5.81215 13.0631 5.73216 13.0631 8.657C13.0631 11.5981 10.977 12.4106 9.39959 12.4106Z" fill="black"/>
</g>
<path d="M9.44585 8.60449C10.8395 8.60449 13.3319 9.94067 13.3319 9.94067C13.2557 11.2181 11.592 12.688 9.5346 12.658C6.08228 12.608 5.46606 10.0432 5.46606 10.0432C5.46606 10.0432 8.05218 8.60449 9.44585 8.60449Z" fill="url(#paint8_linear_746_959)"/>
<path opacity="0.4" d="M13.3281 9.99189C13.3281 9.98814 13.3294 9.98439 13.3294 9.98189C13.1969 9.90314 13.0632 9.82065 12.9282 9.73565C12.1645 9.36067 10.4945 8.60571 9.4471 8.60571C8.48215 8.60571 6.85473 9.31943 5.85479 9.84315C5.6548 9.97689 5.76979 9.98939 5.57605 10.1119C6.23102 9.8819 8.11842 9.02944 9.41835 9.02944C10.6945 9.02819 12.6294 9.7669 13.3281 9.99189Z" fill="#BDBDBD"/>
<path d="M9.39959 1.49988C6.95596 1.49988 4.55609 3.26728 4.55609 6.8421C4.55609 10.4357 6.88472 12.933 9.39834 12.933C11.912 12.933 14.2406 10.4357 14.2406 6.8421C14.2418 3.26728 11.8432 1.49988 9.39959 1.49988ZM9.39959 12.6555C7.75217 12.6555 5.57604 11.0919 5.57604 8.15078C5.57604 5.22593 7.40594 5.30593 9.39959 5.30593C11.3932 5.30593 13.2231 5.22593 13.2231 8.15078C13.2231 11.0906 11.0457 12.6555 9.39959 12.6555Z" fill="url(#paint9_linear_746_959)"/>
<path d="M9.53456 2.71479C9.53456 2.71479 7.72966 2.15357 6.08225 3.92723C4.50233 5.62839 4.9948 8.87947 4.9948 8.87947C4.9948 8.87947 4.82731 6.04587 6.69221 4.27221C8.32338 2.71979 9.53456 2.71479 9.53456 2.71479Z" fill="url(#paint10_linear_746_959)"/>
<path d="M12.5669 5.14215C13.6194 6.1646 13.6344 8.88946 13.6344 8.88946C13.6344 8.88946 14.4231 6.14585 12.9781 4.66718C11.7832 3.44349 10.1283 3.93847 10.1283 3.93847C10.1283 3.93847 11.4582 4.06471 12.5669 5.14215Z" fill="url(#paint11_linear_746_959)"/>
<g opacity="0.38">
<path opacity="0.38" d="M9.39959 1.74986C10.612 1.74986 11.7357 2.19734 12.5619 3.00855C13.4981 3.92725 13.9918 5.25218 13.9918 6.8421C13.9918 8.38826 13.5394 9.81819 12.7144 10.8969C13.1744 10.1707 13.4731 9.25197 13.4731 8.15203C13.4731 6.8021 13.0756 5.92589 12.2569 5.47092C11.5682 5.08844 10.6895 5.05719 9.69582 5.05719H9.54833H9.40084H9.25334H9.10585C7.42219 5.05719 5.3273 5.05719 5.3273 8.15203C5.3273 9.25322 5.62478 10.1707 6.08601 10.8969C5.26105 9.81819 4.80858 8.38826 4.80858 6.8421C4.80858 5.25343 5.30355 3.92725 6.2385 3.00855C7.06346 2.19734 8.18715 1.74986 9.39959 1.74986ZM9.39959 1.49988C6.95596 1.49988 4.55609 3.26728 4.55609 6.8421C4.55609 10.4357 6.88472 12.933 9.39834 12.933C11.912 12.933 14.2406 10.4357 14.2406 6.8421C14.2418 3.26728 11.8432 1.49988 9.39959 1.49988ZM9.39959 5.30593C9.49833 5.30593 9.59707 5.30593 9.69457 5.30593C11.4982 5.30593 13.2231 5.37717 13.2231 8.15078C13.2231 11.0906 10.9733 12.6555 9.39959 12.6555C7.82592 12.6555 5.57604 11.0906 5.57604 8.15078C5.57604 5.37717 7.30095 5.30593 9.1046 5.30593C9.2021 5.30593 9.30084 5.30593 9.39959 5.30593Z" fill="url(#paint12_linear_746_959)"/>
</g>
<defs>
<linearGradient id="paint0_linear_746_959" x1="3.42906" y1="9.47632" x2="5.21624" y2="13.306" gradientUnits="userSpaceOnUse">
<stop stop-color="#646464"/>
<stop offset="1" stop-color="#444444"/>
</linearGradient>
<linearGradient id="paint1_linear_746_959" x1="5.47577" y1="13.9528" x2="4.50005" y2="11.5885" gradientUnits="userSpaceOnUse">
<stop/>
<stop offset="1" stop-opacity="0"/>
</linearGradient>
<linearGradient id="paint2_linear_746_959" x1="3.28571" y1="8.99385" x2="3.11769" y2="8.58672" gradientUnits="userSpaceOnUse">
<stop/>
<stop offset="1" stop-opacity="0"/>
</linearGradient>
<linearGradient id="paint3_linear_746_959" x1="9.39947" y1="16.6913" x2="9.39947" y2="15.0654" gradientUnits="userSpaceOnUse">
<stop offset="0.1696" stop-color="#646464"/>
<stop offset="1" stop-color="#757575"/>
</linearGradient>
<linearGradient id="paint4_linear_746_959" x1="9.22613" y1="12.927" x2="9.22613" y2="16.4801" gradientUnits="userSpaceOnUse">
<stop stop-color="#646464"/>
<stop offset="0.2649" stop-color="#575757"/>
<stop offset="0.7538" stop-color="#353535"/>
<stop offset="1" stop-color="#212121"/>
</linearGradient>
<linearGradient id="paint5_linear_746_959" x1="9.39944" y1="12.6796" x2="9.39944" y2="15.4456" gradientUnits="userSpaceOnUse">
<stop offset="0.0744" stop-color="#444444"/>
<stop offset="0.653" stop-color="#212121"/>
</linearGradient>
<linearGradient id="paint6_linear_746_959" x1="11.6532" y1="13.1431" x2="10.2698" y2="15.2902" gradientUnits="userSpaceOnUse">
<stop stop-color="#646464"/>
<stop offset="1" stop-color="#444444"/>
</linearGradient>
<linearGradient id="paint7_linear_746_959" x1="8.38795" y1="15.2569" x2="6.35194" y2="12.3334" gradientUnits="userSpaceOnUse">
<stop stop-color="#646464"/>
<stop offset="1" stop-color="#9E9E9E"/>
</linearGradient>
<linearGradient id="paint8_linear_746_959" x1="9.39942" y1="9.89264" x2="9.39942" y2="12.9208" gradientUnits="userSpaceOnUse">
<stop offset="0.0744" stop-color="#444444"/>
<stop offset="0.653" stop-color="#212121"/>
</linearGradient>
<linearGradient id="paint9_linear_746_959" x1="9.39934" y1="1.56391" x2="9.39934" y2="12.7995" gradientUnits="userSpaceOnUse">
<stop offset="0.0744" stop-color="#444444"/>
<stop offset="0.653" stop-color="#212121"/>
</linearGradient>
<linearGradient id="paint10_linear_746_959" x1="5.59864" y1="6.32337" x2="8.30122" y2="2.98737" gradientUnits="userSpaceOnUse">
<stop stop-color="#0D0C0C"/>
<stop offset="1" stop-color="#0D0C0C" stop-opacity="0"/>
</linearGradient>
<linearGradient id="paint11_linear_746_959" x1="12.9059" y1="6.30033" x2="11.0478" y2="4.10448" gradientUnits="userSpaceOnUse">
<stop stop-color="#0D0C0C"/>
<stop offset="1" stop-color="#0D0C0C" stop-opacity="0"/>
</linearGradient>
<linearGradient id="paint12_linear_746_959" x1="9.39934" y1="1.49988" x2="9.39934" y2="12.933" gradientUnits="userSpaceOnUse">
<stop stop-color="#BDBDBD"/>
<stop offset="1" stop-color="#646464"/>
</linearGradient>
</defs>
</svg>
