<svg width="18" height="18" viewBox="0 0 18 18" fill="none" xmlns="http://www.w3.org/2000/svg">
<path d="M8.7946 16.0455C8.7946 16.0455 13.3519 15.573 14.2118 14.8205C14.6418 14.4443 15.1305 13.6406 15.4155 13.1656C15.7005 12.6894 15.888 12.3482 16.0605 11.8757C16.4042 10.9295 16.5767 8.09214 16.0605 6.67347C15.5442 5.25479 14.878 3.98611 13.9531 3.23365C13.0444 2.49119 11.4382 1.48999 8.98709 1.48999C7.8934 1.48999 7.06469 1.71998 6.36473 1.96247C5.31728 2.3262 4.72231 2.72368 4.32234 3.05866C3.84236 3.46239 2.89241 4.29609 2.23745 5.78976C1.98121 6.37223 1.69872 7.18844 1.61373 7.9184C1.31249 10.5195 1.78497 12.7132 3.28989 14.2606C4.79481 15.808 5.35353 15.593 5.35353 15.593L8.7946 16.0455Z" fill="#F47A00"/>
<path d="M4.90973 14.103C4.90973 14.103 4.6735 14.103 4.39351 13.9743C4.11353 13.8456 3.08233 12.4044 2.88859 11.8457C2.69485 11.2869 2.25363 9.31955 2.45861 8.3846C2.57611 7.85088 2.7161 7.4384 2.7161 7.4384C2.7161 7.4384 3.23607 6.03597 3.30107 5.58475C3.36607 5.13352 3.94229 4.6223 4.22102 4.29981C4.49976 3.97733 4.6935 3.65485 5.20972 3.35361C5.72594 3.05238 6.26341 3.05238 6.60715 2.88114C6.95088 2.70865 7.46085 2.39741 7.96207 2.25742C8.91327 1.99119 9.48824 2.27867 10.0045 2.25742C10.5207 2.23617 11.0094 2.39866 11.6431 2.73865C12.0944 2.98113 12.4431 3.25987 12.8506 3.58235C13.258 3.90483 13.8243 4.09857 14.2392 4.62105C14.6367 5.12102 14.7117 5.69599 14.9492 6.34096C15.1854 6.98592 15.4454 7.3259 15.4892 7.75588C15.5317 8.18586 15.4942 8.52334 15.5154 9.01707C15.5367 9.51079 15.6467 9.88077 15.6217 10.1683C15.5692 10.7882 15.3317 10.9245 15.2679 11.3544C15.2029 11.7844 14.928 12.2869 14.7892 12.5606C14.4142 13.3018 13.7255 13.7031 13.4355 13.8956C12.9318 14.2343 4.90973 14.103 4.90973 14.103Z" fill="#FFA726"/>
<path d="M3.13976 8.74452C2.69603 8.68577 2.29105 9.13949 2.3198 9.67322C2.3498 10.2069 2.70478 10.3844 3.08976 10.2857C3.57724 10.1607 3.75098 9.71321 3.74098 9.38698C3.73098 9.06075 3.58224 8.80326 3.13976 8.74452Z" fill="#F27B00"/>
<path d="M5.95848 5.41845C5.56975 5.10347 5.71225 4.67474 5.92224 4.40225C6.13222 4.12977 6.71094 4.00353 6.95218 4.4235C7.19342 4.84348 7.01343 5.13597 6.82219 5.33596C6.6347 5.53344 6.21722 5.62844 5.95848 5.41845Z" fill="#F27B00"/>
<path d="M7.60341 4.27854C7.7709 4.61477 8.24462 4.67352 8.56086 4.49603C8.87709 4.31854 8.98583 3.97231 8.79834 3.65732C8.61335 3.34609 8.13713 3.2036 7.7909 3.47983C7.44592 3.75482 7.50466 4.08105 7.60341 4.27854Z" fill="#F27B00"/>
<path d="M9.54186 5.50722C9.69561 5.8622 10.1331 5.9197 10.4718 5.75096C10.8105 5.58222 11.0493 5.13099 10.8468 4.78226C10.6431 4.43478 10.1868 4.40353 9.8831 4.61352C9.57936 4.82351 9.37062 5.11224 9.54186 5.50722Z" fill="#F27B00"/>
<path d="M11.397 4.59352C11.6807 4.82101 12.1757 4.68977 12.3569 4.35478C12.4956 4.09855 12.5719 3.80356 12.2857 3.51733C11.9994 3.23109 11.5319 3.35859 11.317 3.66107C11.1482 3.90106 11.1007 4.35728 11.397 4.59352Z" fill="#F27B00"/>
<path d="M4.47722 6.2734C4.26473 6.2884 4.29598 6.72463 4.28598 7.3471C4.27598 7.94207 4.15849 9.19075 4.22474 10.5307C4.25223 11.0944 4.19349 12.6843 4.24723 13.483C4.30223 14.283 4.26973 15.1767 4.26973 15.1767C4.26973 15.1767 5.55092 16.5041 8.99448 16.5541C12.6218 16.6066 14.1017 14.8717 14.1017 14.8717C14.1017 14.8717 14.0617 12.6831 14.0655 11.8219C14.0705 10.5482 13.9917 8.12581 13.9917 7.73458C13.9917 7.34335 14.0242 6.4209 13.883 6.2959C13.7417 6.17091 12.738 6.22716 11.8231 6.24966C11.0044 6.26965 8.14828 6.27715 7.09833 6.27715C6.04839 6.27715 4.91595 6.24216 4.47722 6.2734Z" fill="#3C3C3C"/>
<path d="M4.96974 7.12343C4.83599 7.20467 4.81349 8.28212 4.84474 9.28581C4.87599 10.2895 4.87599 11.2445 5.20472 11.307C5.53346 11.3695 5.86219 10.6332 6.20717 10.3508C6.55215 10.0683 6.95963 9.84953 7.22587 9.4583C7.4921 9.06707 7.78959 8.43961 7.93083 8.12712C8.07207 7.81339 8.5108 7.39091 8.4633 7.13968C8.4158 6.88844 6.88088 6.98343 6.41091 6.98343C5.94093 6.98343 5.25222 6.95219 4.96974 7.12343Z" fill="#858585"/>
<path d="M9.34083 6.96717C9.14209 7.10841 8.93335 7.65588 8.79211 7.90712C8.65087 8.15836 8.25964 8.70583 8.55712 8.89457C8.85461 9.08206 9.44957 8.64333 9.63831 8.51834C9.8258 8.39335 10.077 8.33085 10.1708 8.2521C10.2645 8.17336 10.7345 7.48464 10.8445 7.37465C10.9545 7.26466 11.1895 7.13966 11.1895 7.01467C11.1895 6.88967 10.6095 6.88968 10.0933 6.90467C9.57707 6.91967 9.45082 6.88843 9.34083 6.96717Z" fill="#858585"/>
<path d="M7.53947 10.147C7.39448 10.3445 7.14824 10.7733 7.42948 10.977C7.71196 11.1807 8.02445 10.9607 8.24444 10.7258C8.46442 10.4908 8.57317 10.177 8.30693 9.8958C8.0407 9.61456 7.71071 9.91205 7.53947 10.147Z" fill="#858585"/>
<path d="M6.5997 11.2757C6.44346 11.2632 6.11347 11.762 5.81599 11.887C5.51851 12.012 5.06353 11.9345 4.98603 12.2157C4.90729 12.4982 4.7348 13.6881 4.98603 13.8294C5.23727 13.9706 5.92598 13.7356 6.08223 13.6419C6.23847 13.5481 6.22347 13.3281 6.53595 13.1244C6.84969 12.9207 6.89593 12.3882 6.91218 12.012C6.92843 11.6357 6.80219 11.2907 6.5997 11.2757Z" fill="#858585"/>
</svg>
