<svg width="18" height="18" viewBox="0 0 18 18" fill="none" xmlns="http://www.w3.org/2000/svg">
<path d="M13.2395 13.9305C13.2395 13.9305 13.2283 15.2642 13.2283 15.5292C13.2283 15.7941 13.3783 15.9316 13.5508 15.9204C13.7232 15.9091 14.552 15.9204 14.7357 15.9204C14.9194 15.9204 15.1269 15.7479 15.1269 15.4954C15.1269 15.2429 15.1619 12.988 15.1619 12.988L13.2395 13.9305Z" fill="#4E433D"/>
<path d="M4.42997 13.1492L2.60132 12.8967C2.60132 12.8967 2.59007 15.2316 2.57882 15.4503C2.56757 15.6691 2.69381 15.8278 2.87756 15.8416C3.20004 15.8641 3.80876 15.8641 4.02749 15.8528C4.24623 15.8416 4.39497 15.6803 4.40747 15.4728C4.41997 15.2654 4.40747 14.0242 4.40747 14.0242L4.42997 13.1492Z" fill="#4E433D"/>
<path d="M14.0606 8.08963L15.2093 8.03838C15.2093 8.03838 15.638 8.71959 15.5843 11.0245C15.533 13.2131 14.9681 14.0681 14.4681 14.1893C13.9681 14.3105 12.0807 14.4968 9.09088 14.5143C6.10103 14.5318 3.8799 14.3605 3.45242 14.2581C3.02495 14.1556 2.56247 13.5231 2.51247 13.0619C2.43623 12.3544 2.43123 11.4032 2.46497 10.0533C2.49872 8.70334 2.79246 8.02588 2.79246 8.02588L14.0606 8.08963Z" fill="#474C4F"/>
<path d="M4.35115 11.8981C3.70369 11.7906 2.76374 11.3831 2.69249 11.6831C2.62125 11.9831 2.90748 12.3406 3.5937 12.5693C4.27991 12.7981 5.85233 12.9693 9.15465 12.8981C12.457 12.8268 13.5719 12.7406 14.2294 12.5556C14.8868 12.3693 15.6443 11.8694 15.4018 11.5831C15.1593 11.2969 14.5156 11.7119 13.9294 11.8256C13.3432 11.9394 11.1408 12.0006 9.11215 12.0406C6.91102 12.0831 5.03737 12.0118 4.35115 11.8981Z" fill="#858585"/>
<path d="M5.57114 10.0206C5.3574 9.96435 2.70504 9.9031 2.58879 10.0281C2.53755 10.0831 2.55005 10.8793 2.56004 11.0243C2.57004 11.1693 2.68129 11.2193 2.87378 11.2293C3.06752 11.2393 5.54239 11.258 5.70613 11.2393C5.86987 11.2205 5.90862 11.0555 5.87987 10.9105C5.85112 10.7643 5.75488 10.0693 5.57114 10.0206Z" fill="#FEA826"/>
<path d="M15.3544 9.89699C15.2331 9.82574 12.542 9.93324 12.4558 10.0107C12.3683 10.0882 11.902 11.0507 12.137 11.1419C12.3595 11.2294 15.2681 11.1832 15.3644 11.1344C15.5143 11.0594 15.4694 9.96449 15.3544 9.89699Z" fill="#FEA826"/>
<path d="M6.95345 11.4419C6.69221 11.4544 6.32473 11.3156 6.16974 10.9107C6.01475 10.5044 5.996 10.2632 6.0435 10.0507C6.09224 9.83822 6.23724 9.76072 6.57472 9.73198C6.91345 9.70323 7.57092 9.65448 8.98209 9.64448C10.3945 9.63448 11.3707 9.66323 11.622 9.69323C11.8732 9.72198 12.0182 9.80947 11.9794 10.0707C11.9407 10.3319 11.8057 10.8544 11.6994 11.1057C11.622 11.2894 11.3807 11.4244 11.0607 11.4344C10.7432 11.4419 7.15719 11.4319 6.95345 11.4419Z" fill="#2F2F2F"/>
<path d="M14.668 7.41965L15.0442 7.42965C15.0442 7.42965 15.0529 6.97717 15.1042 6.83718C15.1554 6.69719 15.2592 6.62219 15.4942 6.62219C15.7292 6.62219 16.1904 6.63969 16.3454 6.64719C16.5004 6.65469 16.8016 6.91968 16.8166 7.31716C16.8316 7.71464 16.5591 7.96462 16.2866 7.99462C16.0141 8.02462 14.9917 7.99462 14.9917 7.99462L14.668 7.41965Z" fill="#474C4F"/>
<path d="M3.45106 7.35714L3.03358 7.38339C3.03358 7.38339 3.04608 6.97466 3.01733 6.82717C2.98858 6.67968 2.81109 6.59219 2.6786 6.58469C2.54611 6.57719 1.92739 6.57719 1.75115 6.59968C1.57491 6.62218 1.27242 6.79842 1.27992 7.24715C1.28742 7.69588 1.57491 7.94586 1.81739 7.93961C2.05988 7.93336 2.64735 7.95211 2.82609 7.94711C3.05483 7.93961 3.5548 7.96211 3.5548 7.96211L3.45106 7.35714Z" fill="#474C4F"/>
<path d="M7.95972 3.09839L7.97847 3.68711H10.3571L10.3758 3.11714L7.95972 3.09839Z" fill="#474C4F"/>
<path d="M11.6233 3.07858C11.6233 3.22357 11.6233 3.84229 11.6233 3.84229L12.407 3.86104L12.3583 3.04858L11.6233 3.07858Z" fill="#474C4F"/>
<path d="M5.73486 3.83223C5.75361 3.71598 5.76361 2.89478 5.76361 2.89478L6.60482 3.01102L6.57607 3.76473L5.73486 3.83223Z" fill="#474C4F"/>
<path d="M2.7888 8.02582C2.81005 7.98582 3.06754 7.89458 3.22253 7.62209C3.33128 7.43085 3.64751 6.40341 4.06374 5.5822C4.47996 4.76099 4.65371 4.40226 4.76995 4.21852C4.88619 4.03478 5.05993 3.88979 5.35992 3.80229C5.6599 3.7148 6.70485 3.47856 9.21846 3.52731C11.7321 3.57606 12.3695 3.65105 12.6145 3.7298C12.812 3.79229 13.182 3.98603 13.4232 4.43101C13.6645 4.87599 14.6882 7.15962 14.7857 7.36211C14.8819 7.5646 15.2106 8.03582 15.2106 8.03582C15.2106 8.03582 14.3419 8.93952 12.3121 9.17451C10.4871 9.38575 7.83729 9.57449 5.10118 9.10202C2.9538 8.73453 2.76756 8.06582 2.7888 8.02582Z" fill="#E3E4DE"/>
<path d="M5.01991 4.55725C4.79743 4.77974 4.2962 5.87968 4.04747 6.51215C3.79873 7.14461 3.65249 7.66458 3.99122 7.67583C4.32995 7.68708 7.55103 7.64209 8.97596 7.63084C10.4009 7.61959 13.802 7.69833 14.0507 7.69833C14.2994 7.69833 14.4457 7.48334 14.3332 7.21211C14.2207 6.94087 13.3832 5.08722 13.192 4.78224C12.9995 4.47725 12.7283 4.37476 12.2533 4.35226C11.7783 4.32976 10.0034 4.22852 8.78347 4.22852C7.56353 4.22852 5.22365 4.35476 5.01991 4.55725Z" fill="#2D2E35"/>
<path d="M4.26346 7.15069C4.31221 7.22444 7.3708 7.0907 9.2132 7.12444C11.0556 7.15819 13.5192 7.21444 13.6442 7.20319C13.768 7.19194 13.7805 7.0107 13.768 6.95445C13.7567 6.89821 13.5417 6.45698 13.5417 6.45698C13.5417 6.45698 12.423 5.1908 12.3318 5.1908C12.2418 5.1908 9.07696 5.39454 9.07696 5.39454L5.51715 5.29329L4.44345 6.61822C4.44345 6.61822 4.24096 7.11694 4.26346 7.15069Z" fill="#96C8ED"/>
<path d="M4.4436 6.61844C4.4436 6.61844 4.94233 5.42475 5.14357 5.12227C5.22231 5.00478 5.27981 4.89603 5.55105 4.86228C5.82228 4.82853 7.22346 4.6248 9.09961 4.65854C10.9758 4.69229 12.0607 4.76729 12.2869 4.78229C12.5544 4.79979 12.7394 4.89478 12.8407 5.06477C12.9419 5.23476 13.6544 6.69219 13.6544 6.69219L12.5044 6.58719C12.5044 6.58719 12.4969 6.05722 12.4794 5.87473C12.4644 5.71724 12.3907 5.58724 12.1494 5.5735C11.9345 5.56225 11.4595 5.551 11.302 5.56225C11.1432 5.5735 11.0358 5.70474 11.0045 5.92973C10.9733 6.15596 10.9408 6.55969 10.9408 6.55969L7.3797 6.58094C7.3797 6.58094 7.3797 6.02347 7.3472 5.82223C7.32345 5.67724 7.23221 5.58224 7.04597 5.58349C6.82973 5.58474 6.41975 5.56225 6.12601 5.59599C5.98977 5.61224 5.88853 5.77723 5.87728 6.01472C5.86853 6.18596 5.85478 6.56844 5.85478 6.56844L4.4436 6.61844Z" fill="#AFE3FB"/>
<path d="M8.05607 1.98621H10.3285L10.7434 2.73117L10.3085 3.27239H8.05607L7.62109 2.59492L8.05607 1.98621Z" fill="#CECECF"/>
<path d="M10.3283 1.98621C10.3283 1.98621 12.2807 2.01495 12.4169 2.03495C12.5532 2.05495 12.6882 2.21869 12.7069 2.41243C12.7257 2.60617 12.6882 3.0799 12.6882 3.16614C12.6882 3.25239 12.5769 3.30489 12.3944 3.30489C12.2107 3.30489 10.3108 3.27239 10.3108 3.27239L10.3283 1.98621Z" fill="#DD0C26"/>
<path d="M5.42603 3.02115C5.42603 3.1474 5.43603 3.24364 5.56102 3.25364C5.68726 3.26364 8.05589 3.27239 8.05589 3.27239V1.98621C8.05589 1.98621 5.89975 1.98621 5.74476 1.98621C5.58977 1.98621 5.42603 2.16995 5.42603 2.31494C5.42603 2.51743 5.42603 3.02115 5.42603 3.02115Z" fill="#0F64C7"/>
</svg>
