<svg width="24" height="24" fill="none" xmlns="http://www.w3.org/2000/svg"><path d="M23.06 17.526c-1.281.668-7.916 3.396-9.328 4.132-1.413.736-2.198.73-3.314.196C9.303 21.32 2.242 18.468.97 17.86c-.636-.303-.97-.56-.97-.802v-2.426s9.192-2.001 10.676-2.534c1.484-.532 1.999-.551 3.262-.089 1.263.463 8.814 1.826 10.062 2.283v2.391c0 .24-.288.503-.94.843z" fill="#912626"/><path d="M23.06 15.114c-1.281.668-7.916 3.396-9.329 4.132-1.412.737-2.197.73-3.313.196C9.302 18.91 2.242 16.056.97 15.45c-1.272-.608-1.298-1.027-.049-1.516 1.25-.49 8.271-3.244 9.755-3.776 1.484-.533 1.999-.552 3.262-.09 1.263.463 7.858 3.088 9.106 3.546 1.248.457 1.296.834.015 1.501z" fill="#C6302B"/><path d="M23.06 13.6c-1.281.668-7.916 3.396-9.328 4.133-1.413.736-2.198.73-3.314.196S2.242 14.543.97 13.935c-.636-.304-.97-.56-.97-.802v-2.426s9.192-2.001 10.676-2.534c1.484-.532 1.999-.551 3.262-.089C15.2 8.547 22.752 9.91 24 10.366v2.392c0 .24-.288.503-.94.843z" fill="#912626"/><path d="M23.06 11.19c-1.281.667-7.916 3.395-9.329 4.131-1.412.737-2.197.73-3.313.196-1.116-.533-8.176-3.386-9.448-3.993-1.272-.608-1.298-1.027-.049-1.516 1.25-.49 8.271-3.244 9.755-3.776 1.484-.533 1.999-.552 3.262-.09 1.263.463 7.858 3.088 9.106 3.545 1.248.458 1.296.835.015 1.502z" fill="#C6302B"/><path d="M23.06 9.53c-1.281.668-7.916 3.396-9.328 4.132-1.413.737-2.198.73-3.314.196-1.116-.533-8.176-3.386-9.448-3.993C.334 9.56 0 9.305 0 9.062V6.636s9.192-2 10.676-2.533c1.484-.533 1.999-.552 3.262-.09C15.2 4.477 22.752 5.84 24 6.297v2.392c0 .24-.288.502-.94.842z" fill="#912626"/><path d="M23.06 7.118c-1.281.668-7.916 3.396-9.329 4.132-1.412.737-2.197.73-3.313.196C9.303 10.913 2.242 8.061.97 7.453-.302 6.845-.328 6.427.921 5.937c1.25-.489 8.271-3.244 9.755-3.776 1.484-.532 1.999-.552 3.262-.089 1.263.463 7.858 3.088 9.106 3.545 1.248.457 1.296.834.015 1.501z" fill="#C6302B"/><path d="M14.933 4.758l-2.064.215-.462 1.111-.746-1.24L9.28 4.63l1.778-.641-.534-.985 1.665.651 1.569-.513-.424 1.017 1.6.6zm-2.649 5.393l-3.85-1.597 5.517-.847-1.667 2.444zM6.945 5.376c1.63 0 2.95.512 2.95 1.143 0 .632-1.32 1.144-2.95 1.144-1.629 0-2.95-.512-2.95-1.144 0-.63 1.321-1.143 2.95-1.143z" fill="#fff"/><path d="M17.371 5.062l3.266 1.29-3.263 1.29-.003-2.58z" fill="#621B1C"/><path d="M13.758 6.492l3.613-1.43.003 2.58-.354.139-3.262-1.29z" fill="#9A2928"/></svg>