<svg width="18" height="18" viewBox="0 0 18 18" fill="none" xmlns="http://www.w3.org/2000/svg">
<path d="M15.7991 15.0355C15.7317 14.6755 15.4717 12.6843 15.4717 12.6843H2.52735C2.52735 12.6843 2.26736 14.6755 2.19987 15.0355C2.13237 15.3954 2.90358 16.4991 8.99951 16.4991C15.0954 16.4991 15.8666 15.3954 15.7991 15.0355Z" fill="#82AEC0"/>
<path d="M2.52368 12.7445C2.52368 12.0107 5.42353 11.4158 8.99959 11.4158C12.5757 11.4158 15.4755 12.0107 15.4755 12.7445C15.4755 13.4782 12.5757 14.1944 8.99959 14.1944C5.42353 14.1944 2.52368 13.4782 2.52368 12.7445Z" fill="#E0E0E0"/>
<path d="M13.2217 3.03992C12.8667 1.90873 11.6843 1.5 8.99816 1.5C6.31205 1.5 5.13087 1.90873 4.77589 3.03992C4.06092 5.31855 3.41846 12.5032 3.41846 12.5032C3.41846 12.5032 3.97718 13.4394 8.99941 13.4394C14.0216 13.4394 14.5816 12.5044 14.5816 12.5044C14.5816 12.5044 13.9367 5.31855 13.2217 3.03992Z" fill="#F44336"/>
<path opacity="0.9" d="M3.41724 12.517C3.41724 11.9421 5.91585 11.4758 8.99944 11.4758C12.083 11.4758 14.5816 11.9421 14.5816 12.517C14.5816 13.092 12.083 13.6532 8.99944 13.6532C5.91585 13.6532 3.41724 13.092 3.41724 12.517Z" fill="#C62828"/>
<path d="M10.0731 5.46596L12.8017 2.64986C12.8542 2.60361 12.9317 2.66236 12.9017 2.72486L10.8718 5.98218C10.7206 6.29717 10.8543 6.50091 11.2043 6.49216L13.7854 6.46591C13.8554 6.46466 13.8767 6.55965 13.8129 6.5884L11.4581 7.49585C11.1393 7.6396 11.0718 7.98083 11.3443 8.19832L14.2804 10.3157C14.3354 10.3595 14.2904 10.4457 14.2229 10.427L10.8818 9.04327C10.5456 8.94828 10.3919 9.13452 10.4606 9.477L11.5381 13.0881C11.5518 13.1568 11.4618 13.1943 11.4231 13.1368L9.58441 9.88073C9.38817 9.59199 9.15068 9.537 8.98444 9.84323L7.22079 13.1781C7.18704 13.2393 7.09454 13.2106 7.10079 13.1406L8.01199 9.542C8.04699 9.19452 7.887 9.12202 7.56202 9.24951L3.78097 11.1882C3.71597 11.2132 3.66347 11.1319 3.71347 11.0832L6.8858 8.44955C7.13579 8.20582 7.12454 7.93958 6.79331 7.82834L4.14595 6.92588C4.0797 6.90339 4.0922 6.80714 4.16095 6.80214L6.76581 6.85214C7.11454 6.82589 7.29078 6.47841 7.10829 6.18092L5.01465 3.16233C4.9784 3.10234 5.04965 3.03609 5.1059 3.07734L7.89825 5.50221C8.18199 5.70595 8.43072 5.6872 8.48197 5.34222L8.9357 2.09239C8.9457 2.02364 9.04319 2.01864 9.06069 2.08614L9.45567 5.25847C9.54316 5.5972 9.81065 5.6972 10.0731 5.46596Z" fill="url(#paint0_radial_716_535)"/>
<path d="M9.23063 5.25724L10.4006 3.1461C10.4356 3.08611 10.5281 3.11735 10.5193 3.1861L10.1543 5.49223C10.1118 5.83846 10.3043 5.9897 10.6318 5.86971L12.9229 5.09975C12.9879 5.076 13.0392 5.1585 12.9879 5.20599L11.193 6.73841C10.9368 6.9759 10.9818 7.32088 11.3105 7.43963L13.6004 8.21584C13.6654 8.23958 13.6516 8.33583 13.5816 8.33958L11.1418 8.38833C10.793 8.40583 10.7068 8.63206 10.8818 8.93455L12.1142 11.0394C12.1492 11.0994 12.0755 11.1644 12.0205 11.1219L10.1793 9.59701C9.90059 9.38702 9.65936 9.40952 9.59936 9.75325L9.16188 12.2456C9.14938 12.3144 9.05189 12.3169 9.03689 12.2494L8.58191 9.77825C8.50442 9.43827 8.32943 9.42077 8.06194 9.64451L6.12454 11.2732C6.0708 11.3182 5.99455 11.2569 6.02705 11.1957L7.16574 9.10329C7.32448 8.79206 7.22948 8.54457 6.8795 8.54457L4.42213 8.57582C4.35214 8.57582 4.33339 8.48082 4.39713 8.45332L6.54202 7.62712C6.86325 7.49087 6.9195 7.10589 6.65201 6.88091L4.85211 5.41473C4.79836 5.36974 4.84586 5.28474 4.91211 5.30474L7.18324 5.9847C7.51697 6.0872 7.74696 5.9897 7.68571 5.64597L7.21448 3.26985C7.20199 3.2011 7.29323 3.1661 7.33073 3.2236L8.58191 5.25599C8.77065 5.54973 9.05689 5.55973 9.23063 5.25724Z" fill="#FFD5CA"/>
<defs>
<radialGradient id="paint0_radial_716_535" cx="0" cy="0" r="1" gradientUnits="userSpaceOnUse" gradientTransform="translate(8.99962 7.62467) scale(5.44854)">
<stop offset="0.5718" stop-color="#FF6E40"/>
<stop offset="0.7682" stop-color="#FF7046" stop-opacity="0.5414"/>
<stop offset="1" stop-color="#FF7555" stop-opacity="0"/>
</radialGradient>
</defs>
</svg>
