<svg width="32" height="33" fill="none" xmlns="http://www.w3.org/2000/svg"><path d="M14.309 13.108l-6.704-3.32s-.016-.317.284-.477c.302-.16 5.053-2.107 5.435-2.107.383 0 2.62.431 4.249.793 1.629.363 5.933 1.287 5.953 1.57.02.281-4.404 4.806-4.404 4.806l-4.813-1.265z" fill="#C3FECE"/><path d="M20.423 11.037s-2.811-.826-5.546-1.469c-1.274-.3-5.016-1.084-5.016-1.084s.398-.173.698-.3c.305-.127.547-.193.547-.193s2.44.486 4.253.873c2.453.522 5.886 1.547 5.966 1.709.082.16-.902.464-.902.464z" fill="#fff"/><path d="M14.98 10.26c-.598.415-.011.666 1.09.924 1.207.282 2.127.698 2.903.247.7-.405-1.014-.845-1.8-1.014-.6-.129-1.731-.478-2.193-.158z" fill="#ACB1B2"/><path d="M17.17 11.095c-.005 0 .02-4.869.02-5.049 0-.18-.203-.342.02-.724.222-.382.804-.342.804-.342s2.416-.702 3.38-.945c.964-.242 3.098-.804 3.098-.804l.142 1.22s-2.236.631-3.342.913c-1.107.282-2.616.745-2.616.745l-.222.202.064 4.757s-.206.231-.668.231c-.45-.002-.68-.204-.68-.204z" fill="#FFD816"/><path d="M24.095 3.855c.018.38.22.616.46.616.24 0 .404-.307.369-.707-.038-.398-.296-.58-.516-.506-.22.073-.327.32-.313.597zM18.46 6.422a.209.209 0 01-.123-.038l-1.153-.769a.225.225 0 01-.063-.309.222.222 0 01.31-.062l1.153.769a.224.224 0 01.062.309.228.228 0 01-.187.1z" fill="#FEB804"/><path d="M18.636 6.235a.225.225 0 01-.178-.089c-.295-.393-.633-.84-.693-.909a.225.225 0 01-.031-.284.222.222 0 01.309-.062c.04.027.062.042.771.986.073.098.007.238-.091.312-.04.03-.04.046-.087.046z" fill="#FEB804"/><path d="M18.365 6.609c-.01 0-.022 0-.035-.003l-1.111-.175a.221.221 0 11.069-.438l1.11.176c.12.02.225.042.205.164-.016.107-.129.276-.238.276z" fill="#FEB804"/><path d="M7.596 9.764c.353 0 3.188.744 4.65 1.013 1.463.27 5.878 1.314 6.027 1.342.149.03.12 1.94.12 1.94s2.089 10.8 2.029 11.309c-.06.506-1.431 4.415-1.431 4.415s-.807.12-2.865-.478c-2.057-.598-7.488-2.089-7.817-2.506-.329-.418-.12-5.938-.298-9.338-.182-3.402-.415-7.697-.415-7.697z" fill="#79DD8A"/><path d="M24.06 27.036c.113-.375-.518-4.402-.607-8.101-.089-3.698.229-9.324.076-9.369-.154-.042-5.256 2.553-5.256 2.553s-.022 3.671.04 7.133c.08 4.48.438 10.41.676 10.53.238.12 2.302-1.035 2.924-1.372 1.102-.598 2.058-1.074 2.147-1.374z" fill="#02AB46"/><path d="M20.408 13.82l.011-2.787.914-.45.026 3.056-.422.74-.529-.56z" fill="#DBDFE1"/><path d="M12.322 14.797c-1.973-.211-3.34 1.549-3.233 3.842.127 2.709 1.91 4.704 3.842 5.102 1.93.398 3.802-.44 3.842-3.402.044-3.087-2.669-5.353-4.451-5.542z" fill="#FEFEFD"/><path d="M13.637 17.27s-.4-1.344-1.602-.986c-1.202.357-1.853 2.973.187 4.15 1.96 1.131 3.764-.944 3.133-2.288-.574-1.227-1.718-.876-1.718-.876z" fill="#EF5B44"/><path d="M13.18 15.626c-.136.049-.243.602-.1 1.13.106.396.446.939.643.903.158-.029.278-.651.13-1.173-.174-.602-.516-.918-.674-.86z" fill="#B8CF17"/><path d="M13.15 18.746c-.564-.171-1.2 1.769-.057 2.977 1.26 1.331 2.73.158 2.69-.1-.057-.358-1.044-.615-1.53-1.215-.487-.605-.774-1.562-1.102-1.662z" fill="#FD8F01"/><path d="M11.346 18.417s.113-.849-.673-.802c-.76.046-.574.944-.574.944s-.633.076-.526.778c.08.53.64.524.64.524s-.616.242-.336.945c.249.624.822.373.822.373s-.21.609.287.93c.42.272.787.043.787.043s-.023.52.557.616c.703.115 1.007-.74.507-1.136-.38-.3-.724-.067-.724-.067s.07-.166.004-.357c-.045-.125-.116-.171-.116-.171s.616-.058.516-.758c-.1-.702-.716-.616-.716-.616s.358-.286.216-.802c-.14-.518-.671-.444-.671-.444z" fill="#A281D0"/><path d="M21.04 14.595c-.511 0-2.691-2.167-2.711-2.189a.222.222 0 01.024-.313.224.224 0 01.314.022c.14.155 1.806 1.702 2.286 2 .311-.465 1.322-2.498 2.191-4.333a.224.224 0 01.296-.107.223.223 0 01.106.296c-2.142 4.526-2.353 4.586-2.466 4.617-.013.007-.027.007-.04.007z" fill="#2D802D"/></svg>