<svg width="14" height="14" fill="none" xmlns="http://www.w3.org/2000/svg"><path d="M1.305 13.063c.74.739 1.637.482 2.156-.109.53-.604.813-.956.813-.956.66-.973 3.392-4.227 5.724-6.568a2.638 2.638 0 002.74-.434 2.648 2.648 0 00.922-2.041.155.155 0 00-.23-.132l-1.607.927a1.64 1.64 0 01-1.076-1.864l1.6-.923a.153.153 0 00.077-.134.153.153 0 00-.077-.133 2.65 2.65 0 00-3.66 3.563C6.11 6.826 2.966 9.604 2.15 10.223c0 0-.492.356-.962.84-.464.476-.636 1.245.117 1.999zm.542-1.137a.592.592 0 111.184 0 .592.592 0 01-1.184 0z" fill="#82AEC0"/><path d="M8.334 4.61l.353-.35a2.63 2.63 0 01-.212-2.039c.073-.12.189-.249.262-.171-.03.946.245 1.931.902 2.611.327.338.752.582 1.207.696.224.057.458.082.69.069.137-.008.519-.149.596-.044v.004a2.656 2.656 0 01-2.135.043 38.176 38.176 0 00-1.903 2.05c.262-.495 1.034-1.408 1.241-1.757a.412.412 0 00-.036-.464c-.207-.255-.633-.493-.965-.649z" fill="#2F7889"/><path d="M5.186 8.529c.06-.062.004-.167-.08-.148-.158.035-.386.125-.657.345-.531.43-1.934 1.595-2.107 1.825-.173.23.522-.003.767-.047.2-.036 1.602-1.48 2.077-1.975zM10.048 1.104c-.296.212-.563.465-.84.701-.072.061-.177.122-.25.065-.08-.064-.03-.191.03-.274C9.512.874 10.493.358 11.442.563c-.5.161-.95.223-1.395.541z" fill="#B9E4EA"/><path d="M12.408 3.583a2.1 2.1 0 01-.371.19c-.112.031-.43-.092-.522-.166l1.183-.772c.043-.028.087-.056.137-.072a.546.546 0 01.185-.014c.087.004.51-.01.56.064.05.075-.126.149-.183.183-.33.197-.66.391-.99.587zM7.867 7.687L6.624 6.254c-.45.423-.895.835-1.321 1.225l.362-.078a.482.482 0 01.439.13l.58.65c.122.122.142.334.096.5l-.065.308c.367-.423.755-.862 1.152-1.302z" fill="#2F7889"/><g><path d="M13.378 12.86l-.744.643a.686.686 0 01-.968-.072L2.84 2.779l1.135-.853 9.459 9.976a.668.668 0 01-.057.957z" fill="#A06841"/><path d="M3.648 3.752l2.1 2.535c.328-.493.494-1.084.629-1.83l-2.028-2.14a1.838 1.838 0 00-.414.48 2.17 2.17 0 00-.287.955z" fill="#7D5133"/><path d="M7.81.438C5.885.416 5.17.588 4.098 1.515l-.966.835c-.35.302-.815.566-.742 1.089.027.19.086.384.05.573-.034.179-.242.268-.39.166-.139-.096-.292-.214-.463-.234a.588.588 0 00-.45.14l-.747.664s-.107.434.729 1.38c.835.946 1.373.878 1.373.878l.702-.618a.53.53 0 00.176-.412c-.003-.184-.11-.326-.174-.49-.013-.031-.083-.143.04-.244.109-.094.333-.062.46-.027.129.034.25.088.38.122.25.065.369-.051.543-.201L6.013 3.93c.619-.536-.325-1.474-.325-1.474C5.244 1.953 7.941.687 7.941.687c.198-.069.138-.246-.13-.249z" fill="#82AEC0"/><path d="M4.076 5.338a.504.504 0 00.14.016v-.02c-.011-.12-.077-.23-.144-.33A7.18 7.18 0 002.545 3.33a1.683 1.683 0 00-.154-.111.726.726 0 00-.002.22c.027.19.086.384.05.573-.038.196-.242.25-.399.177a3.27 3.27 0 011.011 1.027c.035.056.07.115.11.168a.2.2 0 01.075-.14c.109-.095.333-.063.46-.029.13.034.25.088.38.123zM1.778 5.573c.585.613.914 1.247.734 1.42-.179.17-.799-.186-1.384-.797C.542 5.584.21 4.92.388 4.748c.18-.171.804.213 1.39.825z" fill="#2F7889"/><path d="M4.057 2.41c.465-.198.88-.623 1.422-1.09A2.53 2.53 0 016.03.964c.076-.035.048-.149-.036-.148-.278.005-.527.09-.772.196-.342.149-.644.374-.935.608-.2.16-.67.555-.965.805-.055.047-.012.12.06.12.208.002.325.014.674-.135zM1.124 4.352c-.196.221.055.281.496.646.311.257.642.018.645-.223.003-.216-.052-.333-.366-.53-.315-.199-.597-.093-.775.107z" fill="#B9E4EA"/></g></svg>