<svg width="33" height="32" viewBox="0 0 33 32" fill="none" xmlns="http://www.w3.org/2000/svg">
<path d="M8.25049 15.7774L9.51287 11.3613L20.0986 23.8473L16.6515 24.1807L8.25049 15.7774Z" fill="#BF8400"/>
<path d="M3.16675 3.07961V29.3362H29.4234C29.5767 29.3362 29.6523 29.1518 29.5434 29.0429L3.46012 2.95959C3.35122 2.85069 3.16675 2.92625 3.16675 3.07961ZM8.63854 15.1345L17.833 24.18H8.63854V15.1345Z" fill="#EAA700"/>
<path d="M8.24961 24.4043L3.16675 29.3352H29.4234C29.5767 29.3352 29.6523 29.1507 29.5434 29.0418L28.3655 27.8641L8.24961 24.4043Z" fill="#BF8400"/>
<path d="M3.85938 3.73486V28.4846C3.85938 28.5713 3.92827 28.6402 4.01495 28.6402H28.7647C28.9025 28.6402 28.9736 28.4713 28.8758 28.3735L4.12607 3.62596C4.02828 3.52817 3.85938 3.59707 3.85938 3.73486ZM8.69776 15.403L17.0988 23.8041H8.69776V15.403Z" fill="url(#paint0_linear_2445_43701)"/>
<path d="M4.51082 6.18231C4.39971 6.29342 4.39971 6.47563 4.51082 6.58674L4.73525 6.81117C4.84636 6.92227 5.02857 6.92227 5.13967 6.81117L6.22628 5.72456L5.59743 5.0957L4.51082 6.18231Z" fill="#795548"/>
<path d="M5.59763 5.09766L5.07544 5.61985L5.70207 6.24649L6.22427 5.72429L5.59763 5.09766Z" fill="url(#paint1_linear_2445_43701)"/>
<path d="M8.68929 10.361C8.57818 10.4721 8.57818 10.6543 8.68929 10.7654L8.91372 10.9899C9.02482 11.101 9.20704 11.101 9.31814 10.9899L10.4048 9.90327L9.7759 9.27441L8.68929 10.361Z" fill="#795548"/>
<path d="M9.77561 9.27441L9.25342 9.79661L9.88005 10.4255L10.4022 9.90327L9.77561 9.27441Z" fill="url(#paint2_linear_2445_43701)"/>
<path d="M12.8668 14.5378C12.7557 14.6489 12.7557 14.8311 12.8668 14.9422L13.0912 15.1666C13.2023 15.2777 13.3845 15.2777 13.4956 15.1666L14.5822 14.08L13.9534 13.4512L12.8668 14.5378Z" fill="#795548"/>
<path d="M13.9529 13.4512L13.4285 13.9734L14.0573 14.6022L14.5795 14.08L13.9529 13.4512Z" fill="url(#paint3_linear_2445_43701)"/>
<path d="M17.0457 18.7175C16.9346 18.8286 16.9346 19.0108 17.0457 19.1219L17.2702 19.3463C17.3813 19.4574 17.5635 19.4574 17.6746 19.3463L18.7612 18.2597L18.1323 17.6309L17.0457 18.7175Z" fill="#795548"/>
<path d="M18.1296 17.6309L17.6074 18.1531L18.2363 18.7819L18.7585 18.2597L18.1296 17.6309Z" fill="url(#paint4_linear_2445_43701)"/>
<path d="M21.2244 22.8962C21.1133 23.0073 21.1133 23.1895 21.2244 23.3006L21.4489 23.525C21.56 23.6361 21.7422 23.6361 21.8533 23.525L22.9399 22.4384L22.3111 21.8096L21.2244 22.8962Z" fill="#795548"/>
<path d="M22.3083 21.8096L21.7861 22.3318L22.415 22.9606L22.9372 22.4384L22.3083 21.8096Z" fill="url(#paint5_linear_2445_43701)"/>
<path d="M25.4032 27.0739C25.292 27.185 25.292 27.3672 25.4032 27.4783L25.6276 27.7028C25.7387 27.8139 25.9209 27.8139 26.032 27.7028L27.1186 26.6162L26.4898 25.9873L25.4032 27.0739Z" fill="#795548"/>
<path d="M26.4875 25.9873L25.9653 26.5095L26.5942 27.1384L27.1164 26.6162L26.4875 25.9873Z" fill="url(#paint6_linear_2445_43701)"/>
<path d="M9.84236 13.2214C9.73126 13.3325 9.73126 13.5147 9.84236 13.6258L10.2312 14.0147C10.3423 14.1258 10.5245 14.1258 10.6357 14.0147L12.4644 12.1859L11.6712 11.3926L9.84236 13.2214Z" fill="#795548"/>
<path d="M11.7822 11.2812L11.2578 11.8034L12.0511 12.5967L12.5733 12.0745L11.7822 11.2812Z" fill="url(#paint7_linear_2445_43701)"/>
<path d="M14.0213 17.3991C13.9102 17.5102 13.9102 17.6924 14.0213 17.8035L14.4102 18.1924C14.5213 18.3035 14.7035 18.3035 14.8146 18.1924L16.6434 16.3636L15.8501 15.5703L14.0213 17.3991Z" fill="#795548"/>
<path d="M15.959 15.459L15.4368 15.9812L16.2301 16.7745L16.7523 16.2523L15.959 15.459Z" fill="url(#paint8_linear_2445_43701)"/>
<path d="M5.66536 9.04266C5.55425 9.15377 5.55425 9.33598 5.66536 9.44708L6.05423 9.83595C6.16533 9.94706 6.34755 9.94706 6.45865 9.83595L8.28744 8.00716L7.49415 7.21387L5.66536 9.04266Z" fill="#795548"/>
<path d="M7.6052 7.10254L7.08301 7.62473L7.87408 8.41803L8.39627 7.89583L7.6052 7.10254Z" fill="url(#paint9_linear_2445_43701)"/>
<path d="M18.1988 21.5778C18.0877 21.6889 18.0877 21.8711 18.1988 21.9822L18.5877 22.3711C18.6988 22.4822 18.881 22.4822 18.9921 22.3711L20.8209 20.5423L20.0276 19.749L18.1988 21.5778Z" fill="#795548"/>
<path d="M20.1367 19.6377L19.6145 20.1599L20.4078 20.9532L20.93 20.431L20.1367 19.6377Z" fill="url(#paint10_linear_2445_43701)"/>
<path d="M22.3778 25.7556C22.2667 25.8667 22.2667 26.0489 22.3778 26.16L22.7666 26.5488C22.8777 26.6599 23.0599 26.6599 23.1711 26.5488L24.9998 24.72L24.2066 23.9268L22.3778 25.7556Z" fill="#795548"/>
<path d="M24.3154 23.8154L23.7932 24.3376L24.5865 25.1309L25.1087 24.6087L24.3154 23.8154Z" fill="url(#paint11_linear_2445_43701)"/>
<defs>
<linearGradient id="paint0_linear_2445_43701" x1="9.0951" y1="23.4067" x2="20.3432" y2="12.1586" gradientUnits="userSpaceOnUse">
<stop offset="0.5456" stop-color="#FDD835"/>
<stop offset="0.7758" stop-color="#F9A825"/>
</linearGradient>
<linearGradient id="paint1_linear_2445_43701" x1="5.38405" y1="5.93783" x2="5.73014" y2="5.59174" gradientUnits="userSpaceOnUse">
<stop stop-color="#5D4037" stop-opacity="0"/>
<stop offset="1" stop-color="#5D4037"/>
</linearGradient>
<linearGradient id="paint2_linear_2445_43701" x1="9.56189" y1="10.1167" x2="9.90798" y2="9.77059" gradientUnits="userSpaceOnUse">
<stop stop-color="#5D4037" stop-opacity="0"/>
<stop offset="1" stop-color="#5D4037"/>
</linearGradient>
<linearGradient id="paint3_linear_2445_43701" x1="13.739" y1="14.2933" x2="14.0851" y2="13.9472" gradientUnits="userSpaceOnUse">
<stop stop-color="#5D4037" stop-opacity="0"/>
<stop offset="1" stop-color="#5D4037"/>
</linearGradient>
<linearGradient id="paint4_linear_2445_43701" x1="17.9178" y1="18.4728" x2="18.2639" y2="18.1268" gradientUnits="userSpaceOnUse">
<stop stop-color="#5D4037" stop-opacity="0"/>
<stop offset="1" stop-color="#5D4037"/>
</linearGradient>
<linearGradient id="paint5_linear_2445_43701" x1="22.0964" y1="22.6514" x2="22.4425" y2="22.3053" gradientUnits="userSpaceOnUse">
<stop stop-color="#5D4037" stop-opacity="0"/>
<stop offset="1" stop-color="#5D4037"/>
</linearGradient>
<linearGradient id="paint6_linear_2445_43701" x1="26.2755" y1="26.829" x2="26.6216" y2="26.4829" gradientUnits="userSpaceOnUse">
<stop stop-color="#5D4037" stop-opacity="0"/>
<stop offset="1" stop-color="#5D4037"/>
</linearGradient>
<linearGradient id="paint7_linear_2445_43701" x1="11.6945" y1="12.1617" x2="11.9778" y2="11.8783" gradientUnits="userSpaceOnUse">
<stop stop-color="#5D4037" stop-opacity="0"/>
<stop offset="1" stop-color="#5D4037"/>
</linearGradient>
<linearGradient id="paint8_linear_2445_43701" x1="15.8733" y1="16.3393" x2="16.1566" y2="16.0559" gradientUnits="userSpaceOnUse">
<stop stop-color="#5D4037" stop-opacity="0"/>
<stop offset="1" stop-color="#5D4037"/>
</linearGradient>
<linearGradient id="paint9_linear_2445_43701" x1="7.51756" y1="7.98312" x2="7.80095" y2="7.69973" gradientUnits="userSpaceOnUse">
<stop stop-color="#5D4037" stop-opacity="0"/>
<stop offset="1" stop-color="#5D4037"/>
</linearGradient>
<linearGradient id="paint10_linear_2445_43701" x1="20.0509" y1="20.5178" x2="20.3342" y2="20.2345" gradientUnits="userSpaceOnUse">
<stop stop-color="#5D4037" stop-opacity="0"/>
<stop offset="1" stop-color="#5D4037"/>
</linearGradient>
<linearGradient id="paint11_linear_2445_43701" x1="24.2294" y1="24.6955" x2="24.5128" y2="24.4121" gradientUnits="userSpaceOnUse">
<stop stop-color="#5D4037" stop-opacity="0"/>
<stop offset="1" stop-color="#5D4037"/>
</linearGradient>
</defs>
</svg>
