<svg xmlns="http://www.w3.org/2000/svg" width="128" height="128">
    <defs>
        <linearGradient id="a" x1="-863.701" y1="154.299" x2="-612.299" y2="405.701" gradientTransform="rotate(-90 -445 -165)" gradientUnits="userSpaceOnUse">
            <stop offset="0" stop-color="#c8511b"/>
            <stop offset="1" stop-color="#f90"/>
        </linearGradient>
    </defs>
    <path d="M0 0h128v128H0z" fill="url(#a)"/>
    <path d="M84.385 65.659a10.752 10.752 0 0 0 12.326 8.771 10.144 10.144 0 0 0 8.533-12.089c-1.185-5.689-6.4-9.719-12.088-8.771a10.567 10.567 0 0 0-8.771 8.771h-12.8a24.2 24.2 0 0 0-2.37-9.008L84.622 40.3A10.624 10.624 0 1 0 97.9 23.7a10.794 10.794 0 0 0-14.933 1.659A11.089 11.089 0 0 0 80.83 32a10.7 10.7 0 0 0 1.659 5.926L67.556 50.252a24.5 24.5 0 0 0-34.371-6.637 24.1 24.1 0 0 0-6.637 34.133C34.37 89.126 49.3 92.207 60.681 84.622a21.159 21.159 0 0 0 6.875-6.874l14.933 12.563A9.947 9.947 0 0 0 80.83 96a10.549 10.549 0 1 0 21.1 0 10.424 10.424 0 0 0-10.671-10.43 12.965 12.965 0 0 0-6.637 2.13L69.215 74.667a24.2 24.2 0 0 0 2.37-9.008zm10.667-8.77A7.131 7.131 0 0 1 102.163 64a7.111 7.111 0 0 1-14.222 0 6.845 6.845 0 0 1 7.111-7.111zM91.5 24.652A7.23 7.23 0 1 1 84.385 32a7.5 7.5 0 0 1 7.115-7.348zm0 64.237A7.131 7.131 0 0 1 98.607 96a7.679 7.679 0 0 1-7.111 7.348c-3.792.237-7.111-3.318-7.111-7.348a7.131 7.131 0 0 1 7.115-7.111zm-44.33-3.556A21.333 21.333 0 1 1 68.5 64a21.245 21.245 0 0 1-21.33 21.333z" fill="#fff"/>
</svg>