<svg version="1.1" id="Layer_1" xmlns:x="ns_extend;" xmlns:i="ns_ai;" xmlns:graph="ns_graphs;"
  xmlns="http://www.w3.org/2000/svg" xmlns:xlink="http://www.w3.org/1999/xlink" x="0px" y="0px"
  viewBox="0 0 50.6 50.6" style="enable-background:new 0 0 50.6 50.6;" xml:space="preserve">
 <style type="text/css">
  .st0{fill:#FFFFFF;}
 </style>
 <metadata>
  <sfw xmlns="ns_sfw;">
   <slices>
   </slices>
   <sliceSourceBounds bottomLeftOrigin="true" height="24" width="24" x="0" y="0">
   </sliceSourceBounds>
  </sfw>
 </metadata>
 <g>
  <g>
   <path class="st0" d="M0.6,0H5c0.3,0,0.6,0.3,0.6,0.6V50c0,0.3-0.3,0.6-0.6,0.6H0.6C0.3,50.6,0,50.4,0,50V0.6C0,0.3,0.3,0,0.6,0z">
   </path>
   <path class="st0" d="M11.8,0h4.4c0.3,0,0.6,0.3,0.6,0.6V50c0,0.3-0.3,0.6-0.6,0.6h-4.4c-0.3,0-0.6-0.3-0.6-0.6V0.6
			C11.3,0.3,11.5,0,11.8,0z">
   </path>
   <path class="st0" d="M23.1,0h4.4c0.3,0,0.6,0.3,0.6,0.6V50c0,0.3-0.3,0.6-0.6,0.6h-4.4c-0.3,0-0.6-0.3-0.6-0.6V0.6
			C22.5,0.3,22.8,0,23.1,0z">
   </path>
   <path class="st0" d="M34.3,0h4.4c0.3,0,0.6,0.3,0.6,0.6V50c0,0.3-0.3,0.6-0.6,0.6h-4.4c-0.3,0-0.6-0.3-0.6-0.6V0.6
			C33.7,0.3,34,0,34.3,0z">
   </path>
   <path class="st0" d="M45.6,19.7H50c0.3,0,0.6,0.3,0.6,0.6v10.1c0,0.3-0.3,0.6-0.6,0.6h-4.4c-0.3,0-0.6-0.3-0.6-0.6V20.3
			C45,20,45.3,19.7,45.6,19.7z">
   </path>
  </g>
 </g>
</svg>