<svg xmlns="http://www.w3.org/2000/svg" width="74" height="40" fill="none" viewBox="0 0 74 40"><g clip-path="url(#a)"><path fill="#fff" d="M33.35 26.886c.252-.152.556-.22.86-.22.236 0 .473.051.675.152.22.102.405.254.557.422l.557-.557c-.22-.27-.49-.472-.793-.607a2.7 2.7 0 0 0-1.165-.203 2.6 2.6 0 0 0-1.13.321 2.44 2.44 0 0 0-.895.911c-.22.405-.32.844-.32 1.3s.1.894.32 1.3c.203.37.506.692.878.91.388.22.827.338 1.265.322.355 0 .71-.068 1.047-.203.304-.135.59-.354.793-.608l-.557-.556a1.6 1.6 0 0 1-.557.438 1.65 1.65 0 0 1-.692.152 1.7 1.7 0 0 1-.86-.22 1.57 1.57 0 0 1-.591-.607c-.135-.27-.22-.59-.22-.894s.068-.608.22-.895q.228-.43.607-.658m-.861-5.705h2.362v2.11h.844v-4.928h-.844v2.025H32.49v-2.025h-.844v4.928h.844zm4.253 2.11h.844v-4.928h-.844zm4.455-4.709a2.17 2.17 0 0 0-1.03-.202H38.65v4.911h.844v-1.418h.675c.354 0 .709-.067 1.03-.202.286-.135.523-.338.675-.608.151-.287.236-.607.236-.928 0-.32-.085-.641-.236-.928a1.43 1.43 0 0 0-.676-.625m-.236 2.262c-.186.168-.472.253-.844.253h-.624v-1.958h.624c.372 0 .658.085.844.253.186.17.287.405.287.726s-.084.557-.287.726m8.54-2.464-2.278 4.911h.962l.506-1.13h2.532l.506 1.13h.979l-2.279-4.928h-.928zm-.49 3.055.946-2.144.945 2.143zm-8.573 4.759a2.6 2.6 0 0 0-1.283-.32 2.8 2.8 0 0 0-1.282.32c-.372.22-.692.523-.895.911-.22.405-.32.844-.32 1.3s.117.894.32 1.3c.203.37.523.692.895.91.388.22.827.322 1.282.322a2.8 2.8 0 0 0 1.283-.321 2.44 2.44 0 0 0 .894-.912c.22-.405.321-.843.321-1.299a2.9 2.9 0 0 0-.32-1.3 2.44 2.44 0 0 0-.895-.911m.135 3.089a1.7 1.7 0 0 1-.574.624c-.253.152-.54.22-.827.22a1.8 1.8 0 0 1-.827-.22 1.37 1.37 0 0 1-.574-.624 2 2 0 0 1-.22-.895c0-.32.068-.608.22-.894.135-.254.338-.473.574-.625.253-.152.54-.22.827-.22s.574.085.827.22c.253.152.456.355.574.625.135.27.22.573.22.894 0 .32-.085.624-.22.895m28.692-3.342v.776H70.8v4.152h.86v-4.152h1.536v-.776zm-1.367 3.325-2.549-3.325h-.709v4.928h.861v-3.325l2.549 3.325h.709v-4.928h-.861zm-21.3-3.325-1.434 2.616-1.469-2.616h-1.063v4.928h.911v-3.41l1.604 2.836 1.637-2.886v3.443h.911v-4.928h-1.097zm4.658.202a2.2 2.2 0 0 0-1.046-.202h-1.536v4.928h.86v-1.418h.676c.354 0 .726-.067 1.046-.202.287-.135.524-.338.692-.608.152-.287.237-.607.237-.928 0-.32-.085-.641-.237-.928a1.6 1.6 0 0 0-.692-.642m-.236 2.279q-.279.253-.86.253h-.642v-1.958h.641q.558 0 .861.253c.186.17.287.405.287.726.017.304-.084.557-.287.726m-5.418-6.262.507 1.131h.979l-2.279-4.928h-.928l-2.262 4.928h.962l.507-1.13zm-1.248-2.869.945 2.143h-1.89zm9.485 6.65h-.861v4.928h3.274v-.776H53.84zm3.122 4.911h.86v-4.928h-.86zm-34.6 5.553c.018 1.181.035 2.042.052 2.464a.3.3 0 0 1 0 .169v.118c0 .236.033.473.1.692.068-.22.102-.456.102-.692 0-.084.034-1.316.085-3.291-.017.017-.034.034-.034.05-.118.152-.22.321-.304.49m-3.51-24.641a4.5 4.5 0 0 0 .71-.98c-.136.304-.659 1.452-.153 1.553.557.102 1.182-.067 2.313-1.502-.034-1.84-.068-3.443-.085-4.658h-.692c-.337 0-.894-.034-1.266-.59-.405-.608-.422-1.233-.438-1.688-.017-.659-.186-1.857-1.013-2.532-.574-.456-2.127-.81-3.561-.236-.473.185-1.418.675-2.346 1.13-.844.422-1.924.946-2.262.946.557-.254 1.3-.625 2.11-1.08.928-.507 1.907-1.047 2.397-1.25.978-.388 2.852-.506 3.814.27.911.743 1.097 2.026 1.114 2.718.017.456.034 1.013.388 1.57.32.472.827.472 1.13.472h.608v-.439c-.54.034-1.316.068-1.654-.658C19.56 3.932 20 1.688 18.65.743s-3.51-.71-5.435.405c-1.907 1.097-4.439 2.531-7.56 3.78C2.53 6.178.59 6.683.217 6.734c-.354.068.287.304 1.62.338 1.334.033 2.448-.068 2.448-.068l9.789-4.456S5.636 6.751 4.927 7.207s-1.282.607-1.232 1.03c.05.421.591.37 2.076.337 1.485-.034 1.806-.17 2.312-.32.507-.153 5.992-2.684 5.992-2.684S8.202 8.49 7.358 9.164c-.844.676.067.895.641.912.59.017 2.16-.068 3.038-.506.878-.44 3.612-2.195 3.612-2.195s-2.7 1.941-3.224 2.38c-.422.355-.641.658-.54 1.03.152.472.962.422 2.042.034 0 0 1.114-.389 1.536-.76.422-.388 1.604-1.435 1.604-1.435s-1.401 1.452-1.756 2.076c-.337.625-.405.777-.236 1.131.236.506 2.025-.017 2.532-.557.371-.422.725-.86 1.046-1.333 0 0-.54.877-.658 1.384s-.253.911.236.962c.54.084 1.046.101 1.62-.523m3.342 11.493.152-.101c.101-.067.186-.118.253-.186.135-.084.27-.185.405-.27.017-.962.05-1.94.068-2.903a23 23 0 0 0-.861-.354c-.017 0-.034-.017-.05-.017-.034-.017-.051-.017-.085-.034-.203-.067-.388-.152-.608-.22-.253-.1-.506-.185-.76-.286-1.687.895-2.024 1.316-2.024 2.143 0 1.165.995 1.688 2.717 2.785.27-.202.54-.388.793-.557m-2.076-2.076s-.118-.742 1.79-1.603c.05-.017.1-.05.151-.068.017 1.165.034 2.33.068 3.494-.946-.641-2.009-1.249-2.009-1.823m2.886 14.33a4 4 0 0 1-.253.286c.49.659.456 1.3.186 2.127.253-.287.76-1.013.337-1.958-.084-.152-.168-.304-.27-.456m-.776-6.92.624.624.422.422c.017.017.05.034.085.067 1.147-.995 2.194-1.94 2.194-3.122 0-.928-.895-1.772-1.79-2.447-.084.05-.168.101-.252.169-.203.135-.389.253-.557.371 0 0-.017 0-.017.017-.034.034-.085.05-.118.084-.237.169-.456.32-.659.473.034 1.13.051 2.261.068 3.342m.726-3.73c1.114.81 1.552 1.333 1.552 1.907 0 .59-.624 1.282-1.637 2.295.017-1.35.05-2.75.085-4.202m6.16-16.22s1.181 1.047 1.603 1.435 1.536.76 1.536.76c1.08.387 1.89.438 2.042-.034.119-.372-.118-.692-.54-1.03-.523-.439-3.223-2.38-3.223-2.38s2.734 1.756 3.611 2.194c.878.44 2.448.524 3.038.507.591-.017 1.486-.237.642-.912s-6.718-3.595-6.718-3.595 5.469 2.549 5.992 2.684c.506.152.827.27 2.312.32 1.486.034 2.009.085 2.076-.337.068-.405-.523-.557-1.232-1.03-.709-.455-9.147-4.658-9.147-4.658l9.789 4.456s1.114.101 2.447.067c1.333-.033 1.974-.27 1.62-.337-.354-.068-2.312-.557-5.434-1.806s-5.654-2.667-7.562-3.78C30.058.066 27.881-.186 26.531.758c-1.35.946-.912 3.173-1.317 4.068-.337.726-1.114.692-1.654.658 0 .135 0 .287-.017.439h.625c.304 0 .81 0 1.13-.473.355-.54.372-1.114.389-1.57.017-.691.202-1.974 1.114-2.717.962-.776 2.835-.658 3.814-.27.49.186 1.468.726 2.397 1.25.81.455 1.553.826 2.11 1.08-.355 0-1.418-.524-2.262-.946-.912-.472-1.857-.945-2.346-1.13-1.435-.574-2.988-.22-3.561.236-.844.675-.996 1.873-1.013 2.532-.017.455-.034 1.097-.439 1.687-.354.557-.911.591-1.266.591h-.692a536 536 0 0 0-.1 4.608c1.147 1.468 1.805 1.654 2.345 1.535.506-.1 0-1.248-.152-1.552.203.354.439.675.709.979.557.624 1.08.607 1.587.54.506-.068.354-.456.236-.962-.118-.507-.658-1.384-.658-1.384.32.455.675.911 1.046 1.333.506.54 2.295 1.08 2.532.557.152-.338.1-.506-.237-1.13-.32-.625-1.738-2.077-1.738-2.077m-6.498-5.164c.27 0 .54-.085.76-.237s.405-.37.506-.607c.101-.253.135-.523.084-.793a1.44 1.44 0 0 0-.371-.71 1.37 1.37 0 0 0-.709-.37c-.27-.051-.54-.034-.793.084a1.3 1.3 0 0 0-.608.506c-.152.22-.236.49-.236.76 0 .185.034.354.101.523.068.169.169.32.304.439a1.28 1.28 0 0 0 .962.405m4.49 10.261s-.034-.945-1.57-1.046c-1.57-.101-1.637.574-1.604.827.119 0 .22.034.22.067 0 .034-.084.068-.186.068.085.253.321.557.996.894.557.27.827.254 1.148.203 0 0 .371.22.371.574 0 .337-.59.996-3.359 2.38l.321-14.009h.169a.27.27 0 0 0 .186-.084.27.27 0 0 0 .084-.186v-.084c0-.034 0-.068-.017-.102s-.034-.067-.067-.084c-.152.169-.321.304-.524.405a1.4 1.4 0 0 1-.641.135c-.22 0-.439-.05-.641-.135a1.4 1.4 0 0 1-.524-.405.3.3 0 0 0-.067.084c-.017.034-.017.068-.017.102v.084c0 .068.034.135.084.186s.119.084.186.084h.169s.118 6.363.236 13.688l.743.371c.034.017.084.034.118.05.624.305 1.148.558 1.586.794 1.486-.574 2.937-1.232 3.376-2.16.776-1.722-.776-2.7-.776-2.7m-2.06-.388c-.168 0-.303-.084-.303-.186 0-.1.135-.185.303-.185.17 0 .304.084.304.185 0 .102-.135.186-.303.186m-2.683 21.367c.135-.169.253-.337.388-.49.017-.961.05-2.041.068-3.206-.17-.169-.355-.338-.557-.523-.068-.05-.119-.118-.186-.169-.084-.084-.169-.152-.253-.22-.473.44-1.401 1.418-1.401 2.262 0 .996.962 2.009 1.688 2.734.067-.151.152-.27.253-.388M22.26 30.7c.033 1.435.05 2.751.067 3.882-.557-.742-1.148-1.502-1.148-2.025 0-.49.287-1.047 1.08-1.857m.388-12.725c-3.291-1.587-3.966-2.313-3.966-2.667s.37-.574.37-.574c.322.068.592.068 1.149-.203.675-.32.911-.64.995-.894-.1 0-.185-.034-.185-.068 0-.033.101-.067.22-.067v-.017c.016-.253-.068-.911-1.621-.81-1.536.101-1.57 1.046-1.57 1.046s-1.553.996-.742 2.684c.709 1.502 4.033 2.295 5.957 3.156 1.908.86 1.79 1.603 1.79 1.603 0 .642-1.283 1.317-2.296 2.026s-3.156 1.94-3.156 3.392c0 1.334 1.333 2.363 2.633 3.51 1.316 1.148 1.738 1.84 1.738 2.482 0 .877-1.451 2.059-2.194 3.527s.726 3.747.27 2.549c-.472-1.199-.22-2.042.388-2.886.743-1.03 2.33-2.043 2.33-3.41 0-1.147-1.671-2.498-1.671-2.498-1.486-1.485-2.43-2.329-2.43-3.071 0-.743.708-1.401 2.7-2.7 1.974-1.283 3.139-1.79 3.139-3.039 0-1.097-.557-1.485-3.848-3.071m-2.532-4.98c.169 0 .304.085.304.186 0 .102-.135.186-.304.186s-.304-.084-.304-.186c0-.1.135-.185.304-.185M60.76 25.942l-2.279 4.928h.962l.506-1.13h2.532l.506 1.13h.98l-2.28-4.928zm-.49 3.072.945-2.144.945 2.143z"/></g><defs><clipPath id="a"><path fill="#fff" d="M0 0h73.249v40H0z"/></clipPath></defs></svg>