<svg xmlns="http://www.w3.org/2000/svg" width="48" height="47" fill="none" viewBox="0 0 48 47"><g clip-path="url(#a)"><path fill="#fff" d="M23.91.706c3.098 0 6.111.589 8.945 1.757a23 23 0 0 1 7.302 4.791 22.3 22.3 0 0 1 4.92 7.109 21.7 21.7 0 0 1 1.805 8.708c0 2.354-.368 4.653-1.105 6.87l-4.666-2.364c.406-1.462.604-2.98.604-4.506 0-2.345-.472-4.616-1.398-6.75a17.3 17.3 0 0 0-3.816-5.508 17.8 17.8 0 0 0-5.658-3.715 18.1 18.1 0 0 0-6.933-1.361c-2.41 0-4.742.46-6.934 1.36a17.8 17.8 0 0 0-5.658 3.716 17.3 17.3 0 0 0-3.816 5.508 16.9 16.9 0 0 0-1.398 6.75c0 1.536.208 3.053.605 4.516L2.042 29.95a21.7 21.7 0 0 1-1.105-6.879c0-3.016.605-5.95 1.804-8.708a22.3 22.3 0 0 1 4.922-7.109 22.9 22.9 0 0 1 7.301-4.791A23.4 23.4 0 0 1 23.91.706m0-.625C10.865.081.295 10.371.295 23.071c0 2.722.491 5.334 1.379 7.762l5.79-2.924a16.3 16.3 0 0 1-.727-4.828c0-2.263.453-4.451 1.35-6.502a16.8 16.8 0 0 1 3.685-5.315 17.3 17.3 0 0 1 5.46-3.587 17.4 17.4 0 0 1 6.678-1.315c2.314 0 4.571.441 6.678 1.315 2.04.846 3.882 2.05 5.46 3.587a16.8 16.8 0 0 1 3.683 5.315 16.2 16.2 0 0 1 1.351 6.502c0 1.655-.245 3.273-.727 4.828l5.79 2.924a22.3 22.3 0 0 0 1.38-7.762c0-12.7-10.57-22.99-23.615-22.99"/><path fill="#414141" d="M23.91 46.06c10.25 0 18.968-6.354 22.236-15.237l-5.79-2.925c-.18.57-.378 1.132-.624 1.674a16.8 16.8 0 0 1-3.684 5.316 17.3 17.3 0 0 1-5.46 3.586 17.4 17.4 0 0 1-6.678 1.315c-2.314 0-4.571-.441-6.678-1.315a17.3 17.3 0 0 1-5.46-3.586 16.8 16.8 0 0 1-3.683-5.316 18 18 0 0 1-.624-1.674l-5.79 2.925C4.943 39.706 13.662 46.06 23.91 46.06"/><path fill="#fff" d="M12.565 20.422h-.68l2.645-5.96h.604l2.626 5.96h-.69l-.67-1.563h-3.164zm.897-2.125h2.702l-1.351-3.163zM18.526 20.422v-5.96h.624v5.96zM25.76 19.457a2.517 2.517 0 0 1-.888.79c-.188.102-.405.185-.641.25a3.375 3.375 0 0 1-2.04-.147 2.938 2.938 0 0 1-1.672-1.646c-.161-.378-.237-.801-.237-1.252s.085-.873.246-1.25c.16-.378.387-.709.67-.994a3.1 3.1 0 0 1 1.011-.652c.388-.157.813-.24 1.266-.24a3.2 3.2 0 0 1 1.275.258c.19.083.36.184.52.294.15.12.283.248.387.396l-.52.367a1.7 1.7 0 0 0-.255-.285 1.6 1.6 0 0 0-.378-.248 2.4 2.4 0 0 0-.472-.175 2 2 0 0 0-.548-.064c-.396 0-.755.074-1.067.211a2.5 2.5 0 0 0-.803.57c-.217.24-.387.516-.5.828q-.17.47-.17.994c0 .349.056.68.179.993a2.5 2.5 0 0 0 .51.827c.217.24.482.423.803.57.312.138.67.212 1.058.212.35 0 .69-.074 1.001-.212.321-.137.586-.367.794-.67zM26.602 14.463h1.728c.312 0 .595.037.85.101s.473.166.652.294q.272.194.416.497c.094.202.15.432.15.699s-.046.506-.15.699a1.4 1.4 0 0 1-.425.496 2.1 2.1 0 0 1-.662.304 3.5 3.5 0 0 1-.85.1h-1.086v2.769h-.623zm1.68 2.676c.492 0 .86-.092 1.116-.276.255-.184.377-.45.377-.81 0-.367-.132-.643-.396-.808-.265-.175-.633-.258-1.106-.258h-1.058v2.152zM30.74 20.422h-.68l2.644-5.96h.605l2.626 5.96h-.69l-.67-1.563H31.41zm.897-2.125h2.702l-1.351-3.163zM15.059 27.264a1.3 1.3 0 0 0-.501-.377 1.5 1.5 0 0 0-.595-.138q-.144 0-.302.028a.7.7 0 0 0-.274.101.7.7 0 0 0-.208.184.48.48 0 0 0-.085.294c0 .101.019.184.066.249a.6.6 0 0 0 .189.174c.085.046.18.102.302.138.114.046.246.083.387.13q.312.095.652.22c.227.082.425.193.614.322.19.138.34.303.463.496.123.202.18.45.18.745q0 .508-.199.892c-.132.248-.302.46-.52.616a2.1 2.1 0 0 1-.755.359c-.283.083-.576.12-.87.12a3.8 3.8 0 0 1-1.274-.221 2.7 2.7 0 0 1-1.02-.635l.973-.956c.15.184.349.33.595.45.245.12.49.184.727.184.113 0 .217-.009.321-.037a.66.66 0 0 0 .274-.11.6.6 0 0 0 .189-.202.6.6 0 0 0 .066-.304.47.47 0 0 0-.085-.285.8.8 0 0 0-.246-.211 2 2 0 0 0-.396-.175c-.16-.055-.34-.11-.539-.175a6 6 0 0 1-.576-.22 1.9 1.9 0 0 1-.5-.322 1.5 1.5 0 0 1-.36-.479 1.6 1.6 0 0 1-.132-.689c0-.331.066-.616.208-.846.142-.24.321-.432.548-.58s.482-.266.765-.33a3.4 3.4 0 0 1 1.918.082c.359.12.68.304.944.552zM23.116 28.672q0 .703-.255 1.296a2.9 2.9 0 0 1-.699 1.003 3.05 3.05 0 0 1-1.057.643c-.407.148-.85.23-1.332.23s-.917-.073-1.332-.23a3.1 3.1 0 0 1-1.058-.643 3.1 3.1 0 0 1-.7-1.003 3.2 3.2 0 0 1-.254-1.296q0-.717.255-1.297c.17-.386.396-.708.699-.984a3.2 3.2 0 0 1 1.058-.625q.609-.22 1.332-.221.722 0 1.332.22c.406.148.765.35 1.057.626a2.9 2.9 0 0 1 .7.984q.255.579.254 1.297m-1.587 0a2.1 2.1 0 0 0-.132-.727 1.8 1.8 0 0 0-.359-.58 1.7 1.7 0 0 0-.557-.376 1.8 1.8 0 0 0-.718-.138c-.264 0-.49.046-.708.138a1.8 1.8 0 0 0-.558.377c-.15.156-.274.35-.359.58-.085.22-.122.468-.122.726 0 .266.047.515.132.744.085.23.208.424.359.59.15.165.34.293.548.385a1.8 1.8 0 0 0 .708.138 1.8 1.8 0 0 0 .709-.138c.217-.092.396-.22.557-.386.151-.165.274-.358.359-.588a1.9 1.9 0 0 0 .141-.745M28.321 31.568c-.397.175-.86.267-1.379.267q-.706.002-1.313-.23a3.1 3.1 0 0 1-1.039-.644 2.9 2.9 0 0 1-.69-.993 3.1 3.1 0 0 1-.255-1.279q0-.717.256-1.296.255-.58.708-.993a3.1 3.1 0 0 1 1.058-.626q.609-.22 1.303-.22.652 0 1.276.22a2.5 2.5 0 0 1 1.02.653l-1.01.975a1.3 1.3 0 0 0-.549-.414 1.8 1.8 0 0 0-.69-.138c-.254 0-.5.046-.717.138s-.406.221-.557.387a1.8 1.8 0 0 0-.36.579 2.136 2.136 0 0 0 0 1.471q.13.331.36.58c.15.156.34.285.547.377.218.091.444.137.7.137q.438 0 .765-.165c.217-.11.396-.258.529-.441l1.03.947a2.9 2.9 0 0 1-.993.708M32.072 30.493l2.39-2.097c.15-.138.273-.285.359-.432a.87.87 0 0 0 .141-.488.66.66 0 0 0-.208-.515c-.141-.129-.32-.193-.557-.193a.77.77 0 0 0-.595.248 1.12 1.12 0 0 0-.274.653l-1.389-.184a2.2 2.2 0 0 1 .255-.809q.2-.358.51-.607c.209-.165.445-.294.718-.377.265-.092.548-.128.85-.128q.426 0 .822.11.397.108.709.34c.208.147.378.34.5.57.123.23.19.497.19.81q0 .316-.086.579a2 2 0 0 1-.236.478 2.4 2.4 0 0 1-.35.405c-.131.128-.264.248-.405.377l-1.417 1.232h2.503v1.232h-4.43zM35.934 22.934h-24.05v.257h24.05zM5.019 22.354l-.02.23-2.059-1.058.02-.202 2.21-.726-.02.239-.575.184-.085 1.075zm-.737-.359.075-.92-1.171.369zM5.255 20.137l-.038.211-2.107-.312.038-.212zM5.396 17.866c.047.046.085.102.122.157a.7.7 0 0 1 .085.193c.02.073.029.147.038.23a1.135 1.135 0 0 1-.208.662c-.085.12-.189.211-.311.285q-.184.111-.397.138a1.3 1.3 0 0 1-.453-.018 1.1 1.1 0 0 1-.416-.185 1 1 0 0 1-.293-.303 1.1 1.1 0 0 1-.151-.386 1 1 0 0 1 .019-.441c.019-.074.047-.148.075-.212.038-.064.076-.129.114-.184.047-.055.094-.11.141-.147.057-.046.114-.074.17-.101l.086.202c-.038.01-.076.037-.123.064a1 1 0 0 0-.123.102c-.038.046-.066.092-.104.138a.812.812 0 0 0-.076.543c.029.119.067.22.133.312a.96.96 0 0 0 .576.367 1 1 0 0 0 .359.02.862.862 0 0 0 .595-.322.9.9 0 0 0 .16-.332.9.9 0 0 0 .01-.35.7.7 0 0 0-.17-.312zM3.799 17.03l.198-.561a1.2 1.2 0 0 1 .132-.267.5.5 0 0 1 .17-.174.5.5 0 0 1 .218-.083q.113-.014.255.027c.094.028.17.074.226.13.057.054.095.119.123.192q.043.111.029.249c-.01.092-.029.184-.067.285l-.122.35.944.312-.066.202zm.982.101.123-.34c.057-.156.066-.285.028-.396a.34.34 0 0 0-.236-.211.33.33 0 0 0-.321.037.64.64 0 0 0-.208.33l-.123.341zM6.294 16.377l-.095.211-1.587-1.664.085-.194 2.333.019-.094.211-.614-.009-.444.984zm-.567-.58.378-.837-1.228-.027zM6.538 12.128a.7.7 0 0 0-.226.065.5.5 0 0 0-.19.183.7.7 0 0 0-.065.148c-.02.055-.02.11-.02.156.01.055.02.101.048.156a.4.4 0 0 0 .132.129.3.3 0 0 0 .16.055c.048 0 .105-.009.152-.027a.6.6 0 0 0 .142-.083l.141-.11c.057-.047.123-.102.19-.148q.098-.069.198-.11a.6.6 0 0 1 .226-.037c.076 0 .16.037.255.092s.161.12.208.193a.4.4 0 0 1 .076.23.721.721 0 0 1-.123.469 1 1 0 0 1-.123.147.6.6 0 0 1-.15.12.73.73 0 0 1-.36.12l-.019-.23a.56.56 0 0 0 .482-.267.7.7 0 0 0 .066-.147.33.33 0 0 0 .01-.166.3.3 0 0 0-.057-.156.4.4 0 0 0-.132-.129.37.37 0 0 0-.18-.055.4.4 0 0 0-.17.037 1.4 1.4 0 0 0-.16.092c-.048.036-.104.082-.161.128l-.17.138a.5.5 0 0 1-.189.092.8.8 0 0 1-.208.028.7.7 0 0 1-.236-.083.8.8 0 0 1-.198-.184.7.7 0 0 1-.076-.23.5.5 0 0 1 .029-.239.9.9 0 0 1 .094-.211.73.73 0 0 1 .264-.267.7.7 0 0 1 .274-.101zM8.551 11.134c.01.009.019.018.038.027.01.01.028.019.038.037l-.7.92a.7.7 0 0 0 .19.082.5.5 0 0 0 .198.01.5.5 0 0 0 .189-.065c.056-.037.113-.073.151-.138a.47.47 0 0 0 .104-.257.5.5 0 0 0-.028-.24l.188-.045a.75.75 0 0 1 .02.35.66.66 0 0 1-.142.293.7.7 0 0 1-.218.193.7.7 0 0 1-.548.074.8.8 0 0 1-.273-.129 1.1 1.1 0 0 1-.208-.211.9.9 0 0 1-.104-.258.64.64 0 0 1 .132-.515.7.7 0 0 1 .217-.193.5.5 0 0 1 .246-.073q.128-.014.255.027a.7.7 0 0 1 .255.11m-.18.128a.53.53 0 0 0-.34-.092q-.17.014-.311.194a.6.6 0 0 0-.085.174.4.4 0 0 0-.01.184.4.4 0 0 0 .057.166.4.4 0 0 0 .113.138zM8.43 10.528l-.133-.102.123-.138.104.074a1 1 0 0 1 .085.074c-.038-.083-.048-.166-.038-.258a.45.45 0 0 1 .123-.248.3.3 0 0 0 .047-.055.2.2 0 0 1 .047-.037l.132.147c-.01.01-.028.018-.047.037l-.057.055a.25.25 0 0 0-.075.138.3.3 0 0 0-.01.156c.01.055.029.11.066.175s.095.12.161.184l.548.46-.132.156-.841-.699c-.019-.055-.057-.083-.104-.12M8.815 9.065a.15.15 0 0 1 .047.101c0 .037-.009.074-.037.101a.2.2 0 0 1-.095.046.144.144 0 0 1-.15-.138c0-.036.009-.073.037-.1a.2.2 0 0 1 .094-.047c.038 0 .076.01.104.037m1.398 1.334-.141.147-1.03-.948.142-.147zM10.98 9.664l-.161.156-1.398-.607.17-.156 1.162.533-.492-1.159.161-.147zM11.65 7.705a.5.5 0 0 0-.199-.009.49.49 0 0 0-.34.267.8.8 0 0 0-.056.193c0 .064.01.138.028.202q.042.098.113.193c.048.065.104.11.17.148.066.036.133.055.199.073.066.01.142.01.208-.009a.7.7 0 0 0 .198-.101.4.4 0 0 0 .142-.184.5.5 0 0 0 .037-.193l.19-.01a.7.7 0 0 1-.057.276.7.7 0 0 1-.199.249.7.7 0 0 1-.274.147q-.142.042-.283.028a.7.7 0 0 1-.264-.083.7.7 0 0 1-.227-.193.8.8 0 0 1-.142-.258.7.7 0 0 1 .057-.542.8.8 0 0 1 .208-.24.8.8 0 0 1 .264-.128.56.56 0 0 1 .302-.01zM13.293 6.969c.01.009.02.027.029.036a.2.2 0 0 1 .028.046l-.963.644a.5.5 0 0 0 .15.138.6.6 0 0 0 .18.074q.099.014.198 0a.4.4 0 0 0 .19-.083.5.5 0 0 0 .188-.212.54.54 0 0 0 .048-.239l.198.01a.76.76 0 0 1-.095.34.79.79 0 0 1-.5.358.7.7 0 0 1-.284 0 1 1 0 0 1-.264-.1.76.76 0 0 1-.34-.469.68.68 0 0 1 .283-.727.7.7 0 0 1 .274-.12.614.614 0 0 1 .5.11c.067.047.133.11.18.194m-.207.055a.55.55 0 0 0-.293-.193.45.45 0 0 0-.36.082.4.4 0 0 0-.131.138.4.4 0 0 0-.067.166.5.5 0 0 0 0 .175c.01.055.029.11.067.165zM16.118 5.14a1.07 1.07 0 0 1 .066.845 1 1 0 0 1-.218.36 1.226 1.226 0 0 1-.793.386 1.1 1.1 0 0 1-.793-.267 1.1 1.1 0 0 1-.274-.359 1.07 1.07 0 0 1-.066-.846c.047-.129.113-.248.217-.359a1.226 1.226 0 0 1 .793-.386 1.1 1.1 0 0 1 .794.267q.172.15.274.358m-.208.1a1 1 0 0 0-.208-.285.75.75 0 0 0-.293-.183.7.7 0 0 0-.34-.056.9.9 0 0 0-.368.092.9.9 0 0 0-.303.221.8.8 0 0 0-.16.294q-.043.166-.028.331c.009.12.047.23.103.34a.932.932 0 0 0 .491.469.907.907 0 0 0 .708-.037.9.9 0 0 0 .303-.22.8.8 0 0 0 .16-.294q.044-.165.03-.331c0-.12-.038-.23-.095-.34M16.486 4.836c-.019-.055-.047-.101-.066-.147l.18-.065.056.11c.019.047.028.074.047.102h.01a.47.47 0 0 1 .094-.248.5.5 0 0 1 .227-.166c.028-.01.047-.018.066-.018.019-.01.038-.01.066-.01l.047.184c-.01 0-.028 0-.056.01l-.085.027a.4.4 0 0 0-.133.083.4.4 0 0 0-.085.129.54.54 0 0 0 .029.414l.255.662-.19.073-.405-1.011a1 1 0 0 0-.057-.13M18.016 5.874c.076.055.17.092.274.11a.64.64 0 0 0 .321-.018.8.8 0 0 0 .236-.11.5.5 0 0 0 .133-.157.4.4 0 0 0 .037-.193 1 1 0 0 0-.028-.211l-.085-.249h-.01a.57.57 0 0 1-.16.258.8.8 0 0 1-.274.156.9.9 0 0 1-.302.037.9.9 0 0 1-.265-.074.8.8 0 0 1-.207-.174.7.7 0 0 1-.133-.258q-.043-.138-.028-.276a.8.8 0 0 1 .076-.257.6.6 0 0 1 .179-.212.7.7 0 0 1 .274-.138.7.7 0 0 1 .312-.018.66.66 0 0 1 .283.129h.01l-.067-.23.199-.055.396 1.305c.02.074.038.148.038.24 0 .082-.01.174-.047.257a.7.7 0 0 1-.17.23.9.9 0 0 1-.35.175 1.1 1.1 0 0 1-.377.036 1 1 0 0 1-.35-.11zm-.255-.956c.019.073.057.128.095.183a.5.5 0 0 0 .15.138.46.46 0 0 0 .2.065c.075.009.15 0 .226-.019a.5.5 0 0 0 .198-.1.4.4 0 0 0 .133-.157c.028-.064.056-.12.056-.193a.45.45 0 0 0-.028-.22.45.45 0 0 0-.104-.185.4.4 0 0 0-.16-.129.46.46 0 0 0-.2-.064.617.617 0 0 0-.425.12.48.48 0 0 0-.17.35c0 .073.01.146.03.21M20.292 4.109c-.028-.12-.075-.193-.15-.24-.076-.045-.17-.054-.294-.027a.6.6 0 0 0-.226.092.8.8 0 0 0-.161.147l-.142-.11a.8.8 0 0 1 .199-.184 1 1 0 0 1 .311-.12.638.638 0 0 1 .406.046.5.5 0 0 1 .152.13.6.6 0 0 1 .085.21l.123.59c.009.055.028.1.037.156.02.055.029.1.048.138l-.18.036c-.01-.027-.028-.064-.038-.1l-.028-.111h-.01a.7.7 0 0 1-.17.239.7.7 0 0 1-.273.12.5.5 0 0 1-.17.009c-.057 0-.114-.019-.17-.037a.4.4 0 0 1-.142-.101.5.5 0 0 1-.085-.184.4.4 0 0 1 .028-.267.43.43 0 0 1 .19-.175c.084-.045.188-.091.301-.12.114-.027.237-.063.36-.082zm-.019.212c-.085.018-.17.036-.245.055a2 2 0 0 0-.217.082.5.5 0 0 0-.151.12c-.038.046-.048.101-.038.166.01.046.028.082.056.12a.3.3 0 0 0 .095.063c.038.019.075.019.113.019s.076 0 .123-.01a.45.45 0 0 0 .302-.202.4.4 0 0 0 .057-.156.4.4 0 0 0-.01-.175l-.018-.1zM21.105 3.483l.028.12c.01.045.01.082.019.11h.01a.47.47 0 0 1 .17-.221.64.64 0 0 1 .273-.11q.272-.028.416.11c.104.092.16.22.18.395l.103.837-.208.028-.094-.754a1 1 0 0 0-.038-.193.7.7 0 0 0-.075-.148.3.3 0 0 0-.133-.082c-.047-.019-.113-.019-.189-.019a.4.4 0 0 0-.15.046.35.35 0 0 0-.123.11c-.038.047-.057.111-.076.175a.7.7 0 0 0-.01.24l.086.698-.208.028-.133-1.067c0-.037-.009-.083-.019-.147-.009-.055-.018-.11-.028-.156zM22.871 2.793c0 .037-.01.074-.038.101s-.056.046-.094.046a.16.16 0 0 1-.104-.036c-.028-.028-.047-.056-.047-.102 0-.036.01-.073.038-.1s.056-.047.094-.047a.16.16 0 0 1 .104.037.15.15 0 0 1 .047.101m.076 1.913-.208.01-.076-1.38.208-.01zM24.334 3.436l-.831 1.076.878-.018v.174l-1.152.019v-.138l.821-1.085-.803.009v-.166l1.077-.018zM25.648 3.861c.01-.12-.019-.211-.075-.276-.057-.064-.152-.1-.274-.11a.5.5 0 0 0-.236.028.5.5 0 0 0-.19.1l-.104-.137a.8.8 0 0 1 .237-.129 1 1 0 0 1 .33-.037c.076.01.152.019.208.046a.7.7 0 0 1 .17.101.4.4 0 0 1 .104.166c.028.064.028.138.028.22l-.047.598c0 .056-.01.11-.01.166 0 .055 0 .101.01.147l-.18-.01c0-.036-.009-.073-.009-.11v-.12h-.01a.6.6 0 0 1-.236.185.6.6 0 0 1-.302.037c-.056 0-.113-.019-.17-.037a.5.5 0 0 1-.15-.083.3.3 0 0 1-.105-.138.33.33 0 0 1-.028-.193c.01-.11.038-.184.104-.248a.44.44 0 0 1 .236-.12c.094-.027.198-.037.321-.037s.246 0 .378.01zm-.075.193c-.085-.009-.17-.009-.256-.009s-.16.01-.236.028a.7.7 0 0 0-.18.073.18.18 0 0 0-.075.147c0 .046 0 .092.02.13.018.036.037.064.075.082.028.018.066.037.104.055a.3.3 0 0 0 .123.019q.112.014.198-.028c.056-.018.104-.055.15-.092a.4.4 0 0 0 .095-.138.36.36 0 0 0 .038-.175l.01-.1zM27.036 3.703l-.397-.055-.113.8a.3.3 0 0 0 0 .13q.015.054.028.082a.2.2 0 0 0 .066.046c.029.009.057.018.085.018h.095c.028 0 .066-.009.094-.018l-.019.175c-.038.009-.075.018-.113.018s-.085 0-.132-.01q-.057-.013-.113-.027a.4.4 0 0 1-.114-.073.4.4 0 0 1-.075-.12.4.4 0 0 1-.01-.184l.113-.855-.292-.037.018-.165.293.036.057-.386.208.028-.057.386.397.055zM27.35 4.982l-.199-.037.246-1.36.198.036zm.378-1.867c-.01.037-.029.074-.066.092s-.067.028-.104.019a.2.2 0 0 1-.095-.055q-.043-.042-.028-.11c.01-.038.028-.074.066-.093.038-.018.066-.027.104-.018s.066.027.094.055q.043.042.029.11M29.323 4.716a.8.8 0 0 1-.123.267.7.7 0 0 1-.208.183.9.9 0 0 1-.274.092.7.7 0 0 1-.312-.018 1 1 0 0 1-.283-.12.8.8 0 0 1-.198-.202.7.7 0 0 1-.095-.257.6.6 0 0 1 .02-.295.8.8 0 0 1 .122-.266.7.7 0 0 1 .208-.184.9.9 0 0 1 .274-.092.92.92 0 0 1 .595.138c.085.055.141.129.198.202a.7.7 0 0 1 .095.258.6.6 0 0 1-.02.294m-.208-.055a.6.6 0 0 0-.038-.414.476.476 0 0 0-.34-.248.6.6 0 0 0-.227-.01.4.4 0 0 0-.189.074.6.6 0 0 0-.15.147c-.038.064-.076.129-.086.202a.59.59 0 0 0 .038.414.475.475 0 0 0 .34.248c.085.019.16.019.227.01a.4.4 0 0 0 .189-.074.6.6 0 0 0 .15-.147.7.7 0 0 0 .086-.202M30.116 4.237c-.01.037-.019.074-.028.12s-.028.083-.038.11h.01a.47.47 0 0 1 .255-.12.6.6 0 0 1 .293.019c.17.055.283.147.33.276a.62.62 0 0 1-.01.432l-.283.8-.198-.064.255-.718c.028-.064.038-.128.047-.193a.33.33 0 0 0-.01-.165.26.26 0 0 0-.075-.129.5.5 0 0 0-.16-.092.3.3 0 0 0-.16-.018.3.3 0 0 0-.162.046.5.5 0 0 0-.15.128.7.7 0 0 0-.114.212l-.236.671-.199-.064.36-1.02c.009-.038.028-.084.047-.139.018-.055.028-.11.047-.156zM33.536 6.822a.826.826 0 0 1-.406.101c-.076 0-.16-.01-.236-.028a1.19 1.19 0 0 1-.614-.368 1 1 0 0 1-.208-.358c-.047-.13-.057-.267-.047-.414a1.1 1.1 0 0 1 .132-.432c.076-.138.17-.258.283-.35a1.08 1.08 0 0 1 .793-.248 1.23 1.23 0 0 1 .634.239c.056.046.113.101.16.156a.7.7 0 0 1 .17.359l-.227.037c0-.037-.018-.083-.028-.129a.746.746 0 0 0-.19-.267c-.046-.036-.093-.073-.16-.11a.9.9 0 0 0-.368-.101.7.7 0 0 0-.34.055.8.8 0 0 0-.292.184c-.085.083-.161.175-.218.285a.9.9 0 0 0-.104.34c-.019.12-.009.23.02.34a.8.8 0 0 0 .16.304.92.92 0 0 0 .642.322.7.7 0 0 0 .36-.083zM35.18 7.446a.75.75 0 0 1-.463.322.7.7 0 0 1-.284 0 .7.7 0 0 1-.283-.12.8.8 0 0 1-.227-.202.678.678 0 0 1-.113-.533.9.9 0 0 1 .113-.277.75.75 0 0 1 .463-.321.7.7 0 0 1 .284 0 .9.9 0 0 1 .283.11c.094.055.17.129.227.211a.678.678 0 0 1 .113.533.9.9 0 0 1-.113.277m-.18-.12a.43.43 0 0 0 .085-.202.5.5 0 0 0-.066-.396.5.5 0 0 0-.16-.156.52.52 0 0 0-.605.018.6.6 0 0 0-.151.166.4.4 0 0 0-.085.202.5.5 0 0 0-.01.203c.01.064.038.128.076.184a.6.6 0 0 0 .16.156.52.52 0 0 0 .604-.018.6.6 0 0 0 .152-.157M36.085 7.245l-.076.1c-.028.037-.047.065-.066.093h.01a.5.5 0 0 1 .283-.037.7.7 0 0 1 .274.11c.141.11.217.23.217.368.01.138-.047.267-.151.405l-.538.662-.161-.12.482-.597a1 1 0 0 0 .113-.166.4.4 0 0 0 .047-.156.4.4 0 0 0-.028-.147.5.5 0 0 0-.123-.138.5.5 0 0 0-.142-.074.36.36 0 0 0-.17-.01.5.5 0 0 0-.18.074.6.6 0 0 0-.179.166l-.444.56-.16-.119.68-.846c.019-.027.057-.064.085-.12.038-.045.066-.091.094-.128zM37.673 8.762l-.293-.257-.548.598c-.038.036-.057.073-.076.1s-.019.065-.019.084c0 .027.01.055.029.073s.038.046.056.065a.2.2 0 0 0 .076.045.3.3 0 0 0 .085.037l-.113.138a.23.23 0 0 1-.104-.055c-.038-.018-.066-.046-.104-.074-.028-.027-.057-.055-.076-.091a.3.3 0 0 1-.047-.12c-.01-.046 0-.092.01-.138a.44.44 0 0 1 .103-.156l.586-.644-.217-.193.113-.129.217.193.265-.285.151.138-.264.285.292.258zM37.928 8.984c.038-.046.076-.083.113-.12l.133.138c-.029.028-.048.065-.085.092q-.046.056-.076.083a.55.55 0 0 1 .274-.018c.094.018.18.064.245.138a.2.2 0 0 1 .048.055c.01.018.028.036.038.055l-.161.12q-.013-.017-.038-.047c-.019-.018-.038-.046-.056-.064a.4.4 0 0 0-.133-.083.5.5 0 0 0-.16-.027.37.37 0 0 0-.18.055.7.7 0 0 0-.198.147l-.51.497-.142-.138.775-.764c.037-.036.066-.073.113-.12M39.194 11.108a.8.8 0 0 1-.265.147.8.8 0 0 1-.283.037.7.7 0 0 1-.274-.074 1 1 0 0 1-.245-.193.8.8 0 0 1-.161-.258.668.668 0 0 1 .038-.543.7.7 0 0 1 .189-.229.8.8 0 0 1 .264-.147.8.8 0 0 1 .283-.037c.095.01.19.028.274.074s.17.11.237.184a.8.8 0 0 1 .16.257.665.665 0 0 1-.038.542.5.5 0 0 1-.179.24m-.142-.157a.8.8 0 0 0 .142-.165.494.494 0 0 0-.066-.589.6.6 0 0 0-.18-.138.52.52 0 0 0-.406-.009.8.8 0 0 0-.189.11.8.8 0 0 0-.142.166.49.49 0 0 0 .066.588.5.5 0 0 0 .379.184.6.6 0 0 0 .207-.036.8.8 0 0 0 .19-.11M38.995 12.008l-.123-.156 1.814-1.352.123.156zM39.846 13.185l-.114-.184 1.833-1.085.33.524c.057.083.095.175.123.258a.7.7 0 0 1 .038.239.4.4 0 0 1-.075.22.8.8 0 0 1-.199.184.56.56 0 0 1-.604-.018.6.6 0 0 1-.16-.156l-.549 1.039-.141-.22.548-1.003-.19-.304zm1.02-.598.198.313q.14.219.293.285c.104.046.208.037.321-.027a.4.4 0 0 0 .133-.12.4.4 0 0 0 .047-.147c0-.055-.01-.11-.029-.175a1 1 0 0 0-.094-.193l-.198-.322zM41.838 15.217c-.01.01-.029.01-.038.019-.019.009-.028.009-.047.018l-.52-1.02a.7.7 0 0 0-.16.119.36.36 0 0 0-.095.165.6.6 0 0 0-.028.193q0 .098.056.194a.53.53 0 0 0 .425.294l-.037.184a.7.7 0 0 1-.33-.147.7.7 0 0 1-.209-.258.6.6 0 0 1-.075-.276.696.696 0 0 1 .425-.68.8.8 0 0 1 .293-.083.68.68 0 0 1 .51.156.7.7 0 0 1 .255.497q.002.138-.038.248a.6.6 0 0 1-.142.212 1.3 1.3 0 0 1-.245.165m-.038-.211a.49.49 0 0 0 .236-.258c.047-.11.028-.23-.028-.35a.3.3 0 0 0-.123-.146.6.6 0 0 0-.16-.092.6.6 0 0 0-.18-.028.4.4 0 0 0-.18.037zM40.695 16.285l-.076-.184 2.003-.745.075.184-.226.083v.01a.6.6 0 0 1 .283.137.6.6 0 0 1 .17.249.9.9 0 0 1 .057.294.7.7 0 0 1-.067.267.6.6 0 0 1-.17.22.87.87 0 0 1-.547.203.7.7 0 0 1-.501-.212.7.7 0 0 1-.16-.257c-.038-.092-.048-.194-.038-.295a.6.6 0 0 1 .103-.285v-.009zm1.719.46a.7.7 0 0 0 .198-.11.5.5 0 0 0 .133-.157.7.7 0 0 0 .056-.193.6.6 0 0 0-.038-.22.5.5 0 0 0-.122-.184.45.45 0 0 0-.18-.11.5.5 0 0 0-.208-.038.5.5 0 0 0-.226.046.54.54 0 0 0-.199.12.4.4 0 0 0-.123.165.5.5 0 0 0-.047.203c0 .073.01.138.038.211a.7.7 0 0 0 .123.194.7.7 0 0 0 .17.11c.066.027.132.037.208.027.066-.027.141-.036.217-.064M42.99 18.657a.9.9 0 0 1-.302.028.6.6 0 0 1-.265-.083.8.8 0 0 1-.217-.184.8.8 0 0 1-.132-.276c-.029-.1-.038-.202-.029-.294a.671.671 0 0 1 .274-.478.8.8 0 0 1 .274-.129c.104-.028.208-.037.303-.028.094.01.189.037.264.083.085.046.151.11.217.184a.65.65 0 0 1 .133.267q.042.15.028.303a.67.67 0 0 1-.274.478.8.8 0 0 1-.274.13m-.057-.202a.8.8 0 0 0 .208-.092c.057-.046.114-.092.142-.147a.6.6 0 0 0 .075-.193.44.44 0 0 0-.018-.221.4.4 0 0 0-.104-.193.7.7 0 0 0-.16-.129.632.632 0 0 0-.435-.037c-.076.019-.142.056-.208.092a.52.52 0 0 0-.217.34.45.45 0 0 0 .018.221.52.52 0 0 0 .265.331.8.8 0 0 0 .208.055q.112 0 .226-.027M43.605 18.924c.057-.01.114-.028.16-.037l.039.184c-.038.009-.076.018-.123.036a1 1 0 0 0-.113.028v.01c.085.018.17.064.236.137a.46.46 0 0 1 .132.249c.01.027.01.046.01.064v.064l-.199.01v-.065c0-.027-.01-.055-.01-.083a.4.4 0 0 0-.056-.147.3.3 0 0 0-.123-.11.5.5 0 0 0-.18-.055.8.8 0 0 0-.245.009l-.708.138-.038-.193 1.086-.212c.028 0 .076-.009.132-.027M43.907 20.754l-.057-.386-.822.11a1 1 0 0 0-.122.028c-.029.018-.057.027-.076.055a.1.1 0 0 0-.028.073v.083q0 .041.028.083.017.04.047.083l-.18.036c-.018-.036-.037-.064-.047-.1l-.028-.12a.26.26 0 0 1 0-.12c0-.046.02-.082.038-.12a.27.27 0 0 1 .104-.1.5.5 0 0 1 .18-.056l.878-.12-.038-.284.17-.028.038.285.397-.055.028.202-.397.055.057.387zM43.85 21.902a.34.34 0 0 0 .133-.147.4.4 0 0 0 .038-.211.3.3 0 0 0-.02-.101c-.009-.037-.028-.065-.046-.093-.02-.027-.048-.045-.076-.064-.028-.018-.066-.018-.104-.018q-.099.011-.142.092a.7.7 0 0 0-.066.257.8.8 0 0 1-.122.368.32.32 0 0 1-.255.138.37.37 0 0 1-.35-.138.5.5 0 0 1-.085-.156 1 1 0 0 1-.038-.184.8.8 0 0 1 .038-.303.63.63 0 0 1 .189-.258l.132.147a.4.4 0 0 0-.141.165.4.4 0 0 0-.048.23c0 .046.01.083.02.12.009.037.028.074.046.101a.2.2 0 0 0 .085.065.3.3 0 0 0 .123.018c.076-.01.123-.046.16-.12a1.4 1.4 0 0 0 .076-.312c.01-.046.02-.083.029-.138a.3.3 0 0 1 .056-.129.36.36 0 0 1 .265-.156.358.358 0 0 1 .321.129.582.582 0 0 1 .123.331.6.6 0 0 1-.047.285.5.5 0 0 1-.17.22zM15.513 41.344q.07-.163.028-.285-.045-.124-.218-.193a.5.5 0 0 0-.236-.055.8.8 0 0 0-.217.027l-.047-.165a.8.8 0 0 1 .274-.037c.104.009.208.037.321.082a.642.642 0 0 1 .302.276c.029.056.038.12.038.194a.54.54 0 0 1-.057.22l-.264.543c-.019.046-.047.101-.066.156q-.032.082-.048.138l-.17-.073a.5.5 0 0 1 .038-.102c.01-.037.029-.073.047-.11h-.009a.7.7 0 0 1-.283.092.7.7 0 0 1-.293-.065c-.047-.018-.095-.055-.142-.091a.5.5 0 0 1-.113-.13.366.366 0 0 1 0-.359c.047-.09.104-.164.189-.192a.5.5 0 0 1 .264-.037q.142.014.312.083l.34.138zm-.142.165a1.8 1.8 0 0 0-.463-.147.5.5 0 0 0-.198.01.22.22 0 0 0-.133.11.3.3 0 0 0-.028.12.2.2 0 0 0 .038.1.3.3 0 0 0 .075.083.513.513 0 0 0 .293.11q.1 0 .17-.027a.4.4 0 0 0 .142-.092.6.6 0 0 0 .104-.147l.047-.092zM16.014 42.521l-.189-.073.53-1.279.188.074zm.775-1.756a.13.13 0 0 1-.085.074c-.038.009-.076.018-.104 0-.038-.01-.057-.037-.076-.074a.12.12 0 0 1 0-.11.13.13 0 0 1 .085-.074c.038-.01.076-.019.104 0 .038.01.057.037.076.073a.2.2 0 0 1 0 .11M17.875 42.034a.46.46 0 0 0-.095-.175.44.44 0 0 0-.189-.12.5.5 0 0 0-.227-.027.6.6 0 0 0-.198.055.46.46 0 0 0-.16.139.5.5 0 0 0-.104.193.6.6 0 0 0-.038.22.5.5 0 0 0 .047.203c.028.064.066.12.123.165a.7.7 0 0 0 .198.11c.085.028.16.037.236.028a.5.5 0 0 0 .19-.074l.113.157a.7.7 0 0 1-.265.092.8.8 0 0 1-.321-.037.77.77 0 0 1-.453-.368.65.65 0 0 1-.066-.267.7.7 0 0 1 .047-.294.8.8 0 0 1 .15-.257.6.6 0 0 1 .218-.166 1 1 0 0 1 .274-.073c.104-.01.208.009.312.045.094.028.17.083.255.148a.6.6 0 0 1 .17.239zM18.148 43.956l-.199-.046.51-2.023.199.046-.057.23h.01a.6.6 0 0 1 .273-.147.8.8 0 0 1 .303 0 1 1 0 0 1 .283.12.8.8 0 0 1 .189.201.6.6 0 0 1 .085.258c.01.092.01.193-.019.294a.9.9 0 0 1-.123.267 1 1 0 0 1-.198.193.6.6 0 0 1-.264.092.7.7 0 0 1-.303-.019.7.7 0 0 1-.274-.137.53.53 0 0 1-.18-.249h-.009zm1.37-1.113a.58.58 0 0 0-.038-.414.475.475 0 0 0-.34-.248.6.6 0 0 0-.227-.01.5.5 0 0 0-.199.074.46.46 0 0 0-.15.148.5.5 0 0 0-.095.202.44.44 0 0 0-.01.22c.02.074.029.139.067.194.037.055.084.11.141.156a.5.5 0 0 0 .199.092c.085.018.16.028.226.01a.4.4 0 0 0 .19-.075.4.4 0 0 0 .14-.147.6.6 0 0 0 .095-.202M21.132 42.907q.029-.18-.056-.276a.42.42 0 0 0-.265-.129.7.7 0 0 0-.236.01.5.5 0 0 0-.198.091l-.095-.147a.6.6 0 0 1 .255-.1 1 1 0 0 1 .33-.01c.076.01.143.028.209.064a.5.5 0 0 1 .16.12.35.35 0 0 1 .095.175.6.6 0 0 1 .01.22l-.095.598c-.01.055-.02.11-.02.166a.4.4 0 0 0 0 .147l-.179-.028v-.11c0-.037.01-.074.01-.11h-.01a.6.6 0 0 1-.245.165.65.65 0 0 1-.303.018c-.056-.009-.104-.027-.16-.046a.398.398 0 0 1-.255-.441.4.4 0 0 1 .123-.24.42.42 0 0 1 .245-.1c.095-.019.208-.019.321-.01.123.01.246.019.369.047zm-.094.193-.255-.028c-.085-.009-.16 0-.236.01a.35.35 0 0 0-.18.064.27.27 0 0 0-.094.147c-.01.046 0 .092.01.129.009.037.037.064.065.092a.23.23 0 0 0 .104.055.3.3 0 0 0 .114.028c.075.009.141.009.198-.01a1 1 0 0 0 .16-.073.5.5 0 0 0 .114-.129.6.6 0 0 0 .056-.166l.02-.1zM22.05 43.763q0 .054-.057.11c-.038.027-.076.046-.123.037a.2.2 0 0 1-.114-.055.17.17 0 0 1-.037-.11q0-.056.056-.111a.13.13 0 0 1 .123-.037c.047 0 .085.028.114.055.028.028.047.065.037.11M23.967 43.303a.7.7 0 0 1-.066.285.64.64 0 0 1-.16.22.7.7 0 0 1-.246.148.9.9 0 0 1-.312.046.8.8 0 0 1-.538-.22.7.7 0 0 1-.151-.24.7.7 0 0 1-.048-.294c0-.101.029-.203.067-.285a.64.64 0 0 1 .16-.221.7.7 0 0 1 .246-.147.8.8 0 0 1 .302-.046.8.8 0 0 1 .538.22.7.7 0 0 1 .152.24.5.5 0 0 1 .056.294m-.217-.01a1 1 0 0 0-.029-.22.51.51 0 0 0-.273-.313.8.8 0 0 0-.227-.055q-.127-.002-.227.037a.5.5 0 0 0-.17.11.6.6 0 0 0-.113.175.5.5 0 0 0-.047.212q0 .11.028.22a.5.5 0 0 0 .104.184.48.48 0 0 0 .378.166q.127.002.226-.037a.5.5 0 0 0 .17-.11.6.6 0 0 0 .114-.175c.056-.046.066-.12.066-.193M24.41 42.75a1 1 0 0 0-.018-.157l.198-.009c.01.037.01.083.01.12 0 .046.009.083.009.11h.01a.5.5 0 0 1 .17-.202.45.45 0 0 1 .264-.083h.076c.018 0 .047 0 .066.01l-.02.192c-.009 0-.028-.009-.056-.009h-.085a.34.34 0 0 0-.16.037.34.34 0 0 0-.133.101.5.5 0 0 0-.085.166.9.9 0 0 0-.028.239l.028.708-.207.01-.038-1.077zM25.723 44.185c.066.065.151.12.255.157.104.036.208.055.321.036a.7.7 0 0 0 .256-.073.5.5 0 0 0 .16-.138.4.4 0 0 0 .076-.184c.009-.064.019-.138.009-.211l-.028-.258h-.01a.53.53 0 0 1-.207.22.7.7 0 0 1-.293.102.8.8 0 0 1-.303-.018.7.7 0 0 1-.245-.12.6.6 0 0 1-.17-.202.7.7 0 0 1-.085-.276 1 1 0 0 1 .019-.285.7.7 0 0 1 .122-.24.6.6 0 0 1 .208-.174.9.9 0 0 1 .293-.092q.156-.017.312.037a.55.55 0 0 1 .255.174h.01l-.029-.239.208-.018.151 1.361q.015.113 0 .239a.54.54 0 0 1-.095.248.65.65 0 0 1-.217.203 1 1 0 0 1-.378.11.9.9 0 0 1-.377-.037 1 1 0 0 1-.331-.165zm-.075-.974q.014.108.056.202a.5.5 0 0 0 .303.257.6.6 0 0 0 .434-.046.5.5 0 0 0 .16-.128.4.4 0 0 0 .095-.184.55.55 0 0 0-.047-.423.5.5 0 0 0-.132-.157.6.6 0 0 0-.19-.1.6.6 0 0 0-.216-.02.5.5 0 0 0-.218.065.43.43 0 0 0-.15.138.6.6 0 0 0-.086.184.8.8 0 0 0-.01.212M27.576 43.725l-.18-.027.492-2.263.179.028zM29.143 42.263a.4.4 0 0 0-.17-.101.487.487 0 0 0-.406.092c-.019.027-.038.055-.047.083a.196.196 0 0 0 .113.23 1 1 0 0 0 .274.027.8.8 0 0 1 .397.055.33.33 0 0 1 .18.22c.018.075.018.148 0 .203a.5.5 0 0 1-.086.156.5.5 0 0 1-.15.111.7.7 0 0 1-.18.064.8.8 0 0 1-.322.01.6.6 0 0 1-.292-.138l.132-.157a.35.35 0 0 0 .189.11c.075.028.16.028.245.01.048-.01.085-.028.123-.037a.3.3 0 0 0 .095-.064c.028-.028.038-.056.056-.092a.26.26 0 0 0 0-.12.18.18 0 0 0-.141-.138 1.5 1.5 0 0 0-.33-.027h-.143c-.047 0-.094-.019-.141-.037a.4.4 0 0 1-.123-.083.25.25 0 0 1-.076-.147.3.3 0 0 1 0-.184.4.4 0 0 1 .076-.147.4.4 0 0 1 .142-.11.6.6 0 0 1 .18-.065.6.6 0 0 1 .292 0c.104.018.18.065.246.129zM31.193 42.024a.64.64 0 0 1 .037.294.7.7 0 0 1-.075.267.7.7 0 0 1-.18.22.897.897 0 0 1-.576.193.7.7 0 0 1-.274-.073.8.8 0 0 1-.227-.165.8.8 0 0 1-.15-.258.64.64 0 0 1-.039-.294.7.7 0 0 1 .076-.267.7.7 0 0 1 .18-.22.917.917 0 0 1 .586-.193c.103.009.188.027.273.073.085.037.16.101.227.165a.63.63 0 0 1 .142.258m-.199.064a.576.576 0 0 0-.264-.331.46.46 0 0 0-.199-.064.5.5 0 0 0-.226.027.7.7 0 0 0-.199.11.4.4 0 0 0-.123.166.5.5 0 0 0-.047.203q-.002.11.038.22a.572.572 0 0 0 .265.331.5.5 0 0 0 .198.065c.075.009.141 0 .226-.028a.7.7 0 0 0 .199-.11.4.4 0 0 0 .123-.166.7.7 0 0 0 .047-.202 2 2 0 0 0-.038-.22M32.44 41.105a.435.435 0 0 0-.406-.028.46.46 0 0 0-.19.13.7.7 0 0 0-.113.174.7.7 0 0 0-.028.202q0 .11.056.22a.5.5 0 0 0 .123.185.44.44 0 0 0 .17.12.53.53 0 0 0 .435 0 .43.43 0 0 0 .189-.139.34.34 0 0 0 .085-.174l.188.046a.63.63 0 0 1-.396.432 1 1 0 0 1-.312.073.7.7 0 0 1-.283-.046.75.75 0 0 1-.406-.404.8.8 0 0 1-.067-.285.64.64 0 0 1 .208-.497.64.64 0 0 1 .265-.165.7.7 0 0 1 .293-.055c.113 0 .198.027.293.073z"/></g><defs><clipPath id="a"><path fill="#fff" d="M0 0h48v46.154H0z"/></clipPath></defs></svg>