<svg xmlns="http://www.w3.org/2000/svg" width="18" height="18" fill="none"><path fill="#A65F3E" d="M8.04 10.331a.41.41 0 0 1-.414-.414.4.4 0 0 1 .121-.292l8.071-8.071a.414.414 0 1 1 .585.585l-8.07 8.071a.4.4 0 0 1-.293.121"/><path fill="#A65F3E" d="M16.11 1.5c.09 0 .178.034.245.101a.35.35 0 0 1 0 .492l-8.07 8.07a.346.346 0 0 1-.49 0 .35.35 0 0 1 0-.49l8.07-8.072a.35.35 0 0 1 .245-.101m0-.133a.48.48 0 0 0-.338.14L7.7 9.578a.47.47 0 0 0-.14.34.475.475 0 0 0 .478.478c.13 0 .25-.05.34-.14l8.07-8.071a.48.48 0 0 0-.339-.818"/><path fill="#FFE082" d="m1.701 12.438 3.89 3.889c.873-.963 1.62-2.057 2.023-3.313.03-.091.034-.24.128-.359.451-.566 1.865-2.008.706-3.167-1.106-1.106-2.438.227-2.994.686-.17.14-.384.228-.606.276-1.493.326-3.034 1.869-3.147 1.988"/><path fill="#FFE082" d="M8.385 8.577a.62.62 0 0 1 .393-.085c.098.018.237.135.38.28.144.143.28.304.32.408s-.005.242-.005.242c-.116.23-.383.69-.6.624-.24-.074-.482-.305-.66-.479a1.5 1.5 0 0 1-.276-.328c-.096-.177.008-.324.129-.447.086-.082.232-.17.319-.215"/><path fill="#F9C248" d="M8.327 8.975c.116.11.21.243.339.338.252.185.455.097.62-.052.049-.044.122-.1.17-.055a.1.1 0 0 1 .025.051.45.45 0 0 1-.045.273 1.3 1.3 0 0 1-.433.529c-.032.022-.07.044-.11.032a.12.12 0 0 1-.056-.045c-.207-.244-.37-.533-.626-.724-.103-.076-.364-.132-.298-.303.1-.262.317-.137.414-.044"/><path fill="#F9C248" d="M7.614 13.014c.028-.091.033-.24.127-.359.515-.645 1.223-1.38 1.145-2.275-.01-.123-.169-.75-.342-.514-.04.052-.024.315-.03.379-.1 1.172-1.02 1.821-1.19 2.024s-.164.393-.31.695a5 5 0 0 1-.61.947c-.379.47-.825.88-1.286 1.27a.8.8 0 0 0-.203.217c-.131.241.153.406.305.558l.369.368c.873-.961 1.62-2.055 2.025-3.31"/><path fill="#E2A610" d="M5.537 15.809c-.1-.157-.242-.3-.317-.458a.24.24 0 0 1-.03-.123c.01-.08.13-.15.187-.198q.129-.108.254-.22c.162-.149.314-.314.419-.509.017-.031.032-.07.016-.102-.035-.065-.238.152-.275.186-.105.092-.208.187-.318.272-.146.113-.422.304-.618.213-.1-.046-.19-.169-.263-.249-.084-.094-.164-.191-.252-.283a17 17 0 0 0-.592-.582c-.05-.046-.06-.066-.003-.122a10 10 0 0 0 .546-.58c.022-.025.044-.067.017-.09-.018-.015-.048-.004-.07.007-.26.138-.467.354-.692.544-.055.046-.214-.13-.249-.158-.092-.073-.154-.102-.046-.21.484-.49.972-.946 1.554-1.323.107-.07.22-.14.28-.253-.01-.03-.054-.026-.085-.015-.807.29-1.89 1.291-1.983 1.38-.162.158-.454-.206-.885-.481-.147-.094 0-.235.038-.279.26-.307.603-.642.603-.642-.127.013-.956.76-1.054.873-.084.097-.17.184-.175.318a.52.52 0 0 0 .107.325c.77 1.05 2.586 2.794 3.23 3.253.384.274.502.224.659.068a.35.35 0 0 0 .105-.3.65.65 0 0 0-.108-.263"/><path fill="#A65F3E" d="M8.835 10.176s-.438-.825-1.017-1.074c0 0-.02-.054.02-.1.052-.057.12-.07.157-.046.427.265.812.619 1.007 1.102.039.093-.131.23-.167.118"/><path fill="#F44336" d="M7.64 12.88c-.528-.818-1.63-1.937-2.46-2.524-.066-.046.204-.204.272-.156a9.7 9.7 0 0 1 2.31 2.398c.045.067-.091.33-.123.282M8.193 12.078c-.506-.71-1.521-1.738-2.238-2.312-.062-.05.182-.22.232-.181.755.602 1.668 1.499 2.18 2.263.037.057-.138.282-.174.23"/></svg>