<svg width="16" height="16" viewBox="0 0 16 16" fill="none" xmlns="http://www.w3.org/2000/svg">
<path d="M4.02102 14.418C4.02102 14.418 3.82659 14.6658 3.32106 14.6658C2.81553 14.6658 2.62109 14.418 2.62109 14.418V5.74512H4.02102V14.418Z" fill="#9E9E9E"/>
<path d="M4.02102 14.4179C4.02102 14.4179 3.82659 14.6657 3.32106 14.6657C2.81553 14.6657 2.62109 14.4179 2.62109 14.4179V11.077C2.62109 11.077 2.76331 10.8059 3.28328 10.8059C3.80325 10.8059 4.02102 11.077 4.02102 11.077V14.4179Z" fill="#BDBDBD"/>
<path d="M13.3765 14.418C13.3765 14.418 13.1821 14.6658 12.6765 14.6658C12.171 14.6658 11.9766 14.418 11.9766 14.418V5.74512H13.3765V14.418Z" fill="#9E9E9E"/>
<path d="M13.3765 14.4179C13.3765 14.4179 13.1821 14.6657 12.6765 14.6657C12.171 14.6657 11.9766 14.4179 11.9766 14.4179V11.077C11.9766 11.077 12.1188 10.8059 12.6387 10.8059C13.1587 10.8059 13.3765 11.077 13.3765 11.077V14.4179Z" fill="#BDBDBD"/>
<path d="M14.3623 9.98379H1.63633C1.46856 9.98379 1.33301 9.84825 1.33301 9.68048V5.79624C1.33301 5.62847 1.46856 5.49292 1.63633 5.49292H14.3623C14.5301 5.49292 14.6656 5.62847 14.6656 5.79624V9.68048C14.6656 9.84825 14.5301 9.98379 14.3623 9.98379Z" fill="#9E9E9E"/>
<path d="M14.3623 5.71509H1.63633C1.46856 5.71509 1.33301 5.85064 1.33301 6.01841V9.90264C1.33301 10.0704 1.46856 10.206 1.63633 10.206H14.3623C14.5301 10.206 14.6656 10.0704 14.6656 9.90264V6.01841C14.6656 5.85064 14.5301 5.71509 14.3623 5.71509Z" fill="#FFD600"/>
<path d="M2.82515 5.71509L1.33301 7.20723V9.40712L5.02504 5.71509H2.82515Z" fill="#212121"/>
<path d="M7.01027 5.71509L2.52051 10.206H4.72039L9.21016 5.71509H7.01027Z" fill="#212121"/>
<path d="M11.1969 5.71509L6.70605 10.206H8.90594L13.3957 5.71509H11.1969Z" fill="#212121"/>
<path d="M14.6658 6.43188L10.8916 10.2061H13.0915L14.6658 8.63177V6.43188Z" fill="#212121"/>
<path d="M13.5322 5.9095H11.8223C11.6623 5.9095 11.5445 5.80506 11.5823 5.6984L11.7012 4.95288H13.6511L13.77 5.6984C13.81 5.80617 13.6922 5.9095 13.5322 5.9095Z" fill="#E2A610"/>
<path d="M12.6768 4.93514C13.4567 4.93514 14.0889 4.3029 14.0889 3.52299C14.0889 2.74308 13.4567 2.11084 12.6768 2.11084C11.8969 2.11084 11.2646 2.74308 11.2646 3.52299C11.2646 4.3029 11.8969 4.93514 12.6768 4.93514Z" fill="#FFCA28"/>
<path d="M12.6761 4.56629C13.2523 4.56629 13.7194 4.0992 13.7194 3.52301C13.7194 2.94683 13.2523 2.47974 12.6761 2.47974C12.0999 2.47974 11.6328 2.94683 11.6328 3.52301C11.6328 4.0992 12.0999 4.56629 12.6761 4.56629Z" fill="#FF5722"/>
<path d="M13.652 4.96417H11.7021C11.7021 4.96417 11.7088 4.65308 12.2666 4.65308C12.8243 4.65308 13.0932 4.65308 13.0932 4.65308C13.6832 4.65308 13.652 4.96417 13.652 4.96417Z" fill="#FFCA28"/>
<path d="M12.7998 3.02315L13.0665 2.67872C13.0787 2.66317 13.1031 2.67539 13.0987 2.69428L12.9954 3.11759C12.9709 3.21647 13.0465 3.31202 13.1487 3.3098L13.5842 3.30313C13.6042 3.30313 13.6098 3.3298 13.592 3.33869L13.1965 3.52201C13.1042 3.56534 13.0776 3.68311 13.142 3.762L13.4187 4.09865C13.4309 4.1142 13.4142 4.13531 13.3965 4.12642L13.0065 3.93199C12.9154 3.88644 12.8065 3.93866 12.7843 4.03865L12.6932 4.46529C12.6887 4.48529 12.6609 4.48529 12.6576 4.46529L12.5665 4.03865C12.5454 3.93866 12.4354 3.88644 12.3443 3.93199L11.9543 4.12642C11.9365 4.13531 11.9188 4.11309 11.9321 4.09865L12.2087 3.762C12.2732 3.68311 12.2465 3.56534 12.1543 3.52201L11.7588 3.33869C11.741 3.3298 11.7465 3.30313 11.7665 3.30313L12.2021 3.3098C12.3043 3.31091 12.3798 3.21647 12.3554 3.11759L12.2521 2.69428C12.2476 2.67539 12.2721 2.66317 12.2843 2.67872L12.5509 3.02315C12.6165 3.10314 12.7376 3.10314 12.7998 3.02315Z" fill="#FFD5CA"/>
<path d="M4.17575 5.9095H2.46584C2.30584 5.9095 2.18807 5.80506 2.22585 5.6984L2.34473 4.95288H4.29463L4.41351 5.6984C4.45351 5.80617 4.33574 5.9095 4.17575 5.9095Z" fill="#E2A610"/>
<path d="M3.3223 4.93514C4.10221 4.93514 4.73445 4.3029 4.73445 3.52299C4.73445 2.74308 4.10221 2.11084 3.3223 2.11084C2.5424 2.11084 1.91016 2.74308 1.91016 3.52299C1.91016 4.3029 2.5424 4.93514 3.3223 4.93514Z" fill="#FFCA28"/>
<path d="M3.3216 4.56629C3.89779 4.56629 4.36488 4.0992 4.36488 3.52301C4.36488 2.94683 3.89779 2.47974 3.3216 2.47974C2.74541 2.47974 2.27832 2.94683 2.27832 3.52301C2.27832 4.0992 2.74541 4.56629 3.3216 4.56629Z" fill="#FF5722"/>
<path d="M4.29658 4.96417H2.34668C2.34668 4.96417 2.35335 4.65308 2.91109 4.65308C3.46884 4.65308 3.73772 4.65308 3.73772 4.65308C4.32769 4.65308 4.29658 4.96417 4.29658 4.96417Z" fill="#FFCA28"/>
<path d="M3.44337 3.02315L3.71002 2.67872C3.72224 2.66317 3.74669 2.67539 3.74224 2.69428L3.63892 3.11759C3.61447 3.21647 3.69002 3.31202 3.79224 3.3098L4.22777 3.30313C4.24777 3.30313 4.25333 3.3298 4.23555 3.33869L3.84002 3.52201C3.7478 3.56534 3.72113 3.68311 3.78557 3.762L4.06223 4.09865C4.07445 4.1142 4.05778 4.13531 4.04001 4.12642L3.65003 3.93199C3.55892 3.88644 3.45004 3.93866 3.42782 4.03865L3.33671 4.46529C3.33227 4.48529 3.30449 4.48529 3.30116 4.46529L3.21005 4.03865C3.18894 3.93866 3.07894 3.88644 2.98784 3.93199L2.59786 4.12642C2.58008 4.13531 2.56231 4.11309 2.57564 4.09865L2.85229 3.762C2.91673 3.68311 2.89007 3.56534 2.79785 3.52201L2.40231 3.33869C2.38454 3.3298 2.39009 3.30313 2.41009 3.30313L2.84562 3.3098C2.94784 3.31091 3.02339 3.21647 2.99895 3.11759L2.89562 2.69428C2.89118 2.67539 2.91562 2.66317 2.92784 2.67872L3.19449 3.02315C3.26005 3.10314 3.38115 3.10314 3.44337 3.02315Z" fill="#FFD5CA"/>
</svg>
