	<svg
												width="16"
												height="16"
												viewBox="0 0 16 16"
												fill="none"
												xmlns="http://www.w3.org/2000/svg"
											>
												<path
													d="M7.26714 3.8662C7.49161 3.74063 8.10058 3.44726 9.35185 4.41405C10.6031 5.38083 10.3231 6.16538 10.1819 6.36985C10.0164 6.61099 8.97291 7.45221 8.97291 7.45221L3.20108 14.5809C3.20108 14.5809 2.76991 14.5286 2.19206 14.1286C1.56865 13.6974 1.06748 12.7095 1.4453 11.9939C1.65755 11.5927 6.10588 5.38972 6.95488 4.2118C7.03156 4.10623 7.10601 3.95621 7.26714 3.8662Z"
													fill="#FE180A"
												/>
												<path
													d="M8.02849 7.3418L3.06787 14.5516C3.06787 14.5516 3.47348 14.6861 3.80018 14.6727C4.2558 14.6549 4.49805 14.4571 4.49805 14.4571L9.24642 7.60072L8.02849 7.3418Z"
													fill="#CA1837"
												/>
												<path
													d="M1.84641 11.3867L1.57087 11.7978C1.57087 11.7978 1.51976 12.3256 2.17861 12.9911C2.42416 13.2388 2.6797 13.4199 2.9008 13.5533C3.26856 13.7755 3.54299 13.8599 3.54299 13.8599L3.73853 13.5866C3.73853 13.5866 3.4841 13.4988 3.21078 13.3311C2.91857 13.1511 2.5997 12.8833 2.38971 12.6478C1.76641 11.9467 1.84641 11.3867 1.84641 11.3867Z"
													fill="#FDB900"
												/>
												<path
													d="M5.03675 13.6786L4.8112 14.0052C4.8112 14.0052 4.529 14.0408 4.12124 14.0019C3.87125 13.9785 3.54016 13.8597 3.54016 13.8597L3.73015 13.583C3.73015 13.583 3.95458 13.673 4.30568 13.7086C4.65677 13.7441 5.03675 13.6786 5.03675 13.6786Z"
													fill="#DF7D15"
												/>
												<path
													d="M7.47943 4.15898C7.19722 4.42564 7.35055 5.08227 8.25828 5.69446C9.19267 6.32554 9.8082 6.23554 9.98708 5.99111C10.1748 5.73335 9.74265 5.04227 9.14157 4.59674C8.51049 4.12899 7.78608 3.869 7.47943 4.15898Z"
													fill="#A42615"
												/>
												<path
													d="M6.10048 5.39899C6.10048 5.39899 5.99493 5.85008 6.72933 6.58449C7.09709 6.95224 7.35708 7.14001 7.5704 7.26556C7.78705 7.39222 7.94593 7.45889 7.94593 7.45889L8.59146 7.23667L8.62812 6.45783C8.62812 6.45783 7.90705 6.08785 7.42596 5.54565C6.80266 4.84235 6.91377 4.44793 6.94377 4.22461C6.83599 4.35571 6.10048 5.39899 6.10048 5.39899Z"
													fill="#FDB700"
												/>
												<path
													d="M9.98728 6.57724L9.18066 7.69941C9.18066 7.69941 9.044 7.79051 8.55958 7.67608C8.2707 7.60719 7.94739 7.45942 7.94739 7.45942L8.62957 6.45947C8.62957 6.45947 9.034 6.64502 9.35954 6.67279C9.67285 6.69835 9.98728 6.57724 9.98728 6.57724Z"
													fill="#DE7F14"
												/>
												<path
													d="M8.40293 4.97806C8.3796 5.1025 8.47404 5.24583 8.63514 5.34582C8.79513 5.44693 8.99735 5.3636 9.00957 5.27471C9.02179 5.18583 9.07067 4.23477 9.4551 4.1881C9.84174 4.14033 10.0195 4.92473 10.7684 5.12694C11.3061 5.27138 11.475 5.1325 11.475 5.1325L11.4039 4.70474C11.4039 4.70474 11.1795 4.84696 10.7328 4.59808C10.2639 4.33699 10.0495 3.61147 9.37288 3.67702C8.67181 3.74479 8.5707 4.52698 8.52293 4.66363C8.47404 4.79918 8.41071 4.93584 8.40293 4.97806Z"
													fill="#D8A26D"
												/>
												<path
													d="M9.93205 2.54571C9.98539 2.6535 11.2544 4.66376 11.2544 4.66376C11.2544 4.66376 11.2633 7.23741 11.2633 7.32743C11.2633 7.48856 11.3711 7.55079 11.4956 7.39855C11.5645 7.31409 12.5679 5.64721 12.5679 5.64721C12.5679 5.64721 14.2659 6.34397 14.3915 6.40731C14.5171 6.46954 14.5882 6.38953 14.5171 6.23729C14.4459 6.08505 13.328 4.08368 13.328 4.08368C13.328 4.08368 14.4182 2.52904 14.4804 2.40347C14.5426 2.2779 14.4537 2.19789 14.337 2.25123C14.2204 2.30457 12.8713 2.97466 12.8713 2.97466C12.8713 2.97466 12.379 1.55003 12.3435 1.46447C12.2812 1.31223 12.1823 1.28556 12.1379 1.47336C12.0934 1.66116 11.6467 3.2158 11.6467 3.2158C11.6467 3.2158 10.2165 2.46459 10.0921 2.41125C9.96761 2.35791 9.87871 2.43903 9.93205 2.54571Z"
													fill="#FD8E02"
												/>
												<path
													d="M10.9332 3.33275L11.7021 4.44936L11.6843 6.2726L12.3809 5.03044L13.6764 5.70041L12.7831 4.20826L13.3553 3.27942C13.3553 3.27942 12.6231 3.69051 12.6043 3.64607C12.5854 3.60163 12.282 2.68945 12.282 2.68945L11.9787 3.75273L10.9332 3.33275Z"
													fill="#FFE268"
												/>
												<path
													d="M11.2556 5.19045L11.2534 4.7427C11.2534 4.7427 11.5212 4.70381 11.7712 4.44272C11.9889 4.21384 12.1523 3.90719 12.3411 4.17495C12.4834 4.37716 12.1689 4.73159 11.9134 4.91714C11.5223 5.20379 11.2556 5.19045 11.2556 5.19045Z"
													fill="#FCBA03"
												/>
											</svg>