<svg width="32" height="32" fill="none" xmlns="http://www.w3.org/2000/svg"><path d="M13.72 12.839l-9.054.92s.05.649.236.798c.178.142 5.617.066 11.048.088 5.433.023 10.82.125 10.944.072.249-.107.249-.992.249-.992l-13.424-.886zM16.55 7.787l-12.623-.32s.275.61.637.813c.523.29 3.71.889 11.518.918 7.808.028 10.635-.4 11.317-.678.58-.238 1.215-1.576 1.215-1.576l-12.064.843z" fill="#8A1E0C"/><path d="M21.95 8.658v1.335l2.176-.087V8.542l-2.176.116z" fill="#8A1E0C"/><path d="M21.948 9.566h2.177v16.797l-2.206.294.029-17.09z" fill="#EB2901"/><path d="M21.355 26.19c-.111.193-.111 2.297-.007 2.444.105.147 3.242.104 3.326 0 .085-.104.063-2.38 0-2.464-.062-.085-3.235-.125-3.32.02z" fill="#474C4F"/><path d="M8.462 9.85V8.488l2.042.125v1.22l-2.042.017z" fill="#8A1E0C"/><path d="M8.462 9.55l-.038 17.051 2.08-.207V9.566l-2.042-.015z" fill="#EB2901"/><path d="M7.804 25.919c-.073.073-.147 2.36-.02 2.464.125.104 3.14.129 3.244.024.105-.104.085-2.304.023-2.43-.063-.127-3.142-.163-3.247-.058z" fill="#474C4F"/><path d="M14.788 8.107v4.876l2.393-.33V8.108h-2.393z" fill="#EB2901"/><path d="M27.067 11.978c-.115-.16-.482-.138-.482-.138l-1.137-.013c.002-.398-.01-.913-.078-.996-.116-.137-4.542-.09-4.702.047-.091.078-.11.527-.107.898-2.738-.027-5.99-.058-8.83-.076 0-.384-.012-.849-.078-.915-.116-.116-4.22-.185-4.38-.07-.113.083-.136.647-.138.97-1.384.002-2.275.013-2.34.04-.322.137-.137 2.042-.137 2.042l22.476.16c.002.002.049-1.787-.067-1.95z" fill="#EB2901"/><path d="M3.93 6.942s-.646-.34-1.377-1.573c-.509-.858-.595-1.658-.387-1.778.21-.12 2.154 1.08 5.745 1.616a60.81 60.81 0 008.173.644c2.884.027 5.717-.135 8.397-.644 3.62-.689 4.906-1.436 5.264-1.316.36.12-.109 1.227-.369 1.78-.178.376-.944 1.77-1.515 1.87-.411.072-19.953-.09-19.953-.09l-3.977-.509z" fill="#474C4F"/><path d="M3.31 5.724c-.108.137-.057.457.212 1.06.107.237.415.782.529.917 0 0 2.982.756 11.977.7 8.995-.055 12.108-.62 12.108-.62s.911-1.277.745-1.32c-.096-.024-4.847.98-12.909.898C7.911 7.277 3.311 5.724 3.311 5.724z" fill="#EB2901"/></svg>