<svg width="18" height="18" viewBox="0 0 18 18" fill="none" xmlns="http://www.w3.org/2000/svg">
<path d="M14.9494 13.9422C16.2318 12.4261 17.3268 9.70245 16.1956 6.57511C15.6443 5.05269 15.0219 4.20274 14.2969 3.66277C13.8557 3.33403 12.0933 2.50658 9.75965 2.86781C8.05349 3.13279 5.77487 4.20899 4.29369 5.96014C2.85752 7.6613 1.74883 9.00498 1.69758 10.3099C1.63133 11.9886 2.89627 13.431 3.05001 13.6647C3.32374 14.0797 5.19115 16.4521 8.69971 16.5733C11.797 16.6796 13.8144 15.2847 14.9494 13.9422Z" fill="#403D3E"/>
<path d="M4.55363 2.73722C2.93746 3.89091 1.12131 6.25079 1.44754 9.56061C1.60628 11.1718 2.00251 12.1492 2.57123 12.8504C2.91746 13.2779 4.41988 14.5491 6.77351 14.7366C9.14588 14.9253 10.9495 14.3941 12.8332 13.0842C16.6617 10.4206 16.098 6.39328 15.9343 5.92456C15.7705 5.45583 14.5444 2.69598 11.1733 1.71478C8.19844 0.849823 5.98355 1.71478 4.55363 2.73722Z" fill="#5E6367"/>
<path d="M7.39353 2.96109C5.61737 2.89734 3.91996 4.28852 3.75622 6.00593C3.59248 7.72209 4.65492 9.02952 6.30983 9.29576C7.96475 9.56074 9.87839 8.5558 10.2634 6.45091C10.6609 4.28227 9.08969 3.02234 7.39353 2.96109Z" fill="white"/>
<path d="M7.94217 5.90066C7.94217 5.90066 8.36965 5.81192 8.45465 5.18195C8.53839 4.56198 8.23091 4.03326 7.51345 3.84327C6.73349 3.63703 6.20477 4.06576 6.06727 4.51698C5.87603 5.14445 6.15852 5.44319 6.15852 5.44319C6.15852 5.44319 5.39356 5.62693 5.33231 6.52938C5.27481 7.38058 5.85603 7.83806 6.43975 7.97805C7.16096 8.15179 7.97842 7.9543 8.17841 7.03435C8.34465 6.27689 7.94217 5.90066 7.94217 5.90066Z" fill="#303030"/>
<path d="M6.73983 4.75411C6.67109 5.01284 6.80858 5.26283 7.07857 5.33157C7.3698 5.40532 7.63479 5.30908 7.70603 5.01159C7.76853 4.74786 7.64354 4.51537 7.33605 4.44037C7.08357 4.37788 6.81483 4.47162 6.73983 4.75411Z" fill="white"/>
<path d="M6.95978 6.03974C6.6323 5.93849 6.19982 6.06473 6.13107 6.50471C6.06233 6.94469 6.32606 7.16968 6.67104 7.23217C7.01603 7.29467 7.34226 7.11343 7.40601 6.76095C7.4685 6.40972 7.28601 6.13973 6.95978 6.03974Z" fill="white"/>
</svg>
