<svg width="32" height="33" fill="none" xmlns="http://www.w3.org/2000/svg"><path d="M15.909 28.672c-6.2 0-12.888-3.889-12.888-12.422C3.02 7.717 9.709 3.83 15.909 3.83c3.444 0 6.622 1.133 8.977 3.2 2.555 2.266 3.91 5.466 3.91 9.221 0 3.756-1.355 6.933-3.91 9.2-2.355 2.066-5.555 3.222-8.977 3.222z" fill="url(#prefix__paint0_radial_2122_5962)"/><path d="M26.551 8.866c1.184 1.911 1.802 4.187 1.802 6.718 0 3.755-1.355 6.933-3.91 9.2-2.356 2.066-5.556 3.221-8.978 3.221-4.013 0-8.23-1.633-10.706-5.097 2.39 3.924 6.886 5.764 11.15 5.764 3.422 0 6.622-1.156 8.978-3.222 2.555-2.267 3.91-5.444 3.91-9.2 0-2.83-.77-5.346-2.246-7.384z" fill="#EB8F00"/><path d="M18.286 7.717c.2-.178.4-.334.623-.49.222-.155.466-.266.688-.4.49-.222 1.023-.444 1.667-.466.156-.022.311.022.489.022.155 0 .333.067.489.111.044.023.089.023.11.045l.112.066.222.112c.134.088.267.2.4.31.245.223.4.512.533.778.067.134.111.267.156.4.044.134.067.267.089.356l.022.067a.502.502 0 01-.933.333c-.067-.133-.133-.245-.178-.333-.044-.09-.111-.178-.155-.267a2.167 2.167 0 00-.378-.4.484.484 0 00-.111-.067c-.045-.022-.067-.044-.09-.066-.044-.023-.066-.023-.11-.045l-.045-.022h-.066c-.156-.044-.312-.067-.49-.044-.355 0-.777.133-1.2.288-.2.09-.421.178-.621.267-.2.111-.423.2-.645.289l-.044.022a.483.483 0 01-.645-.267.497.497 0 01.111-.6zM11.91 10.829a1.662 1.662 0 01-.445.066c-.133 0-.289.023-.422 0-.29 0-.578-.044-.845-.133a5.419 5.419 0 00-1.266-.178c-.178 0-.356.022-.49.067a.87.87 0 00-.355.222c-.222.222-.444.622-.666 1.022a.51.51 0 01-.69.2.541.541 0 01-.266-.533c.045-.245.111-.511.2-.778.111-.267.222-.533.445-.8.222-.266.51-.489.844-.6.333-.11.644-.155.956-.155.6.022 1.11.177 1.6.355.2.067.4.134.6.178.11.022.2.044.31.044.09 0 .223.023.29.023h.088a.48.48 0 01.467.51c.022.267-.133.445-.356.49zM11.555 22.56c.4-.444 1.467-.955 2.956-.933 1.977.044 3.044.933 3.044.933.644.534.355 1.356-.334 1.289-1.11-.133-1.044-.333-3.044-.378-1.444-.022-2.133.2-2.2.2-.4.022-.555-.133-.622-.4a.74.74 0 01.2-.71zM20.065 12.009c.977 0 1.866.822 1.866 2.2 0 1.377-.889 2.2-1.866 2.2-.978 0-1.867-.823-1.867-2.2 0-1.378.89-2.2 1.867-2.2zM10.043 12.386c-.933 0-1.777.778-1.777 2.089 0 1.31.844 2.088 1.777 2.088.934 0 1.778-.777 1.778-2.088s-.844-2.09-1.778-2.09z" fill="#422B0D"/><path d="M19.858 13.02c-.229-.16-.573-.11-.795.21-.223.323-.15.66.08.82.229.16.573.11.795-.21.225-.322.15-.662-.08-.82z" fill="#896024"/><path d="M25.443 13.363h-1.245v2h1.245c.6 0 1.2-.378 1.2-.956v-.089c0-.6-.6-.955-1.2-.955zm-.112 1.71a.745.745 0 01-.755-.732c0-.4.333-.734.755-.734.423 0 .756.334.756.734 0 .4-.333.733-.756.733zM25.354 18.009c-.067 0-.133-.045-.133-.111v-1.022c0-.067.044-.111.11-.111h.023c.067 0 .111.044.111.11v1.023c0 .044-.044.11-.111.11zM25.354 19.697c-.067 0-.133-.044-.133-.11v-1.023c0-.067.044-.111.11-.111h.023c.067 0 .111.044.111.111v1.022c0 .067-.044.111-.111.111zM25.354 21.407c-.067 0-.133-.044-.133-.11v-1.023c0-.067.044-.111.11-.111h.023c.067 0 .111.044.111.111v1.022c0 .067-.044.111-.111.111zM25.354 23.117c-.067 0-.133-.044-.133-.11v-1.023c0-.066.044-.11.11-.11h.023c.067 0 .111.044.111.11v1.022c0 .067-.044.111-.111.111zM25.354 24.83c-.067 0-.133-.044-.133-.11v-1.023c0-.066.044-.11.11-.11h.023c.067 0 .111.044.111.11v1.023c0 .066-.044.11-.111.11zM25.354 26.54c-.067 0-.133-.044-.133-.11v-1.023c0-.066.044-.11.11-.11h.023c.067 0 .111.044.111.11v1.023c0 .066-.044.11-.111.11zM25.354 28.25c-.067 0-.133-.044-.133-.11v-1.022c0-.067.044-.111.11-.111h.023c.067 0 .111.044.111.11v1.023c0 .066-.044.11-.111.11z" fill="#404040"/><path d="M25.354 16.21c-.067 0-.133-.045-.133-.112v-1.022c0-.067.044-.111.11-.111h.023c.067 0 .111.044.111.111v1.022c0 .045-.044.111-.111.111z" fill="#404040"/><path fill-rule="evenodd" clip-rule="evenodd" d="M25.354 16.051a.467.467 0 100 .934.467.467 0 000-.934zm-.689.467a.689.689 0 111.378 0 .689.689 0 01-1.378 0zM25.354 17.765a.467.467 0 100 .933.467.467 0 000-.933zm-.689.466a.689.689 0 111.378 0 .689.689 0 01-1.378 0zM25.354 19.453a.467.467 0 100 .934.467.467 0 000-.934zm-.689.467a.689.689 0 111.378 0 .689.689 0 01-1.378 0zM25.354 21.163a.467.467 0 100 .934.467.467 0 000-.934zm-.689.467a.689.689 0 111.378 0 .689.689 0 01-1.378 0zM25.354 22.852a.467.467 0 100 .933.467.467 0 000-.933zm-.689.466a.689.689 0 111.378 0 .689.689 0 01-1.378 0zM25.354 24.562a.467.467 0 100 .933.467.467 0 000-.933zm-.689.466a.689.689 0 111.378 0 .689.689 0 01-1.378 0zM25.354 26.253a.467.467 0 100 .934.467.467 0 000-.934zm-.689.467a.689.689 0 111.378 0 .689.689 0 01-1.378 0zM25.354 27.963a.467.467 0 100 .934.467.467 0 000-.934zm-.689.467a.689.689 0 111.378 0 .689.689 0 01-1.378 0z" fill="#404040"/><path d="M19.464 18.786a4.578 4.578 0 100-9.155 4.578 4.578 0 000 9.155z" fill="#CCC" fill-opacity=".5"/><path fill-rule="evenodd" clip-rule="evenodd" d="M19.464 10.02a4.189 4.189 0 100 8.377 4.189 4.189 0 000-8.377zm-4.966 4.188a4.966 4.966 0 119.933 0 4.966 4.966 0 01-9.933 0z" fill="#404040"/><path d="M22.843 13.942c-.09-.845-.467-1.623-1.09-2.156a3.436 3.436 0 00-2.221-.822c-.823 0-1.622.267-2.245.778a3.079 3.079 0 00-1.088 2.133c0 .067-.067.111-.112.089-.044 0-.088-.045-.088-.111a3.088 3.088 0 01.244-1.333c.178-.423.444-.8.778-1.134.666-.644 1.622-.955 2.533-.955.933 0 1.844.355 2.51 1 .334.333.6.71.779 1.133.177.422.244.889.222 1.333 0 .067-.045.111-.111.111-.067.023-.111-.022-.111-.066z" fill="#fff"/><path d="M10.006 13.247c-.23-.16-.574-.109-.796.211-.222.32-.149.66.08.82.229.16.573.11.796-.21.224-.323.15-.663-.08-.82z" fill="#896024"/><defs><radialGradient id="prefix__paint0_radial_2122_5962" cx="0" cy="0" r="1" gradientUnits="userSpaceOnUse" gradientTransform="translate(15.909 16.25) scale(12.657)"><stop offset=".5" stop-color="#FDE030"/><stop offset=".919" stop-color="#F7C02B"/><stop offset="1" stop-color="#F4A223"/></radialGradient></defs></svg>