<svg xmlns="http://www.w3.org/2000/svg" width="12" height="12" viewBox="0 0 12 12" fill="none">
    <g clip-path="url(#clip0_274_16503)">
      <path d="M6 11C8.76142 11 11 8.76142 11 6C11 3.23858 8.76142 1 6 1C3.23858 1 1 3.23858 1 6C1 8.76142 3.23858 11 6 11Z" stroke="#C0C1C3" stroke-linecap="round" stroke-linejoin="round"/>
      <path d="M2.46484 2.46484L4.58484 4.58484" stroke="#C0C1C3" stroke-linecap="round" stroke-linejoin="round"/>
      <path d="M7.41504 4.58484L9.53504 2.46484" stroke="#C0C1C3" stroke-linecap="round" stroke-linejoin="round"/>
      <path d="M7.41504 7.41504L9.53504 9.53504" stroke="#C0C1C3" stroke-linecap="round" stroke-linejoin="round"/>
      <path d="M4.58484 7.41504L2.46484 9.53504" stroke="#C0C1C3" stroke-linecap="round" stroke-linejoin="round"/>
      <path d="M6 8C7.10457 8 8 7.10457 8 6C8 4.89543 7.10457 4 6 4C4.89543 4 4 4.89543 4 6C4 7.10457 4.89543 8 6 8Z" stroke="#C0C1C3" stroke-linecap="round" stroke-linejoin="round"/>
    </g>
    <defs>
      <clipPath id="clip0_274_16503">
        <rect width="12" height="12" fill="white"/>
      </clipPath>
    </defs>
  </svg>