		<svg
									width="16"
									height="16"
									viewBox="0 0 16 16"
									fill="none"
									xmlns="http://www.w3.org/2000/svg"
								>
									<path
										d="M1.71673 14.5874C1.96899 14.8607 3.00801 14.384 3.82811 14.0017C4.44263 13.7161 6.90183 12.7071 8.1242 12.1837C8.45424 12.0426 8.9343 11.8581 9.2799 11.4036C9.58661 10.9991 10.4 9.28113 8.76206 7.54091C7.09963 5.77403 5.38719 6.26186 4.74711 6.71526C4.3704 6.98196 4.06369 7.58314 3.9259 7.88874C3.3436 9.18001 2.5135 11.5459 2.17568 12.476C1.92787 13.1616 1.4667 14.3162 1.71673 14.5874Z"
										fill="#FFC107"
									/>
									<path
										d="M3.76148 8.27783C3.77704 8.47119 3.81592 8.78567 3.94925 9.39131C4.04035 9.80691 4.18924 10.2425 4.31034 10.5303C4.67365 11.396 5.18363 11.7449 5.70027 12.025C6.578 12.5006 7.17463 12.5895 7.17463 12.5895L6.45912 12.8817C6.45912 12.8817 6.02581 12.7917 5.43473 12.5006C4.87142 12.2228 4.28479 11.7527 3.85592 10.8326C3.67037 10.4337 3.5626 10.0469 3.50038 9.74024C3.42372 9.36019 3.4115 9.14461 3.4115 9.14461L3.76148 8.27783Z"
										fill="#FF8F00"
									/>
									<path
										d="M2.88245 10.5312C2.88245 10.5312 2.97133 11.2523 3.56685 12.1623C4.26459 13.2267 5.23899 13.4011 5.23899 13.4011L4.59124 13.6678C4.59124 13.6678 3.86795 13.4467 3.18021 12.5078C2.75134 11.9223 2.63135 11.2223 2.63135 11.2223L2.88245 10.5312Z"
										fill="#FF8F00"
									/>
									<path
										d="M2.26575 12.2402C2.26575 12.2402 2.42796 12.8624 2.7835 13.3268C3.20681 13.8813 3.74567 14.0424 3.74567 14.0424L3.24903 14.2624C3.24903 14.2624 2.87238 14.1835 2.46018 13.6613C2.14687 13.2646 2.05798 12.8091 2.05798 12.8091L2.26575 12.2402Z"
										fill="#FF8F00"
									/>
									<g opacity="0.44">
										<path
											opacity="0.44"
											d="M1.99553 13.8201C1.97331 13.7701 1.97331 13.7134 1.99664 13.6645L4.82649 7.79492L5.29203 9.54514L2.31441 13.8468C2.23441 13.9668 2.05442 13.9513 1.99553 13.8201Z"
											fill="#FFFDE7"
										/>
									</g>
									<path
										d="M5.51737 10.1336C6.83975 11.6804 8.3455 11.4871 8.84667 11.0959C9.34896 10.7037 9.74567 9.35571 8.42884 7.83441C7.04867 6.24088 5.48625 6.69538 5.12509 7.03987C4.76394 7.38435 4.30388 8.71452 5.51737 10.1336Z"
										fill="url(#paint0_linear_2434_23047)"
									/>
									<path
										d="M10.059 10.7698C9.57673 10.3654 9.32003 10.4376 8.97554 10.5809C8.53104 10.7654 7.83206 10.902 6.88306 10.5809L7.16865 9.89321C7.73205 10.0832 8.13988 9.99098 8.49215 9.78321C8.94554 9.51656 9.56561 9.15102 10.5302 9.96098C10.9325 10.2987 11.3447 10.5232 11.647 10.421C11.867 10.3476 11.9837 10.0199 12.0426 9.75877C12.0481 9.73544 12.057 9.66877 12.0637 9.60989C12.117 9.20213 12.2059 8.32218 12.8616 7.8722C13.5628 7.39111 14.2995 7.39111 14.2995 7.39111L14.4329 8.71549C14.094 8.66549 13.8584 8.73438 13.6595 8.84437C12.9105 9.26102 13.5628 10.8609 12.3971 11.3987C11.2758 11.9198 10.359 11.0209 10.059 10.7698Z"
										fill="#03A9F4"
									/>
									<path
										d="M5.93365 9.08114L5.45145 8.64886C6.33696 7.65985 6.10364 6.93309 5.93365 6.40413C5.89921 6.29745 5.86699 6.19633 5.84588 6.09965C5.77032 5.75739 5.75477 5.45957 5.7781 5.19954C5.43812 4.77615 5.28813 4.33276 5.27813 4.30276C5.07147 3.67712 5.22702 3.06705 5.58367 2.49475C6.30474 1.3335 7.61023 1.3335 7.61023 1.3335L8.04576 2.4992C7.71467 2.48586 6.62917 2.50253 6.29585 3.02815C5.87476 3.69046 6.15141 4.0994 6.17141 4.14607C6.25252 4.0405 6.33474 3.95605 6.40807 3.89048C6.94026 3.4182 7.40246 3.35042 7.69689 3.37709C8.02798 3.40709 8.32797 3.57378 8.5424 3.84715C8.77683 4.14718 8.87349 4.53723 8.79905 4.89172C8.72683 5.23732 8.49685 5.52958 8.15131 5.71516C7.54801 6.03964 7.04581 5.99519 6.70916 5.88296C6.71139 5.89074 6.7125 5.89963 6.71472 5.9074C6.72694 5.96297 6.75138 6.04075 6.78027 6.13077C6.97693 6.73973 7.34246 7.70652 5.93365 9.08114ZM6.75027 4.91061C6.81471 4.95728 6.88249 4.99618 6.95248 5.02396C7.1858 5.11731 7.44024 5.08619 7.72911 4.93061C7.8991 4.83949 7.9191 4.7417 7.92577 4.70948C7.94576 4.6128 7.91243 4.48945 7.84021 4.39721C7.77688 4.31609 7.70356 4.27387 7.61578 4.26498C7.44912 4.25053 7.22358 4.3561 6.99804 4.55723C6.89026 4.65391 6.80805 4.77282 6.75027 4.91061Z"
										fill="#F44336"
									/>
									<path
										d="M7.86428 9.26219L7.17419 9.2433C7.17419 9.2433 7.50201 7.39196 8.56326 7.08081C8.76217 7.02302 8.97998 6.96412 9.19889 6.9319C9.32891 6.9119 9.53449 6.88189 9.63561 6.84411C9.65895 6.66964 9.58561 6.44739 9.50337 6.19514C9.43892 5.99956 9.37225 5.79842 9.33669 5.57839C9.26779 5.14945 9.38225 4.77052 9.65895 4.50937C9.99677 4.19266 10.5424 4.09154 11.158 4.23156C11.5092 4.31157 11.7681 4.48381 11.9959 4.63494C12.3215 4.85164 12.5115 4.96165 12.9094 4.69384C13.3905 4.36935 12.7616 3.09919 12.4271 2.36577L13.675 1.8457C13.8428 2.21242 14.6529 4.09932 14.1184 5.17612C13.9384 5.53839 13.6283 5.77842 13.2216 5.86843C12.3371 6.06623 11.8192 5.72175 11.4414 5.4706C11.2625 5.3517 11.1058 5.25835 10.9358 5.20946C9.75452 4.87275 11.4036 6.61075 10.6313 7.39196C10.1679 7.85979 9.03554 7.98314 8.9622 8.00092C8.23322 8.1765 7.86428 9.26219 7.86428 9.26219Z"
										fill="#F48FB1"
									/>
									<path
										d="M5.77735 5.19971C5.75624 5.44414 5.74624 5.58969 5.80957 5.90745C6.11511 6.13188 6.78063 6.13188 6.78063 6.13188C6.75175 6.04189 6.72619 5.96411 6.71508 5.90856C6.71286 5.90078 6.71175 5.89189 6.70953 5.88412C6.03289 5.54636 5.77735 5.19971 5.77735 5.19971Z"
										fill="#C92B27"
									/>
									<path
										d="M4.3926 6.29422L3.24377 5.73092L3.81597 4.9043L4.71703 5.50093L4.3926 6.29422Z"
										fill="#FFC107"
									/>
									<path
										d="M2.69866 4.73376C2.11203 4.65487 1.51428 4.15712 1.44873 4.10046L2.02537 3.42383C2.1998 3.5716 2.56978 3.81936 2.81755 3.85269L2.69866 4.73376Z"
										fill="#FB8C00"
									/>
									<path
										d="M3.73454 3.25204L2.89014 2.97539C2.9868 2.67985 3.01235 2.36097 2.96236 2.05321L3.84009 1.91211C3.9123 2.35875 3.87564 2.82206 3.73454 3.25204Z"
										fill="#03A9F4"
									/>
									<path
										d="M9.87734 2.40185L9.00903 2.5918L9.25976 3.73797L10.1281 3.54802L9.87734 2.40185Z"
										fill="#FB8C00"
									/>
									<path
										d="M11.1633 2.8636L10.5522 2.21808C10.8722 1.91476 10.9456 1.51812 10.9456 1.51367L11.8233 1.657C11.8122 1.72699 11.7 2.35585 11.1633 2.8636Z"
										fill="#FFC107"
									/>
									<path
										d="M12.2788 6.0445L11.5026 6.28711L11.7677 7.13551L12.544 6.8929L12.2788 6.0445Z"
										fill="#FB8C00"
									/>
									<path
										d="M11.7289 13.4486L10.8456 13.3442C10.8833 13.0298 10.6489 12.6442 10.5845 12.5587L11.2955 12.0254C11.3489 12.0954 11.8122 12.7365 11.7289 13.4486Z"
										fill="#F44336"
									/>
									<path
										d="M14.2643 12.3224C13.9321 12.2724 13.5921 12.2524 13.2566 12.2647L13.2266 11.3758C13.6165 11.3625 14.011 11.3847 14.3965 11.4436L14.2643 12.3224Z"
										fill="#FB8C00"
									/>
									<path
										d="M13.6938 12.9134L13.0693 13.5459L13.9287 14.3944L14.5532 13.7619L13.6938 12.9134Z"
										fill="#F48FB1"
									/>
									<path
										d="M11.8765 8.66102L11.2344 7.92676L10.5001 8.56893L11.1423 9.30319L11.8765 8.66102Z"
										fill="#F44336"
									/>
									<defs>
										<linearGradient
											id="paint0_linear_2434_23047"
											x1="9.15497"
											y1="7.7609"
											x2="5.84707"
											y2="9.74564"
											gradientUnits="userSpaceOnUse"
										>
											<stop offset="0.0235" stopColor="#8F4700" />
											<stop offset="1" stopColor="#703E2D" />
										</linearGradient>
									</defs>
								</svg>