<svg width="14" height="14" viewBox="0 0 14 14" fill="none" xmlns="http://www.w3.org/2000/svg">
<path d="M2.91663 3.20801L2.91663 11.083" stroke="white" stroke-width="1.16667"/>
<ellipse cx="6.41663" cy="3.20833" rx="3.5" ry="1.45833" stroke="white" stroke-width="1.16667"/>
<ellipse cx="6.41663" cy="3.16439" rx="0.875" ry="0.364583" fill="white"/>
<path d="M9.91663 11.083C9.91663 11.7273 8.34962 12.2497 6.41663 12.2497C4.48363 12.2497 2.91663 11.7273 2.91663 11.083" stroke="white" stroke-width="1.16667"/>
<path d="M5.25 6.41699V7.53424C5.25 7.56276 5.27062 7.58709 5.29874 7.59178L6.95126 7.8672C6.97938 7.87189 7 7.89623 7 7.92474V9.91699" stroke="white" stroke-width="1.16667" stroke-linecap="round"/>
<path d="M9.91663 3.20801V6.31109C9.91663 6.35691 9.96702 6.38484 10.0059 6.36056L12.1819 5.00054C12.2155 4.97954 12.2598 4.99742 12.2694 5.03586L12.5341 6.09457C12.5388 6.11339 12.5338 6.13332 12.5209 6.14774L9.9316 9.0247C9.92196 9.03541 9.91663 9.04931 9.91663 9.06373V11.083" stroke="white" stroke-width="1.16667"/>
</svg>
