<svg width="32" height="32" fill="none" xmlns="http://www.w3.org/2000/svg"><path fill-rule="evenodd" clip-rule="evenodd" d="M17.947 6.906h-6.62V6.24h6.62v.666zM17.947 10.293h-6.62v-.667h6.62v.667z" fill="#616161"/><path d="M16.174 29.403h-2.553V3.442s.238-.553 1.278-.553 1.278.553 1.278.553v25.96h-.003z" fill="#9E9E9E"/><path d="M15.519 2.971v20.974H13.62v1.91c.322.001.613.04.876.097a1.3 1.3 0 011.024 1.269v2.182h.655V3.442c-.002 0-.14-.318-.657-.471z" fill="#757575"/><path d="M22.362 2.738a5.382 5.382 0 00-5.381 5.401 5.365 5.365 0 005.381 5.382 5.378 5.378 0 005.382-5.382c0-2.975-2.406-5.401-5.382-5.401z" fill="#2196F3"/><path d="M24.713 4.749c-.338-.085-1.011-.174-2.349-.174-1.338 0-2.01.087-2.349.174-.2.05-.869.328-.869 1.077v4.618c0 .253.205.46.46.46h.17v.51c0 .15.12.27.268.27h.545c.149 0 .269-.12.269-.27v-.51h3.008v.51c0 .15.12.27.27.27h.544c.148 0 .268-.12.268-.27v-.51h.174a.46.46 0 00.46-.46V5.826c0-.717-.67-1.029-.87-1.077zm-3.802.366c0-.113.09-.204.204-.204h2.494c.113 0 .204.09.204.204v.362a.204.204 0 01-.204.205h-2.494a.204.204 0 01-.204-.205v-.362zm.042 4.864a.139.139 0 01-.138.138h-.549a.469.469 0 01-.468-.469v-.246c0-.076.062-.138.137-.138h.55c.257 0 .468.209.468.469v.246zm3.973-.33a.469.469 0 01-.469.468h-.549a.138.138 0 01-.137-.138v-.246c0-.258.209-.47.468-.47h.55c.075 0 .137.063.137.139v.246zm.125-2.007c0 .297-.645.817-2.69.817-2.046 0-2.688-.482-2.688-.817V6.277c0-.089.089-.31.311-.31h4.791c.222 0 .276.224.276.31v1.365z" fill="#fff"/><path d="M18.86 24.652h-7.926a.506.506 0 01-.506-.507V14.99c0-.28.226-.506.506-.506h7.924c.28 0 .507.226.507.506v9.155c0 .28-.227.507-.504.507z" fill="#F5F5F5"/><path opacity=".8" d="M18.005 23.139h-6.216l-.018-7.235h6.218l.015 7.235z" fill="#82AEC0"/><path fill-rule="evenodd" clip-rule="evenodd" d="M14.66 23.234v-7.33h.444v7.33h-.445z" fill="#F5F5F5"/><path d="M14.658 15.904h-2.886v.604h2.886v-.604z" fill="#616161"/><path fill-rule="evenodd" clip-rule="evenodd" d="M18.03 21.879h-6.263v-.223h6.264v.223zM18.03 20.412h-6.263v-.222h6.264v.222zM17.989 18.946H11.77v-.223h6.218v.223zM17.99 17.482h-6.223v-.223h6.224v.223z" fill="#F5F5F5"/><path d="M17.988 18.534h-2.886v.605h2.886v-.605zM14.672 19.999h-2.878v.604h2.878V20z" fill="#616161"/><path fill-rule="evenodd" clip-rule="evenodd" d="M10.935 14.817a.173.173 0 00-.174.173v9.155c0 .096.078.174.174.174h7.926a.173.173 0 00.171-.174V14.99a.173.173 0 00-.173-.173h-7.924zm-.84.173a.84.84 0 01.84-.84h7.924a.84.84 0 01.84.84v9.155a.84.84 0 01-.838.84h-7.926a.84.84 0 01-.84-.84V14.99z" fill="#9E9E9E"/><path d="M10.968 24.323c-.344.031-.344-.195-.344-.258V15.1c0-.25.204-.455.456-.455h7.693c.208 0 .304.127.262.384 0 0-.027-.164-.227-.164h-7.726a.237.237 0 00-.236.235v8.969c0 .209.122.255.122.255z" fill="#757575"/><path d="M12.268 4.933H4.695v6.577h7.573V4.933z" fill="#FFCA28"/><path d="M11.845 4.933c.233 0 .422.189.422.422v5.733a.422.422 0 01-.422.422H5.119a.422.422 0 01-.423-.422V5.355c0-.233.19-.422.423-.422h6.726zm0-.444H5.119a.868.868 0 00-.867.866v5.733c0 .478.389.867.867.867h6.726a.868.868 0 00.866-.867V5.355a.866.866 0 00-.866-.866z" fill="#9E9E9E"/><path fill-rule="evenodd" clip-rule="evenodd" d="M12.27 7.308H4.696v-.444h7.575v.444zM12.27 9.58H4.696v-.445h7.575v.444z" fill="#FFFDE7"/><path d="M7.066 5.664H5.162v.502h1.904v-.502zM6.598 10.27H5.162v.503h1.436v-.502zM11.648 10.27h-1.435v.503h1.435v-.502zM11.648 5.664h-1.435v.502h1.435v-.502zM10.301 7.968h-.826v.502h.826v-.502zM11.647 7.968h-.827v.502h.827v-.502zM7.802 7.968h-2.64v.502h2.64v-.502z" fill="#757575"/></svg>