<svg width="16" height="16" viewBox="0 0 16 16" fill="none" xmlns="http://www.w3.org/2000/svg">
<g opacity="0.2">
<mask id="path-1-inside-1_2586_2806" fill="white">
<path d="M15.0588 8.00023C15.0588 11.8987 11.8985 15.0591 7.99999 15.0591C4.10151 15.0591 0.941162 11.8987 0.941162 8.00023C0.941162 4.10175 4.10151 0.941406 7.99999 0.941406C11.8985 0.941406 15.0588 4.10175 15.0588 8.00023ZM3.48234 8.00023C3.48234 10.4953 5.50496 12.5179 7.99999 12.5179C10.495 12.5179 12.5176 10.4953 12.5176 8.00023C12.5176 5.5052 10.495 3.48258 7.99999 3.48258C5.50496 3.48258 3.48234 5.5052 3.48234 8.00023Z"/>
</mask>
<path d="M15.0588 8.00023C15.0588 11.8987 11.8985 15.0591 7.99999 15.0591C4.10151 15.0591 0.941162 11.8987 0.941162 8.00023C0.941162 4.10175 4.10151 0.941406 7.99999 0.941406C11.8985 0.941406 15.0588 4.10175 15.0588 8.00023ZM3.48234 8.00023C3.48234 10.4953 5.50496 12.5179 7.99999 12.5179C10.495 12.5179 12.5176 10.4953 12.5176 8.00023C12.5176 5.5052 10.495 3.48258 7.99999 3.48258C5.50496 3.48258 3.48234 5.5052 3.48234 8.00023Z" stroke="#4E74F8" stroke-width="3.25792" mask="url(#path-1-inside-1_2586_2806)"/>
</g>
<mask id="path-2-inside-2_2586_2806" fill="white">
<path d="M7.99999 15.0591C9.8721 15.0591 11.6675 14.3154 12.9913 12.9916C14.3151 11.6678 15.0588 9.87235 15.0588 8.00023C15.0588 6.12811 14.3151 4.33267 12.9913 3.00889C11.6675 1.6851 9.8721 0.941407 7.99999 0.941406L7.99999 3.48258C9.19814 3.48258 10.3472 3.95855 11.1944 4.80577C12.0417 5.65299 12.5176 6.80208 12.5176 8.00023C12.5176 9.19838 12.0417 10.3475 11.1944 11.1947C10.3472 12.0419 9.19814 12.5179 7.99999 12.5179L7.99999 15.0591Z"/>
</mask>
<path d="M7.99999 15.0591C9.8721 15.0591 11.6675 14.3154 12.9913 12.9916C14.3151 11.6678 15.0588 9.87235 15.0588 8.00023C15.0588 6.12811 14.3151 4.33267 12.9913 3.00889C11.6675 1.6851 9.8721 0.941407 7.99999 0.941406L7.99999 3.48258C9.19814 3.48258 10.3472 3.95855 11.1944 4.80577C12.0417 5.65299 12.5176 6.80208 12.5176 8.00023C12.5176 9.19838 12.0417 10.3475 11.1944 11.1947C10.3472 12.0419 9.19814 12.5179 7.99999 12.5179L7.99999 15.0591Z" stroke="#4E74F8" stroke-width="3.25792" mask="url(#path-2-inside-2_2586_2806)"/>
</svg>
