<svg width="16" height="16" viewBox="0 0 16 16" fill="none" xmlns="http://www.w3.org/2000/svg">
<mask id="path-1-inside-1_2434_32242" fill="white">
<path d="M15.0588 8.00023C15.0588 11.8987 11.8985 15.0591 7.99999 15.0591C4.10151 15.0591 0.941162 11.8987 0.941162 8.00023C0.941162 4.10175 4.10151 0.941406 7.99999 0.941406C11.8985 0.941406 15.0588 4.10175 15.0588 8.00023ZM2.63528 8.00023C2.63528 10.9631 5.03714 13.3649 7.99999 13.3649C10.9628 13.3649 13.3647 10.9631 13.3647 8.00023C13.3647 5.03738 10.9628 2.63552 7.99999 2.63552C5.03714 2.63552 2.63528 5.03738 2.63528 8.00023Z"/>
</mask>
<path d="M15.0588 8.00023C15.0588 11.8987 11.8985 15.0591 7.99999 15.0591C4.10151 15.0591 0.941162 11.8987 0.941162 8.00023C0.941162 4.10175 4.10151 0.941406 7.99999 0.941406C11.8985 0.941406 15.0588 4.10175 15.0588 8.00023ZM2.63528 8.00023C2.63528 10.9631 5.03714 13.3649 7.99999 13.3649C10.9628 13.3649 13.3647 10.9631 13.3647 8.00023C13.3647 5.03738 10.9628 2.63552 7.99999 2.63552C5.03714 2.63552 2.63528 5.03738 2.63528 8.00023Z" stroke="white" stroke-opacity="0.2" stroke-width="3.25792" mask="url(#path-1-inside-1_2434_32242)"/>
<mask id="path-2-inside-2_2434_32242" fill="white">
<path d="M15.0588 8.00023C15.0588 7.07325 14.8762 6.15535 14.5215 5.29893C14.1667 4.44252 13.6468 3.66436 12.9913 3.00889C12.3359 2.35342 11.5577 1.83347 10.7013 1.47873C9.84486 1.12399 8.92696 0.941406 7.99999 0.941406L7.99999 2.63552C8.70449 2.63552 9.40209 2.77429 10.053 3.04389C10.7038 3.31349 11.2952 3.70865 11.7934 4.20681C12.2916 4.70497 12.6867 5.29637 12.9563 5.94725C13.2259 6.59812 13.3647 7.29573 13.3647 8.00023H15.0588Z"/>
</mask>
<path d="M15.0588 8.00023C15.0588 7.07325 14.8762 6.15535 14.5215 5.29893C14.1667 4.44252 13.6468 3.66436 12.9913 3.00889C12.3359 2.35342 11.5577 1.83347 10.7013 1.47873C9.84486 1.12399 8.92696 0.941406 7.99999 0.941406L7.99999 2.63552C8.70449 2.63552 9.40209 2.77429 10.053 3.04389C10.7038 3.31349 11.2952 3.70865 11.7934 4.20681C12.2916 4.70497 12.6867 5.29637 12.9563 5.94725C13.2259 6.59812 13.3647 7.29573 13.3647 8.00023H15.0588Z" stroke="white" stroke-width="3.25792" mask="url(#path-2-inside-2_2434_32242)"/>
</svg>
