<svg
												width="16"
												height="16"
												viewBox="0 0 16 16"
												fill="none"
												xmlns="http://www.w3.org/2000/svg"
											>
												<path
													d="M2.30535 14.0629C3.04433 14.8019 3.94222 14.5452 4.46117 13.954C4.99124 13.3495 5.2735 12.9984 5.2735 12.9984C5.93469 12.0249 8.66614 8.77116 10.9975 6.42975C11.322 6.5631 11.6665 6.63311 12.0121 6.63311C12.6277 6.63311 13.2445 6.42086 13.7379 5.99525C14.3335 5.48186 14.6691 4.73843 14.6602 3.955C14.6591 3.90055 14.6302 3.84943 14.5824 3.82276C14.5347 3.79609 14.4769 3.79609 14.4291 3.82276L12.8233 4.74954C12.0477 4.48173 11.5887 3.68385 11.7465 2.88598L13.3467 1.96253C13.3945 1.93474 13.4234 1.88474 13.4234 1.82918C13.4234 1.77361 13.3945 1.72361 13.3467 1.69583C12.3077 1.08797 10.9875 1.2591 10.1363 2.11032C9.62071 2.62594 9.33845 3.33937 9.36179 4.06723C9.37512 4.49284 9.48736 4.89734 9.68627 5.2585C7.11039 7.8266 3.96778 10.6036 3.1499 11.2237C3.1499 11.2237 2.65761 11.5804 2.18756 12.0638C1.72416 12.5405 1.55192 13.3095 2.30535 14.0629ZM2.84653 12.9261C2.84653 12.5994 3.111 12.3338 3.43882 12.3338C3.76664 12.3338 4.03112 12.5983 4.03112 12.9261C4.03112 13.2528 3.76664 13.5184 3.43882 13.5184C3.111 13.5184 2.84653 13.2528 2.84653 12.9261Z"
													fill="#82AEC0"
												/>
												<path
													d="M9.33398 5.60826C9.44953 5.4938 9.5673 5.37823 9.6873 5.25822C9.48842 4.89706 9.3762 4.49256 9.36287 4.06695C9.35398 3.77803 9.39287 3.49244 9.47509 3.22018C9.54841 3.10017 9.66396 2.97126 9.73729 3.04905C9.7073 3.99472 9.98173 4.9804 10.6395 5.66049C10.9661 5.99831 11.3905 6.24167 11.8461 6.35613C12.0705 6.41281 12.3038 6.43836 12.536 6.42503C12.6727 6.41725 13.0549 6.27612 13.1316 6.38058C13.1316 6.38058 13.1316 6.38391 13.1316 6.38502C12.7782 6.54949 12.3949 6.63172 12.0116 6.63172C11.6661 6.63172 11.3205 6.56171 10.9972 6.42836C10.2428 7.18624 9.61841 7.86854 9.09399 8.47862C9.3562 7.983 10.1284 7.06955 10.335 6.72062C10.3817 6.64172 10.4461 6.43948 10.2995 6.25723C10.0917 6.00164 9.66619 5.76383 9.33398 5.60826Z"
													fill="#2F7889"
												/>
												<path
													d="M6.18641 9.52893C6.24641 9.46671 6.18974 9.36227 6.1053 9.38116C5.94753 9.4156 5.71977 9.50559 5.44867 9.72558C4.91759 10.1567 3.51544 11.3211 3.34212 11.551C3.16879 11.781 3.86431 11.5477 4.10874 11.5044C4.30984 11.4677 5.71088 10.0233 6.18641 9.52893Z"
													fill="#B9E4EA"
												/>
												<path
													d="M11.0483 2.10366C10.7517 2.31588 10.485 2.56808 10.2072 2.80474C10.1361 2.86585 10.0306 2.92695 9.95726 2.86918C9.87726 2.80585 9.92726 2.67808 9.98726 2.59586C10.5128 1.87368 11.4938 1.35704 12.4427 1.56258C11.9427 1.72368 11.4927 1.7859 11.0483 2.10366Z"
													fill="#B9E4EA"
												/>
												<path
													d="M13.4078 4.58291C13.2912 4.65291 13.1289 4.74624 13.0367 4.7729C12.9245 4.80401 12.6067 4.68069 12.5145 4.60736C12.8945 4.35959 13.3178 4.08294 13.6978 3.83517C13.7411 3.8074 13.7845 3.77851 13.8345 3.76296C13.8933 3.74407 13.9578 3.74629 14.02 3.74851C14.1067 3.75296 14.53 3.73851 14.58 3.81295C14.63 3.8885 14.4544 3.96183 14.3966 3.99628C14.0667 4.19293 13.7367 4.38737 13.4078 4.58291Z"
													fill="#2F7889"
												/>
												<path
													d="M8.86729 8.68619L7.62402 7.25293C7.17404 7.67624 6.72851 8.08844 6.30298 8.47842L6.66518 8.39954C6.82406 8.3662 6.9885 8.41509 7.10405 8.52953L7.68402 9.1795C7.80623 9.30171 7.82623 9.51392 7.77957 9.68058L7.71513 9.98834C8.08177 9.56503 8.46953 9.12616 8.86729 8.68619Z"
													fill="#2F7889"
												/>
												<path
													d="M14.3782 13.8579L13.6336 14.5013C13.3469 14.7491 12.9113 14.7158 12.6657 14.4291L3.84131 3.77776L4.97589 2.92432L14.4349 12.9C14.6904 13.1789 14.6638 13.6112 14.3782 13.8579Z"
													fill="#A06841"
												/>
												<path
													d="M4.64795 4.75126L6.74784 7.28669C7.0756 6.79338 7.24226 6.2023 7.37669 5.45567L5.34902 3.31689C5.18459 3.45133 5.04348 3.61355 4.9346 3.79576C4.76239 4.08574 4.67239 4.41461 4.64795 4.75126Z"
													fill="#7D5133"
												/>
												<path
													d="M8.81067 1.43737C6.88376 1.41514 6.17034 1.58627 5.09687 2.51417C4.77461 2.79198 4.45346 3.06979 4.13119 3.34872C3.78115 3.65098 3.31554 3.91546 3.38888 4.43774C3.41555 4.62888 3.47445 4.82224 3.43889 5.01115C3.40444 5.19006 3.19663 5.27896 3.04884 5.17673C2.90993 5.08116 2.75658 4.96337 2.58545 4.94336C2.42543 4.92558 2.25652 4.97559 2.13539 5.08338L1.38863 5.7468C1.38863 5.7468 1.28195 6.1813 2.11761 7.12697C2.95327 8.07264 3.49111 8.00486 3.49111 8.00486L4.19342 7.387C4.31122 7.28366 4.37234 7.13142 4.369 6.97473C4.36567 6.79137 4.25899 6.64913 4.19454 6.48467C4.18231 6.45355 4.1123 6.34243 4.23454 6.2413C4.34344 6.14685 4.56792 6.17907 4.69571 6.21352C4.8235 6.24797 4.94574 6.30242 5.07465 6.33576C5.32579 6.40132 5.44358 6.28464 5.61805 6.13462C5.77251 6.00127 6.70263 5.19784 7.01267 4.92892C7.63163 4.39329 6.68818 3.4554 6.68818 3.4554C6.24368 2.952 8.94068 1.68629 8.94068 1.68629C9.13849 1.61739 9.07848 1.43959 8.81067 1.43737Z"
													fill="#82AEC0"
												/>
												<path
													d="M5.07585 6.33655C5.12807 6.34988 5.17363 6.35433 5.21585 6.35322C5.21585 6.34655 5.21585 6.33877 5.21585 6.33211C5.20474 6.21211 5.13918 6.10323 5.07252 6.00212C4.65588 5.36771 4.13813 4.80108 3.54482 4.32888C3.49594 4.28999 3.44483 4.25111 3.3915 4.21777C3.38039 4.28555 3.37817 4.35888 3.38928 4.43776C3.41594 4.62886 3.47483 4.82219 3.43927 5.01107C3.4015 5.20661 3.19706 5.26105 3.04041 5.18772C3.44816 5.45104 3.79703 5.80213 4.05146 6.21545C4.08591 6.271 4.12035 6.32989 4.16035 6.38322C4.1659 6.32877 4.19034 6.27655 4.2359 6.24211C4.34478 6.14767 4.56921 6.17989 4.69698 6.21434C4.82587 6.24767 4.94697 6.30211 5.07585 6.33655Z"
													fill="#2F7889"
												/>
												<path
													d="M2.77746 6.57238C3.36299 7.18457 3.69186 7.81898 3.51187 7.99119C3.33299 8.1623 2.71302 7.80565 2.1275 7.19457C1.54197 6.58349 1.20977 5.91908 1.38865 5.74687C1.56753 5.57576 2.19194 5.96019 2.77746 6.57238Z"
													fill="#2F7889"
												/>
												<path
													d="M5.05664 3.4082C5.52217 3.21043 5.93659 2.78601 6.47879 2.31826C6.63322 2.18493 6.82988 2.05827 7.03098 1.96272C7.10653 1.92717 7.07876 1.81384 6.99543 1.81495C6.71655 1.81939 6.46768 1.90383 6.22325 2.01049C5.88104 2.15938 5.57884 2.38492 5.28774 2.61824C5.08775 2.77823 4.61889 3.17377 4.32335 3.42375C4.26779 3.47042 4.31112 3.54375 4.38334 3.54375C4.59111 3.54597 4.70777 3.55708 5.05664 3.4082Z"
													fill="#B9E4EA"
												/>
												<path
													d="M2.12439 5.3515C1.92773 5.5726 2.17883 5.63259 2.61992 5.99702C2.93101 6.25478 3.2621 6.01591 3.26544 5.77481C3.26766 5.55815 3.21322 5.44149 2.89879 5.24373C2.58436 5.04596 2.30215 5.15151 2.12439 5.3515Z"
													fill="#B9E4EA"
												/>
											</svg>