
<svg height="308" preserveAspectRatio="xMidYMid" viewBox="0 0 256 308" width="256" xmlns="http://www.w3.org/2000/svg"><path d="m.8217 207.6042 127.178 99.596 127.179-99.596-127.183-15.812z" fill="#99bce3"/><path d="m127.9998.0003-128 99.591 127.175 15.813 128.825-15.808z" fill="#19486f"/><g fill="#1f5b99"><path d="m127.9998.0003-128 63.591v36.005l128-38.155z"/><path d="m0 243.6087 128 63.591v-61.442l-128-38.149z"/><path d="m128 200.0537-55.467-8.125v-76.037l55.467-8 1.309 2.532-.138 87.099z"/></g><path d="m127.9998.0003v61.441l128 38.155v-36.005z" fill="#5294cf"/><path d="m127.9998 245.7579v61.442l128-63.591v-36z" fill="#5294cf"/><path d="m128 200.0537 55.467-8.125v-76.037l-55.467-8z" fill="#5294cf"/></svg>