<svg width="24" height="24" viewBox="0 0 24 24" fill="none" xmlns="http://www.w3.org/2000/svg">
<path d="M23.0597 17.5259C21.7789 18.1935 15.144 20.9215 13.7315 21.6579C12.3189 22.3944 11.5343 22.3873 10.4183 21.8539C9.30253 21.3204 2.24184 18.4684 0.969937 17.8604C0.334312 17.5567 0 17.3002 0 17.0579V14.632C0 14.632 9.19219 12.6309 10.6762 12.0985C12.16 11.5661 12.6749 11.5469 13.9377 12.0095C15.2007 12.4722 22.7519 13.8346 24 14.2917L23.9994 16.6833C23.9996 16.9231 23.7116 17.1862 23.0597 17.5259Z" fill="#912626"/>
<path d="M23.0592 15.1144C21.7785 15.7817 15.1438 18.5098 13.7313 19.2461C12.3188 19.9827 11.5342 19.9755 10.4183 19.4421C9.30244 18.909 2.24203 16.0565 0.970219 15.4489C-0.301594 14.8409 -0.328219 14.4225 0.921094 13.9333C2.17041 13.4439 9.19209 10.6891 10.6763 10.1567C12.1601 9.62447 12.6749 9.60506 13.9377 10.0678C15.2006 10.5304 21.7958 13.1555 23.0437 13.6125C24.292 14.0701 24.3399 14.4469 23.0592 15.1144Z" fill="#C6302B"/>
<path d="M23.0597 13.6007C21.7789 14.2684 15.144 16.9963 13.7315 17.733C12.3189 18.4692 11.5343 18.4621 10.4183 17.9287C9.30244 17.3955 2.24184 14.5432 0.969937 13.9352C0.334312 13.6314 0 13.3753 0 13.133V10.7068C0 10.7068 9.19219 8.70581 10.6762 8.1734C12.16 7.641 12.6749 7.62168 13.9377 8.08434C15.2008 8.547 22.752 9.90909 24 10.3663L23.9994 12.7582C23.9996 12.9979 23.7116 13.2609 23.0597 13.6007Z" fill="#912626"/>
<path d="M23.0592 11.1892C21.7785 11.8567 15.1438 14.5846 13.7313 15.3212C12.3188 16.0575 11.5342 16.0503 10.4183 15.5168C9.30244 14.9838 2.24203 12.1313 0.970219 11.5237C-0.301594 10.9159 -0.328219 10.4974 0.921094 10.008C2.17041 9.51891 9.19219 6.76387 10.6763 6.23156C12.1601 5.69925 12.6749 5.67994 13.9377 6.14259C15.2006 6.60516 21.7958 9.23006 23.0437 9.68728C24.292 10.1448 24.3399 10.5217 23.0592 11.1892Z" fill="#C6302B"/>
<path d="M23.0597 9.52997C21.7789 10.1975 15.144 12.9256 13.7315 13.6623C12.3189 14.3986 11.5343 14.3914 10.4183 13.8579C9.30244 13.3248 2.24184 10.4723 0.969937 9.86465C0.334312 9.56062 0 9.3044 0 9.06234V6.63609C0 6.63609 9.19219 4.63519 10.6762 4.10287C12.16 3.57037 12.6749 3.55125 13.9377 4.01381C15.2008 4.47647 22.752 5.83856 24 6.29578L23.9994 8.68753C23.9996 8.92706 23.7116 9.19012 23.0597 9.52997Z" fill="#912626"/>
<path d="M23.0592 7.11843C21.7785 7.78593 15.1438 10.5141 13.7313 11.2504C12.3188 11.9867 11.5342 11.9795 10.4183 11.4463C9.30253 10.9129 2.24203 8.06062 0.970312 7.45284C-0.301594 6.84515 -0.328125 6.42656 0.921094 5.93728C2.17041 5.44809 9.19219 2.69343 10.6763 2.16093C12.1601 1.62853 12.6749 1.6094 13.9377 2.07206C15.2006 2.53472 21.7958 5.15962 23.0437 5.61684C24.292 6.07396 24.3399 6.45093 23.0592 7.11843Z" fill="#C6302B"/>
<path d="M14.9328 4.75847L12.8693 4.97269L12.4074 6.08419L11.6614 4.84388L9.27872 4.62975L11.0566 3.9886L10.5232 3.00441L12.1877 3.65541L13.7569 3.14166L13.3328 4.15932L14.9328 4.75847ZM12.2843 10.1508L8.43328 8.55357L13.9514 7.70653L12.2843 10.1508ZM6.94519 5.37628C8.57409 5.37628 9.89456 5.88816 9.89456 6.51947C9.89456 7.15097 8.57409 7.66275 6.94519 7.66275C5.31628 7.66275 3.99581 7.15088 3.99581 6.51947C3.99581 5.88816 5.31628 5.37628 6.94519 5.37628Z" fill="white"/>
<path d="M17.3714 5.06231L20.6373 6.35287L17.3742 7.64222L17.3714 5.06231Z" fill="#621B1C"/>
<path d="M13.7583 6.49153L17.3714 5.06231L17.3742 7.64222L17.0199 7.78078L13.7583 6.49153Z" fill="#9A2928"/>
</svg>
