<svg xmlns="http://www.w3.org/2000/svg" width="80" height="80"><defs><linearGradient id="a" x1="0%" x2="100%" y1="100%" y2="0%"><stop offset="0%" stop-color="#4D27A8"/><stop offset="100%" stop-color="#A166FF"/></linearGradient></defs><g fill="none" fill-rule="evenodd"><path fill="url(#a)" d="M0 0h80v80H0z"/><path fill="#FFF" d="M36.008 36.977v-8.99h1.996v3.995l2.694-3.996h2.21l-3.123 4.204 3.38 4.787h-2.368l-2.793-4.345v4.345zM66 49.117l-.669.579c-1.347 1.18-3.16 1.77-4.973 1.77-1.815 0-3.63-.59-4.98-1.773l-1.333-1.155c-1.956-1.714-5.38-1.714-7.332-.004l-1.341 1.162c-2.693 2.36-7.255 2.362-9.953-.003l-1.333-1.155c-1.956-1.714-5.38-1.714-7.332-.004l-1.341 1.162c-2.694 2.36-7.255 2.362-9.953-.003l-.665-.576 1.307-1.511.668.58c1.957 1.714 5.381 1.714 7.332.003l1.342-1.162c2.693-2.36 7.255-2.36 9.952.004l1.334 1.154c1.957 1.715 5.38 1.715 7.332.004l1.341-1.162c2.693-2.36 7.255-2.36 9.953.004l1.333 1.154c1.956 1.715 5.38 1.715 7.332.004l.673-.583zM63.898 61.14l1.307 1.51-.669.58c-1.346 1.18-3.159 1.769-4.972 1.769-1.815 0-3.63-.59-4.98-1.773L53.25 62.07c-1.956-1.712-5.38-1.712-7.332-.004l-1.341 1.163c-2.692 2.36-7.254 2.361-9.953-.004l-1.333-1.155c-1.955-1.712-5.38-1.712-7.332-.004l-1.342 1.163c-2.692 2.36-7.254 2.361-9.952-.004L14 62.65l1.306-1.51.669.58c1.957 1.712 5.381 1.713 7.332.002l1.341-1.161c2.695-2.36 7.255-2.361 9.953.002l1.333 1.156c1.957 1.713 5.381 1.714 7.332.003l1.342-1.161c2.694-2.36 7.254-2.361 9.952.002l1.334 1.156c1.957 1.713 5.38 1.714 7.332.003zm0-6.333 1.307 1.509-.669.58c-2.693 2.36-7.254 2.362-9.953-.004l-1.333-1.154c-1.956-1.715-5.38-1.714-7.332-.004l-1.341 1.162c-1.347 1.18-3.16 1.77-4.972 1.77-1.815 0-3.63-.59-4.981-1.774l-1.333-1.154c-1.955-1.715-5.38-1.714-7.332-.004l-1.342 1.162c-2.691 2.36-7.253 2.36-9.952-.004L14 56.316l1.306-1.51.669.58c1.957 1.714 5.381 1.713 7.332.003l1.341-1.162c2.695-2.36 7.257-2.361 9.953.003l1.333 1.155c1.957 1.715 5.381 1.714 7.332.004l1.342-1.162c2.694-2.36 7.256-2.361 9.952.003l1.334 1.155c1.957 1.715 5.38 1.714 7.332.004zM24.033 37.976a1.999 1.999 0 0 1 0 3.996 1.999 1.999 0 0 1 0-3.996m14.969-20.978a1.999 1.999 0 0 1 0 3.996 1.999 1.999 0 0 1 0-3.996m16.965 22.976a2 2 0 0 1-1.995 1.998 1.999 1.999 0 0 1 0-3.996c1.1 0 1.995.896 1.995 1.998M39.002 22.992c.665 0 1.283-.18 1.835-.469l10.168 14.804a3.95 3.95 0 0 0-.883 1.648h-22.24A3.95 3.95 0 0 0 27 37.327l10.167-14.804c.552.29 1.17.469 1.835.469M24.032 43.97c1.855 0 3.405-1.279 3.85-2.997h22.24c.445 1.718 1.995 2.997 3.85 2.997a4 4 0 0 0 3.991-3.996 4 4 0 0 0-3.991-3.996c-.46 0-.896.094-1.309.238L42.337 21.18a3.96 3.96 0 0 0 .657-2.185A4 4 0 0 0 39.002 15a4 4 0 0 0-3.992 3.996c0 .807.244 1.556.657 2.185L25.34 36.216a4 4 0 0 0-1.308-.238 4 4 0 0 0-3.992 3.996 4 4 0 0 0 3.992 3.996"/></g></svg>