<?xml version="1.0" encoding="utf-8"?><!-- Uploaded to: SVG Repo, www.svgrepo.com, Generator: SVG Repo Mixer Tools -->
<svg width="800px" height="800px" viewBox="19.932999999999996 68.509 228.155 228.155" xmlns="http://www.w3.org/2000/svg"><path d="M101.885 207.092c7.865 0 14.241 6.376 14.241 14.241v61.09c0 7.865-6.376 14.24-14.241 14.24-7.864 0-14.24-6.375-14.24-14.24v-61.09c0-7.864 6.376-14.24 14.24-14.24z" fill="#a4c639"/><path d="M69.374 133.645c-.047.54-.088 1.086-.088 1.638v92.557c0 9.954 7.879 17.973 17.66 17.973h94.124c9.782 0 17.661-8.02 17.661-17.973v-92.557c0-.552-.02-1.1-.066-1.638H69.374z" fill="#a4c639"/><path d="M166.133 207.092c7.865 0 14.241 6.376 14.241 14.241v61.09c0 7.865-6.376 14.24-14.241 14.24-7.864 0-14.24-6.375-14.24-14.24v-61.09c0-7.864 6.376-14.24 14.24-14.24zM46.405 141.882c7.864 0 14.24 6.376 14.24 14.241v61.09c0 7.865-6.376 14.241-14.24 14.241-7.865 0-14.241-6.376-14.241-14.24v-61.09c-.001-7.865 6.375-14.242 14.241-14.242zM221.614 141.882c7.864 0 14.24 6.376 14.24 14.241v61.09c0 7.865-6.376 14.241-14.24 14.241-7.865 0-14.241-6.376-14.241-14.24v-61.09c0-7.865 6.376-14.242 14.241-14.242zM69.79 127.565c.396-28.43 25.21-51.74 57.062-54.812h14.312c31.854 3.073 56.666 26.384 57.062 54.812H69.79z" fill="#a4c639"/><path d="M74.743 70.009l15.022 26.02M193.276 70.009l-15.023 26.02" fill="none" stroke="#a4c639" stroke-width="3" stroke-linecap="round" stroke-linejoin="round"/><path d="M114.878 102.087c.012 3.974-3.277 7.205-7.347 7.216-4.068.01-7.376-3.202-7.388-7.176v-.04c-.011-3.975 3.278-7.205 7.347-7.216 4.068-.011 7.376 3.2 7.388 7.176v.04zM169.874 102.087c.012 3.974-3.277 7.205-7.347 7.216-4.068.01-7.376-3.202-7.388-7.176v-.04c-.011-3.975 3.278-7.205 7.347-7.216 4.068-.011 7.376 3.2 7.388 7.176v.04z" fill="#ffffff"/></svg>