<svg xmlns="http://www.w3.org/2000/svg" xml:space="preserve" viewBox="0 0 122.88 98.18"><path d="M3.42 0h116.05a3.42 3.42 0 0 1 3.41 3.41v91.36a3.42 3.42 0 0 1-3.41 3.41H3.42C1.54 98.18 0 96.65 0 94.77V3.41C0 1.53 1.54 0 3.42 0m22.47 8.19c2.05 0 3.72 1.67 3.72 3.72s-1.67 3.72-3.72 3.72-3.72-1.67-3.72-3.72c0-2.06 1.66-3.72 3.72-3.72m77.18-.5 2.52 2.77 2.52-2.77 1.97 1.79-2.69 2.96 2.69 2.96-1.97 1.79-2.52-2.77-2.52 2.77-1.97-1.79 2.69-2.96-2.69-2.96zm-88.55.5c2.05 0 3.72 1.67 3.72 3.72s-1.67 3.72-3.72 3.72-3.72-1.67-3.72-3.72a3.707 3.707 0 0 1 3.72-3.72m22.74 0c2.05 0 3.72 1.67 3.72 3.72s-1.67 3.72-3.72 3.72-3.72-1.67-3.72-3.72a3.72 3.72 0 0 1 3.72-3.72M14.05 22.75h93.33c1.77 0 3.22 1.49 3.22 3.22v59.2c0 1.73-1.49 3.22-3.22 3.22H14.05c-1.73 0-3.22-1.45-3.22-3.22v-59.2c.01-1.77 1.46-3.22 3.22-3.22" style="fill-rule:evenodd;clip-rule:evenodd;fill:#1668dc"/></svg>