<svg xmlns="http://www.w3.org/2000/svg" xml:space="preserve" viewBox="0 0 512 512"><path fill="#2d2d2f" d="M235 513H1.028V1.09h511.819V513zm192.679-324.535c-.276-.47-.55-.941-.764-2.118-.162-.438-.324-.876-.383-1.927-.395-.716-.79-1.432-1.141-2.86-1.472-3.185-2.944-6.37-4.446-10.219-.691-1.099-1.382-2.198-2.107-3.962a102 102 0 0 0-3.358-3.802c-2.397-3.113-4.432-6.608-7.253-9.27-11.987-11.313-26.73-16.4-42.841-17.879-17.441-1.6-34.534-.651-50.935 8.034-.614.46-1.228.92-2.454 1.465-.996.7-1.992 1.4-3.612 2.15-.784.645-1.568 1.29-2.988 2.096-1.47 1.266-2.939 2.532-5.02 3.917-.529.608-1.057 1.215-2.166 2.055-1.089 1.24-2.177 2.48-3.872 3.909-.74.985-1.48 1.971-2.782 3.327-1.51 2.225-3.02 4.45-5.131 6.976-1.905 3.66-3.81 7.319-6.225 11.345-.194.78-.388 1.561-1.065 2.867-.458 1.329-.916 2.658-1.916 4.5-1.765 7.97-3.53 15.939-6.024 24.346-.26 4.85-.52 9.701-.986 15.469.048 4.698.096 9.396-.064 15.004.116 4.022.233 8.045.166 12.806.082.75.164 1.498.06 2.979.265 1.423.53 2.846.655 5.035.158.755.315 1.51.3 3.023.155.75.31 1.5.261 2.755.202.48.403.96.519 2.273.25 1.077.5 2.155.57 3.82.332.709.665 1.419.86 2.793.209.872.418 1.743.56 3.378.896 2.773 1.793 5.546 2.762 9.07 1.306 3.07 2.613 6.14 3.96 9.944 1.988 3.439 3.975 6.877 6.126 10.996 3.922 4.456 7.843 8.912 12.038 13.996 6.68 6.337 14.164 11.36 23.534 14.639 16.2 6.87 33.212 6.567 50.139 4.81 7.96-.827 15.697-3.823 24.29-5.92 9.012-3.27 17.925-6.715 25.122-14.454 5.37-3.042 9.638-6.723 8.132-14.731-.045-3.365-.09-6.73.016-11-.05-3.365-.098-6.729.011-10.99-.053-3.035-.106-6.07.01-9.992-.064-2.705-.128-5.409-.014-9.037-.047-7.023-.094-14.047.04-21.986v-10.777h-77.016c0 4.098 0 7.88-.165 12.589v17.177c11.318 0 21.927.083 32.534-.053 2.963-.037 4.885.505 4.422 4.822.056 2.378.112 4.756-.007 8.037.058 3.365.116 6.73.002 10.991.055 3.037.11 6.074 0 9.854-2.064 2.633-4.129 5.266-6.927 8.055-16.009 7.03-32.03 7.471-48.533-.395-3.689-3.195-7.378-6.39-11.332-10.25-1.623-2.751-3.246-5.502-4.996-9.002-1.085-2.714-2.17-5.428-3.25-8.91-.467-1.738-.934-3.475-1.326-5.762-.233-.487-.466-.973-.63-2.266-.169-1.06-.338-2.122-.396-3.821-.26-.79-.52-1.58-.684-3.224-.217-1.693-.433-3.386-.348-5.984-.055-6.472-.05-12.945-.188-19.415-.084-3.917-.393-7.829-.36-12.631.274-4.048.55-8.095.899-13 .236-1.616.268-3.295.745-4.835 1.798-5.8 3.741-11.556 6.137-17.86 3.738-7.379 8.983-13.454 16.372-18.255.92-.482 1.842-.964 3.54-1.495 4.03-1.044 8.058-2.088 12.959-2.881 1.803-.073 3.607-.145 6.032.192 1.765.13 3.53.26 5.926.726.47-.005.941-.011 1.946.44 1.8.54 3.599 1.081 5.936 1.999 1.36.667 2.719 1.335 4.367 2.576 1.04.71 2.08 1.42 3.468 2.712 2.385 3.166 4.77 6.333 7.104 10.117.425.694.851 1.388 1.269 2.762.718 1.901 1.437 3.802 2.085 6.521l1.395 6.63H430.7c-1.087-4.788-1.955-8.611-2.736-13.128-.13-.444-.258-.887-.286-1.886M124.594 323.513c.926-3.195 1.851-6.39 3.17-10.268 1.09-3.747 2.18-7.494 3.923-11.761.8-.17 1.6-.488 2.4-.49 21.707-.03 43.415-.044 65.123.014 1.232.004 2.462.654 3.72 1.786 1.617 4.778 3.234 9.556 4.91 15.1.88 2.69 1.758 5.381 2.556 8.796 1.189 3.442 2.377 6.883 3.563 11.114.39 5.227 3.226 6.683 8.313 6.489 10.277-.391 20.58-.105 30.87-.13 1.73-.004 3.459-.166 6.03-.298-1.505-3.286-2.652-5.79-3.98-9.026-1.608-4.485-3.216-8.97-4.842-14.117-.735-1.915-1.47-3.83-2.235-6.523-1.739-4.72-3.477-9.438-5.247-14.873-.865-2.13-1.73-4.258-2.629-7.167-1.718-4.733-3.436-9.466-5.215-14.945-1.195-3.123-2.391-6.246-3.685-10.148-1.741-4.683-3.483-9.366-5.263-14.806-1.662-4.433-3.323-8.865-5.002-14.066-1.851-5.12-3.703-10.24-5.692-16.129-1.013-2.676-2.026-5.353-2.943-8.634-.382-.706-.764-1.412-1.129-2.823-2.528-6.84-5.057-13.678-7.602-21.157-.512-1.149-1.025-2.298-1.517-4.234-1.431-3.727-2.863-7.454-4.258-11.928-3.68-10.417-7.237-20.88-11.174-31.198-.563-1.478-2.932-3.169-4.508-3.213-10.312-.286-20.638-.245-30.953-.03-1.392.03-3.556 1.346-3.998 2.562-4.086 11.227-7.872 22.563-12.293 34.339-.64 2.093-1.28 4.187-2.473 6.746-1.291 4.131-2.583 8.263-4.4 12.83-2.356 6.896-4.712 13.791-7.517 21.217-.819 2.51-1.637 5.019-2.992 8.001-2.28 6.804-4.562 13.607-7.306 20.927-.79 2.502-1.58 5.005-2.877 8.023-1.28 3.935-2.561 7.87-4.353 12.33-1.683 4.724-3.365 9.449-5.473 14.785-1.172 3.808-2.344 7.616-4.024 11.94-.99 3.124-1.98 6.248-3.464 9.845-1.283 3.844-2.565 7.688-4.215 12.057-1.038 3.19-2.077 6.38-3.519 10.134-.852 2.456-1.703 4.911-3.013 7.914l-3.932 11.353c2.607.138 4.356.304 6.105.31 8.62.027 17.239.012 25.859.012 11.7.001 11.7.002 14.342-11.69.035-.158-.002-.331.398-1.136.667-2.427 1.335-4.854 2.44-7.834"/><path fill="#fcfcfc" d="M357.126 168.587c-1.804.072-3.608.144-6.165-.093-4.83.874-8.906 2.057-12.982 3.24-.921.482-1.842.964-3.582 1.403-14.065-.075-27.315.032-40.555-.27-2.292-.051-4.544-1.83-6.815-2.81 1.51-2.226 3.02-4.451 5.144-6.912 1.335-1.25 2.054-2.264 2.774-3.279 1.089-1.24 2.177-2.48 3.885-3.866 1.132-.773 1.646-1.401 2.159-2.029 1.47-1.266 2.939-2.532 5.067-3.875 1.424-.741 2.189-1.405 2.954-2.07.995-.7 1.991-1.4 3.602-2.11 1.22-.48 1.822-.948 2.425-1.416 15.815-8.723 32.908-9.672 50.349-8.072 16.112 1.479 30.854 6.566 42.84 17.878 2.822 2.663 4.857 6.158 7.55 9.835 1.23 1.677 2.163 2.79 3.096 3.903.691 1.1 1.382 2.198 1.668 3.644-3.367.669-6.327 1.23-9.294 1.268-9.331.12-18.666-.007-27.998.09-1.752.018-3.497.626-5.642.96-.922.05-1.447.104-1.972.157-1.36-.667-2.72-1.335-4.438-2.504-2.276-.986-4.194-1.47-6.112-1.954-.47.006-.94.012-1.879-.435-2.338-.53-4.209-.606-6.08-.683M135.555 175.278c3.873-11.305 7.659-22.641 11.745-33.868.442-1.216 2.606-2.532 3.998-2.561 10.315-.216 20.641-.257 30.953.03 1.576.043 3.945 1.734 4.508 3.212 3.937 10.318 7.495 20.781 10.951 31.777-1.65 1.754-3.062 3.933-4.505 3.953-17.587.237-35.178.227-52.766.04-1.637-.017-3.256-1.683-4.884-2.583"/><path fill="#8c8e8f" d="M298.71 326.128c-3.922-4.456-7.843-8.912-11.36-13.732 14.507-.374 28.61-.375 42.712-.403 2.264-.005 4.947.54 4.975-3.104 16.038 7.372 32.06 6.93 48.554.207 3.787 4.167 7.921 2.26 11.95 2.245 11.508-.04 23.017.41 34.526.669 1.64 7.098-2.628 10.779-8.76 13.964-41.373.146-81.985.15-122.597.154"/><path fill="#a4a6a7" d="M235.085 277.96c1.718 4.733 3.436 9.466 4.752 14.66-4.655.433-8.908.386-13.161.383-12.743-.01-25.485-.004-38.228-.004h-64.063c-8.152 0-16.305.06-24.456-.045-1.947-.025-3.886-.6-5.83-.922 1.173-3.808 2.345-7.616 4.195-11.728C110.77 280 122.564 280 134.36 280c31.292 0 62.583.043 93.874-.088 2.286-.01 4.567-1.273 6.85-1.953"/><path fill="#abadae" d="M235.055 277.587c-2.254 1.053-4.535 2.317-6.82 2.326-31.292.13-62.583.088-93.875.088l-35.853-.003c1.217-4.726 2.9-9.45 4.954-14.001 2.202 1.447 3.989 3.737 5.867 3.814 7.918.325 15.877.23 23.792-.221 3.15-.18 6.225-1.681 9.717-2.342 16.511.358 32.639.479 49.202.688 11.497.413 22.557.8 33.62 1.003 1.919.035 3.852-.71 5.778-1.093 1.196 3.122 2.392 6.245 3.618 9.741"/><path fill="#b6b7b8" d="M430.082 249.01c.047 7.024.094 14.048-.408 21.53-13.515.453-26.481.446-39.447.438.274-3.442-1.648-3.984-4.611-3.947-10.607.136-21.216.053-32.534.053 0-6 0-11.589.523-17.636 7.954-.12 15.382.42 22.814.488 5.068.046 10.14-.785 15.214-.841 12.815-.144 25.632-.071 38.449-.085"/><path fill="#838587" d="M298.847 326.442c40.475-.318 81.087-.322 122.21-.265-6.186 7.393-15.1 10.837-24.8 13.83-1.47-.513-2.25-.948-3.03-.95-22.536-.044-45.073-.074-67.61.026-1.2.005-2.394 1.159-3.591 1.778-8.879-2.745-16.363-7.768-23.18-14.42"/><path fill="#9c9e9f" d="M93.846 292.29c2.197.064 4.136.64 6.083.664 8.151.105 16.304.045 24.456.045h64.063c12.743 0 25.485-.007 38.228.004 4.253.003 8.506.05 13.178.006 1.283 2.059 2.149 4.188 2.757 6.914-3.216 1.373-6.174 2.799-9.135 2.807-10.19.028-20.381-.44-30.572-.72-1.232-.348-2.462-.998-3.694-1.002-21.708-.058-43.416-.044-65.123-.013-.8 0-1.6.319-3.175.747-13.947.232-27.119.205-40.29.178.99-3.124 1.98-6.248 3.224-9.63"/><path fill="#e1e1e2" d="M318.337 191.966c-1.889 5.773-3.832 11.528-5.63 17.329-.477 1.54-.509 3.22-1.244 5.264-11.408.43-22.32.536-33.226.34-2.114-.037-4.207-1.251-6.31-1.923 1.764-7.968 3.528-15.937 5.72-23.766 5.65 1.004 10.846 2.349 16.098 2.623 8.178.427 16.393.126 24.592.133"/><path fill="#c1c2c3" d="M430.173 248.552c-12.908.472-25.725.4-38.54.543-5.074.056-10.146.887-15.214.84-7.432-.067-14.86-.607-22.731-.95-.441-3.786-.441-7.569-.441-11.667h77.017c0 3.621 0 7.2-.091 11.234"/><path fill="#d3d3d4" d="M212.343 214.036c1.013 2.676 2.026 5.353 2.684 8.578-2.458.83-4.557 1.324-6.664 1.358-9.99.163-19.983.2-30.126-.04-2.364-7.463-4.577-14.604-6.285-21.785 9.729-.068 18.952-.077 28.175-.133 6.301-.04 6.846-1.049 3.886-7.342-.11-1.748-.2-3.164-.288-4.58 2.528 6.838 5.057 13.677 7.516 21.191.32 1.369.711 2.06 1.102 2.753"/><path fill="#eeefef" d="M318.59 191.7c-8.452.259-16.667.56-24.845.133-5.252-.274-10.448-1.619-15.826-2.88.3-1.726.759-3.055 1.739-4.805.699-1.218.876-2.015 1.052-2.812 1.905-3.66 3.81-7.32 6.016-11.13 2.572.831 4.824 2.61 7.116 2.662 13.24.3 26.49.194 40.243.289-6.258 4.824-11.503 10.9-15.495 18.543"/><path fill="#e1e1e2" d="M121.066 216.011c2.356-6.895 4.712-13.79 7.764-20.82 2.978.18 5.257.74 7.542.766 9.283.109 18.567.054 27.884.455-2.084 6.79-4.202 13.185-6.756 19.57-12.436.003-24.435.016-36.434.03"/><path fill="#c8c9c9" d="M110.783 244.954c2.28-6.804 4.561-13.607 7.392-20.397 2.379.492 4.203 1.36 6.038 1.383 10.235.13 20.473.056 30.726.438-1.998 6.462-4.012 12.539-6.49 18.613-12.864-.014-25.265-.026-37.666-.037M178.389 224.253c9.991-.081 19.984-.118 29.974-.28 2.107-.035 4.206-.528 6.732-.974 2.276 4.955 4.128 10.075 5.678 15.822-2.118 1.144-3.927 2.083-5.75 2.11a770 770 0 0 1-31.332-.192c-1.923-5.684-3.613-11.085-5.302-16.486"/><path fill="#abadae" d="M271.792 269.98c-.155-.75-.31-1.5.025-2.625 8.833-.7 17.175-1.076 25.52-1.323 4.54-.134 9.085-.046 13.646.258.528 1.122 1.038 1.927 1.549 2.732.169 1.061.338 2.122.293 3.749.113 1.127.441 1.689.77 2.25.466 1.737.933 3.474.977 5.616-3.52.723-6.617 1.283-9.719 1.318-10.228.113-20.459.036-30.689.032-.209-.872-.418-1.743-.489-3.258-.18-1.341-.499-2.04-.817-2.738-.25-1.077-.501-2.155-.555-3.798-.04-1.114-.275-1.663-.511-2.212"/><path fill="#b6b7b8" d="M231.388 267.456c-1.877.774-3.81 1.518-5.73 1.483-11.062-.203-22.122-.59-33.661-1.36-1.683-4.819-2.887-9.193-3.665-13.593 3.222-.346 6.014-.909 8.812-.94 9.656-.11 19.314-.035 28.97-.03 1.742 4.684 3.484 9.367 5.274 14.44"/><path fill="#eeefef" d="M135.28 175.513c1.903.665 3.522 2.33 5.159 2.348 17.588.187 35.18.197 52.766-.04 1.443-.02 2.856-2.199 4.487-3.58 1.636 3.522 3.068 7.249 4.065 11.431-9.477.746-18.522.99-27.56 1.363-2.076.086-4.132.62-6.531.95-.778.01-1.222.017-1.993-.232-9.039-.422-17.753-.777-26.46-.667-3.85.05-6.297-.674-6.125-5.057.64-2.093 1.279-4.187 2.193-6.516"/><path fill="#969798" d="M202.917 302.402c10.178-.112 20.369.356 30.559.328 2.961-.008 5.92-1.434 9.151-2.45 2.011 4.48 3.75 9.2 5.07 14.33-11.161.737-21.907 1.007-32.647 1.428-2.433.095-4.846.713-7.268 1.09-1.618-4.778-3.235-9.556-4.865-14.726M334.805 308.642c.204 3.891-2.48 3.346-4.743 3.35-14.103.03-28.205.03-42.794.064-2.474-3.415-4.461-6.853-6.03-10.685 11.789-.718 23.16-.985 34.526-1.413 2.592-.097 5.162-.75 7.742-1.147 3.69 3.194 7.378 6.389 11.3 9.83"/><path fill="#d3d3d4" d="M271.561 213.196c2.469.452 4.562 1.666 6.676 1.704 10.906.195 21.818.09 33.189.088.186 4.047-.089 8.094-.74 12.646-.592.774-.809 1.044-1.473 1.328-13.23-.322-26.014-.658-38.798-.995.26-4.85.52-9.701 1.146-14.771"/><path fill="#c8c9c9" d="M270.312 228.425c12.887-.121 25.67.215 39.054.87.57 4.771.54 9.224.05 13.683-13.328.005-26.195.003-39.061.001-.049-4.699-.097-9.397-.043-14.554"/><path fill="#b6b7b8" d="M142.454 267.01c-3.11.899-6.184 2.4-9.334 2.58-7.915.45-15.874.546-23.792.221-1.878-.077-3.665-2.367-5.611-4.077 1.164-4.372 2.444-8.306 4.26-12.254 1.71.808 2.894 2.352 4.06 2.339 11.26-.13 22.516-.52 33.79-.46-1.114 4.133-2.244 7.892-3.373 11.65"/><path fill="#eeefef" d="M378.002 174.008c1.749-.336 3.494-.944 5.246-.963 9.332-.096 18.667.031 27.998-.09 2.967-.038 5.927-.598 9.31-.935 1.891 3.17 3.363 6.355 4.707 10.345-.173 1.415-.218 2.025-.732 2.635-10.582.001-20.699-.101-30.81.092-1.918.037-3.814 1.244-5.963 1.897-.564-.06-.887-.069-1.211-.041-2.386-3.166-4.772-6.333-7.378-10.092a148 148 0 0 0-1.167-2.848"/><path fill="#c1c2c3" d="M270.25 243.433a562 562 0 0 1 39.2.01c.495 4.481.496 8.504.031 12.533-13.305-.002-26.146-.011-38.986-.02-.116-4.023-.233-8.046-.245-12.523"/><path fill="#969798" d="M90.375 302.156c13.418-.21 26.59-.182 40.21-.154-.641 3.749-1.731 7.496-3.436 11.605-14.032.346-27.45.332-40.87.318 1.284-3.844 2.566-7.688 4.096-11.769"/><path fill="#7d7f80" d="M121.75 331.986c.003.166.04.34.005.496-2.641 11.693-2.642 11.692-14.342 11.691-8.62 0-17.24.015-25.86-.012-1.748-.006-3.497-.172-6.104-.31 1.475-4.258 2.703-7.806 4.593-11.595 9.965.04 19.267.455 28.571.549 4.376.044 8.758-.527 13.137-.819M322.271 341.128c.952-.886 2.147-2.04 3.347-2.045 22.536-.1 45.073-.07 67.61-.026.78.002 1.56.437 2.65.991-7.525 2.334-15.261 5.33-23.222 6.156-16.927 1.758-33.939 2.062-50.385-5.076"/><path fill="#838587" d="M213.962 337.015c-1.189-3.442-2.377-6.883-3.096-10.68 11.878-.35 23.288-.48 34.691-.256 3.649.072 5.244-1.033 4.811-4.694 1.608 4.485 3.216 8.97 4.575 14.136-2.19.948-4.13 1.43-6.072 1.443-11.636.077-23.272.046-34.909.051"/><path fill="#c1c2c3" d="M226.095 252.638c-9.637.373-19.295.298-28.95.407-2.799.032-5.591.595-9.008.632-1.819-4.406-3.016-8.53-4.213-12.655 10.367-.008 20.734.06 31.099-.092 1.823-.026 3.632-.965 5.758-1.725 1.972 4.19 3.633 8.622 5.314 13.433"/><path fill="#969798" d="M430.133 311.555c-11.575.197-23.084-.255-34.592-.214-4.029.014-8.163 1.922-11.583-2.323 1.946-3.017 4.01-5.65 6.553-8.572 2.591-.007 4.702.5 6.816.517 10.912.084 21.825.042 32.738.043.045 3.365.09 6.73.068 10.549"/><path fill="#9c9e9f" d="M430.14 300.553c-10.988.452-21.901.494-32.813.41-2.114-.016-4.225-.524-6.733-.888-.45-3.12-.506-6.157-.02-9.64 13.525-.44 26.51-.434 39.495-.428.05 3.364.098 6.728.071 10.546"/><path fill="#8c8e8f" d="M86.097 314.187c13.601-.248 27.02-.234 40.856-.24-.508 3.175-1.433 6.37-3.06 9.825-14.165.256-27.63.253-41.096.25 1.039-3.191 2.078-6.382 3.3-9.835"/><path fill="#b6b7b8" d="M270.403 256.325c12.932-.36 25.773-.351 39.123-.076.935 1.454 1.36 2.643 1.784 3.832.216 1.693.432 3.386.377 5.483-.272.405-.722.41-.722.41-4.543.012-9.088-.076-13.627.058-8.346.247-16.688.624-25.435.944-.56-.758-.718-1.513-.594-2.901-.063-2.134-.407-3.634-.75-5.134-.083-.749-.165-1.498-.156-2.616"/><path fill="#c1c2c3" d="M145.81 254.983c-11.257.316-22.513.707-33.772.836-1.167.013-2.35-1.53-3.808-2.597.508-2.747 1.298-5.25 2.32-8.01 12.634-.247 25.035-.235 37.924.154-.562 3.457-1.613 6.537-2.664 9.617"/><path fill="#8c8e8f" d="M250.36 321.054c.441 3.992-1.154 5.097-4.803 5.025-11.403-.224-22.813-.093-34.65-.107-1.309-2.697-2.188-5.387-3.096-8.46 2.393-.76 4.806-1.379 7.239-1.474 10.74-.42 21.486-.69 32.662-1.038 1.168 1.892 1.903 3.807 2.647 6.054"/><path fill="#a4a6a7" d="M430.148 289.558c-13.064.443-26.05.438-39.489.43-.512-3.368-.57-6.733-.128-10.542 4.264-.111 8.022.452 11.789.51 9.247.14 18.498.048 27.747.05.054 3.034.107 6.069.081 9.552"/><path fill="#9c9e9f" d="M323.373 298.478c-2.447.73-5.017 1.383-7.609 1.48-11.365.428-22.737.695-34.546 1.046-1.746-3.045-3.053-6.114-3.91-9.578 13.986-.775 27.525-1.154 41.064-1.534a620 620 0 0 1 5.001 8.586"/><path fill="#e8e9e9" d="M388 187.003c1.907-.667 3.803-1.874 5.722-1.91 10.11-.194 20.227-.092 31.048-.086.706.007 1.182.03 1.182.03l.477-.004c.162.438.324.876.287 1.835.155 1.064.509 1.608.862 2.152.13.444.258.887.115 1.969-1.757 1.762-3.192 3.78-4.734 3.866-11.001.613-22.024.831-33.04 1.175-.719-1.9-1.438-3.8-2.086-6.481.102-1.368.135-1.957.167-2.546"/><path fill="#a4a6a7" d="M318.309 289.518c-13.476.754-27.015 1.133-41.038 1.532-1.381-2.754-2.278-5.527-3.14-8.682 10.263-.377 20.494-.3 30.722-.413 3.102-.035 6.198-.595 9.718-.934 1.505 2.694 2.59 5.408 3.738 8.497"/><path fill="#d3d3d4" d="M154.923 225.992c-10.237.004-20.475.078-30.71-.052-1.835-.023-3.66-.891-5.77-1.62.537-2.76 1.355-5.269 2.398-8.043 12.224-.279 24.223-.292 36.687.084-.56 3.47-1.582 6.55-2.605 9.631"/><path fill="#838587" d="M82.596 324.303c13.667-.278 27.132-.275 41.078-.254-.186 2.444-.854 4.871-1.722 7.618-4.58.611-8.963 1.182-13.339 1.138-9.304-.094-18.606-.508-28.342-.823.42-2.487 1.271-4.942 2.325-7.68"/><path fill="#e1e1e2" d="M389.884 196.44c11.05-.754 22.074-.972 33.075-1.585 1.542-.086 2.977-2.104 4.69-3.52 1.097 3.533 1.965 7.356 3.052 12.144h-39.458c-.514-2.444-.954-4.537-1.36-7.04"/><path fill="#abadae" d="M430.152 279.562c-9.334.442-18.585.535-27.832.394-3.767-.058-7.525-.621-11.701-.962-.47-2.385-.525-4.763-.487-7.579 13.06-.43 26.027-.422 39.453-.412.524 2.706.588 5.41.567 8.559"/><path fill="#e8e9e9" d="M132.811 182.262c.105 4.15 2.551 4.873 6.401 4.824 8.708-.11 17.422.245 26.303 1.04.126 1.678.084 2.728.093 4.09-.427 1.475-.906 2.638-1.385 3.8-9.284-.005-18.568.05-27.851-.059-2.285-.027-4.564-.586-7.279-.984.858-4.215 2.15-8.347 3.718-12.71M168 187.981c2.065-.327 4.121-.86 6.196-.946 9.04-.373 18.084-.617 27.55-.97.937 1.088 1.45 2.237 1.97 3.706.098 1.737.187 3.153-.128 4.92-11.133.67-21.862.99-32.755 1.1-.64-.416-1.118-.62-1.748-1.148-.495-1.68-.838-3.037-1.145-4.77.044-.882.052-1.387.06-1.892"/><path fill="#7d7f80" d="M213.96 337.41c11.639-.4 23.275-.369 34.911-.446 1.943-.012 3.882-.495 6.162-1.077 1.487 2.188 2.634 4.692 4.14 7.978-2.572.132-4.301.294-6.03.298-10.292.025-20.594-.261-30.87.13-5.088.194-7.924-1.262-8.312-6.884"/><path fill="#a4a6a7" d="M311.46 259.628c-.575-.736-.999-1.925-1.469-3.386-.045-4.295-.046-8.318-.08-12.806-.004-4.917.026-9.37-.097-14.155.063-.603.28-.873.753-1.203.463 3.854.772 7.766.856 11.683.139 6.47.133 12.943.038 19.867"/><path fill="#eeefef" d="M338.368 171.71c3.687-1.159 7.763-2.342 12.157-3.341-3.711 1.228-7.74 2.272-12.157 3.34M357.436 168.792c1.56-.128 3.43-.052 5.454.31-1.613.154-3.378.024-5.454-.31M365.352 169.934c1.65.255 3.568.739 5.575 1.536-1.71-.227-3.509-.767-5.575-1.536"/><path fill="#a4a6a7" d="M270.465 259.307c.437 1.134.781 2.634.914 4.384-.477-1.172-.742-2.595-.914-4.384"/><path fill="#eeefef" d="M418.855 167.711c-.916-.78-1.85-1.893-2.82-3.34.909.78 1.856 1.894 2.82 3.34M294.642 159.96c-.417.92-1.136 1.935-2.19 3 .407-.935 1.147-1.92 2.19-3"/><path fill="#e8e9e9" d="M377.606 174.005c.712.755 1.027 1.506 1.39 2.56-.994-.407-2.034-1.117-3.218-2.115.38-.34.906-.394 1.828-.445"/><path fill="#a4a6a7" d="M310.983 266.29c-.018-.317.432-.321.655-.298.484.813.744 1.602.95 2.711-.567-.486-1.077-1.291-1.605-2.413"/><path fill="#eeefef" d="M308.697 148.052c-.452.639-1.217 1.303-2.323 1.964.443-.649 1.227-1.294 2.323-1.964"/><path fill="#c8c9c9" d="M212.39 213.734c-.438-.39-.828-1.082-1.158-2.098.443.383.825 1.089 1.159 2.098"/><path fill="#eeefef" d="M314.744 144.48c-.31.488-.913.956-1.825 1.394.304-.491.918-.952 1.825-1.393M300.683 154.03c-.207.569-.72 1.197-1.563 1.854.2-.579.728-1.186 1.563-1.853"/><path fill="#a4a6a7" d="M272.767 276.285c.41.405.728 1.103.977 2.112-.402-.4-.735-1.109-.977-2.112M313.632 274.746c-.366-.286-.694-.848-.841-1.572.412.324.645.81.84 1.572M271.69 270.233c.338.297.574.846.656 1.543-.355-.33-.556-.81-.656-1.543"/><path fill="#e1e1e2" d="M280.455 181.519c.079.614-.098 1.411-.555 2.366-.087-.622.107-1.402.555-2.366M426.48 184.727c-.051.306-.528.31-.528.31s-.476-.023-.714-.03c-.193-.617-.148-1.227.003-2.286.501.267.896.983 1.24 2.006M387.758 186.989c.21.603.177 1.192.08 2.22-.493-.255-.919-.949-1.318-1.952.35-.337.674-.328 1.238-.268M427.628 188.743c-.403-.267-.757-.81-.943-1.522.443.303.718.774.943 1.522"/><path fill="#313133" d="M167.905 190.25c.342 1.356.685 2.714 1.145 4.681.39 1.098.664 1.586.934 2.418.485 1.843.974 3.34 1.463 4.838a3547 3547 0 0 0 6.79 21.745c1.841 5.722 3.531 11.123 5.454 16.807 1.43 4.407 2.627 8.532 4.02 12.965 1.399 4.682 2.603 9.056 3.85 13.787-16.085.236-32.213.115-48.724-.243.746-3.997 1.876-7.756 2.99-11.89 1.034-3.455 2.085-6.535 3.11-9.99 1.99-6.451 4.004-12.528 6.002-18.99 1.007-3.466 2.03-6.547 3.025-10.007 2.09-6.774 4.208-13.169 6.292-19.959.446-1.558.925-2.72 1.589-4.379.81-.925 1.434-1.354 2.06-1.784"/><path fill="#e1e1e2" d="M171.952 202.147c-.994-1.458-1.483-2.955-1.76-4.922.457-.681.656-.933.805-1.223 10.729-.32 21.458-.64 32.612-.98 3.364 5.943 2.82 6.953-3.482 6.992-9.223.056-18.446.065-28.175.133M167.94 189.872c-.66.807-1.286 1.236-2.147 1.85-.194-.868-.152-1.918.048-3.34.603-.38 1.047-.388 1.825-.398.326.502.318 1.007.274 1.888"/><path fill="#d3d3d4" d="M170.833 195.79c.015.502-.184.754-.639 1.09-.48-.363-.753-.85-.992-1.626.513-.084.99.121 1.631.537"/></svg>