<svg version="1.1" id="Layer_1" xmlns="http://www.w3.org/2000/svg" xmlns:xlink="http://www.w3.org/1999/xlink" x="0px" y="0px"
	 width="100%" viewBox="0 0 512 512" enable-background="new 0 0 512 512" xml:space="preserve">
<path fill="#2D2D2F" opacity="1.000000" stroke="none" 
	d="
M235.000000,513.000000 
	C156.685654,513.000000 78.871307,513.000000 1.028483,513.000000 
	C1.028483,342.393951 1.028483,171.787918 1.028483,1.090937 
	C171.564377,1.090937 342.128815,1.090937 512.846619,1.090937 
	C512.846619,171.666565 512.846619,342.333252 512.846619,513.000000 
	C420.454559,513.000000 327.977264,513.000000 235.000000,513.000000 
M427.678528,188.465408 
	C427.403442,187.994690 427.128387,187.523956 426.915466,186.346985 
	C426.753265,185.909134 426.591034,185.471298 426.532349,184.419601 
	C426.137421,183.703751 425.742493,182.987885 425.390503,181.559525 
	C423.918976,178.374969 422.447449,175.190414 420.944733,171.341400 
	C420.253937,170.242264 419.563141,169.143127 418.838379,167.378967 
	C417.891144,166.264526 416.943878,165.150101 415.479706,163.576736 
	C413.082947,160.464355 411.047852,156.968796 408.226654,154.306152 
	C396.240448,142.993744 381.497742,137.906738 365.385925,136.428421 
	C347.944519,134.828094 330.852142,135.776825 314.451477,144.461685 
	C313.837372,144.922150 313.223267,145.382614 311.996704,145.926590 
	C311.001099,146.626602 310.005463,147.326614 308.384613,148.076813 
	C307.600647,148.722137 306.816650,149.367447 305.397064,150.173416 
	C303.927643,151.439362 302.458221,152.705292 300.377228,154.090302 
	C299.848389,154.697739 299.319550,155.305161 298.211182,156.145248 
	C297.122406,157.385559 296.033600,158.625854 294.338684,160.053604 
	C293.599030,161.039368 292.859406,162.025131 291.556580,163.380753 
	C290.046722,165.605865 288.536835,167.830994 286.425873,170.356522 
	C284.520660,174.016190 282.615417,177.675858 280.200714,181.702271 
	C280.006805,182.482635 279.812866,183.262985 279.135651,184.568802 
	C278.677643,185.897781 278.219635,187.226776 277.219513,189.069839 
	C275.455200,197.038681 273.690918,205.007507 271.195862,213.415359 
	C270.935669,218.265900 270.675476,223.116425 270.209564,228.883530 
	C270.257996,233.582001 270.306427,238.280487 270.145966,243.887589 
	C270.262390,247.910248 270.378815,251.932892 270.311554,256.694061 
	C270.393707,257.443146 270.475891,258.192200 270.372223,259.672577 
	C270.637177,261.095581 270.902130,262.518585 271.027039,264.708160 
	C271.184723,265.463257 271.342407,266.218353 271.327362,267.730957 
	C271.482239,268.480927 271.637115,269.230896 271.588440,270.486084 
	C271.789795,270.965820 271.991119,271.445587 272.106506,272.759003 
	C272.356934,273.836456 272.607391,274.913879 272.676361,276.578461 
	C273.009003,277.287994 273.341644,277.997528 273.536621,279.372040 
	C273.745850,280.243774 273.955078,281.115479 274.097198,282.749817 
	C274.993439,285.522919 275.889709,288.295990 276.858704,291.820923 
	C278.165100,294.890137 279.471527,297.959381 280.819336,301.764191 
	C282.806854,305.202576 284.794373,308.640991 286.944824,312.759888 
	C290.866577,317.215759 294.788361,321.671661 298.982971,326.756195 
	C305.663208,333.092621 313.147156,338.116028 322.516785,341.394989 
	C338.717133,348.265564 355.728668,347.961670 372.655579,346.204437 
	C380.616669,345.378021 388.352539,342.382385 396.945282,340.285919 
	C405.957611,337.014191 414.871429,333.569794 422.068268,325.831085 
	C427.438934,322.789032 431.706116,319.108337 430.199646,311.099792 
	C430.154755,307.735321 430.109833,304.370850 430.215729,300.099396 
	C430.166901,296.735352 430.118073,293.371307 430.227478,289.109070 
	C430.174072,286.074738 430.120697,283.040436 430.236725,279.117584 
	C430.173004,276.413483 430.109314,273.709351 430.222870,270.081329 
	C430.175873,263.057526 430.128876,256.033752 430.263824,248.094742 
	C430.263824,244.517090 430.263824,240.939438 430.263824,237.318192 
	C404.192047,237.318192 378.854065,237.318192 353.247009,237.318192 
	C353.247009,241.416168 353.247009,245.198654 353.081879,249.906647 
	C353.081879,255.495087 353.081879,261.083527 353.081879,267.084412 
	C364.399780,267.084412 375.009125,267.166779 385.615753,267.031433 
	C388.578796,266.993622 390.500610,267.536438 390.038147,271.852600 
	C390.093903,274.230865 390.149658,276.609161 390.030731,279.890320 
	C390.088745,283.255341 390.146790,286.620331 390.032837,290.881134 
	C390.087952,293.918152 390.143066,296.955170 390.032959,300.734589 
	C387.968536,303.367981 385.904144,306.001404 383.105896,308.790497 
	C367.097229,315.819092 351.075073,316.261047 334.573303,308.394501 
	C330.884186,305.199951 327.195099,302.005402 323.240875,298.144867 
	C321.617950,295.394043 319.995056,292.643219 318.244934,289.142975 
	C317.160370,286.429199 316.075775,283.715454 314.994415,280.232483 
	C314.527649,278.495361 314.060883,276.758270 313.668915,274.470795 
	C313.436188,273.984375 313.203461,273.497955 313.038910,272.205170 
	C312.869965,271.144196 312.700989,270.083221 312.642517,268.384003 
	C312.382324,267.594360 312.122101,266.804749 311.958679,265.160095 
	C311.742401,263.466980 311.526123,261.773895 311.611237,259.175690 
	C311.556061,252.703857 311.561920,246.230698 311.422974,239.760666 
	C311.338867,235.844131 311.030334,231.932434 311.062317,227.129776 
	C311.337219,223.082474 311.612122,219.035187 311.961700,214.129715 
	C312.198059,212.514328 312.229706,210.835495 312.707214,209.294846 
	C314.505066,203.494324 316.448151,197.738785 318.843689,191.434402 
	C322.581818,184.056351 327.827026,177.981308 335.215637,173.180435 
	C336.136810,172.698364 337.057953,172.216293 338.756439,171.685349 
	C342.785187,170.641174 346.813904,169.597015 351.714569,168.803665 
	C353.518250,168.731491 355.321960,168.659317 357.746582,168.996124 
	C359.511963,169.125885 361.277374,169.255646 363.673157,169.722412 
	C364.143585,169.716522 364.613983,169.710632 365.618835,170.162384 
	C367.418304,170.702850 369.217804,171.243317 371.554993,172.160828 
	C372.914490,172.828308 374.274017,173.495773 375.921631,174.737427 
	C376.961823,175.447647 378.002045,176.157852 379.389557,177.449112 
	C381.775238,180.615311 384.160889,183.781509 386.493530,187.566437 
	C386.919403,188.260086 387.345245,188.953751 387.762573,190.328415 
	C388.481384,192.229111 389.200195,194.129791 389.848480,196.849335 
	C390.288605,198.942352 390.728760,201.035370 391.242584,203.478699 
	C397.884399,203.478699 404.331879,203.478699 410.779358,203.478699 
	C417.151611,203.478699 423.523834,203.478699 430.700775,203.478699 
	C429.613861,198.690643 428.745972,194.867508 427.964661,190.350769 
	C427.835907,189.907196 427.707123,189.463623 427.678528,188.465408 
M124.593918,323.512634 
	C125.519608,320.317535 126.445297,317.122437 127.764076,313.245178 
	C128.853851,309.497833 129.943634,305.750519 131.687393,301.483948 
	C132.487213,301.313660 133.286835,300.995667 134.086884,300.994568 
	C155.794479,300.964417 177.502151,300.949615 199.209610,301.008240 
	C200.441910,301.011566 201.672470,301.661560 202.929184,302.794342 
	C204.546768,307.572388 206.164352,312.350433 207.840210,317.894257 
	C208.719299,320.584625 209.598389,323.274963 210.395844,326.690186 
	C211.584595,330.131805 212.773331,333.573456 213.959305,337.803864 
	C214.349152,343.030792 217.185242,344.486603 222.272446,344.292877 
	C232.549133,343.901581 242.851181,344.187622 253.142700,344.162903 
	C254.871964,344.158752 256.600861,343.997009 259.172363,343.864746 
	C257.666931,340.579010 256.519501,338.074646 255.192154,334.838593 
	C253.584106,330.354218 251.976059,325.869873 250.350113,320.721924 
	C249.615051,318.806824 248.879990,316.891754 248.114578,314.198639 
	C246.376389,309.479645 244.638214,304.760620 242.868073,299.325531 
	C242.002762,297.196686 241.137451,295.067810 240.239166,292.159088 
	C238.520981,287.426086 236.802795,282.693115 235.024399,277.214111 
	C233.828644,274.091248 232.632904,270.968384 231.339310,267.066345 
	C229.597839,262.382996 227.856369,257.699646 226.075699,252.259567 
	C224.414352,247.827118 222.752991,243.394653 221.074402,238.193939 
	C219.222549,233.074066 217.370697,227.954178 215.382233,222.065231 
	C214.369186,219.388870 213.356155,216.712494 212.438614,213.431030 
	C212.056580,212.724991 211.674545,212.018967 211.310425,210.607529 
	C208.781799,203.768738 206.253159,196.929932 203.708267,189.450943 
	C203.195831,188.301987 202.683395,187.153015 202.191162,185.217209 
	C200.759644,181.490036 199.328125,177.762878 197.932617,173.288635 
	C194.253571,162.872086 190.695786,152.409286 186.759293,142.090942 
	C186.195511,140.613159 183.827194,138.922226 182.250977,138.878418 
	C171.939056,138.591843 161.613235,138.632889 151.297836,138.848740 
	C149.906372,138.877869 147.742416,140.193573 147.299805,141.409790 
	C143.213959,152.636887 139.428207,163.973175 135.006638,175.748749 
	C134.366989,177.842270 133.727325,179.935806 132.534424,182.494965 
	C131.242737,186.626312 129.951050,190.757645 128.133987,195.325073 
	C125.777908,202.220520 123.421829,209.115952 120.616653,216.542267 
	C119.798271,219.051422 118.979881,221.560562 117.624725,224.543076 
	C115.344101,231.346649 113.063477,238.150208 110.318756,245.469513 
	C109.528473,247.972168 108.738190,250.474838 107.441566,253.492905 
	C106.161064,257.427551 104.880562,261.362213 103.088646,265.822357 
	C101.406342,270.547119 99.724037,275.271881 97.615738,280.608398 
	C96.443779,284.416260 95.271820,288.224091 93.592400,292.547882 
	C92.602257,295.671753 91.612122,298.795654 90.127914,302.392883 
	C88.845253,306.236786 87.562599,310.080658 85.913361,314.449554 
	C84.874695,317.640198 83.836029,320.830841 82.394310,324.584015 
	C81.542435,327.039581 80.690559,329.495117 79.380508,332.498291 
	C78.152077,336.045471 76.923645,339.592621 75.448776,343.851379 
	C78.056366,343.988892 79.804810,344.155212 81.553772,344.160828 
	C90.173294,344.188354 98.792946,344.172668 107.412552,344.173340 
	C119.113052,344.174225 119.113510,344.174713 121.754570,332.482361 
	C121.790047,332.325287 121.753372,332.151978 122.153152,331.347473 
	C122.820465,328.920258 123.487778,326.493073 124.593918,323.512634 
z"/>
<path fill="#FCFCFC" opacity="1.000000" stroke="none" 
	d="
M357.125641,168.587158 
	C355.321960,168.659317 353.518250,168.731491 350.960693,168.494415 
	C346.130890,169.368179 342.054993,170.551193 337.979095,171.734222 
	C337.057953,172.216293 336.136810,172.698364 334.397003,173.136932 
	C320.331848,173.062042 307.082184,173.168686 293.841797,172.867722 
	C291.550079,172.815659 289.297577,171.037155 287.026978,170.056107 
	C288.536835,167.830994 290.046722,165.605865 292.171265,163.145203 
	C293.505585,161.895142 294.225189,160.880646 294.944794,159.866150 
	C296.033600,158.625854 297.122406,157.385559 298.830078,155.999939 
	C299.962280,155.226837 300.475555,154.599030 300.988831,153.971222 
	C302.458221,152.705292 303.927643,151.439362 306.055756,150.095947 
	C307.479584,149.354538 308.244690,148.690582 309.009827,148.026611 
	C310.005463,147.326614 311.001099,146.626602 312.612335,145.915649 
	C313.831116,145.436356 314.434235,144.968002 315.037384,144.499664 
	C330.852142,135.776825 347.944519,134.828094 365.385925,136.428421 
	C381.497742,137.906738 396.240448,142.993744 408.226654,154.306152 
	C411.047852,156.968796 413.082947,160.464355 415.775635,164.140778 
	C417.005188,165.817871 417.938751,166.930939 418.872345,168.043991 
	C419.563141,169.143127 420.253937,170.242264 420.540344,171.688248 
	C417.172791,172.356720 414.212677,172.917435 411.245850,172.955688 
	C401.914520,173.075989 392.580139,172.948792 383.248230,173.045410 
	C381.496490,173.063553 379.750824,173.672104 377.605652,174.005219 
	C376.683838,174.055908 376.158661,174.109573 375.633514,174.163239 
	C374.274017,173.495773 372.914490,172.828308 371.196198,171.658844 
	C368.919739,170.672821 367.002075,170.188782 365.084412,169.704742 
	C364.613983,169.710632 364.143585,169.716522 363.205139,169.269623 
	C360.866638,168.740280 358.996155,168.663712 357.125641,168.587158 
z"/>
<path fill="#FCFCFC" opacity="1.000000" stroke="none" 
	d="
M135.555176,175.277695 
	C139.428207,163.973175 143.213959,152.636887 147.299805,141.409790 
	C147.742416,140.193573 149.906372,138.877869 151.297836,138.848740 
	C161.613235,138.632889 171.939056,138.591843 182.250977,138.878418 
	C183.827194,138.922226 186.195511,140.613159 186.759293,142.090942 
	C190.695786,152.409286 194.253571,162.872086 197.710114,173.867523 
	C196.060822,175.622086 194.647522,177.801270 193.205139,177.820694 
	C175.618378,178.057510 158.026550,178.048248 140.438629,177.861176 
	C138.801849,177.843765 137.182571,176.178070 135.555176,175.277695 
z"/>
<path fill="#8C8E8F" opacity="1.000000" stroke="none" 
	d="
M298.710114,326.127533 
	C294.788361,321.671661 290.866577,317.215759 287.349670,312.396301 
	C301.856903,312.022461 315.959320,312.021149 330.061676,311.992737 
	C332.325775,311.988159 335.009491,312.533325 335.036926,308.888977 
	C351.075073,316.261047 367.097229,315.819092 383.591125,309.096130 
	C387.377869,313.263153 391.512024,311.355255 395.541199,311.341003 
	C407.048981,311.300262 418.558472,311.751740 430.067291,312.009613 
	C431.706116,319.108337 427.438934,322.789032 421.306885,325.973663 
	C379.933716,326.119995 339.321930,326.123779 298.710114,326.127533 
z"/>
<path fill="#A4A6A7" opacity="1.000000" stroke="none" 
	d="
M235.084595,277.960083 
	C236.802795,282.693115 238.520981,287.426086 239.837189,292.619385 
	C235.182159,293.052765 230.929108,293.006165 226.676025,293.002716 
	C213.933487,292.992371 201.190948,292.998810 188.448410,292.998779 
	C167.094025,292.998718 145.739624,292.998779 124.385239,292.998749 
	C116.233009,292.998749 108.080002,293.059052 99.929115,292.954407 
	C97.982407,292.929382 96.042755,292.354126 94.099854,292.031952 
	C95.271820,288.224091 96.443779,284.416260 98.294449,280.303711 
	C110.768860,279.999756 122.564568,280.001007 134.360275,280.001129 
	C165.651688,280.001404 196.943283,280.043823 228.234146,279.913239 
	C230.520294,279.903717 232.801224,278.640472 235.084595,277.960083 
z"/>
<path fill="#ABADAE" opacity="1.000000" stroke="none" 
	d="
M235.054504,277.587097 
	C232.801224,278.640472 230.520294,279.903717 228.234146,279.913239 
	C196.943283,280.043823 165.651688,280.001404 134.360275,280.001129 
	C122.564568,280.001007 110.768860,279.999756 98.507446,279.997833 
	C99.724037,275.271881 101.406342,270.547119 103.461136,265.996948 
	C105.662651,267.443756 107.449883,269.733948 109.327980,269.811035 
	C117.246284,270.136139 125.205330,270.040741 133.120422,269.589569 
	C136.270248,269.410034 139.344757,267.908905 142.837189,267.247711 
	C159.348343,267.606323 175.475876,267.726685 192.039185,267.936035 
	C203.535904,268.349487 214.595703,268.736450 225.658890,268.939056 
	C227.577667,268.974213 229.510696,268.229828 231.437164,267.845520 
	C232.632904,270.968384 233.828644,274.091248 235.054504,277.587097 
z"/>
<path fill="#B6B7B8" opacity="1.000000" stroke="none" 
	d="
M430.081848,249.009949 
	C430.128876,256.033752 430.175873,263.057526 429.674011,270.540710 
	C416.158936,270.992828 403.192749,270.985535 390.226532,270.978271 
	C390.500610,267.536438 388.578796,266.993622 385.615753,267.031433 
	C375.009125,267.166779 364.399780,267.084412 353.081879,267.084412 
	C353.081879,261.083527 353.081879,255.495087 353.605255,249.447632 
	C361.558533,249.327637 368.986603,249.867615 376.418976,249.935883 
	C381.486969,249.982452 386.558624,249.151367 391.632904,249.094650 
	C404.447906,248.951370 417.265381,249.023895 430.081848,249.009949 
z"/>
<path fill="#838587" opacity="1.000000" stroke="none" 
	d="
M298.846558,326.441864 
	C339.321930,326.123779 379.933716,326.119995 421.056580,326.177277 
	C414.871429,333.569794 405.957611,337.014191 396.256226,340.006348 
	C394.787262,339.493896 394.007812,339.058990 393.227478,339.057465 
	C370.690796,339.012939 348.153931,338.983276 325.617645,339.082764 
	C324.417786,339.088043 323.222961,340.241821 322.025787,340.860962 
	C313.147156,338.116028 305.663208,333.092621 298.846558,326.441864 
z"/>
<path fill="#9C9E9F" opacity="1.000000" stroke="none" 
	d="
M93.846130,292.289917 
	C96.042755,292.354126 97.982407,292.929382 99.929115,292.954407 
	C108.080002,293.059052 116.233009,292.998749 124.385239,292.998749 
	C145.739624,292.998779 167.094025,292.998718 188.448410,292.998779 
	C201.190948,292.998810 213.933487,292.992371 226.676025,293.002716 
	C230.929108,293.006165 235.182159,293.052765 239.853683,293.009308 
	C241.137451,295.067810 242.002762,297.196686 242.611496,299.922760 
	C239.395233,301.295990 236.437317,302.721924 233.475525,302.729980 
	C223.285690,302.757721 213.094513,302.289703 202.903839,302.010559 
	C201.672470,301.661560 200.441910,301.011566 199.209610,301.008240 
	C177.502151,300.949615 155.794479,300.964417 134.086884,300.994568 
	C133.286835,300.995667 132.487213,301.313660 130.911835,301.742371 
	C116.964859,301.973724 103.793419,301.946625 90.621986,301.919525 
	C91.612122,298.795654 92.602257,295.671753 93.846130,292.289917 
z"/>
<path fill="#E1E1E2" opacity="1.000000" stroke="none" 
	d="
M318.336853,191.966400 
	C316.448151,197.738785 314.505066,203.494324 312.707214,209.294846 
	C312.229706,210.835495 312.198059,212.514328 311.463074,214.558990 
	C300.054718,214.989059 289.143127,215.095032 278.236938,214.899612 
	C276.122681,214.861725 274.029510,213.647797 271.926605,212.976349 
	C273.690918,205.007507 275.455200,197.038681 277.647766,189.209656 
	C283.297180,190.214218 288.493378,191.558884 293.745361,191.832901 
	C301.922607,192.259537 310.137756,191.958847 318.336853,191.966400 
z"/>
<path fill="#C1C2C3" opacity="1.000000" stroke="none" 
	d="
M430.172852,248.552338 
	C417.265381,249.023895 404.447906,248.951370 391.632904,249.094650 
	C386.558624,249.151367 381.486969,249.982452 376.418976,249.935883 
	C368.986603,249.867615 361.558533,249.327637 353.687805,248.984894 
	C353.247009,245.198654 353.247009,241.416168 353.247009,237.318192 
	C378.854065,237.318192 404.192047,237.318192 430.263824,237.318192 
	C430.263824,240.939438 430.263824,244.517090 430.172852,248.552338 
z"/>
<path fill="#D3D3D4" opacity="1.000000" stroke="none" 
	d="
M212.343124,214.036133 
	C213.356155,216.712494 214.369186,219.388870 215.026855,222.614197 
	C212.568954,223.444931 210.469864,223.938187 208.363312,223.972382 
	C198.372849,224.134583 188.380356,224.171585 178.237244,223.932007 
	C175.872757,216.469482 173.659637,209.328110 171.951996,202.147461 
	C181.680527,202.078995 190.903732,202.070389 200.126633,202.013535 
	C206.428177,201.974686 206.973236,200.965393 204.013184,194.672058 
	C203.903046,192.924164 203.813797,191.507660 203.724533,190.091141 
	C206.253159,196.929932 208.781799,203.768738 211.240768,211.283356 
	C211.561783,212.651505 211.952454,213.343811 212.343124,214.036133 
z"/>
<path fill="#EEEFEF" opacity="1.000000" stroke="none" 
	d="
M318.590271,191.700409 
	C310.137756,191.958847 301.922607,192.259537 293.745361,191.832901 
	C288.493378,191.558884 283.297180,190.214218 277.918823,188.952606 
	C278.219635,187.226776 278.677643,185.897781 279.657898,184.148041 
	C280.356842,182.930023 280.533508,182.132767 280.710175,181.335510 
	C282.615417,177.675858 284.520660,174.016190 286.726440,170.206314 
	C289.297577,171.037155 291.550079,172.815659 293.841797,172.867722 
	C307.082184,173.168686 320.331848,173.062042 334.085083,173.156769 
	C327.827026,177.981308 322.581818,184.056351 318.590271,191.700409 
z"/>
<path fill="#E1E1E2" opacity="1.000000" stroke="none" 
	d="
M121.065758,216.011398 
	C123.421829,209.115952 125.777908,202.220520 128.830383,195.190552 
	C131.808304,195.370636 134.086945,195.930161 136.371841,195.956970 
	C145.654556,196.065842 154.939178,196.011200 164.256256,196.412170 
	C162.171524,203.202286 160.053619,209.597137 157.499603,215.981705 
	C145.064224,215.984756 133.064987,215.998077 121.065758,216.011398 
z"/>
<path fill="#C8C9C9" opacity="1.000000" stroke="none" 
	d="
M110.782852,244.953781 
	C113.063477,238.150208 115.344101,231.346649 118.174652,224.557098 
	C120.553650,225.048935 122.377754,225.916550 124.212608,225.939926 
	C134.447891,226.070389 144.685776,225.996475 154.939270,226.377686 
	C152.941193,232.839752 150.926620,238.916519 148.448898,244.991028 
	C135.584778,244.977097 123.183815,244.965439 110.782852,244.953781 
z"/>
<path fill="#C8C9C9" opacity="1.000000" stroke="none" 
	d="
M178.388596,224.253174 
	C188.380356,224.171585 198.372849,224.134583 208.363312,223.972382 
	C210.469864,223.938187 212.568954,223.444931 215.095169,222.998749 
	C217.370697,227.954178 219.222549,233.074066 220.772797,238.820908 
	C218.655457,239.965195 216.845856,240.903595 215.022980,240.930161 
	C204.658417,241.081161 194.290665,241.014420 183.690826,240.738968 
	C181.767960,235.055191 180.078278,229.654190 178.388596,224.253174 
z"/>
<path fill="#ABADAE" opacity="1.000000" stroke="none" 
	d="
M271.791992,269.980865 
	C271.637115,269.230896 271.482239,268.480927 271.816711,267.354614 
	C280.649780,266.655701 288.991882,266.278839 297.337891,266.032318 
	C301.876892,265.898193 306.422455,265.985596 310.982697,266.289856 
	C311.510895,267.411835 312.021484,268.217041 312.532043,269.022247 
	C312.700989,270.083221 312.869965,271.144196 312.824646,272.770996 
	C312.938293,273.898285 313.266205,274.459717 313.594116,275.021149 
	C314.060883,276.758270 314.527649,278.495361 314.572144,280.636902 
	C311.051117,281.360474 307.955048,281.920349 304.853149,281.954651 
	C294.624634,282.067902 284.394073,281.991058 274.164276,281.987183 
	C273.955078,281.115479 273.745850,280.243774 273.674988,278.729126 
	C273.494873,277.387909 273.176361,276.689606 272.857849,275.991333 
	C272.607391,274.913879 272.356934,273.836456 272.303040,272.193298 
	C272.263733,271.078674 272.027863,270.529755 271.791992,269.980865 
z"/>
<path fill="#B6B7B8" opacity="1.000000" stroke="none" 
	d="
M231.388229,267.455933 
	C229.510696,268.229828 227.577667,268.974213 225.658890,268.939056 
	C214.595703,268.736450 203.535904,268.349487 191.996872,267.579590 
	C190.314270,262.760223 189.109726,258.386230 188.332062,253.985733 
	C191.553894,253.639923 194.346085,253.077271 197.144302,253.045486 
	C206.800018,252.935791 216.457870,253.011322 226.114899,253.016312 
	C227.856369,257.699646 229.597839,262.382996 231.388229,267.455933 
z"/>
<path fill="#EEEFEF" opacity="1.000000" stroke="none" 
	d="
M135.280914,175.513214 
	C137.182571,176.178070 138.801849,177.843765 140.438629,177.861176 
	C158.026550,178.048248 175.618378,178.057510 193.205139,177.820694 
	C194.647522,177.801270 196.060822,175.622086 197.692108,174.241074 
	C199.328125,177.762878 200.759644,181.490036 201.756531,185.672424 
	C192.279541,186.418320 183.235245,186.661789 174.196320,187.035339 
	C172.121201,187.121109 170.064545,187.654083 167.665985,187.984161 
	C166.888062,187.994476 166.443527,188.001892 165.672623,187.753113 
	C156.634491,187.331161 147.920334,186.976273 139.212082,187.086411 
	C135.362442,187.135086 132.915924,186.412292 133.087677,182.029327 
	C133.727325,179.935806 134.366989,177.842270 135.280914,175.513214 
z"/>
<path fill="#969798" opacity="1.000000" stroke="none" 
	d="
M202.916504,302.402466 
	C213.094513,302.289703 223.285690,302.757721 233.475525,302.729980 
	C236.437317,302.721924 239.395233,301.295990 242.627472,300.280823 
	C244.638214,304.760620 246.376389,309.479645 247.697174,314.610779 
	C236.535843,315.347412 225.789810,315.617310 215.049652,316.037781 
	C212.616592,316.133057 210.203964,316.751099 207.781937,317.128479 
	C206.164352,312.350433 204.546768,307.572388 202.916504,302.402466 
z"/>
<path fill="#969798" opacity="1.000000" stroke="none" 
	d="
M334.805115,308.641724 
	C335.009491,312.533325 332.325775,311.988159 330.061676,311.992737 
	C315.959320,312.021149 301.856903,312.022461 287.268188,312.056061 
	C284.794373,308.640991 282.806854,305.202576 281.238281,301.371338 
	C293.026794,300.653137 304.398590,300.386078 315.764343,299.958313 
	C318.355591,299.860809 320.925995,299.208038 323.505981,298.810852 
	C327.195099,302.005402 330.884186,305.199951 334.805115,308.641724 
z"/>
<path fill="#D3D3D4" opacity="1.000000" stroke="none" 
	d="
M271.561218,213.195862 
	C274.029510,213.647797 276.122681,214.861725 278.236938,214.899612 
	C289.143127,215.095032 300.054718,214.989059 311.425720,214.988068 
	C311.612122,219.035187 311.337219,223.082474 310.686890,227.633789 
	C310.094391,228.407837 309.877350,228.677872 309.213165,228.962296 
	C295.982452,228.640106 283.198853,228.303528 270.415283,227.966949 
	C270.675476,223.116425 270.935669,218.265900 271.561218,213.195862 
z"/>
<path fill="#C8C9C9" opacity="1.000000" stroke="none" 
	d="
M270.312439,228.425232 
	C283.198853,228.303528 295.982452,228.640106 309.366455,229.295013 
	C309.936768,234.065979 309.906616,238.518616 309.415619,242.978210 
	C296.088104,242.983078 283.221466,242.981018 270.354858,242.978958 
	C270.306427,238.280487 270.257996,233.582001 270.312439,228.425232 
z"/>
<path fill="#B6B7B8" opacity="1.000000" stroke="none" 
	d="
M142.453568,267.009460 
	C139.344757,267.908905 136.270248,269.410034 133.120422,269.589569 
	C125.205330,270.040741 117.246284,270.136139 109.327980,269.811035 
	C107.449883,269.733948 105.662651,267.443756 103.716843,265.734192 
	C104.880562,261.362213 106.161064,257.427551 107.976677,253.479797 
	C109.687500,254.288086 110.871483,255.832031 112.037651,255.818680 
	C123.296913,255.689804 134.553177,255.299164 145.826706,255.358551 
	C144.713272,259.492340 143.583420,263.250916 142.453568,267.009460 
z"/>
<path fill="#EEEFEF" opacity="1.000000" stroke="none" 
	d="
M378.002350,174.008209 
	C379.750824,173.672104 381.496490,173.063553 383.248230,173.045410 
	C392.580139,172.948792 401.914520,173.075989 411.245850,172.955688 
	C414.212677,172.917435 417.172791,172.356720 420.555939,172.020477 
	C422.447449,175.190414 423.918976,178.374969 425.262817,182.364502 
	C425.090118,183.779648 425.045044,184.389816 424.531342,185.000366 
	C413.948517,185.001083 403.832397,184.898987 393.721924,185.092239 
	C391.803131,185.128876 389.906738,186.336060 387.757751,186.988983 
	C387.193512,186.929443 386.870544,186.920395 386.546539,186.947693 
	C384.160889,183.781509 381.775238,180.615311 379.169006,176.855927 
	C378.633087,175.511230 378.317719,174.759720 378.002350,174.008209 
z"/>
<path fill="#C1C2C3" opacity="1.000000" stroke="none" 
	d="
M270.250397,243.433273 
	C283.221466,242.981018 296.088104,242.983078 309.449585,243.443298 
	C309.945068,247.924210 309.945709,251.946960 309.481079,255.976288 
	C296.175629,255.973740 283.335419,255.964645 270.495239,255.955551 
	C270.378815,251.932892 270.262390,247.910248 270.250397,243.433273 
z"/>
<path fill="#969798" opacity="1.000000" stroke="none" 
	d="
M90.374954,302.156189 
	C103.793419,301.946625 116.964859,301.973724 130.584839,302.002014 
	C129.943634,305.750519 128.853851,309.497833 127.149490,313.606506 
	C113.116585,313.953400 99.698257,313.938995 86.279938,313.924561 
	C87.562599,310.080658 88.845253,306.236786 90.374954,302.156189 
z"/>
<path fill="#7D7F80" opacity="1.000000" stroke="none" 
	d="
M121.750374,331.986237 
	C121.753372,332.151978 121.790047,332.325287 121.754570,332.482361 
	C119.113510,344.174713 119.113052,344.174225 107.412552,344.173340 
	C98.792946,344.172668 90.173294,344.188354 81.553772,344.160828 
	C79.804810,344.155212 78.056366,343.988892 75.448776,343.851379 
	C76.923645,339.592621 78.152077,336.045471 80.042389,332.255981 
	C90.007103,332.296600 99.308594,332.710693 108.613327,332.804871 
	C112.989136,332.849182 117.371162,332.278320 121.750374,331.986237 
z"/>
<path fill="#7D7F80" opacity="1.000000" stroke="none" 
	d="
M322.271301,341.127960 
	C323.222961,340.241821 324.417786,339.088043 325.617645,339.082764 
	C348.153931,338.983276 370.690796,339.012939 393.227478,339.057465 
	C394.007812,339.058990 394.787262,339.493896 395.878784,340.048279 
	C388.352539,342.382385 380.616669,345.378021 372.655579,346.204437 
	C355.728668,347.961670 338.717133,348.265564 322.271301,341.127960 
z"/>
<path fill="#838587" opacity="1.000000" stroke="none" 
	d="
M213.962067,337.015076 
	C212.773331,333.573456 211.584595,330.131805 210.866165,326.334656 
	C222.743942,325.985870 234.154114,325.854614 245.557266,326.079498 
	C249.205719,326.151489 250.801208,325.045898 250.367996,321.385498 
	C251.976059,325.869873 253.584106,330.354218 254.942871,335.520813 
	C252.752975,336.468689 250.813782,336.951538 248.871490,336.964386 
	C237.235413,337.041290 225.598618,337.010071 213.962067,337.015076 
z"/>
<path fill="#C1C2C3" opacity="1.000000" stroke="none" 
	d="
M226.095306,252.637939 
	C216.457870,253.011322 206.800018,252.935791 197.144302,253.045486 
	C194.346085,253.077271 191.553894,253.639923 188.137039,253.677246 
	C186.318085,249.270767 185.121048,245.146255 183.924011,241.021729 
	C194.290665,241.014420 204.658417,241.081161 215.022980,240.930161 
	C216.845856,240.903595 218.655457,239.965195 220.781403,239.205048 
	C222.752991,243.394653 224.414352,247.827118 226.095306,252.637939 
z"/>
<path fill="#969798" opacity="1.000000" stroke="none" 
	d="
M430.133484,311.554688 
	C418.558472,311.751740 407.048981,311.300262 395.541199,311.341003 
	C391.512024,311.355255 387.377869,313.263153 383.958069,309.018280 
	C385.904144,306.001404 387.968536,303.367981 390.511475,300.445984 
	C393.102142,300.438599 395.212616,300.946808 397.326843,300.963013 
	C408.239014,301.046814 419.152130,301.004608 430.064941,301.006378 
	C430.109833,304.370850 430.154755,307.735321 430.133484,311.554688 
z"/>
<path fill="#9C9E9F" opacity="1.000000" stroke="none" 
	d="
M430.140320,300.552887 
	C419.152130,301.004608 408.239014,301.046814 397.326843,300.963013 
	C395.212616,300.946808 393.102142,300.438599 390.594055,300.074768 
	C390.143066,296.955170 390.087952,293.918152 390.573151,290.435486 
	C404.098724,289.995636 417.083984,290.001465 430.069244,290.007263 
	C430.118073,293.371307 430.166901,296.735352 430.140320,300.552887 
z"/>
<path fill="#8C8E8F" opacity="1.000000" stroke="none" 
	d="
M86.096649,314.187073 
	C99.698257,313.938995 113.116585,313.953400 126.952942,313.947571 
	C126.445297,317.122437 125.519608,320.317535 123.893921,323.772278 
	C109.728401,324.028473 96.262878,324.024963 82.797363,324.021484 
	C83.836029,320.830841 84.874695,317.640198 86.096649,314.187073 
z"/>
<path fill="#B6B7B8" opacity="1.000000" stroke="none" 
	d="
M270.403381,256.324799 
	C283.335419,255.964645 296.175629,255.973740 309.526184,256.248840 
	C310.460968,257.703491 310.885376,258.892151 311.309814,260.080780 
	C311.526123,261.773895 311.742401,263.466980 311.686676,265.564453 
	C311.414673,265.968811 310.965057,265.973083 310.965057,265.973083 
	C306.422455,265.985596 301.876892,265.898193 297.337891,266.032318 
	C288.991882,266.278839 280.649780,266.655701 271.903076,266.975830 
	C271.342407,266.218353 271.184723,265.463257 271.308716,264.074585 
	C271.246277,261.941101 270.902191,260.441193 270.558075,258.941284 
	C270.475891,258.192200 270.393707,257.443146 270.403381,256.324799 
z"/>
<path fill="#C1C2C3" opacity="1.000000" stroke="none" 
	d="
M145.810303,254.983322 
	C134.553177,255.299164 123.296913,255.689804 112.037651,255.818680 
	C110.871483,255.832031 109.687500,254.288086 108.229843,253.222092 
	C108.738190,250.474838 109.528473,247.972168 110.550797,245.211639 
	C123.183815,244.965439 135.584778,244.977097 148.474106,245.365860 
	C147.911743,248.823090 146.861023,251.903198 145.810303,254.983322 
z"/>
<path fill="#8C8E8F" opacity="1.000000" stroke="none" 
	d="
M250.359055,321.053711 
	C250.801208,325.045898 249.205719,326.151489 245.557266,326.079498 
	C234.154114,325.854614 222.743942,325.985870 210.906982,325.972229 
	C209.598389,323.274963 208.719299,320.584625 207.811066,317.511353 
	C210.203964,316.751099 212.616592,316.133057 215.049652,316.037781 
	C225.789810,315.617310 236.535843,315.347412 247.712341,314.999817 
	C248.879990,316.891754 249.615051,318.806824 250.359055,321.053711 
z"/>
<path fill="#A4A6A7" opacity="1.000000" stroke="none" 
	d="
M430.148376,289.558167 
	C417.083984,290.001465 404.098724,289.995636 390.659149,289.987610 
	C390.146790,286.620331 390.088745,283.255341 390.531494,279.445740 
	C394.794586,279.334503 398.553467,279.898193 402.320038,279.955627 
	C411.567230,280.096649 420.817963,280.004486 430.067291,280.006104 
	C430.120697,283.040436 430.174072,286.074738 430.148376,289.558167 
z"/>
<path fill="#9C9E9F" opacity="1.000000" stroke="none" 
	d="
M323.373413,298.477844 
	C320.925995,299.208038 318.355591,299.860809 315.764343,299.958313 
	C304.398590,300.386078 293.026794,300.653137 281.217560,301.003540 
	C279.471527,297.959381 278.165100,294.890137 277.307129,291.425537 
	C291.294403,290.650909 304.833252,290.271667 318.372131,289.892395 
	C319.995056,292.643219 321.617950,295.394043 323.373413,298.477844 
z"/>
<path fill="#E8E9E9" opacity="1.000000" stroke="none" 
	d="
M388.000000,187.003159 
	C389.906738,186.336060 391.803131,185.128876 393.721924,185.092239 
	C403.832397,184.898987 413.948517,185.001083 424.769501,185.007324 
	C425.476318,185.013931 425.952301,185.037628 425.952301,185.037628 
	C425.952301,185.037628 426.428833,185.033447 426.428833,185.033447 
	C426.591034,185.471298 426.753265,185.909134 426.716309,186.867767 
	C426.870850,187.932373 427.224609,188.476212 427.578369,189.020050 
	C427.707123,189.463623 427.835907,189.907196 427.692627,190.989044 
	C425.935944,192.750977 424.501129,194.768936 422.958649,194.854874 
	C411.957764,195.467728 400.934906,195.686417 389.919037,196.030487 
	C389.200195,194.129791 388.481384,192.229111 387.832886,189.548889 
	C387.935486,188.180618 387.967743,187.591888 388.000000,187.003159 
z"/>
<path fill="#A4A6A7" opacity="1.000000" stroke="none" 
	d="
M318.308533,289.517700 
	C304.833252,290.271667 291.294403,290.650909 277.270752,291.049622 
	C275.889709,288.295990 274.993439,285.522919 274.130737,282.368500 
	C284.394073,281.991058 294.624634,282.067902 304.853149,281.954651 
	C307.955048,281.920349 311.051117,281.360474 314.570526,281.021484 
	C316.075775,283.715454 317.160370,286.429199 318.308533,289.517700 
z"/>
<path fill="#D3D3D4" opacity="1.000000" stroke="none" 
	d="
M154.922775,225.992416 
	C144.685776,225.996475 134.447891,226.070389 124.212608,225.939926 
	C122.377754,225.916550 120.553650,225.048935 118.443039,224.320419 
	C118.979881,221.560562 119.798271,219.051422 120.841202,216.276825 
	C133.064987,215.998077 145.064224,215.984756 157.527573,216.360901 
	C156.968719,219.831039 155.945740,222.911728 154.922775,225.992416 
z"/>
<path fill="#838587" opacity="1.000000" stroke="none" 
	d="
M82.595840,324.302734 
	C96.262878,324.024963 109.728401,324.028473 123.674500,324.048889 
	C123.487778,326.493073 122.820465,328.920258 121.951767,331.666870 
	C117.371162,332.278320 112.989136,332.849182 108.613327,332.804871 
	C99.308594,332.710693 90.007103,332.296600 80.271477,331.982178 
	C80.690559,329.495117 81.542435,327.039581 82.595840,324.302734 
z"/>
<path fill="#E1E1E2" opacity="1.000000" stroke="none" 
	d="
M389.883759,196.439911 
	C400.934906,195.686417 411.957764,195.467728 422.958649,194.854874 
	C424.501129,194.768936 425.935944,192.750977 427.649353,191.335846 
	C428.745972,194.867508 429.613861,198.690643 430.700775,203.478699 
	C423.523834,203.478699 417.151611,203.478699 410.779358,203.478699 
	C404.331879,203.478699 397.884399,203.478699 391.242584,203.478699 
	C390.728760,201.035370 390.288605,198.942352 389.883759,196.439911 
z"/>
<path fill="#ABADAE" opacity="1.000000" stroke="none" 
	d="
M430.152008,279.561829 
	C420.817963,280.004486 411.567230,280.096649 402.320038,279.955627 
	C398.553467,279.898193 394.794586,279.334503 390.618835,278.994293 
	C390.149658,276.609161 390.093903,274.230865 390.132324,271.415405 
	C403.192749,270.985535 416.158936,270.992828 429.585388,271.002686 
	C430.109314,273.709351 430.173004,276.413483 430.152008,279.561829 
z"/>
<path fill="#E8E9E9" opacity="1.000000" stroke="none" 
	d="
M132.811050,182.262146 
	C132.915924,186.412292 135.362442,187.135086 139.212082,187.086411 
	C147.920334,186.976273 156.634491,187.331161 165.515015,188.125061 
	C165.641357,189.803726 165.598923,190.854233 165.608246,192.216614 
	C165.181046,193.691254 164.702072,194.854065 164.223099,196.016876 
	C154.939178,196.011200 145.654556,196.065842 136.371841,195.956970 
	C134.086945,195.930161 131.808304,195.370636 129.093079,194.972519 
	C129.951050,190.757645 131.242737,186.626312 132.811050,182.262146 
z"/>
<path fill="#E8E9E9" opacity="1.000000" stroke="none" 
	d="
M167.999390,187.981262 
	C170.064545,187.654083 172.121201,187.121109 174.196320,187.035339 
	C183.235245,186.661789 192.279541,186.418320 201.746429,186.065842 
	C202.683395,187.153015 203.195831,188.301987 203.716400,189.771042 
	C203.813797,191.507660 203.903046,192.924164 203.588196,194.691254 
	C192.454910,195.361725 181.725708,195.681625 170.833389,195.790771 
	C170.192703,195.375076 169.715134,195.170120 169.084930,194.643021 
	C168.589676,192.963608 168.247101,191.606354 167.940491,189.872345 
	C167.984085,188.990799 167.991745,188.486038 167.999390,187.981262 
z"/>
<path fill="#7D7F80" opacity="1.000000" stroke="none" 
	d="
M213.960693,337.409485 
	C225.598618,337.010071 237.235413,337.041290 248.871490,336.964386 
	C250.813782,336.951538 252.752975,336.468689 255.032837,335.886658 
	C256.519501,338.074646 257.666931,340.579010 259.172363,343.864746 
	C256.600861,343.997009 254.871964,344.158752 253.142700,344.162903 
	C242.851181,344.187622 232.549133,343.901581 222.272446,344.292877 
	C217.185242,344.486603 214.349152,343.030792 213.960693,337.409485 
z"/>
<path fill="#A4A6A7" opacity="1.000000" stroke="none" 
	d="
M311.460510,259.628235 
	C310.885376,258.892151 310.460968,257.703491 309.991455,256.242279 
	C309.945709,251.946960 309.945068,247.924210 309.910461,243.436356 
	C309.906616,238.518616 309.936768,234.065979 309.813599,229.280609 
	C309.877350,228.677872 310.094391,228.407837 310.567047,228.078186 
	C311.030334,231.932434 311.338867,235.844131 311.422974,239.760666 
	C311.561920,246.230698 311.556061,252.703857 311.460510,259.628235 
z"/>
<path fill="#EEEFEF" opacity="1.000000" stroke="none" 
	d="
M338.367767,171.709778 
	C342.054993,170.551193 346.130890,169.368179 350.524719,168.368988 
	C346.813904,169.597015 342.785187,170.641174 338.367767,171.709778 
z"/>
<path fill="#EEEFEF" opacity="1.000000" stroke="none" 
	d="
M357.436096,168.791641 
	C358.996155,168.663712 360.866638,168.740280 362.889954,169.101135 
	C361.277374,169.255646 359.511963,169.125885 357.436096,168.791641 
z"/>
<path fill="#EEEFEF" opacity="1.000000" stroke="none" 
	d="
M365.351624,169.933563 
	C367.002075,170.188782 368.919739,170.672821 370.927338,171.470306 
	C369.217804,171.243317 367.418304,170.702850 365.351624,169.933563 
z"/>
<path fill="#A4A6A7" opacity="1.000000" stroke="none" 
	d="
M270.465149,259.306946 
	C270.902191,260.441193 271.246277,261.941101 271.378723,263.691284 
	C270.902130,262.518585 270.637177,261.095581 270.465149,259.306946 
z"/>
<path fill="#EEEFEF" opacity="1.000000" stroke="none" 
	d="
M418.855347,167.711487 
	C417.938751,166.930939 417.005188,165.817871 416.034119,164.370239 
	C416.943878,165.150101 417.891144,166.264526 418.855347,167.711487 
z"/>
<path fill="#EEEFEF" opacity="1.000000" stroke="none" 
	d="
M294.641724,159.959869 
	C294.225189,160.880646 293.505585,161.895142 292.452881,162.960266 
	C292.859406,162.025131 293.599030,161.039368 294.641724,159.959869 
z"/>
<path fill="#E8E9E9" opacity="1.000000" stroke="none" 
	d="
M377.605652,174.005219 
	C378.317719,174.759720 378.633087,175.511230 378.995361,176.565399 
	C378.002045,176.157852 376.961823,175.447647 375.777588,174.450333 
	C376.158661,174.109573 376.683838,174.055908 377.605652,174.005219 
z"/>
<path fill="#A4A6A7" opacity="1.000000" stroke="none" 
	d="
M310.982697,266.289856 
	C310.965057,265.973083 311.414673,265.968811 311.638275,265.991943 
	C312.122101,266.804749 312.382324,267.594360 312.587280,268.703125 
	C312.021484,268.217041 311.510895,267.411835 310.982697,266.289856 
z"/>
<path fill="#EEEFEF" opacity="1.000000" stroke="none" 
	d="
M308.697205,148.051712 
	C308.244690,148.690582 307.479584,149.354538 306.373566,150.015625 
	C306.816650,149.367447 307.600647,148.722137 308.697205,148.051712 
z"/>
<path fill="#C8C9C9" opacity="1.000000" stroke="none" 
	d="
M212.390869,213.733582 
	C211.952454,213.343811 211.561783,212.651505 211.231812,211.636063 
	C211.674545,212.018967 212.056580,212.724991 212.390869,213.733582 
z"/>
<path fill="#EEEFEF" opacity="1.000000" stroke="none" 
	d="
M314.744446,144.480682 
	C314.434235,144.968002 313.831116,145.436356 312.918579,145.873886 
	C313.223267,145.382614 313.837372,144.922150 314.744446,144.480682 
z"/>
<path fill="#EEEFEF" opacity="1.000000" stroke="none" 
	d="
M300.683044,154.030762 
	C300.475555,154.599030 299.962280,155.226837 299.119873,155.883606 
	C299.319550,155.305161 299.848389,154.697739 300.683044,154.030762 
z"/>
<path fill="#A4A6A7" opacity="1.000000" stroke="none" 
	d="
M272.767090,276.284912 
	C273.176361,276.689606 273.494873,277.387909 273.743835,278.396637 
	C273.341644,277.997528 273.009003,277.287994 272.767090,276.284912 
z"/>
<path fill="#A4A6A7" opacity="1.000000" stroke="none" 
	d="
M313.631500,274.745972 
	C313.266205,274.459717 312.938293,273.898285 312.790558,273.174194 
	C313.203461,273.497955 313.436188,273.984375 313.631500,274.745972 
z"/>
<path fill="#A4A6A7" opacity="1.000000" stroke="none" 
	d="
M271.690216,270.233459 
	C272.027863,270.529755 272.263733,271.078674 272.346008,271.776459 
	C271.991119,271.445587 271.789795,270.965820 271.690216,270.233459 
z"/>
<path fill="#E1E1E2" opacity="1.000000" stroke="none" 
	d="
M280.455444,181.518890 
	C280.533508,182.132767 280.356842,182.930023 279.899536,183.885315 
	C279.812866,183.262985 280.006805,182.482635 280.455444,181.518890 
z"/>
<path fill="#E1E1E2" opacity="1.000000" stroke="none" 
	d="
M426.480591,184.726532 
	C426.428833,185.033447 425.952301,185.037628 425.952301,185.037628 
	C425.952301,185.037628 425.476318,185.013931 425.238159,185.006958 
	C425.045044,184.389816 425.090118,183.779648 425.241364,182.720734 
	C425.742493,182.987885 426.137421,183.703751 426.480591,184.726532 
z"/>
<path fill="#E1E1E2" opacity="1.000000" stroke="none" 
	d="
M387.757721,186.988983 
	C387.967743,187.591888 387.935486,188.180618 387.837158,189.208374 
	C387.345245,188.953751 386.919403,188.260086 386.520020,187.257080 
	C386.870544,186.920395 387.193512,186.929443 387.757721,186.988983 
z"/>
<path fill="#E1E1E2" opacity="1.000000" stroke="none" 
	d="
M427.628448,188.742722 
	C427.224609,188.476212 426.870850,187.932373 426.685242,187.220886 
	C427.128387,187.523956 427.403442,187.994690 427.628448,188.742722 
z"/>
<path fill="#313133" opacity="1.000000" stroke="none" 
	d="
M167.904526,190.249100 
	C168.247101,191.606354 168.589676,192.963608 169.049789,194.931396 
	C169.440628,196.029266 169.713943,196.516586 169.984100,197.349030 
	C170.469482,199.191666 170.958008,200.689194 171.446533,202.186737 
	C173.659637,209.328110 175.872757,216.469482 178.237244,223.932007 
	C180.078278,229.654190 181.767960,235.055191 183.690826,240.738983 
	C185.121048,245.146255 186.318085,249.270767 187.710175,253.703766 
	C189.109726,258.386230 190.314270,262.760223 191.561111,267.490631 
	C175.475876,267.726685 159.348343,267.606323 142.837189,267.247711 
	C143.583420,263.250916 144.713272,259.492340 145.826706,255.358551 
	C146.861023,251.903198 147.911743,248.823090 148.937256,245.368134 
	C150.926620,238.916519 152.941193,232.839752 154.939270,226.377686 
	C155.945740,222.911728 156.968719,219.831039 157.963715,216.371155 
	C160.053619,209.597137 162.171524,203.202286 164.256256,196.412155 
	C164.702072,194.854065 165.181046,193.691254 165.844513,192.033051 
	C166.654190,191.108109 167.279358,190.678604 167.904526,190.249100 
z"/>
<path fill="#E1E1E2" opacity="1.000000" stroke="none" 
	d="
M171.951996,202.147461 
	C170.958008,200.689194 170.469482,199.191666 170.191162,197.224945 
	C170.649414,196.543549 170.847794,196.292130 170.996521,196.001511 
	C181.725708,195.681625 192.454910,195.361725 203.609070,195.022629 
	C206.973236,200.965393 206.428177,201.974686 200.126633,202.013535 
	C190.903732,202.070389 181.680527,202.078995 171.951996,202.147461 
z"/>
<path fill="#E1E1E2" opacity="1.000000" stroke="none" 
	d="
M167.940491,189.872345 
	C167.279358,190.678604 166.654190,191.108109 165.792755,191.721191 
	C165.598923,190.854233 165.641357,189.803726 165.841400,188.381256 
	C166.443527,188.001892 166.888062,187.994476 167.665985,187.984161 
	C167.991745,188.486038 167.984085,188.990799 167.940491,189.872345 
z"/>
<path fill="#D3D3D4" opacity="1.000000" stroke="none" 
	d="
M170.833389,195.790771 
	C170.847794,196.292130 170.649414,196.543549 170.194305,196.879852 
	C169.713943,196.516586 169.440628,196.029266 169.202454,195.253555 
	C169.715134,195.170120 170.192703,195.375076 170.833389,195.790771 
z"/>
</svg>