<svg xmlns="http://www.w3.org/2000/svg" xmlns:xlink="http://www.w3.org/1999/xlink" viewBox="0 0 85 85" fill="#fff" fill-rule="evenodd" stroke="#000" stroke-linecap="round" stroke-linejoin="round"><use xlink:href="#A" x="2.5" y="2.5"/><symbol id="A" overflow="visible"><g stroke="none"><path d="M0 41.579C0 20.293 17.84 3.157 40 3.157s40 17.136 40 38.422S62.16 80 40 80 0 62.864 0 41.579z" fill="#9d5025"/><path d="M0 38.422C0 17.136 17.84 0 40 0s40 17.136 40 38.422-17.84 38.422-40 38.422S0 59.707 0 38.422z" fill="#f58536"/><path d="M51.672 7.387v13.952H28.327V7.387zm18.061 40.378v11.364h-11.83V47.765zm-14.958 0v11.364h-11.83V47.765zm-18.206 0v11.364h-11.83V47.765zm-14.959 0v11.364H9.78V47.765z"/><path d="M14.63 37.929h2.13v11.149h-2.13z"/><path d="M14.63 37.929h17.088v2.045H14.63z"/><path d="M29.589 37.929h2.13v11.149H29.59zm18.206 0h2.13v11.149h-2.13z"/><path d="M47.795 37.929h17.088v2.045H47.795z"/><path d="M62.754 37.929h2.13v11.149h-2.129zm-40.631-7.954h2.13v8.977h-2.13zM38.935 19.28h2.13v10.859h-2.129z"/><path d="M22.123 29.116h35.32v2.045h-35.32z"/><path d="M55.314 29.975h2.13v8.977h-2.129z"/></g></symbol></svg>