<svg xmlns="http://www.w3.org/2000/svg" width="1em" height="1em" style="flex:none;line-height:1" viewBox="0 0 24 24"><title>Azure</title><path fill="url(#a)" d="M7.242 1.613A1.11 1.11 0 0 1 8.295.857h6.977L8.03 22.316a1.11 1.11 0 0 1-1.052.755h-5.43a1.11 1.11 0 0 1-1.053-1.466z"/><path fill="#0078d4" d="M18.397 15.296H7.4a.51.51 0 0 0-.347.882l7.066 6.595c.206.192.477.298.758.298h6.226z"/><path fill="url(#b)" d="M15.272.857H7.497L0 23.071h7.775l1.596-4.73 5.068 4.73h6.665l-2.707-7.775h-7.998z"/><path fill="url(#c)" d="M17.193 1.613a1.11 1.11 0 0 0-1.052-.756h-7.81.035c.477 0 .9.304 1.052.756l6.748 19.992a1.11 1.11 0 0 1-1.052 1.466h-.12 7.895a1.11 1.11 0 0 0 1.052-1.466z"/><defs><linearGradient id="a" x1="8.247" x2="1.002" y1="1.626" y2="23.03" gradientUnits="userSpaceOnUse"><stop stop-color="#114a8b"/><stop offset="1" stop-color="#0669bc"/></linearGradient><linearGradient id="b" x1="14.042" x2="12.324" y1="15.302" y2="15.888" gradientUnits="userSpaceOnUse"><stop stop-opacity=".3"/><stop offset=".071" stop-opacity=".2"/><stop offset=".321" stop-opacity=".1"/><stop offset=".623" stop-opacity=".05"/><stop offset="1" stop-opacity="0"/></linearGradient><linearGradient id="c" x1="12.841" x2="20.793" y1="1.626" y2="22.814" gradientUnits="userSpaceOnUse"><stop stop-color="#3ccbf4"/><stop offset="1" stop-color="#2892df"/></linearGradient></defs></svg>