<svg xmlns="http://www.w3.org/2000/svg" viewBox="0 0 18 18"><defs><linearGradient id="a" x1="2.59" y1="10.16" x2="15.41" y2="10.16" gradientUnits="userSpaceOnUse"><stop offset="0" stop-color="#005ba1"/><stop offset=".07" stop-color="#0060a9"/><stop offset=".36" stop-color="#0071c8"/><stop offset=".52" stop-color="#0078d4"/><stop offset=".64" stop-color="#0074cd"/><stop offset=".82" stop-color="#006abb"/><stop offset="1" stop-color="#005ba1"/></linearGradient></defs><path d="M9 5.14c-3.54 0-6.41-1-6.41-2.32v12.36c0 1.27 2.82 2.3 6.32 2.32H9c3.54 0 6.41-1 6.41-2.32V2.82c0 1.29-2.87 2.32-6.41 2.32z" fill="url(#a)"/><path d="M15.41 2.82c0 1.29-2.87 2.32-6.41 2.32s-6.41-1-6.41-2.32S5.46.5 9 .5s6.41 1 6.41 2.32" fill="#e8e8e8"/><path d="M13.92 2.63c0 .82-2.21 1.48-4.92 1.48s-4.92-.66-4.92-1.48S6.29 1.16 9 1.16s4.92.66 4.92 1.47" fill="#50e6ff"/><path d="M9 3a11.55 11.55 0 00-3.89.57A11.42 11.42 0 009 4.11a11.15 11.15 0 003.89-.58A11.84 11.84 0 009 3z" fill="#198ab3"/><path d="M12.64 9v1.63h-1a.39.39 0 01-.29-.14V9H10v1.78a.92.92 0 001 .89h1.49l.26-.13s-.11.41-.26.43h-2.38v1h2.66A1.21 1.21 0 0014 11.7V9zM9.53 9v-.49a.7.7 0 00-.48-.77 1.74 1.74 0 00-.5-.08.94.94 0 00-.91.58l-.78 1.9-1-1.9A.93.93 0 005 7.66a1.44 1.44 0 00-.51.09c-.35.11-.43.34-.43.73v3.31h1.17V9.56l.63 1.57a1.08 1.08 0 001 .66c.44 0 .62-.26.8-.66l.67-1.51v2.15h1.18V9z" fill="#f2f2f2"/></svg>