<svg xmlns="http://www.w3.org/2000/svg" viewBox="0 0 18 18"><defs><linearGradient id="a" x1="2.94" x2="8.67" y1="3.74" y2="3.74" gradientUnits="userSpaceOnUse"><stop offset="0" stop-color="#b77af4"/><stop offset="1" stop-color="#773adc"/></linearGradient><linearGradient id="b" x1="9.13" x2="14.85" y1="3.79" y2="3.79" gradientUnits="userSpaceOnUse"><stop offset="0" stop-color="#b77af4"/><stop offset="1" stop-color="#773adc"/></linearGradient><linearGradient id="c" x1=".01" x2="5.73" y1="9.12" y2="9.12" gradientUnits="userSpaceOnUse"><stop offset="0" stop-color="#b77af4"/><stop offset="1" stop-color="#773adc"/></linearGradient><linearGradient id="d" x1="6.18" x2="11.9" y1="9.08" y2="9.08" gradientUnits="userSpaceOnUse"><stop offset="0" stop-color="#b77af4"/><stop offset="1" stop-color="#773adc"/></linearGradient><linearGradient id="e" x1="12.35" x2="18.08" y1="9.13" y2="9.13" gradientUnits="userSpaceOnUse"><stop offset="0" stop-color="#b77af4"/><stop offset="1" stop-color="#773adc"/></linearGradient><linearGradient id="f" x1="2.87" x2="8.6" y1="14.56" y2="14.56" gradientUnits="userSpaceOnUse"><stop offset="0" stop-color="#b77af4"/><stop offset="1" stop-color="#773adc"/></linearGradient><linearGradient id="g" x1="9.05" x2="14.78" y1="14.6" y2="14.6" gradientUnits="userSpaceOnUse"><stop offset="0" stop-color="#b77af4"/><stop offset="1" stop-color="#773adc"/></linearGradient></defs><path fill="url(#a)" d="m5.8 1.22-2.86.53v3.9l2.86.61 2.87-1.15V2.2z"/><path fill="none" d="m5.91 6.2 2.62-1.06A.2.2 0 0 0 8.65 5V2.36a.21.21 0 0 0-.13-.18l-2.65-.9h-.12l-2.6.48a.2.2 0 0 0-.15.18v3.53a.19.19 0 0 0 .15.19l2.63.55a.3.3 0 0 0 .13-.01"/><path fill="#341a6e" d="M2.94 1.75v3.9l2.89.61v-5zm1.22 3.6-.81-.16v-3l.81-.13zm1.26.23-.93-.15V2l.93-.16z"/><path fill="url(#b)" d="m11.99 1.27-2.86.53v3.9l2.86.61 2.86-1.16v-2.9z"/><path fill="#341a6e" d="M9.13 1.8v3.9l2.87.61v-5zm1.21 3.6-.81-.16v-3l.81-.13zm1.26.23-.93-.15V2.05l.93-.17z"/><path fill="url(#c)" d="m2.87 6.6-2.86.53v3.9l2.86.61 2.87-1.15V7.58z"/><path fill="#341a6e" d="M0 7.13V11l2.89.61v-5zm1.21 3.61-.81-.17v-3l.81-.14zm1.27.26-.93-.15V7.38l.93-.16z"/><path fill="url(#d)" d="m9.04 6.56-2.86.53v3.9l2.86.62 2.86-1.16V7.54z"/><path fill="#341a6e" d="M6.18 7.09V11l2.88.61v-5zm1.21 3.61-.81-.17v-3l.81-.14zm1.26.22-.93-.15V7.34l.93-.16z"/><path fill="url(#e)" d="m15.21 6.61-2.86.53v3.9l2.86.61 2.87-1.15V7.59z"/><path fill="#341a6e" d="M12.35 7.14V11l2.89.61v-5zm1.22 3.61-.81-.17v-3l.81-.14zm1.26.22-.93-.15V7.39l.93-.16z"/><path fill="url(#f)" d="m5.73 12.04-2.86.52v3.9l2.86.62 2.87-1.16v-2.9z"/><path fill="none" d="m5.84 17 2.61-1a.18.18 0 0 0 .12-.18v-2.6a.2.2 0 0 0-.13-.22l-2.64-.9a.17.17 0 0 0-.12 0l-2.6.47a.19.19 0 0 0-.16.19v3.54a.19.19 0 0 0 .15.19L5.7 17a.23.23 0 0 0 .14 0"/><path fill="#341a6e" d="M2.87 12.56v3.9l2.89.62V12zm1.22 3.61L3.28 16v-3l.81-.14zm1.26.23-.93-.15v-3.44l.93-.16z"/><path fill="url(#g)" d="m11.91 12.08-2.86.53v3.9l2.86.61 2.87-1.15v-2.91z"/><path fill="#341a6e" d="M9.05 12.61v3.9l2.89.61v-5zm1.22 3.61-.81-.17v-3l.81-.14zm1.26.22-.93-.15v-3.43l.93-.16z"/></svg>