<svg xmlns="http://www.w3.org/2000/svg" width="800" height="800" fill="none" viewBox="0 0 16 16"><path fill="#2378BC" d="M15 8.004q-.277.466-.55.932c-.15.255-.292.513-.44.768q-.158.267-.317.532l-.394.668q-.318.552-.638 1.102c-.177.303-.358.605-.534.908a73 73 0 0 0-.585 1.016c-.032.056-.067.069-.126.069q-.726-.002-1.453-.001-2.681-.001-5.362.002c-.088 0-.132-.03-.174-.102-.163-.286-.333-.568-.5-.852l-.3-.52q-.242-.42-.486-.837l-.377-.646q-.134-.232-.269-.463c-.172-.292-.347-.581-.517-.873-.15-.259-.295-.52-.444-.779-.102-.176-.209-.349-.311-.524-.07-.12-.137-.24-.209-.36-.022-.035-.014-.063.004-.093l.296-.512.277-.468.323-.55c.123-.21.249-.418.37-.628q.183-.315.365-.631.217-.375.437-.75l.385-.652.39-.67q.293-.502.58-1.008C4.473 2.023 4.51 2 4.578 2q1.012.002 2.025.002h4.828c.05-.005.08.014.104.058q.136.243.276.481.127.215.255.43.192.32.38.643.208.354.413.71.195.34.393.68.187.318.376.636l.401.685.52.905q.118.203.24.406l.21.369H15zM4.477 7.991v2.623a.955.955 0 0 0 .605.94 1 1 0 0 0 .404.063h5.005c.186 0 .364-.023.53-.119a.93.93 0 0 0 .491-.784q.003-.07.002-.139v-4.7c0-.038-.008-.07-.037-.098-.08-.077-.156-.16-.236-.236q-.286-.277-.574-.554-.131-.13-.262-.262c-.09-.09-.182-.176-.27-.268a.22.22 0 0 0-.176-.08q-2.231.002-4.462.002c-.21 0-.408.042-.585.158a.94.94 0 0 0-.435.858z"/><path fill="#FAFDFE" d="M4.477 7.99V5.396a.94.94 0 0 1 .435-.859c.177-.115.375-.157.585-.157q2.231 0 4.462-.002c.078 0 .127.029.176.08q.133.136.27.268.131.132.262.262c.19.186.383.368.574.554.08.077.155.159.235.236.03.028.038.06.038.098v4.699q0 .07-.002.14a.92.92 0 0 1-.492.784 1 1 0 0 1-.529.118H5.486a1 1 0 0 1-.404-.063.95.95 0 0 1-.552-.576 1.1 1.1 0 0 1-.053-.364zm5.35-3.096H5.528c-.05 0-.1-.003-.15.005a.43.43 0 0 0-.314.192.5.5 0 0 0-.064.293v5.23q-.002.064.004.129a.4.4 0 0 0 .314.346q.11.02.223.019 2.42.001 4.837 0 .121-.002.243-.013c.158-.012.261-.1.331-.236.042-.08.04-.166.04-.253V6.184c0-.036-.005-.072-.009-.117H9.827V4.893z"/><path fill="#2478BD" d="M9.827 4.894v1.174h1.157c.003.045.008.08.008.116v4.423c0 .086.002.173-.04.253-.07.136-.172.224-.33.236-.082.005-.162.013-.243.013H5.541q-.112.001-.223-.019a.4.4 0 0 1-.314-.347q-.005-.064-.004-.129v-5.23c0-.102.006-.2.065-.292a.43.43 0 0 1 .314-.192c.05-.008.1-.005.15-.005h4.298zm-3.4 4.525c.009.12.013.24.028.36.016.124.047.245.107.36a.54.54 0 0 0 .373.293 1 1 0 0 0 .325.013.61.61 0 0 0 .538-.406c.05-.127.075-.26.09-.394.037-.32.018-.633-.09-.94a.5.5 0 0 0-.278-.294.8.8 0 0 0-.573-.031c-.231.07-.36.234-.433.446a1.9 1.9 0 0 0-.087.593M9.57 6.58q-.021-.178-.04-.357a.86.86 0 0 0-.18-.476.46.46 0 0 0-.19-.142.84.84 0 0 0-.375-.06.66.66 0 0 0-.516.272 1 1 0 0 0-.162.486c-.032.298-.033.597.05.89.036.128.09.242.198.324.2.155.432.164.666.11.238-.054.377-.22.452-.445a2.2 2.2 0 0 0 .097-.601zm-.118 3.835a.3.3 0 0 0 .048-.2c-.005-.08-.031-.106-.11-.108q-.084-.001-.169-.001c-.04-.001-.079-.006-.13-.009V8.384c-.072-.007-.134-.018-.196-.019a.4.4 0 0 0-.246.07c-.085.061-.177.113-.265.17q-.06.037-.114.079c-.018.014-.035.039-.036.06a2 2 0 0 0-.001.175c0 .04.027.054.064.049a.3.3 0 0 0 .08-.024c.073-.04.144-.085.216-.126.023-.014.05-.02.076-.03.019.14.012 1.243-.01 1.319h-.088q-.121-.002-.244 0c-.067.003-.09.025-.094.09q-.002.051 0 .102c0 .088.027.125.128.124.334-.005.669-.002 1.003-.002q.046-.001.088-.005zM7.44 7.305V5.58c-.1.003-.186-.027-.277-.008-.04.008-.083.012-.115.032a9 9 0 0 0-.404.263.13.13 0 0 0-.052.072.35.35 0 0 0 .022.242c.037-.012.073-.02.105-.036q.119-.063.236-.13c.02-.01.043-.015.071-.025v1.245c-.001.062-.009.07-.07.072q-.102.001-.206 0c-.152 0-.17.018-.162.173q0 .013.002.028c.012.105.021.114.126.114h1.04c.037 0 .063-.017.067-.052a1 1 0 0 0 .012-.156c-.005-.09-.023-.105-.115-.106h-.28v-.001z"/><path fill="#F9FCFE" d="M6.426 9.419c.004-.202.02-.402.087-.593.074-.212.202-.377.433-.446q.297-.09.573.031a.5.5 0 0 1 .279.294c.107.307.126.62.09.94-.015.135-.04.268-.091.394a.61.61 0 0 1-.537.406 1 1 0 0 1-.326-.013.54.54 0 0 1-.372-.294 1 1 0 0 1-.108-.36c-.015-.119-.02-.24-.029-.36zm1.06-.035c-.014-.146-.024-.297-.047-.446a.4.4 0 0 0-.074-.186c-.079-.105-.316-.118-.399.02a1 1 0 0 0-.065.141c-.033.088-.036.18-.04.273-.012.232-.018.462.037.69.04.171.112.273.315.249a.21.21 0 0 0 .18-.127.6.6 0 0 0 .049-.158c.019-.15.03-.3.044-.455zM9.57 6.582a2.2 2.2 0 0 1-.096.601c-.075.225-.214.391-.453.446-.233.053-.464.044-.666-.11a.6.6 0 0 1-.198-.325 2.3 2.3 0 0 1-.049-.89 1 1 0 0 1 .162-.486.66.66 0 0 1 .516-.272.84.84 0 0 1 .375.06q.112.045.19.142c.112.14.166.3.18.476.01.12.026.238.04.357zm-1.056.031c-.006.177.004.363.06.545.027.082.076.147.162.162.096.018.193.02.267-.065a.5.5 0 0 0 .11-.27 2.8 2.8 0 0 0 0-.756.7.7 0 0 0-.064-.22c-.025-.048-.072-.103-.122-.118-.14-.045-.292-.014-.352.162-.06.178-.065.363-.062.56z"/><path fill="#FAFCFE" d="M9.453 10.417q-.04.003-.088.005c-.334 0-.669-.003-1.003.001-.1.002-.128-.036-.128-.124q-.002-.051 0-.102c.005-.064.027-.087.095-.089q.12-.002.243 0h.088c.023-.075.029-1.18.01-1.32-.027.01-.053.017-.076.03-.072.042-.142.087-.215.127a.3.3 0 0 1-.08.023c-.037.006-.063-.009-.065-.048a2 2 0 0 1 0-.176c.002-.021.02-.045.037-.06q.055-.043.114-.079c.088-.056.18-.108.266-.17a.4.4 0 0 1 .246-.07c.061.001.123.012.196.02v1.714c.05.003.09.008.13.009.055.001.112-.002.168 0 .079.003.104.029.11.108a.3.3 0 0 1-.047.201zM7.44 7.307h.28c.092.001.11.015.115.107a1 1 0 0 1-.012.155q-.01.053-.067.052h-1.04c-.105 0-.114-.01-.126-.114l-.003-.028c-.007-.154.01-.172.163-.172h.206c.06-.003.069-.01.07-.073V5.99c-.028.01-.051.014-.07.025-.08.042-.157.088-.237.13-.032.016-.069.023-.105.035a.35.35 0 0 1-.022-.242.13.13 0 0 1 .051-.072q.2-.135.405-.263c.032-.02.076-.023.115-.031.09-.02.177.01.277.008z"/><path fill="#267ABE" d="M7.486 9.384c-.014.155-.025.306-.044.455a.6.6 0 0 1-.05.158c-.032.077-.095.117-.18.127-.202.024-.273-.078-.314-.25a2.3 2.3 0 0 1-.037-.688c.004-.093.007-.186.04-.273a1 1 0 0 1 .066-.142c.082-.138.32-.125.398-.02a.4.4 0 0 1 .074.186c.023.15.033.3.047.447m1.028-2.771c-.004-.198 0-.382.061-.56.06-.176.212-.207.353-.163.049.016.096.07.12.12a.7.7 0 0 1 .065.219 2.8 2.8 0 0 1 0 .756.5.5 0 0 1-.11.27c-.073.084-.171.082-.267.065-.086-.016-.135-.08-.16-.162a1.6 1.6 0 0 1-.062-.545"/></svg>