<svg xmlns="http://www.w3.org/2000/svg" viewBox="0 0 18 18"><defs><linearGradient id="b" x1="4.4" y1="11.48" x2="4.37" y2="7.53" gradientUnits="userSpaceOnUse"><stop offset="0" stop-color="#ccc"/><stop offset="1" stop-color="#fcfcfc"/></linearGradient><linearGradient id="c" x1="10.13" y1="15.45" x2="10.13" y2="11.9" gradientUnits="userSpaceOnUse"><stop offset="0" stop-color="#ccc"/><stop offset="1" stop-color="#fcfcfc"/></linearGradient><linearGradient id="d" x1="14.18" y1="11.15" x2="14.18" y2="7.38" gradientUnits="userSpaceOnUse"><stop offset="0" stop-color="#ccc"/><stop offset="1" stop-color="#fcfcfc"/></linearGradient><radialGradient id="a" cx="13428.81" cy="3518.86" r="56.67" gradientTransform="matrix(.15 0 0 .15 -2005.33 -518.83)" gradientUnits="userSpaceOnUse"><stop offset=".18" stop-color="#5ea0ef"/><stop offset="1" stop-color="#0078d4"/></radialGradient></defs><path d="M14.21 15.72A8.5 8.5 0 013.79 2.28l.09-.06a8.5 8.5 0 0110.33 13.5" fill="url(#a)"/><path d="M6.69 7.23a13 13 0 018.91-3.58 8.47 8.47 0 00-1.49-1.44 14.34 14.34 0 00-4.69 1.1 12.54 12.54 0 00-4.08 2.82 2.76 2.76 0 011.35 1.1zM2.48 10.65a17.86 17.86 0 00-.83 2.62 7.82 7.82 0 00.62.92c.18.23.35.44.55.65a17.94 17.94 0 011.08-3.47 2.76 2.76 0 01-1.42-.72z" fill="#fff" opacity=".6"/><path d="M3.46 6.11a12 12 0 01-.69-2.94 8.15 8.15 0 00-1.1 1.45A12.69 12.69 0 002.24 7a2.69 2.69 0 011.22-.89z" fill="#f2f2f2" opacity=".55"/><circle cx="4.38" cy="8.68" r="2.73" fill="url(#b)"/><path d="M8.36 13.67a1.77 1.77 0 01.54-1.27 11.88 11.88 0 01-2.53-1.86 2.74 2.74 0 01-1.49.83 13.1 13.1 0 001.45 1.28 12.12 12.12 0 002.05 1.25 1.79 1.79 0 01-.02-.23zM14.66 13.88a12 12 0 01-2.76-.32.41.41 0 010 .11 1.75 1.75 0 01-.51 1.24 13.69 13.69 0 003.42.24A8.21 8.21 0 0016 13.81a11.5 11.5 0 01-1.34.07z" fill="#f2f2f2" opacity=".55"/><circle cx="10.13" cy="13.67" r="1.78" fill="url(#c)"/><path d="M12.32 8.93a1.83 1.83 0 01.61-1 25.5 25.5 0 01-4.46-4.14 16.91 16.91 0 01-2-2.92 7.64 7.64 0 00-1.09.42 18.14 18.14 0 002.15 3.18 26.44 26.44 0 004.79 4.46z" fill="#f2f2f2" opacity=".7"/><circle cx="14.18" cy="9.27" r="1.89" fill="url(#d)"/><path d="M17.35 10.54l-.35-.17-.3-.16h-.06l-.26-.21h-.07L16 9.8a1.76 1.76 0 01-.64.92c.12.08.25.15.38.22l.08.05.35.19.86.45a8.63 8.63 0 00.29-1.11z" fill="#f2f2f2" opacity=".55"/><circle cx="4.38" cy="8.68" r="2.73" fill="url(#b)"/><circle cx="10.13" cy="13.67" r="1.78" fill="url(#c)"/></svg>