<svg xmlns="http://www.w3.org/2000/svg" viewBox="0 0 18 18"><defs><radialGradient id="b" cx="9.36" cy="10.57" r="7.07" gradientUnits="userSpaceOnUse"><stop offset="0" stop-color="#f2f2f2"/><stop offset=".58" stop-color="#eee"/><stop offset="1" stop-color="#e6e6e6"/></radialGradient><linearGradient id="a" x1="2.59" y1="10.16" x2="15.41" y2="10.16" gradientUnits="userSpaceOnUse"><stop offset="0" stop-color="#005ba1"/><stop offset=".07" stop-color="#0060a9"/><stop offset=".36" stop-color="#0071c8"/><stop offset=".52" stop-color="#0078d4"/><stop offset=".64" stop-color="#0074cd"/><stop offset=".82" stop-color="#006abb"/><stop offset="1" stop-color="#005ba1"/></linearGradient></defs><path d="M9 5.14c-3.54 0-6.41-1-6.41-2.32v12.36c0 1.27 2.82 2.3 6.32 2.32H9c3.54 0 6.41-1 6.41-2.32V2.82c0 1.29-2.87 2.32-6.41 2.32z" fill="url(#a)"/><path d="M15.41 2.82c0 1.29-2.87 2.32-6.41 2.32s-6.41-1-6.41-2.32S5.46.5 9 .5s6.41 1 6.41 2.32" fill="#e8e8e8"/><path d="M13.92 2.63c0 .82-2.21 1.48-4.92 1.48s-4.92-.66-4.92-1.48S6.29 1.16 9 1.16s4.92.66 4.92 1.47" fill="#50e6ff"/><path d="M9 3a11.55 11.55 0 00-3.89.57A11.42 11.42 0 009 4.11a11.15 11.15 0 003.89-.58A11.84 11.84 0 009 3z" fill="#198ab3"/><path d="M12.9 11.4V8H12v4.13h2.46v-.73zM5.76 9.73a1.83 1.83 0 01-.51-.31.44.44 0 01-.12-.32.34.34 0 01.15-.3.68.68 0 01.42-.12 1.62 1.62 0 011 .29v-.86a2.58 2.58 0 00-1-.16 1.64 1.64 0 00-1.09.34 1.08 1.08 0 00-.42.89c0 .51.32.91 1 1.21a2.88 2.88 0 01.62.36.42.42 0 01.15.32.38.38 0 01-.16.31.81.81 0 01-.45.11 1.66 1.66 0 01-1.09-.42V12a2.17 2.17 0 001.07.24 1.88 1.88 0 001.18-.33 1.08 1.08 0 00.33-.91 1.05 1.05 0 00-.25-.7 2.42 2.42 0 00-.83-.57zM11 11.32a2.34 2.34 0 00.33-1.26A2.32 2.32 0 0011 9a1.81 1.81 0 00-.7-.75 2 2 0 00-1-.26 2.11 2.11 0 00-1.08.27 1.86 1.86 0 00-.73.74 2.46 2.46 0 00-.26 1.14 2.26 2.26 0 00.24 1 1.76 1.76 0 00.69.74 2.06 2.06 0 001 .3l.86 1h1.21L10 12.08a1.79 1.79 0 001-.76zm-1-.25a.94.94 0 01-.76.35.92.92 0 01-.76-.36 1.52 1.52 0 01-.29-1 1.53 1.53 0 01.29-1 1 1 0 01.78-.37.87.87 0 01.75.37 1.62 1.62 0 01.27 1 1.46 1.46 0 01-.28 1.01z" fill="url(#b)"/></svg>