<svg xmlns="http://www.w3.org/2000/svg" viewBox="0 0 18 18"><defs><radialGradient id="b" cx="9.36" cy="10.57" r="7.07" gradientUnits="userSpaceOnUse"><stop offset="0" stop-color="#f2f2f2"/><stop offset=".58" stop-color="#eee"/><stop offset="1" stop-color="#e6e6e6"/></radialGradient><linearGradient id="a" x1="2.59" x2="15.41" y1="10.16" y2="10.16" gradientUnits="userSpaceOnUse"><stop offset="0" stop-color="#005ba1"/><stop offset=".07" stop-color="#0060a9"/><stop offset=".36" stop-color="#0071c8"/><stop offset=".52" stop-color="#0078d4"/><stop offset=".64" stop-color="#0074cd"/><stop offset=".82" stop-color="#006abb"/><stop offset="1" stop-color="#005ba1"/></linearGradient></defs><path fill="url(#a)" d="M9 5.14c-3.54 0-6.41-1-6.41-2.32v12.36c0 1.27 2.82 2.3 6.32 2.32H9c3.54 0 6.41-1 6.41-2.32V2.82c0 1.29-2.87 2.32-6.41 2.32"/><path fill="#e8e8e8" d="M15.41 2.82c0 1.29-2.87 2.32-6.41 2.32s-6.41-1-6.41-2.32S5.46.5 9 .5s6.41 1 6.41 2.32"/><path fill="#50e6ff" d="M13.92 2.63c0 .82-2.21 1.48-4.92 1.48s-4.92-.66-4.92-1.48S6.29 1.16 9 1.16s4.92.66 4.92 1.47"/><path fill="#198ab3" d="M9 3a11.6 11.6 0 0 0-3.89.57A11.4 11.4 0 0 0 9 4.11a11.2 11.2 0 0 0 3.89-.58A11.8 11.8 0 0 0 9 3"/><path fill="url(#b)" d="M12.9 11.4V8H12v4.13h2.46v-.73zM5.76 9.73a1.8 1.8 0 0 1-.51-.31.44.44 0 0 1-.12-.32.34.34 0 0 1 .15-.3.68.68 0 0 1 .42-.12 1.62 1.62 0 0 1 1 .29v-.86a2.6 2.6 0 0 0-1-.16 1.64 1.64 0 0 0-1.09.34 1.08 1.08 0 0 0-.42.89c0 .51.32.91 1 1.21a3 3 0 0 1 .62.36.42.42 0 0 1 .15.32.38.38 0 0 1-.16.31.8.8 0 0 1-.45.11 1.66 1.66 0 0 1-1.09-.42V12a2.2 2.2 0 0 0 1.07.24 1.88 1.88 0 0 0 1.18-.33 1.08 1.08 0 0 0 .33-.91 1.05 1.05 0 0 0-.25-.7 2.4 2.4 0 0 0-.83-.57M11 11.32a2.34 2.34 0 0 0 .33-1.26A2.3 2.3 0 0 0 11 9a1.8 1.8 0 0 0-.7-.75 2 2 0 0 0-1-.26 2.1 2.1 0 0 0-1.08.27 1.86 1.86 0 0 0-.73.74 2.46 2.46 0 0 0-.26 1.14 2.26 2.26 0 0 0 .24 1 1.76 1.76 0 0 0 .69.74 2.06 2.06 0 0 0 1 .3l.86 1h1.21L10 12.08a1.8 1.8 0 0 0 1-.76m-1-.25a.94.94 0 0 1-.76.35.92.92 0 0 1-.76-.36 1.52 1.52 0 0 1-.29-1 1.53 1.53 0 0 1 .29-1 1 1 0 0 1 .78-.37.87.87 0 0 1 .75.37 1.62 1.62 0 0 1 .27 1 1.46 1.46 0 0 1-.28 1.01"/></svg>