<svg version="1.1" id="Layer_1" xmlns:x="ns_extend;" xmlns:i="ns_ai;" xmlns:graph="ns_graphs;" xmlns="http://www.w3.org/2000/svg" xmlns:xlink="http://www.w3.org/1999/xlink" x="0px" y="0px" viewBox="0 0 43 43" style="enable-background:new 0 0 43 43;" xml:space="preserve">
 <style type="text/css">
  .st0{fill-rule:evenodd;clip-rule:evenodd;fill:#FFFFFF;}
 </style>
 <metadata>
  <sfw xmlns="ns_sfw;">
   <slices>
   </slices>
   <sliceSourceBounds bottomLeftOrigin="true" height="43" width="43" x="68.7" y="-221.7">
   </sliceSourceBounds>
  </sfw>
 </metadata>
 <g>
  <path class="st0" d="M30.8,22.7c1.1-0.1,2.2-0.1,3.3-0.2v-0.8c-1.1-0.1-2.2-0.1-3.3-0.2l-3.3-0.1c-1.9-0.1-3.9-0.1-5.8-0.1
		c0-1.9,0-3.9-0.1-5.8l-0.1-3.3c-0.1-1.1-0.1-2.2-0.2-3.3h-0.9c-0.1,1.1-0.1,2.2-0.2,3.3l-0.1,3.3c0,0.9,0,1.8,0,2.7
		c-0.4-0.8-0.7-1.7-1.1-2.5l-1.4-3c-0.5-1-0.9-2-1.4-3L15.4,10c0.4,1.1,0.7,2.1,1.1,3.1l1.2,3.1c0.3,0.9,0.7,1.7,1,2.6
		c-0.7-0.6-1.3-1.3-2-1.9l-2.4-2.3c-0.8-0.7-1.6-1.5-2.5-2.2l-0.7,0.7c0.7,0.8,1.5,1.6,2.2,2.5l2.3,2.4c0.6,0.7,1.3,1.3,1.9,2
		c-0.8-0.3-1.7-0.7-2.6-1l-3.1-1.2c-1-0.4-2.1-0.8-3.1-1.1l-0.4,0.9c1,0.5,2,0.9,3,1.4l3,1.4c0.8,0.4,1.7,0.7,2.5,1.1
		c-0.9,0-1.8,0-2.7,0l-3.3,0.1c-1.1,0.1-2.2,0.1-3.3,0.2v0.9c1.1,0.1,2.2,0.1,3.3,0.2l3.3,0.1c2,0.1,3.9,0.1,5.8,0.1
		c0,1.9,0,3.9,0.1,5.8l0.1,3.3c0.1,1.1,0.1,2.2,0.2,3.3h0.8c0.1-1.1,0.1-2.2,0.2-3.3l0.1-3.3c0-0.9,0-1.9,0.1-2.8
		c0.4,0.9,0.7,1.7,1.1,2.6l1.4,3c0.5,1,0.9,2,1.4,3l0.8-0.3c-0.3-1.1-0.7-2.1-1.1-3.1L24.1,28c-0.3-0.9-0.7-1.7-1-2.6
		c0.7,0.7,1.3,1.3,2,1.9l2.4,2.3c0.8,0.7,1.6,1.5,2.5,2.2l0.6-0.6c-0.7-0.8-1.5-1.6-2.2-2.5l-2.3-2.4c-0.6-0.7-1.3-1.4-1.9-2
		c0.9,0.3,1.7,0.7,2.6,1l3.1,1.2c1,0.4,2.1,0.8,3.1,1.1l0.3-0.8c-1-0.5-2-1-3-1.4l-3-1.4c-0.9-0.4-1.7-0.8-2.6-1.1
		c0.9,0,1.9,0,2.8-0.1C27.5,22.8,30.8,22.7,30.8,22.7z">
  </path>
  <path class="st0" d="M21.5,43C9.6,43,0,33.4,0,21.5S9.6,0,21.5,0S43,9.6,43,21.5S33.4,43,21.5,43 M21.5,2C10.8,2,2,10.8,2,21.5
		S10.8,41,21.5,41S41,32.2,41,21.5S32.2,2,21.5,2">
  </path>
 </g>
</svg>