<svg height="1em" style="flex:none;line-height:1" viewBox="0 0 24 24" width="1em" xmlns="http://www.w3.org/2000/svg"><title>CrewAI</title><path d="M19.41 10.783a2.753 2.753 0 012.471 1.355c.483.806.622 1.772.385 2.68l-.136.522a9.994 9.994 0 01-3.156 5.058c-.605.517-1.283 1.062-2.083 1.524l-.028.017c-.402.232-.884.511-1.398.756-1.19.602-2.475.997-3.798 1.167-.854.111-1.716.155-2.577.132H9.072a8.588 8.588 0 01-5.046-1.87l-.012-.01-.012-.01A8.024 8.024 0 011.22 17.42a10.916 10.916 0 01-.102-3.779A15.622 15.622 0 012.88 8.4a21.758 21.758 0 012.432-3.678 15.44 15.44 0 013.56-3.182A9.958 9.958 0 0112.44.104h.004l.003-.002c2.057-.384 3.743.374 5.024 1.26a8.28 8.28 0 012.395 2.513l.024.04.023.042a5.474 5.474 0 01.508 4.012c-.239.97-.577 1.914-1.01 2.814z" fill="#461816"></path><path d="M18.861 13.165a.748.748 0 011.256.031c.199.332.256.73.159 1.103l-.137.522a7.936 7.936 0 01-2.504 4.014c-.572.49-1.138.939-1.774 1.306-.427.247-.857.496-1.303.707a9.628 9.628 0 01-3.155.973 14.33 14.33 0 01-2.257.116 6.531 6.531 0 01-3.837-1.422 5.967 5.967 0 01-2.071-3.494 8.859 8.859 0 01-.085-3.08 13.56 13.56 0 011.54-4.568 19.701 19.701 0 012.212-3.348 13.382 13.382 0 013.088-2.76 7.9 7.9 0 012.832-1.14c1.307-.245 2.434.207 3.481.933a6.222 6.222 0 011.806 1.892c.423.767.536 1.668.314 2.515a12.394 12.394 0 01-.99 2.67l-.223.497c-.321.713-.642 1.426-.97 2.137a.762.762 0 01-.97.467 3.39 3.39 0 01-2.283-2.49c-.095-.83.04-1.669.39-2.426.288-.746.61-1.477.933-2.208l.248-.563a.53.53 0 00-.204-.742 2.35 2.35 0 00-1.2.702 25.291 25.291 0 00-1.614 1.767 21.561 21.561 0 00-2.619 4.184 7.59 7.59 0 00-.816 2.753 7.042 7.042 0 00.07 2.219 2.055 2.055 0 001.934 1.715c1.801.1 3.59-.363 5.116-1.328.582-.4 1.141-.831 1.675-1.294.752-.71 1.376-1.519 1.958-2.36z" fill="#fff"></path></svg>