<svg xmlns="http://www.w3.org/2000/svg" xml:space="preserve" viewBox="0 0 122.88 88.17"><path d="M121.68 33.34c-.34-.28-3.42-2.62-10.03-2.62-1.71 0-3.48.17-5.19.46-1.25-8.72-8.49-12.94-8.78-13.16l-1.77-1.03-1.14 1.65a24.3 24.3 0 0 0-3.13 7.29c-1.2 4.96-.46 9.63 2.05 13.62-3.02 1.71-7.92 2.11-8.95 2.17H3.81a3.82 3.82 0 0 0-3.82 3.82 57.8 57.8 0 0 0 3.53 20.8c2.79 7.29 6.95 12.71 12.31 16.01 6.04 3.7 15.9 5.81 27.01 5.81 5.01 0 10.03-.46 14.99-1.37 6.9-1.25 13.51-3.65 19.6-7.12a53.7 53.7 0 0 0 13.34-10.94c6.44-7.24 10.26-15.33 13.05-22.51h1.14c7.01 0 11.34-2.79 13.73-5.19 1.6-1.48 2.79-3.31 3.65-5.36l.51-1.48zm-50.09 6.04h10.83c.51 0 .97-.4.97-.97v-9.69c0-.51-.4-.97-.97-.97H71.59c-.51 0-.97.4-.97.97v9.69c.06.57.46.97.97.97m-15.1-27.75h10.83c.51 0 .97-.4.97-.97V.97c0-.51-.46-.97-.97-.97H56.49c-.51 0-.97.4-.97.97v9.69c0 .51.45.97.97.97m0 13.9h10.83c.51 0 .97-.46.97-.97v-9.69c0-.51-.46-.97-.97-.97H56.49c-.51 0-.97.4-.97.97v9.69c0 .52.45.97.97.97m-14.99 0h10.83c.51 0 .97-.46.97-.97v-9.69c0-.51-.4-.97-.97-.97H41.5c-.51 0-.97.4-.97.97v9.69c0 .52.4.97.97.97m-15.22 0h10.83c.51 0 .97-.46.97-.97v-9.69c0-.51-.4-.97-.97-.97H26.28c-.51 0-.97.4-.97.97v9.69c.06.52.46.97.97.97m30.21 13.85h10.83c.51 0 .97-.4.97-.97v-9.69c0-.51-.4-.97-.97-.97H56.49c-.51 0-.97.4-.97.97v9.69c0 .57.45.97.97.97m-14.99 0h10.83c.51 0 .97-.4.97-.97v-9.69c0-.51-.4-.97-.97-.97H41.5c-.51 0-.97.4-.97.97v9.69c0 .57.4.97.97.97m-15.22 0h10.83c.51 0 .97-.4.97-.97v-9.69c0-.51-.4-.97-.97-.97H26.28c-.51 0-.97.4-.97.97v9.69c.06.57.46.97.97.97m-14.93 0h10.83c.51 0 .97-.4.97-.97v-9.69c0-.51-.4-.97-.97-.97H11.35c-.51 0-.97.4-.97.97v9.69c.06.57.46.97.97.97" style="fill:#0091e2"/></svg>