<svg xmlns="http://www.w3.org/2000/svg" xmlns:xlink="http://www.w3.org/1999/xlink" viewBox="0 0 70 80" fill="#fff" fill-rule="evenodd" width="2188" height="2500"><style>.B{fill:#f58536}.C{fill:#9d5025}</style><use xlink:href="#A" x="2.188" y="2.5"/><symbol id="A" overflow="visible"><path d="M3.51 14.898L0 16.56v46.88l3.51 1.662L17.423 40 3.51 14.898z" class="C"/><path d="M11.694 63.285L3.51 65.102V14.898l8.183 1.77v46.618z" class="B"/><path d="M7.382 13.06l4.312-2.03L21.9 40 11.694 68.97l-4.312-2.03V13.06z" class="C"/><path d="M21.9 66.24l-10.205 2.73V11.03L21.9 13.77v52.47z" class="B"/><path d="M16.5 8.747l5.4-2.556L55.616 40 21.9 73.8l-5.4-2.546V8.747z" class="C"/><path d="M58.357 61.03L21.9 73.8V6.19l36.458 12.614V61.03z" class="B"/><path d="M53.634 33.693l-6.807.418-18.82-1.506L35 0l18.645 33.693z" fill="#6b3a19"/><path d="M35 31.934V0l-6.982 3.304v29.3l6.982-.67z" class="C"/><path d="M53.635 33.693V8.824L35 0v31.934l18.645 1.76z" class="B"/><path d="M53.634 46.094l-6.448-.39-19.18 1.536L35 80l18.645-33.907z" fill="#fbbf93"/><path d="M28.008 47.24v29.465L35 80V47.842l-6.982-.602z" class="C"/><path d="M35 47.842V80l18.645-8.824V46.093L35 47.842z" class="B"/><path d="M70 44.558l-4.004-.156-10.38.865L60 68.163l10-23.605z" fill="#fbbf93"/><path d="M60 45.49v22.672l10-4.733V44.558l-10 .933z" class="B"/><path d="M70 35.248l-4.004.155-10.38-.875L60 11.837l10 23.41z" fill="#6b3a19"/><path d="M70 35.248V16.57l-10-4.733v22.46l10 .952z" class="B"/><path d="M55.616 67.065L60 68.163V45.5l-4.394-.224v21.798zm0-54.13L60 11.837v22.46l-4.394.233V12.935z" class="C"/></symbol></svg>