<svg xmlns="http://www.w3.org/2000/svg" xmlns:xlink="http://www.w3.org/1999/xlink" width="2188" height="2500" fill="#fff" fill-rule="evenodd" viewBox="0 0 70 80"><style>.B{fill:#f58536}.C{fill:#9d5025}</style><use xlink:href="#A" x="2.188" y="2.5"/><symbol id="A" overflow="visible"><path d="M3.51 14.898 0 16.56v46.88l3.51 1.662L17.423 40z" class="C"/><path d="M11.694 63.285 3.51 65.102V14.898l8.183 1.77v46.618z" class="B"/><path d="m7.382 13.06 4.312-2.03L21.9 40 11.694 68.97l-4.312-2.03z" class="C"/><path d="m21.9 66.24-10.205 2.73V11.03L21.9 13.77z" class="B"/><path d="m16.5 8.747 5.4-2.556L55.616 40 21.9 73.8l-5.4-2.546z" class="C"/><path d="M58.357 61.03 21.9 73.8V6.19l36.458 12.614z" class="B"/><path fill="#6b3a19" d="m53.634 33.693-6.807.418-18.82-1.506L35 0l18.645 33.693z"/><path d="M35 31.934V0l-6.982 3.304v29.3z" class="C"/><path d="M53.635 33.693V8.824L35 0v31.934l18.645 1.76z" class="B"/><path fill="#fbbf93" d="m53.634 46.094-6.448-.39-19.18 1.536L35 80l18.645-33.907z"/><path d="M28.008 47.24v29.465L35 80V47.842l-6.982-.602z" class="C"/><path d="M35 47.842V80l18.645-8.824V46.093z" class="B"/><path fill="#fbbf93" d="m70 44.558-4.004-.156-10.38.865L60 68.163z"/><path d="M60 45.49v22.672l10-4.733V44.558z" class="B"/><path fill="#6b3a19" d="m70 35.248-4.004.155-10.38-.875L60 11.837z"/><path d="M70 35.248V16.57l-10-4.733v22.46z" class="B"/><path d="M55.616 67.065 60 68.163V45.5l-4.394-.224v21.798zm0-54.13L60 11.837v22.46l-4.394.233V12.935z" class="C"/></symbol></svg>