<svg xmlns="http://www.w3.org/2000/svg" width="64" height="64"><linearGradient id="a" x1="167.517" x2="160.31" y1="24.393" y2="320.034" gradientTransform="matrix(.1297 0 0 .19998 11.41 0)" gradientUnits="userSpaceOnUse"><stop offset="0" stop-color="#d9d8dc"/><stop offset="1" stop-color="#fff" stop-opacity=".385"/></linearGradient><linearGradient id="b" x1="199.036" x2="140.071" y1="21.413" y2="278.408" gradientTransform="matrix(.1142 0 0 .22712 11.41 0)" gradientUnits="userSpaceOnUse"><stop offset="0" stop-color="#8d67af" stop-opacity=".672"/><stop offset="1" stop-color="#9f8daf"/></linearGradient><linearGradient id="c" x1="206.428" x2="206.428" y1="100.918" y2="294.312" gradientTransform="matrix(.12267 0 0 .21146 11.41 0)" gradientUnits="userSpaceOnUse"><stop offset="0" stop-color="#26053d" stop-opacity=".762"/><stop offset="1" stop-color="#b7b4b4" stop-opacity=".278"/></linearGradient><linearGradient id="d" x1="23.483" x2="112.931" y1="171.718" y2="351.723" gradientTransform="matrix(.18478 0 0 .14038 11.41 0)" gradientUnits="userSpaceOnUse"><stop offset="0" stop-color="#91739f" stop-opacity=".46"/><stop offset="1" stop-color="#32054f" stop-opacity=".54"/></linearGradient><linearGradient id="e" x1="226.781" x2="67.804" y1="317.252" y2="147.413" gradientTransform="matrix(.14184 0 0 .18287 11.41 0)" gradientUnits="userSpaceOnUse"><stop offset="0" stop-color="#463d49" stop-opacity=".331"/><stop offset="1" stop-color="#340a50" stop-opacity=".821"/></linearGradient><linearGradient id="f" x1="248.016" x2="200.705" y1="88.755" y2="255.005" gradientTransform="matrix(.10597 0 0 .24478 11.41 0)" gradientUnits="userSpaceOnUse"><stop offset="0" stop-color="#715383" stop-opacity=".145"/><stop offset="1" stop-color="#f4f4f4" stop-opacity=".234"/></linearGradient><linearGradient id="g" x1="307.564" x2="156.451" y1="109.963" y2="81.527" gradientTransform="matrix(.09173 0 0 .28277 11.41 0)" gradientUnits="userSpaceOnUse"><stop offset="0" stop-color="#a5a1a8" stop-opacity=".356"/><stop offset="1" stop-color="#370c50" stop-opacity=".582"/></linearGradient><g fill-rule="evenodd"><path fill="url(#a)" d="M34.034.161q-6.975 2.473-13.466 14.431c-6.49 11.96-14.874 28.954-3.33 42.41 5.34 6.224 14.158 9.898 25.73 4.08 9.297-4.675 11.883-18.09 8.545-24.393-6.885-13.003-13.87-16.21-15.74-24.274q-1.87-8.064-1.74-12.254"/><path fill="url(#b)" d="M34.034 0q-7.01 2.498-13.466 14.431c-6.455 11.934-14.874 28.954-3.33 42.41 5.34 6.224 14.045 8.235 18.875 4.544 3.149-2.407 5.29-4.701 6.524-9.535 1.374-5.382.32-12.629-.403-15.957q-1.371-6.32-.897-13.87l-.25-.304c-2.514-3.078-4.454-5.758-5.314-9.465Q33.903 4.19 34.033 0"/><path fill="url(#c)" d="M30.164 2.094q-6.53 5.16-9.71 17.31c-3.18 12.151-3.524 23.356-2.402 29.874 2.174 12.634 13.446 17.43 25.007 11.55 7.115-3.62 10.079-11.388 9.922-19.82-.163-8.732-17.035-18.627-20.023-25.913Q29.97 7.808 30.164 2.094"/><path fill="url(#d)" d="M41.2 24.874q7.83 10.043 3.413 13.982c-4.416 3.939-15.217 6.509-21.936 1.744q-6.72-4.765-5.085-20.444a94 94 0 0 0-4.69 11.736q-1.917 5.943-1.12 12.439 2.403 4.86 11.68 6.491c9.28 1.632 18.06.825 23.953-2.145q5.893-2.97 5.575-5.914.212-4.346-2.681-8.276t-9.11-9.613"/><path fill="url(#e)" d="M20.8 18.189q-.066 7.252 3.729 13.79c3.795 6.536 8.225 12.994 14.854 18.348q6.63 5.354 10.594 3.46-3.256 5.828-6.925 5.711c-3.669-.116-8.142-1.72-15.31-10.333q-7.167-8.613-9.806-16.295.419-3.048.887-6.07.47-3.024 1.976-8.611"/><path fill="url(#f)" d="M32.011 24.824c.406 3.94 1.938 10.24 0 14.435s-10.89 11.773-8.42 18.45c2.472 6.675 8.494 5.177 12.272 2.1s5.8-8.08 6.248-11.598-1.072-10.287-1.567-16.176q-.495-5.887.671-10.097l-1.157-1.456-6.814-2.018q-1.638 2.422-1.233 6.36"/><path fill="url(#g)" d="M34.443 5.315q-3.307 1.398-6.268 5.539c-2.96 4.141-4.468 6.624-3.352 14.833q1.116 8.21 1.598 15.105l9.543-27.727a95 95 0 0 1-.875-3.828 59 59 0 0 1-.646-3.922"/><path fill="#330a4c" fill-opacity=".316" d="M35.946 13.01q-3.634 2.12-5.632 8.69T26.66 40.07q2.211-7.505 2.933-10.872c.722-3.366.969-8.127 2.887-11.359q1.917-3.232 3.467-4.83"/><path fill="#fff" d="M24.729 59.938q5.98.855 6.254 1.52c.274.664-.505 1.272-2.718.863q-2.213-.408-3.536-2.383"/><path fill="#ededed" fill-opacity=".603" d="M26.732 5.315q-3.29 3.93-5.7 8.331c-2.41 4.401-2.757 5.125-3.446 6.569q-.32 1.616-.313 4.767.008 3.153.545 7.01A56.4 56.4 0 0 1 20.7 17.328q2.411-7.11 6.032-12.013"/></g></svg>