<svg xmlns="http://www.w3.org/2000/svg" width="376pt" height="376pt" viewBox="31 16.6 309.2 337.4"><g fill="#f0ad4e"><path d="M65.9 24.7C42.7 48.7 31 72.9 31 97c0 5.5.4 10.2 1 10.5s1 1.6 1 2.8c0 2.8 2.4 9.7 5.6 16.2 4.2 8.7 10.3 14.8 26.9 26.8 13 9.4 20.2 20 22.6 33.4l1.3 7.2 3.6-1.5c9.1-3.9 16.1-5.3 37-7.5 13.4-1.4 18.6-3.4 24.8-9.5 8.8-8.8 4.6-14.5-22.9-30.8-29.6-17.6-40.2-25.8-51.7-40.1C71 93 66.3 83.5 64 71.7c-2.2-11 .8-28.4 7.5-44 1.9-4.6 3.5-8.6 3.5-9 0-2.1-3.3.1-9.1 6"/><path d="M332.5 32.8c-.5.4-1.8 2.4-2.7 4.4-5.8 12.4-25 24.1-55.3 33.5-2.7.9-7.5 2.3-10.5 3.3-3 .9-8.9 2.8-13 4-50.9 15.5-59.8 23.5-78 69.5-8.2 20.6-12.5 27.5-21 33.1-7.1 4.8-12.9 6.4-29 8.4-25.6 3.1-35.5 6.1-43.5 13.2-4.9 4.2-6.5 8.6-6.5 17.4 0 4-.4 7.5-.8 7.8-.5.3-1.4 3-2.1 6.1-1 4.2-1 6.3-.1 9 1.4 4.1 5.3 7.5 8.8 7.5 2.5 0 2.6-.7.7-5.2-.4-1.1.2-2.5 1.9-4.3 2.2-2.2 3.3-2.5 10.1-2.5 7.8 0 10.4-.8 14.1-4.2 2.1-1.9 2.2-1.9 5 1.2 5.9 6.5 21.3 15.7 40.5 24.3 9.1 4.1 14.8 9 19.1 16.6 2.9 5 3.3 6.4 3.3 13.6 0 11.7-4.2 19.7-12.4 23.5-1.4.7-3.4 1.6-4.3 2.1-1 .5-4.7.9-8.3.9H142l-2.1 4.7c-1.2 2.7-2.7 6-3.5 7.4-1.1 2.2-1.1 2.9 0 4.5 1.3 1.7 1.7 1.5 6.5-3.4 5-5.1 8.1-6.6 8.1-3.8 0 .8-1.8 2.8-3.9 4.5-4.9 3.9-5.6 6.7-3.3 13.3 1.9 5.4 4.4 7 5 3.3.2-1.1 1.7-3.3 3.3-4.9 1.6-1.5 2.9-3.4 2.9-4.1s.7-1.8 1.5-2.5c2.2-1.8 3.1 1.4 1.7 6.4-.9 3.4-.8 4.4.5 5.8 1 1.1 1.3 2.6.9 4.3-.4 1.8-.2 2.5.7 2.5 1.4 0 4.7-3.1 4.7-4.4 0-.4.9-2.1 2.1-3.7 2.1-3 2.2-3.6.3-14.2-.3-2-.2-3.7.2-3.7 2.1 0 9.3 4.6 9.7 6.2.7 2.6 3.7 1.1 3.7-1.9 0-3.8-2.7-8-6-9.5-3.3-1.4-3.9-3.6-1.2-4.4 6.3-2 12.2-5.6 17.5-10.9 6.4-6.2 7.5-7.5 11.6-13.5 5.7-8.3 11-12 17.1-12 8.4 0 34.8 11.8 55.2 24.7 9.5 6 28.1 19 31.2 21.8.6.6 4 3.1 7.6 5.7 3.6 2.5 9.8 7.3 13.8 10.7 4 3.3 7.6 6.1 8 6.1 3.3 0 4.4-8.6 1.5-11.2-1-.8-4.5-3-7.8-4.8-7.3-4.1-21.4-13.6-27.5-18.7-13.8-11.3-31.4-33.4-43.1-54.1-1.1-1.7-2.8-4.8-3.9-6.8-8.4-14.7-24.4-33.4-28.7-33.4-1.7 0-1.7-.1 1-13 .8-4.1 2-11.1 2.6-15.5 1.8-12.2 4.4-26.1 6.3-33 5.4-20.3 16.9-34.4 37.8-46.2 29.3-16.7 41-27 49.4-43.7 4.5-8.9 5.4-11.1 8.1-21.1 1.4-5.1 3.1-17.5 2.4-17.5-.2 0-.8.4-1.4.8"/><path d="M159.5 269.3c-.2.7-.5 3.2-.8 5.8-.6 7-5.3 16.3-10.7 21.3-6.5 6.1-10.5 8-13.9 6.7-1.4-.5-5.4-1.3-8.8-1.6-5-.6-6.8-.3-9.2 1.1-2.6 1.5-3.1 2.5-3.1 5.6 0 4.4-.1 4.3 3.6 2.3 1.6-.8 3.5-1.5 4.2-1.5 2.1 0 1.3 2-1.3 3.2-2.9 1.3-3.7 3.8-3.9 11.6-.1 5.9 1.7 8.2 3.3 4 .5-1.3 2.4-3.1 4.2-4.1 1.9-1 4.5-3.6 5.9-5.7 2.6-4.4 4-5.1 4-2.1 0 6.4 3.3 6.7 6.1.5 1.7-3.4 2.6-4.3 3.8-3.8 3.3 1.4 7.2 1.6 8.6.4s1.3-1.6-.6-3.6c-1.2-1.3-2.1-2.5-1.8-2.7 2.2-1.6 7-2.7 11.9-2.7 8.8 0 10-1.5 10-12.8 0-11.5-3-19.7-7.9-21.8-2.5-1-3.3-1.1-3.6-.1m80.5 21.5c0 .5 3.7 2.8 8.3 5.1 22.1 11.7 35.7 24.4 40.8 38.5 2.3 6.1 2.4 8.3.4 12.9-2.5 6.1-2.9 6 13.3 5.5 14.6-.5 23.2-2.1 23.2-4.4 0-1.1-12-12.4-16.4-15.3-1.2-.8-2.3-1.8-2.6-2.1s-2.3-1.9-4.5-3.6c-2.2-1.6-4.6-3.4-5.2-3.9-.7-.6-2.3-1.8-3.5-2.7-1.3-1-4.1-3.2-6.3-4.9s-5.6-4-7.5-5c-4.6-2.5-7.4-4.3-8-5-.7-.8-14.5-8.3-21-11.4-3-1.4-6.3-3-7.2-3.5-2.2-1.2-3.8-1.3-3.8-.2"/></g></svg>