<svg xmlns="http://www.w3.org/2000/svg" xml:space="preserve" viewBox="0 0 1274 1047"><linearGradient id="a" x1="21" x2="1258.699" y1="1105.209" y2="1105.209" gradientTransform="matrix(1 0 0 -1 0 1630)" gradientUnits="userSpaceOnUse"><stop offset="0" style="stop-color:#2a59a2"/><stop offset="1" style="stop-color:#2a59a2"/></linearGradient><path d="M1252.1 450.3H1230c-40.2-.5-117.3 3.8-187.2 64.2-166.9 144.5-205 357.2-490.6 472-237.9 95.6-531.2 5.1-531.2 5.1s261.7-18.2 296.4-217.9c27.1-156.2-115-267.1-204.2-408C22.5 222.2-.8 103 42.9 51.5 166.8-94.8 508 300.7 677.4 354c165.8 52.1 277.7-68.9 415-51.1 43.8 5.6 65.2 24.5 79.4 48.6 4.8 8.1 16.6 35.7 27.1 45.9 10.3 10 24 17.4 36.8 24.9 16.3 9.6 32.4 28 16.4 28" style="fill:url(#a)"/><linearGradient id="b" x1="-28.976" x2="1280.142" y1="1316.528" y2="1316.528" gradientTransform="matrix(1 0 0 -1 0 1630)" gradientUnits="userSpaceOnUse"><stop offset="0" style="stop-color:#91d3f2"/><stop offset=".266" style="stop-color:#6fb2de"/><stop offset=".521" style="stop-color:#5598ce"/><stop offset=".673" style="stop-color:#4b8fc8"/></linearGradient><path d="M468 221.5c-41-31.2-83.3-63.9-124.9-93.7-9.4-6.7-18.8-13.3-28.1-19.7C203.5 31.8 100.1-16 42.9 51.5-.8 103 22.5 222.2 113.3 365.7c.9 1.5 1.9 2.9 2.8 4.4 47.3 73.2 184.5 244.7 509.7 237.4 21.4-22.7 53.9-65.6 95.9-112.3C653.6 385.1 551 289.1 468 221.5" style="fill:url(#b)"/><linearGradient id="c" x1="21.1" x2="1267.834" y1="817.074" y2="817.074" gradientTransform="matrix(1 0 0 -1 0 1630)" gradientUnits="userSpaceOnUse"><stop offset="0" style="stop-color:#2c9ec7"/><stop offset=".404" style="stop-color:#2c63a5"/><stop offset="1" style="stop-color:#395da1"/></linearGradient><path d="M795.8 738.9c1.3-48.8-7.6-96.9-24.5-143.4-42.7 6.4-90.8 10.8-145.5 12-39.8 42.3-130.7 155.3-281.3 257.1-200.5 135.6-323.4 127-323.4 127s293.4 90.5 531.2-5.1c85.3-34.3 148.6-77.3 199.8-124.7 8.4-8 41.9-49.8 43.7-122.9" style="fill:url(#c)"/><linearGradient id="d" x1="21.079" x2="1267.813" y1="1078.65" y2="1078.65" gradientTransform="matrix(1 0 0 -1 0 1630)" gradientUnits="userSpaceOnUse"><stop offset="0" style="stop-color:#4faac4"/><stop offset=".002" style="stop-color:#2f75b1"/><stop offset="1" style="stop-color:#356eac"/></linearGradient><path d="M721.8 495.2c-42 46.6-74.6 89.6-95.9 112.3 54.8-1.2 102.9-5.6 145.5-12-5-13.9-10.8-27.6-17.2-41.1-9.6-20.1-20.5-39.9-32.4-59.2" style="fill:url(#d)"/><linearGradient id="e" x1="468" x2="1274.984" y1="1271.65" y2="1271.65" gradientTransform="matrix(1 0 0 -1 0 1630)" gradientUnits="userSpaceOnUse"><stop offset="0" style="stop-color:#4faac4"/><stop offset=".002" style="stop-color:#2f81b6"/><stop offset="1" style="stop-color:#3b5ea9"/></linearGradient><path d="M965.6 318.3c-87.8 26.6-175.5 71.1-288.2 35.7-55.8-17.5-130.3-72.2-209.4-132.5 83 67.6 185.6 163.5 253.8 273.7C784 426.3 867 349.3 965.6 318.3" style="fill:url(#e)"/><linearGradient id="f" x1="467.968" x2="1274.952" y1="962.7" y2="962.7" gradientTransform="matrix(1 0 0 -1 0 1630)" gradientUnits="userSpaceOnUse"><stop offset="0" style="stop-color:#4faac4"/><stop offset=".002" style="stop-color:#1e3773"/><stop offset="1" style="stop-color:#203370"/></linearGradient><path d="M771.4 595.5c16.9 46.5 25.8 94.6 24.5 143.4-1.9 73-35.4 114.8-43.8 122.9 120.1-111.1 173.8-246 290.8-347.3 21.8-18.8 44.2-32.2 66.1-41.7h-.1C1032.2 505 949 568.7 771.4 595.5" style="fill:url(#f)"/><linearGradient id="g" x1="990.251" x2="990.251" y1="895.298" y2="1337.814" gradientTransform="matrix(1 0 0 -1 0 1630)" gradientUnits="userSpaceOnUse"><stop offset="0" style="stop-color:#4faac4"/><stop offset=".002" style="stop-color:#2c5a9a"/><stop offset="1" style="stop-color:#374580"/></linearGradient><path d="M1252.1 450.3c16 0-.1-18.4-16.3-27.9-12.8-7.6-26.5-15-36.8-24.9-10.6-10.2-22.4-37.9-27.1-45.9-14.3-24.2-35.6-43-79.4-48.6-44-5.7-85.4 2.9-126.8 15.4-98.6 31-181.7 108-243.9 176.9 11.9 19.3 22.9 39 32.4 59.1 6.4 13.6 12.2 27.3 17.2 41.1 177.7-26.8 260.8-90.5 337.5-122.7h.1c48.3-21 93.5-22.9 121.1-22.5z" style="fill:url(#g)"/><linearGradient id="h" x1="-113.505" x2="804.828" y1="949.096" y2="949.096" gradientTransform="matrix(1 0 0 -1 0 1630)" gradientUnits="userSpaceOnUse"><stop offset=".112" style="stop-color:#38b1da"/><stop offset="1" style="stop-color:#326fb5"/></linearGradient><path d="M344.5 864.6C495.1 762.8 586 649.8 625.8 607.5c-325.2 7.3-462.4-164.2-509.7-237.4C205.4 509 344.3 619.2 317.5 773.7 282.8 973.4 21.1 991.6 21.1 991.6s122.9 8.6 323.4-127" style="fill:url(#h)"/><ellipse cx="1083.4" cy="377.4" rx="26" ry="25.8" style="fill:#fff"/></svg>