<svg version="1.1" id="Layer_1" xmlns:x="ns_extend;" xmlns:i="ns_ai;" xmlns:graph="ns_graphs;" xmlns="http://www.w3.org/2000/svg" xmlns:xlink="http://www.w3.org/1999/xlink" x="0px" y="0px" viewBox="0 0 108.6 78" style="enable-background:new 0 0 108.6 78;" xml:space="preserve">
 <style type="text/css">
  .st0{fill:url(#SVGID_1_);}
	.st1{fill:url(#SVGID_2_);}
	.st2{opacity:0.8;fill:url(#SVGID_3_);enable-background:new    ;}
	.st3{opacity:0.8;fill:url(#SVGID_4_);enable-background:new    ;}
	.st4{opacity:0.8;fill:url(#SVGID_5_);enable-background:new    ;}
	.st5{fill:url(#SVGID_6_);}
	.st6{opacity:0.8;fill:url(#SVGID_7_);enable-background:new    ;}
	.st7{opacity:0.3;fill:url(#SVGID_8_);enable-background:new    ;}
	.st8{opacity:0.3;fill:url(#SVGID_9_);enable-background:new    ;}
	.st9{opacity:0.3;fill:url(#SVGID_10_);enable-background:new    ;}
	.st10{opacity:0.3;fill:url(#SVGID_11_);enable-background:new    ;}
	.st11{fill:url(#SVGID_12_);}
	.st12{opacity:0.3;fill:url(#SVGID_13_);enable-background:new    ;}
	.st13{opacity:0.8;fill:url(#SVGID_14_);enable-background:new    ;}
	.st14{fill:url(#SVGID_15_);}
	.st15{fill:url(#SVGID_16_);}
	.st16{fill:#282E38;}
 </style>
 <metadata>
  <sfw xmlns="ns_sfw;">
   <slices>
   </slices>
   <sliceSourceBounds bottomLeftOrigin="true" height="78" width="108.6" x="-147.2" y="2.8">
   </sliceSourceBounds>
  </sfw>
 </metadata>
 <g>
  <linearGradient id="SVGID_1_" gradientUnits="userSpaceOnUse" x1="110.5698" y1="70.9492" x2="2.0982" y2="62.3315" gradientTransform="matrix(1 0 0 -1 0 113.5125)">
   <stop offset="0.2986" style="stop-color:#0097CE">
   </stop>
   <stop offset="0.3791" style="stop-color:#0999C5">
   </stop>
   <stop offset="0.5119" style="stop-color:#229DAD">
   </stop>
   <stop offset="0.6469" style="stop-color:#42A38F">
   </stop>
   <stop offset="0.7352" style="stop-color:#5DAD82">
   </stop>
   <stop offset="0.9239" style="stop-color:#A1C661">
   </stop>
   <stop offset="1" style="stop-color:#BED153">
   </stop>
  </linearGradient>
  <path class="st0" d="M108.3,17.3c-2.5-0.4-8-0.5-18.9,1.8c-1.3,0.3-2.6,0.5-3.9,0.4c-1.4-0.2-2.9-0.5-4.2-0.9
		c-6-2.1-10.9-1.4-13.8,0.1c-1.7,0.9-3.2,2.3-4.3,3.9c-1.8,2.5-5.6,10-10.7,12c-2.9,1.9-6,3.8-8.8,6.6c-1.7,1.8-2.2,6.1-6.8,10.3
		c-4.5,6.7-10.2,12.5-16.9,17c-8.6,6.1-15.9,8-15.9,8s19.2,5.4,40.2-4.7c16-7.7,24.3-22.6,26.2-25.9L81,28c0.9-1.6,2.6-3.8,4.2-4.6
		c0.5-0.3,1-0.5,1.1-0.6c1.2-0.6,2.4-1.1,3.6-1.5c7.3-2.7,14.9-2.9,18.4-3.3C108.7,17.9,108.7,17.4,108.3,17.3z">
  </path>
  <linearGradient id="SVGID_2_" gradientUnits="userSpaceOnUse" x1="-3.3872" y1="99.1067" x2="101.7764" y2="70.6323" gradientTransform="matrix(1 0 0 -1 0 113.5125)">
   <stop offset="8.199000e-02" style="stop-color:#3D65AF">
   </stop>
   <stop offset="0.2305" style="stop-color:#2372B8">
   </stop>
   <stop offset="0.5058" style="stop-color:#00B8BB">
   </stop>
  </linearGradient>
  <path class="st1" d="M108.3,17.3c-2.5-0.4-8-0.5-18.9,1.8c-1.3,0.3-2.6,0.5-3.9,0.4c-1.4-0.2-2.9-0.5-4.2-0.9
		c-6.1-2.1-10.8-1.5-13.8,0.1c-1.7,0.9-3.2,2.3-4.3,3.9c-1.8,2.5-5.6,10-10.7,12c-5.8-5.5-10.9-10.2-15.8-14.3
		c-2.8-2.2-5.5-4.4-7.8-5.9c-5.7-4-11.6-7.6-17.8-10.7C8.3,2.5,5.5,1.4,2.4,0.2C1.1-0.2,0.3,0.4,0.1,1.5C0,1.8-0.1,2.8,0.5,4.4
		C2,8.6,3.9,12.6,6.1,16.5C7,18.1,8,19.7,9,21.4c4.9,7.8,10.6,15,17,21.4c1.3,1.3,2.6,2.5,4,3.6c1.7,1.4,3.4,2.7,5.2,3.9
		c0.2,0.1,1,0.6,1.6,1c1.2,0.6,2.7,1.4,3.7,1.8c4,1.9,8.4,2.8,12.8,2.8c6.4,0.2,11.6-1.9,14.2-5.4c1.1-1.5,2.1-3,3-4.6L81,28
		c0.9-1.6,2.6-3.8,4.2-4.6c0.5-0.3,1-0.5,1.1-0.6c1.1-0.5,1.1-0.4,2.3-0.8c7.4-2.7,16.3-3.6,19.8-4c0.1,0,0.1,0,0.2-0.1
		c0.1-0.1,0.1-0.1,0.1-0.2c0-0.1,0-0.2-0.1-0.2C108.5,17.4,108.4,17.3,108.3,17.3z">
  </path>
  <linearGradient id="SVGID_3_" gradientUnits="userSpaceOnUse" x1="-4.240106e-02" y1="111.6313" x2="57.0864" y2="96.1629" gradientTransform="matrix(1 0 0 -1 0 113.5125)">
   <stop offset="0.1297" style="stop-color:#000000">
   </stop>
   <stop offset="0.3277" style="stop-color:#00334B">
   </stop>
   <stop offset="0.5276" style="stop-color:#006190">
   </stop>
   <stop offset="0.6723" style="stop-color:#007FBB">
   </stop>
   <stop offset="0.7457" style="stop-color:#008ACC">
   </stop>
  </linearGradient>
  <path class="st2" d="M0,2.1C0,2,0.1,1.8,0,1.7C0.1,1.8,0.1,2,0,2.1z">
  </path>
  <linearGradient id="SVGID_4_" gradientUnits="userSpaceOnUse" x1="14.2865" y1="112.4456" x2="67.4928" y2="112.4456" gradientTransform="matrix(1 0 0 -1 0 113.5125)">
   <stop offset="0.1297" style="stop-color:#000000">
   </stop>
   <stop offset="0.3277" style="stop-color:#00334B">
   </stop>
   <stop offset="0.5276" style="stop-color:#006190">
   </stop>
   <stop offset="0.6723" style="stop-color:#007FBB">
   </stop>
   <stop offset="0.7457" style="stop-color:#008ACC">
   </stop>
  </linearGradient>
  <path class="st3" d="M4.9,1C4.8,1,4.7,0.9,4.6,1C4.8,1,4.9,1.1,5.1,1.2C5.1,1.1,5,1.1,4.9,1z">
  </path>
  <linearGradient id="SVGID_5_" gradientUnits="userSpaceOnUse" x1="15.0621" y1="111.7076" x2="62.3568" y2="111.7076" gradientTransform="matrix(1 0 0 -1 0 113.5125)">
   <stop offset="0.1297" style="stop-color:#000000">
   </stop>
   <stop offset="0.3277" style="stop-color:#00334B">
   </stop>
   <stop offset="0.5276" style="stop-color:#006190">
   </stop>
   <stop offset="0.6723" style="stop-color:#007FBB">
   </stop>
   <stop offset="0.7457" style="stop-color:#008ACC">
   </stop>
  </linearGradient>
  <path class="st4" d="M6.7,1.8c-0.1,0-0.2-0.1-0.2-0.1c0.1,0.1,0.3,0.1,0.5,0.2C6.8,1.8,6.7,1.8,6.7,1.8z">
  </path>
  <linearGradient id="SVGID_6_" gradientUnits="userSpaceOnUse" x1="5.8502" y1="99.4376" x2="54.3686" y2="86.3005" gradientTransform="matrix(1 0 0 -1 0 113.5125)">
   <stop offset="0.1297" style="stop-color:#2483C5">
   </stop>
   <stop offset="0.1672" style="stop-color:#2486C7">
   </stop>
   <stop offset="0.676" style="stop-color:#29B1DF">
   </stop>
   <stop offset="0.9352" style="stop-color:#2BC2E8">
   </stop>
  </linearGradient>
  <path class="st5" d="M40.7,35.7c3.9,0.6,8,0.2,11.7-1.2c-3.5-3.3-6.8-6.3-9.9-9c-1.6-1.4-3.1-2.7-4.5-3.9c-0.1-0.1-0.2-0.1-0.2-0.2
		c-0.4-0.4-0.8-0.6-1.1-0.9c-0.1-0.1-0.2-0.2-0.2-0.2C33.7,18,31,16,28.8,14.4C22.9,10.3,17,6.5,11,3.7c-0.5-0.3-1-0.5-1.6-0.8
		C9.2,2.8,9.1,2.8,8.9,2.7C32,15.4,39.4,26.9,40.7,35.7z">
  </path>
  <linearGradient id="SVGID_7_" gradientUnits="userSpaceOnUse" x1="9.0343" y1="108.5579" x2="56.3287" y2="108.5579" gradientTransform="matrix(1 0 0 -1 0 113.5125)">
   <stop offset="0.1297" style="stop-color:#000000">
   </stop>
   <stop offset="0.3277" style="stop-color:#00334B">
   </stop>
   <stop offset="0.5276" style="stop-color:#006190">
   </stop>
   <stop offset="0.6723" style="stop-color:#007FBB">
   </stop>
   <stop offset="0.7457" style="stop-color:#008ACC">
   </stop>
  </linearGradient>
  <path class="st6" d="M0.9,5.5C0.7,5.2,0.6,4.8,0.4,4.4C0.6,4.7,0.7,5.1,0.9,5.5z">
  </path>
  <linearGradient id="SVGID_8_" gradientUnits="userSpaceOnUse" x1="0" y1="111.2669" x2="5.794769e-02" y2="111.2669" gradientTransform="matrix(1 0 0 -1 0 113.5125)">
   <stop offset="0" style="stop-color:#682C90">
   </stop>
   <stop offset="0.496" style="stop-color:#817CB9">
   </stop>
   <stop offset="1" style="stop-color:#FFFFFF">
   </stop>
  </linearGradient>
  <path class="st7" d="M0,2.3c0-0.1,0-0.1,0.1-0.1C0.1,2.2,0.1,2.2,0,2.3z">
  </path>
  <linearGradient id="SVGID_9_" gradientUnits="userSpaceOnUse" x1="228.4462" y1="112.9745" x2="117.6531" y2="112.9745" gradientTransform="matrix(1 0 0 -1 0 113.5125)">
   <stop offset="0" style="stop-color:#682C90">
   </stop>
   <stop offset="0.496" style="stop-color:#817CB9">
   </stop>
   <stop offset="1" style="stop-color:#FFFFFF">
   </stop>
  </linearGradient>
  <path class="st8" d="M2.5,0.1C3.2,0.4,3.9,0.7,4.6,1C3.9,0.7,3.2,0.4,2.5,0.1z">
  </path>
  <linearGradient id="SVGID_10_" gradientUnits="userSpaceOnUse" x1="42.7481" y1="110.1772" x2="21.7874" y2="110.1772" gradientTransform="matrix(1 0 0 -1 0 113.5125)">
   <stop offset="0" style="stop-color:#682C90">
   </stop>
   <stop offset="0.496" style="stop-color:#817CB9">
   </stop>
   <stop offset="1" style="stop-color:#FFFFFF">
   </stop>
  </linearGradient>
  <path class="st9" d="M0,2.3C0,3,0.2,3.7,0.4,4.4C0.2,3.7,0,3,0,2.3z">
  </path>
  <linearGradient id="SVGID_11_" gradientUnits="userSpaceOnUse" x1="220.6359" y1="111.1786" x2="115.833" y2="111.1786" gradientTransform="matrix(1 0 0 -1 0 113.5125)">
   <stop offset="0" style="stop-color:#682C90">
   </stop>
   <stop offset="0.496" style="stop-color:#817CB9">
   </stop>
   <stop offset="1" style="stop-color:#FFFFFF">
   </stop>
  </linearGradient>
  <path class="st10" d="M8.6,2.6l0.3,0.2c-0.6-0.3-1.3-0.6-2-0.9C7.1,2,7.3,2.1,7.5,2.2C7.9,2.3,8.2,2.4,8.6,2.6z">
  </path>
  <linearGradient id="SVGID_12_" gradientUnits="userSpaceOnUse" x1="-3.6727" y1="91.1328" x2="42.6712" y2="78.5846" gradientTransform="matrix(1 0 0 -1 0 113.5125)">
   <stop offset="0.1297" style="stop-color:#3B67AD">
   </stop>
   <stop offset="0.5697" style="stop-color:#227CAA">
   </stop>
   <stop offset="0.9352" style="stop-color:#118AA8">
   </stop>
  </linearGradient>
  <path class="st11" d="M15.4,23.3C9.2,18.3,3.4,11.2,0.9,5.6c5.8,14.9,20.9,36,34.3,44.8c0.2,0.2,1,0.6,1.7,1
		c1.7-2.7,4.9-8.3,3.8-15.7C32.4,34.6,23.5,30,15.4,23.3z">
  </path>
  <linearGradient id="SVGID_13_" gradientUnits="userSpaceOnUse" x1="133.4601" y1="112.0615" x2="70.578" y2="112.0615" gradientTransform="matrix(1 0 0 -1 0 113.5125)">
   <stop offset="0" style="stop-color:#682C90">
   </stop>
   <stop offset="0.496" style="stop-color:#817CB9">
   </stop>
   <stop offset="1" style="stop-color:#FFFFFF">
   </stop>
  </linearGradient>
  <path class="st12" d="M6.4,1.7L5.2,1.2c0.1,0,0.1,0.1,0.2,0.1C5.7,1.4,6,1.5,6.4,1.7z">
  </path>
  <linearGradient id="SVGID_14_" gradientUnits="userSpaceOnUse" x1="755.9692" y1="95.6936" x2="4900.1494" y2="95.6936" gradientTransform="matrix(1 0 0 -1 0 113.5125)">
   <stop offset="0.1297" style="stop-color:#000000">
   </stop>
   <stop offset="0.3277" style="stop-color:#00334B">
   </stop>
   <stop offset="0.5276" style="stop-color:#006190">
   </stop>
   <stop offset="0.6723" style="stop-color:#007FBB">
   </stop>
   <stop offset="0.7457" style="stop-color:#008ACC">
   </stop>
  </linearGradient>
  <path class="st13" d="M15.4,23.3c8.1,6.7,17,11.2,25.3,12.3C39.4,26.9,32,15.3,8.9,2.8c-0.1,0-0.2-0.1-0.3-0.2
		c-0.3-0.2-0.7-0.3-1-0.5C7.4,2,7.2,2,7,1.8C6.8,1.8,6.7,1.7,6.5,1.7C6.1,1.5,5.8,1.3,5.4,1.2c-0.1,0-0.1-0.1-0.2-0.1
		C5,1.1,4.9,1,4.7,1C4,0.7,3.3,0.4,2.6,0.1C1.2-0.3,0.5,0.4,0.2,1.4c0,0.1,0,0.2-0.1,0.4c-0.1,0.1,0,0.3,0,0.5c0,0.1,0,0.1-0.1,0.1
		c0,0.7,0.2,1.4,0.4,2.1c0.1,0.4,0.3,0.8,0.5,1.2C3.4,11.2,9.3,18.3,15.4,23.3z">
  </path>
  <linearGradient id="SVGID_15_" gradientUnits="userSpaceOnUse" x1="-2.6385" y1="102.0505" x2="43.843" y2="89.4649" gradientTransform="matrix(1 0 0 -1 0 113.5125)">
   <stop offset="0.1297" style="stop-color:#3A67B0">
   </stop>
   <stop offset="0.5622" style="stop-color:#357FBD">
   </stop>
   <stop offset="0.9352" style="stop-color:#3290C6">
   </stop>
  </linearGradient>
  <path class="st14" d="M15.4,23.3c8.1,6.7,17,11.2,25.3,12.3C39.4,26.9,32,15.3,8.9,2.8c-0.1,0-0.2-0.1-0.3-0.2
		c-0.3-0.2-0.7-0.3-1-0.5C7.4,2,7.2,2,7,1.8C6.8,1.8,6.7,1.7,6.5,1.7C6.1,1.5,5.8,1.3,5.4,1.2c-0.1,0-0.1-0.1-0.2-0.1
		C5,1.1,4.9,1,4.7,1C4,0.7,3.3,0.4,2.6,0.1C1.2-0.3,0.5,0.4,0.2,1.4c0,0.1,0,0.2-0.1,0.4c-0.1,0.1,0,0.3,0,0.5c0,0.1,0,0.1-0.1,0.1
		c0,0.7,0.2,1.4,0.4,2.1c0.1,0.4,0.3,0.8,0.5,1.2C3.4,11.2,9.3,18.3,15.4,23.3z">
  </path>
  <linearGradient id="SVGID_16_" gradientUnits="userSpaceOnUse" x1="56.1575" y1="92.6466" x2="104.2326" y2="79.6295" gradientTransform="matrix(1 0 0 -1 0 113.5125)">
   <stop offset="0.1724" style="stop-color:#4E5CA8">
   </stop>
   <stop offset="0.9937" style="stop-color:#1FC3F3">
   </stop>
  </linearGradient>
  <path class="st15" d="M108.3,17.3c-2.5-0.4-8-0.5-18.9,1.8c-1.3,0.3-2.6,0.5-3.9,0.4c-1.4-0.2-2.9-0.5-4.2-0.9
		c-2.8-1-5.8-1.5-8.8-1.4c-2.1,0.1-4,0.8-5.7,2c-1.4,0.9-2.5,2.1-3.5,3.4c-1.8,2.5-5.6,10-10.7,12c4.1,3.9,10.3,7.1,16.2,5.2
		c5.6-1.9,9.1-6.9,10.2-8.6c1.1-1.7,2.4-3.4,3.7-4.9c1.9-2,4.3-3.5,6.9-4.4c6.6-2.2,16.6-3.6,19-3.8
		C108.7,17.9,108.7,17.4,108.3,17.3z">
  </path>
  <path class="st16" d="M75.9,25.5c1,0,1.7-0.8,1.7-1.8c0-1-0.8-1.8-1.7-1.8c-1,0-1.7,0.8-1.7,1.8C74.2,24.7,74.9,25.5,75.9,25.5z">
  </path>
 </g>
</svg>