<svg xmlns="http://www.w3.org/2000/svg" xml:space="preserve" viewBox="0 0 108.6 78"><linearGradient id="a" x1="110.57" x2="2.098" y1="70.949" y2="62.331" gradientTransform="matrix(1 0 0 -1 0 113.513)" gradientUnits="userSpaceOnUse"><stop offset=".299" style="stop-color:#0097ce"/><stop offset=".379" style="stop-color:#0999c5"/><stop offset=".512" style="stop-color:#229dad"/><stop offset=".647" style="stop-color:#42a38f"/><stop offset=".735" style="stop-color:#5dad82"/><stop offset=".924" style="stop-color:#a1c661"/><stop offset="1" style="stop-color:#bed153"/></linearGradient><path d="M108.3 17.3c-2.5-.4-8-.5-18.9 1.8-1.3.3-2.6.5-3.9.4-1.4-.2-2.9-.5-4.2-.9-6-2.1-10.9-1.4-13.8.1-1.7.9-3.2 2.3-4.3 3.9-1.8 2.5-5.6 10-10.7 12-2.9 1.9-6 3.8-8.8 6.6-1.7 1.8-2.2 6.1-6.8 10.3-4.5 6.7-10.2 12.5-16.9 17-8.6 6.1-15.9 8-15.9 8s19.2 5.4 40.2-4.7c16-7.7 24.3-22.6 26.2-25.9L81 28c.9-1.6 2.6-3.8 4.2-4.6.5-.3 1-.5 1.1-.6q1.8-.9 3.6-1.5c7.3-2.7 14.9-2.9 18.4-3.3.4-.1.4-.6 0-.7" style="fill:url(#a)"/><linearGradient id="b" x1="-3.387" x2="101.776" y1="99.107" y2="70.632" gradientTransform="matrix(1 0 0 -1 0 113.513)" gradientUnits="userSpaceOnUse"><stop offset=".082" style="stop-color:#3d65af"/><stop offset=".231" style="stop-color:#2372b8"/><stop offset=".506" style="stop-color:#00b8bb"/></linearGradient><path d="M108.3 17.3c-2.5-.4-8-.5-18.9 1.8-1.3.3-2.6.5-3.9.4-1.4-.2-2.9-.5-4.2-.9-6.1-2.1-10.8-1.5-13.8.1-1.7.9-3.2 2.3-4.3 3.9-1.8 2.5-5.6 10-10.7 12-5.8-5.5-10.9-10.2-15.8-14.3-2.8-2.2-5.5-4.4-7.8-5.9-5.7-4-11.6-7.6-17.8-10.7C8.3 2.5 5.5 1.4 2.4.2 1.1-.2.3.4.1 1.5c-.1.3-.2 1.3.4 2.9C2 8.6 3.9 12.6 6.1 16.5 7 18.1 8 19.7 9 21.4c4.9 7.8 10.6 15 17 21.4 1.3 1.3 2.6 2.5 4 3.6 1.7 1.4 3.4 2.7 5.2 3.9.2.1 1 .6 1.6 1 1.2.6 2.7 1.4 3.7 1.8 4 1.9 8.4 2.8 12.8 2.8 6.4.2 11.6-1.9 14.2-5.4 1.1-1.5 2.1-3 3-4.6L81 28c.9-1.6 2.6-3.8 4.2-4.6.5-.3 1-.5 1.1-.6 1.1-.5 1.1-.4 2.3-.8 7.4-2.7 16.3-3.6 19.8-4 .1 0 .1 0 .2-.1s.1-.1.1-.2 0-.2-.1-.2c-.1-.1-.2-.2-.3-.2" style="fill:url(#b)"/><linearGradient id="c" x1="-.042" x2="57.086" y1="111.631" y2="96.163" gradientTransform="matrix(1 0 0 -1 0 113.513)" gradientUnits="userSpaceOnUse"><stop offset=".13" style="stop-color:#000"/><stop offset=".328" style="stop-color:#00334b"/><stop offset=".528" style="stop-color:#006190"/><stop offset=".672" style="stop-color:#007fbb"/><stop offset=".746" style="stop-color:#008acc"/></linearGradient><path d="M0 2.1c0-.1.1-.3 0-.4.1.1.1.3 0 .4" style="opacity:.8;fill:url(#c)"/><linearGradient id="d" x1="14.287" x2="67.493" y1="112.446" y2="112.446" gradientTransform="matrix(1 0 0 -1 0 113.513)" gradientUnits="userSpaceOnUse"><stop offset=".13" style="stop-color:#000"/><stop offset=".328" style="stop-color:#00334b"/><stop offset=".528" style="stop-color:#006190"/><stop offset=".672" style="stop-color:#007fbb"/><stop offset=".746" style="stop-color:#008acc"/></linearGradient><path d="M4.9 1c-.1 0-.2-.1-.3 0 .2 0 .3.1.5.2 0-.1-.1-.1-.2-.2" style="opacity:.8;fill:url(#d)"/><linearGradient id="e" x1="15.062" x2="62.357" y1="111.708" y2="111.708" gradientTransform="matrix(1 0 0 -1 0 113.513)" gradientUnits="userSpaceOnUse"><stop offset=".13" style="stop-color:#000"/><stop offset=".328" style="stop-color:#00334b"/><stop offset=".528" style="stop-color:#006190"/><stop offset=".672" style="stop-color:#007fbb"/><stop offset=".746" style="stop-color:#008acc"/></linearGradient><path d="M6.7 1.8c-.1 0-.2-.1-.2-.1.1.1.3.1.5.2-.2-.1-.3-.1-.3-.1" style="opacity:.8;fill:url(#e)"/><linearGradient id="f" x1="5.85" x2="54.369" y1="99.438" y2="86.3" gradientTransform="matrix(1 0 0 -1 0 113.513)" gradientUnits="userSpaceOnUse"><stop offset=".13" style="stop-color:#2483c5"/><stop offset=".167" style="stop-color:#2486c7"/><stop offset=".676" style="stop-color:#29b1df"/><stop offset=".935" style="stop-color:#2bc2e8"/></linearGradient><path d="M40.7 35.7c3.9.6 8 .2 11.7-1.2q-5.25-4.95-9.9-9-2.4-2.1-4.5-3.9c-.1-.1-.2-.1-.2-.2-.4-.4-.8-.6-1.1-.9l-.2-.2C33.7 18 31 16 28.8 14.4 22.9 10.3 17 6.5 11 3.7c-.5-.3-1-.5-1.6-.8-.2-.1-.3-.1-.5-.2 23.1 12.7 30.5 24.2 31.8 33" style="fill:url(#f)"/><linearGradient id="g" x1="9.034" x2="56.329" y1="108.558" y2="108.558" gradientTransform="matrix(1 0 0 -1 0 113.513)" gradientUnits="userSpaceOnUse"><stop offset=".13" style="stop-color:#000"/><stop offset=".328" style="stop-color:#00334b"/><stop offset=".528" style="stop-color:#006190"/><stop offset=".672" style="stop-color:#007fbb"/><stop offset=".746" style="stop-color:#008acc"/></linearGradient><path d="M.9 5.5C.7 5.2.6 4.8.4 4.4c.2.3.3.7.5 1.1" style="opacity:.8;fill:url(#g)"/><linearGradient id="h" x1="0" x2=".058" y1="111.267" y2="111.267" gradientTransform="matrix(1 0 0 -1 0 113.513)" gradientUnits="userSpaceOnUse"><stop offset="0" style="stop-color:#682c90"/><stop offset=".496" style="stop-color:#817cb9"/><stop offset="1" style="stop-color:#fff"/></linearGradient><path d="M0 2.3c0-.1 0-.1.1-.1z" style="opacity:.3;fill:url(#h)"/><linearGradient id="i" x1="228.446" x2="117.653" y1="112.975" y2="112.975" gradientTransform="matrix(1 0 0 -1 0 113.513)" gradientUnits="userSpaceOnUse"><stop offset="0" style="stop-color:#682c90"/><stop offset=".496" style="stop-color:#817cb9"/><stop offset="1" style="stop-color:#fff"/></linearGradient><path d="m2.5.1 2.1.9z" style="opacity:.3;fill:url(#i)"/><linearGradient id="j" x1="42.748" x2="21.787" y1="110.177" y2="110.177" gradientTransform="matrix(1 0 0 -1 0 113.513)" gradientUnits="userSpaceOnUse"><stop offset="0" style="stop-color:#682c90"/><stop offset=".496" style="stop-color:#817cb9"/><stop offset="1" style="stop-color:#fff"/></linearGradient><path d="M0 2.3c0 .7.2 1.4.4 2.1C.2 3.7 0 3 0 2.3" style="opacity:.3;fill:url(#j)"/><linearGradient id="k" x1="220.636" x2="115.833" y1="111.179" y2="111.179" gradientTransform="matrix(1 0 0 -1 0 113.513)" gradientUnits="userSpaceOnUse"><stop offset="0" style="stop-color:#682c90"/><stop offset=".496" style="stop-color:#817cb9"/><stop offset="1" style="stop-color:#fff"/></linearGradient><path d="m8.6 2.6.3.2c-.6-.3-1.3-.6-2-.9l.6.3c.4.1.7.2 1.1.4" style="opacity:.3;fill:url(#k)"/><linearGradient id="l" x1="-3.673" x2="42.671" y1="91.133" y2="78.585" gradientTransform="matrix(1 0 0 -1 0 113.513)" gradientUnits="userSpaceOnUse"><stop offset=".13" style="stop-color:#3b67ad"/><stop offset=".57" style="stop-color:#227caa"/><stop offset=".935" style="stop-color:#118aa8"/></linearGradient><path d="M15.4 23.3C9.2 18.3 3.4 11.2.9 5.6c5.8 14.9 20.9 36 34.3 44.8.2.2 1 .6 1.7 1 1.7-2.7 4.9-8.3 3.8-15.7-8.3-1.1-17.2-5.7-25.3-12.4" style="fill:url(#l)"/><linearGradient id="m" x1="133.46" x2="70.578" y1="112.061" y2="112.061" gradientTransform="matrix(1 0 0 -1 0 113.513)" gradientUnits="userSpaceOnUse"><stop offset="0" style="stop-color:#682c90"/><stop offset=".496" style="stop-color:#817cb9"/><stop offset="1" style="stop-color:#fff"/></linearGradient><path d="m6.4 1.7-1.2-.5c.1 0 .1.1.2.1.3.1.6.2 1 .4" style="opacity:.3;fill:url(#m)"/><linearGradient id="n" x1="755.969" x2="4900.149" y1="95.694" y2="95.694" gradientTransform="matrix(1 0 0 -1 0 113.513)" gradientUnits="userSpaceOnUse"><stop offset=".13" style="stop-color:#000"/><stop offset=".328" style="stop-color:#00334b"/><stop offset=".528" style="stop-color:#006190"/><stop offset=".672" style="stop-color:#007fbb"/><stop offset=".746" style="stop-color:#008acc"/></linearGradient><path d="M15.4 23.3c8.1 6.7 17 11.2 25.3 12.3C39.4 26.9 32 15.3 8.9 2.8c-.1 0-.2-.1-.3-.2-.3-.2-.7-.3-1-.5-.2-.1-.4-.1-.6-.3-.2 0-.3-.1-.5-.1-.4-.2-.7-.4-1.1-.5-.1 0-.1-.1-.2-.1-.2 0-.3-.1-.5-.1L2.6.1C1.2-.3.5.4.2 1.4c0 .1 0 .2-.1.4-.1.1 0 .3 0 .5 0 .1 0 .1-.1.1 0 .7.2 1.4.4 2.1.1.4.3.8.5 1.2 2.5 5.5 8.4 12.6 14.5 17.6" style="opacity:.8;fill:url(#n)"/><linearGradient id="o" x1="-2.639" x2="43.843" y1="102.05" y2="89.465" gradientTransform="matrix(1 0 0 -1 0 113.513)" gradientUnits="userSpaceOnUse"><stop offset=".13" style="stop-color:#3a67b0"/><stop offset=".562" style="stop-color:#357fbd"/><stop offset=".935" style="stop-color:#3290c6"/></linearGradient><path d="M15.4 23.3c8.1 6.7 17 11.2 25.3 12.3C39.4 26.9 32 15.3 8.9 2.8c-.1 0-.2-.1-.3-.2-.3-.2-.7-.3-1-.5-.2-.1-.4-.1-.6-.3-.2 0-.3-.1-.5-.1-.4-.2-.7-.4-1.1-.5-.1 0-.1-.1-.2-.1-.2 0-.3-.1-.5-.1L2.6.1C1.2-.3.5.4.2 1.4c0 .1 0 .2-.1.4-.1.1 0 .3 0 .5 0 .1 0 .1-.1.1 0 .7.2 1.4.4 2.1.1.4.3.8.5 1.2 2.5 5.5 8.4 12.6 14.5 17.6" style="fill:url(#o)"/><linearGradient id="p" x1="56.157" x2="104.233" y1="92.647" y2="79.629" gradientTransform="matrix(1 0 0 -1 0 113.513)" gradientUnits="userSpaceOnUse"><stop offset=".172" style="stop-color:#4e5ca8"/><stop offset=".994" style="stop-color:#1fc3f3"/></linearGradient><path d="M108.3 17.3c-2.5-.4-8-.5-18.9 1.8-1.3.3-2.6.5-3.9.4-1.4-.2-2.9-.5-4.2-.9-2.8-1-5.8-1.5-8.8-1.4-2.1.1-4 .8-5.7 2-1.4.9-2.5 2.1-3.5 3.4-1.8 2.5-5.6 10-10.7 12 4.1 3.9 10.3 7.1 16.2 5.2 5.6-1.9 9.1-6.9 10.2-8.6s2.4-3.4 3.7-4.9c1.9-2 4.3-3.5 6.9-4.4 6.6-2.2 16.6-3.6 19-3.8.1-.2.1-.7-.3-.8" style="fill:url(#p)"/><path d="M75.9 25.5c1 0 1.7-.8 1.7-1.8s-.8-1.8-1.7-1.8c-1 0-1.7.8-1.7 1.8s.7 1.8 1.7 1.8" style="fill:#282e38"/></svg>