<svg xmlns="http://www.w3.org/2000/svg" xml:space="preserve" viewBox="0 0 115.28 122.88"><path d="M25.38 57h64.88V37.34H69.59c-2.17 0-5.19-1.17-6.62-2.6s-2.3-4.01-2.3-6.17V7.64H8.15c-.18 0-.32.09-.41.18-.15.1-.19.23-.19.42v106.45c0 .14.09.32.18.41.09.14.28.18.41.18h81.51c.18 0 .17-.09.27-.18.14-.09.33-.28.33-.41v-11.16H25.38c-4.14 0-7.56-3.4-7.56-7.56V64.55c0-4.15 3.4-7.55 7.56-7.55m4.11 11.38h7.43v18.15h11.63v5.92H29.49zm20.4 12.05c0-3.93 1.09-6.99 3.28-9.17 2.19-2.19 5.24-3.28 9.15-3.28 4.01 0 7.09 1.08 9.26 3.22 2.17 2.15 3.25 5.16 3.25 9.04 0 2.81-.47 5.11-1.42 6.91q-1.425 2.7-4.11 4.2t-6.69 1.5c-2.71 0-4.96-.43-6.74-1.29-1.78-.87-3.22-2.23-4.32-4.11-1.11-1.87-1.66-4.21-1.66-7.02m7.42.01c0 2.43.45 4.17 1.36 5.23s2.14 1.59 3.7 1.59c1.6 0 2.84-.52 3.71-1.56.88-1.04 1.32-2.9 1.32-5.6 0-2.26-.46-3.92-1.37-4.96-.92-1.05-2.16-1.57-3.73-1.57-1.5 0-2.71.53-3.62 1.59-.91 1.08-1.37 2.83-1.37 5.28m33.11 3.3v-5.01h11.49v10.23c-2.2 1.5-4.15 2.53-5.83 3.07-1.69.54-3.7.81-6.02.81-2.86 0-5.19-.49-6.99-1.46s-3.19-2.42-4.18-4.35c-.99-1.92-1.48-4.13-1.48-6.63 0-2.63.54-4.91 1.62-6.85s2.67-3.41 4.76-4.42c1.63-.78 3.83-1.17 6.58-1.17 2.66 0 4.64.24 5.96.72s2.41 1.23 3.28 2.24 1.52 2.3 1.96 3.85l-7.16 1.29c-.3-.91-.8-1.61-1.5-2.09-.71-.49-1.6-.73-2.7-.73-1.62 0-2.92.57-3.89 1.7s-1.45 2.92-1.45 5.37c0 2.6.49 4.46 1.47 5.57.97 1.11 2.34 1.68 4.09 1.68q1.245 0 2.37-.36c.75-.24 1.61-.65 2.59-1.22v-2.25h-4.97zM97.79 57h9.93c4.16 0 7.56 3.41 7.56 7.56v31.42c0 4.15-3.41 7.56-7.56 7.56h-9.93v13.55c0 1.61-.65 3.04-1.7 4.1a5.74 5.74 0 0 1-4.1 1.7H5.81a5.74 5.74 0 0 1-4.1-1.7 5.74 5.74 0 0 1-1.7-4.1V5.85c0-1.61.65-3.04 1.7-4.1a5.8 5.8 0 0 1 4.1-1.7h58.72c.13-.05.27-.05.41-.05.64 0 1.29.28 1.75.69h.09c.09.05.14.09.23.18L97 31.23c.51.51.88 1.2.88 1.98 0 .23-.05.41-.09.65zM67.52 27.97V8.94l21.43 21.7H70.19c-.74 0-1.38-.32-1.89-.78-.46-.46-.78-1.15-.78-1.89" style="fill-rule:evenodd;clip-rule:evenodd"/></svg>