<svg xmlns="http://www.w3.org/2000/svg" xmlns:xlink="http://www.w3.org/1999/xlink" width="800" height="800" preserveAspectRatio="xMidYMid" viewBox="0 -12.5 256 256"><defs><path id="a" d="M252.926 103.237 200.327 11.76A23.12 23.12 0 0 0 180.607 0H75.392a23.1 23.1 0 0 0-19.72 11.76L3.053 102.997a22.96 22.96 0 0 0 0 22.88l52.598 91.997a23.54 23.54 0 0 0 19.72 12.18h105.217a23.46 23.46 0 0 0 19.74-12.12l52.598-91.478a23.46 23.46 0 0 0 0-23.219"/></defs><mask id="b" fill="#fff"><use xlink:href="#a"/></mask><path fill="#4285F4" d="M252.926 103.237 200.327 11.76A23.12 23.12 0 0 0 180.607 0H75.392a23.1 23.1 0 0 0-19.72 11.76L3.053 102.997a22.96 22.96 0 0 0 0 22.88l52.598 91.997a23.54 23.54 0 0 0 19.72 12.18h105.217a23.46 23.46 0 0 0 19.74-12.12l52.598-91.478a23.46 23.46 0 0 0 0-23.219" mask="url(#b)"/><path d="m187.168 84.732-7.252 7.909 1.633 46.998-6.873 9.961-3.985-3.984h3.666v-16.297l-17.592-17.592-13.296 6.646-44.101-44.2L78.13 85.548l-2.63 22.035 7.452 40.324 10.798 10.579-4.921 6.993 64.247 65.758h26.84c8.223-.282 17.128-5.671 21.1-12.877l43.78-76.003z" mask="url(#b)" opacity=".07"/><path fill="#FFF" d="m88.829 165.479 10.539-10.54-15.799-15.798V89.97l15.799-15.798-10.54-10.54-21.097 21.099v59.648z" mask="url(#b)"/><circle cx="105.145" cy="114.556" r="7.471" fill="#FFF" mask="url(#b)"/><circle cx="127.499" cy="114.556" r="7.471" fill="#FFF" mask="url(#b)"/><circle cx="149.852" cy="114.556" r="7.471" fill="#FFF" mask="url(#b)"/><path fill="#FFF" d="m166.07 63.633-10.54 10.54L171.33 89.97v49.17l-15.799 15.798 10.54 10.54 21.098-21.099V84.732z" mask="url(#b)"/></svg>