<svg xmlns="http://www.w3.org/2000/svg" width="30" height="17" viewBox="0 0 30 17" fill="none">
    <g clip-path="url(#clip0_349_4938)">
      <path d="M14.023 11.0843C14.1226 11.0245 14.2422 10.9979 14.3618 10.9979C14.4548 10.9979 14.5479 11.0178 14.6276 11.0577C14.714 11.0976 14.7871 11.1574 14.8469 11.2238L15.0661 11.0045C14.9797 10.8982 14.8734 10.8185 14.7538 10.7654C14.6077 10.7056 14.4548 10.679 14.2954 10.6856C14.1359 10.6923 13.9831 10.7388 13.8502 10.8119C13.704 10.8982 13.5845 11.0178 13.4981 11.1707C13.4117 11.3301 13.3718 11.5029 13.3718 11.6823C13.3718 11.8617 13.4117 12.0344 13.4981 12.1939C13.5778 12.34 13.6974 12.4663 13.8436 12.5527C13.9964 12.639 14.1691 12.6855 14.3419 12.6789C14.4814 12.6789 14.621 12.6523 14.7538 12.5992C14.8734 12.546 14.9864 12.4596 15.0661 12.36L14.8469 12.1407C14.7871 12.2138 14.714 12.2736 14.6276 12.3135C14.5412 12.3533 14.4482 12.3733 14.3552 12.3733C14.2356 12.3733 14.1226 12.3467 14.0163 12.2869C13.9167 12.2271 13.8369 12.1474 13.7838 12.0477C13.7306 11.9414 13.6974 11.8151 13.6974 11.6955C13.6974 11.576 13.724 11.4564 13.7838 11.3434C13.8436 11.2305 13.9233 11.1441 14.023 11.0843ZM13.6841 8.83852H14.6143V9.66905H14.9465V7.72894H14.6143V8.52625H13.6841V7.72894H13.3519V9.66905H13.6841V8.83852ZM15.3585 9.66905H15.6907V7.72894H15.3585V9.66905ZM17.1125 7.81531C16.9863 7.75551 16.8468 7.72894 16.7072 7.73558H16.1093V9.66905H16.4415V9.11094H16.7072C16.8468 9.11094 16.9863 9.08436 17.1125 9.03121C17.2255 8.97805 17.3185 8.89832 17.3783 8.79202C17.4381 8.67906 17.4713 8.55282 17.4713 8.42658C17.4713 8.30034 17.4381 8.1741 17.3783 8.06115C17.3185 7.9482 17.2255 7.86847 17.1125 7.81531ZM17.0195 8.70564C16.9464 8.77208 16.8335 8.8053 16.6873 8.8053H16.4415V8.03457H16.6873C16.8335 8.03457 16.9464 8.06779 17.0195 8.13424C17.0926 8.20068 17.1325 8.2937 17.1325 8.41994C17.1325 8.54618 17.0993 8.6392 17.0195 8.70564ZM20.3815 7.73558L19.4845 9.66905H19.8633L20.0626 9.22389H21.0592L21.2585 9.66905H21.6439L20.7469 7.72894H20.3815V7.73558ZM20.1888 8.93819L20.5609 8.09437L20.933 8.93819H20.1888ZM16.8136 10.8119C16.6607 10.7255 16.488 10.6856 16.3086 10.6856C16.1292 10.6856 15.9631 10.7321 15.8036 10.8119C15.6575 10.8982 15.5312 11.0178 15.4515 11.1707C15.3651 11.3301 15.3252 11.5029 15.3252 11.6823C15.3252 11.8617 15.3718 12.0344 15.4515 12.1939C15.5312 12.34 15.6575 12.4663 15.8036 12.5527C15.9564 12.639 16.1292 12.6789 16.3086 12.6789C16.488 12.6789 16.6541 12.6324 16.8136 12.5527C16.9597 12.4663 17.0793 12.3467 17.1657 12.1939C17.2521 12.0344 17.2919 11.8617 17.2919 11.6823C17.2919 11.5029 17.2454 11.3301 17.1657 11.1707C17.0793 11.0178 16.9597 10.8982 16.8136 10.8119ZM16.8667 12.0278C16.8136 12.1274 16.7338 12.2138 16.6408 12.2736C16.5411 12.3334 16.4282 12.36 16.3152 12.36C16.2023 12.36 16.0893 12.3268 15.9897 12.2736C15.89 12.2138 15.8103 12.1341 15.7638 12.0278C15.7106 11.9215 15.6774 11.8019 15.6774 11.6756C15.6774 11.5494 15.704 11.4364 15.7638 11.3235C15.8169 11.2238 15.8966 11.1374 15.9897 11.0776C16.0893 11.0178 16.2023 10.9913 16.3152 10.9913C16.4282 10.9913 16.5411 11.0245 16.6408 11.0776C16.7405 11.1374 16.8202 11.2172 16.8667 11.3235C16.9199 11.4298 16.9531 11.5494 16.9531 11.6756C16.9531 11.8019 16.9199 11.9215 16.8667 12.0278ZM28.1619 10.7122V11.0178H28.7665V12.6523H29.1054V11.0178H29.71V10.7122H28.1619ZM27.6237 12.0211L26.6204 10.7122H26.3414V12.6523H26.6802V11.3434L27.6835 12.6523H27.9626V10.7122H27.6237V12.0211ZM19.2387 10.7122L18.6739 11.7421L18.0959 10.7122H17.6773V12.6523H18.0361V11.3102L18.6673 12.4264L19.3118 11.2902V12.6457H19.6706V10.7056H19.2387V10.7122ZM21.0725 10.7919C20.9463 10.7321 20.8001 10.7056 20.6606 10.7122H20.0559V12.6523H20.3948V12.0942H20.6606C20.8001 12.0942 20.9463 12.0676 21.0725 12.0145C21.1855 11.9613 21.2785 11.8816 21.3449 11.7753C21.4047 11.6623 21.4379 11.5361 21.4379 11.4098C21.4379 11.2836 21.4047 11.1574 21.3449 11.0444C21.2785 10.9315 21.1855 10.8451 21.0725 10.7919ZM20.9795 11.6889C20.9064 11.7553 20.7935 11.7886 20.6406 11.7886H20.3882V11.0178H20.6406C20.7868 11.0178 20.8998 11.0511 20.9795 11.1175C21.0526 11.1839 21.0924 11.277 21.0924 11.4032C21.0991 11.5228 21.0592 11.6225 20.9795 11.6889ZM18.8467 9.22389L19.046 9.66905H19.4314L18.5344 7.72894H18.169L17.2786 9.66905H17.6574L17.8567 9.22389H18.8467ZM18.355 8.09437L18.7271 8.93819H17.9829L18.355 8.09437ZM22.0891 10.7122H21.7502V12.6523H23.0392V12.3467H22.0891V10.7122ZM23.3183 12.6457H23.6571V10.7056H23.3183V12.6457ZM9.69757 14.8316C9.70422 15.2967 9.71086 15.6356 9.7175 15.8017C9.72415 15.8216 9.72415 15.8482 9.7175 15.8681C9.7175 15.8947 9.7175 15.9146 9.7175 15.9146C9.7175 16.0077 9.73079 16.1007 9.75737 16.1871C9.78395 16.1007 9.79723 16.0077 9.79723 15.9146C9.79723 15.8814 9.81052 15.3964 9.83046 14.619C9.82381 14.6257 9.81717 14.6323 9.81717 14.6389C9.77066 14.6987 9.73079 14.7652 9.69757 14.8316ZM8.31557 5.13104C8.42188 5.01809 8.52154 4.8852 8.59463 4.74567C8.54147 4.86527 8.3355 5.31708 8.53483 5.35694C8.75409 5.39681 8.99993 5.33037 9.44509 4.76561C9.4318 4.04138 9.41851 3.41018 9.41187 2.9318H9.17268C9.15939 2.9318 9.15274 2.9318 9.13945 2.9318C9.00657 2.9318 8.78731 2.91851 8.64114 2.69925C8.48168 2.46006 8.47503 2.21422 8.46839 2.03482C8.46174 1.7757 8.3953 1.30396 8.06973 1.03819C7.84383 0.858794 7.23256 0.719264 6.6678 0.945168C6.48176 1.01825 6.10969 1.21094 5.74426 1.39033C5.41204 1.55644 4.98681 1.76241 4.85393 1.76241C5.07319 1.66275 5.36553 1.51657 5.68446 1.33718C6.04989 1.13785 6.43526 0.925235 6.62794 0.845504C7.01331 0.692687 7.75081 0.646178 8.12953 0.951813C8.48832 1.24416 8.56141 1.74912 8.56805 2.02154C8.57469 2.20093 8.58134 2.42019 8.72087 2.63945C8.84711 2.82549 9.04644 2.82549 9.16603 2.82549H9.19261H9.40522C9.40522 2.76569 9.40522 2.71254 9.40522 2.65274C9.19261 2.66603 8.88697 2.67932 8.75409 2.39361C8.59463 2.04811 8.76738 1.16443 8.23584 0.792351C7.7043 0.420274 6.85384 0.513293 6.0964 0.951813C5.3456 1.38369 4.34897 1.94845 3.11978 2.44012C1.8906 2.9318 1.12651 3.13112 0.980333 3.15106C0.840804 3.17763 1.09329 3.27065 1.61818 3.28394C2.14308 3.29723 2.5816 3.25736 2.5816 3.25736L6.43525 1.50328C6.43525 1.50328 3.11314 3.1577 2.83408 3.3371C2.55502 3.51649 2.32912 3.57629 2.34905 3.74239C2.36898 3.9085 2.5816 3.88857 3.16629 3.87528C3.75098 3.86199 3.87722 3.80884 4.07654 3.74904C4.27587 3.68924 6.43525 2.6926 6.43525 2.6926C6.43525 2.6926 4.12306 3.84206 3.79085 4.10783C3.45864 4.3736 3.81742 4.45997 4.04332 4.46662C4.27587 4.47326 4.89379 4.44004 5.23929 4.26729C5.58479 4.09454 6.66116 3.40354 6.66116 3.40354C6.66116 3.40354 5.59808 4.16762 5.39211 4.34037C5.22601 4.4799 5.13963 4.5995 5.17949 4.74567C5.23929 4.93171 5.55822 4.91178 5.98345 4.75896C5.98345 4.75896 6.42197 4.60614 6.58807 4.45997C6.75418 4.30715 7.21928 3.89521 7.21928 3.89521C7.21928 3.89521 6.6678 4.46662 6.52828 4.71245C6.39539 4.95829 6.36881 5.01809 6.43525 5.15762C6.52827 5.35694 7.23256 5.15097 7.43189 4.93836C7.57806 4.77225 7.71759 4.5995 7.84383 4.41346C7.84383 4.41346 7.63121 4.75896 7.5847 4.95829C7.53819 5.15762 7.48505 5.31708 7.67772 5.33701C7.89034 5.37023 8.08966 5.37688 8.31557 5.13104ZM9.63113 9.65577C9.65106 9.64248 9.67099 9.62919 9.69093 9.6159C9.73079 9.58932 9.76401 9.56939 9.79059 9.54282C9.84374 9.50959 9.8969 9.46973 9.95005 9.43651C9.9567 9.05779 9.96999 8.67242 9.97663 8.2937C9.87032 8.24719 9.75737 8.20068 9.63777 8.15417C9.63113 8.15417 9.62449 8.14752 9.61784 8.14752C9.60455 8.14088 9.59791 8.14088 9.58462 8.13424C9.50489 8.10766 9.4318 8.07444 9.34543 8.04786C9.24576 8.008 9.1461 7.97477 9.04644 7.93491C8.38201 8.28705 8.24913 8.45316 8.24913 8.77873C8.24913 9.23718 8.64114 9.44315 9.31885 9.87503C9.42516 9.7953 9.53147 9.72221 9.63113 9.65577ZM8.81389 8.83852C8.81389 8.83852 8.76738 8.54618 9.51818 8.20732C9.53811 8.20068 9.55804 8.18739 9.57797 8.18075C9.58462 8.6392 9.59126 9.09765 9.60455 9.5561C9.23248 9.30362 8.81389 9.06443 8.81389 8.83852ZM9.95005 14.4795C9.91683 14.5193 9.88361 14.5592 9.85039 14.5924C10.0431 14.8516 10.0298 15.104 9.92348 15.4296C10.0231 15.3167 10.2225 15.031 10.0564 14.6589C10.0231 14.5991 9.98992 14.5393 9.95005 14.4795ZM9.64442 11.7553C9.7175 11.8284 9.80388 11.9148 9.89025 12.0012C9.94341 12.0543 9.99656 12.1075 10.0564 12.1673C10.063 12.1739 10.0763 12.1806 10.0896 12.1939C10.5414 11.8019 10.9533 11.4298 10.9533 10.9647C10.9533 10.5992 10.6012 10.267 10.249 10.0013C10.2158 10.0212 10.1826 10.0411 10.1494 10.0677C10.0696 10.1209 9.99656 10.1674 9.93012 10.2139C9.93012 10.2139 9.92348 10.2139 9.92348 10.2205C9.91019 10.2338 9.89025 10.2405 9.87697 10.2537C9.78395 10.3202 9.69757 10.38 9.61784 10.4398C9.63113 10.885 9.63777 11.3301 9.64442 11.7553ZM9.93012 10.287C10.3686 10.6059 10.5414 10.8119 10.5414 11.0378C10.5414 11.2703 10.2956 11.5427 9.8969 11.9414C9.90354 11.4098 9.91683 10.8584 9.93012 10.287ZM12.3553 3.90186C12.3553 3.90186 12.8204 4.3138 12.9865 4.46662C13.1526 4.61943 13.5911 4.76561 13.5911 4.76561C14.0163 4.91842 14.3352 4.93836 14.395 4.75232C14.4416 4.60614 14.3485 4.4799 14.1824 4.34702C13.9765 4.17427 12.9134 3.41018 12.9134 3.41018C12.9134 3.41018 13.9897 4.10118 14.3353 4.27393C14.6808 4.44668 15.2987 4.4799 15.5312 4.47326C15.7638 4.46662 16.1159 4.38024 15.7837 4.11447C15.4515 3.8487 13.1393 2.69925 13.1393 2.69925C13.1393 2.69925 15.292 3.70253 15.498 3.75568C15.6973 3.81548 15.8236 3.86199 16.4083 3.88192C16.9929 3.89521 17.1989 3.91514 17.2255 3.74904C17.2521 3.58958 17.0195 3.52978 16.7405 3.34374C16.4614 3.16434 13.1393 1.50993 13.1393 1.50993L16.9929 3.26401C16.9929 3.26401 17.4315 3.30387 17.9564 3.29059C18.4813 3.2773 18.7337 3.18428 18.5942 3.1577C18.4547 3.13112 17.6839 2.93844 16.4548 2.44677C15.2256 1.95509 14.2289 1.39698 13.4781 0.958457C12.7273 0.526582 11.8702 0.426918 11.3387 0.798995C10.8072 1.17107 10.9799 2.04811 10.8204 2.40026C10.6876 2.68596 10.3819 2.67267 10.1693 2.65938C10.1693 2.71254 10.1693 2.77233 10.1627 2.83213H10.3819H10.4085C10.5281 2.83213 10.7274 2.83213 10.8537 2.64609C10.9932 2.43348 10.9998 2.20757 11.0065 2.02818C11.0131 1.75577 11.0862 1.2508 11.445 0.958457C11.8237 0.652822 12.5612 0.699332 12.9466 0.852149C13.1393 0.925236 13.5247 1.13785 13.8901 1.34382C14.209 1.52322 14.5014 1.66939 14.7206 1.76905C14.5811 1.76905 14.1625 1.56308 13.8303 1.39698C13.4715 1.21094 13.0994 1.0249 12.9067 0.951813C12.342 0.725909 11.7307 0.865437 11.5048 1.04483C11.1726 1.3106 11.1128 1.78234 11.1061 2.04147C11.0995 2.22086 11.0929 2.47334 10.9334 2.70589C10.7939 2.92515 10.5746 2.93844 10.4351 2.93844C10.4218 2.93844 10.4151 2.93844 10.4019 2.93844H10.1627C10.1494 3.41683 10.1361 4.04138 10.1228 4.75232C10.5746 5.33037 10.8337 5.40345 11.0464 5.35694C11.2457 5.31708 11.0464 4.86527 10.9866 4.74567C11.0663 4.8852 11.1593 5.01144 11.2656 5.13104C11.4849 5.37688 11.6908 5.37023 11.8902 5.34366C12.0895 5.31708 12.0297 5.16426 11.9832 4.96493C11.9367 4.76561 11.7241 4.42011 11.7241 4.42011C11.8503 4.5995 11.9898 4.77889 12.136 4.945C12.3353 5.15762 13.0396 5.37023 13.1326 5.16426C13.1924 5.03138 13.1725 4.96493 13.0396 4.7191C12.9134 4.47326 12.3553 3.90186 12.3553 3.90186ZM9.79723 1.86872C9.90354 1.86872 10.0099 1.8355 10.0962 1.7757C10.1826 1.7159 10.2557 1.62953 10.2956 1.53651C10.3354 1.43684 10.3487 1.33053 10.3288 1.22423C10.3088 1.11792 10.2557 1.0249 10.1826 0.945168C10.1095 0.872081 10.0099 0.818928 9.90354 0.798995C9.79724 0.779063 9.69093 0.785707 9.59126 0.832217C9.4916 0.872082 9.40522 0.945169 9.35207 1.03154C9.29227 1.11792 9.25905 1.22423 9.25905 1.33053C9.25905 1.40362 9.27234 1.47006 9.29892 1.53651C9.32549 1.60295 9.36536 1.66275 9.41851 1.70926C9.47167 1.76241 9.52482 1.80228 9.59126 1.82885C9.65106 1.85543 9.72415 1.86872 9.79723 1.86872ZM11.5646 5.90842C11.5646 5.90842 11.5513 5.53634 10.9467 5.49647C10.3288 5.45661 10.3022 5.72238 10.3155 5.82204C10.362 5.82204 10.4019 5.83533 10.4019 5.84862C10.4019 5.86191 10.3686 5.87519 10.3288 5.87519C10.362 5.97486 10.455 6.09445 10.7208 6.22734C10.94 6.33365 11.0464 6.327 11.1726 6.30707C11.1726 6.30707 11.3188 6.39345 11.3188 6.53297C11.3188 6.66586 11.0862 6.92498 9.99656 7.46981C10.063 4.53306 10.1228 1.95509 10.1228 1.95509H10.1892C10.2158 1.95509 10.2424 1.9418 10.2623 1.92187C10.2823 1.90194 10.2956 1.87536 10.2956 1.84879V1.81556C10.2956 1.80228 10.2956 1.78899 10.2889 1.7757C10.2823 1.76241 10.2756 1.74912 10.2623 1.74248C10.2025 1.80892 10.1361 1.86207 10.0564 1.90194C9.97663 1.9418 9.89025 1.95509 9.80388 1.95509C9.7175 1.95509 9.63113 1.93516 9.5514 1.90194C9.47167 1.86872 9.39858 1.80892 9.34543 1.74248C9.33214 1.75577 9.32549 1.76241 9.31885 1.7757C9.31221 1.78899 9.31221 1.80228 9.31221 1.81556V1.84879C9.31221 1.87536 9.32549 1.90194 9.34543 1.92187C9.36536 1.9418 9.39194 1.95509 9.41851 1.95509H9.48496C9.48496 1.95509 9.53146 4.45997 9.57797 7.34357C9.67099 7.39008 9.76401 7.43659 9.87032 7.48974C9.88361 7.49639 9.90354 7.50303 9.91683 7.50968C10.1627 7.62927 10.3686 7.72894 10.5414 7.82196C11.1261 7.59605 11.6975 7.33693 11.8702 6.97149C12.1759 6.29378 11.5646 5.90842 11.5646 5.90842ZM10.754 5.7556C10.6876 5.7556 10.6344 5.72238 10.6344 5.68251C10.6344 5.64265 10.6876 5.60943 10.754 5.60943C10.8204 5.60943 10.8736 5.64265 10.8736 5.68251C10.8736 5.72238 10.8204 5.7556 10.754 5.7556ZM9.69757 14.1672C9.75072 14.1008 9.79723 14.0343 9.85039 13.9745C9.85703 13.5958 9.87032 13.1706 9.87697 12.7121C9.81052 12.6457 9.73744 12.5792 9.65771 12.5061C9.63113 12.4862 9.6112 12.4596 9.58462 12.4397C9.5514 12.4065 9.51818 12.3799 9.48496 12.3533C9.29892 12.5261 8.93348 12.9114 8.93348 13.2437C8.93348 13.6357 9.31221 14.0343 9.59791 14.32C9.62449 14.2602 9.65771 14.2137 9.69757 14.1672ZM9.65771 12.5859C9.67099 13.1506 9.67764 13.6689 9.68428 14.1141C9.46502 13.8217 9.23247 13.5227 9.23247 13.3167C9.23247 13.1241 9.34543 12.9048 9.65771 12.5859ZM9.81052 7.57612C8.5149 6.95156 8.24913 6.66586 8.24913 6.52633C8.24913 6.3868 8.3953 6.30043 8.3953 6.30043C8.52154 6.327 8.62785 6.327 8.84711 6.22069C9.11288 6.09445 9.2059 5.96821 9.23912 5.86855C9.19925 5.86855 9.16603 5.85526 9.16603 5.84197C9.16603 5.82868 9.2059 5.8154 9.25241 5.8154V5.80875C9.25905 5.70909 9.22583 5.44996 8.61456 5.48983C8.00993 5.52969 7.99665 5.90177 7.99665 5.90177C7.99665 5.90177 7.38538 6.29378 7.7043 6.95821C7.98336 7.54954 9.29227 7.86182 10.0497 8.20068C10.8005 8.53953 10.754 8.83188 10.754 8.83188C10.754 9.08436 10.249 9.35013 9.85039 9.62919C9.45173 9.90825 8.60792 10.3933 8.60792 10.9647C8.60792 11.4896 9.13281 11.8949 9.64442 12.3467C10.1627 12.7985 10.3288 13.0709 10.3288 13.3234C10.3288 13.6689 9.75737 14.134 9.46502 14.712C9.17268 15.2901 9.75073 16.1871 9.57133 15.7153C9.38529 15.2436 9.48495 14.9114 9.72415 14.5791C10.0165 14.1738 10.6411 13.7752 10.6411 13.237C10.6411 12.7852 9.98327 12.2537 9.98327 12.2537C9.39858 11.669 9.0265 11.3368 9.0265 11.0444C9.0265 10.7521 9.30556 10.4929 10.0896 9.98133C10.867 9.47637 11.3254 9.27704 11.3254 8.78537C11.3254 8.3535 11.1061 8.20068 9.81052 7.57612ZM8.81389 5.61607C8.88033 5.61607 8.93348 5.64929 8.93348 5.68916C8.93348 5.72902 8.88033 5.76224 8.81389 5.76224C8.74744 5.76224 8.69429 5.72902 8.69429 5.68916C8.69429 5.64929 8.74744 5.61607 8.81389 5.61607ZM24.8132 10.7122L23.9162 12.6523H24.295L24.4943 12.2072H25.4909L25.6903 12.6523H26.0756L25.1786 10.7122H24.8132ZM24.6205 11.9215L24.9926 11.0776L25.3647 11.9215H24.6205Z" fill="#F5F5F5"/>
    </g>
    <defs>
      <clipPath id="clip0_349_4938">
        <rect width="28.836" height="15.7468" fill="white" transform="translate(0.894531 0.5)"/>
      </clipPath>
    </defs>
  </svg>