<svg xmlns="http://www.w3.org/2000/svg" width="164" height="48" fill="none" viewBox="0 0 164 48"><g clip-path="url(#a)"><path fill="#fff" d="M151.695 26.043q.09.09.132.211a.7.7 0 0 1 .052.25v.635a.72.72 0 0 1-.175.47.59.59 0 0 1-.414.189h-.373a.54.54 0 0 1-.414-.188.72.72 0 0 1-.175-.471v-.635a.7.7 0 0 1 .175-.47.575.575 0 0 1 .414-.188h.358a.5.5 0 0 1 .217.046.7.7 0 0 1 .203.15M64.63 28.88h-3.097a3.45 3.45 0 0 0-2.55 1.078 3.56 3.56 0 0 0-1.084 2.527V40h1.245v-6.922c.009-.786.321-1.538.871-2.1a2.96 2.96 0 0 1 2.065-.86h1.847a2.87 2.87 0 0 1 2.05.86 2.94 2.94 0 0 1 .872 2.1V40h1.3v-7.53a3.4 3.4 0 0 0-1.084-2.526 3.04 3.04 0 0 0-2.436-1.064M52.358 28.664h-2.442a4.13 4.13 0 0 0-2.77 1.129 4.04 4.04 0 0 0-1.141 2.743v3.765a4.03 4.03 0 0 0 1.121 2.758 3.77 3.77 0 0 0 2.772 1.13h2.44a4.1 4.1 0 0 0 2.8-1.13 3.8 3.8 0 0 0 1.14-2.744v-3.764a4.03 4.03 0 0 0-1.14-2.758 4.13 4.13 0 0 0-2.78-1.13m2.554 3.764v4.09a2.6 2.6 0 0 1-.707 1.722 2.5 2.5 0 0 1-1.682.697h-2.715a2.4 2.4 0 0 1-1.687-.697 2.49 2.49 0 0 1-.702-1.722v-4.09c.01-.64.261-1.252.702-1.717a2.5 2.5 0 0 1 1.687-.701h2.715c.628.003 1.23.255 1.672.7.446.464.701 1.076.717 1.718M41 28.88h-3.087a3.04 3.04 0 0 0-1.357.268 2.9 2.9 0 0 0-1.032.593v-4.899h-1.249V40h1.306V33.02c.01-.785.32-1.536.867-2.099a3 3 0 0 1 2.064-.86h1.847a2.9 2.9 0 0 1 2.055.86 2.96 2.96 0 0 1 .867 2.1v6.94h1.306v-7.53a3.39 3.39 0 0 0-1.089-2.526A3.2 3.2 0 0 0 41 28.88M108.071 28.706h-2.441a4.1 4.1 0 0 0-2.771 1.13 4.03 4.03 0 0 0-1.14 2.743v3.764a4.04 4.04 0 0 0 1.14 2.744 3.77 3.77 0 0 0 2.771 1.13h2.441a4.14 4.14 0 0 0 2.771-1.13 4.03 4.03 0 0 0 1.141-2.744V32.58a4.02 4.02 0 0 0-1.141-2.744 3.76 3.76 0 0 0-2.771-1.13m2.555 3.765v4.089a2.58 2.58 0 0 1-.707 1.718 2.27 2.27 0 0 1-1.683.7h-2.719a2.4 2.4 0 0 1-1.682-.7 2.46 2.46 0 0 1-.702-1.718v-4.09a2.58 2.58 0 0 1 .702-1.722 2.52 2.52 0 0 1 1.682-.7h2.719a2.4 2.4 0 0 1 1.683.7 2.6 2.6 0 0 1 .707 1.723M128.433 28.932h-3.04a3.55 3.55 0 0 0-1.682.433c-.464.251-.867.6-1.183 1.021a3.1 3.1 0 0 0-1.197-1.021 3.5 3.5 0 0 0-1.626-.433h-2.931a3.66 3.66 0 0 0-2.498 1.078 3.37 3.37 0 0 0-.98 2.527v7.529h1.221v-6.885a2.8 2.8 0 0 1 .216-1.13c.137-.348.34-.668.599-.94a3.6 3.6 0 0 1 .942-.65 2.5 2.5 0 0 1 1.084-.211h1.739c.654-.001 1.288.227 1.791.644.492.396.837.944.98 1.558v7.67h1.358V32.32a2.89 2.89 0 0 1 2.766-2.094h1.795a2.96 2.96 0 0 1 2.06.861 2.9 2.9 0 0 1 .872 2.043v6.94h1.357v-7.529a3.56 3.56 0 0 0-1.032-2.527 4.1 4.1 0 0 0-2.611-1.082M142.444 29.741a3.8 3.8 0 0 0-2.719-1.077h-2.442a3.77 3.77 0 0 0-2.554.983v-4.856h-1.362v11.445a4.06 4.06 0 0 0 1.141 2.743 3.8 3.8 0 0 0 2.771 1.13h2.441a3.88 3.88 0 0 0 2.771-1.13 3.82 3.82 0 0 0 1.145-2.743V32.47a4.3 4.3 0 0 0-.273-1.454 5.6 5.6 0 0 0-.919-1.276m-7.767 2.636a2.6 2.6 0 0 1 .707-1.723 2.5 2.5 0 0 1 1.683-.7h2.714a2.4 2.4 0 0 1 1.683.7c.449.462.703 1.079.706 1.723v4.09a2.57 2.57 0 0 1-.706 1.717c-.451.439-1.053.69-1.683.7h-2.714a2.38 2.38 0 0 1-1.683-.7 2.47 2.47 0 0 1-.707-1.718zM99.437 38.08a2.3 2.3 0 0 1-.707.536 1.8 1.8 0 0 1-.942.217h-2.55a2.46 2.46 0 0 1-1.63-.753 2.32 2.32 0 0 1-.65-1.67v-4.09a2.4 2.4 0 0 1 .65-1.666 2.6 2.6 0 0 1 1.63-.753h2.55c.547 0 1.073.212 1.465.593l.057.052h1.541l-.057-.16a3.9 3.9 0 0 0-1.3-1.346 3.64 3.64 0 0 0-1.796-.47h-2.28a3.93 3.93 0 0 0-2.607 1.185 3.81 3.81 0 0 0-1.032 2.687v3.765a3.6 3.6 0 0 0 1.032 2.687 3.8 3.8 0 0 0 2.606 1.186h2.281a3.66 3.66 0 0 0 1.847-.55 3.26 3.26 0 0 0 1.306-1.412l.052-.16h-1.466zM85.807 37.647l-.108-.052c-.34-.1-.658-.26-.943-.47a5.75 5.75 0 0 1-1.414-2.424l-1.682-5.59c0-.057-.052-.109-.052-.165s-.056-.108-.056-.16v-.08h-1.25v.103q.08.439.217.861l1.523 5.177c.542 1.882 1.739 3.388 3.148 3.925l-2.53 4.993h1.3l7.766-15.06H90.37zM151.747 29.308h-1.249v10.824h1.249zM163.675 30.979a3.4 3.4 0 0 0-.872-1.238 4.7 4.7 0 0 0-1.244-.861 3.5 3.5 0 0 0-1.47-.268h-2.441a4.12 4.12 0 0 0-2.771 1.13 3.8 3.8 0 0 0-1.141 2.729v3.764a4.04 4.04 0 0 0 1.141 2.744 3.77 3.77 0 0 0 2.771 1.13h2.441a4.1 4.1 0 0 0 2.771-1.13 4.04 4.04 0 0 0 1.141-2.744v-3.764c0-.515-.111-1.024-.326-1.492m-1.032 1.412v4.089a2.57 2.57 0 0 1-.707 1.718c-.451.439-1.052.69-1.682.7h-2.715a2.39 2.39 0 0 1-1.682-.7 2.47 2.47 0 0 1-.707-1.718v-4.104a2.6 2.6 0 0 1 .707-1.722 2.5 2.5 0 0 1 1.682-.696h2.715a2.4 2.4 0 0 1 1.682.696 2.58 2.58 0 0 1 .707 1.722zM76.415 28.706h-3.37a2.96 2.96 0 0 0-2.064.753 3 3 0 0 0-1.032 1.934v4.842c-.002.555.11 1.105.33 1.614.207.487.507.93.881 1.304a3.36 3.36 0 0 0 1.306.81q.532.154 1.084.21h2.224a3.43 3.43 0 0 0 1.984-.644q.29-.214.542-.47a3.4 3.4 0 0 0 .65-1.13l.057-.108-1.183-.174-.052.056a2.4 2.4 0 0 1-.546.753c-.375.33-.853.52-1.353.537h-2.498a1.9 1.9 0 0 1-.593-.108 2.2 2.2 0 0 1-1.15-.862 1.6 1.6 0 0 1-.326-.696c-.056-.108-.056-.273-.108-.377v-1.99h5.212a2.98 2.98 0 0 0 2.116-.81c.59-.544.94-1.298.976-2.098v-.377a3.02 3.02 0 0 0-.943-2.099 2.92 2.92 0 0 0-2.144-.87m1.192 4.734c-.284.198-.629.293-.975.268h-5.43v-2.301a1.75 1.75 0 0 1 .976-1.332c.239-.107.498-.162.76-.16h3.694c.243-.002.484.053.702.16q.333.17.599.433a2.406 2.406 0 0 1 .273 2.099 1.66 1.66 0 0 1-.599.847zM148.298 38.612a1.52 1.52 0 0 1-.946 1.405 1.53 1.53 0 0 1-2.079-1.114 1.525 1.525 0 0 1 2.083-1.704 1.51 1.51 0 0 1 .827.828c.077.185.116.384.115.585"/><path fill="#ffb000" d="m26.065 32.701 4.374 7.647L26.065 48h-8.694l-4.369-7.652 4.369-7.647z"/><path fill="#64ba00" d="m26.065 14.24 4.374 7.647-4.374 7.652h-8.694l-4.369-7.652 4.369-7.647z"/><path fill="#f96e10" d="m10.674 24.79 3.563 6.326-3.563 6.334H3.563L0 31.115l3.563-6.324z"/><path fill="#0298ec" d="m44.992 0 5.655 10.014-5.655 10.028H33.625L27.97 10.014 33.625 0z"/></g><defs><clipPath id="a"><path fill="#fff" d="M0 0h164v48H0z"/></clipPath></defs></svg>