<svg xmlns="http://www.w3.org/2000/svg" xmlns:xlink="http://www.w3.org/1999/xlink" width="446" height="231"><path fill="#27415E" d="M13.009 0h420.098C440.228 0 446 5.772 446 12.893v205.214c0 7.121-5.772 12.893-12.893 12.893H13.009c-7.12 0-12.893-5.772-12.893-12.893V12.893C.116 5.772 5.889 0 13.009 0"/><path fill="#FFF" d="M64.431 149.881v-36.665c.243-8.863 5.221-13.962 10.927-13.962 8.985 0 10.806 7.406 10.927 13.962v36.665h18.212v-39.7c0-2.064-.243-5.949-1.215-9.713-2.185-8.863-13.962-13.355-20.032-13.355-9.227 0-14.933 3.642-18.697 9.227l-.243-.243V62.224H46.22v87.657z"/><path id="a" fill="#FFF" d="M112.51 88.934v12.141h12.262v29.988c0 13.234 3.035 20.64 17.24 20.64 2.55 0 12.262-.85 14.326-1.822v-10.684c-1.942.122-3.885.365-5.827.365-6.314 0-7.528-2.186-7.528-10.199v-28.288h13.72V88.934h-13.72V70.358l-18.211 6.556v12.02z"/><use xlink:href="#a" transform="translate(47.228)"/><path fill="#FFF" d="M230.762 88.934h-18.454c.243 4.006.607 8.134.607 12.141v72.117h18.211v-31.931h.243c3.885 7.163 10.684 10.442 18.576 10.442 17.847 0 26.224-16.634 26.224-32.295 0-16.391-9.591-32.295-28.531-32.295-6.313 0-12.869 3.763-16.269 8.863h-.243zm.364 30.474c0-8.378 3.279-20.154 13.113-20.154 11.655 0 13.112 10.805 13.112 20.154s-1.457 20.154-13.112 20.154c-9.834 0-13.113-11.777-13.113-20.154M305.672 149.881v-16.147h-15.419v16.147zm0-44.921V88.813h-15.419v16.147z"/><path id="b" fill="#FFF" d="M363.584 62.224h-14.083l-29.624 99.313h14.205z"/><use xlink:href="#b" transform="translate(43.472)"/></svg>