<?xml version="1.0" encoding="utf-8"?>
<!-- Uploaded to: SVG Repo, www.svgrepo.com, Generator: SVG Repo Mixer Tools -->
<svg width="800px" height="800px" viewBox="0 0 192.756 192.756" xmlns="http://www.w3.org/2000/svg">
<g fill-rule="evenodd" clip-rule="evenodd">
<path fill="#ffffff" d="M0 0h192.756v192.756H0V0z"/>
<path d="M80.372 101.729s-4.604 2.679 3.28 3.584c9.554 1.091 14.434.934 24.959-1.057 0 0 2.771 1.735 6.639 3.236-23.601 10.113-53.413-.585-34.878-5.763zM77.487 88.532s-5.165 3.823 2.726 4.639c10.206 1.054 18.262 1.14 32.211-1.544 0 0 1.926 1.955 4.957 3.023-28.531 8.345-60.307.657-39.894-6.118z" fill="#3174b9"/>
<path d="M101.797 66.143c5.818 6.697-1.525 12.72-1.525 12.72s14.766-7.621 7.984-17.168c-6.332-8.899-11.189-13.32 15.102-28.566-.001-.001-41.27 10.303-21.561 33.014z" fill="#ca3132"/>
<path d="M133.01 111.491s3.408 2.81-3.754 4.983c-13.619 4.125-56.694 5.369-68.659.164-4.298-1.872 3.766-4.467 6.303-5.015 2.646-.572 4.156-.468 4.156-.468-4.783-3.368-30.916 6.615-13.272 9.479 48.112 7.801 87.704-3.512 75.226-9.143zM82.587 74.857s-21.908 5.205-7.757 7.097c5.977.799 17.883.615 28.982-.316 9.068-.761 18.17-2.389 18.17-2.389s-3.195 1.371-5.51 2.949c-22.251 5.853-65.229 3.127-52.855-2.856 10.462-5.061 18.97-4.485 18.97-4.485zM121.891 96.824c22.617-11.75 12.16-23.044 4.859-21.522-1.785.373-2.586.695-2.586.695s.666-1.042 1.932-1.49c14.441-5.075 25.545 14.972-4.656 22.911-.001 0 .347-.314.451-.594z" fill="#3174b9"/>
<path d="M108.256 8.504s12.523 12.531-11.881 31.794c-19.571 15.458-4.462 24.269-.006 34.34-11.426-10.307-19.807-19.382-14.185-27.826 8.254-12.395 31.125-18.406 26.072-38.308z" fill="#ca3132"/>
<path d="M84.812 128.674c21.706 1.388 55.045-.771 55.836-11.044 0 0-1.518 3.894-17.941 6.983-18.529 3.488-41.386 3.082-54.938.845 0 0 2.777 2.298 17.043 3.216z" fill="#3174b9"/>
<path d="M139.645 147.096h-.66v-.37h1.781v.37h-.66v1.848h-.461v-1.848zm3.554.092h-.008l-.656 1.755h-.301l-.652-1.755h-.008v1.755h-.438v-2.218h.643l.604 1.569.604-1.569h.637v2.218h-.424v-1.755h-.001zM81.255 167.921c-2.047 1.774-4.211 2.772-6.154 2.772-2.768 0-4.27-1.663-4.27-4.324 0-2.881 1.608-4.989 8.044-4.989h2.379v6.541h.001zm5.65 6.374v-19.732c0-5.043-2.876-8.371-9.809-8.371-4.045 0-7.591.999-10.474 2.272l.83 3.495c2.271-.834 5.207-1.607 8.089-1.607 3.994 0 5.713 1.607 5.713 4.934v2.495h-1.996c-9.702 0-14.08 3.764-14.08 9.423 0 4.876 2.885 7.648 8.316 7.648 3.491 0 6.099-1.441 8.534-3.55l.443 2.993h4.434zM105.762 174.295h-7.045l-8.483-27.601h6.154l5.265 16.961 1.172 5.096c2.656-7.371 4.541-14.854 5.484-22.057h5.984c-1.602 9.088-4.488 19.066-8.531 27.601zM132.799 167.921c-2.053 1.774-4.217 2.772-6.156 2.772-2.768 0-4.268-1.663-4.268-4.324 0-2.881 1.609-4.989 8.041-4.989h2.383v6.541zm5.652 6.374v-19.732c0-5.043-2.885-8.371-9.811-8.371-4.049 0-7.594.999-10.477 2.272l.83 3.495c2.271-.834 5.213-1.607 8.096-1.607 3.988 0 5.709 1.607 5.709 4.934v2.495h-1.996c-9.703 0-14.078 3.764-14.078 9.423 0 4.876 2.879 7.648 8.311 7.648 3.494 0 6.098-1.441 8.539-3.55l.445 2.993h4.432zM58.983 178.985c-1.61 2.353-4.214 4.216-7.061 5.267l-2.79-3.286c2.169-1.113 4.027-2.91 4.892-4.582.745-1.49 1.056-3.406 1.056-7.992v-31.515h6.005v31.08c0 6.134-.49 8.613-2.102 11.028z" fill="#ca3132"/>
</g>
</svg>