<?xml version="1.0" encoding="UTF-8"?>
<svg height="598" viewBox="-5.64904,-5.64904,342.033,199.599" width="1024" xmlns="http://www.w3.org/2000/svg">
 <path d="m215.233 169.638 4.51938 9.06669h-3.82425l-4.39355-8.78042h-4.99513v8.78042h-3.2549v-22.1919h9.70328c3.85802 0 7.11292 2.06082 7.11292 6.62726 0 3.5491-1.86454 5.73766-4.86775 6.49797zm-2.24517-9.98706h-6.44838v7.13361h6.44838c2.2129 0 3.76134-1.14045 3.76134-3.55065 0-2.31476-1.51617-3.58296-3.76134-3.58296z" fill="#c00"/>
 <path d="m238.115 171.542h-10.9693c.34835 3.20129 2.14999 4.5649 4.1741 4.5649 1.39036 0 2.49683-.50635 3.60326-1.3313l1.929 2.0916c-1.45327 1.39441-3.19197 2.18702-5.72253 2.18702-3.88718 0-7.17582-3.13816-7.17582-8.65421 0-5.64379 2.97253-8.68807 7.26943-8.68807 4.7097 0 6.98705 3.83537 6.98705 8.3387 0 .60025-.06293 1.142-.09515 1.49136zm-7.11288-6.8812c-2.18223 0-3.50965 1.52061-3.79508 4.18475h7.71292c-.15654-2.28245-1.23076-4.18475-3.91784-4.18475z" fill="#c00"/>
 <path d="m252.243 178.705v-1.58371c-1.20158 1.10967-2.59195 1.93307-4.33066 1.93307-3.57255 0-6.3855-2.59795-6.3855-8.94047 0-5.7069 3.0984-8.40181 6.54358-8.40181 1.67578 0 3.25641.88805 4.17411 1.9023v-6.34099l3.22421-1.68068v23.1123h-3.22574zm.03224-11.7924c-.7274-.98347-2.24515-2.18857-3.88871-2.18857-2.33874 0-3.60324 1.7761-3.60324 5.29442 0 4.18474 1.32741 6.0224 3.73063 6.0224 1.54842 0 2.90808-1.04657 3.76132-2.12238z" fill="#c00"/>
 <path d="m282.775 178.705v-9.95474h-10.1806v9.95474h-3.31783v-22.1919h3.31783v8.97127h10.1806v-8.97127h3.31779v22.1919z" fill="#c00"/>
 <path d="m300.882 178.705v-1.64681c-1.13714 1.14045-2.75004 1.99617-4.55164 1.99617-2.68708 0-5.75322-1.5206-5.75322-5.61146 0-3.70917 2.84512-5.38984 6.60646-5.38984 1.54994 0 2.78224.22163 3.6984.6341v-1.23742c0-1.80686-1.10647-2.82111-3.12906-2.82111-1.70649 0-3.03545.31705-4.33068 1.04656l-1.2645-2.47175c1.58065-.98348 3.35159-1.49136 5.69033-1.49136 3.69839 0 6.22895 1.80687 6.22895 5.58068v11.4122h-3.19504zm0-7.09975c-.88394-.4448-2.02262-.73106-3.79355-.73106-2.08554 0-3.41449.95115-3.41449 2.47329 0 1.64681 1.04353 2.75802 3.19198 2.75802 1.74024 0 3.25644-1.07735 4.01452-2.12392v-2.37633z" fill="#c00"/>
 <path d="m316.686 178.293c-.79186.44478-1.89678.7603-3.19352.7603-2.30805 0-3.73063-1.42518-3.73063-4.40637v-9.60537h-2.37096v-2.98119h2.37096v-4.75574l3.19353-1.71145v6.46719h4.10966v2.98119h-4.10966v9.03591c0 1.55293.50487 1.99771 1.70649 1.99771.85323 0 1.80161-.31703 2.40162-.66641z" fill="#c00"/>
 <path d="m163.265 78.5313c5.47854-2.75033 9.20763-7.85081 9.20763-14.1302 0-14.6351-13.2191-17.784-25.2672-17.5778h-32.5121-.18569-18.0255v46.7294c0 6.78578-2.35869 9.13595-6.5589 9.13595-4.51327 0-7.05151-2.54563-7.05151-7.16901v-6.47181h-17.1415v3.03044c0 15.6278 5.97268 26.3166 24.48 26.3166 15.0959 0 23.0774-6.70421 24.2974-19.9433v18.475h33.5756c14.9793 0 27.2193-5.10204 27.2193-21.7948 0-7.94932-4.59-14.4304-12.0374-16.6005zm-30.5417-17.5762h14.0892c3.82578 0 7.44592 1.68068 7.44592 6.77963 0 5.00661-4.30612 6.67651-7.44592 6.67651h-14.0892v-13.4561zm14.5818 41.3457h-14.5818v-16.1126h14.5818c5.48775 0 9.79691 2.07005 9.79691 8.24175 0 5.8023-4.01606 7.87082-9.79691 7.87082z" fill="#c00"/>
 <path d="m138.217 166.834c0-11.8432-9.5836-21.4655-21.3985-21.4655-11.8379 0-21.4154 9.6223-21.4154 21.4655 0 11.8647 9.57746 21.467 21.4154 21.467 11.8149 0 21.3985-9.60229 21.3985-21.467z" fill="#c00"/>
 <path d="m81.3524 160.062c0-10.4934-8.49098-19.006-18.9631-19.006-10.4706 0-18.9554 8.51109-18.9554 19.006 0 10.5026 8.4833 19.0184 18.9554 19.0184s18.9631-8.51571 18.9631-19.0184z" fill="#c00"/>
 <path d="m38.514 125.712c0-9.47608-7.64846-17.1622-17.1108-17.1622-9.46543 0-17.1262 7.68615-17.1262 17.1622 0 9.50223 7.66075 17.1884 17.1262 17.1884 9.46084 0 17.1108-7.68615 17.1108-17.1884z" fill="#c00"/>
 <path d="m30.5662 77.9003c0-8.47415-6.83666-15.323-15.277-15.323-8.43879 0-15.2893 6.84735-15.2893 15.323 0 8.46491 6.85047 15.3353 15.2893 15.3353 8.44033 0 15.277-6.87197 15.277-15.3353z" fill="#c00"/>
 <path d="m51.9924 34.9662c0-7.10899-5.76398-12.8759-12.8477-12.8759-7.08834 0-12.8431 5.76691-12.8431 12.8759 0 7.11514 5.75476 12.8774 12.8431 12.8774 7.08373 0 12.8477-5.7623 12.8477-12.8774z" fill="#c00"/>
 <path d="m88.6694 15.951c0-6.43334-5.19464-11.6523-11.6108-11.6523-6.41465 0-11.6185 5.219-11.6185 11.6523 0 6.4441 5.20537 11.6631 11.6185 11.6631 6.41772 0 11.6108-5.219 11.6108-11.6631z" fill="#c00"/>
 <path d="m127.205 9.81468c0-5.42062-4.37209-9.81468-9.78157-9.81468-5.39567 0-9.78617 4.39406-9.78617 9.81468 0 5.42678 4.3905 9.8193 9.78617 9.8193 5.40948 0 9.78157-4.39252 9.78157-9.8193z" fill="#c00"/>
 <path d="m306.505 86.4929c-7.63466-1.66528-19.3069-2.54564-19.3069-7.36755 0-3.53988 4.41813-3.82769 7.15128-3.82769 2.05482 0 3.90405.39709 5.28977 1.27282 1.35662.8865 2.14232 2.26244 2.14232 4.41099h15.3752c-.59083-13.2453-12.2462-16.4896-23.3858-16.4896-9.28129 0-21.3387 2.89654-23.0068 13.1437-2.2789-10.4365-12.8047-13.1437-22.9316-13.1437-9.99029 0-23.7265 3.34288-23.7265 15.6154 0 .21701.03222.4017.03685.61255-3.8749-9.69001-13.0288-16.228-24.8038-16.228-12.7357 0-22.2579 7.4599-25.4775 18.4627 2.46151 3.32132 3.75671 7.65382 3.75671 12.1772 0 3.71379-.58928 7.00125-1.70493 9.87933 4.37822 8.11553 12.8032 13.3838 23.4257 13.3838 11.2855 0 20.1386-5.9593 24.2698-14.9583 2.16992 11.5569 13.4462 14.9583 24.4877 14.9583 9.49459 0 19.9806-3.1197 23.2938-11.9617 3.42985 9.15595 13.6426 11.9617 23.6652 11.9617 11.4512 0 24.3787-4.51102 24.3787-18.1626-.00155-4.22014-2.65641-11.6708-12.929-13.7393zm-107.166 19.1415c-7.74208 0-10.0946-7.6492-10.0946-14.1395 0-6.47182 2.35255-14.2442 10.0946-14.2442 7.73287 0 10.179 7.77387 10.179 14.2442-.00155 6.49181-2.44617 14.1395-10.179 14.1395zm48.6592 1.95308c-2.34488 0-4.60381-.57254-6.17218-1.75762-1.6543-1.2759-2.74385-3.14125-2.74385-5.68688h-14.2074c.83022-2.69647 1.28908-5.593 1.28908-8.64805 0-1.4252-.12738-2.80728-.31307-4.16475 3.89329 6.73346 13.6656 7.3891 21.8574 9.46993 2.92497.67873 8.11959 1.4775 8.11959 5.39445 0 4.03238-4.61147 5.39292-7.82954 5.39292zm46.9574 0c-2.34335 0-4.60074-.57254-6.17062-1.75762-1.65433-1.2759-2.74389-3.14125-2.74389-5.68688h-13.569c-.03527-4.23399-2.72083-11.5954-12.926-13.65-7.63313-1.66528-18.7943-2.54564-18.7943-7.36755 0-3.53988 4.92761-3.82769 7.66074-3.82769 2.05637 0 3.90405.39709 5.28978 1.27282 1.35812.8865 2.14232 2.26244 2.14232 4.41099h14.7629c.59235 12.8574 13.8099 13.216 24.058 15.8202 2.92648.67873 8.11956 1.4775 8.11956 5.39445.00155 4.03084-4.61148 5.39138-7.82954 5.39138z" fill="#61615c"/>
 <path d="m320.927 55.6529h1.48089l2.22826 3.67224h1.44405l-2.41086-3.73995c1.23841-.15699 2.17914-.81572 2.17914-2.32247 0-1.69145-.97908-2.42096-2.97407-2.42096h-3.22572v8.48338h1.27831zm0-1.0989v-2.63335h1.75405c.87014 0 1.84153.20316 1.84153 1.25434 0 1.3036-.97139 1.37901-2.05484 1.37901z" fill="#61615c"/>
 <path d="m330.735 55.0989c0 4.58643-3.71373 8.29868-8.28533 8.29868-4.58233 0-8.29608-3.71225-8.29608-8.29868 0-4.59722 3.71375-8.3187 8.29608-8.3187 4.5716.00153 8.28533 3.72148 8.28533 8.3187zm-8.28687-6.83965c-3.78125 0-6.83206 3.05045-6.83206 6.83965 0 3.77227 3.05081 6.82117 6.83206 6.82117 3.75976 0 6.81057-3.0489 6.81057-6.82117.00155-3.7892-3.05081-6.83965-6.81057-6.83965z" fill="#61615c"/>
 <path d="m166.086 179.053c-1.67578 0-3.25642-.8865-4.17258-1.90075v1.55292h-3.22574v-21.4316l3.22574-1.68068v8.05244c1.20006-1.11121 2.59041-1.93461 4.33065-1.93461 3.57102 0 6.38396 2.59949 6.38396 8.94049 0 5.70842-3.09684 8.4018-6.54203 8.4018zm-.4435-14.3288c-1.54995 0-2.90961 1.04657-3.76131 2.12546v7.00588c.7274.98346 2.24359 2.18702 3.88715 2.18702 2.33874 0 3.60479-1.77301 3.60479-5.29287 0-4.18629-1.32744-6.02549-3.73063-6.02549z" fill="#61615c"/>
 <path d="m182.487 184.57h-3.44518l2.40166-6.18246-6.10159-16.328h3.57256l2.71778 8.1494c.50489 1.45751 1.26451 3.9308 1.45327 4.84809.28544-.98193.98062-3.3598 1.4855-4.78498l2.81447-8.21251h3.44518l-8.34365 22.5105z" fill="#61615c"/>
</svg>
