<svg xmlns="http://www.w3.org/2000/svg" width="1024" height="598" viewBox="-5.649 -5.649 342.033 199.599"><path fill="#c00" d="m215.233 169.638 4.52 9.067h-3.825l-4.393-8.78h-4.996v8.78h-3.254v-22.192h9.703c3.858 0 7.113 2.06 7.113 6.627 0 3.55-1.865 5.738-4.868 6.498m-2.245-9.987h-6.449v7.134h6.449c2.213 0 3.761-1.14 3.761-3.551 0-2.315-1.516-3.583-3.761-3.583M238.115 171.542h-10.97c.349 3.201 2.15 4.565 4.175 4.565 1.39 0 2.497-.506 3.603-1.331l1.93 2.091c-1.454 1.395-3.193 2.187-5.723 2.187-3.888 0-7.176-3.138-7.176-8.654 0-5.644 2.972-8.688 7.27-8.688 4.709 0 6.986 3.835 6.986 8.339 0 .6-.063 1.142-.095 1.491m-7.113-6.881c-2.182 0-3.51 1.52-3.795 4.185h7.713c-.157-2.283-1.23-4.185-3.918-4.185M252.243 178.705v-1.584c-1.202 1.11-2.592 1.933-4.33 1.933-3.573 0-6.386-2.598-6.386-8.94 0-5.707 3.098-8.402 6.543-8.402 1.676 0 3.257.888 4.175 1.902v-6.34l3.224-1.681v23.112zm.032-11.792c-.727-.984-2.245-2.189-3.888-2.189-2.34 0-3.604 1.776-3.604 5.294 0 4.185 1.328 6.023 3.73 6.023 1.55 0 2.909-1.047 3.762-2.123zM282.775 178.705v-9.955h-10.18v9.955h-3.318v-22.192h3.317v8.971h10.181v-8.97h3.318v22.191zM300.882 178.705v-1.647c-1.137 1.14-2.75 1.996-4.552 1.996-2.687 0-5.753-1.52-5.753-5.611 0-3.71 2.845-5.39 6.607-5.39 1.55 0 2.782.222 3.698.634v-1.237c0-1.807-1.106-2.821-3.13-2.821-1.706 0-3.035.317-4.33 1.046l-1.264-2.472c1.58-.983 3.351-1.49 5.69-1.49 3.698 0 6.229 1.806 6.229 5.58v11.412zm0-7.1c-.884-.445-2.023-.73-3.794-.73-2.085 0-3.414.95-3.414 2.472 0 1.647 1.043 2.758 3.192 2.758 1.74 0 3.256-1.077 4.014-2.123v-2.377zM316.686 178.293c-.792.445-1.897.76-3.194.76-2.308 0-3.73-1.425-3.73-4.406v-9.605h-2.371v-2.982h2.37v-4.755l3.194-1.712v6.467h4.11v2.982h-4.11v9.035c0 1.553.505 1.998 1.707 1.998.853 0 1.801-.317 2.401-.666zM163.265 78.531c5.479-2.75 9.208-7.85 9.208-14.13 0-14.635-13.22-17.784-25.268-17.578H96.482v46.73c0 6.785-2.359 9.136-6.559 9.136-4.513 0-7.051-2.546-7.051-7.17v-6.471H65.73v3.03c0 15.628 5.973 26.317 24.48 26.317 15.096 0 23.078-6.704 24.298-19.943v18.475h33.575c14.98 0 27.22-5.102 27.22-21.795 0-7.95-4.59-14.43-12.038-16.6zm-30.542-17.576h14.09c3.825 0 7.445 1.68 7.445 6.78 0 5.006-4.306 6.676-7.446 6.676h-14.089zm14.582 41.346h-14.582V86.188h14.582c5.488 0 9.797 2.07 9.797 8.242 0 5.802-4.016 7.87-9.797 7.87M138.217 166.834c0-11.843-9.584-21.465-21.398-21.465-11.838 0-21.416 9.622-21.416 21.465 0 11.865 9.578 21.467 21.416 21.467 11.814 0 21.398-9.602 21.398-21.467M81.352 160.062c0-10.493-8.49-19.006-18.963-19.006-10.47 0-18.955 8.511-18.955 19.006 0 10.503 8.483 19.018 18.955 19.018s18.963-8.515 18.963-19.018M38.514 125.712c0-9.476-7.648-17.162-17.11-17.162-9.466 0-17.127 7.686-17.127 17.162 0 9.502 7.66 17.188 17.126 17.188 9.461 0 17.111-7.686 17.111-17.188M30.566 77.9c0-8.474-6.836-15.323-15.277-15.323C6.85 62.577 0 69.425 0 77.9c0 8.465 6.851 15.336 15.29 15.336S30.566 86.364 30.566 77.9M51.992 34.966c0-7.109-5.764-12.876-12.847-12.876-7.089 0-12.843 5.767-12.843 12.876 0 7.115 5.754 12.878 12.843 12.878 7.083 0 12.847-5.763 12.847-12.878M88.67 15.951c0-6.433-5.195-11.652-11.611-11.652-6.415 0-11.619 5.219-11.619 11.652 0 6.444 5.205 11.663 11.619 11.663 6.417 0 11.61-5.219 11.61-11.663M127.205 9.815c0-5.42-4.372-9.815-9.782-9.815-5.395 0-9.786 4.394-9.786 9.815 0 5.426 4.39 9.819 9.786 9.819 5.41 0 9.782-4.393 9.782-9.82"/><path fill="#61615c" d="M306.505 86.493c-7.635-1.665-19.307-2.546-19.307-7.368 0-3.54 4.418-3.827 7.151-3.827 2.055 0 3.904.397 5.29 1.272 1.357.887 2.142 2.263 2.142 4.411h15.376c-.591-13.245-12.247-16.49-23.386-16.49-9.281 0-21.339 2.897-23.007 13.145-2.279-10.437-12.805-13.144-22.932-13.144-9.99 0-23.726 3.343-23.726 15.615 0 .217.032.402.037.613-3.875-9.69-13.029-16.228-24.804-16.228-12.736 0-22.258 7.46-25.477 18.463 2.461 3.32 3.756 7.653 3.756 12.177 0 3.714-.59 7.001-1.705 9.879 4.379 8.116 12.803 13.384 23.426 13.384 11.285 0 20.139-5.96 24.27-14.958 2.17 11.556 13.446 14.958 24.487 14.958 9.495 0 19.981-3.12 23.294-11.962 3.43 9.156 13.643 11.962 23.665 11.962 11.452 0 24.38-4.511 24.38-18.163-.002-4.22-2.657-11.67-12.93-13.74zm-107.166 19.141c-7.742 0-10.095-7.649-10.095-14.14 0-6.47 2.353-14.243 10.095-14.243 7.733 0 10.179 7.774 10.179 14.244-.002 6.492-2.446 14.14-10.179 14.14m48.66 1.953c-2.346 0-4.605-.572-6.173-1.757-1.654-1.276-2.744-3.141-2.744-5.687h-14.207a29.3 29.3 0 0 0 1.289-8.648c0-1.425-.128-2.807-.313-4.165 3.893 6.734 13.665 7.39 21.857 9.47 2.925.679 8.12 1.478 8.12 5.395 0 4.032-4.612 5.392-7.83 5.392m46.957 0c-2.344 0-4.601-.572-6.171-1.757-1.654-1.276-2.744-3.141-2.744-5.687h-13.569c-.035-4.234-2.72-11.595-12.926-13.65-7.633-1.665-18.794-2.546-18.794-7.368 0-3.54 4.927-3.827 7.66-3.827 2.057 0 3.905.397 5.29 1.273 1.358.886 2.143 2.262 2.143 4.41h14.763c.592 12.858 13.81 13.217 24.058 15.82 2.926.68 8.12 1.478 8.12 5.395 0 4.031-4.612 5.392-7.83 5.392M320.927 55.653h1.48l2.23 3.672h1.443l-2.41-3.74c1.238-.157 2.178-.816 2.178-2.322 0-1.692-.979-2.421-2.974-2.421h-3.225v8.483h1.278zm0-1.099v-2.633h1.754c.87 0 1.842.203 1.842 1.254 0 1.304-.972 1.379-2.055 1.379z"/><path fill="#61615c" d="M330.735 55.099c0 4.586-3.714 8.299-8.285 8.299a8.295 8.295 0 0 1-8.296-8.3c0-4.596 3.713-8.318 8.296-8.318 4.571.002 8.285 3.722 8.285 8.319m-8.287-6.84a6.823 6.823 0 0 0-6.832 6.84 6.82 6.82 0 0 0 6.832 6.821c3.76 0 6.81-3.049 6.81-6.821.002-3.79-3.05-6.84-6.81-6.84M166.086 179.053c-1.676 0-3.256-.886-4.173-1.9v1.552h-3.225v-21.431l3.225-1.681v8.052c1.2-1.11 2.59-1.934 4.331-1.934 3.571 0 6.384 2.6 6.384 8.94 0 5.709-3.097 8.402-6.542 8.402m-.443-14.329c-1.55 0-2.91 1.047-3.762 2.126v7.006c.728.983 2.244 2.187 3.887 2.187 2.34 0 3.605-1.773 3.605-5.293 0-4.187-1.327-6.026-3.73-6.026M182.487 184.57h-3.445l2.401-6.182-6.101-16.328h3.572l2.718 8.149c.505 1.457 1.265 3.93 1.454 4.848.285-.982.98-3.36 1.485-4.785l2.814-8.212h3.446z"/></svg>