<?xml version="1.0" encoding="utf-8"?><svg version="1.1" id="Layer_1" xmlns="http://www.w3.org/2000/svg" xmlns:xlink="http://www.w3.org/1999/xlink" x="0px" y="0px" viewBox="0 0 122.88 118.78" style="enable-background:new 0 0 122.88 118.78" xml:space="preserve"><style type="text/css">.st0{fill:#326DE6;} .st1{fill:#FFFFFF;}</style><g><path class="st0" d="M112.13,26.42c-0.7-2.25-2.39-4.08-4.5-5.2L64.78,0.7C63.65,0.14,62.39,0,61.26,0s-2.39,0-3.51,0.28 L14.89,20.94c-2.11,0.98-3.65,2.81-4.22,5.2L0.14,72.37c-0.42,2.39,0.14,4.78,1.55,6.75l29.65,36.67c1.69,1.69,4.08,2.81,6.46,2.95 h47.21c2.53,0.28,4.92-0.84,6.46-2.95l29.65-36.67c1.41-1.97,1.97-4.36,1.69-6.75L112.13,26.42L112.13,26.42L112.13,26.42z"/><path class="st1" d="M105.59,69.45L105.59,69.45c-0.14,0-0.28,0-0.28-0.14c0-0.14-0.28-0.14-0.56-0.14 c-0.56-0.14-1.12-0.14-1.69-0.14c-0.28,0-0.56,0-0.84-0.14l-0.14,0c-1.55-0.14-3.23-0.42-4.78-0.84c-0.42-0.14-0.84-0.56-0.98-0.98 c0.14,0,0,0,0,0l0,0l-1.12-0.28c0.56-4.08,0.28-8.29-0.56-12.37c-0.98-4.08-2.67-8.01-4.92-11.52l0.84-0.84l0,0v-0.14 c0-0.42,0.14-0.98,0.42-1.26c1.26-1.12,2.53-1.97,3.93-2.81l0,0c0.28-0.14,0.56-0.28,0.84-0.42c0.56-0.28,0.98-0.56,1.55-0.84 c0.14-0.14,0.28-0.14,0.42-0.28s0-0.14,0-0.28l0,0c1.26-0.98,1.55-2.67,0.56-3.93c-0.42-0.56-1.26-0.98-1.97-0.98 c-0.7,0-1.41,0.28-1.97,0.7l0,0l-0.14,0.14c-0.14,0.14-0.28,0.28-0.42,0.28c-0.42,0.42-0.84,0.84-1.12,1.26 c-0.14,0.28-0.42,0.42-0.56,0.56l0,0c-0.98,1.12-2.25,2.25-3.51,3.09c-0.28,0.14-0.56,0.28-0.84,0.28c-0.14,0-0.42,0-0.56-0.14 l-0.14,0l-1.12,0.7c-1.12-1.12-2.39-2.25-3.51-3.37c-5.2-4.08-11.66-6.6-18.27-7.31l-0.14-1.12l0,0v0.14 c-0.42-0.28-0.56-0.7-0.7-1.12c0-1.55,0-3.09,0.28-4.78v-0.14c0-0.28,0.14-0.56,0.14-0.84c0.14-0.56,0.14-1.12,0.28-1.69V16.9l0,0 c0.14-1.41-0.98-2.81-2.39-2.95c-0.84-0.14-1.69,0.28-2.39,0.98c-0.56,0.56-0.84,1.26-0.84,1.97l0,0v0.7 c0,0.56,0.14,1.12,0.28,1.69c0.14,0.28,0.14,0.56,0.14,0.84v0.14c0.28,1.55,0.28,3.09,0.28,4.78c-0.14,0.42-0.28,0.84-0.7,1.12 v0.28l0,0l-0.14,1.12c-1.55,0.14-3.09,0.42-4.78,0.7c-6.6,1.41-12.65,4.92-17.28,9.84l-0.84-0.56l-0.14,0 c-0.14,0-0.28,0.14-0.56,0.14c-0.28,0-0.56-0.14-0.84-0.28c-1.26-0.98-2.53-2.11-3.51-3.23l0,0c-0.14-0.28-0.42-0.42-0.56-0.56 c-0.42-0.42-0.7-0.84-1.12-1.26c-0.14-0.14-0.28-0.14-0.42-0.28c-0.14-0.14-0.14-0.14-0.14-0.14l0,0c-0.56-0.42-1.26-0.7-1.97-0.7 c-0.84,0-1.55,0.28-1.97,0.98c-0.84,1.26-0.56,2.95,0.56,3.93l0,0c0.14,0,0.14,0.14,0.14,0.14s0.28,0.28,0.42,0.28 c0.42,0.28,0.98,0.56,1.55,0.84c0.28,0.14,0.56,0.28,0.84,0.42l0,0c1.41,0.84,2.81,1.69,3.93,2.81c0.28,0.28,0.56,0.84,0.42,1.26 v-0.14l0,0l0.84,0.84c-0.14,0.28-0.28,0.42-0.42,0.7c-4.36,6.89-6.18,15.04-4.92,23.05l-1.12,0.28l0,0c0,0.14-0.14,0.14-0.14,0.14 c-0.14,0.42-0.56,0.7-0.98,0.98c-1.55,0.42-3.09,0.7-4.78,0.84l0,0c-0.28,0-0.56,0-0.84,0.14c-0.56,0-1.12,0.14-1.69,0.14 c-0.14,0-0.28,0.14-0.56,0.14c-0.14,0-0.14,0-0.28,0.14l0,0c-1.55,0.28-2.53,1.69-2.25,3.23l0,0c0.28,1.26,1.55,2.11,2.81,1.97 c0.28,0,0.42,0,0.7-0.14l0,0c0.14,0,0.14,0,0.14-0.14c0-0.14,0.42,0,0.56,0c0.56-0.14,1.12-0.42,1.55-0.56 c0.28-0.14,0.56-0.28,0.84-0.28h0.14c1.55-0.56,2.95-0.98,4.64-1.26h0.14c0.42,0,0.84,0.14,1.12,0.42c0.14,0,0.14,0.14,0.14,0.14 l0,0l1.26-0.14c2.11,6.46,6.04,12.23,11.52,16.44c1.26,0.98,2.39,1.83,3.79,2.53l-0.7,0.98l0,0c0,0.14,0.14,0.14,0.14,0.14 c0.28,0.42,0.28,0.98,0.14,1.41c-0.56,1.41-1.41,2.81-2.25,4.08v0.14c-0.14,0.28-0.28,0.42-0.56,0.7 c-0.28,0.28-0.56,0.84-0.98,1.41c-0.14,0.14-0.14,0.28-0.28,0.42c0,0,0,0.14-0.14,0.14l0,0c-0.7,1.41-0.14,3.09,1.12,3.79 c0.28,0.14,0.7,0.28,0.98,0.28c1.12,0,2.11-0.7,2.67-1.69l0,0c0,0,0-0.14,0.14-0.14c0-0.14,0.14-0.28,0.28-0.42 c0.14-0.56,0.42-0.98,0.56-1.55l0.28-0.84l0,0c0.42-1.55,1.12-2.95,1.83-4.36c0.28-0.42,0.7-0.7,1.12-0.84c0.14,0,0.14,0,0.14-0.14 l0,0l0.56-1.12c3.93,1.55,8.01,2.25,12.22,2.25c2.53,0,5.06-0.28,7.59-0.98c1.55-0.28,3.09-0.84,4.5-1.26l0.56,0.98l0,0 c0.14,0,0.14,0,0.14,0.14c0.42,0.14,0.84,0.42,1.12,0.84c0.7,1.41,1.41,2.81,1.83,4.36v0.14l0.28,0.84 c0.14,0.56,0.28,1.12,0.56,1.55c0.14,0.14,0.14,0.28,0.28,0.42c0,0,0,0.14,0.14,0.14l0,0c0.56,0.98,1.55,1.69,2.67,1.69 c0.42,0,0.7-0.14,1.12-0.28c0.56-0.28,1.12-0.84,1.26-1.55c0.14-0.7,0.14-1.41-0.14-2.11l0,0c0-0.14-0.14-0.14-0.14-0.14 c0-0.14-0.14-0.28-0.28-0.42c-0.28-0.56-0.56-0.98-0.98-1.41c-0.14-0.28-0.28-0.42-0.56-0.7v-0.28c-0.98-1.26-1.69-2.67-2.25-4.08 c-0.14-0.42-0.14-0.98,0.14-1.41c0-0.14,0.14-0.14,0.14-0.14l0,0l-0.42-1.12c7.17-4.36,12.65-11.1,15.18-19.11l1.12,0.14l0,0 c0.14,0,0.14-0.14,0.14-0.14c0.28-0.28,0.7-0.42,1.12-0.42l0.14,0c1.55,0.28,3.09,0.7,4.5,1.26h0.14c0.28,0.14,0.56,0.28,0.84,0.28 c0.56,0.28,0.98,0.56,1.55,0.7c0.14,0,0.28,0.14,0.56,0.14c0.14,0,0.14,0,0.28,0.14l0,0c0.28,0.14,0.42,0.14,0.7,0.14 c1.26,0,2.39-0.84,2.81-1.97C107.98,70.86,106.85,69.73,105.59,69.45L105.59,69.45L105.59,69.45z M64.98,65.09l-3.79,1.83 l-3.79-1.83l-0.98-4.08l2.67-3.37h4.22l2.67,3.37L64.98,65.09L64.98,65.09z M87.88,55.96c0.7,2.95,0.84,5.9,0.56,8.85l-13.35-3.79 l0,0c-1.26-0.28-1.97-1.55-1.69-2.81c0.14-0.42,0.28-0.7,0.56-0.98l10.54-9.56C86.05,50.2,87.18,53.01,87.88,55.96L87.88,55.96 L87.88,55.96z M80.29,42.47l-11.52,8.15c-0.98,0.56-2.39,0.42-3.09-0.56c-0.28-0.28-0.42-0.56-0.42-0.98l-0.84-14.19 C70.6,35.59,76.08,38.26,80.29,42.47L80.29,42.47L80.29,42.47L80.29,42.47z M54.86,35.3l2.81-0.56l-0.7,14.05l0,0 c0,1.26-1.12,2.25-2.39,2.25c-0.42,0-0.7-0.14-1.12-0.28l-11.66-8.29C45.44,38.96,49.94,36.43,54.86,35.3L54.86,35.3z M37.72,47.67 l10.4,9.27l0,0c0.98,0.84,1.12,2.25,0.28,3.23c-0.28,0.42-0.56,0.56-1.12,0.7l-13.63,3.93C33.22,58.91,34.62,52.87,37.72,47.67 L37.72,47.67z M35.33,71.42l13.91-2.39c1.12,0,2.25,0.7,2.39,1.83c0.14,0.42,0.14,0.98-0.14,1.41l0,0l-5.34,12.93 C41.23,81.96,37.29,77.04,35.33,71.42L35.33,71.42z M67.23,88.84c-1.97,0.42-3.93,0.7-6.04,0.7c-2.95,0-6.04-0.56-8.85-1.41 l6.89-12.51c0.7-0.84,1.83-1.12,2.81-0.56c0.42,0.28,0.7,0.56,1.12,0.98l0,0l6.75,12.23C69.05,88.42,68.21,88.56,67.23,88.84 L67.23,88.84L67.23,88.84z M84.37,76.62c-2.11,3.37-5.06,6.32-8.43,8.43l-5.48-13.21c-0.28-1.12,0.28-2.25,1.26-2.67 c0.42-0.14,0.84-0.28,1.26-0.28l14.05,2.39C86.34,73.24,85.49,75.07,84.37,76.62L84.37,76.62z"/></g></svg>