<?xml version="1.0" encoding="UTF-8"?>
<svg version="1.1" xmlns="http://www.w3.org/2000/svg" width="64" height="64">
<path d="M0 0 C4.52934584 3.32411218 8.47069751 7.80251604 9.8203125 13.3359375 C9.9614228 16.02711251 9.9118124 18.63669032 9.8203125 21.3359375 C11.4703125 21.3359375 13.1203125 21.3359375 14.8203125 21.3359375 C14.748125 21.96242188 14.6759375 22.58890625 14.6015625 23.234375 C14.46234375 24.46027344 14.46234375 24.46027344 14.3203125 25.7109375 C14.18109375 26.92910156 14.18109375 26.92910156 14.0390625 28.171875 C13.78678899 30.30506575 13.78678899 30.30506575 13.8203125 32.3359375 C13.8203125 33.6559375 13.8203125 34.9759375 13.8203125 36.3359375 C12.8303125 36.3359375 11.8403125 36.3359375 10.8203125 36.3359375 C11.15804687 36.80902344 11.49578125 37.28210937 11.84375 37.76953125 C15.16600564 42.69530334 17.29905367 47.35387185 17.8203125 53.3359375 C17.3253125 54.3259375 17.3253125 54.3259375 16.8203125 55.3359375 C-1.6596875 55.3359375 -20.1396875 55.3359375 -39.1796875 55.3359375 C-38.0546875 44.0859375 -38.0546875 44.0859375 -35.6171875 40.7109375 C-34.93462891 39.73253906 -34.93462891 39.73253906 -34.23828125 38.734375 C-33.88894531 38.27289063 -33.53960937 37.81140625 -33.1796875 37.3359375 C-34.1696875 37.0059375 -35.1596875 36.6759375 -36.1796875 36.3359375 C-36.92482473 34.23600529 -37.1796875 32.56162651 -37.1796875 30.3359375 C-37.3653125 29.5521875 -37.5509375 28.7684375 -37.7421875 27.9609375 C-38.1815126 25.32498689 -38.01339748 23.83706745 -37.1796875 21.3359375 C-35.5296875 21.3359375 -33.8796875 21.3359375 -32.1796875 21.3359375 C-32.2415625 20.3459375 -32.3034375 19.3559375 -32.3671875 18.3359375 C-32.31229929 12.89102711 -31.08075795 8.43452176 -27.375 4.34375 C-19.34534722 -2.95868895 -9.95248619 -5.68137876 0 0 Z " fill="#594128" transform="translate(44.1796875,5.6640625)"/>
<path d="M0 0 C1.216875 0.04125 2.43375 0.0825 3.6875 0.125 C3.6875 1.775 3.6875 3.425 3.6875 5.125 C5.43568591 5.34804441 7.18620323 5.5528645 8.9375 5.75 C9.91203125 5.86601563 10.8865625 5.98203125 11.890625 6.1015625 C14.86419233 6.12648066 16.27833705 5.83793696 18.6875 4.125 C19.0175 3.135 19.3475 2.145 19.6875 1.125 C23.1525 0.63 23.1525 0.63 26.6875 0.125 C27.1825 1.115 27.1825 1.115 27.6875 2.125 C29.3375 1.795 30.9875 1.465 32.6875 1.125 C36.91707198 6.75112876 40.18692187 11.95004687 40.6875 19.125 C40.3575 19.785 40.0275 20.445 39.6875 21.125 C21.2075 21.125 2.7275 21.125 -16.3125 21.125 C-15.17940647 9.79406475 -15.17940647 9.79406475 -12.5625 6.125 C-12.07265625 5.403125 -11.5828125 4.68125 -11.078125 3.9375 C-7.90220778 0.6772664 -4.45169649 -0.15090497 0 0 Z " fill="#9B7E5D" transform="translate(21.3125,39.875)"/>
<path d="M0 0 C4.52934584 3.32411218 8.47069751 7.80251604 9.8203125 13.3359375 C9.9614228 16.02711251 9.9118124 18.63669032 9.8203125 21.3359375 C7.28567643 20.86656045 5.70984862 20.26259808 3.53710938 18.82006836 C-1.23643024 16.21238079 -6.35175601 16.86494764 -11.6796875 16.8984375 C-12.80761719 16.87845703 -13.93554688 16.85847656 -15.09765625 16.83789062 C-21.54972344 16.74697799 -21.54972344 16.74697799 -27.2734375 19.36328125 C-27.9025 20.01425781 -28.5315625 20.66523438 -29.1796875 21.3359375 C-30.1696875 21.3359375 -31.1596875 21.3359375 -32.1796875 21.3359375 C-32.52603539 15.79437127 -32.05385907 11.18967095 -29.1796875 6.3359375 C-21.26338515 -2.40283782 -10.85846697 -6.19855807 0 0 Z " fill="#8A6E49" transform="translate(44.1796875,5.6640625)"/>
<path d="M0 0 C-0.0721875 0.62648438 -0.144375 1.25296875 -0.21875 1.8984375 C-0.35796875 3.12433594 -0.35796875 3.12433594 -0.5 4.375 C-0.63921875 5.59316406 -0.63921875 5.59316406 -0.78125 6.8359375 C-1.03352351 8.96912825 -1.03352351 8.96912825 -1 11 C-1 12.32 -1 13.64 -1 15 C-6.81266619 14.21450457 -12.36877624 12.59317541 -18 11 C-17.67 8.03 -17.34 5.06 -17 2 C-5.47835991 -0.29612756 -5.47835991 -0.29612756 0 0 Z " fill="#3C2E1F" transform="translate(59,27)"/>
<path d="M0 0 C1.93784265 0.14120714 3.87526955 0.28812873 5.8125 0.4375 C7.43091797 0.55931641 7.43091797 0.55931641 9.08203125 0.68359375 C12 1 12 1 15 2 C15.73046875 4.06640625 15.73046875 4.06640625 16.1875 6.5625 C16.34605469 7.38878906 16.50460938 8.21507812 16.66796875 9.06640625 C16.77753906 9.70449219 16.88710938 10.34257813 17 11 C16.38511719 11.12117188 15.77023438 11.24234375 15.13671875 11.3671875 C14.32847656 11.53476562 13.52023438 11.70234375 12.6875 11.875 C11.48673828 12.11863281 11.48673828 12.11863281 10.26171875 12.3671875 C7.74698882 12.94478999 7.74698882 12.94478999 5 15 C3.68 15 2.36 15 1 15 C0.4465236 12.92446352 0 11.15634036 0 9 C-0.185625 8.21625 -0.37125 7.4325 -0.5625 6.625 C-1.00838678 3.94967932 -0.73360305 2.55402544 0 0 Z " fill="#3B2D1F" transform="translate(7,27)"/>
<path d="M0 0 C1.98 0 3.96 0 6 0 C6.2358396 5.77807024 5.86783046 10.51324804 4 16 C3.01 15.67 2.02 15.34 1 15 C-0.32286246 10.03926578 -0.08893197 5.08888488 0 0 Z " fill="#F0EDE9" transform="translate(41,41)"/>
<path d="M0 0 C1.98 0 3.96 0 6 0 C6.2358396 5.77807024 5.86783046 10.51324804 4 16 C3.01 15.67 2.02 15.34 1 15 C0.15318867 9.91913204 -0.09038099 5.15171623 0 0 Z " fill="#F2EFEC" transform="translate(18,41)"/>
<path d="M0 0 C2.625 0.375 2.625 0.375 5 1 C5.625 3.375 5.625 3.375 6 6 C4 8 4 8 1.4375 8.1875 C-1 8 -1 8 -2 7 C-2.1875 4.5625 -2.1875 4.5625 -2 2 C-1.34 1.34 -0.68 0.68 0 0 Z " fill="#D6D0C8" transform="translate(20,13)"/>
<path d="M0 0 C2.875 -0.125 2.875 -0.125 6 0 C6.66 0.66 7.32 1.32 8 2 C7.46428571 5.53571429 7.46428571 5.53571429 6 7 C3.5625 7.1875 3.5625 7.1875 1 7 C0.34 6.34 -0.32 5.68 -1 5 C-0.625 2.375 -0.625 2.375 0 0 Z " fill="#7A5E3A" transform="translate(30,26)"/>
<path d="M0 0 C4.29 0.33 8.58 0.66 13 1 C13.33 2.65 13.66 4.3 14 6 C9.23649415 5.28547412 4.65798604 4.20465156 0 3 C0 2.01 0 1.02 0 0 Z " fill="#2F251C" transform="translate(44,36)"/>
<path d="M0 0 C0 0.99 0 1.98 0 3 C-4.33085971 4.29925791 -8.51474352 5.343621 -13 6 C-13.5625 4.0625 -13.5625 4.0625 -14 2 C-12.27828593 0.27828593 -9.91165561 0.62995358 -7.5625 0.4375 C-6.57378906 0.35371094 -5.58507812 0.26992188 -4.56640625 0.18359375 C-3.04692417 0.07489412 -1.52336516 0 0 0 Z " fill="#2E241C" transform="translate(21,36)"/>
<path d="M0 0 C4.29 0.33 8.58 0.66 13 1 C13 1.66 13 2.32 13 3 C6.565 3.495 6.565 3.495 0 4 C0 2.68 0 1.36 0 0 Z " fill="#2D241C" transform="translate(7,32)"/>
<path d="M0 0 C0 1.32 0 2.64 0 4 C-3.96 3.67 -7.92 3.34 -12 3 C-12 2.34 -12 1.68 -12 1 C-7.95858806 0.36605303 -4.0934693 -0.12404452 0 0 Z " fill="#2D241C" transform="translate(58,32)"/>
<path d="M0 0 C1.98 0.495 1.98 0.495 4 1 C3.67 2.32 3.34 3.64 3 5 C1.68 4.67 0.36 4.34 -1 4 C-0.67 2.68 -0.34 1.36 0 0 Z " fill="#403831" transform="translate(20,15)"/>
</svg>
