<svg xmlns="http://www.w3.org/2000/svg" width="64" height="64"><path fill="#594128" d="M44.18 5.664C48.709 8.988 52.65 13.467 54 19c.141 2.691.091 5.3 0 8h5l-.219 1.898-.281 2.477-.281 2.46C57.966 35.97 57.966 35.97 58 38v4h-3l1.023 1.434C59.346 48.359 61.48 53.018 62 59l-1 2H5c1.125-11.25 1.125-11.25 3.563-14.625l1.378-1.977L11 43l-3-1c-.745-2.1-1-3.774-1-6l-.562-2.375C5.998 30.989 6.166 29.501 7 27h5l-.187-3c.054-5.445 1.286-9.901 4.992-13.992C24.835 2.705 34.227-.017 44.18 5.664"/><path fill="#9B7E5D" d="M21.313 39.875 25 40v5c1.748.223 3.499.428 5.25.625l2.953.352C36.177 46 37.591 45.713 40 44l1-3 7-1 1 2 5-1c4.23 5.626 7.5 10.825 8 18l-1 2H5c1.133-11.33 1.133-11.33 3.75-15l1.484-2.187c3.176-3.26 6.627-4.089 11.079-3.938"/><path fill="#8A6E49" d="M44.18 5.664C48.709 8.988 52.65 13.467 54 19c.141 2.691.091 5.3 0 8-2.535-.47-4.11-1.073-6.283-2.516-4.774-2.608-9.89-1.955-15.217-1.922l-3.418-.06c-6.452-.091-6.452-.091-12.176 2.525L15 27h-3c-.346-5.542.126-10.146 3-15C22.916 3.261 33.321-.534 44.18 5.664"/><path fill="#3C2E1F" d="m59 27-.219 1.898-.281 2.477-.281 2.46C57.966 35.97 57.966 35.97 58 38v4c-5.813-.785-11.369-2.407-17-4l1-9c11.522-2.296 11.522-2.296 17-2"/><path fill="#3B2D1F" d="M7 27q2.907.212 5.813.438l3.269.246C19 28 19 28 22 29c.73 2.066.73 2.066 1.188 4.563l.48 2.503L24 38l-1.863.367-2.45.508-2.425.492c-2.515.578-2.515.578-5.262 2.633H8c-.553-2.076-1-3.844-1-6l-.562-2.375C5.992 30.95 6.266 29.554 7 27"/><path fill="#F0EDE9" d="M41 41h6c.236 5.778-.132 10.513-2 16l-3-1c-1.323-4.96-1.089-9.911-1-15"/><path fill="#F2EFEC" d="M18 41h6c.236 5.778-.132 10.513-2 16l-3-1c-.847-5.08-1.09-9.848-1-15"/><path fill="#D6D0C8" d="M20 13c2.625.375 2.625.375 5 1 .625 2.375.625 2.375 1 5-2 2-2 2-4.562 2.188C19 21 19 21 18 20c-.187-2.437-.187-2.437 0-5z"/><path fill="#7A5E3A" d="M30 26c2.875-.125 2.875-.125 6 0l2 2c-.536 3.536-.536 3.536-2 5-2.437.188-2.437.188-5 0l-2-2c.375-2.625.375-2.625 1-5"/><path fill="#2F251C" d="m44 36 13 1 1 5c-4.764-.715-9.342-1.795-14-3z"/><path fill="#2E241C" d="M21 36v3c-4.33 1.3-8.515 2.344-13 3-.562-1.937-.562-1.937-1-4 1.722-1.722 4.088-1.37 6.438-1.562l2.996-.254A64 64 0 0 1 21 36"/><path fill="#2D241C" d="m7 32 13 1v2L7 36zM58 32v4l-12-1v-2c4.041-.634 7.907-1.124 12-1"/><path fill="#403831" d="m20 15 4 1-1 4-4-1z"/></svg>