<svg xmlns="http://www.w3.org/2000/svg" width="512" height="512" fill="none"><path fill="#00DC82" d="M281.44 397.667h156.88c5.006 0 9.798-1.759 14.133-4.24 4.336-2.481 8.805-5.596 11.307-9.894 2.502-4.297 4.242-9.173 4.24-14.134s-1.734-9.836-4.24-14.131l-106-182.321c-2.502-4.297-5.559-7.413-9.893-9.894s-10.542-4.24-15.547-4.24-9.799 1.76-14.133 4.24c-4.335 2.481-7.392 5.597-9.894 9.894l-26.853 46.64-53.707-90.457c-2.504-4.296-5.557-8.823-9.893-11.303S208.713 115 203.707 115s-9.798.346-14.134 2.827c-4.335 2.48-8.802 7.007-11.306 11.303L46.827 355.268c-2.506 4.295-2.825 9.169-2.827 14.131s.325 9.836 2.827 14.134c2.502 4.297 6.97 7.413 11.306 9.894s9.127 4.24 14.134 4.24H171.2c39.201 0 67.734-17.585 87.627-50.88L306.88 263.4l25.44-43.813 77.733 132.853H306.88zM169.787 352.44h-69.254l103.174-178.08L256 263.4l-34.639 60.384c-13.21 21.603-28.272 28.656-51.574 28.656"/></svg>