<svg xmlns="http://www.w3.org/2000/svg" width="120" height="60"><path d="M16.796 21.515a8.08 8.08 0 0 0-6.35 3.032V21.87H7.7v24.26h2.747V37.4c1.712 2.14 4.067 3.032 6.35 3.032 5.173 0 8.74-4.03 8.74-9.454s-3.603-9.454-8.74-9.454zm-.642 16.482c-2.033 0-4.138-1-5.708-3.4v-7.242c1.64-2.497 3.924-3.425 5.85-3.425 3.817 0 6.42 2.997 6.42 6.992 0 4.03-2.676 7.064-6.564 7.064zm15.9-19.977a2.01 2.01 0 0 0 2.033-2.034c0-1.142-.892-1.998-2.033-1.998s-2.033.856-2.033 1.998a2.01 2.01 0 0 0 2.033 2.034m-1.4 22.047H33.4V21.872h-2.747v18.194zm18.05-18.552c-2.854 0-4.745 1.605-6.136 3.64v-3.282H39.82v18.194h2.747V27.722c1.784-2.247 3.746-3.64 5.85-3.64 2.176 0 4.067 1.177 4.067 4.103v11.88h2.747V28.008c0-4.388-3.032-6.493-6.53-6.493zm20.68 18.908c5.423 0 9.525-4.03 9.525-9.454s-4.103-9.454-9.525-9.454-9.525 4.03-9.525 9.454 4.103 9.454 9.525 9.454m0-2.426c-3.817 0-6.707-2.997-6.707-7.028s2.9-7.028 6.707-7.028 6.717 2.997 6.717 7.03S73.2 38 69.394 38z"/><path d="m93.58 19.28-9.842 19.857h19.744z" style="fill:#859947;fill-rule:evenodd"/><path d="m98.07 10.277-3.966 7.93 3.958 7.8 3.98-7.797z" style="fill:#647728;fill-rule:evenodd"/><path d="m112.392 39.076-9.836-19.714-3.905 7.915 5.857 11.837z" style="fill:#a3c255;fill-rule:evenodd"/><path d="M89.533 40.172 87.3 44.675l21.26-.025-2.205-4.54Z" style="fill:#584338;fill-rule:evenodd"/></svg>