<svg height="1em" style="flex:none;line-height:1" viewBox="0 0 24 24" width="1em" xmlns="http://www.w3.org/2000/svg"><title>PydanticAI</title><path d="M13.223 22.86c-.605.83-1.844.83-2.448 0L5.74 15.944a1.514 1.514 0 01.73-2.322l5.035-1.738c.32-.11.668-.11.988 0l5.035 1.738c.962.332 1.329 1.5.73 2.322l-5.035 6.916zm-1.224-1.259l4.688-6.439-4.688-1.618-4.688 1.618L12 21.602z" fill="#E72564"></path><path d="M23.71 13.463c.604.832.221 2.01-.756 2.328l-8.133 2.652a1.514 1.514 0 01-1.983-1.412l-.097-5.326c-.006-.338.101-.67.305-.94l3.209-4.25a1.514 1.514 0 012.434.022l5.022 6.926zm-1.574.775L17.46 7.79l-2.988 3.958.09 4.959 7.574-2.469z" fill="#E723A0"></path><path d="M18.016.591a1.514 1.514 0 011.98 1.44l.009 8.554a1.514 1.514 0 01-1.956 1.45l-5.095-1.554a1.514 1.514 0 01-.8-.58l-3.05-4.366a1.514 1.514 0 01.774-2.308L18.016.591zm.25 1.738L10.69 4.783l2.841 4.065 4.744 1.446-.008-7.965z" fill="#E520E9"></path><path d="M5.99.595a1.514 1.514 0 00-1.98 1.44L4 10.588a1.514 1.514 0 001.956 1.45l5.095-1.554c.323-.098.605-.303.799-.58l3.052-4.366a1.514 1.514 0 00-.775-2.308L5.99.595zm-.25 1.738l7.577 2.454-2.842 4.065-4.743 1.446.007-7.965z" fill="#E520E9"></path><path d="M.29 13.461c-.604.832-.221 2.01.756 2.329l8.133 2.651a1.514 1.514 0 001.983-1.412l.097-5.325a1.515 1.515 0 00-.305-.94L7.745 6.513a1.514 1.514 0 00-2.434.023L.289 13.461zm1.574.776L6.54 7.788l2.988 3.959-.09 4.958-7.574-2.468z" fill="#E723A0"></path><path d="M16.942 17.751l1.316-1.806c.119-.164.2-.341.245-.523l-2.63.858-1.627 2.235a1.51 1.51 0 00.575-.072l2.121-.692zM12.746 11.971l.033 1.842 1.742.602-.034-1.843-1.741-.6zM20.003 8.349l-1.314-1.812a1.513 1.513 0 00-.419-.393l.003 2.767 1.624 2.24c.07-.173.108-.364.108-.566l-.002-2.236zM14.965 11.095l-1.762-.537 1.11-1.471 1.762.537-1.11 1.47zM12.004 9.685l1.056-1.51-1.056-1.51-1.056 1.51 1.056 1.51zM9.368 3.509c.145-.122.316-.219.51-.282l2.12-.686 2.13.69c.191.062.36.157.503.276l-2.634.853-2.629-.851zM10.801 10.562L9.691 9.09l-1.762.537 1.11 1.47 1.762-.537zM4.105 11.146L5.733 8.9l.003-2.763c-.16.1-.305.232-.425.398L4.003 8.339l-.002 2.25c0 .198.037.386.104.557zM11.254 11.97l-1.741.601-.034 1.843 1.742-.601.033-1.843zM9.75 18.513l-1.628-2.237-2.629-.857c.046.183.127.36.247.525l1.313 1.804 2.126.693c.192.062.385.085.571.072z" fill="#FF96D1"></path></svg>