<svg xmlns="http://www.w3.org/2000/svg" width="1em" height="1em" style="flex:none;line-height:1" viewBox="0 0 24 24"><title>PydanticAI</title><path fill="#e72564" d="M13.223 22.86c-.605.83-1.844.83-2.448 0L5.74 15.944a1.514 1.514 0 0 1 .73-2.322l5.035-1.738c.32-.11.668-.11.988 0l5.035 1.738c.962.332 1.329 1.5.73 2.322zm-1.224-1.259 4.688-6.439-4.688-1.618-4.688 1.618L12 21.602z"/><path fill="#e723a0" d="M23.71 13.463c.604.832.221 2.01-.756 2.328l-8.133 2.652a1.514 1.514 0 0 1-1.983-1.412l-.097-5.326c-.006-.338.101-.67.305-.94l3.209-4.25a1.514 1.514 0 0 1 2.434.022l5.022 6.926zm-1.574.775L17.46 7.79l-2.988 3.958.09 4.959z"/><path fill="#e520e9" d="M18.016.591a1.514 1.514 0 0 1 1.98 1.44l.009 8.554a1.514 1.514 0 0 1-1.956 1.45l-5.095-1.554a1.5 1.5 0 0 1-.8-.58l-3.05-4.366a1.514 1.514 0 0 1 .774-2.308zm.25 1.738L10.69 4.783l2.841 4.065 4.744 1.446-.008-7.965z"/><path fill="#e520e9" d="M5.99.595a1.514 1.514 0 0 0-1.98 1.44L4 10.588a1.514 1.514 0 0 0 1.956 1.45l5.095-1.554c.323-.098.605-.303.799-.58l3.052-4.366a1.514 1.514 0 0 0-.775-2.308zm-.25 1.738 7.577 2.454-2.842 4.065-4.743 1.446.007-7.965z"/><path fill="#e723a0" d="M.29 13.461a1.514 1.514 0 0 0 .756 2.329l8.133 2.651a1.514 1.514 0 0 0 1.983-1.412l.097-5.325a1.5 1.5 0 0 0-.305-.94L7.745 6.513a1.514 1.514 0 0 0-2.434.023L.289 13.461zm1.574.776L6.54 7.788l2.988 3.959-.09 4.958z"/><path fill="#ff96d1" d="m16.942 17.751 1.316-1.806q.178-.248.245-.523l-2.63.858-1.627 2.235a1.5 1.5 0 0 0 .575-.072zm-4.196-5.78.033 1.842 1.742.602-.034-1.843-1.741-.6zm7.257-3.622-1.314-1.812a1.5 1.5 0 0 0-.419-.393l.003 2.767 1.624 2.24q.107-.261.108-.566zm-5.038 2.746-1.762-.537 1.11-1.471 1.762.537zm-2.961-1.41 1.056-1.51-1.056-1.51-1.056 1.51zM9.368 3.509c.145-.122.316-.219.51-.282l2.12-.686 2.13.69c.191.062.36.157.503.276l-2.634.853zm1.433 7.053L9.691 9.09l-1.762.537 1.11 1.47 1.762-.537zm-6.696.584L5.733 8.9l.003-2.763c-.16.1-.305.232-.425.398L4.003 8.339l-.002 2.25q.002.299.104.557m7.149.824-1.741.601-.034 1.843 1.742-.601zM9.75 18.513l-1.628-2.237-2.629-.857q.068.276.247.525l1.313 1.804 2.126.693c.192.062.385.085.571.072"/></svg>