<svg xmlns="http://www.w3.org/2000/svg" width="80" height="80"><defs><linearGradient id="a" x1="0%" x2="100%" y1="100%" y2="0%"><stop offset="0%" stop-color="#2E27AD"/><stop offset="100%" stop-color="#527FFF"/></linearGradient></defs><g fill="none" fill-rule="evenodd"><path fill="url(#a)" d="M0 0h80v80H0z"/><path fill="#FFF" d="m15.414 14 9.293 9.293-1.414 1.414L14 15.414V23h-2V13a1 1 0 0 1 1-1h10v2zM68 13v10h-2v-7.586l-9.293 9.293-1.414-1.414L64.586 14H57v-2h10a1 1 0 0 1 1 1m-2 44h2v10a1 1 0 0 1-1 1H57v-2h7.586l-9.293-9.293 1.414-1.414L66 64.586zm-.5-17.787c0-3.319-3.832-6.598-10.25-8.771l.641-1.894C63.268 31.045 67.5 34.932 67.5 39.213c0 4.282-4.232 8.17-11.61 10.666l-.641-1.895c6.419-2.172 10.251-5.45 10.251-8.771m-50.944 0c0 3.18 3.587 6.372 9.596 8.54l-.679 1.881c-6.938-2.503-10.917-6.301-10.917-10.421s3.979-7.917 10.917-10.421l.679 1.881c-6.009 2.169-9.596 5.361-9.596 8.54m10.151 17.494L15.414 66H23v2H13a1 1 0 0 1-1-1V57h2v7.586l9.293-9.293zM40 31.286c-7.146 0-11-1.846-11-2.6 0-.755 3.854-2.6 11-2.6 7.145 0 11 1.845 11 2.6 0 .754-3.855 2.6-11 2.6m.029 7.745C33.187 39.031 29 37.162 29 36.145v-4.861c2.463 1.359 6.832 2.002 11 2.002s8.537-.643 11-2.002v4.861c0 1.018-4.165 2.886-10.971 2.886m0 7.636C33.187 46.667 29 44.798 29 43.781v-4.919c2.431 1.429 6.742 2.169 11.029 2.169 4.263 0 8.549-.739 10.971-2.164v4.914c0 1.018-4.165 2.886-10.971 2.886M40 53.518c-7.117 0-11-1.913-11-2.896v-4.124c2.431 1.429 6.742 2.169 11.029 2.169 4.263 0 8.549-.738 10.971-2.164v4.119c0 .983-3.883 2.896-11 2.896m0-29.432c-6.261 0-13 1.439-13 4.6v21.936c0 3.214 6.54 4.896 13 4.896s13-1.682 13-4.896V28.686c0-3.161-6.739-4.6-13-4.6"/></g></svg>