<svg xmlns="http://www.w3.org/2000/svg" fill="#d30001" viewBox="0 0 411 155"><path d="M242.3 76.8h-19.5c-13.9 0-18.6 12.6-18.6 18.6v52.2h19.5v-12.5H242v12.5h18.9V95.4c0-15.2-13.8-18.6-18.6-18.6m-.4 38.1h-18.3V97.6s0-3.9 6.1-3.9h6.7c5.4 0 5.5 3.9 5.5 3.9zM194.9 101c0-22.6-21.2-24.7-21.2-24.7h-38.2v71.3h19.2v-17.2l16.6 17.2h28.4l-22.3-22.5s17.5-1.5 17.5-24.1m-24.9 9.5h-15.3V94.2h15.4s4.3 1.6 4.3 8.1-4.4 8.2-4.4 8.2M379.374 120.643c.333.002.446.002 0 0"/><path d="M385.3 103.4H369V95h32.3V76.8h-31c-8 0-18.7 6.6-18.7 18.9v6.3c0 12.3 10.6 18.6 18.7 18.6 5.868.026 8.304.039 9.074.043-1.298-.008-5.906-.043 6.326-.043v8.8l-33.1.1v18.1h32.7c6.7 0 18.2-4.9 18.6-18.6v-7c0-11.7-9.6-18.6-18.6-18.6M269.8 76.8h20.3v70.8h-20.3zM318.6 76.8h-20.2v70.8h47.5v-18.3h-27.3zM180 17.8c-.9-.5-3.4-1.7-9.7-3.5l-.4 6.6c3.3 1.1 6.5 2.3 9.7 3.6zM124.9 18.9c-29.2 2.6-65 29.1-86 64.1S15 147.6 15 147.6h79s-15.1-68.9 34.9-96.8c10.9-5.3 45.6-25.1 102.4 16.9 1.8-1.5 3.5-2.7 3.5-2.7s-52-51.9-109.9-46.1M54.7 54.7l-7.1-6.2c-2.6 2.5-5.1 5-7.4 7.5l7.7 6.6c2.1-2.7 4.4-5.4 6.8-7.9M92.5 25 88 18.1c-2.5 1.3-5.1 2.7-7.8 4.3l4.6 7c2.6-1.6 5.1-3.1 7.7-4.4M24.5 99.4 13 95.2c-1.9 4.3-4 9.3-5 12l11.5 4.2c1.3-3.4 3.4-8.3 5-12M133.1 14.5h1l-2-6.1q-4.65 0-9.6.6l1.9 5.9c2.9-.3 5.8-.4 8.7-.4"/><path d="M97 127.6c.2 5.3.7 9.6 1.2 12.6l12 4.3c-.9-3.9-1.8-8.3-2.4-13zM137.9 51.3l2.3 6.9c2.9-1.4 5.8-2.6 8.7-3.5l-2.2-6.6c-3.4 1-6.3 2.1-8.8 3.2M169.7 52q4.95.15 9.9 1.2l.4-6.2c-3.4-.7-6.7-1.1-9.9-1.3zM101.5 91.2c-1.3 3.7-2.2 7.4-3 11l8.1 6.4q.6-5.85 2.1-11.7zM113 70l4.8 7.2c1.7-2.5 3.7-4.8 5.9-7.1l-4.5-6.8c-2.3 2.1-4.4 4.4-6.2 6.7"/></svg>