<svg xmlns="http://www.w3.org/2000/svg" xml:space="preserve" style="fill-rule:evenodd;clip-rule:evenodd;stroke-linejoin:round;stroke-miterlimit:1.41421" viewBox="0 0 1200 800"><path d="M0-279.559c-121.238 0-231.39 14.576-312.939 38.329v202.901C-231.39-14.575-121.238 0 0 0c138.76 0 262.987-19.092 346.431-49.186V-230.37C262.987-260.465 138.76-279.559 0-279.559" style="fill:#a52b00;fill-rule:nonzero" transform="translate(597.344 637.02)"/><path d="m0-53.32-14.211-29.441c.073-1.118.131-2.237.131-3.36 0-33.375-34.706-64.135-93.097-88.762V2.643c27.245-11.492 49.348-24.317 65.156-38.125-4.652 18.707-20.564 56.553-33.25 83.168-20.85 38.066-28.4 71.203-27.432 72.844.617 1.033 7.73-9.94 18.219-27.721C-60.074 58.028-13.82-8.373-4.575-25.287 5.897-44.461 0-53.32 0-53.32" style="fill:#a52b00;fill-rule:nonzero" transform="translate(1068.75 575.642)"/><path d="M0-99.954c0 6.428 1.293 12.76 3.788 18.969l-8.511 15.15s-6.818 8.846 5.188 27.508C11.055-21.872 64.1 42.54 92.097 76.271c12.026 17.293 20.179 27.945 20.893 26.916 1.124-1.633-7.476-34.1-31.359-71.141-11.144-19.895-24.454-46.252-32.442-65.721 22.303 14.116 51.483 26.92 86.152 37.94V-204.17C51.797-177.622 0-140.737 0-99.954" style="fill:#a52b00;fill-rule:nonzero" transform="translate(149.064 591.421)"/><path d="M.991-.034.933.008v.018L.99.069a.02.02 0 0 1 .008.018.02.02 0 0 1-.012.016L.92.133.916.15l.048.053q.007.009.004.019a.02.02 0 0 1-.015.014L.882.254.875.27.91.33a.02.02 0 0 1 0 .02Q.905.36.893.361L.82.365.81.379l.022.066q.004.01-.004.02a.02.02 0 0 1-.019.007L.737.462.724.474l.009.07a.02.02 0 0 1-.008.018Q.715.569.704.565L.636.542l-.015.01-.006.069a.02.02 0 0 1-.011.017.03.03 0 0 1-.021 0L.521.602.518.603.406.729S.394.747.359.725C.329.705.206.599.141.543A.3.3 0 0 1 .09.502C.093.499.149.509.217.554.278.588.371.631.38.619c0 0 .016-.015.026-.044q.002.001 0 0S.091.024.305-.531c.006-.062-.03-.096-.03-.096C.266-.639.178-.598.12-.566c-.065.043-.118.053-.12.05a.3.3 0 0 1 .049-.039C.11-.608.227-.707.256-.726.289-.748.301-.73.301-.73l.101.115.013.002.055-.045q.008-.007.02-.004a.02.02 0 0 1 .014.014l.018.068.016.006.064-.034a.02.02 0 0 1 .021 0q.01.005.01.016l.004.07.015.01.069-.022a.02.02 0 0 1 .02.003.02.02 0 0 1 .008.019l-.011.069.013.012.072-.008a.02.02 0 0 1 .019.007.02.02 0 0 1 .003.02l-.024.065.01.015.072.005a.02.02 0 0 1 .017.011.02.02 0 0 1 0 .02l-.037.06.006.016.07.018a.02.02 0 0 1 .015.014.02.02 0 0 1-.005.02L.92-.116l.004.017.064.031A.02.02 0 0 1 1-.052q0 .011-.009.018M.406.575" style="fill:url(#a);fill-rule:nonzero" transform="scale(-755.0803 755.0803)rotate(-85 .164 .977)"/><path d="M0 167.33c-1.664-1.42-2.536-2.262-2.536-2.262l142.542-11.677C23.733 0-69.418 122.193-79.333 135.855v31.475z" style="fill-rule:nonzero" transform="translate(450.328 483.629)"/><path d="M0 171.974c1.663-1.42 2.536-2.264 2.536-2.264l-136.984-10.023C-18.12 0 69.421 126.835 79.335 140.497v31.477z" style="fill-rule:nonzero" transform="translate(747.12 477.333)"/><path d="M1-.586s-.232.058-.476.421L.5-.064s.6.329-.076.795c0 0 .084-.145-.019-.534 0 0-.274.179-.265.539 0 0-.415-.345.184-.871 0 0 .215-.556.676-.601z" style="fill:url(#b);fill-rule:nonzero" transform="scale(-267.211 267.211)rotate(-90 -.085 2.945)"/><path d="M0-92.063s43.486-47.615 86.974 0c0 0 34.17 63.492 0 95.234 0 0-55.912 44.444-86.974 0 0 0-37.275-34.921 0-95.234" style="fill-rule:nonzero" transform="translate(677.392 509.61)"/><path d="M0 .002c0 18.541-10.93 33.572-24.408 33.572-13.477 0-24.406-15.031-24.406-33.572s10.929-33.574 24.406-33.574C-10.93-33.572 0-18.539 0 .002" style="fill:#fff;fill-rule:nonzero" transform="translate(727.738 435.209)"/><path d="M0-98.439s74.596-33.028 94.956 40.691c0 0 21.327 85.926-61.259 90.776 0 0-105.31-20.283-33.697-131.467" style="fill-rule:nonzero" transform="translate(483.3 502.984)"/><path d="M0 0c0 19.119-11.27 34.627-25.173 34.627-13.898 0-25.171-15.508-25.171-34.627 0-19.124 11.273-34.627 25.171-34.627C-11.27-34.627 0-19.124 0 0" style="fill:#fff;fill-rule:nonzero" transform="translate(520.766 436.428)"/><path d="M.367.129c-.731-.57-.144-.84-.144-.84.036.32.249.547.249.547C.521-.548.525-.77.525-.77c.678.514.064.931.064.931.038.104.183.211.317.29L1 .77C.376.403.367.129.367.129" style="fill:url(#c);fill-rule:nonzero" transform="scale(-239.021 239.021)rotate(-90 .78 2.463)"/><defs><linearGradient id="a" x1="0" x2="1" y1="0" y2="0" gradientTransform="matrix(1 0 0 -1 0 0)" gradientUnits="userSpaceOnUse"><stop offset="0" style="stop-color:#f74c00;stop-opacity:1"/><stop offset=".33" style="stop-color:#f74c00;stop-opacity:1"/><stop offset="1" style="stop-color:#f49600;stop-opacity:1"/></linearGradient><linearGradient id="b" x1="0" x2="1" y1="0" y2="0" gradientTransform="matrix(1 0 0 -1 0 0)" gradientUnits="userSpaceOnUse"><stop offset="0" style="stop-color:#cc3a00;stop-opacity:1"/><stop offset=".15" style="stop-color:#cc3a00;stop-opacity:1"/><stop offset=".74" style="stop-color:#f74c00;stop-opacity:1"/><stop offset="1" style="stop-color:#f74c00;stop-opacity:1"/></linearGradient><linearGradient id="c" x1="0" x2="1" y1="0" y2="0" gradientTransform="matrix(1 0 0 -1 0 0)" gradientUnits="userSpaceOnUse"><stop offset="0" style="stop-color:#cc3a00;stop-opacity:1"/><stop offset=".15" style="stop-color:#cc3a00;stop-opacity:1"/><stop offset=".74" style="stop-color:#f74c00;stop-opacity:1"/><stop offset="1" style="stop-color:#f74c00;stop-opacity:1"/></linearGradient></defs></svg>