<svg width="16" height="16" viewBox="0 0 16 16" fill="none" xmlns="http://www.w3.org/2000/svg">
<g clip-path="url(#clip0_2048_2251)">
<path opacity="0.9" d="M8.02226 15.9866C3.56539 15.9866 -6.10352e-05 12.4896 -6.10352e-05 8.11832C-6.10352e-05 3.79075 3.56539 0.25 8.02226 0.25H13.0584C14.7075 0.25 15.9999 1.56139 15.9999 3.13506V8.11832C15.9999 12.4896 12.4345 15.9866 8.02226 15.9866Z" fill="#F25733"/>
<path d="M7.95919 4.71207C4.63025 4.71207 2.75514 7.46868 2.67693 7.58603C2.48413 7.87508 2.48413 8.24888 2.67707 8.53816C2.75514 8.65528 4.63025 11.4119 7.95919 11.4119C11.2881 11.4119 13.1633 8.65528 13.2414 8.53792C13.4342 8.24888 13.4342 7.87508 13.2413 7.58582C13.1632 7.46868 11.2881 4.71207 7.95919 4.71207ZM3.13771 8.23088C3.06925 8.12832 3.06925 7.99571 3.13771 7.89307C3.20059 7.79867 4.53564 5.83764 6.92256 5.36723C5.84092 5.78476 5.07127 6.83485 5.07127 8.062C5.07127 9.28912 5.84092 10.3392 6.92256 10.7567C4.53564 10.2863 3.20059 8.32528 3.13771 8.23088ZM6.62838 8.062C6.62838 8.21488 6.50443 8.3388 6.35151 8.3388C6.19859 8.3388 6.07465 8.21488 6.07465 8.062C6.07465 7.02287 6.92003 6.17748 7.95916 6.17748C8.11207 6.17748 8.23599 6.30141 8.23599 6.45434C8.23599 6.60727 8.11207 6.73119 7.95916 6.73119C7.22535 6.73119 6.62838 7.32815 6.62838 8.062ZM7.95919 8.73504C7.58803 8.73504 7.2861 8.43312 7.2861 8.062C7.2861 7.69085 7.58803 7.3889 7.95919 7.3889C8.33039 7.3889 8.63231 7.69083 8.63231 8.062C8.63231 8.43312 8.33039 8.73504 7.95919 8.73504ZM12.7806 8.23088C12.7178 8.32528 11.3827 10.2863 8.99583 10.7567C10.0775 10.3392 10.8471 9.28912 10.8471 8.062C10.8471 6.83487 10.0775 5.78477 8.99583 5.36724C11.3827 5.83768 12.7178 7.7987 12.7806 7.89307C12.8491 7.99571 12.8491 8.12832 12.7806 8.23088Z" fill="#F9F2F9"/>
</g>
<defs>
<clipPath id="clip0_2048_2251">
<rect width="16" height="16" fill="white"/>
</clipPath>
</defs>
</svg>
