<svg xmlns="http://www.w3.org/2000/svg" width="100" height="100" fill="none"><rect width="100" height="100" fill="url(#a)" rx="20"/><g fill="#fff" fill-rule="evenodd" clip-rule="evenodd" filter="url(#b)"><path d="M11 49.941v-.003l.002-.005.003-.014.007-.035a8 8 0 0 1 .105-.42c.073-.263.184-.624.348-1.072.328-.896.866-2.135 1.73-3.617 1.732-2.97 4.753-6.883 9.95-10.955 5.223-4.092 10.295-6.293 14.08-7.471a35 35 0 0 1 4.585-1.114 24 24 0 0 1 1.687-.223l.108-.009.034-.002h.011l.007-.001s.002 0 .133 2.217c.13 2.218.132 2.218.132 2.218h-.002l-.053.004a19 19 0 0 0-1.326.178c-.809.136-1.937.37-3.302.763l-.127.043c-2.745.94-6.666 2.775-11.249 6.362-4.572 3.577-7.142 6.95-8.563 9.393-.711 1.222-1.137 2.215-1.383 2.889a10 10 0 0 0-.29.933q.011.056.044.173c.046.166.123.423.246.76.246.674.672 1.667 1.383 2.89 1.421 2.441 3.991 5.815 8.563 9.392 4.584 3.587 8.504 5.423 11.25 6.362l.126.043c1.365.393 2.493.627 3.302.763a19 19 0 0 0 1.326.178l.053.004h.002s-.002 0-.133 2.218C43.66 75 43.657 75 43.657 75h-.007l-.011-.001-.034-.002a9 9 0 0 1-.478-.046 24 24 0 0 1-1.317-.186 35 35 0 0 1-4.584-1.114c-3.786-1.178-8.858-3.38-14.081-7.471-5.197-4.072-8.218-7.985-9.95-10.955-.864-1.482-1.402-2.72-1.73-3.617-.164-.448-.275-.81-.348-1.072a8 8 0 0 1-.105-.42l-.007-.035-.003-.014-.002-.005zm78 0v-.003l-.002-.005-.002-.014-.008-.035a9 9 0 0 0-.105-.42 14 14 0 0 0-.348-1.072c-.328-.896-.866-2.135-1.73-3.617-1.732-2.97-4.753-6.883-9.95-10.955-5.223-4.092-10.295-6.293-14.08-7.471a35 35 0 0 0-4.585-1.114 24 24 0 0 0-1.687-.223l-.108-.009-.034-.002h-.011L56.343 25s-.002 0-.133 2.217c-.13 2.218-.132 2.218-.132 2.218h.002l.053.004a19 19 0 0 1 1.326.178c.809.136 1.937.37 3.302.763l.127.043c2.745.94 6.666 2.775 11.249 6.362 4.572 3.577 7.141 6.95 8.563 9.393.711 1.222 1.137 2.215 1.383 2.889a10 10 0 0 1 .29.933 10 10 0 0 1-.29.934c-.246.673-.672 1.666-1.383 2.888-1.422 2.442-3.991 5.816-8.563 9.393-4.584 3.587-8.504 5.423-11.25 6.362l-.126.043a30 30 0 0 1-3.302.763 19 19 0 0 1-1.326.178l-.053.004h-.002s.002 0 .133 2.218C56.34 75 56.343 75 56.343 75h.007l.011-.001.034-.002a9 9 0 0 0 .478-.046c.314-.034.758-.092 1.317-.186a35 35 0 0 0 4.584-1.114c3.786-1.178 8.858-3.38 14.081-7.471 5.197-4.072 8.218-7.985 9.95-10.955.864-1.482 1.402-2.72 1.73-3.617.164-.448.275-.81.348-1.072a9 9 0 0 0 .105-.42l.008-.035.002-.014.001-.005.001-.003z"/><path d="M68.342 49.998c0 9.846-7.924 17.827-17.7 17.827s-17.7-7.981-17.7-17.827 7.925-17.827 17.7-17.827c9.776 0 17.7 7.981 17.7 17.827M46.218 39.97s-2.127 2.508-2.766 4.457c-.412 1.257-.553 3.343-.553 3.343h-5.531s0-1.672 1.106-4.457 2.212-3.343 2.212-3.343zm-2.766 15.6c.639 1.949 2.766 4.457 2.766 4.457h-5.532s-1.106-.557-2.212-3.343-1.106-4.457-1.106-4.457h5.53s.142 2.086.554 3.343"/></g><defs><radialGradient id="a" cx="0" cy="0" r="1" gradientTransform="matrix(40.99997 42 -42 40.99997 50 50)" gradientUnits="userSpaceOnUse"><stop offset=".33" stop-color="#F76526"/><stop offset="1" stop-color="#F43030"/></radialGradient><filter id="b" width="90" height="62" x="5" y="23" color-interpolation-filters="sRGB" filterUnits="userSpaceOnUse"><feFlood flood-opacity="0" result="BackgroundImageFix"/><feColorMatrix in="SourceAlpha" result="hardAlpha" values="0 0 0 0 0 0 0 0 0 0 0 0 0 0 0 0 0 0 127 0"/><feOffset dy="4"/><feGaussianBlur stdDeviation="3"/><feComposite in2="hardAlpha" operator="out"/><feColorMatrix values="0 0 0 0 0.368384 0 0 0 0 0.0623777 0 0 0 0 0.0623777 0 0 0 0.25 0"/><feBlend in2="BackgroundImageFix" result="effect1_dropShadow_3909_18731"/><feBlend in="SourceGraphic" in2="effect1_dropShadow_3909_18731" result="shape"/><feColorMatrix in="SourceAlpha" result="hardAlpha" values="0 0 0 0 0 0 0 0 0 0 0 0 0 0 0 0 0 0 127 0"/><feOffset dy="4"/><feGaussianBlur stdDeviation="3"/><feComposite in2="hardAlpha" k2="-1" k3="1" operator="arithmetic"/><feColorMatrix values="0 0 0 0 0 0 0 0 0 0 0 0 0 0 0 0 0 0 0.06 0"/><feBlend in2="shape" result="effect2_innerShadow_3909_18731"/></filter></defs></svg>