<svg width="71" height="18" viewBox="0 0 71 18" fill="none" xmlns="http://www.w3.org/2000/svg">
<g clip-path="url(#clip0_2048_2250)">
<path opacity="0.9" d="M8.02226 16.9866C3.56539 16.9866 -6.10352e-05 13.4896 -6.10352e-05 9.11832C-6.10352e-05 4.79075 3.56539 1.25 8.02226 1.25H13.0584C14.7075 1.25 15.9999 2.56139 15.9999 4.13506V9.11832C15.9999 13.4896 12.4345 16.9866 8.02226 16.9866Z" fill="#F25733"/>
<path d="M7.95919 5.71207C4.63025 5.71207 2.75514 8.46868 2.67693 8.58603C2.48413 8.87508 2.48413 9.24888 2.67707 9.53816C2.75514 9.65528 4.63025 12.4119 7.95919 12.4119C11.2881 12.4119 13.1633 9.65528 13.2414 9.53792C13.4342 9.24888 13.4342 8.87508 13.2413 8.58582C13.1632 8.46868 11.2881 5.71207 7.95919 5.71207ZM3.13771 9.23088C3.06925 9.12832 3.06925 8.99571 3.13771 8.89307C3.20059 8.79867 4.53564 6.83764 6.92256 6.36723C5.84092 6.78476 5.07127 7.83485 5.07127 9.062C5.07127 10.2891 5.84092 11.3392 6.92256 11.7567C4.53564 11.2863 3.20059 9.32528 3.13771 9.23088ZM6.62838 9.062C6.62838 9.21488 6.50443 9.3388 6.35151 9.3388C6.19859 9.3388 6.07465 9.21488 6.07465 9.062C6.07465 8.02287 6.92003 7.17748 7.95916 7.17748C8.11207 7.17748 8.23599 7.30141 8.23599 7.45434C8.23599 7.60727 8.11207 7.73119 7.95916 7.73119C7.22535 7.73119 6.62838 8.32815 6.62838 9.062ZM7.95919 9.73504C7.58803 9.73504 7.2861 9.43312 7.2861 9.062C7.2861 8.69085 7.58803 8.3889 7.95919 8.3889C8.33039 8.3889 8.63231 8.69083 8.63231 9.062C8.63231 9.43312 8.33039 9.73504 7.95919 9.73504ZM12.7806 9.23088C12.7178 9.32528 11.3827 11.2863 8.99583 11.7567C10.0775 11.3392 10.8471 10.2891 10.8471 9.062C10.8471 7.83487 10.0775 6.78477 8.99583 6.36724C11.3827 6.83768 12.7178 8.7987 12.7806 8.89307C12.8491 8.99571 12.8491 9.12832 12.7806 9.23088Z" fill="#F9F2F9"/>
</g>
<path d="M28.896 4.62C29.7267 4.62 30.4454 4.77867 31.052 5.096C31.6587 5.404 32.172 5.86133 32.592 6.468L31.584 7.434C31.2294 6.89267 30.828 6.50533 30.38 6.272C29.9414 6.02933 29.4187 5.908 28.812 5.908C28.364 5.908 27.9954 5.96867 27.706 6.09C27.4167 6.21133 27.202 6.37467 27.062 6.58C26.9314 6.776 26.866 7 26.866 7.252C26.866 7.54133 26.964 7.79333 27.16 8.008C27.3654 8.22267 27.7434 8.39067 28.294 8.512L30.17 8.932C31.066 9.128 31.7007 9.42667 32.074 9.828C32.4474 10.2293 32.634 10.738 32.634 11.354C32.634 11.9233 32.48 12.418 32.172 12.838C31.864 13.258 31.4347 13.58 30.884 13.804C30.3427 14.028 29.7034 14.14 28.966 14.14C28.3127 14.14 27.7247 14.056 27.202 13.888C26.6794 13.72 26.222 13.4913 25.83 13.202C25.438 12.9127 25.116 12.5813 24.864 12.208L25.9 11.172C26.096 11.4987 26.3434 11.7927 26.642 12.054C26.9407 12.306 27.286 12.502 27.678 12.642C28.0794 12.782 28.5227 12.852 29.008 12.852C29.4374 12.852 29.806 12.8007 30.114 12.698C30.4314 12.5953 30.6694 12.446 30.828 12.25C30.996 12.0447 31.08 11.802 31.08 11.522C31.08 11.2513 30.9867 11.0133 30.8 10.808C30.6227 10.6027 30.2867 10.444 29.792 10.332L27.762 9.87C27.202 9.74867 26.74 9.576 26.376 9.352C26.012 9.128 25.7414 8.85733 25.564 8.54C25.3867 8.21333 25.298 7.84933 25.298 7.448C25.298 6.92533 25.438 6.454 25.718 6.034C26.0074 5.60467 26.4227 5.264 26.964 5.012C27.5054 4.75067 28.1494 4.62 28.896 4.62ZM35.2198 5.824C34.8931 5.824 34.6411 5.74467 34.4638 5.586C34.2958 5.418 34.2118 5.18467 34.2118 4.886C34.2118 4.58733 34.2958 4.35867 34.4638 4.2C34.6411 4.04133 34.8931 3.962 35.2198 3.962C35.5371 3.962 35.7798 4.04133 35.9478 4.2C36.1251 4.35867 36.2138 4.58733 36.2138 4.886C36.2138 5.18467 36.1251 5.418 35.9478 5.586C35.7798 5.74467 35.5371 5.824 35.2198 5.824ZM35.9618 7V14H34.4638V7H35.9618ZM44.4656 5.53L44.7036 6.706C44.6756 6.706 44.6476 6.706 44.6196 6.706C44.5916 6.69667 44.5636 6.692 44.5356 6.692C44.0876 6.692 43.7469 6.79 43.5136 6.986C43.2802 7.17267 43.1636 7.448 43.1636 7.812L42.4356 7.476C42.4356 7.10267 42.5149 6.77133 42.6736 6.482C42.8322 6.18333 43.0562 5.95 43.3456 5.782C43.6442 5.614 43.9802 5.53 44.3536 5.53C44.3722 5.53 44.3909 5.53 44.4096 5.53C44.4282 5.53 44.4469 5.53 44.4656 5.53ZM42.2536 12.908C42.9629 12.908 43.5136 13.0667 43.9056 13.384C44.2976 13.692 44.4936 14.1213 44.4936 14.672C44.4936 15.1573 44.3396 15.5727 44.0316 15.918C43.7236 16.2727 43.3036 16.5433 42.7716 16.73C42.2489 16.9167 41.6469 17.01 40.9656 17.01C39.8176 17.01 38.9682 16.8327 38.4176 16.478C37.8669 16.1233 37.5916 15.68 37.5916 15.148C37.5916 14.7747 37.7222 14.448 37.9836 14.168C38.2542 13.888 38.7069 13.7293 39.3416 13.692L39.2576 13.916C38.8656 13.832 38.5482 13.6827 38.3056 13.468C38.0722 13.244 37.9556 12.9313 37.9556 12.53C37.9556 12.1287 38.1096 11.788 38.4176 11.508C38.7256 11.228 39.1596 11.0647 39.7196 11.018L40.5036 11.396H40.3356C39.9062 11.4333 39.6029 11.5313 39.4256 11.69C39.2482 11.8487 39.1596 12.026 39.1596 12.222C39.1596 12.4553 39.2436 12.628 39.4116 12.74C39.5889 12.852 39.8362 12.908 40.1536 12.908H42.2536ZM40.9656 15.89C41.4789 15.89 41.8989 15.8387 42.2256 15.736C42.5616 15.6427 42.8089 15.5167 42.9676 15.358C43.1356 15.2087 43.2196 15.0407 43.2196 14.854C43.2196 14.6393 43.1309 14.4667 42.9536 14.336C42.7856 14.2053 42.4776 14.14 42.0296 14.14H39.7756C39.5142 14.14 39.2949 14.2053 39.1176 14.336C38.9402 14.476 38.8516 14.6627 38.8516 14.896C38.8516 15.204 39.0382 15.4467 39.4116 15.624C39.7849 15.8013 40.3029 15.89 40.9656 15.89ZM40.9096 6.86C41.5256 6.86 42.0576 6.958 42.5056 7.154C42.9629 7.35 43.3129 7.62533 43.5556 7.98C43.8076 8.33467 43.9336 8.75 43.9336 9.226C43.9336 9.702 43.8076 10.1173 43.5556 10.472C43.3129 10.8267 42.9629 11.102 42.5056 11.298C42.0576 11.494 41.5256 11.592 40.9096 11.592C39.9389 11.592 39.1922 11.3773 38.6696 10.948C38.1562 10.5093 37.8996 9.93533 37.8996 9.226C37.8996 8.75 38.0256 8.33467 38.2776 7.98C38.5296 7.62533 38.8796 7.35 39.3276 7.154C39.7849 6.958 40.3122 6.86 40.9096 6.86ZM40.9096 7.91C40.4802 7.91 40.1209 8.03133 39.8316 8.274C39.5516 8.50733 39.4116 8.82467 39.4116 9.226C39.4116 9.62733 39.5516 9.94933 39.8316 10.192C40.1209 10.4347 40.4802 10.556 40.9096 10.556C41.3482 10.556 41.7076 10.4347 41.9876 10.192C42.2769 9.94933 42.4216 9.62733 42.4216 9.226C42.4216 8.82467 42.2769 8.50733 41.9876 8.274C41.7076 8.03133 41.3482 7.91 40.9096 7.91ZM53.6501 4.76V14H51.8721L48.3021 8.176L47.4061 6.538H47.3921L47.4481 8.036V14H46.0761V4.76H47.8401L51.3961 10.57L52.3061 12.236H52.3201L52.2641 10.724V4.76H53.6501ZM59.117 6.86C59.7983 6.86 60.4003 7.00467 60.923 7.294C61.4457 7.58333 61.8517 8.00333 62.141 8.554C62.4397 9.09533 62.589 9.744 62.589 10.5C62.589 11.256 62.4397 11.9093 62.141 12.46C61.8517 13.0013 61.4457 13.4167 60.923 13.706C60.4003 13.9953 59.7983 14.14 59.117 14.14C58.4357 14.14 57.8337 13.9953 57.311 13.706C56.7883 13.4167 56.3777 13.0013 56.079 12.46C55.7803 11.9093 55.631 11.256 55.631 10.5C55.631 9.744 55.7803 9.09533 56.079 8.554C56.3777 8.00333 56.7883 7.58333 57.311 7.294C57.8337 7.00467 58.4357 6.86 59.117 6.86ZM59.117 8.036C58.697 8.036 58.3377 8.134 58.039 8.33C57.7497 8.51667 57.5257 8.792 57.367 9.156C57.2083 9.52 57.129 9.968 57.129 10.5C57.129 11.0227 57.2083 11.4707 57.367 11.844C57.5257 12.208 57.7497 12.488 58.039 12.684C58.3377 12.8707 58.697 12.964 59.117 12.964C59.537 12.964 59.8917 12.8707 60.181 12.684C60.4703 12.488 60.6943 12.208 60.853 11.844C61.0117 11.4707 61.091 11.0227 61.091 10.5C61.091 9.968 61.0117 9.52 60.853 9.156C60.6943 8.792 60.4703 8.51667 60.181 8.33C59.8917 8.134 59.537 8.036 59.117 8.036ZM63.9298 14V12.964L67.3178 9.016L68.1718 8.148L66.9538 8.176H63.9578V7H69.8238V8.036L66.4358 11.984L65.5958 12.852L66.9258 12.824H69.9498V14H63.9298Z" fill="white"/>
<defs>
<clipPath id="clip0_2048_2250">
<rect width="16" height="16" fill="white" transform="translate(0 1)"/>
</clipPath>
</defs>
</svg>
