<svg xmlns="http://www.w3.org/2000/svg" width="18" height="18" viewBox="0 0 18 18" fill="none">
    <rect y="0.25" width="17.5" height="17.5" rx="3.5" fill="url(#paint0_radial_274_16499)"/>
    <g filter="url(#filter0_di_274_16499)">
      <path fill-rule="evenodd" clip-rule="evenodd" d="M1.92383 8.98972L1.92392 8.98924L1.92413 8.98821L1.92462 8.98579L1.92593 8.97961C1.92695 8.9749 1.92827 8.96901 1.92993 8.96197C1.93325 8.94788 1.93793 8.9292 1.94429 8.9062C1.95702 8.8602 1.97646 8.79692 2.00515 8.71856C2.06254 8.56178 2.15683 8.34494 2.30807 8.08559C2.6111 7.56595 3.13965 6.88108 4.04917 6.16856C4.96329 5.45246 5.85086 5.06731 6.51337 4.861C6.84464 4.75784 7.12019 4.69922 7.3156 4.66621C7.41335 4.6497 7.49117 4.63958 7.54605 4.63349C7.5735 4.63045 7.59522 4.62841 7.61085 4.62709C7.61866 4.62643 7.62495 4.62595 7.62966 4.62561L7.63556 4.6252L7.63761 4.62507L7.63876 4.625C7.63876 4.625 7.63906 4.62498 7.66199 5.01301C7.68491 5.40105 7.68518 5.40103 7.68518 5.40103L7.68483 5.40106C7.68326 5.40117 7.68017 5.40141 7.67559 5.40179C7.66643 5.40257 7.65136 5.40396 7.63073 5.40625C7.58948 5.41082 7.52607 5.41898 7.44345 5.43293C7.30197 5.45683 7.10452 5.49768 6.86568 5.56652C6.85832 5.56899 6.85091 5.57151 6.84345 5.57406C6.36305 5.73839 5.67696 6.05963 4.87486 6.68728C4.07477 7.31337 3.62509 7.90371 3.37636 8.33106C3.25185 8.54497 3.1773 8.71874 3.13432 8.83664C3.11283 8.89561 3.09922 8.94064 3.09121 8.96977C3.08746 8.98339 3.08494 8.99353 3.08341 9C3.08494 9.00647 3.08746 9.01661 3.09121 9.03023C3.09922 9.05936 3.11283 9.10439 3.13432 9.16336C3.1773 9.28126 3.25185 9.45503 3.37636 9.66894C3.62509 10.0963 4.07477 10.6866 4.87486 11.3127C5.67696 11.9404 6.36305 12.2616 6.84345 12.4259C6.85091 12.4285 6.85832 12.431 6.86568 12.4335C7.10452 12.5023 7.30197 12.5432 7.44345 12.5671C7.52607 12.581 7.58948 12.5892 7.63073 12.5938C7.65136 12.596 7.66643 12.5974 7.67559 12.5982C7.68017 12.5986 7.68326 12.5988 7.68483 12.5989L7.68518 12.599C7.68518 12.599 7.68491 12.599 7.66199 12.987C7.63906 13.375 7.63876 13.375 7.63876 13.375L7.63841 13.375L7.63761 13.3749L7.63556 13.3748L7.62966 13.3744C7.62495 13.3741 7.61866 13.3736 7.61085 13.3729C7.59522 13.3716 7.5735 13.3696 7.54605 13.3665C7.49117 13.3604 7.41335 13.3503 7.3156 13.3338C7.12019 13.3008 6.84464 13.2422 6.51337 13.139C5.85086 12.9327 4.96329 12.5475 4.04917 11.8314C3.13965 11.1189 2.6111 10.434 2.30807 9.91441C2.15683 9.65506 2.06254 9.43822 2.00515 9.28144C1.97646 9.20308 1.95702 9.1398 1.94429 9.0938C1.93793 9.0708 1.93325 9.05212 1.92993 9.03803C1.92827 9.03099 1.92695 9.0251 1.92593 9.02039L1.92462 9.01421L1.92413 9.01179L1.92392 9.01076L1.92383 9.01028V8.98972Z" fill="white"/>
      <path fill-rule="evenodd" clip-rule="evenodd" d="M15.5738 8.98972L15.5737 8.98924L15.5735 8.98821L15.573 8.98579L15.5717 8.97961C15.5707 8.9749 15.5694 8.96901 15.5677 8.96197C15.5644 8.94788 15.5597 8.9292 15.5534 8.9062C15.5406 8.8602 15.5212 8.79692 15.4925 8.71856C15.4351 8.56178 15.3408 8.34494 15.1896 8.08559C14.8866 7.56595 14.358 6.88108 13.4485 6.16856C12.5344 5.45246 11.6468 5.06731 10.9843 4.861C10.653 4.75784 10.3775 4.69922 10.1821 4.66621C10.0843 4.6497 10.0065 4.63958 9.9516 4.63349C9.92416 4.63045 9.90243 4.62841 9.88681 4.62709C9.879 4.62643 9.87271 4.62595 9.86799 4.62561L9.8621 4.6252L9.86004 4.62507L9.8589 4.625C9.8589 4.625 9.85859 4.62498 9.83567 5.01301C9.81275 5.40105 9.81248 5.40103 9.81248 5.40103L9.81282 5.40106C9.81439 5.40117 9.81749 5.40141 9.82207 5.40179C9.83122 5.40257 9.8463 5.40396 9.86692 5.40625C9.90818 5.41082 9.97158 5.41898 10.0542 5.43293C10.1957 5.45683 10.3931 5.49768 10.632 5.56652C10.6393 5.56899 10.6467 5.57151 10.6542 5.57406C11.1346 5.73839 11.8207 6.05963 12.6228 6.68728C13.4229 7.31337 13.8726 7.90371 14.1213 8.33106C14.2458 8.54497 14.3204 8.71874 14.3633 8.83664C14.3848 8.89561 14.3984 8.94064 14.4064 8.96977C14.4102 8.98339 14.4127 8.99353 14.4142 9C14.4127 9.00647 14.4102 9.01661 14.4064 9.03023C14.3984 9.05936 14.3848 9.10439 14.3633 9.16336C14.3204 9.28126 14.2458 9.45503 14.1213 9.66894C13.8726 10.0963 13.4229 10.6866 12.6228 11.3127C11.8207 11.9404 11.1346 12.2616 10.6542 12.4259C10.6467 12.4285 10.6393 12.431 10.632 12.4335C10.3931 12.5023 10.1957 12.5432 10.0542 12.5671C9.97158 12.581 9.90818 12.5892 9.86692 12.5938C9.8463 12.596 9.83122 12.5974 9.82207 12.5982C9.81749 12.5986 9.81439 12.5988 9.81282 12.5989L9.81248 12.599C9.81248 12.599 9.81275 12.599 9.83567 12.987C9.85859 13.375 9.8589 13.375 9.8589 13.375L9.85924 13.375L9.86004 13.3749L9.8621 13.3748L9.86799 13.3744C9.87271 13.3741 9.879 13.3736 9.88681 13.3729C9.90243 13.3716 9.92416 13.3696 9.9516 13.3665C10.0065 13.3604 10.0843 13.3503 10.1821 13.3338C10.3775 13.3008 10.653 13.2422 10.9843 13.139C11.6468 12.9327 12.5344 12.5475 13.4485 11.8314C14.358 11.1189 14.8866 10.434 15.1896 9.91441C15.3408 9.65506 15.4351 9.43822 15.4925 9.28144C15.5212 9.20308 15.5406 9.1398 15.5534 9.0938C15.5597 9.0708 15.5644 9.05212 15.5677 9.03803C15.5694 9.03099 15.5707 9.0251 15.5717 9.02039L15.573 9.01421L15.5735 9.01179L15.5737 9.01076L15.5738 9.01028V8.98972Z" fill="white"/>
      <path fill-rule="evenodd" clip-rule="evenodd" d="M11.9587 8.99965C11.9587 10.7227 10.5719 12.1194 8.86125 12.1194C7.15057 12.1194 5.76379 10.7227 5.76379 8.99965C5.76379 7.27663 7.15057 5.87985 8.86125 5.87985C10.5719 5.87985 11.9587 7.27663 11.9587 8.99965ZM8.08689 7.24476C8.08689 7.24476 7.7147 7.68363 7.60291 8.02471C7.53083 8.24463 7.50611 8.60967 7.50611 8.60967H6.53816C6.53816 8.60967 6.53816 8.31719 6.73175 7.82972C6.92534 7.34225 7.11893 7.24476 7.11893 7.24476H8.08689ZM7.60291 9.97458C7.7147 10.3157 8.08689 10.7545 8.08689 10.7545H7.11893C7.11893 10.7545 6.92534 10.657 6.73175 10.1696C6.53816 9.6821 6.53816 9.38962 6.53816 9.38962H7.50611C7.50611 9.38962 7.53083 9.75466 7.60291 9.97458Z" fill="white"/>
    </g>
    <defs>
      <filter id="filter0_di_274_16499" x="0.873828" y="4.275" width="15.7504" height="10.85" filterUnits="userSpaceOnUse" color-interpolation-filters="sRGB">
        <feFlood flood-opacity="0" result="BackgroundImageFix"/>
        <feColorMatrix in="SourceAlpha" type="matrix" values="0 0 0 0 0 0 0 0 0 0 0 0 0 0 0 0 0 0 127 0" result="hardAlpha"/>
        <feOffset dy="0.7"/>
        <feGaussianBlur stdDeviation="0.525"/>
        <feComposite in2="hardAlpha" operator="out"/>
        <feColorMatrix type="matrix" values="0 0 0 0 0.368384 0 0 0 0 0.0623777 0 0 0 0 0.0623777 0 0 0 0.25 0"/>
        <feBlend mode="normal" in2="BackgroundImageFix" result="effect1_dropShadow_274_16499"/>
        <feBlend mode="normal" in="SourceGraphic" in2="effect1_dropShadow_274_16499" result="shape"/>
        <feColorMatrix in="SourceAlpha" type="matrix" values="0 0 0 0 0 0 0 0 0 0 0 0 0 0 0 0 0 0 127 0" result="hardAlpha"/>
        <feOffset dy="0.7"/>
        <feGaussianBlur stdDeviation="0.525"/>
        <feComposite in2="hardAlpha" operator="arithmetic" k2="-1" k3="1"/>
        <feColorMatrix type="matrix" values="0 0 0 0 0 0 0 0 0 0 0 0 0 0 0 0 0 0 0.06 0"/>
        <feBlend mode="normal" in2="shape" result="effect2_innerShadow_274_16499"/>
      </filter>
      <radialGradient id="paint0_radial_274_16499" cx="0" cy="0" r="1" gradientUnits="userSpaceOnUse" gradientTransform="translate(8.75 9) rotate(45.6903) scale(10.2715)">
        <stop offset="0.329632" stop-color="#FF5E19"/>
        <stop offset="1" stop-color="#FF2929"/>
      </radialGradient>
    </defs>
  </svg>