<svg xmlns="http://www.w3.org/2000/svg" width="590" height="540"><path fill="#42afeb" d="M276.519 1.356c-10.038 0-18.172 8.076-18.172 18.042v34.726c0 9.959 8.134 18.044 18.172 18.044h36.093c10.037 0 18.185-8.085 18.185-18.044V19.398c0-9.966-8.148-18.042-18.185-18.042zm88.715 54.946c-7.54 0-13.654 6.177-13.654 13.775v26.499c0 7.606 6.115 13.777 13.654 13.777h27.118c7.54 0 13.65-6.171 13.65-13.777v-26.5c0-7.597-6.11-13.774-13.65-13.774zm-168.457 0c-7.537 0-13.652 6.177-13.652 13.775v26.499c0 7.606 6.115 13.777 13.652 13.777h27.117c7.536 0 13.654-6.171 13.654-13.777v-26.5c0-7.597-6.118-13.774-13.654-13.774zm79.742 30.395c-10.038 0-18.172 8.072-18.172 18.043v34.724c0 9.964 8.134 18.047 18.172 18.047h36.093c10.037 0 18.185-8.083 18.185-18.047V104.74c0-9.971-8.148-18.043-18.185-18.043zm158.475 16.279c-5.607 0-10.153 4.585-10.153 10.248v19.713c0 5.65 4.546 10.24 10.153 10.24h20.174c5.604 0 10.152-4.59 10.152-10.24v-19.713c0-5.663-4.548-10.248-10.152-10.248zm-300.14 0c-5.606 0-10.157 4.585-10.157 10.248v19.713c0 5.65 4.55 10.24 10.156 10.24h20.168c5.613 0 10.158-4.59 10.158-10.24v-19.713c0-5.663-4.545-10.248-10.158-10.248zm230.38 20.747c-7.54 0-13.654 6.166-13.654 13.765v26.508c0 7.6 6.115 13.769 13.654 13.769h27.118c7.54 0 13.65-6.17 13.65-13.77v-26.507c0-7.599-6.11-13.765-13.65-13.765zm-168.457 0c-7.537 0-13.652 6.166-13.652 13.765v26.508c0 7.6 6.115 13.769 13.652 13.769h27.117c7.536 0 13.654-6.17 13.654-13.77v-26.507c0-7.599-6.118-13.765-13.654-13.765zm238.217 33.392c-5.607 0-10.153 4.583-10.153 10.239v19.713c0 5.652 4.546 10.242 10.153 10.242h20.174c5.604 0 10.152-4.59 10.152-10.242v-19.713c0-5.656-4.548-10.24-10.152-10.24zm-300.14 0c-5.606 0-10.157 4.583-10.157 10.239v19.713c0 5.652 4.55 10.242 10.156 10.242h20.168c5.613 0 10.158-4.59 10.158-10.242v-19.713c0-5.656-4.545-10.24-10.158-10.24zm141.665 14.18c-10.038 0-18.172 8.08-18.172 18.046v34.726c0 9.965 8.134 18.039 18.172 18.039h36.093c10.037 0 18.185-8.074 18.185-18.039v-34.726c0-9.966-8.148-18.046-18.185-18.046zm218.094 14.836c-4.17 0-7.543 3.408-7.543 7.606v14.633c0 4.198 3.373 7.6 7.543 7.6h14.974c4.158 0 7.528-3.402 7.528-7.6v-14.633c0-4.198-3.37-7.606-7.528-7.606zm-414.175 0c-4.164 0-7.537 3.408-7.537 7.606v14.633c0 4.198 3.373 7.6 7.537 7.6h14.967c4.167 0 7.539-3.402 7.539-7.6v-14.633c0-4.198-3.372-7.606-7.539-7.606zm284.796 5.024c-7.54 0-13.654 6.162-13.654 13.763v26.502c0 7.607 6.115 13.774 13.654 13.774h27.118c7.54 0 13.65-6.167 13.65-13.774v-26.502c0-7.6-6.11-13.763-13.65-13.763zm-168.457 0c-7.537 0-13.652 6.162-13.652 13.763v26.502c0 7.607 6.115 13.774 13.652 13.774h27.117c7.536 0 13.654-6.167 13.654-13.774v-26.502c0-7.6-6.118-13.763-13.654-13.763zm238.217 20.503c-5.607 0-10.153 4.595-10.153 10.256v19.708c0 5.663 4.546 10.24 10.153 10.24h20.174c5.604 0 10.152-4.577 10.152-10.24v-19.708c0-5.66-4.548-10.256-10.152-10.256zm-300.14 0c-5.606 0-10.157 4.595-10.157 10.256v19.708c0 5.663 4.55 10.24 10.156 10.24h20.168c5.613 0 10.158-4.577 10.158-10.24v-19.708c0-5.66-4.545-10.256-10.158-10.256zm359.76 19.04c-4.17 0-7.544 3.405-7.544 7.603v14.634c0 4.19 3.373 7.606 7.543 7.606h14.974c4.158 0 7.528-3.416 7.528-7.606V238.3c0-4.198-3.37-7.602-7.528-7.602zm-414.176 0c-4.164 0-7.537 3.405-7.537 7.603v14.634c0 4.19 3.373 7.606 7.537 7.606h14.967c4.167 0 7.539-3.416 7.539-7.606V238.3c0-4.198-3.372-7.602-7.539-7.602zm463.61 14.623c-3.143 0-5.697 2.567-5.697 5.736v11.04c0 3.16 2.554 5.732 5.697 5.732h11.295c3.13 0 5.682-2.573 5.682-5.732v-11.04c0-3.169-2.552-5.736-5.682-5.736zm-509.365 0c-3.141 0-5.691 2.567-5.691 5.736v11.04c0 3.16 2.55 5.732 5.69 5.732H45.97c3.142 0 5.685-2.573 5.685-5.732v-11.04c0-3.169-2.543-5.736-5.685-5.736z"/><path fill="#fff" d="M124.572 478.123v49.214h3.982v-16.88c2.371 1.712 11.982 8.58 17.733 12.613 4.343 2.833 4.21 3.902 4.267 4.267h5.31c0-2.557-2.898-3.831-6.164-6.07a9809 9809 0 0 1-16.689-11.663s14.319-9.448 16.31-10.81c3.258-2.241 5.88-3.508 5.88-6.068h-5.121c-.046.352.178 1.43-4.173 4.267a4763 4763 0 0 0-17.353 12.327v-31.197zm37.36 0v49.214h3.983v-49.214zm118.91 0v41.912c.003.615-.102 1.73-.474 2.466-.444.732-.618 1.08-1.802 1.138h-19.533c-1.176-.057-1.354-.406-1.802-1.138-.277-.55-.429-1.278-.474-1.897v-20.672c-.012-.633.098-1.824.474-2.56.448-.736.614-1.058 1.802-1.138h19.533v-3.982h-19.533c-2.693-.068-4.7 1.722-5.405 3.413-.786 1.677-.842 3.315-.854 4.267v21.431h.095c.09.846.28 1.911.758 2.94.706 1.68 2.712 3.386 5.405 3.318h19.724c2.606 0 4.51-1.673 5.215-3.319.778-1.68.85-3.326.854-4.267v-41.912zM102.193 492.44c-2.191.316-3.738 1.845-4.362 3.32-.785 1.676-.834 3.318-.853 4.266v27.309h3.983v-27.309c-.006-.637.102-1.828.474-2.56.44-.736.527-.971 1.707-1.043h14.792v-3.983h-14.792c-.337-.01-.636-.045-.949 0zm216.39 0c-2.686-.068-4.681 1.73-5.406 3.414-.781 1.68-.842 3.323-.853 4.267v27.309h4.077v-26.835l-.094-.095v-.38c0-.629.102-1.816.474-2.56.432-.735.626-.978 1.801-1.042h15.362v30.912h3.983V496.52h15.55c1.18.064 1.268.303 1.708 1.043.367.743.485 1.93.474 2.56v27.309h3.982v-27.309c-.012-.944-.068-2.59-.853-4.267-.706-1.684-2.614-3.482-5.31-3.414zm95.582 0c-2.697-.065-4.688 1.734-5.405 3.414-.781 1.68-.846 3.323-.853 4.267v27.309h4.077v-26.835l-.095-.095v-.38c-.024-.629.114-1.816.475-2.56.443-.731.61-1.069 1.801-1.137l18.87.095c1.191.065 1.37.303 1.802 1.043.372.743.49 1.93.474 2.56v27.31h3.983v-27.31c-.012-.944-.069-2.59-.854-4.267-.701-1.68-2.72-3.478-5.405-3.414zm156.84 0c-2.188.313-3.749 1.842-4.363 3.32-.796 1.676-.842 3.314-.853 4.266v27.309h3.983v-27.309c-.019-.64.09-1.828.474-2.56.417-.74.618-.975 1.801-1.043h14.793v-3.983h-14.793c-.335-.01-.73-.045-1.043 0zm-568.187.285v26.55c-.013.122 0 .414 0 .759.006.94.06 2.587.853 4.267.698 1.646 2.61 3.319 5.215 3.319h34.99c2.697.068 4.692-1.639 5.405-3.319.782-1.68.846-3.326.854-4.267v-27.309h-3.983v27.309c.012.615-.11 1.73-.474 2.466-.444.735-.614 1.08-1.802 1.138H28.61v-30.913h-3.983v30.913H9.076c-1.184-.057-1.354-.403-1.802-1.138-.371-.736-.485-1.851-.474-2.466v-27.309zm59.55 0c-2.19.304-3.742 1.835-4.363 3.318-.793 1.677-.85 3.323-.853 4.267v19.724c.003.94.06 2.587.853 4.267.69 1.646 2.606 3.319 5.216 3.319h19.913c2.693.068 4.692-1.639 5.405-3.319.789-1.68.845-3.326.853-4.267l-.095-.664v-18.396l.095-.664c-.006-.944-.065-2.59-.853-4.267-.713-1.695-2.712-3.394-5.405-3.318H63.41c-.336-.01-.73-.043-1.043 0m116.064 0c-2.19.304-3.741 1.835-4.362 3.318-.789 1.677-.933 3.323-.948 4.267l.095.664v18.301l-.095.759c.015.94.16 2.587.948 4.267.702 1.646 2.598 3.319 5.215 3.319h19.913c2.674.068 4.597-1.639 5.31-3.319.786-1.68.843-3.326.854-4.267v-19.724c-.012-.944-.068-2.59-.853-4.267-.714-1.695-2.637-3.394-5.31-3.318H179.38c-.336-.01-.635-.043-.948 0zm34.516 0v3.982h26.55c1.184.065 1.366.307 1.802 1.043.368.736.494 1.942.475 2.56v19.724c.012.615-.107 1.73-.475 2.466-.436.736-.618 1.077-1.801 1.138h-21.24c-1.347-.057-1.446-.376-1.802-.854-.308-.508-.475-1.426-.475-1.896v-8.25c0-.618.099-1.82.475-2.56.432-.736.614-.975 1.801-1.044h21.24v-3.982h-21.24c-2.697-.068-4.68 1.638-5.405 3.319-.785 1.684-.846 3.319-.853 4.267v8.25c.006.842.102 2.359.948 3.887.804 1.552 2.776 2.91 5.31 2.845h21.43c2.618 0 4.522-1.676 5.216-3.319.785-1.684.846-3.326.853-4.267v-19.723c-.006-.945-.068-2.59-.853-4.267-.713-1.692-2.716-3.391-5.405-3.32zm154.753 0v3.982h26.646c1.168.065 1.267.307 1.707 1.043.371.736.474 1.946.474 2.56v19.724c0 .615-.103 1.73-.474 2.466-.44.736-.539 1.077-1.707 1.138H373.01c-1.187-.061-1.358-.402-1.801-1.138-.364-.74-.474-1.851-.474-2.466v-7.397c-.013-.618.11-1.82.474-2.56.443-.735.614-.974 1.801-1.043h21.336v-3.982H373.01c-2.685-.068-4.692 1.638-5.405 3.319-.773 1.684-.853 3.318-.853 4.267v7.396c.006.94.08 2.583.853 4.267.713 1.676 2.72 3.387 5.405 3.319h21.43c2.606 0 4.522-1.677 5.216-3.319.785-1.684.846-3.326.853-4.267V500.31c-.006-.948-.068-2.586-.853-4.267-.702-1.691-2.625-3.39-5.31-3.318zm79.937 0v3.982h26.55c1.177.065 1.362.307 1.802 1.043.372.736.486 1.946.475 2.56v19.724c.012.615-.103 1.73-.475 2.466-.44.736-.625 1.077-1.801 1.138h-21.336c-1.335-.057-1.46-.376-1.801-.854-.315-.508-.38-1.426-.38-1.896v-8.251c0-.618.088-1.82.475-2.56.428-.735.52-.974 1.706-1.043h21.336v-3.982h-21.336c-2.696-.068-4.597 1.638-5.31 3.319-.785 1.684-.846 3.318-.853 4.267v8.25c0 .841.102 2.355.948 3.887.8 1.544 2.776 2.91 5.31 2.845h21.43c2.595 0 4.522-1.677 5.216-3.319.781-1.684.846-3.326.853-4.267v-19.724c-.009-.948-.072-2.586-.853-4.267-.717-1.691-2.72-3.39-5.405-3.318zm43.43 0c-2.192.311-3.745 1.838-4.362 3.318-.482 1.032-.672 2-.759 2.845h-.095v18.87c.016.948.072 2.496.854 4.172.698 1.654 2.61 3.414 5.215 3.414h20.767v-3.983H492.11c-1.176-.065-1.358-.402-1.802-1.137-.372-.736-.482-1.832-.474-2.466v-18.017c.05-.622.212-1.433.474-1.99.444-.733.626-.976 1.802-1.044h21.24c1.188.068 1.358.311 1.802 1.043.372.744.482 1.942.474 2.56v31.103c.006.626-.102 1.824-.474 2.56-.444.732-.614.979-1.802 1.043h-19.06V539h19.25c2.602 0 4.51-1.677 5.215-3.319.782-1.688.839-3.323.854-4.267v-31.102c0-.945-.072-2.587-.854-4.267-.717-1.692-2.712-3.391-5.405-3.32h-21.24c-.337-.01-.73-.044-1.043 0zm40.3 0c-2.186.306-3.728 1.838-4.362 3.318-.774 1.677-.842 3.323-.854 4.267v19.724c0 .94.08 2.583.854 4.267.717 1.677 2.723 3.387 5.405 3.319h26.55v-3.983h-26.55c-1.183-.06-1.358-.402-1.802-1.138-.36-.735-.49-1.85-.474-2.465v-19.724c-.015-.61.114-1.817.474-2.56.444-.736.618-.979 1.802-1.043h21.24c1.176.065 1.358.307 1.802 1.043.319.652.452 1.62.474 2.275v7.492c.006.387-.106 1.111-.379 1.517-.292.376-.49.706-1.896.759H532.41v4.077h21.43c2.397 0 4.279-1.21 5.12-2.655.873-1.453.941-2.905.949-3.698v-7.207c-.006-.948-.068-2.587-.853-4.267-.706-1.692-2.724-3.39-5.405-3.319H532.41c-.335-.01-.73-.044-1.043 0zM63.41 496.708h19.724c1.172.064 1.365.304 1.801 1.043.36.736.482 1.942.474 2.56l-.094.475v18.775l.094.474c.007.615-.113 1.73-.474 2.466-.436.736-.63 1.08-1.801 1.138H63.41c-1.18-.057-1.361-.402-1.801-1.138-.365-.736-.486-1.851-.475-2.466v-19.724c-.012-.618.11-1.824.475-2.56.44-.74.614-.978 1.801-1.043m115.97 0H199.2c1.172.064 1.266.304 1.706 1.043.372.736.482 1.942.474 2.56v19.724c.006.615-.102 1.73-.474 2.466-.44.736-.534 1.08-1.706 1.138H179.38c-1.183-.057-1.263-.402-1.707-1.138-.36-.736-.485-1.851-.474-2.466v-19.724c-.012-.618.114-1.824.474-2.56.444-.74.524-.978 1.707-1.043"/><path d="M581.051 330.188c-4.419-3.558-12.793-4.35-17.637-4.506-2.234-.061-3.732 0-3.732 0H445.965s-3.448-.266-7.666 0c-4.108.265-8.944 1.035-11.97 3.09-7.693 5.186-8.66 13.656-8.66 21.34v97.627h28.296v-85.713c0-12.3 10.537-10.954 10.537-10.954h32.847v96.55h26.968v-96.55h33.613c9.05 0 9.721 7.87 9.752 9.634v87.033H588v-97.354c-.042-3.011-.588-15.084-6.949-20.197m-239.264-4.506c-4.115.265-8.951 1.035-11.986 3.091-7.692 5.185-8.648 13.655-8.648 21.34v97.626h28.292v-85.713c0-12.3 10.54-10.954 10.54-10.954h37.536v-25.39h-48.076s-3.448-.266-7.658 0m-72.108 85.603c0 12.297-10.533 10.958-10.533 10.958h-38.643c-9.035 0-9.718-7.882-9.748-9.653v-87.037h-28.307v97.377c.034 2.988.584 15.077 6.945 20.193 4.415 3.554 12.786 4.35 17.63 4.499 2.238.072 3.732 0 3.732 0h58.924s3.451.273 7.658 0c4.115-.262 8.947-1.043 11.982-3.091 7.684-5.197 8.66-13.644 8.66-21.336v-97.642h-28.3zm-140.166 36.337h28.296V273.995h-28.296zm-25.12-55.711s.257-8.97-5.345-12.843c-5.158-3.535-12.573-3.535-12.573-3.535H34.947s-7.757.52-7.757-7.757v-8.693s-.682-9.183 9.18-9.183h66.82v-24.347H30.896s-11.978-.164-16.734.963C7.865 328.006 1 331.231 1 345.553v34.55c0 18.764 17.888 16.795 17.888 16.795h48.03c11.383 0 10.575 8.406 10.575 8.406v8.306c0 10.98-12.445 9.232-12.445 9.232H1v24.78h82.964s10.863.372 15.858-5.398c5.003-5.769 4.57-15.24 4.57-15.24z"/></svg>