<svg xmlns="http://www.w3.org/2000/svg" xmlns:xlink="http://www.w3.org/1999/xlink" xml:space="preserve" width="797.333" height="677.986" viewBox="1.333 9.018 797.333 677.986"><defs><path id="d" fill="#192c47" fill-opacity="1" fill-rule="nonzero" stroke="none" d="m0 0 17.613 99.761h32.831L32.831 0Z"/></defs><defs><clipPath id="a" clipPathUnits="userSpaceOnUse"><path d="M303.856 398.29c-5.979-7.665-76.496-24.775-132.823-50.154v-72.025L300 201.652l128.967 74.459v14.961c-21.435 4.168-48.369 8.136-81.695 11.016-113.441 9.803-8.402 32.212 39.215 72.386 47.618 40.175-158.259 52.26-158.259 52.26s84.031-17.671 75.628-28.444"/></clipPath><clipPath id="c" clipPathUnits="userSpaceOnUse"><path d="M0 524.999h600V0H0Z"/></clipPath><linearGradient id="b" x1="0" x2="1" y1="0" y2="0" gradientTransform="scale(445.57887 -445.57887)rotate(64.94 1.077 -.149)" gradientUnits="userSpaceOnUse" spreadMethod="pad"><stop offset="0" stop-color="#fff"/><stop offset="1" stop-color="#54bad8"/></linearGradient></defs><path fill="#192c47" d="M400 9.018 206.397 120.794V344.35L400 456.125l193.604-111.776V120.794z"/><g clip-path="url(#a)" transform="matrix(1.33333 0 0 -1.33333 0 699.999)"><path fill="url(#b)" d="M303.856 398.29c-5.979-7.665-76.496-24.775-132.823-50.154v-72.025L300 201.652l128.967 74.459v14.961c-21.435 4.168-48.369 8.136-81.695 11.016-113.441 9.803-8.402 32.212 39.215 72.386 47.618 40.175-158.259 52.26-158.259 52.26s84.031-17.671 75.628-28.444"/></g><g clip-path="url(#c)" transform="matrix(1.33333 0 0 -1.33333 0 699.999)"><path fill="#192c47" d="M74.835 82.594c-1.6 1.878-3.663 3.404-6.2 4.579q-3.804 1.761-8.877 1.762-3.946 0-7.116-1.691t-3.17-5.214q-.001-2.82 2.666-4.368 2.668-1.551 7.863-3.24 6.456-2.116 11.509-4.791 5.054-2.68 8.565-6.2 3.509-3.525 5.405-8.032 1.896-4.511 1.896-10.145-.001-9.583-4.21-16.345-4.21-6.765-10.735-10.991-6.526-4.227-14.39-6.2T42.709 9.747q-5.918.001-11.837.986A73 73 0 0 0 19.53 13.55a60.4 60.4 0 0 0-10.216 4.51Q4.524 20.736 1 24.118L23.263 44.69q1.69-1.975 4.087-3.523a29.5 29.5 0 0 1 5.002-2.607 36 36 0 0 1 5.284-1.691q2.676-.633 4.93-.634 4.933 0 7.893 1.62t2.959 4.72q-.002 2.537-2.466 4.51-2.467 1.972-9.23 4.086-5.357 1.691-10.075 3.945-4.722 2.254-8.172 5.426-3.454 3.17-5.425 7.609-1.974 4.438-1.972 10.779 0 7.747 3.17 14.372 3.17 6.622 9.018 11.484 5.846 4.86 13.949 7.609 8.102 2.746 17.825 2.747 5.354 0 10.568-.916 5.213-.918 9.864-2.536 4.649-1.622 8.594-3.875 3.945-2.255 6.623-5.073zM155.15 84.848l-12.68-72.284h-32.691l12.682 72.284H97.239l4.932 27.477h82.289l-4.933-27.477ZM221.517 69.772q6.479 0 10.145 2.184 3.662 2.183 3.664 6.975 0 4.366-3.03 5.988-3.032 1.62-8.243 1.62h-6.058l-2.96-16.767Zm7.186-57.208-13.668 36.495h-3.945l-6.2-36.495h-31.422l17.613 99.76h41.004q8.17 0 14.795-1.83 6.621-1.834 11.272-5.355 4.649-3.525 7.116-8.665 2.465-5.146 2.466-11.766-.001-12.4-5.847-20.431-5.849-8.032-15.994-10.991l19.446-40.722z"/><use xlink:href="#d" transform="translate(269.847 12.564)"/><path fill="#192c47" d="m409.483 12.564 11.132 57.77h-.845l-29.45-57.77h-22.968l-8.877 57.77h-.704l-8.596-57.77H318.74l17.613 99.76h41.567l8.736-54.67h.705l25.927 54.67H458.8l-17.613-99.76ZM453.867 12.564l4.79 27.336 46.5 45.37h-36.918l4.79 27.055h79.33l-4.227-23.672-49.034-48.331h41.707l-4.932-27.758Z"/><use xlink:href="#d" transform="translate(548.556 12.564)"/></g></svg>