<svg xmlns="http://www.w3.org/2000/svg" width="64" height="64"><path fill="#f05138" d="M63.93 17.608a18 18 0 0 0-.405-3.78c-.5-2.553-1.828-4.893-3.8-6.7a12 12 0 0 0-3.447-2.258c-1.243-.6-2.57-1-3.94-1.22-1.354-.25-2.85-.25-4.203-.368h-33.45a25 25 0 0 0-3.113.251c-1.027.114-2.033.36-3 .736l-.95.368a17.5 17.5 0 0 0-2.585 1.589c-.264.25-.545.368-.81.602a10.9 10.9 0 0 0-2.48 3.044 11.3 11.3 0 0 0-1.342 3.672A36 36 0 0 0 0 17.307V46.46a18 18 0 0 0 .405 3.78c.5 2.553 1.828 4.893 3.8 6.7a12 12 0 0 0 3.394 2.191c1.243.6 2.57 1 3.94 1.22 1.354.25 2.85.25 4.203.368h32.466a24.5 24.5 0 0 0 4.203-.368 14.6 14.6 0 0 0 3.87-1.204 15.5 15.5 0 0 0 3.517-2.191 10.9 10.9 0 0 0 2.445-3.044 11 11 0 0 0 1.354-3.663 36 36 0 0 0 .405-3.78v-28.85z"/><path fill="#fefefe" d="M42.737 47.713c-5.698 2.96-13.525 3.26-21.386.234C15.218 45.6 9.967 41.557 6.28 36.34a26.1 26.1 0 0 0 5.575 3.01c8.125 3.345 16.268 3.194 21.984 0a111 111 0 0 1-20.225-18.866 21 21 0 0 1-2.708-3.345 156 156 0 0 0 19.663 13.38 133 133 0 0 1-13.84-15.605A135.7 135.7 0 0 0 39.59 31.74l.88.468a15 15 0 0 0 .616-1.673c1.9-6.222-.264-13.296-5.012-19.15 10.992 5.97 17.5 17.193 14.79 26.593 0 .25-.14.502-.23.753l.088.1c5.434 6.105 3.94 12.56 3.254 11.34-2.972-5.1-8.477-3.53-11.238-2.46z"/></svg>