<svg xmlns="http://www.w3.org/2000/svg" width="595.279" height="424" viewBox="0 209.445 595.279 424"><path fill="#d1a41a" d="M531.64 594.445 437.037 493.74l-10.896 7.205c-52.431-30.908-91.661-75.49-111.786-142.345-71.662 17.629-155.214 62.845-209.047 124.013q.016.017.03.037c-53.459 57.869-87.91 112.324-97.033 132.129l52.169.334c-2.015-23.424 4.09-42.951 20-64.668 72.167-98.5 343.167 15 450.167 76.5l57-.5c-.001 0-8.501-37.5-56.001-32"/><path fill="#ffdc76" d="M428.14 500.945c-110.127-54.949-140-189-113-281 0 0 20.5 9.5 40 55.5 44.646-12.799 96.667-14.001 142-1.5 0 0 5.5-36 38.5-53 4.992 21.339 38 191-107.5 280"/><path d="M229.617 394.569 261.671 379l18.317 49.455zm-35.945 18.088 19.919-11.906 18.316 32.284zm-38.693 24.956 17.399-11.447 8.7 29.764zm308.172 82.424-11.448-11.447-16.026 25.184zm22.896 27.474-9.158-9.158-27.476 18.316zM315.64 346.862l-1.311-18.231 32.055 16.256zm10.139 26.644-6.389-13.561 22.415 9.211zm210.638-19.233 4.578-13.736-25.185 10.531zm-9.158 27.933 2.289-11.219-18.316 5.495zm-222.086 35.488h59.985v7.419h-59.985zm0-17.859h59.985v7.418h-59.985zm183.163 17.859h59.985v7.419h-59.985zm0-17.859h59.985v7.418h-59.985z"/><path d="m547.277 286.323-.1-.151c-.042-11.562-3.627-60.43-10.2-73.884-17.838 6.819-50.32 28.961-57.572 51.537-35.134-5.291-74.799-4.652-109.706 1.388-5.802-24.4-34.905-42.871-56.892-53.361-9.271 15.758-13.396 52.22-12.331 78.217-.039.027-.083.053-.122.083 4.08 108.774 57.119 176.502 126.478 217.549 71.4-41.047 122.399-121.09 120.358-221.427.029.017.061.031.087.049M427.816 493.599c-109.027-54.727-129.652-193.147-111.064-266.803 5.168 28.505 14.552 46.291 34.905 54.957 18.88-5.445 40.823-8.739 63.263-9.765l16.179 37.412 11.968-37.497c20.707.828 40.93 3.638 58.645 8.554 18.698-13.683 26.066-34.662 29.919-52.906 4.94 21.254 4.375 67.272 4.397 67.272l.138-.755C538 384.597 492.189 456.66 427.817 493.601z"/><path d="M583.444 607.021c-11.197-12.611-33.094-18.563-51.453-18.129-13.011-15.576-88.398-95.549-88.398-95.549l-5.235 6.613 91.12 98.51 3.943-.34c24.707-2.129 38.759 11.357 42.613 15.553 2.721 3.08 4.374 5.883 5.282 8.074h-50.093c-114.693-60.201-215.56-102.617-321.865-111.966.235-14.98 2.878-31.924 7.978-50.852l-9.838-2.691c-5.234 19.43-7.978 36.943-8.296 52.678a506 506 0 0 0-33.772-1.129c-9.61 0-18.361.898-26.294 2.463-10.403-10.467-19.266-20.434-26.746-29.873 49.64-51.994 131.692-99.197 202.865-116.527l-2.313-10.034c-76.612 18.585-160.479 69.095-207.171 118.124-21.669-29.418-30.373-53.59-32.866-71.833-3.218-23.032 2.26-44.239 15.866-61.343 21.307-26.68 51.453-28.505 82.731-23.26-.607 4.948.039 9.669 2.006 12.587 8.229 12.223 52.359 16.534 78.881 4.675-19.493-27.364-58.934-40.818-69.813-35.574-3.627 1.779-6.347 5.04-8.229 8.87-10.767-1.936-21.442-3.375-29.24-3.329-27.427.202-48.507 9.851-64.146 29.417-15.413 19.269-21.646 43.099-18.02 69.096 3.444 24.627 15.549 50.852 35.812 77.989l-9.768 10.764c-49.413 55.641-85.68 115.617-85.68 125.42v5.131h65.279l-1.144-6.088c-3.695-19.611 3.672-44.24 18.767-62.482 9.475-11.492 25.16-24.629 49.866-30.785 21.896 21.504 49.866 44.24 80.92 66.359h48.506v-5.131c0-5.793-2.855-10.855-8.023-14.275-7.662-5.039-19.493-5.746-30.373-2.012-10.358-11.605-16.185-27.137-17.431-46.291 105.398 9.395 206.038 52.221 319.597 111.967h62.559l-.002-4.063c-.997-12-8.38-20.736-8.38-20.736zM77.981 545.906c-15.458 18.768-23.573 43.557-21.76 64.764H14.968c8.273-17.992 41.254-70.008 89.759-122.686 6.71 8.348 14.167 16.762 22.372 25.313-23.801 7.229-39.666 20.66-49.413 32.609zm288.822-221.515-.003-.001-.002.005z"/><path d="M507.276 325.238v-6.687c-24.772 0-39.609 9.799-46.707 30.68h-53.575c3.746-16.713 4.388-33.106-1.131-42.585-3.113-5.334-8.014-8.173-14.172-8.173-22.071 0-30.781 22.621-31.138 23.582l6.247 2.334c.249-.827 7.556-19.204 24.954-19.204 3.801 0 6.471 1.534 8.402 4.854 4.52 7.784 3.786 23.078.031 39.151h-30.451v6.686l28.959.027c-3.091 10.967-7.418 21.796-12.294 30.451l-1.578 2.771 38.235 24.04-21.477 14.15 3.687 5.586 24.041-15.821 25.871 16.895 3.549-5.652-24.04-14.86 37.777-24.499q-.017-.023-.029-.042l-.13-.076.043-.007c-7.92-11.674-10.417-21.655-7.123-32.962l31.219.041.067-6.64h-29.077c5.496-12.661 13.052-24.04 39.84-24.04m-78.24 83.779-28.16-17.744 55.178.014zm29.395-53.114c-2.381 7.555-1.419 18.935 4.419 28.619h-67.999c4.144-8.288 7.968-18.385 10.761-28.619z"/></svg>