<?xml version="1.0" encoding="utf-8"?>
<!-- Generator: Adobe Illustrator 25.0.1, SVG Export Plug-In . SVG Version: 6.00 Build 0)  -->
<svg version="1.0" id="katman_1" xmlns="http://www.w3.org/2000/svg" xmlns:xlink="http://www.w3.org/1999/xlink" x="0px" y="0px"
	 viewBox="0 0 800 600" style="enable-background:new 0 0 800 600;" xml:space="preserve">
<style type="text/css">
	.st0{fill:url(#SVGID_1_);}
	.st1{fill:url(#SVGID_2_);}
</style>
<path d="M364.7,246.1h16.9L363.2,300h-16.9l-18.5-53.9h17.1l10.2,33h0.2C355.3,279.1,364.7,246.1,364.7,246.1z M436,300h-39.4v-53.9
	h39.2v13.6h-23.6v7.1h20.9v12.2h-20.9v7.4H436V300z M477.6,245.2c11.3,0,19.6,5.8,22.1,15.1l-14.7,6.4c-0.7-4.2-2.9-7.4-7.6-7.4
	c-5.3,0-9.3,4.4-9.3,14c0,9.6,3.8,14.2,9.3,14.2c4.5,0,6.9-3.4,7.6-7.6l14.7,6.4c-2.5,9.3-10.9,15.1-22.1,15.1
	c-16.2,0-26.1-10.7-26.1-28S461.4,245.2,477.6,245.2z M527.9,300v-40.3h-16.2v-13.6h48.5v13.6H544V300H527.9L527.9,300z
	 M625.6,273.1c0,17.2-10,28-26.1,28c-16,0-26.1-10.7-26.1-28s10.2-28,26.1-28C615.6,245.2,625.6,255.9,625.6,273.1z M590.2,273.1
	c0,8.7,3.3,14.2,9.4,14.2s9.4-5.3,9.4-14.2c0-8.7-3.3-14.2-9.4-14.2S590.2,264.2,590.2,273.1z M674.6,300c-1.5-1.8-2-3.4-2.5-6.4
	l-1.1-6c-0.7-3.8-2.5-4.9-5.8-4.9h-6.4V300h-16v-53.9h25.6c12.2,0,20.7,4.7,20.7,16.5c0,7.8-5.3,12.3-11.1,13.4v0.2
	c4.7,0.7,7.4,3.6,8.5,8.5l2,8.5c0.7,2.9,1.6,4.7,3.4,6.7C692,300,674.6,300,674.6,300z M666.4,259.3h-7.8V270h7.8
	c3.8,0,5.8-1.6,5.8-5.4C672.2,261.1,670.4,259.3,666.4,259.3z M344.9,340.5c3.3,0.4,5.6,2.4,5.6,6c0,4.4-2.7,7.3-8.7,7.3h-9.3v-26.1
	h8.9c5.1,0,8.2,2.4,8.2,6.9C349.6,337.7,347.6,339.9,344.9,340.5L344.9,340.5z M335.8,339.4h5.4c3.3,0,5.1-1.5,5.1-4.5
	s-1.8-4.5-5.1-4.5h-5.4V339.4z M335.8,351h5.8c3.6,0,5.4-1.6,5.4-4.5c0-2.9-2-4.5-5.4-4.5h-5.8V351z M363.8,340.3l7.1-12.7h3.4
	l-8.9,15.8v10.2h-3.3v-10.2l-9.1-15.8h3.6L363.8,340.3L363.8,340.3z M390.5,327.6h7.6c7.3,0,12.7,4,12.7,12.9s-5.4,13.1-12.7,13.1
	h-7.6V327.6z M393.7,350.8h4.4c4.7,0,9.3-2.5,9.3-10.3s-4.5-10.2-9.3-10.2h-4.4C393.7,330.3,393.7,350.8,393.7,350.8z M429.9,346.5
	H419l-2.5,7.3h-3.3l9.4-26.1h3.6l9.4,26.1h-3.3L429.9,346.5L429.9,346.5z M419.9,343.6h8.9l-4.4-12.5L419.9,343.6z M444,353.7v-23.2
	h-8.7v-2.9h20.9v2.9h-8.7v23.2H444z M472.3,346.5h-10.9l-2.5,7.3h-3.3l9.4-26.1h3.6l9.4,26.1h-3.3L472.3,346.5z M462.5,343.6h8.9
	l-4.4-12.5L462.5,343.6z M483.2,327.6h7.6c7.3,0,12.7,4,12.7,12.9s-5.4,13.1-12.7,13.1h-7.6V327.6z M486.5,350.8h4.4
	c4.7,0,9.3-2.5,9.3-10.3s-4.5-10.2-9.3-10.2h-4.4C486.5,330.3,486.5,350.8,486.5,350.8z M530.6,340.7c0,8.4-4.5,13.4-11.3,13.4
	s-11.3-5.1-11.3-13.4c0-8.4,4.5-13.4,11.3-13.4S530.6,332.3,530.6,340.7z M511.6,340.7c0,6.4,2.7,10.7,7.8,10.7s7.8-4.4,7.8-10.7
	c0-6.4-2.7-10.7-7.8-10.7S511.6,334.3,511.6,340.7z M556.6,340.5v13.1H554l-0.5-3.8c-0.9,2.7-3.8,4.4-7.3,4.4
	c-6.5,0-11.1-4.9-11.1-13.4c0-8.7,4.9-13.6,11.4-13.6c4.7,0,8,2,9.4,6l-2.9,1.6c-0.9-3.1-3.4-4.9-6.7-4.9c-5.1,0-8,4-8,10.7
	c0,6.4,2.5,10.7,8,10.7c3.4,0,6.7-1.8,6.7-6.5V343h-6.4v-2.7h9.8L556.6,340.5z"/>
<linearGradient id="SVGID_1_" gradientUnits="userSpaceOnUse" x1="128.0459" y1="579.2074" x2="313.2256" y2="472.2935" gradientTransform="matrix(1 0 0 1 -20.96 -225.764)">
	<stop  offset="0" style="stop-color:#10E7FF"/>
	<stop  offset="0.103" style="stop-color:#33D5FF"/>
	<stop  offset="0.255" style="stop-color:#60BDFF"/>
	<stop  offset="0.408" style="stop-color:#86AAFF"/>
	<stop  offset="0.56" style="stop-color:#A39AFF"/>
	<stop  offset="0.71" style="stop-color:#B790FF"/>
	<stop  offset="0.858" style="stop-color:#C489FF"/>
	<stop  offset="1" style="stop-color:#C887FF"/>
</linearGradient>
<path class="st0" d="M199.7,408.2l-92.2-54.1V245.9l92.2-54.1l92.2,54.1v108.2L199.7,408.2z M120.3,346.5l79.1,46.5l79.1-46.5v-92.9
	l-79-46.5l-79.3,46.5C120.3,253.5,120.3,346.5,120.3,346.5z"/>
<linearGradient id="SVGID_2_" gradientUnits="userSpaceOnUse" x1="185.3542" y1="542.0127" x2="277.202" y2="488.9837" gradientTransform="matrix(1 0 0 1 -20.96 -225.764)">
	<stop  offset="0" style="stop-color:#10E7FF"/>
	<stop  offset="0.103" style="stop-color:#33D5FF"/>
	<stop  offset="0.255" style="stop-color:#60BDFF"/>
	<stop  offset="0.408" style="stop-color:#86AAFF"/>
	<stop  offset="0.56" style="stop-color:#A39AFF"/>
	<stop  offset="0.71" style="stop-color:#B790FF"/>
	<stop  offset="0.858" style="stop-color:#C489FF"/>
	<stop  offset="1" style="stop-color:#C887FF"/>
</linearGradient>
<path class="st1" d="M239.4,270.6l-32.3,56.8l10.5,18.5l42.8-75.3C260.5,270.6,239.4,270.6,239.4,270.6z M203.3,270.6L171,327.4
	l10.5,18.5l42.8-75.3C224.4,270.6,203.3,270.6,203.3,270.6z M138.9,270.6l42.8,75.3l10.5-18.5l-32.3-56.8
	C159.9,270.6,138.9,270.6,138.9,270.6z M138.9,270.6l42.8,75.3l10.5-18.5l-32.3-56.8C159.9,270.6,138.9,270.6,138.9,270.6z
	 M203.3,270.6L171,327.4l10.5,18.5l42.8-75.3C224.4,270.6,203.3,270.6,203.3,270.6z"/>
</svg>
