<svg xmlns="http://www.w3.org/2000/svg" xml:space="preserve" version="1.0" viewBox="0 0 800 600"><path d="M364.7 246.1h16.9L363.2 300h-16.9l-18.5-53.9h17.1l10.2 33h.2zM436 300h-39.4v-53.9h39.2v13.6h-23.6v7.1h20.9V279h-20.9v7.4H436zm41.6-54.8c11.3 0 19.6 5.8 22.1 15.1l-14.7 6.4c-.7-4.2-2.9-7.4-7.6-7.4-5.3 0-9.3 4.4-9.3 14s3.8 14.2 9.3 14.2c4.5 0 6.9-3.4 7.6-7.6l14.7 6.4c-2.5 9.3-10.9 15.1-22.1 15.1-16.2 0-26.1-10.7-26.1-28s9.9-28.2 26.1-28.2m50.3 54.8v-40.3h-16.2v-13.6h48.5v13.6H544V300zm97.7-26.9c0 17.2-10 28-26.1 28-16 0-26.1-10.7-26.1-28s10.2-28 26.1-28c16.1.1 26.1 10.8 26.1 28m-35.4 0c0 8.7 3.3 14.2 9.4 14.2s9.4-5.3 9.4-14.2c0-8.7-3.3-14.2-9.4-14.2s-9.4 5.3-9.4 14.2m84.4 26.9c-1.5-1.8-2-3.4-2.5-6.4l-1.1-6c-.7-3.8-2.5-4.9-5.8-4.9h-6.4V300h-16v-53.9h25.6c12.2 0 20.7 4.7 20.7 16.5 0 7.8-5.3 12.3-11.1 13.4v.2c4.7.7 7.4 3.6 8.5 8.5l2 8.5c.7 2.9 1.6 4.7 3.4 6.7.1.1-17.3.1-17.3.1m-8.2-40.7h-7.8V270h7.8c3.8 0 5.8-1.6 5.8-5.4 0-3.5-1.8-5.3-5.8-5.3m-321.5 81.2c3.3.4 5.6 2.4 5.6 6 0 4.4-2.7 7.3-8.7 7.3h-9.3v-26.1h8.9c5.1 0 8.2 2.4 8.2 6.9 0 3.1-2 5.3-4.7 5.9m-9.1-1.1h5.4c3.3 0 5.1-1.5 5.1-4.5s-1.8-4.5-5.1-4.5h-5.4zm0 11.6h5.8c3.6 0 5.4-1.6 5.4-4.5s-2-4.5-5.4-4.5h-5.8zm28-10.7 7.1-12.7h3.4l-8.9 15.8v10.2h-3.3v-10.2l-9.1-15.8h3.6zm26.7-12.7h7.6c7.3 0 12.7 4 12.7 12.9s-5.4 13.1-12.7 13.1h-7.6zm3.2 23.2h4.4c4.7 0 9.3-2.5 9.3-10.3s-4.5-10.2-9.3-10.2h-4.4zm36.2-4.3H419l-2.5 7.3h-3.3l9.4-26.1h3.6l9.4 26.1h-3.3zm-10-2.9h8.9l-4.4-12.5zm24.1 10.1v-23.2h-8.7v-2.9h20.9v2.9h-8.7v23.2zm28.3-7.2h-10.9l-2.5 7.3h-3.3l9.4-26.1h3.6l9.4 26.1h-3.3zm-9.8-2.9h8.9l-4.4-12.5zm20.7-16h7.6c7.3 0 12.7 4 12.7 12.9s-5.4 13.1-12.7 13.1h-7.6zm3.3 23.2h4.4c4.7 0 9.3-2.5 9.3-10.3s-4.5-10.2-9.3-10.2h-4.4zm44.1-10.1c0 8.4-4.5 13.4-11.3 13.4S508 349 508 340.7c0-8.4 4.5-13.4 11.3-13.4s11.3 5 11.3 13.4m-19 0c0 6.4 2.7 10.7 7.8 10.7s7.8-4.4 7.8-10.7c0-6.4-2.7-10.7-7.8-10.7s-7.8 4.3-7.8 10.7m45-.2v13.1H554l-.5-3.8c-.9 2.7-3.8 4.4-7.3 4.4-6.5 0-11.1-4.9-11.1-13.4 0-8.7 4.9-13.6 11.4-13.6 4.7 0 8 2 9.4 6l-2.9 1.6c-.9-3.1-3.4-4.9-6.7-4.9-5.1 0-8 4-8 10.7 0 6.4 2.5 10.7 8 10.7 3.4 0 6.7-1.8 6.7-6.5V343h-6.4v-2.7h9.8z"/><linearGradient id="a" x1="128.046" x2="313.226" y1="579.207" y2="472.293" gradientTransform="translate(-20.96 -225.764)" gradientUnits="userSpaceOnUse"><stop offset="0" style="stop-color:#10e7ff"/><stop offset=".103" style="stop-color:#33d5ff"/><stop offset=".255" style="stop-color:#60bdff"/><stop offset=".408" style="stop-color:#86aaff"/><stop offset=".56" style="stop-color:#a39aff"/><stop offset=".71" style="stop-color:#b790ff"/><stop offset=".858" style="stop-color:#c489ff"/><stop offset="1" style="stop-color:#c887ff"/></linearGradient><path d="m199.7 408.2-92.2-54.1V245.9l92.2-54.1 92.2 54.1v108.2zm-79.4-61.7 79.1 46.5 79.1-46.5v-92.9l-79-46.5-79.3 46.5c.1-.1.1 92.9.1 92.9" style="fill:url(#a)"/><linearGradient id="b" x1="185.354" x2="277.202" y1="542.013" y2="488.984" gradientTransform="translate(-20.96 -225.764)" gradientUnits="userSpaceOnUse"><stop offset="0" style="stop-color:#10e7ff"/><stop offset=".103" style="stop-color:#33d5ff"/><stop offset=".255" style="stop-color:#60bdff"/><stop offset=".408" style="stop-color:#86aaff"/><stop offset=".56" style="stop-color:#a39aff"/><stop offset=".71" style="stop-color:#b790ff"/><stop offset=".858" style="stop-color:#c489ff"/><stop offset="1" style="stop-color:#c887ff"/></linearGradient><path d="m239.4 270.6-32.3 56.8 10.5 18.5 42.8-75.3zm-36.1 0L171 327.4l10.5 18.5 42.8-75.3zm-64.4 0 42.8 75.3 10.5-18.5-32.3-56.8zm0 0 42.8 75.3 10.5-18.5-32.3-56.8zm64.4 0L171 327.4l10.5 18.5 42.8-75.3z" style="fill:url(#b)"/></svg>