<svg height="58.054" width="64.06" xmlns="http://www.w3.org/2000/svg"><path d="m561.16106 571.25413c-2.21807 0-4.00374 1.7857-4.00374 4.0037v38.0355c0 2.2181 1.78567 4.0038 4.00374 4.0038h20.01869v8.0075h-8.00747v2.0018h-4.00374v2.0019h40.03738v-2.0019h-4.00373v-2.0018h-8.00748v-8.0075h20.01869c2.21807 0 4.00374-1.7857 4.00374-4.0038v-38.0355c0-2.218-1.78567-4.0037-4.00374-4.0037zm0 4.0037h56.05234v38.0355h-56.05234zm29.02711 7.5696-10.88517 5.5051 10.88517 6.5061 11.13539-6.5061zm-10.88517 7.507v12.0112l10.00935 6.0056v-12.0112zm22.02056.062-10.00934 6.0056v12.0112l10.00934-6.0056z" fill="#00bcf2" transform="translate(-557.157 -571.254)"/></svg>