<svg id="Layer_1" data-name="Layer 1" xmlns="http://www.w3.org/2000/svg" viewBox="0 0 122.88 76.64"><defs><style>.cls-1{fill:#f68633;}.cls-2{fill:#fff;}</style></defs><title>aws-vpc</title><path class="cls-1" d="M15.92,32.33c0-.31,0-.6,0-.91A31.4,31.4,0,0,1,76,18.59,15.91,15.91,0,0,1,100.86,31.2c12.39,1.06,22,13.08,22,22.65v2.08c0,10.3-11.13,20.71-24.85,20.71H24.85C11.13,76.64,0,66.23,0,55.93V53.86C0,45.93,6.62,35,15.92,32.34Z"/><path class="cls-2" d="M32,36.24h4.89l4.89,23h.07l5.18-23H52L44.68,65.1H38.82L32,36.24Zm22.88,0h9.14c5.55,0,8,3.48,8,8.41,0,5.18-3,8.53-8.45,8.53H59.54V65.11H54.93V36.24ZM59.53,49.7h3.28c2.45,0,4.6-1.33,4.6-5,0-3.11-1.24-5-4.94-5H59.52v10Zm34.16,5.06v.6c0,5.22-2.1,10.31-8.89,10.31-7.28,0-9.54-4.69-9.54-15s2.27-15,9.58-15c8.21,0,8.69,6.06,8.69,9.06v.53h-4.6v-.48c0-2.67-.81-5.74-4.13-5.62s-4.93,2.1-4.93,11.4,1.54,11.64,4.93,11.64c3.84,0,4.29-4.29,4.29-7v-.5l4.6,0Z"/></svg>