<svg xmlns="http://www.w3.org/2000/svg" width="200" height="200"><path fill="#ECECED" d="M0 0h200v200H0z"/><path fill="#060708" d="M95.98 32.512C99 33 99 33 100.8 34.52 112.588 52.397 119.86 73.288 128 93h1l.456-2.053c2.654-11.899 5.353-23.775 8.669-35.51l.694-2.496c1.81-6.26 4.268-12.116 7.181-17.941 3.958-.029 7.917-.047 11.875-.062l3.418-.026 3.262-.01 3.015-.016C170 35 170 35 172 36c-1.287 17.697-7.456 35.007-12.294 51.996a2776 2776 0 0 0-4.479 15.942q-5.094 18.298-10.477 36.516-.993 3.379-1.973 6.76l-1.027 3.474-.828 2.824c-1.033 2.788-2.166 5.084-3.922 7.488-3.5.563-3.5.563-7 0-2.33-2.569-3.694-5.273-5.016-8.457l-1.105-2.627-1.129-2.728a491 491 0 0 0-8.978-20.266c-3.485-7.417-6.846-14.888-10.21-22.36l-1.927-4.275Q99.317 95.144 97 90c-2.099 2.65-3.673 5.177-5.034 8.268l-1.124 2.533-1.194 2.73-1.267 2.866q-2.008 4.55-4.006 9.103l-2.621 5.941-1.305 2.957-1.3 2.946-1.297 2.936-2.571 5.822q-1.292 2.923-2.581 5.847c-1.236 2.8-2.48 5.598-3.723 8.395l-1.129 2.565-1.049 2.347-.91 2.054C65 159 65 159 63 161c-3.625.125-3.625.125-7 0-3.296-6.08-5.305-11.954-7.062-18.625q-.906-3.335-1.817-6.668l-1.008-3.697c-1.887-6.848-3.902-13.66-5.893-20.479-4.317-14.798-8.506-29.618-12.422-44.529-.842-3.17-1.715-6.33-2.591-9.49q-.854-3.131-1.707-6.262l-.812-2.87C21.393 43.56 20.623 39.948 22 35c3.895-.233 7.788-.375 11.688-.5l3.341-.203c7.943-.192 7.943-.192 10.775 2.273C49.172 38.666 50.12 40.66 51 43c.43 1.114.859 2.227 1.3 3.375L53.314 50l.583 2.065c2.678 9.69 5.034 19.477 7.426 29.242l.513 2.09q.701 2.853 1.396 5.708c.641 2.809.641 2.809 1.769 4.895 4.507-10.38 8.944-20.771 13.063-31.312 2.502-6.362 5.195-12.57 8.25-18.688l.986-1.978c4.52-8.828 4.52-8.828 8.681-9.51"/><path fill="#3A738E" d="M0 0h200v200H0zm6 6v187h187V6z"/><path fill="#50656E" d="M4 4h191v191H4zm2 2v187h187V6z"/><path fill="#DBDBDB" d="M6 6h187v187H6zm2 2v183l90.875.125 28.738.055c8.47.007 8.47.007 16.94.01q5.678.005 11.355.021 7.23.02 14.46.015 2.662 0 5.322.012c2.387.01 4.773.008 7.16.003l2.128.017c3.954.076 3.954.076 7.022-2.258.303-3.17.303-3.17.247-6.978l.008-2.201c.005-2.447-.003-4.894-.012-7.34q.001-2.624.006-5.248c.005-4.76-.003-9.52-.013-14.28-.009-4.974-.007-9.949-.007-14.923q-.002-12.532-.023-25.066-.023-14.502-.02-29.004 0-13.932-.013-27.865-.006-5.937-.006-11.874-.002-6.99-.017-13.979-.004-2.57-.004-5.138 0-3.5-.012-7l-.005-3.96c.015-3.173.015-3.173-1.129-6.144z"/><path fill="#DAE0E3" d="M3 3h194v194H3zm1 1v191h191V4z"/><path fill="#0E4B76" d="m176 42 5 1c.288 6.148-.589 10.807-2.598 16.59a1621 1621 0 0 0-1.664 5.054l-.873 2.655c-1.453 4.538-2.753 9.119-4.049 13.705l-.801 2.834q-1.23 4.361-2.452 8.725l-1.73 6.135c-2.972 10.562-5.893 21.134-8.708 31.74a858 858 0 0 1-6.875 24.437l-.855 2.924-.817 2.693-.706 2.355c-.992 2.45-2.078 4.21-3.872 6.153-3.187.25-3.187.25-6 0-.75-1.75-.75-1.75-1-4l1.813-1.687c2.672-2.826 2.978-4.855 3.597-8.606.518-2.378 1.184-4.543 1.972-6.84 1.498-4.452 2.827-8.932 4.098-13.453l1.58-5.57.91-3.215c1.881-6.63 3.776-13.254 5.668-19.88a98648 98648 0 0 0 8.217-28.778l5.148-18.036 2.543-8.908c.771-2.696 1.567-5.367 2.454-8.027"/><path fill="#0A4773" d="M96 99c1.959 1.802 2.953 3.224 3.117 5.918-.34 4.168-1.289 7.83-2.879 11.691l-1.085 2.643C89.216 133.405 83.039 147.36 76 161l-1.598 3.371C73 167 73 167 71 168c-2.333.04-4.667.043-7 0 .402-2.71.986-3.984 2.793-6.094 2.79-3.674 4.45-7.499 6.27-11.719q1.181-2.687 2.367-5.375l1.257-2.859c1.814-4.078 3.692-8.126 5.57-12.176 4.165-8.992 8.173-17.987 11.72-27.242C95 100 95 100 96 99"/><path fill="#144E78" d="M55 42c4.26 3.679 5.31 8.797 7 14l.887 2.676C65.126 66.048 65.675 73.326 66 81h-2l-.7-2.797-.469-1.878-1.049-4.203q-1.563-6.27-3.16-12.532l-.692-2.722q-.672-2.652-1.355-5.303l-.622-2.46-.557-2.182C55 45 55 45 55 42"/><path fill="#1B537C" d="M110 43h2q3.4 7.335 6.781 14.679 1.15 2.497 2.308 4.99 1.663 3.59 3.313 7.186l1.045 2.242C127.103 75.72 128.45 79.016 129 83h-2c-17-32.944-17-32.944-17-40"/><path fill="#808387" d="m111 96 1.813.5c2.3.611 2.3.611 5.187.5-.492 5.538-.492 5.538-3.062 7.875L113 106c-3.077-4.308-3.077-4.308-2.687-7.812z"/><path fill="#868A8E" d="M33 44h7l1 3 2 1c-1.75 3.875-1.75 3.875-4 5v-3h-3v-3h-2z"/><path fill="#2D5F84" d="M122 67c1.75 2.624 3.197 5.195 4.625 8l1.352 2.625C129 80 129 80 129 83h-2a483 483 0 0 1-3.062-5.75l-1.723-3.234C120.99 70.974 120.747 69.95 122 67"/><path fill="#D4D8DD" d="M112 51c2.004 3.006 3.261 5.85 4.625 9.188l1.352 3.292L119 66l-3 1a338 338 0 0 1-2.562-5.187l-1.442-2.918c-1.091-3.172-.962-4.732.004-7.895"/><path fill="#787C81" d="M44 71c1.063 1.875 1.063 1.875 2 4l-1 2h2v2l3 1c-3.75 1.125-3.75 1.125-6 0v-2h-2c-.125-2.375-.125-2.375 0-5z"/><path fill="#B5BABE" d="M134 128c1.75 5.252.91 8.867-1 14l-3-1 2-7-2-1 3-1c.733-2.015.733-2.015 1-4"/><path fill="#285C82" d="M55 42c2.873 2.422 3.708 4.597 4.688 8.188l.761 2.73L61 55h-2l-1 2q-.755-2.904-1.5-5.812l-.844-3.27C55 45 55 45 55 42"/><path fill="#AAB0B5" d="m129 123 1 4h-2l-1 3c-2.062.688-2.062.688-4 1 .376-2.782.673-4.588 2.438-6.812C127 123 127 123 129 123"/><path fill="#B6BABE" d="m131 143 5 3-2 4h-2c-2-3-2-3-1.625-5.187z"/><path fill="#363A3D" d="M120 111c2.125.938 2.125.938 4 2l-1 4h-5v-5z"/><path fill="#275B81" d="M110 43h2c3 5.75 3 5.75 3 8h-3z"/><path fill="#B9BCC0" d="m146 76 2 1c.625 2.063.625 2.063 1 4l-5 2c.875-5.875.875-5.875 2-7"/><path fill="#43474C" d="m111 96 1.813.5c2.3.611 2.3.611 5.187.5l-2 4-1-2c-2.025-.652-2.025-.652-4-1z"/></svg>