<?xml version="1.0" encoding="UTF-8"?>
<svg version="1.1" xmlns="http://www.w3.org/2000/svg" width="200" height="200">
<path d="M0 0 C66 0 132 0 200 0 C200 66 200 132 200 200 C134 200 68 200 0 200 C0 134 0 68 0 0 Z " fill="#ECECED" transform="translate(0,0)"/>
<path d="M0 0 C3.01953125 0.48828125 3.01953125 0.48828125 4.8203125 2.0078125 C16.6068274 19.88554957 23.88006433 40.77613049 32.01953125 60.48828125 C32.34953125 60.48828125 32.67953125 60.48828125 33.01953125 60.48828125 C33.16986816 59.81063721 33.32020508 59.13299316 33.47509766 58.43481445 C36.12940625 46.53657022 38.82882247 34.65986161 42.14453125 22.92578125 C42.37350098 22.10182861 42.6024707 21.27787598 42.83837891 20.42895508 C44.64911336 14.1683824 47.10678228 8.3137792 50.01953125 2.48828125 C53.97784934 2.45935268 57.93614042 2.44150698 61.89453125 2.42578125 C63.58642578 2.41321289 63.58642578 2.41321289 65.3125 2.40039062 C66.38886719 2.39716797 67.46523437 2.39394531 68.57421875 2.390625 C69.56921387 2.38538818 70.56420898 2.38015137 71.58935547 2.37475586 C74.01953125 2.48828125 74.01953125 2.48828125 76.01953125 3.48828125 C74.73247717 21.18527482 68.56337295 38.49519766 63.72509766 55.48460388 C62.21383798 60.79357254 60.72615074 66.10886383 59.24658203 71.42675781 C55.85115569 83.62694299 52.35751694 95.7967881 48.77001953 107.94189453 C48.10627994 110.19394525 47.45055004 112.4481395 46.796875 114.703125 C46.45785156 115.84910156 46.11882812 116.99507813 45.76953125 118.17578125 C45.49625 119.10777344 45.22296875 120.03976563 44.94140625 121 C43.90826425 123.78860787 42.77595967 126.08385011 41.01953125 128.48828125 C37.51953125 129.05078125 37.51953125 129.05078125 34.01953125 128.48828125 C31.69032499 125.91951377 30.32504494 123.21481793 29.00390625 120.03125 C28.45669922 118.7309082 28.45669922 118.7309082 27.8984375 117.40429688 C27.52589844 116.50388672 27.15335937 115.60347656 26.76953125 114.67578125 C23.92693604 107.84636929 20.9386789 101.10404649 17.79118347 94.41018677 C14.30677234 86.99376448 10.94576741 79.52250565 7.58203125 72.05078125 C6.93954292 70.62561056 6.29696514 69.20048019 5.65429688 67.77539062 C4.10835011 64.34681542 2.5635914 60.91770659 1.01953125 57.48828125 C-1.07933564 60.13809662 -2.65327796 62.66483265 -4.01416016 65.75585938 C-4.38529938 66.59193726 -4.7564386 67.42801514 -5.13882446 68.28942871 C-5.72946182 69.64082947 -5.72946182 69.64082947 -6.33203125 71.01953125 C-6.95952774 72.43812439 -6.95952774 72.43812439 -7.59970093 73.88537598 C-8.93978377 76.91757438 -10.27283197 79.952804 -11.60546875 82.98828125 C-12.47868018 84.96896455 -13.3523736 86.94943542 -14.2265625 88.9296875 C-14.6571698 89.90526611 -15.0877771 90.88084473 -15.53143311 91.88598633 C-15.96063049 92.85818115 -16.38982788 93.83037598 -16.83203125 94.83203125 C-17.47365204 96.2854895 -17.47365204 96.2854895 -18.12823486 97.76831055 C-18.9851369 99.70895236 -19.84233252 101.64946457 -20.6998291 103.58984375 C-21.56090976 105.5387046 -22.42116642 107.48792971 -23.28063965 109.4375 C-24.51694251 112.23782876 -25.7595315 115.03528175 -27.00390625 117.83203125 C-27.37633453 118.67842163 -27.74876282 119.52481201 -28.13247681 120.39685059 C-28.47853973 121.1714563 -28.82460266 121.94606201 -29.18115234 122.74414062 C-29.48169525 123.42198608 -29.78223816 124.09983154 -30.09188843 124.79821777 C-30.98046875 126.48828125 -30.98046875 126.48828125 -32.98046875 128.48828125 C-36.60546875 128.61328125 -36.60546875 128.61328125 -39.98046875 128.48828125 C-43.27626347 122.4092128 -45.28518361 116.53462517 -47.04296875 109.86328125 C-47.646422 107.64007694 -48.25203748 105.41745884 -48.859375 103.1953125 C-49.35848389 101.36540771 -49.35848389 101.36540771 -49.86767578 99.49853516 C-51.75469411 92.65021956 -53.76970103 85.83809327 -55.76037598 79.01937866 C-60.07705957 64.22107163 -64.26664873 49.40108799 -68.18212891 34.49072266 C-69.02492136 31.32110136 -69.8971217 28.16050649 -70.7734375 25 C-71.34264124 22.91281313 -71.91165907 20.82557555 -72.48046875 18.73828125 C-72.74835205 17.79090088 -73.01623535 16.84352051 -73.29223633 15.86743164 C-74.58770119 11.04911119 -75.35699644 7.43722603 -73.98046875 2.48828125 C-70.08564659 2.25546052 -66.19261021 2.11371486 -62.29296875 1.98828125 C-61.19017578 1.92125 -60.08738281 1.85421875 -58.95117188 1.78515625 C-51.00873363 1.593194 -51.00873363 1.593194 -48.17651367 4.05859375 C-46.80858109 6.15384883 -45.86054517 8.14836861 -44.98046875 10.48828125 C-44.55121094 11.60203125 -44.12195313 12.71578125 -43.6796875 13.86328125 C-43.34582031 15.05953125 -43.01195313 16.25578125 -42.66796875 17.48828125 C-42.47557617 18.16963135 -42.28318359 18.85098145 -42.08496094 19.55297852 C-39.40649331 29.24351082 -37.05015037 39.03018669 -34.65893555 48.79492188 C-34.48937851 49.4844545 -34.31982147 50.17398712 -34.14512634 50.88441467 C-33.67780529 52.78696632 -33.2133321 54.69021681 -32.74902344 56.59350586 C-32.10807569 59.40200282 -32.10807569 59.40200282 -30.98046875 61.48828125 C-26.4732901 51.10792148 -22.03674362 40.71703502 -17.91796875 30.17578125 C-15.41543446 23.81389432 -12.72273429 17.60558887 -9.66796875 11.48828125 C-9.3423999 10.83561279 -9.01683105 10.18294434 -8.68139648 9.51049805 C-4.16191978 0.68183483 -4.16191978 0.68183483 0 0 Z " fill="#060708" transform="translate(95.98046875,32.51171875)"/>
<path d="M0 0 C66 0 132 0 200 0 C200 66 200 132 200 200 C134 200 68 200 0 200 C0 134 0 68 0 0 Z M6 6 C6 67.71 6 129.42 6 193 C67.71 193 129.42 193 193 193 C193 131.29 193 69.58 193 6 C131.29 6 69.58 6 6 6 Z " fill="#3A738E" transform="translate(0,0)"/>
<path d="M0 0 C63.03 0 126.06 0 191 0 C191 63.03 191 126.06 191 191 C127.97 191 64.94 191 0 191 C0 127.97 0 64.94 0 0 Z M2 2 C2 63.71 2 125.42 2 189 C63.71 189 125.42 189 189 189 C189 127.29 189 65.58 189 2 C127.29 2 65.58 2 2 2 Z " fill="#50656E" transform="translate(4,4)"/>
<path d="M0 0 C61.71 0 123.42 0 187 0 C187 61.71 187 123.42 187 187 C125.29 187 63.58 187 0 187 C0 125.29 0 63.58 0 0 Z M2 2 C2 62.39 2 122.78 2 185 C46.983125 185.061875 46.983125 185.061875 92.875 185.125 C102.35847168 185.14320801 111.84194336 185.16141602 121.61279297 185.18017578 C130.08314441 185.18686294 130.08314441 185.18686294 138.55349731 185.19088745 C142.33843307 185.19275747 146.12331323 185.20027897 149.90823364 185.21115112 C154.72840985 185.22481477 159.54850458 185.22899248 164.36869836 185.22614455 C166.14253006 185.22674054 167.91636446 185.23073854 169.69017959 185.23843026 C172.07691361 185.24830323 174.46332653 185.24600776 176.85006714 185.24050903 C177.55219393 185.24633436 178.25432072 185.25215969 178.97772408 185.25816154 C182.93177126 185.33430989 182.93177126 185.33430989 186 183 C186.30335505 179.82922123 186.30335505 179.82922123 186.24723816 176.02210999 C186.25085978 174.93241328 186.25085978 174.93241328 186.25455457 173.82070249 C186.26021337 171.37394926 186.25151211 168.9274546 186.24291992 166.48071289 C186.24399227 164.73161244 186.24593026 162.98251233 186.24867249 161.2334137 C186.25353182 156.47311705 186.24585132 151.71291373 186.23571944 146.95262837 C186.22695514 141.97854669 186.22869608 137.00446808 186.2290802 132.03038025 C186.22814272 123.67494133 186.21944805 115.31953866 186.20581055 106.96411133 C186.19008928 97.29612631 186.18481222 87.62818103 186.1855461 77.96018416 C186.18615601 68.67183445 186.18105361 59.38349772 186.17275429 50.0951519 C186.16921859 46.13707821 186.16739063 42.17900911 186.16686058 38.22093391 C186.16585761 33.56133884 186.15976473 28.90177725 186.14969444 24.24219322 C186.14676813 22.52930532 186.14554434 20.81641356 186.14612198 19.10352325 C186.14661108 16.77060419 186.14097259 14.43777959 186.13371277 12.10487366 C186.13203692 10.79760346 186.13036108 9.49033327 186.12863445 8.14344883 C186.1442635 4.97083333 186.1442635 4.97083333 185 2 C124.61 2 64.22 2 2 2 Z " fill="#DBDBDB" transform="translate(6,6)"/>
<path d="M0 0 C64.02 0 128.04 0 194 0 C194 64.02 194 128.04 194 194 C129.98 194 65.96 194 0 194 C0 129.98 0 65.96 0 0 Z M1 1 C1 64.03 1 127.06 1 192 C64.03 192 127.06 192 192 192 C192 128.97 192 65.94 192 1 C128.97 1 65.94 1 1 1 Z " fill="#DAE0E3" transform="translate(3,3)"/>
<path d="M0 0 C2.475 0.495 2.475 0.495 5 1 C5.28823278 7.14824351 4.41117176 11.80691033 2.40234375 17.58984375 C1.84466886 19.27364393 1.28993862 20.95842156 0.73779297 22.64404297 C0.44974792 23.52002136 0.16170288 24.39599976 -0.1350708 25.29852295 C-1.58826974 29.83737259 -2.88842745 34.41789047 -4.18359375 39.00390625 C-4.58040344 40.40664543 -4.58040344 40.40664543 -4.98522949 41.83772278 C-5.8052816 44.74524912 -6.62153846 47.65382332 -7.4375 50.5625 C-8.01372331 52.60753463 -8.59005901 54.65253759 -9.16650391 56.69750977 C-12.13864978 67.25964843 -15.06020708 77.83225328 -17.875 88.4375 C-20.05262962 96.61814421 -22.33142948 104.76204944 -24.75 112.875 C-25.03214355 113.83978271 -25.31428711 114.80456543 -25.60498047 115.79858398 C-25.87455566 116.68747314 -26.14413086 117.5763623 -26.421875 118.4921875 C-26.77137207 119.65790283 -26.77137207 119.65790283 -27.12792969 120.84716797 C-28.12049052 123.29744833 -29.2056881 125.05625334 -31 127 C-34.1875 127.25 -34.1875 127.25 -37 127 C-37.75 125.25 -37.75 125.25 -38 123 C-37.401875 122.443125 -36.80375 121.88625 -36.1875 121.3125 C-33.51465463 118.48692061 -33.2091392 116.45759581 -32.58984375 112.70703125 C-32.07178155 110.32943455 -31.40619578 108.16447753 -30.61816406 105.86743164 C-29.12023498 101.41540143 -27.79055696 96.93532329 -26.51953125 92.4140625 C-25.99316489 90.5575708 -25.46661861 88.7011301 -24.93994141 86.84472656 C-24.63944885 85.78338501 -24.3389563 84.72204346 -24.02935791 83.62854004 C-22.14888003 76.99975794 -20.254325 70.37498924 -18.36184311 63.74962616 C-17.38875258 60.34279828 -16.41602369 56.93586719 -15.44330025 53.52893448 C-14.94699202 51.79065348 -14.45065779 50.0523799 -13.95429802 48.31411362 C-12.68426765 43.86641058 -11.41450885 39.4186303 -10.14526367 34.97070312 C-8.90050137 30.60861672 -7.65510019 26.24671318 -6.40925026 21.88493729 C-5.93814882 20.23516032 -5.4672794 18.58531707 -4.99664879 16.93540573 C-4.34432428 14.64865665 -3.69118225 12.36214259 -3.0378418 10.07568359 C-2.84514709 9.3994545 -2.65245239 8.7232254 -2.45391846 8.02650452 C-1.6830417 5.33141565 -0.88661023 2.6598307 0 0 Z " fill="#0E4B76" transform="translate(176,42)"/>
<path d="M0 0 C1.95890942 1.80219666 2.95255972 3.22356072 3.1171875 5.91796875 C2.77785049 10.08591251 1.82797612 13.74828408 0.23828125 17.609375 C-0.11999756 18.48158691 -0.47827637 19.35379883 -0.84741211 20.25244141 C-6.7842078 34.40467584 -12.96067322 48.36028829 -20 62 C-20.52722656 63.11246094 -21.05445312 64.22492188 -21.59765625 65.37109375 C-23 68 -23 68 -25 69 C-27.3329866 69.04022391 -29.66706666 69.04320247 -32 69 C-31.59845839 66.28959412 -31.01400964 65.01635984 -29.20703125 62.90625 C-26.41641883 59.23153205 -24.75661346 55.40746122 -22.9375 51.1875 C-22.14956252 49.39533829 -21.36044704 47.60369415 -20.5703125 45.8125 C-19.94817871 44.39710938 -19.94817871 44.39710938 -19.31347656 42.953125 C-17.49940996 38.87450982 -15.62080552 34.82684284 -13.74389648 30.77685547 C-9.5778578 21.78537439 -5.5695406 12.78987042 -2.0234375 3.53515625 C-1 1 -1 1 0 0 Z " fill="#0A4773" transform="translate(96,99)"/>
<path d="M0 0 C4.2593504 3.67852989 5.31066761 8.79739467 7 14 C7.29261719 14.88300781 7.58523437 15.76601563 7.88671875 16.67578125 C10.12561115 24.04774403 10.67509491 31.32551778 11 39 C10.34 39 9.68 39 9 39 C8.76925781 38.07703125 8.53851563 37.1540625 8.30078125 36.203125 C8.14577148 35.58332764 7.99076172 34.96353027 7.83105469 34.32495117 C7.48098718 32.92418668 7.13138905 31.52330481 6.78222656 30.12231445 C5.73952564 25.94195721 4.68652787 21.76446927 3.62109375 17.58984375 C3.39317139 16.69168945 3.16524902 15.79353516 2.93041992 14.86816406 C2.48158174 13.09986725 2.02998108 11.33226902 1.57543945 9.56542969 C1.2673938 8.34774902 1.2673938 8.34774902 0.953125 7.10546875 C0.76911133 6.38512451 0.58509766 5.66478027 0.39550781 4.92260742 C0 3 0 3 0 0 Z " fill="#144E78" transform="translate(55,42)"/>
<path d="M0 0 C0.66 0 1.32 0 2 0 C4.26719591 4.88984365 6.52731471 9.78287247 8.78100586 14.67895508 C9.54828506 16.34325606 10.31747308 18.00667844 11.08862305 19.66918945 C12.19826101 22.06231582 13.30094162 24.45854289 14.40234375 26.85546875 C14.74716293 27.5952446 15.09198212 28.33502045 15.44725037 29.09721375 C17.10324502 32.7186036 18.4494065 36.01589176 19 40 C18.34 40 17.68 40 17 40 C0 7.05564844 0 7.05564844 0 0 Z " fill="#1B537C" transform="translate(110,43)"/>
<path d="M0 0 C0.598125 0.165 1.19625 0.33 1.8125 0.5 C4.11344336 1.1114124 4.11344336 1.1114124 7 1 C6.50769231 6.53846154 6.50769231 6.53846154 3.9375 8.875 C2.9784375 9.431875 2.9784375 9.431875 2 10 C-1.07692308 5.69230769 -1.07692308 5.69230769 -0.6875 2.1875 C-0.460625 1.465625 -0.23375 0.74375 0 0 Z " fill="#808387" transform="translate(111,96)"/>
<path d="M0 0 C2.31 0 4.62 0 7 0 C7.33 0.99 7.66 1.98 8 3 C8.66 3.33 9.32 3.66 10 4 C8.25 7.875 8.25 7.875 6 9 C6 8.01 6 7.02 6 6 C5.01 6 4.02 6 3 6 C3 5.01 3 4.02 3 3 C2.34 3 1.68 3 1 3 C0.67 2.01 0.34 1.02 0 0 Z " fill="#868A8E" transform="translate(33,44)"/>
<path d="M0 0 C1.74933288 2.62399933 3.19732575 5.19474533 4.625 8 C5.29402344 9.299375 5.29402344 9.299375 5.9765625 10.625 C7 13 7 13 7 16 C6.34 16 5.68 16 5 16 C3.96455826 14.09118566 2.94709915 12.17260796 1.9375 10.25 C1.36902344 9.18265625 0.80054687 8.1153125 0.21484375 7.015625 C-1.01044806 3.97406463 -1.25348607 2.95106435 0 0 Z " fill="#2D5F84" transform="translate(122,67)"/>
<path d="M0 0 C2.00384991 3.00577487 3.26119742 5.84977264 4.625 9.1875 C5.07101563 10.27417969 5.51703125 11.36085938 5.9765625 12.48046875 C6.31429687 13.31191406 6.65203125 14.14335938 7 15 C6.01 15.33 5.02 15.66 4 16 C3.1290621 14.27921959 2.27885442 12.54793677 1.4375 10.8125 C0.72400391 9.36810547 0.72400391 9.36810547 -0.00390625 7.89453125 C-1.0953885 4.72281223 -0.96567452 3.16301775 0 0 Z " fill="#D4D8DD" transform="translate(112,51)"/>
<path d="M0 0 C1.0625 1.875 1.0625 1.875 2 4 C1.67 4.66 1.34 5.32 1 6 C1.66 6 2.32 6 3 6 C3 6.66 3 7.32 3 8 C3.99 8.33 4.98 8.66 6 9 C2.25 10.125 2.25 10.125 0 9 C0 8.34 0 7.68 0 7 C-0.66 7 -1.32 7 -2 7 C-2.125 4.625 -2.125 4.625 -2 2 C-1.34 1.34 -0.68 0.68 0 0 Z " fill="#787C81" transform="translate(44,71)"/>
<path d="M0 0 C1.7506452 5.2519356 0.9100032 8.86686639 -1 14 C-1.99 13.67 -2.98 13.34 -4 13 C-3.34 10.69 -2.68 8.38 -2 6 C-2.66 5.67 -3.32 5.34 -4 5 C-3.01 4.67 -2.02 4.34 -1 4 C-0.26676204 1.98491642 -0.26676204 1.98491642 0 0 Z " fill="#B5BABE" transform="translate(134,128)"/>
<path d="M0 0 C2.87255066 2.42195448 3.70838919 4.59742703 4.6875 8.1875 C4.93886719 9.08855469 5.19023438 9.98960938 5.44921875 10.91796875 C5.63097656 11.60503906 5.81273437 12.29210938 6 13 C5.34 13 4.68 13 4 13 C3.67 13.66 3.34 14.32 3 15 C2.49564306 13.0636296 1.99666126 11.12585854 1.5 9.1875 C1.2215625 8.10855469 0.943125 7.02960937 0.65625 5.91796875 C0 3 0 3 0 0 Z " fill="#285C82" transform="translate(55,42)"/>
<path d="M0 0 C0.33 1.32 0.66 2.64 1 4 C0.34 4 -0.32 4 -1 4 C-1.33 4.99 -1.66 5.98 -2 7 C-4.0625 7.6875 -4.0625 7.6875 -6 8 C-5.62403791 5.21788056 -5.32681541 3.4120716 -3.5625 1.1875 C-2 0 -2 0 0 0 Z " fill="#AAB0B5" transform="translate(129,123)"/>
<path d="M0 0 C1.65 0.99 3.3 1.98 5 3 C4.34 4.32 3.68 5.64 3 7 C2.34 7 1.68 7 1 7 C-1 4 -1 4 -0.625 1.8125 C-0.41875 1.214375 -0.2125 0.61625 0 0 Z " fill="#B6BABE" transform="translate(131,143)"/>
<path d="M0 0 C2.125 0.9375 2.125 0.9375 4 2 C3.67 3.32 3.34 4.64 3 6 C1.35 6 -0.3 6 -2 6 C-2 4.35 -2 2.7 -2 1 C-1.34 0.67 -0.68 0.34 0 0 Z " fill="#363A3D" transform="translate(120,111)"/>
<path d="M0 0 C0.66 0 1.32 0 2 0 C5 5.75 5 5.75 5 8 C4.01 8 3.02 8 2 8 C1.34 5.36 0.68 2.72 0 0 Z " fill="#275B81" transform="translate(110,43)"/>
<path d="M0 0 C0.66 0.33 1.32 0.66 2 1 C2.625 3.0625 2.625 3.0625 3 5 C1.35 5.66 -0.3 6.32 -2 7 C-1.125 1.125 -1.125 1.125 0 0 Z " fill="#B9BCC0" transform="translate(146,76)"/>
<path d="M0 0 C0.598125 0.165 1.19625 0.33 1.8125 0.5 C4.11344336 1.1114124 4.11344336 1.1114124 7 1 C6.34 2.32 5.68 3.64 5 5 C4.67 4.34 4.34 3.68 4 3 C1.97536745 2.34786708 1.97536745 2.34786708 0 2 C0 1.34 0 0.68 0 0 Z " fill="#43474C" transform="translate(111,96)"/>
</svg>
