<!DOCTYPE svg PUBLIC "-//W3C//DTD SVG 1.1//EN" "http://www.w3.org/Graphics/SVG/1.1/DTD/svg11.dtd">
<!-- Uploaded to: SVG Repo, www.svgrepo.com, Transformed by: SVG Repo Mixer Tools -->
<svg fill="#ffffff" width="800px" height="800px" viewBox="0 0 24 24" xmlns="http://www.w3.org/2000/svg" stroke="#ffffff">
<g id="SVGRepo_bgCarrier" stroke-width="0"/>
<g id="SVGRepo_tracerCarrier" stroke-linecap="round" stroke-linejoin="round"/>
<g id="SVGRepo_iconCarrier">
<path d="M20.98 11.802a.995.995 0 0 0-.738-.771l-6.86-1.716 2.537-5.921a.998.998 0 0 0-.317-1.192.996.996 0 0 0-1.234.024l-11 9a1 1 0 0 0 .39 1.744l6.719 1.681-3.345 5.854A1.001 1.001 0 0 0 8 22a.995.995 0 0 0 .6-.2l12-9a1 1 0 0 0 .38-.998z"/>
</g>
</svg>