<svg width="320" height="120" viewBox="0 0 320 120" fill="none" xmlns="http://www.w3.org/2000/svg">
<path d="M165.742 72.0469C165.742 70.7188 165.273 69.7031 164.336 69C163.398 68.2812 161.711 67.5312 159.273 66.75C156.836 65.9531 154.906 65.1719 153.484 64.4062C149.609 62.3125 147.672 59.4922 147.672 55.9453C147.672 54.1016 148.188 52.4609 149.219 51.0234C150.266 49.5703 151.758 48.4375 153.695 47.625C155.648 46.8125 157.836 46.4062 160.258 46.4062C162.695 46.4062 164.867 46.8516 166.773 47.7422C168.68 48.6172 170.156 49.8594 171.203 51.4688C172.266 53.0781 172.797 54.9062 172.797 56.9531H165.766C165.766 55.3906 165.273 54.1797 164.289 53.3203C163.305 52.4453 161.922 52.0078 160.141 52.0078C158.422 52.0078 157.086 52.375 156.133 53.1094C155.18 53.8281 154.703 54.7812 154.703 55.9688C154.703 57.0781 155.258 58.0078 156.367 58.7578C157.492 59.5078 159.141 60.2109 161.312 60.8672C165.312 62.0703 168.227 63.5625 170.055 65.3438C171.883 67.125 172.797 69.3438 172.797 72C172.797 74.9531 171.68 77.2734 169.445 78.9609C167.211 80.6328 164.203 81.4688 160.422 81.4688C157.797 81.4688 155.406 80.9922 153.25 80.0391C151.094 79.0703 149.445 77.75 148.305 76.0781C147.18 74.4062 146.617 72.4688 146.617 70.2656H153.672C153.672 74.0312 155.922 75.9141 160.422 75.9141C162.094 75.9141 163.398 75.5781 164.336 74.9062C165.273 74.2188 165.742 73.2656 165.742 72.0469ZM184.281 81H177.484V55.6406H184.281V81ZM177.086 49.0781C177.086 48.0625 177.422 47.2266 178.094 46.5703C178.781 45.9141 179.711 45.5859 180.883 45.5859C182.039 45.5859 182.961 45.9141 183.648 46.5703C184.336 47.2266 184.68 48.0625 184.68 49.0781C184.68 50.1094 184.328 50.9531 183.625 51.6094C182.938 52.2656 182.023 52.5938 180.883 52.5938C179.742 52.5938 178.82 52.2656 178.117 51.6094C177.43 50.9531 177.086 50.1094 177.086 49.0781ZM188.898 68.1328C188.898 64.2422 189.82 61.1094 191.664 58.7344C193.523 56.3594 196.023 55.1719 199.164 55.1719C201.945 55.1719 204.109 56.125 205.656 58.0312L205.938 55.6406H212.078V80.1562C212.078 82.375 211.57 84.3047 210.555 85.9453C209.555 87.5859 208.141 88.8359 206.312 89.6953C204.484 90.5547 202.344 90.9844 199.891 90.9844C198.031 90.9844 196.219 90.6094 194.453 89.8594C192.688 89.125 191.352 88.1719 190.445 87L193.445 82.875C195.133 84.7656 197.18 85.7109 199.586 85.7109C201.383 85.7109 202.781 85.2266 203.781 84.2578C204.781 83.3047 205.281 81.9453 205.281 80.1797V78.8203C203.719 80.5859 201.664 81.4688 199.117 81.4688C196.07 81.4688 193.602 80.2812 191.711 77.9062C189.836 75.5156 188.898 72.3516 188.898 68.4141V68.1328ZM195.672 68.625C195.672 70.9219 196.133 72.7266 197.055 74.0391C197.977 75.3359 199.242 75.9844 200.852 75.9844C202.914 75.9844 204.391 75.2109 205.281 73.6641V63C204.375 61.4531 202.914 60.6797 200.898 60.6797C199.273 60.6797 197.992 61.3438 197.055 62.6719C196.133 64 195.672 65.9844 195.672 68.625ZM245.5 81H238.469L224.781 58.5469V81H217.75V46.875H224.781L238.492 69.375V46.875H245.5V81ZM250.141 68.0859C250.141 65.5703 250.625 63.3281 251.594 61.3594C252.562 59.3906 253.953 57.8672 255.766 56.7891C257.594 55.7109 259.711 55.1719 262.117 55.1719C265.539 55.1719 268.328 56.2188 270.484 58.3125C272.656 60.4062 273.867 63.25 274.117 66.8438L274.164 68.5781C274.164 72.4688 273.078 75.5938 270.906 77.9531C268.734 80.2969 265.82 81.4688 262.164 81.4688C258.508 81.4688 255.586 80.2969 253.398 77.9531C251.227 75.6094 250.141 72.4219 250.141 68.3906V68.0859ZM256.914 68.5781C256.914 70.9844 257.367 72.8281 258.273 74.1094C259.18 75.375 260.477 76.0078 262.164 76.0078C263.805 76.0078 265.086 75.3828 266.008 74.1328C266.93 72.8672 267.391 70.8516 267.391 68.0859C267.391 65.7266 266.93 63.8984 266.008 62.6016C265.086 61.3047 263.789 60.6562 262.117 60.6562C260.461 60.6562 259.18 61.3047 258.273 62.6016C257.367 63.8828 256.914 65.875 256.914 68.5781ZM285.742 75.5391H298.141V81H277.094V76.875L289.023 61.125H277.445V55.6406H297.766V59.6484L285.742 75.5391Z" fill="#F2F2F2"/>
<path opacity="0.9" d="M69.1393 109.354C41.2841 109.354 19 87.4976 19 60.1771C19 33.1297 41.2841 11 69.1393 11H100.616C110.922 11 119 19.1962 119 29.0316V60.1771C119 87.4976 96.7159 109.354 69.1393 109.354Z" fill="#002B76"/>
<path d="M68.746 38.8879C47.9401 38.8879 36.2207 56.1168 35.7319 56.8501C34.5269 58.6568 34.5269 60.9932 35.7328 62.8011C36.2207 63.5331 47.9401 80.762 68.746 80.762C89.5517 80.762 101.271 63.5331 101.76 62.7997C102.965 60.9932 102.965 58.6568 101.759 56.8489C101.271 56.1168 89.5517 38.8879 68.746 38.8879ZM38.6117 60.8807C38.1839 60.2393 38.1839 59.4106 38.6117 58.7691C39.0048 58.1792 47.3488 45.9228 62.2671 42.9827C55.5068 45.5922 50.6965 52.1553 50.6965 59.825C50.6965 67.4946 55.5068 74.0577 62.2671 76.6672C47.3488 73.7271 39.0048 61.4706 38.6117 60.8807ZM60.4284 59.8249C60.4284 60.7806 59.6538 61.5552 58.698 61.5552C57.7423 61.5552 56.9676 60.7806 56.9676 59.8249C56.9676 53.3304 62.2513 48.0468 68.7458 48.0468C69.7015 48.0468 70.4762 48.8213 70.4762 49.7771C70.4762 50.7329 69.7015 51.5074 68.7458 51.5074C64.1595 51.5074 60.4284 55.2384 60.4284 59.8249ZM68.746 64.0317C66.4263 64.0317 64.5392 62.1446 64.5392 59.825C64.5392 57.5053 66.4263 55.6181 68.746 55.6181C71.0658 55.6181 72.9528 57.5052 72.9528 59.825C72.9528 62.1447 71.0658 64.0317 68.746 64.0317ZM98.8802 60.8807C98.4871 61.4706 90.1431 73.7269 75.2249 76.6672C81.9853 74.0575 86.7955 67.4945 86.7955 59.825C86.7955 52.1554 81.9853 45.5923 75.2249 42.9828C90.1431 45.923 98.4871 58.1793 98.8802 58.7692C99.308 59.4106 99.308 60.2393 98.8802 60.8807Z" fill="#F9F2F9"/>
</svg>
