<svg xmlns="http://www.w3.org/2000/svg" width="100" height="100" viewBox="0 0 100 100" fill="none">
  <rect width="100" height="100" rx="20" fill="url(#paint0_radial_3745_61982)"/>
  <g filter="url(#filter0_di_3745_61982)">
    <path fill-rule="evenodd" clip-rule="evenodd" d="M11 49.9413L11.0005 49.9385L11.0017 49.9326L11.0046 49.9188L11.012 49.8835C11.0178 49.8566 11.0254 49.8229 11.0349 49.7827C11.0538 49.7022 11.0806 49.5954 11.117 49.464C11.1897 49.2011 11.3008 48.8396 11.4647 48.3918C11.7926 47.4959 12.3314 46.2568 13.1956 44.7748C14.9273 41.8054 17.9475 37.8919 23.1448 33.8204C28.3683 29.7283 33.4402 27.5275 37.2259 26.3486C39.1189 25.7591 40.6935 25.4241 41.8101 25.2355C42.3687 25.1412 42.8134 25.0833 43.127 25.0485C43.2838 25.0311 43.408 25.0195 43.4972 25.0119C43.5419 25.0082 43.5778 25.0054 43.6048 25.0035L43.6385 25.0012L43.6502 25.0004L43.6567 25C43.6567 25 43.6585 24.9999 43.7895 27.2172C43.9205 29.4345 43.922 29.4345 43.922 29.4345L43.92 29.4346C43.9111 29.4353 43.8934 29.4366 43.8672 29.4388C43.8149 29.4432 43.7287 29.4512 43.6109 29.4643C43.3751 29.4904 43.0128 29.537 42.5407 29.6168C41.7322 29.7533 40.604 29.9867 39.2392 30.3801C39.1971 30.3943 39.1548 30.4086 39.1121 30.4232C36.367 31.3622 32.4465 33.1979 27.8631 36.7845C23.2911 40.3621 20.7215 43.7355 19.3002 46.1775C18.5887 47.3999 18.1627 48.3928 17.9171 49.0665C17.7943 49.4035 17.7165 49.6608 17.6707 49.8272C17.6494 49.9051 17.6349 49.963 17.6262 50C17.6349 50.037 17.6494 50.0949 17.6707 50.1728C17.7165 50.3392 17.7943 50.5965 17.9171 50.9335C18.1627 51.6072 18.5887 52.6001 19.3002 53.8225C20.7215 56.2645 23.2911 59.6379 27.8631 63.2155C32.4465 66.8021 36.367 68.6378 39.1121 69.5768C39.1548 69.5914 39.1971 69.6057 39.2392 69.6199C40.604 70.0133 41.7322 70.2467 42.5407 70.3832C43.0128 70.463 43.3751 70.5096 43.6109 70.5357C43.7287 70.5488 43.8149 70.5568 43.8672 70.5612C43.8934 70.5634 43.9111 70.5647 43.92 70.5654L43.922 70.5655C43.922 70.5655 43.9205 70.5654 43.7895 72.7828C43.6585 75.0001 43.6567 75 43.6567 75L43.6548 74.9999L43.6502 74.9996L43.6385 74.9988L43.6048 74.9965C43.5778 74.9946 43.5419 74.9918 43.4972 74.9881C43.408 74.9805 43.2838 74.9689 43.127 74.9515C42.8134 74.9167 42.3687 74.8588 41.8101 74.7645C40.6935 74.5759 39.1189 74.2409 37.2259 73.6514C33.4402 72.4725 28.3683 70.2717 23.1448 66.1796C17.9475 62.1081 14.9273 58.1946 13.1956 55.2252C12.3314 53.7432 11.7926 52.5041 11.4647 51.6082C11.3008 51.1604 11.1897 50.7989 11.117 50.536C11.0806 50.4046 11.0538 50.2978 11.0349 50.2173C11.0254 50.1771 11.0178 50.1434 11.012 50.1165L11.0046 50.0812L11.0017 50.0674L11.0005 50.0615L11 50.0587V49.9413Z" fill="white"/>
    <path fill-rule="evenodd" clip-rule="evenodd" d="M89 49.9413L88.9995 49.9385L88.9983 49.9326L88.9955 49.9188L88.988 49.8835C88.9822 49.8566 88.9746 49.8229 88.9651 49.7827C88.9462 49.7022 88.9194 49.5954 88.8831 49.464C88.8103 49.2011 88.6992 48.8396 88.5353 48.3918C88.2074 47.4959 87.6686 46.2568 86.8044 44.7748C85.0727 41.8054 82.0525 37.8919 76.8552 33.8204C71.6317 29.7283 66.5598 27.5275 62.7741 26.3486C60.8811 25.7591 59.3065 25.4241 58.1899 25.2355C57.6313 25.1412 57.1866 25.0833 56.873 25.0485C56.7162 25.0311 56.592 25.0195 56.5028 25.0119C56.4581 25.0082 56.4222 25.0054 56.3952 25.0035L56.3615 25.0012L56.3498 25.0004L56.3433 25C56.3433 25 56.3415 24.9999 56.2105 27.2172C56.0795 29.4345 56.078 29.4345 56.078 29.4345L56.08 29.4346C56.089 29.4353 56.1066 29.4366 56.1328 29.4388C56.1851 29.4432 56.2713 29.4512 56.3891 29.4643C56.6249 29.4904 56.9872 29.537 57.4593 29.6168C58.2678 29.7533 59.396 29.9867 60.7608 30.3801C60.8029 30.3943 60.8453 30.4086 60.8879 30.4232C63.633 31.3622 67.5535 33.1979 72.1369 36.7845C76.7089 40.3621 79.2785 43.7355 80.6998 46.1775C81.4113 47.3999 81.8373 48.3928 82.0829 49.0665C82.2057 49.4035 82.2835 49.6608 82.3293 49.8272C82.3506 49.9051 82.3651 49.963 82.3738 50C82.3651 50.037 82.3506 50.0949 82.3293 50.1728C82.2835 50.3392 82.2057 50.5965 82.0829 50.9335C81.8373 51.6072 81.4113 52.6001 80.6998 53.8225C79.2785 56.2645 76.7089 59.6379 72.1369 63.2155C67.5535 66.8021 63.633 68.6378 60.8879 69.5768C60.8453 69.5914 60.8029 69.6057 60.7608 69.6199C59.396 70.0133 58.2678 70.2467 57.4593 70.3832C56.9872 70.463 56.6249 70.5096 56.3891 70.5357C56.2713 70.5488 56.1851 70.5568 56.1328 70.5612C56.1066 70.5634 56.089 70.5647 56.08 70.5654L56.078 70.5655C56.078 70.5655 56.0795 70.5654 56.2105 72.7828C56.3415 75.0001 56.3433 75 56.3433 75L56.3452 74.9999L56.3498 74.9996L56.3615 74.9988L56.3952 74.9965C56.4222 74.9946 56.4581 74.9918 56.5028 74.9881C56.592 74.9805 56.7162 74.9689 56.873 74.9515C57.1866 74.9167 57.6313 74.8588 58.1899 74.7645C59.3065 74.5759 60.8811 74.2409 62.7741 73.6514C66.5598 72.4725 71.6317 70.2717 76.8552 66.1796C82.0525 62.1081 85.0727 58.1946 86.8044 55.2252C87.6686 53.7432 88.2074 52.5041 88.5353 51.6082C88.6992 51.1604 88.8103 50.7989 88.8831 50.536C88.9194 50.4046 88.9462 50.2978 88.9651 50.2173C88.9746 50.1771 88.9822 50.1434 88.988 50.1165L88.9955 50.0812L88.9983 50.0674L88.9995 50.0615L89 50.0587V49.9413Z" fill="white"/>
    <path fill-rule="evenodd" clip-rule="evenodd" d="M68.3422 49.998C68.3422 59.8438 60.4177 67.8254 50.6424 67.8254C40.8671 67.8254 32.9426 59.8438 32.9426 49.998C32.9426 40.1522 40.8671 32.1706 50.6424 32.1706C60.4177 32.1706 68.3422 40.1522 68.3422 49.998ZM46.2175 39.9701C46.2175 39.9701 44.0907 42.4779 43.4519 44.4269C43.04 45.6836 42.8988 47.7695 42.8988 47.7695H37.3676C37.3676 47.7695 37.3676 46.0982 38.4738 43.3127C39.5801 40.5272 40.6863 39.9701 40.6863 39.9701H46.2175ZM43.4519 55.569C44.0907 57.518 46.2175 60.0259 46.2175 60.0259H40.6863C40.6863 60.0259 39.5801 59.4688 38.4738 56.6832C37.3676 53.8977 37.3676 52.2264 37.3676 52.2264H42.8988C42.8988 52.2264 43.04 54.3123 43.4519 55.569Z" fill="white"/>
  </g>
  <defs>
    <filter id="filter0_di_3745_61982" x="5" y="23" width="90" height="62" filterUnits="userSpaceOnUse" color-interpolation-filters="sRGB">
      <feFlood flood-opacity="0" result="BackgroundImageFix"/>
      <feColorMatrix in="SourceAlpha" type="matrix" values="0 0 0 0 0 0 0 0 0 0 0 0 0 0 0 0 0 0 127 0" result="hardAlpha"/>
      <feOffset dy="4"/>
      <feGaussianBlur stdDeviation="3"/>
      <feComposite in2="hardAlpha" operator="out"/>
      <feColorMatrix type="matrix" values="0 0 0 0 0.368384 0 0 0 0 0.0623777 0 0 0 0 0.0623777 0 0 0 0.25 0"/>
      <feBlend mode="normal" in2="BackgroundImageFix" result="effect1_dropShadow_3745_61982"/>
      <feBlend mode="normal" in="SourceGraphic" in2="effect1_dropShadow_3745_61982" result="shape"/>
      <feColorMatrix in="SourceAlpha" type="matrix" values="0 0 0 0 0 0 0 0 0 0 0 0 0 0 0 0 0 0 127 0" result="hardAlpha"/>
      <feOffset dy="4"/>
      <feGaussianBlur stdDeviation="3"/>
      <feComposite in2="hardAlpha" operator="arithmetic" k2="-1" k3="1"/>
      <feColorMatrix type="matrix" values="0 0 0 0 0 0 0 0 0 0 0 0 0 0 0 0 0 0 0.06 0"/>
      <feBlend mode="normal" in2="shape" result="effect2_innerShadow_3745_61982"/>
    </filter>
    <radialGradient id="paint0_radial_3745_61982" cx="0" cy="0" r="1" gradientUnits="userSpaceOnUse" gradientTransform="translate(50 50) rotate(45.6903) scale(58.6941)">
      <stop offset="0.329632" stop-color="#FF5E19"/>
      <stop offset="1" stop-color="#FF2929"/>
    </radialGradient>
  </defs>
</svg>