<svg xmlns="http://www.w3.org/2000/svg" width="32" height="32" fill="none" viewBox="0 0 32 32"><path fill="#fff" d="m9.05 20.616 13.968-.178-.06-9.283-14.417.178z"/><path fill="#d80d1a" d="m10.165 20.736-1.302-2.253.127-5.209 5.133 7.491z"/><path fill="#1d86fa" d="m16.72 20.616-6.416-9.401 4.298.06 6.536 9.372z"/><path fill="#d80d1a" d="m22.958 19.125-5.58-7.88 4.118.12 2.12 2.956z"/><path fill="#a1d2d6" d="m8.75 11.722 14.208-.09-.098-.86-14.14.114zM8.99 21.214l14.237-.18-.329-.864-14.237.177z"/><path fill="#c8c8c8" d="M22.772 21.163c.122.147.882.175.882.175s.444.825 1.41.707c.865-.106 1.2-.829 1.2-.829s1.463-.338 2.259-1.464c.846-1.2.882-2.383.882-4.076 0-1.836-.143-3.088-1.076-4.076-1.073-1.134-2.186-1.218-2.186-1.218s-.39-.654-1.271-.636c-.883.018-1.218.74-1.218.74s-.704.151-.882.282c-.091.067-.067 2.703-.054 5.294.012 2.5-.042 4.988.054 5.1"/><path fill="#858585" d="M28.541 16.538c.353.018.345-1.851.036-3.229-.354-1.57-1.694-2.082-1.8-1.993s-.071 1.675.017 1.764c.09.09.918.494 1.2 1.182.283.69.278 2.262.547 2.276M25.299 21.99l-.056-12.213s.258.04.509.207c.242.162.389.395.389.395l.127 10.828s-.176.325-.35.465c-.381.309-.62.318-.62.318"/><path fill="#e1e0e0" d="m24.692 22.043-.157-12.255s-.323.04-.565.258c-.204.182-.318.44-.318.44l.107 11.01s.164.223.353.354c.23.157.58.193.58.193"/><path fill="#c8c8c8" d="M9.13 21.32c.158-.142.036-10.216-.053-10.392-.089-.175-.829-1.069-2.01-1-1.167.069-1.536.876-1.536.876s-1.169.155-2.065 1.5c-.635.954-.82 2.19-.806 3.74.015 1.712.12 3.319 1.142 4.341.982.982 1.94 1.022 1.94 1.022s.267.87 1.573.87c1.289.002 1.816-.956 1.816-.956"/><path fill="#858585" d="M7.548 22.274s-.373-1.907-.427-6.158.256-6.186.256-6.186.258-.017.504.067c.276.093.458.24.458.24s-.244 3.656-.227 5.879c.018 2.222.37 5.85.37 5.85s-.265.153-.423.206c-.164.051-.51.102-.51.102"/><path fill="#e1e0e0" d="M6.858 22.234s-.48-2.45-.533-6.032.157-6.163.157-6.163-.422.127-.633.322c-.21.196-.318.44-.318.44s-.122 3.359-.14 5.39c-.02 2.454.351 5.216.351 5.216s.085.296.345.496c.367.285.771.331.771.331"/><path fill="#fff" d="M6.1 16.763c.19 0 .3 1.251.38 2.58.045.744.411 2.058-.08 2.058-.49 0-.584-.476-.617-2.09-.034-1.612.064-2.548.317-2.548M3.173 16.667c.12-.042.35.634.903 1.156.39.369.76.49.855.744.096.254.222 1.613-.062 1.631-.396.023-1.022-.262-1.393-.933-.59-1.062-.525-2.518-.303-2.598"/></svg>