<svg xmlns="http://www.w3.org/2000/svg" width="32" height="32" fill="none" viewBox="0 0 32 32"><path fill="#455a64" d="m15.255 10.911-4.82-6.048a.204.204 0 0 1 .025-.278.2.2 0 0 1 .284.018l5.127 5.775a.2.2 0 0 1-.018.284l-.307.271a.2.2 0 0 1-.291-.022M16.494 10.878l-.276-.245a.22.22 0 0 1-.017-.313l5.097-5.746a.22.22 0 0 1 .313-.018c.09.078.1.213.027.307l-4.822 5.99a.227.227 0 0 1-.322.025"/><path fill="#455a64" d="M12.389 11.214c0-.775 1.72-1.406 3.842-1.406s3.842.629 3.842 1.406z"/><path fill="#82aec0" d="M28.353 29.337H3.652c-.544 0-.985-.458-.985-1.02V11.8c0-.564.44-1.02.985-1.02h24.703c.542 0 .985.458.985 1.02v16.516c-.003.562-.443 1.02-.987 1.02"/><path fill="#212121" d="M27.637 28.368H4.438a.79.79 0 0 1-.789-.79V12.456a.79.79 0 0 1 .79-.79h23.198c.436 0 .789.354.789.79v15.124a.79.79 0 0 1-.79.789"/><path fill="#b9e4ea" d="m5.2 25.995-1.068 1.677c-.186.293.014.691.36.694h18.414a.536.536 0 0 0 .478-.77l-.667-1.373z"/><path fill="#455a64" d="M27.312 27.662h-2.53a.464.464 0 0 1-.465-.464V21.92c0-.258.209-.464.464-.464h2.531c.258 0 .465.209.465.464v5.278a.464.464 0 0 1-.465.464M26.048 20.226a1.531 1.531 0 1 0 0-3.062 1.531 1.531 0 0 0 0 3.062"/><path fill="#82aec0" d="M24.966 17.798a.254.254 0 0 0-.009.313l.504.678c.158.21.363.382.6.497l.76.37a.254.254 0 0 0 .316-.38l-.505-.678a1.65 1.65 0 0 0-.6-.498l-.76-.369a.26.26 0 0 0-.306.067"/><path fill="#455a64" d="M26.048 16.268a1.531 1.531 0 1 0 0-3.062 1.531 1.531 0 0 0 0 3.062"/><path fill="#82aec0" d="M26.049 13.33c-.118 0-.22.08-.247.194l-.2.822a1.65 1.65 0 0 0 0 .78l.2.822a.254.254 0 0 0 .493 0l.2-.822a1.65 1.65 0 0 0 0-.78l-.2-.822a.256.256 0 0 0-.247-.194"/><path fill="#2f7889" d="M22.992 25.219c-.17.77-.742 1.366-1.475 1.529-1.205.269-3.45.604-7.148.604-3.883 0-6.487-.369-7.89-.642-.775-.151-1.384-.787-1.536-1.607-.348-1.885-.786-5.652.018-10.357.15-.871.814-1.54 1.643-1.653 1.495-.207 4.167-.483 7.765-.483 3.414 0 5.7.25 6.997.45.797.124 1.435.77 1.598 1.608.962 4.957.43 8.733.028 10.55"/><path fill="#212121" fill-rule="evenodd" d="M14.37 13.055c-3.576 0-6.227.274-7.705.478-.623.085-1.147.593-1.265 1.288-.794 4.64-.361 8.353-.02 10.201.121.653.6 1.138 1.184 1.252 1.375.267 3.951.634 7.805.634 3.672 0 5.884-.334 7.051-.594.553-.122 1.002-.576 1.139-1.192.392-1.772.917-5.485-.032-10.369-.13-.67-.633-1.161-1.23-1.254-1.272-.197-3.536-.444-6.928-.444m-7.827-.403c1.514-.209 4.206-.486 7.826-.486 3.436 0 5.746.25 7.064.454h.001c1 .156 1.771.959 1.966 1.964.976 5.028.439 8.867.027 10.73-.206.928-.9 1.665-1.814 1.868-1.242.277-3.52.615-7.244.615-3.91 0-6.544-.372-7.975-.65-.967-.19-1.705-.976-1.887-1.963m2.036-12.532c-1.035.142-1.84.972-2.02 2.02-.815 4.768-.372 8.59-.016 10.512" clip-rule="evenodd"/><path fill="url(#a)" d="M8.686 14.175c.373-.045 1.08-.013 1.329.744.248.758-.298.963-.591 1.187-.843.642-1.26.887-1.767 1.587-.404.56-1.111.384-1.322.015-.169-.298-.293-1.253.064-1.884.771-1.351 1.914-1.605 2.287-1.649"/><defs><linearGradient id="a" x1="8.303" x2="8.07" y1="9.59" y2="18.014" gradientUnits="userSpaceOnUse"><stop stop-color="#fff"/><stop offset="1" stop-color="#fff" stop-opacity="0"/></linearGradient></defs></svg>